<svg xmlns="http://www.w3.org/2000/svg" viewBox="0 0 25.78 20.7">
<polyline points="5.270000000000001,8.445 6.540000000000001,8.445 6.540000000000001,8.445" stroke="#ffffff" stroke-width="0.3" stroke-linejoin="round" stroke-linecap="round" fill="none"/>
<polyline points="5.270000000000001,9.715000000000002 6.540000000000001,9.715000000000002 6.540000000000001,9.715000000000002" stroke="#ffffff" stroke-width="0.3" stroke-linejoin="round" stroke-linecap="round" fill="none"/>
<polyline points="5.270000000000001,10.985000000000001 6.540000000000001,10.985000000000001 6.540000000000001,10.985000000000001" stroke="#ffffff" stroke-width="0.3" stroke-linejoin="round" stroke-linecap="round" fill="none"/>
<polyline points="5.270000000000001,12.255 6.540000000000001,12.255 6.540000000000001,12.255" stroke="#ffffff" stroke-width="0.3" stroke-linejoin="round" stroke-linecap="round" fill="none"/>
<polyline points="5.270000000000001,14.795000000000002 5.270000000000001,5.905000000000001 10.350000000000001,5.905000000000001 15.430000000000001,5.905000000000001 15.430000000000001,7.175000000000001 16.700000000000003,7.175000000000001 16.700000000000003,8.445 17.97,8.445 17.97,12.255 16.700000000000003,12.255 16.700000000000003,13.525 15.430000000000001,13.525 15.430000000000001,14.795000000000002 5.270000000000001,14.795000000000002 5.270000000000001,14.795000000000002" stroke="#ffffff" stroke-width="0.3" stroke-linejoin="round" stroke-linecap="round" fill="none"/>
<rect x="4.000000000000001" y="16.700000000000003" width="15.24" height="12.7" stroke="#ffffff" stroke-width="0.3" fill="rgba(255,255,255,0.06)"/>
<line x1="21.78" y1="11.620000000000001" x2="19.240000000000002" y2="11.620000000000001" stroke="#ffd60a" stroke-width="0.3682857142857143" stroke-linecap="round"/>
<line x1="21.78" y1="9.080000000000002" x2="19.240000000000002" y2="9.08" stroke="#ffd60a" stroke-width="0.3682857142857143" stroke-linecap="round"/>
</svg>