<svg xmlns="http://www.w3.org/2000/svg" viewBox="0 0 180 640">
<rect x="50" y="50" width="80" height="540" stroke="#ffffff" stroke-width="1.5" fill="rgba(255,255,255,0.04)"/>
<text x="90" y="320" fill="#888" font-size="3" font-family="monospace" text-anchor="middle" dominant-baseline="middle">U</text>
<line x1="30" y1="61.25" x2="50" y2="61.25" stroke="#ffd60a" stroke-width="1.5" stroke-linecap="round"/>
<text x="55" y="61.25" fill="#ffd60a" font-size="2" font-family="monospace" text-anchor="start" dominant-baseline="middle">12B2</text>
<line x1="30" y1="83.75" x2="50" y2="83.75" stroke="#ffd60a" stroke-width="1.5" stroke-linecap="round"/>
<text x="55" y="83.75" fill="#ffd60a" font-size="2" font-family="monospace" text-anchor="start" dominant-baseline="middle">12B1</text>
<line x1="30" y1="106.25" x2="50" y2="106.25" stroke="#ffd60a" stroke-width="1.5" stroke-linecap="round"/>
<text x="55" y="106.25" fill="#ffd60a" font-size="2" font-family="monospace" text-anchor="start" dominant-baseline="middle">11B2</text>
<line x1="30" y1="128.75" x2="50" y2="128.75" stroke="#ffd60a" stroke-width="1.5" stroke-linecap="round"/>
<text x="55" y="128.75" fill="#ffd60a" font-size="2" font-family="monospace" text-anchor="start" dominant-baseline="middle">11B1</text>
<line x1="30" y1="151.25" x2="50" y2="151.25" stroke="#ffd60a" stroke-width="1.5" stroke-linecap="round"/>
<text x="55" y="151.25" fill="#ffd60a" font-size="2" font-family="monospace" text-anchor="start" dominant-baseline="middle">10B2</text>
<line x1="30" y1="173.75" x2="50" y2="173.75" stroke="#ffd60a" stroke-width="1.5" stroke-linecap="round"/>
<text x="55" y="173.75" fill="#ffd60a" font-size="2" font-family="monospace" text-anchor="start" dominant-baseline="middle">10B1</text>
<line x1="30" y1="196.25" x2="50" y2="196.25" stroke="#ffd60a" stroke-width="1.5" stroke-linecap="round"/>
<text x="55" y="196.25" fill="#ffd60a" font-size="2" font-family="monospace" text-anchor="start" dominant-baseline="middle">9B2</text>
<line x1="30" y1="218.75" x2="50" y2="218.75" stroke="#ffd60a" stroke-width="1.5" stroke-linecap="round"/>
<text x="55" y="218.75" fill="#ffd60a" font-size="2" font-family="monospace" text-anchor="start" dominant-baseline="middle">9B1</text>
<line x1="30" y1="241.25" x2="50" y2="241.25" stroke="#ffd60a" stroke-width="1.5" stroke-linecap="round"/>
<text x="55" y="241.25" fill="#ffd60a" font-size="2" font-family="monospace" text-anchor="start" dominant-baseline="middle">8B2</text>
<line x1="30" y1="263.75" x2="50" y2="263.75" stroke="#ffd60a" stroke-width="1.5" stroke-linecap="round"/>
<text x="55" y="263.75" fill="#ffd60a" font-size="2" font-family="monospace" text-anchor="start" dominant-baseline="middle">8B1</text>
<line x1="30" y1="286.25" x2="50" y2="286.25" stroke="#ffd60a" stroke-width="1.5" stroke-linecap="round"/>
<text x="55" y="286.25" fill="#ffd60a" font-size="2" font-family="monospace" text-anchor="start" dominant-baseline="middle">7B2</text>
<line x1="30" y1="308.75" x2="50" y2="308.75" stroke="#ffd60a" stroke-width="1.5" stroke-linecap="round"/>
<text x="55" y="308.75" fill="#ffd60a" font-size="2" font-family="monospace" text-anchor="start" dominant-baseline="middle">7B1</text>
<line x1="30" y1="331.25" x2="50" y2="331.25" stroke="#ffd60a" stroke-width="1.5" stroke-linecap="round"/>
<text x="55" y="331.25" fill="#ffd60a" font-size="2" font-family="monospace" text-anchor="start" dominant-baseline="middle">6B2</text>
<line x1="30" y1="353.75" x2="50" y2="353.75" stroke="#ffd60a" stroke-width="1.5" stroke-linecap="round"/>
<text x="55" y="353.75" fill="#ffd60a" font-size="2" font-family="monospace" text-anchor="start" dominant-baseline="middle">6B1</text>
<line x1="30" y1="376.25" x2="50" y2="376.25" stroke="#ffd60a" stroke-width="1.5" stroke-linecap="round"/>
<text x="55" y="376.25" fill="#ffd60a" font-size="2" font-family="monospace" text-anchor="start" dominant-baseline="middle">5B2</text>
<line x1="30" y1="398.75" x2="50" y2="398.75" stroke="#ffd60a" stroke-width="1.5" stroke-linecap="round"/>
<text x="55" y="398.75" fill="#ffd60a" font-size="2" font-family="monospace" text-anchor="start" dominant-baseline="middle">5B1</text>
<line x1="30" y1="421.25" x2="50" y2="421.25" stroke="#ffd60a" stroke-width="1.5" stroke-linecap="round"/>
<text x="55" y="421.25" fill="#ffd60a" font-size="2" font-family="monospace" text-anchor="start" dominant-baseline="middle">4B2</text>
<line x1="30" y1="443.75" x2="50" y2="443.75" stroke="#ffd60a" stroke-width="1.5" stroke-linecap="round"/>
<text x="55" y="443.75" fill="#ffd60a" font-size="2" font-family="monospace" text-anchor="start" dominant-baseline="middle">4B1</text>
<line x1="30" y1="466.25" x2="50" y2="466.25" stroke="#ffd60a" stroke-width="1.5" stroke-linecap="round"/>
<text x="55" y="466.25" fill="#ffd60a" font-size="2" font-family="monospace" text-anchor="start" dominant-baseline="middle">3B2</text>
<line x1="30" y1="488.75" x2="50" y2="488.75" stroke="#ffd60a" stroke-width="1.5" stroke-linecap="round"/>
<text x="55" y="488.75" fill="#ffd60a" font-size="2" font-family="monospace" text-anchor="start" dominant-baseline="middle">3B1</text>
<line x1="30" y1="511.25" x2="50" y2="511.25" stroke="#ffd60a" stroke-width="1.5" stroke-linecap="round"/>
<text x="55" y="511.25" fill="#ffd60a" font-size="2" font-family="monospace" text-anchor="start" dominant-baseline="middle">2B2</text>
<line x1="30" y1="533.75" x2="50" y2="533.75" stroke="#ffd60a" stroke-width="1.5" stroke-linecap="round"/>
<text x="55" y="533.75" fill="#ffd60a" font-size="2" font-family="monospace" text-anchor="start" dominant-baseline="middle">2B1</text>
<line x1="30" y1="556.25" x2="50" y2="556.25" stroke="#ffd60a" stroke-width="1.5" stroke-linecap="round"/>
<text x="55" y="556.25" fill="#ffd60a" font-size="2" font-family="monospace" text-anchor="start" dominant-baseline="middle">1B2</text>
<line x1="30" y1="578.75" x2="50" y2="578.75" stroke="#ffd60a" stroke-width="1.5" stroke-linecap="round"/>
<text x="55" y="578.75" fill="#ffd60a" font-size="2" font-family="monospace" text-anchor="start" dominant-baseline="middle">1B1</text>
<line x1="150" y1="60" x2="130" y2="60" stroke="#ffd60a" stroke-width="1.5" stroke-linecap="round"/>
<text x="125" y="60" fill="#ffd60a" font-size="2" font-family="monospace" text-anchor="end" dominant-baseline="middle">1A1</text>
<line x1="150" y1="80" x2="130" y2="80" stroke="#ffd60a" stroke-width="1.5" stroke-linecap="round"/>
<text x="125" y="80" fill="#ffd60a" font-size="2" font-family="monospace" text-anchor="end" dominant-baseline="middle">1A2</text>
<line x1="150" y1="100" x2="130" y2="100" stroke="#ffd60a" stroke-width="1.5" stroke-linecap="round"/>
<text x="125" y="100" fill="#ffd60a" font-size="2" font-family="monospace" text-anchor="end" dominant-baseline="middle">2A1</text>
<line x1="150" y1="120" x2="130" y2="120" stroke="#ffd60a" stroke-width="1.5" stroke-linecap="round"/>
<text x="125" y="120" fill="#ffd60a" font-size="2" font-family="monospace" text-anchor="end" dominant-baseline="middle">2A2</text>
<line x1="150" y1="140" x2="130" y2="140" stroke="#ffd60a" stroke-width="1.5" stroke-linecap="round"/>
<text x="125" y="140" fill="#ffd60a" font-size="2" font-family="monospace" text-anchor="end" dominant-baseline="middle">3A1</text>
<line x1="150" y1="160" x2="130" y2="160" stroke="#ffd60a" stroke-width="1.5" stroke-linecap="round"/>
<text x="125" y="160" fill="#ffd60a" font-size="2" font-family="monospace" text-anchor="end" dominant-baseline="middle">3A2</text>
<line x1="150" y1="180" x2="130" y2="180" stroke="#ffd60a" stroke-width="1.5" stroke-linecap="round"/>
<text x="125" y="180" fill="#ffd60a" font-size="2" font-family="monospace" text-anchor="end" dominant-baseline="middle">4A1</text>
<line x1="150" y1="200" x2="130" y2="200" stroke="#ffd60a" stroke-width="1.5" stroke-linecap="round"/>
<text x="125" y="200" fill="#ffd60a" font-size="2" font-family="monospace" text-anchor="end" dominant-baseline="middle">4A2</text>
<line x1="150" y1="220" x2="130" y2="220" stroke="#ffd60a" stroke-width="1.5" stroke-linecap="round"/>
<text x="125" y="220" fill="#ffd60a" font-size="2" font-family="monospace" text-anchor="end" dominant-baseline="middle">5A1</text>
<line x1="150" y1="240" x2="130" y2="240" stroke="#ffd60a" stroke-width="1.5" stroke-linecap="round"/>
<text x="125" y="240" fill="#ffd60a" font-size="2" font-family="monospace" text-anchor="end" dominant-baseline="middle">5A2</text>
<line x1="150" y1="260" x2="130" y2="260" stroke="#ffd60a" stroke-width="1.5" stroke-linecap="round"/>
<text x="125" y="260" fill="#ffd60a" font-size="2" font-family="monospace" text-anchor="end" dominant-baseline="middle">6A1</text>
<line x1="150" y1="280" x2="130" y2="280" stroke="#ffd60a" stroke-width="1.5" stroke-linecap="round"/>
<text x="125" y="280" fill="#ffd60a" font-size="2" font-family="monospace" text-anchor="end" dominant-baseline="middle">6A2</text>
<line x1="150" y1="300" x2="130" y2="300" stroke="#ffd60a" stroke-width="1.5" stroke-linecap="round"/>
<text x="125" y="300" fill="#ffd60a" font-size="2" font-family="monospace" text-anchor="end" dominant-baseline="middle">7A1</text>
<line x1="150" y1="320" x2="130" y2="320" stroke="#ffd60a" stroke-width="1.5" stroke-linecap="round"/>
<text x="125" y="320" fill="#ffd60a" font-size="2" font-family="monospace" text-anchor="end" dominant-baseline="middle">7A2</text>
<line x1="150" y1="340.00000000000006" x2="130" y2="340.00000000000006" stroke="#ffd60a" stroke-width="1.5" stroke-linecap="round"/>
<text x="125" y="340.00000000000006" fill="#ffd60a" font-size="2" font-family="monospace" text-anchor="end" dominant-baseline="middle">8A1</text>
<line x1="150" y1="360" x2="130" y2="360" stroke="#ffd60a" stroke-width="1.5" stroke-linecap="round"/>
<text x="125" y="360" fill="#ffd60a" font-size="2" font-family="monospace" text-anchor="end" dominant-baseline="middle">8A2</text>
<line x1="150" y1="380" x2="130" y2="380" stroke="#ffd60a" stroke-width="1.5" stroke-linecap="round"/>
<text x="125" y="380" fill="#ffd60a" font-size="2" font-family="monospace" text-anchor="end" dominant-baseline="middle">9A1</text>
<line x1="150" y1="400" x2="130" y2="400" stroke="#ffd60a" stroke-width="1.5" stroke-linecap="round"/>
<text x="125" y="400" fill="#ffd60a" font-size="2" font-family="monospace" text-anchor="end" dominant-baseline="middle">9A2</text>
<line x1="150" y1="420" x2="130" y2="420" stroke="#ffd60a" stroke-width="1.5" stroke-linecap="round"/>
<text x="125" y="420" fill="#ffd60a" font-size="2" font-family="monospace" text-anchor="end" dominant-baseline="middle">10A1</text>
<line x1="150" y1="440" x2="130" y2="440" stroke="#ffd60a" stroke-width="1.5" stroke-linecap="round"/>
<text x="125" y="440" fill="#ffd60a" font-size="2" font-family="monospace" text-anchor="end" dominant-baseline="middle">10A2</text>
<line x1="150" y1="460" x2="130" y2="460" stroke="#ffd60a" stroke-width="1.5" stroke-linecap="round"/>
<text x="125" y="460" fill="#ffd60a" font-size="2" font-family="monospace" text-anchor="end" dominant-baseline="middle">11A1</text>
<line x1="150" y1="480" x2="130" y2="480" stroke="#ffd60a" stroke-width="1.5" stroke-linecap="round"/>
<text x="125" y="480" fill="#ffd60a" font-size="2" font-family="monospace" text-anchor="end" dominant-baseline="middle">11A2</text>
<line x1="150" y1="500" x2="130" y2="500" stroke="#ffd60a" stroke-width="1.5" stroke-linecap="round"/>
<text x="125" y="500" fill="#ffd60a" font-size="2" font-family="monospace" text-anchor="end" dominant-baseline="middle">12A1</text>
<line x1="150" y1="520" x2="130" y2="520" stroke="#ffd60a" stroke-width="1.5" stroke-linecap="round"/>
<text x="125" y="520" fill="#ffd60a" font-size="2" font-family="monospace" text-anchor="end" dominant-baseline="middle">12A2</text>
<line x1="150" y1="540" x2="130" y2="540" stroke="#ffd60a" stroke-width="1.5" stroke-linecap="round"/>
<text x="125" y="540" fill="#ffd60a" font-size="2" font-family="monospace" text-anchor="end" dominant-baseline="middle">S2</text>
<line x1="150" y1="560" x2="130" y2="560" stroke="#ffd60a" stroke-width="1.5" stroke-linecap="round"/>
<text x="125" y="560" fill="#ffd60a" font-size="2" font-family="monospace" text-anchor="end" dominant-baseline="middle">S1</text>
<line x1="150" y1="580" x2="130" y2="580" stroke="#ffd60a" stroke-width="1.5" stroke-linecap="round"/>
<text x="125" y="580" fill="#ffd60a" font-size="2" font-family="monospace" text-anchor="end" dominant-baseline="middle">S0</text>
<line x1="60" y1="30" x2="60" y2="50" stroke="#ffd60a" stroke-width="1.5" stroke-linecap="round"/>
<text x="60" y="25" fill="#ffd60a" font-size="2" font-family="monospace" text-anchor="middle" dominant-baseline="middle">GND</text>
<line x1="80" y1="30" x2="80" y2="50" stroke="#ffd60a" stroke-width="1.5" stroke-linecap="round"/>
<text x="80" y="25" fill="#ffd60a" font-size="2" font-family="monospace" text-anchor="middle" dominant-baseline="middle">GND</text>
<line x1="100" y1="30" x2="100" y2="50" stroke="#ffd60a" stroke-width="1.5" stroke-linecap="round"/>
<text x="100" y="25" fill="#ffd60a" font-size="2" font-family="monospace" text-anchor="middle" dominant-baseline="middle">GND</text>
<line x1="120" y1="30" x2="120" y2="50" stroke="#ffd60a" stroke-width="1.5" stroke-linecap="round"/>
<text x="120" y="25" fill="#ffd60a" font-size="2" font-family="monospace" text-anchor="middle" dominant-baseline="middle">GND</text>
<line x1="90" y1="610" x2="90" y2="590" stroke="#ffd60a" stroke-width="1.5" stroke-linecap="round"/>
<text x="90" y="624" fill="#ffd60a" font-size="2" font-family="monospace" text-anchor="middle" dominant-baseline="middle">VCC</text>
</svg>