<svg xmlns="http://www.w3.org/2000/svg" viewBox="0 0 35.94 28.32">
<polyline points="11.620000000000001,7.8100000000000005 11.620000000000001,20.509999999999998 24.32,14.16 11.620000000000001,7.8100000000000005" stroke="#ffffff" stroke-width="0.3" stroke-linejoin="round" stroke-linecap="round" fill="rgba(255,255,255,0.06)"/>
<polyline points="15.430000000000001,15.43 16.700000000000003,15.43 16.700000000000003,12.89 19.240000000000002,12.89" stroke="#ffffff" stroke-width="0.3" stroke-linejoin="round" stroke-linecap="round" fill="rgba(255,255,255,0.06)"/>
<polyline points="16.700000000000003,15.43 17.970000000000002,15.43 17.970000000000002,12.89" stroke="#ffffff" stroke-width="0.3" stroke-linejoin="round" stroke-linecap="round" fill="rgba(255,255,255,0.06)"/>
<polyline points="11.620000000000001,7.8100000000000005 11.620000000000001,20.509999999999998 24.32,14.16 11.620000000000001,7.8100000000000005" stroke="#ffffff" stroke-width="0.3" stroke-linejoin="round" stroke-linecap="round" fill="rgba(255,255,255,0.06)"/>
<polyline points="15.430000000000001,15.43 16.700000000000003,15.43 16.700000000000003,12.89 19.240000000000002,12.89" stroke="#ffffff" stroke-width="0.3" stroke-linejoin="round" stroke-linecap="round" fill="rgba(255,255,255,0.06)"/>
<polyline points="16.700000000000003,15.43 17.970000000000002,15.43 17.970000000000002,12.89" stroke="#ffffff" stroke-width="0.3" stroke-linejoin="round" stroke-linecap="round" fill="rgba(255,255,255,0.06)"/>
<rect x="14.160000000000002" y="19.240000000000002" width="10.16" height="10.16" stroke="#ffffff" stroke-width="0.3" fill="rgba(255,255,255,0.06)"/>
<line x1="4.000000000000002" y1="14.16" x2="11.620000000000001" y2="14.16" stroke="#ffd60a" stroke-width="0.5134285714285713" stroke-linecap="round"/>
<line x1="31.94" y1="14.16" x2="24.32" y2="14.159999999999998" stroke="#ffd60a" stroke-width="0.5134285714285713" stroke-linecap="round"/>
<line x1="4.000000000000002" y1="14.16" x2="11.620000000000001" y2="14.16" stroke="#ffd60a" stroke-width="0.5134285714285713" stroke-linecap="round"/>
<line x1="31.94" y1="14.16" x2="24.32" y2="14.159999999999998" stroke="#ffd60a" stroke-width="0.5134285714285713" stroke-linecap="round"/>
<line x1="19.240000000000002" y1="24.32" x2="19.240000000000002" y2="19.240000000000002" stroke="#ffd60a" stroke-width="0.5134285714285713" stroke-linecap="round"/>
<text x="19.240000000000002" y="16.240000000000002" fill="#ffd60a" font-size="1" font-family="monospace" text-anchor="middle" dominant-baseline="middle">GND</text>
<line x1="19.240000000000002" y1="4" x2="19.240000000000002" y2="9.08" stroke="#ffd60a" stroke-width="0.5134285714285713" stroke-linecap="round"/>
<text x="19.240000000000002" y="12.08" fill="#ffd60a" font-size="1" font-family="monospace" text-anchor="middle" dominant-baseline="middle">VCC</text>
</svg>