<svg xmlns="http://www.w3.org/2000/svg" viewBox="0 0 180 360">
<rect x="50" y="50" width="80" height="260" stroke="#ffffff" stroke-width="1.5" fill="rgba(255,255,255,0.04)"/>
<text x="90" y="180" fill="#888" font-size="3" font-family="monospace" text-anchor="middle" dominant-baseline="middle">U</text>
<line x1="30" y1="66.25" x2="50" y2="66.25" stroke="#ffd60a" stroke-width="1.5" stroke-linecap="round"/>
<text x="55" y="66.25" fill="#ffd60a" font-size="2" font-family="monospace" text-anchor="start" dominant-baseline="middle">D1</text>
<line x1="30" y1="98.75" x2="50" y2="98.75" stroke="#ffd60a" stroke-width="1.5" stroke-linecap="round"/>
<text x="55" y="98.75" fill="#ffd60a" font-size="2" font-family="monospace" text-anchor="start" dominant-baseline="middle">D2</text>
<line x1="30" y1="131.25" x2="50" y2="131.25" stroke="#ffd60a" stroke-width="1.5" stroke-linecap="round"/>
<text x="55" y="131.25" fill="#ffd60a" font-size="2" font-family="monospace" text-anchor="start" dominant-baseline="middle">D3</text>
<line x1="30" y1="163.75" x2="50" y2="163.75" stroke="#ffd60a" stroke-width="1.5" stroke-linecap="round"/>
<text x="55" y="163.75" fill="#ffd60a" font-size="2" font-family="monospace" text-anchor="start" dominant-baseline="middle">D4</text>
<line x1="30" y1="196.25" x2="50" y2="196.25" stroke="#ffd60a" stroke-width="1.5" stroke-linecap="round"/>
<text x="55" y="196.25" fill="#ffd60a" font-size="2" font-family="monospace" text-anchor="start" dominant-baseline="middle">D5</text>
<line x1="30" y1="228.75" x2="50" y2="228.75" stroke="#ffd60a" stroke-width="1.5" stroke-linecap="round"/>
<text x="55" y="228.75" fill="#ffd60a" font-size="2" font-family="monospace" text-anchor="start" dominant-baseline="middle">D6</text>
<line x1="30" y1="261.25" x2="50" y2="261.25" stroke="#ffd60a" stroke-width="1.5" stroke-linecap="round"/>
<text x="55" y="261.25" fill="#ffd60a" font-size="2" font-family="monospace" text-anchor="start" dominant-baseline="middle">D7</text>
<line x1="30" y1="293.75" x2="50" y2="293.75" stroke="#ffd60a" stroke-width="1.5" stroke-linecap="round"/>
<text x="55" y="293.75" fill="#ffd60a" font-size="2" font-family="monospace" text-anchor="start" dominant-baseline="middle">D8</text>
<line x1="150" y1="60" x2="130" y2="60" stroke="#ffd60a" stroke-width="1.5" stroke-linecap="round"/>
<text x="125" y="60" fill="#ffd60a" font-size="2" font-family="monospace" text-anchor="end" dominant-baseline="middle">SCL</text>
<line x1="150" y1="80" x2="130" y2="80" stroke="#ffd60a" stroke-width="1.5" stroke-linecap="round"/>
<text x="125" y="80" fill="#ffd60a" font-size="2" font-family="monospace" text-anchor="end" dominant-baseline="middle">SDA</text>
<line x1="150" y1="100" x2="130" y2="100" stroke="#ffd60a" stroke-width="1.5" stroke-linecap="round"/>
<text x="125" y="100" fill="#ffd60a" font-size="2" font-family="monospace" text-anchor="end" dominant-baseline="middle">S1</text>
<line x1="150" y1="120" x2="130" y2="120" stroke="#ffd60a" stroke-width="1.5" stroke-linecap="round"/>
<text x="125" y="120" fill="#ffd60a" font-size="2" font-family="monospace" text-anchor="end" dominant-baseline="middle">S2</text>
<line x1="150" y1="140" x2="130" y2="140" stroke="#ffd60a" stroke-width="1.5" stroke-linecap="round"/>
<text x="125" y="140" fill="#ffd60a" font-size="2" font-family="monospace" text-anchor="end" dominant-baseline="middle">S3</text>
<line x1="150" y1="160" x2="130" y2="160" stroke="#ffd60a" stroke-width="1.5" stroke-linecap="round"/>
<text x="125" y="160" fill="#ffd60a" font-size="2" font-family="monospace" text-anchor="end" dominant-baseline="middle">S4</text>
<line x1="150" y1="180" x2="130" y2="180" stroke="#ffd60a" stroke-width="1.5" stroke-linecap="round"/>
<text x="125" y="180" fill="#ffd60a" font-size="2" font-family="monospace" text-anchor="end" dominant-baseline="middle">S5</text>
<line x1="150" y1="200" x2="130" y2="200" stroke="#ffd60a" stroke-width="1.5" stroke-linecap="round"/>
<text x="125" y="200" fill="#ffd60a" font-size="2" font-family="monospace" text-anchor="end" dominant-baseline="middle">S6</text>
<line x1="150" y1="220" x2="130" y2="220" stroke="#ffd60a" stroke-width="1.5" stroke-linecap="round"/>
<text x="125" y="220" fill="#ffd60a" font-size="2" font-family="monospace" text-anchor="end" dominant-baseline="middle">S7</text>
<line x1="150" y1="240" x2="130" y2="240" stroke="#ffd60a" stroke-width="1.5" stroke-linecap="round"/>
<text x="125" y="240" fill="#ffd60a" font-size="2" font-family="monospace" text-anchor="end" dominant-baseline="middle">S8</text>
<line x1="150" y1="260" x2="130" y2="260" stroke="#ffd60a" stroke-width="1.5" stroke-linecap="round"/>
<text x="125" y="260" fill="#ffd60a" font-size="2" font-family="monospace" text-anchor="end" dominant-baseline="middle">A1</text>
<line x1="150" y1="280" x2="130" y2="280" stroke="#ffd60a" stroke-width="1.5" stroke-linecap="round"/>
<text x="125" y="280" fill="#ffd60a" font-size="2" font-family="monospace" text-anchor="end" dominant-baseline="middle">~{RESET}</text>
<line x1="150" y1="300" x2="130" y2="300" stroke="#ffd60a" stroke-width="1.5" stroke-linecap="round"/>
<text x="125" y="300" fill="#ffd60a" font-size="2" font-family="monospace" text-anchor="end" dominant-baseline="middle">A0</text>
<line x1="70" y1="30" x2="70" y2="50" stroke="#ffd60a" stroke-width="1.5" stroke-linecap="round"/>
<text x="70" y="25" fill="#ffd60a" font-size="2" font-family="monospace" text-anchor="middle" dominant-baseline="middle">GND</text>
<line x1="110" y1="30" x2="110" y2="50" stroke="#ffd60a" stroke-width="1.5" stroke-linecap="round"/>
<text x="110" y="25" fill="#ffd60a" font-size="2" font-family="monospace" text-anchor="middle" dominant-baseline="middle">VSS</text>
<line x1="90" y1="330" x2="90" y2="310" stroke="#ffd60a" stroke-width="1.5" stroke-linecap="round"/>
<text x="90" y="344" fill="#ffd60a" font-size="2" font-family="monospace" text-anchor="middle" dominant-baseline="middle">VDD</text>
</svg>