<svg xmlns="http://www.w3.org/2000/svg" viewBox="0 0 200 200">
<rect x="50" y="50" width="100" height="100" stroke="#ffffff" stroke-width="1.5" fill="rgba(255,255,255,0.04)"/>
<text x="100" y="100" fill="#888" font-size="3" font-family="monospace" text-anchor="middle" dominant-baseline="middle">U</text>
<line x1="30" y1="62.5" x2="50" y2="62.5" stroke="#ffd60a" stroke-width="1.5" stroke-linecap="round"/>
<text x="55" y="62.5" fill="#ffd60a" font-size="2" font-family="monospace" text-anchor="start" dominant-baseline="middle">NC</text>
<line x1="30" y1="87.5" x2="50" y2="87.5" stroke="#ffd60a" stroke-width="1.5" stroke-linecap="round"/>
<text x="55" y="87.5" fill="#ffd60a" font-size="2" font-family="monospace" text-anchor="start" dominant-baseline="middle">A</text>
<line x1="30" y1="112.5" x2="50" y2="112.5" stroke="#ffd60a" stroke-width="1.5" stroke-linecap="round"/>
<text x="55" y="112.5" fill="#ffd60a" font-size="2" font-family="monospace" text-anchor="start" dominant-baseline="middle">B</text>
<line x1="30" y1="137.5" x2="50" y2="137.5" stroke="#ffd60a" stroke-width="1.5" stroke-linecap="round"/>
<text x="55" y="137.5" fill="#ffd60a" font-size="2" font-family="monospace" text-anchor="start" dominant-baseline="middle">NC</text>
<line x1="170" y1="60" x2="150" y2="60" stroke="#ffd60a" stroke-width="1.5" stroke-linecap="round"/>
<text x="145" y="60" fill="#ffd60a" font-size="2" font-family="monospace" text-anchor="end" dominant-baseline="middle">RxD</text>
<line x1="170" y1="80" x2="150" y2="80" stroke="#ffd60a" stroke-width="1.5" stroke-linecap="round"/>
<text x="145" y="80" fill="#ffd60a" font-size="2" font-family="monospace" text-anchor="end" dominant-baseline="middle">~{RE}</text>
<line x1="170" y1="100" x2="150" y2="100" stroke="#ffd60a" stroke-width="1.5" stroke-linecap="round"/>
<text x="145" y="100" fill="#ffd60a" font-size="2" font-family="monospace" text-anchor="end" dominant-baseline="middle">DE</text>
<line x1="170" y1="120" x2="150" y2="120" stroke="#ffd60a" stroke-width="1.5" stroke-linecap="round"/>
<text x="145" y="120" fill="#ffd60a" font-size="2" font-family="monospace" text-anchor="end" dominant-baseline="middle">TxD</text>
<line x1="170" y1="140" x2="150" y2="140" stroke="#ffd60a" stroke-width="1.5" stroke-linecap="round"/>
<text x="145" y="140" fill="#ffd60a" font-size="2" font-family="monospace" text-anchor="end" dominant-baseline="middle">PV</text>
<line x1="60" y1="30" x2="60" y2="50" stroke="#ffd60a" stroke-width="1.5" stroke-linecap="round"/>
<text x="60" y="25" fill="#ffd60a" font-size="2" font-family="monospace" text-anchor="middle" dominant-baseline="middle">GND1</text>
<line x1="80" y1="30" x2="80" y2="50" stroke="#ffd60a" stroke-width="1.5" stroke-linecap="round"/>
<text x="80" y="25" fill="#ffd60a" font-size="2" font-family="monospace" text-anchor="middle" dominant-baseline="middle">GND1</text>
<line x1="100" y1="30" x2="100" y2="50" stroke="#ffd60a" stroke-width="1.5" stroke-linecap="round"/>
<text x="100" y="25" fill="#ffd60a" font-size="2" font-family="monospace" text-anchor="middle" dominant-baseline="middle">GND2</text>
<line x1="120" y1="30" x2="120" y2="50" stroke="#ffd60a" stroke-width="1.5" stroke-linecap="round"/>
<text x="120" y="25" fill="#ffd60a" font-size="2" font-family="monospace" text-anchor="middle" dominant-baseline="middle">NC</text>
<line x1="140" y1="30" x2="140" y2="50" stroke="#ffd60a" stroke-width="1.5" stroke-linecap="round"/>
<text x="140" y="25" fill="#ffd60a" font-size="2" font-family="monospace" text-anchor="middle" dominant-baseline="middle">GND2</text>
<line x1="75" y1="170" x2="75" y2="150" stroke="#ffd60a" stroke-width="1.5" stroke-linecap="round"/>
<text x="75" y="184" fill="#ffd60a" font-size="2" font-family="monospace" text-anchor="middle" dominant-baseline="middle">VDD1</text>
<line x1="125" y1="170" x2="125" y2="150" stroke="#ffd60a" stroke-width="1.5" stroke-linecap="round"/>
<text x="125" y="184" fill="#ffd60a" font-size="2" font-family="monospace" text-anchor="middle" dominant-baseline="middle">VDD2</text>
</svg>