<svg xmlns="http://www.w3.org/2000/svg" viewBox="0 0 15.620000000000001 18.16">
<rect x="4" y="11.620000000000001" width="7.62" height="5.08" stroke="#ffffff" stroke-width="0.3" fill="rgba(255,255,255,0.06)"/>
<polyline points="5.2700000000000005,11.620000000000001 5.2700000000000005,10.604 5.7780000000000005,10.604 5.7780000000000005,10.096 4.7620000000000005,10.096 4.7620000000000005,9.588000000000001 5.7780000000000005,9.588000000000001 5.7780000000000005,9.08 4.7620000000000005,9.08 4.7620000000000005,8.572 5.7780000000000005,8.572 5.7780000000000005,8.064 4.7620000000000005,8.064 4.7620000000000005,7.556 5.2700000000000005,7.556 5.2700000000000005,6.54" stroke="#ffffff" stroke-width="0.3" stroke-linejoin="round" stroke-linecap="round" fill="none"/>
<polyline points="9.588000000000001,8.318 11.112,8.318 11.112,8.572" stroke="#ffffff" stroke-width="0.3" stroke-linejoin="round" stroke-linecap="round" fill="none"/>
<polyline points="9.588000000000001,9.842 11.112,9.842 10.350000000000001,8.318 9.588000000000001,9.842" stroke="#ffffff" stroke-width="0.3" stroke-linejoin="round" stroke-linecap="round" fill="none"/>
<line x1="10.350000000000001" y1="6.54" x2="10.350000000000001" y2="11.620000000000001" stroke="#ffffff" stroke-width="0.3" stroke-linecap="round" fill="none"/>
<line x1="10.350000000000001" y1="4" x2="10.35" y2="6.54" stroke="#ffd60a" stroke-width="0.25942857142857145" stroke-linecap="round"/>
<line x1="10.350000000000001" y1="14.16" x2="10.350000000000001" y2="11.620000000000001" stroke="#ffd60a" stroke-width="0.25942857142857145" stroke-linecap="round"/>
<line x1="5.2700000000000005" y1="4" x2="5.27" y2="6.54" stroke="#ffd60a" stroke-width="0.25942857142857145" stroke-linecap="round"/>
<line x1="5.2700000000000005" y1="14.16" x2="5.2700000000000005" y2="11.620000000000001" stroke="#ffd60a" stroke-width="0.25942857142857145" stroke-linecap="round"/>
</svg>