<svg xmlns="http://www.w3.org/2000/svg" viewBox="0 0 33.4 16.378700000000002">
<circle cx="7.809999999999999" cy="9.334" r="0.254" stroke="#ffffff" stroke-width="0.3" fill="#ffffff"/>
<polyline points="9.841999999999999,5.2700000000000005 9.841999999999999,4.2540000000000004 6.539999999999999,4.2540000000000004" stroke="#ffffff" stroke-width="0.3" stroke-linejoin="round" stroke-linecap="round" fill="none"/>
<polyline points="9.841999999999999,8.318000000000001 9.841999999999999,9.334 6.539999999999999,9.334" stroke="#ffffff" stroke-width="0.3" stroke-linejoin="round" stroke-linecap="round" fill="none"/>
<polyline points="9.841999999999999,11.620000000000001 7.809999999999999,11.620000000000001 7.809999999999999,9.334" stroke="#ffffff" stroke-width="0.3" stroke-linejoin="round" stroke-linecap="round" fill="none"/>
<path d="M 11.366 5.2700000000000005 A 0.7620071767497021 0.7620071767497021 0 0 1 9.841999999999999 5.2700000000000005" stroke="#ffffff" stroke-width="0.3" fill="none"/>
<path d="M 9.841999999999999 8.318000000000001 A 0.7620071767497048 0.7620071767497048 0 0 1 11.366 8.318000000000001" stroke="#ffffff" stroke-width="0.3" fill="none"/>
<path d="M 11.366 11.620000000000001 A 0.7620071767497021 0.7620071767497021 0 0 1 9.841999999999999 11.620000000000001" stroke="#ffffff" stroke-width="0.3" fill="none"/>
<path d="M 12.889999999999999 5.2700000000000005 A 0.7620071767497043 0.7620071767497043 0 0 1 11.366 5.2700000000000005" stroke="#ffffff" stroke-width="0.3" fill="none"/>
<path d="M 11.366 8.318000000000001 A 0.7620071767497021 0.7620071767497021 0 0 1 12.889999999999999 8.318000000000001" stroke="#ffffff" stroke-width="0.3" fill="none"/>
<path d="M 12.889999999999999 11.620000000000001 A 0.7620071767497025 0.7620071767497025 0 0 1 11.366 11.620000000000001" stroke="#ffffff" stroke-width="0.3" fill="none"/>
<path d="M 14.414 5.2700000000000005 A 0.7620071767497021 0.7620071767497021 0 0 1 12.889999999999999 5.2700000000000005" stroke="#ffffff" stroke-width="0.3" fill="none"/>
<path d="M 12.889999999999999 8.318000000000001 A 0.7620071767497048 0.7620071767497048 0 0 1 14.414 8.318000000000001" stroke="#ffffff" stroke-width="0.3" fill="none"/>
<path d="M 14.414 11.620000000000001 A 0.7620071767497043 0.7620071767497043 0 0 1 12.889999999999999 11.620000000000001" stroke="#ffffff" stroke-width="0.3" fill="none"/>
<path d="M 15.937999999999999 5.2700000000000005 A 0.7620071767497034 0.7620071767497034 0 0 1 14.414 5.2700000000000005" stroke="#ffffff" stroke-width="0.3" fill="none"/>
<path d="M 14.414 8.318000000000001 A 0.7620071767497034 0.7620071767497034 0 0 1 15.937999999999999 8.318000000000001" stroke="#ffffff" stroke-width="0.3" fill="none"/>
<path d="M 15.937999999999999 11.620000000000001 A 0.7620071767497034 0.7620071767497034 0 0 1 14.414 11.620000000000001" stroke="#ffffff" stroke-width="0.3" fill="none"/>
<line x1="15.937999999999999" y1="5.2700000000000005" x2="17.462" y2="5.2700000000000005" stroke="#ffffff" stroke-width="0.3" stroke-linecap="round" fill="none"/>
<line x1="15.937999999999999" y1="8.318000000000001" x2="17.462" y2="8.318000000000001" stroke="#ffffff" stroke-width="0.3" stroke-linecap="round" fill="none"/>
<line x1="17.462" y1="11.620000000000001" x2="15.937999999999999" y2="11.620000000000001" stroke="#ffffff" stroke-width="0.3" stroke-linecap="round" fill="none"/>
<path d="M 18.986 5.2700000000000005 A 0.7620071767497034 0.7620071767497034 0 0 1 17.462 5.2700000000000005" stroke="#ffffff" stroke-width="0.3" fill="none"/>
<path d="M 17.462 8.318000000000001 A 0.7620071767497034 0.7620071767497034 0 0 1 18.986 8.318000000000001" stroke="#ffffff" stroke-width="0.3" fill="none"/>
<path d="M 18.986 11.620000000000001 A 0.7620071767497034 0.7620071767497034 0 0 1 17.462 11.620000000000001" stroke="#ffffff" stroke-width="0.3" fill="none"/>
<path d="M 20.509999999999998 5.2700000000000005 A 0.7620071767497048 0.7620071767497048 0 0 1 18.986 5.2700000000000005" stroke="#ffffff" stroke-width="0.3" fill="none"/>
<path d="M 18.986 8.318000000000001 A 0.7620071767497021 0.7620071767497021 0 0 1 20.509999999999998 8.318000000000001" stroke="#ffffff" stroke-width="0.3" fill="none"/>
<path d="M 20.509999999999998 11.620000000000001 A 0.7620071767497025 0.7620071767497025 0 0 1 18.986 11.620000000000001" stroke="#ffffff" stroke-width="0.3" fill="none"/>
<path d="M 22.034 5.2700000000000005 A 0.7620071767497021 0.7620071767497021 0 0 1 20.509999999999998 5.2700000000000005" stroke="#ffffff" stroke-width="0.3" fill="none"/>
<path d="M 20.509999999999998 8.318000000000001 A 0.7620071767497043 0.7620071767497043 0 0 1 22.034 8.318000000000001" stroke="#ffffff" stroke-width="0.3" fill="none"/>
<path d="M 22.034 11.620000000000001 A 0.7620071767497039 0.7620071767497039 0 0 1 20.509999999999998 11.620000000000001" stroke="#ffffff" stroke-width="0.3" fill="none"/>
<path d="M 23.558 5.2700000000000005 A 0.7620071767497048 0.7620071767497048 0 0 1 22.034 5.2700000000000005" stroke="#ffffff" stroke-width="0.3" fill="none"/>
<path d="M 22.034 8.318000000000001 A 0.7620071767497021 0.7620071767497021 0 0 1 23.558 8.318000000000001" stroke="#ffffff" stroke-width="0.3" fill="none"/>
<path d="M 23.558 11.620000000000001 A 0.7620071767497048 0.7620071767497048 0 0 1 22.034 11.620000000000001" stroke="#ffffff" stroke-width="0.3" fill="none"/>
<polyline points="23.558,5.2700000000000005 23.558,4.2540000000000004 26.86,4.2540000000000004" stroke="#ffffff" stroke-width="0.3" stroke-linejoin="round" stroke-linecap="round" fill="none"/>
<polyline points="23.558,8.318000000000001 23.558,9.334 26.86,9.334" stroke="#ffffff" stroke-width="0.3" stroke-linejoin="round" stroke-linecap="round" fill="none"/>
<polyline points="23.558,11.620000000000001 25.59,11.620000000000001 25.59,10.096" stroke="#ffffff" stroke-width="0.3" stroke-linejoin="round" stroke-linecap="round" fill="none"/>
<path d="M 25.59 8.572000000000001 A 0.7620059288537581 0.7620059288537581 0 0 1 25.59 10.096" stroke="#ffffff" stroke-width="0.3" fill="none"/>
<circle cx="25.59" cy="4.2540000000000004" r="0.254" stroke="#ffffff" stroke-width="0.3" fill="#ffffff"/>
<line x1="25.59" y1="8.572000000000001" x2="25.59" y2="4.2540000000000004" stroke="#ffffff" stroke-width="0.3" stroke-linecap="round" fill="none"/>
<line x1="4" y1="4.2540000000000004" x2="6.539999999999999" y2="4.2540000000000004" stroke="#ffd60a" stroke-width="0.47714285714285715" stroke-linecap="round"/>
<line x1="4" y1="9.334" x2="6.539999999999999" y2="9.334" stroke="#ffd60a" stroke-width="0.47714285714285715" stroke-linecap="round"/>
<line x1="29.4" y1="9.334" x2="26.86" y2="9.334" stroke="#ffd60a" stroke-width="0.47714285714285715" stroke-linecap="round"/>
<line x1="29.4" y1="4.2540000000000004" x2="26.86" y2="4.254" stroke="#ffd60a" stroke-width="0.47714285714285715" stroke-linecap="round"/>
</svg>