<svg xmlns="http://www.w3.org/2000/svg" viewBox="0 0 19.08 25.78">
<line x1="6.999999999999999" y1="17.97" x2="10.809999999999999" y2="17.97" stroke="#ffffff" stroke-width="0.3" stroke-linecap="round" fill="none"/>
<rect x="6.999999999999999" y="21.78" width="5.08" height="17.78" stroke="#ffffff" stroke-width="0.3" fill="rgba(255,255,255,0.06)"/>
<line x1="8.27" y1="6.540000000000001" x2="8.27" y2="9.08" stroke="#ffffff" stroke-width="0.3" stroke-linecap="round" fill="none"/>
<line x1="8.27" y1="11.620000000000001" x2="8.27" y2="14.16" stroke="#ffffff" stroke-width="0.3" stroke-linecap="round" fill="none"/>
<line x1="8.27" y1="16.7" x2="8.27" y2="19.240000000000002" stroke="#ffffff" stroke-width="0.3" stroke-linecap="round" fill="none"/>
<polyline points="8.524,6.540000000000001 10.047999999999998,5.016000000000001 9.286,5.016000000000001 10.047999999999998,5.016000000000001 10.047999999999998,5.7780000000000005" stroke="#ffffff" stroke-width="0.3" stroke-linejoin="round" stroke-linecap="round" fill="none"/>
<polyline points="8.524,11.620000000000001 10.047999999999998,10.096 9.286,10.096 10.047999999999998,10.096 10.047999999999998,10.858" stroke="#ffffff" stroke-width="0.3" stroke-linejoin="round" stroke-linecap="round" fill="none"/>
<polyline points="8.524,16.7 10.047999999999998,15.176 9.286,15.176 10.047999999999998,15.176 10.047999999999998,15.938" stroke="#ffffff" stroke-width="0.3" stroke-linejoin="round" stroke-linecap="round" fill="none"/>
<polyline points="9.54,6.540000000000001 11.064,5.016000000000001 10.302,5.016000000000001 11.064,5.016000000000001 11.064,5.7780000000000005" stroke="#ffffff" stroke-width="0.3" stroke-linejoin="round" stroke-linecap="round" fill="none"/>
<polyline points="9.54,11.620000000000001 11.064,10.096 10.302,10.096 11.064,10.096 11.064,10.858" stroke="#ffffff" stroke-width="0.3" stroke-linejoin="round" stroke-linecap="round" fill="none"/>
<polyline points="9.54,16.7 11.064,15.176 10.302,15.176 11.064,15.176 11.064,15.938" stroke="#ffffff" stroke-width="0.3" stroke-linejoin="round" stroke-linecap="round" fill="none"/>
<polyline points="10.809999999999999,6.540000000000001 10.809999999999999,9.08 8.27,7.8100000000000005 10.809999999999999,6.540000000000001" stroke="#ffffff" stroke-width="0.3" stroke-linejoin="round" stroke-linecap="round" fill="none"/>
<rect x="10.809999999999999" y="6.540000000000001" width="0" height="0" stroke="#ffffff" stroke-width="0.3" fill="none"/>
<line x1="10.809999999999999" y1="7.8100000000000005" x2="6.999999999999999" y2="7.8100000000000005" stroke="#ffffff" stroke-width="0.3" stroke-linecap="round" fill="none"/>
<polyline points="10.809999999999999,11.620000000000001 10.809999999999999,14.16 8.27,12.89 10.809999999999999,11.620000000000001" stroke="#ffffff" stroke-width="0.3" stroke-linejoin="round" stroke-linecap="round" fill="none"/>
<polyline points="10.809999999999999,16.7 10.809999999999999,19.240000000000002 8.27,17.97 10.809999999999999,16.7" stroke="#ffffff" stroke-width="0.3" stroke-linejoin="round" stroke-linecap="round" fill="none"/>
<polyline points="10.809999999999999,17.97 11.572,17.97 11.572,7.8100000000000005 10.809999999999999,7.8100000000000005" stroke="#ffffff" stroke-width="0.3" stroke-linejoin="round" stroke-linecap="round" fill="none"/>
<circle cx="11.572" cy="12.89" r="0.254" stroke="#ffffff" stroke-width="0.3" fill="#ffffff"/>
<line x1="12.079999999999998" y1="12.89" x2="6.999999999999999" y2="12.89" stroke="#ffffff" stroke-width="0.3" stroke-linecap="round" fill="none"/>
<line x1="4.459999999999999" y1="7.8100000000000005" x2="6.999999999999999" y2="7.8100000000000005" stroke="#ffd60a" stroke-width="0.3682857142857143" stroke-linecap="round"/>
<text x="3.999999999999999" y="7.8100000000000005" fill="#ffd60a" font-size="1" font-family="monospace" text-anchor="start" dominant-baseline="middle">R</text>
<line x1="14.62" y1="12.89" x2="12.079999999999998" y2="12.89" stroke="#ffd60a" stroke-width="0.3682857142857143" stroke-linecap="round"/>
<text x="15.079999999999998" y="12.89" fill="#ffd60a" font-size="1" font-family="monospace" text-anchor="end" dominant-baseline="middle">A</text>
<line x1="4.459999999999999" y1="12.89" x2="6.999999999999999" y2="12.89" stroke="#ffd60a" stroke-width="0.3682857142857143" stroke-linecap="round"/>
<text x="3.999999999999999" y="12.89" fill="#ffd60a" font-size="1" font-family="monospace" text-anchor="start" dominant-baseline="middle">G</text>
<line x1="4.459999999999999" y1="17.97" x2="6.999999999999999" y2="17.97" stroke="#ffd60a" stroke-width="0.3682857142857143" stroke-linecap="round"/>
<text x="3.999999999999999" y="17.97" fill="#ffd60a" font-size="1" font-family="monospace" text-anchor="start" dominant-baseline="middle">B</text>
</svg>