<svg xmlns="http://www.w3.org/2000/svg" viewBox="0 0 24.16 18.16">
<rect x="7" y="14.16" width="10.16" height="10.16" stroke="#ffffff" stroke-width="0.3" fill="rgba(255,255,255,0.06)"/>
<line x1="7" y1="6.54" x2="17.16" y2="6.54" stroke="#ffffff" stroke-width="0.3" stroke-linecap="round" fill="none"/>
<line x1="7" y1="9.08" x2="17.16" y2="9.08" stroke="#ffffff" stroke-width="0.3" stroke-linecap="round" fill="none"/>
<line x1="7" y1="11.620000000000001" x2="17.16" y2="11.620000000000001" stroke="#ffffff" stroke-width="0.3" stroke-linecap="round" fill="none"/>
<polyline points="8.27,5.27 8.27,7.8100000000000005 10.81,6.54 8.27,5.27" stroke="#ffffff" stroke-width="0.3" stroke-linejoin="round" stroke-linecap="round" fill="none"/>
<polyline points="8.27,10.35 8.27,12.89 10.81,11.620000000000001 8.27,10.35" stroke="#ffffff" stroke-width="0.3" stroke-linejoin="round" stroke-linecap="round" fill="none"/>
<line x1="9.286" y1="5.27" x2="10.302" y2="4.2540000000000004" stroke="#ffffff" stroke-width="0.3" stroke-linecap="round" fill="none"/>
<line x1="9.286" y1="10.35" x2="10.302" y2="9.334" stroke="#ffffff" stroke-width="0.3" stroke-linecap="round" fill="none"/>
<polyline points="9.54,4.508 10.302,4.2540000000000004 10.048,5.016" stroke="#ffffff" stroke-width="0.3" stroke-linejoin="round" stroke-linecap="round" fill="none"/>
<polyline points="10.048,10.096 10.302,9.334 9.54,9.588000000000001" stroke="#ffffff" stroke-width="0.3" stroke-linejoin="round" stroke-linecap="round" fill="none"/>
<line x1="10.302" y1="5.27" x2="11.318" y2="4.2540000000000004" stroke="#ffffff" stroke-width="0.3" stroke-linecap="round" fill="none"/>
<line x1="10.302" y1="10.35" x2="11.318" y2="9.334" stroke="#ffffff" stroke-width="0.3" stroke-linecap="round" fill="none"/>
<polyline points="10.556000000000001,4.508 11.318,4.2540000000000004 11.064,5.016" stroke="#ffffff" stroke-width="0.3" stroke-linejoin="round" stroke-linecap="round" fill="none"/>
<polyline points="10.556000000000001,9.588000000000001 11.318,9.334 11.064,10.096" stroke="#ffffff" stroke-width="0.3" stroke-linejoin="round" stroke-linecap="round" fill="none"/>
<line x1="10.81" y1="5.27" x2="10.81" y2="7.8100000000000005" stroke="#ffffff" stroke-width="0.3" stroke-linecap="round" fill="none"/>
<line x1="10.81" y1="10.35" x2="10.81" y2="12.89" stroke="#ffffff" stroke-width="0.3" stroke-linecap="round" fill="none"/>
<polyline points="13.35,7.8100000000000005 13.35,10.35 15.89,9.08 13.35,7.8100000000000005" stroke="#ffffff" stroke-width="0.3" stroke-linejoin="round" stroke-linecap="round" fill="none"/>
<line x1="14.366" y1="7.8100000000000005" x2="15.382" y2="6.7940000000000005" stroke="#ffffff" stroke-width="0.3" stroke-linecap="round" fill="none"/>
<polyline points="15.128,7.556 15.382,6.7940000000000005 14.620000000000001,7.048" stroke="#ffffff" stroke-width="0.3" stroke-linejoin="round" stroke-linecap="round" fill="none"/>
<line x1="15.382" y1="7.8100000000000005" x2="16.398" y2="6.7940000000000005" stroke="#ffffff" stroke-width="0.3" stroke-linecap="round" fill="none"/>
<polyline points="15.636,7.048 16.398,6.7940000000000005 16.144,7.556" stroke="#ffffff" stroke-width="0.3" stroke-linejoin="round" stroke-linecap="round" fill="none"/>
<line x1="15.89" y1="7.8100000000000005" x2="15.89" y2="10.35" stroke="#ffffff" stroke-width="0.3" stroke-linecap="round" fill="none"/>
<line x1="19.7" y1="11.620000000000001" x2="17.16" y2="11.62" stroke="#ffd60a" stroke-width="0.34514285714285714" stroke-linecap="round"/>
<text x="20.16" y="11.620000000000001" fill="#ffd60a" font-size="1" font-family="monospace" text-anchor="end" dominant-baseline="middle">KB</text>
<line x1="19.7" y1="9.08" x2="17.16" y2="9.08" stroke="#ffd60a" stroke-width="0.34514285714285714" stroke-linecap="round"/>
<text x="20.16" y="9.08" fill="#ffd60a" font-size="1" font-family="monospace" text-anchor="end" dominant-baseline="middle">KG</text>
<line x1="19.7" y1="6.54" x2="17.16" y2="6.539999999999999" stroke="#ffd60a" stroke-width="0.34514285714285714" stroke-linecap="round"/>
<text x="20.16" y="6.54" fill="#ffd60a" font-size="1" font-family="monospace" text-anchor="end" dominant-baseline="middle">KR</text>
<line x1="4.46" y1="6.54" x2="7" y2="6.54" stroke="#ffd60a" stroke-width="0.34514285714285714" stroke-linecap="round"/>
<text x="4" y="6.54" fill="#ffd60a" font-size="1" font-family="monospace" text-anchor="start" dominant-baseline="middle">AR</text>
<line x1="4.46" y1="9.08" x2="7" y2="9.08" stroke="#ffd60a" stroke-width="0.34514285714285714" stroke-linecap="round"/>
<text x="4" y="9.08" fill="#ffd60a" font-size="1" font-family="monospace" text-anchor="start" dominant-baseline="middle">AG</text>
<line x1="4.46" y1="11.620000000000001" x2="7" y2="11.620000000000001" stroke="#ffd60a" stroke-width="0.34514285714285714" stroke-linecap="round"/>
<text x="4" y="11.620000000000001" fill="#ffd60a" font-size="1" font-family="monospace" text-anchor="start" dominant-baseline="middle">AB</text>
</svg>