<svg xmlns="http://www.w3.org/2000/svg" viewBox="0 0 21.97 24.509999999999998">
<rect x="4" y="17.97" width="1.2700000000000005" height="2.54" stroke="#ffffff" stroke-width="0.3" fill="#ffffff"/>
<rect x="5.2700000000000005" y="20.509999999999998" width="8.89" height="16.509999999999998" stroke="#ffffff" stroke-width="0.3" fill="rgba(255,255,255,0.06)"/>
<line x1="14.16" y1="7.81" x2="15.43" y2="7.81" stroke="#ffffff" stroke-width="0.3" stroke-linecap="round" fill="none"/>
<line x1="14.16" y1="15.43" x2="15.43" y2="15.43" stroke="#ffffff" stroke-width="0.3" stroke-linecap="round" fill="none"/>
<line x1="15.43" y1="5.27" x2="14.16" y2="5.27" stroke="#ffffff" stroke-width="0.3" stroke-linecap="round" fill="none"/>
<line x1="15.43" y1="10.35" x2="14.16" y2="10.35" stroke="#ffffff" stroke-width="0.3" stroke-linecap="round" fill="none"/>
<polyline points="9.715,15.43 10.350000000000001,16.064999999999998 10.985000000000001,15.43 10.985000000000001,10.35 14.16,10.35" stroke="#ffffff" stroke-width="0.3" stroke-linejoin="round" stroke-linecap="round" fill="none"/>
<polyline points="11.620000000000001,15.43 12.255,16.064999999999998 12.89,15.43 14.16,15.43" stroke="#ffffff" stroke-width="0.3" stroke-linejoin="round" stroke-linecap="round" fill="none"/>
<line x1="12.128" y1="10.604" x2="12.382000000000001" y2="11.112" stroke="#ffffff" stroke-width="0.3" stroke-linecap="round" fill="none"/>
<line x1="13.398" y1="15.684" x2="13.652000000000001" y2="16.192" stroke="#ffffff" stroke-width="0.3" stroke-linecap="round" fill="none"/>
<polyline points="14.16,5.27 7.175000000000001,5.27 7.175000000000001,15.43 6.540000000000001,16.064999999999998 5.905,15.43" stroke="#ffffff" stroke-width="0.3" stroke-linejoin="round" stroke-linecap="round" fill="none"/>
<polyline points="14.16,7.81 9.08,7.81 9.08,15.43 8.445,16.064999999999998 7.8100000000000005,15.43" stroke="#ffffff" stroke-width="0.3" stroke-linejoin="round" stroke-linecap="round" fill="none"/>
<polyline points="15.43,12.89 12.128,12.89 12.128,10.604 11.874,11.112" stroke="#ffffff" stroke-width="0.3" stroke-linejoin="round" stroke-linecap="round" fill="none"/>
<polyline points="15.43,17.97 13.398,17.97 13.398,15.684 13.144,16.192" stroke="#ffffff" stroke-width="0.3" stroke-linejoin="round" stroke-linecap="round" fill="none"/>
<line x1="17.97" y1="10.35" x2="15.43" y2="10.35" stroke="#ffd60a" stroke-width="0.3501428571428571" stroke-linecap="round"/>
<line x1="17.97" y1="12.89" x2="15.43" y2="12.889999999999999" stroke="#ffd60a" stroke-width="0.3501428571428571" stroke-linecap="round"/>
<line x1="17.97" y1="7.81" x2="15.43" y2="7.809999999999999" stroke="#ffd60a" stroke-width="0.3501428571428571" stroke-linecap="round"/>
<line x1="17.97" y1="5.27" x2="15.43" y2="5.27" stroke="#ffd60a" stroke-width="0.3501428571428571" stroke-linecap="round"/>
<line x1="17.97" y1="15.43" x2="15.43" y2="15.43" stroke="#ffd60a" stroke-width="0.3501428571428571" stroke-linecap="round"/>
<line x1="17.97" y1="17.97" x2="15.43" y2="17.97" stroke="#ffd60a" stroke-width="0.3501428571428571" stroke-linecap="round"/>
</svg>