<svg xmlns="http://www.w3.org/2000/svg" viewBox="0 0 18.112000000000002 26.700000000000003">
<circle cx="7.761999999999999" cy="10.810000000000002" r="0.254" stroke="#ffffff" stroke-width="0.3" fill="#ffffff"/>
<circle cx="8.524" cy="13.350000000000001" r="0.254" stroke="#ffffff" stroke-width="0.3" fill="#ffffff"/>
<line x1="9.793999999999999" y1="10.175" x2="9.793999999999999" y2="11.318000000000001" stroke="#ffffff" stroke-width="0.3" stroke-linecap="round" fill="none"/>
<line x1="9.793999999999999" y1="10.810000000000002" x2="6.999999999999999" y2="10.810000000000002" stroke="#ffffff" stroke-width="0.3" stroke-linecap="round" fill="none"/>
<line x1="9.793999999999999" y1="12.842000000000002" x2="9.793999999999999" y2="14.112000000000002" stroke="#ffffff" stroke-width="0.3" stroke-linecap="round" fill="none"/>
<line x1="9.793999999999999" y1="13.350000000000001" x2="6.999999999999999" y2="13.350000000000001" stroke="#ffffff" stroke-width="0.3" stroke-linecap="round" fill="none"/>
<line x1="9.793999999999999" y1="15.636000000000001" x2="9.793999999999999" y2="16.652" stroke="#ffffff" stroke-width="0.3" stroke-linecap="round" fill="none"/>
<polyline points="9.793999999999999,16.144000000000002 9.286,15.636000000000001 9.286,16.652 9.793999999999999,16.144000000000002" stroke="#ffffff" stroke-width="0.3" stroke-linejoin="round" stroke-linecap="round" fill="none"/>
<line x1="9.793999999999999" y1="16.652" x2="9.667" y2="16.779" stroke="#ffffff" stroke-width="0.3" stroke-linecap="round" fill="none"/>
<line x1="9.793999999999999" y1="17.414" x2="9.793999999999999" y2="18.43" stroke="#ffffff" stroke-width="0.3" stroke-linecap="round" fill="none"/>
<polyline points="9.793999999999999,17.922 9.286,17.414 9.286,18.43 9.793999999999999,17.922" stroke="#ffffff" stroke-width="0.3" stroke-linejoin="round" stroke-linecap="round" fill="none"/>
<line x1="9.793999999999999" y1="18.43" x2="9.667" y2="18.557000000000002" stroke="#ffffff" stroke-width="0.3" stroke-linecap="round" fill="none"/>
<line x1="9.921" y1="15.509" x2="9.793999999999999" y2="15.636000000000001" stroke="#ffffff" stroke-width="0.3" stroke-linecap="round" fill="none"/>
<line x1="9.921" y1="17.287000000000003" x2="9.793999999999999" y2="17.414" stroke="#ffffff" stroke-width="0.3" stroke-linecap="round" fill="none"/>
<line x1="10.302" y1="9.794" x2="10.302" y2="14.366000000000001" stroke="#ffffff" stroke-width="0.3" stroke-linecap="round" fill="none"/>
<line x1="10.302" y1="10.302000000000001" x2="12.079999999999998" y2="10.302000000000001" stroke="#ffffff" stroke-width="0.3" stroke-linecap="round" fill="none"/>
<line x1="10.302" y1="13.858" x2="12.079999999999998" y2="13.858" stroke="#ffffff" stroke-width="0.3" stroke-linecap="round" fill="none"/>
<polyline points="10.556,12.080000000000002 11.572,11.699000000000002 11.572,12.461000000000002 10.556,12.080000000000002" stroke="#ffffff" stroke-width="0.3" stroke-linejoin="round" stroke-linecap="round" fill="#ffffff"/>
<line x1="10.809999999999999" y1="15.636000000000001" x2="10.809999999999999" y2="16.652" stroke="#ffffff" stroke-width="0.3" stroke-linecap="round" fill="none"/>
<polyline points="10.809999999999999,16.144000000000002 11.318,15.636000000000001 11.318,16.652 10.809999999999999,16.144000000000002" stroke="#ffffff" stroke-width="0.3" stroke-linejoin="round" stroke-linecap="round" fill="none"/>
<line x1="10.809999999999999" y1="16.652" x2="10.683" y2="16.779" stroke="#ffffff" stroke-width="0.3" stroke-linecap="round" fill="none"/>
<line x1="10.809999999999999" y1="17.414" x2="10.809999999999999" y2="18.43" stroke="#ffffff" stroke-width="0.3" stroke-linecap="round" fill="none"/>
<polyline points="10.809999999999999,17.922 11.318,17.414 11.318,18.43 10.809999999999999,17.922" stroke="#ffffff" stroke-width="0.3" stroke-linejoin="round" stroke-linecap="round" fill="none"/>
<line x1="10.809999999999999" y1="18.43" x2="10.683" y2="18.557000000000002" stroke="#ffffff" stroke-width="0.3" stroke-linecap="round" fill="none"/>
<line x1="10.937" y1="15.509" x2="10.809999999999999" y2="15.636000000000001" stroke="#ffffff" stroke-width="0.3" stroke-linecap="round" fill="none"/>
<line x1="10.937" y1="17.287000000000003" x2="10.809999999999999" y2="17.414" stroke="#ffffff" stroke-width="0.3" stroke-linecap="round" fill="none"/>
<line x1="12.079999999999998" y1="7.000000000000002" x2="12.079999999999998" y2="10.302000000000001" stroke="#ffffff" stroke-width="0.3" stroke-linecap="round" fill="none"/>
<circle cx="12.079999999999998" cy="9.540000000000001" r="0.254" stroke="#ffffff" stroke-width="0.3" fill="#ffffff"/>
<circle cx="12.079999999999998" cy="13.858" r="0.254" stroke="#ffffff" stroke-width="0.3" fill="#ffffff"/>
<polyline points="12.079999999999998,16.144000000000002 8.524,16.144000000000002 8.524,13.350000000000001" stroke="#ffffff" stroke-width="0.3" stroke-linejoin="round" stroke-linecap="round" fill="none"/>
<circle cx="12.079999999999998" cy="16.144000000000002" r="0.254" stroke="#ffffff" stroke-width="0.3" fill="#ffffff"/>
<circle cx="12.079999999999998" cy="17.922" r="0.254" stroke="#ffffff" stroke-width="0.3" fill="#ffffff"/>
<polyline points="12.079999999999998,19.700000000000003 12.079999999999998,12.080000000000002 10.302,12.080000000000002" stroke="#ffffff" stroke-width="0.3" stroke-linejoin="round" stroke-linecap="round" fill="none"/>
<polyline points="12.334,17.922 13.222999999999999,17.922 13.222999999999999,9.540000000000001 12.334,9.540000000000001" stroke="#ffffff" stroke-width="0.3" stroke-linejoin="round" stroke-linecap="round" fill="none"/>
<polyline points="13.222999999999999,13.223 13.730999999999998,13.731000000000002 12.715,13.731000000000002 13.222999999999999,13.223" stroke="#ffffff" stroke-width="0.3" stroke-linejoin="round" stroke-linecap="round" fill="none"/>
<line x1="13.730999999999998" y1="13.223" x2="13.857999999999999" y2="13.350000000000001" stroke="#ffffff" stroke-width="0.3" stroke-linecap="round" fill="none"/>
<polyline points="13.730999999999998,13.223 12.715,13.223 12.588,13.096000000000002" stroke="#ffffff" stroke-width="0.3" stroke-linejoin="round" stroke-linecap="round" fill="none"/>
<line x1="6.491999999999999" y1="16.398000000000003" x2="6.491999999999999" y2="11.318000000000001" stroke="#ffffff" stroke-width="0.3" stroke-linecap="round" fill="none"/>
<path d="M 10.302 19.700000000000003 A 3.565986876204118 3.565986876204118 0 0 1 6.491999999999999 16.398000000000003" stroke="#ffffff" stroke-width="0.3" fill="none"/>
<path d="M 6.491999999999999 11.318000000000001 A 3.6897233623195467 3.6897233623195467 0 0 1 10.302 7.762000000000001" stroke="#ffffff" stroke-width="0.3" fill="none"/>
<path d="M 10.302 7.762000000000001 A 3.686467158297933 3.686467158297933 0 0 1 14.111999999999998 11.318000000000001" stroke="#ffffff" stroke-width="0.3" fill="none"/>
<path d="M 14.111999999999998 16.398000000000003 A 3.5663277877022557 3.5663277877022557 0 0 1 10.302 19.700000000000003" stroke="#ffffff" stroke-width="0.3" fill="none"/>
<polyline points="12.079999999999998,17.922 7.761999999999999,17.922 7.761999999999999,10.810000000000002" stroke="#ffffff" stroke-width="0.3" stroke-linejoin="round" stroke-linecap="round" fill="none"/>
<line x1="14.111999999999998" y1="11.318000000000001" x2="14.111999999999998" y2="16.398000000000003" stroke="#ffffff" stroke-width="0.3" stroke-linecap="round" fill="none"/>
<line x1="12.079999999999998" y1="22.240000000000002" x2="12.079999999999998" y2="19.700000000000003" stroke="#ffd60a" stroke-width="0.38142857142857145" stroke-linecap="round"/>
<text x="12.079999999999998" y="22.700000000000003" fill="#ffd60a" font-size="1" font-family="monospace" text-anchor="middle" dominant-baseline="middle">S</text>
<line x1="12.079999999999998" y1="4.460000000000001" x2="12.079999999999998" y2="7.000000000000001" stroke="#ffd60a" stroke-width="0.38142857142857145" stroke-linecap="round"/>
<text x="12.079999999999998" y="4" fill="#ffd60a" font-size="1" font-family="monospace" text-anchor="middle" dominant-baseline="middle">D</text>
<line x1="4.459999999999999" y1="10.810000000000002" x2="6.999999999999999" y2="10.810000000000002" stroke="#ffd60a" stroke-width="0.38142857142857145" stroke-linecap="round"/>
<text x="3.999999999999999" y="10.810000000000002" fill="#ffd60a" font-size="1" font-family="monospace" text-anchor="start" dominant-baseline="middle">G2</text>
<line x1="4.459999999999999" y1="13.350000000000001" x2="6.999999999999999" y2="13.350000000000001" stroke="#ffd60a" stroke-width="0.38142857142857145" stroke-linecap="round"/>
<text x="3.999999999999999" y="13.350000000000001" fill="#ffd60a" font-size="1" font-family="monospace" text-anchor="start" dominant-baseline="middle">G1</text>
</svg>