<svg xmlns="http://www.w3.org/2000/svg" viewBox="0 0 29.240000000000002 15.620000000000001">
<rect x="7.000000000000001" y="11.620000000000001" width="15.24" height="7.62" stroke="#ffffff" stroke-width="0.3" fill="rgba(255,255,255,0.06)"/>
<line x1="9.667000000000002" y1="5.2700000000000005" x2="8.905000000000001" y2="5.2700000000000005" stroke="#ffffff" stroke-width="0.3" stroke-linecap="round" fill="none"/>
<line x1="11.318000000000001" y1="10.350000000000001" x2="11.699000000000002" y2="10.350000000000001" stroke="#ffffff" stroke-width="0.3" stroke-linecap="round" fill="none"/>
<path d="M 11.699000000000002 10.350000000000001 A 0.5080047844998024 0.5080047844998024 0 0 1 12.715000000000002 10.350000000000001" stroke="#ffffff" stroke-width="0.3" fill="none"/>
<path d="M 12.715000000000002 10.350000000000001 A 0.5080047844998026 0.5080047844998026 0 0 1 13.731000000000002 10.350000000000001" stroke="#ffffff" stroke-width="0.3" fill="none"/>
<rect x="14.112000000000002" y="7.3020000000000005" width="2.032" height="0.254" stroke="#ffffff" stroke-width="0.3" fill="#ffffff"/>
<path d="M 13.731000000000002 10.350000000000001 A 0.5080047844998026 0.5080047844998026 0 0 1 14.747000000000002 10.350000000000001" stroke="#ffffff" stroke-width="0.3" fill="none"/>
<line x1="14.747000000000002" y1="10.350000000000001" x2="15.128" y2="10.350000000000001" stroke="#ffffff" stroke-width="0.3" stroke-linecap="round" fill="none"/>
<line x1="15.001000000000001" y1="5.2700000000000005" x2="12.715000000000002" y2="5.2700000000000005" stroke="#ffffff" stroke-width="0.3" stroke-linecap="round" fill="none"/>
<line x1="15.128" y1="5.2700000000000005" x2="15.128" y2="6.540000000000001" stroke="#ffffff" stroke-width="0.3" stroke-linecap="round" fill="none"/>
<circle cx="15.128" cy="5.2700000000000005" r="0.254" stroke="#ffffff" stroke-width="0.3" fill="#ffffff"/>
<line x1="15.128" y1="10.350000000000001" x2="15.128" y2="7.3020000000000005" stroke="#ffffff" stroke-width="0.3" stroke-linecap="round" fill="none"/>
<line x1="15.763000000000002" y1="5.2700000000000005" x2="15.128" y2="5.2700000000000005" stroke="#ffffff" stroke-width="0.3" stroke-linecap="round" fill="none"/>
<rect x="14.112000000000002" y="6.667000000000001" width="2.032" height="0.254" stroke="#ffffff" stroke-width="0.3" fill="#ffffff"/>
<path d="M 15.763000000000002 5.2700000000000005 A 0.5080047844998017 0.5080047844998017 0 0 1 16.779 5.2700000000000005" stroke="#ffffff" stroke-width="0.3" fill="none"/>
<path d="M 16.779 5.2700000000000005 A 0.5080047844998037 0.5080047844998037 0 0 1 17.795 5.2700000000000005" stroke="#ffffff" stroke-width="0.3" fill="none"/>
<line x1="17.795" y1="5.2700000000000005" x2="18.557000000000002" y2="5.2700000000000005" stroke="#ffffff" stroke-width="0.3" stroke-linecap="round" fill="none"/>
<line x1="18.557000000000002" y1="5.2700000000000005" x2="18.557000000000002" y2="6.540000000000001" stroke="#ffffff" stroke-width="0.3" stroke-linecap="round" fill="none"/>
<line x1="18.557000000000002" y1="5.2700000000000005" x2="19.065" y2="5.2700000000000005" stroke="#ffffff" stroke-width="0.3" stroke-linecap="round" fill="none"/>
<line x1="18.557000000000002" y1="10.350000000000001" x2="15.128" y2="10.350000000000001" stroke="#ffffff" stroke-width="0.3" stroke-linecap="round" fill="none"/>
<line x1="18.557000000000002" y1="10.350000000000001" x2="18.557000000000002" y2="7.3020000000000005" stroke="#ffffff" stroke-width="0.3" stroke-linecap="round" fill="none"/>
<line x1="18.557000000000002" y1="10.350000000000001" x2="19.065" y2="10.350000000000001" stroke="#ffffff" stroke-width="0.3" stroke-linecap="round" fill="none"/>
<path d="M 9.667000000000002 5.2700000000000005 A 0.5080047844998015 0.5080047844998015 0 0 1 10.683000000000002 5.2700000000000005" stroke="#ffffff" stroke-width="0.3" fill="none"/>
<path d="M 10.683000000000002 5.2700000000000005 A 0.5080047844998019 0.5080047844998019 0 0 1 11.699000000000002 5.2700000000000005" stroke="#ffffff" stroke-width="0.3" fill="none"/>
<path d="M 11.699000000000002 5.2700000000000005 A 0.5080047844998019 0.5080047844998019 0 0 1 12.715000000000002 5.2700000000000005" stroke="#ffffff" stroke-width="0.3" fill="none"/>
<circle cx="15.128" cy="10.350000000000001" r="0.254" stroke="#ffffff" stroke-width="0.3" fill="#ffffff"/>
<rect x="17.541" y="7.3020000000000005" width="2.0320000000000005" height="0.254" stroke="#ffffff" stroke-width="0.3" fill="#ffffff"/>
<circle cx="18.557000000000002" cy="5.2700000000000005" r="0.254" stroke="#ffffff" stroke-width="0.3" fill="#ffffff"/>
<circle cx="18.557000000000002" cy="10.350000000000001" r="0.254" stroke="#ffffff" stroke-width="0.3" fill="#ffffff"/>
<rect x="17.541" y="6.667000000000001" width="2.0320000000000005" height="0.254" stroke="#ffffff" stroke-width="0.3" fill="#ffffff"/>
<line x1="4.460000000000001" y1="5.2700000000000005" x2="7.000000000000001" y2="5.2700000000000005" stroke="#ffd60a" stroke-width="0.41771428571428576" stroke-linecap="round"/>
<text x="4" y="5.2700000000000005" fill="#ffd60a" font-size="1" font-family="monospace" text-anchor="start" dominant-baseline="middle">B</text>
<line x1="24.78" y1="5.2700000000000005" x2="22.240000000000002" y2="5.27" stroke="#ffd60a" stroke-width="0.41771428571428576" stroke-linecap="round"/>
<text x="25.240000000000002" y="5.2700000000000005" fill="#ffd60a" font-size="1" font-family="monospace" text-anchor="end" dominant-baseline="middle">CB</text>
<line x1="4.460000000000001" y1="10.350000000000001" x2="7.000000000000001" y2="10.350000000000001" stroke="#ffd60a" stroke-width="0.41771428571428576" stroke-linecap="round"/>
<text x="4" y="10.350000000000001" fill="#ffd60a" font-size="1" font-family="monospace" text-anchor="start" dominant-baseline="middle">PSG</text>
<line x1="24.78" y1="10.350000000000001" x2="22.240000000000002" y2="10.35" stroke="#ffd60a" stroke-width="0.41771428571428576" stroke-linecap="round"/>
<text x="25.240000000000002" y="10.350000000000001" fill="#ffd60a" font-size="1" font-family="monospace" text-anchor="end" dominant-baseline="middle">CG</text>
</svg>