<svg xmlns="http://www.w3.org/2000/svg" viewBox="0 0 31.32 29.240000000000002">
<polyline points="15.89,16.017 15.89,15.255 15.89,14.620000000000001" stroke="#ffffff" stroke-width="0.3" stroke-linejoin="round" stroke-linecap="round" fill="none"/>
<polyline points="15.89,20.462 9.032,20.462 9.032,14.620000000000001 10.556000000000001,14.620000000000001" stroke="#ffffff" stroke-width="0.3" stroke-linejoin="round" stroke-linecap="round" fill="none"/>
<polyline points="19.7,14.620000000000001 19.7,10.81 24.78,10.81" stroke="#ffffff" stroke-width="0.3" stroke-linejoin="round" stroke-linecap="round" fill="none"/>
<line x1="24.78" y1="11.953000000000001" x2="24.78" y2="7.000000000000001" stroke="#ffffff" stroke-width="0.3" stroke-linecap="round" fill="none"/>
<line x1="24.78" y1="17.287" x2="24.78" y2="22.240000000000002" stroke="#ffffff" stroke-width="0.3" stroke-linecap="round" fill="none"/>
<polyline points="24.78,20.462 15.89,20.462 15.89,19.192" stroke="#ffffff" stroke-width="0.3" stroke-linejoin="round" stroke-linecap="round" fill="none"/>
<line x1="9.032" y1="14.620000000000001" x2="7" y2="14.620000000000001" stroke="#ffffff" stroke-width="0.3" stroke-linecap="round" fill="none"/>
<rect x="12.08" y="19.192" width="7.62" height="3.175" stroke="#ffffff" stroke-width="0.3" fill="none"/>
<line x1="24.78" y1="18.557000000000002" x2="19.7" y2="18.557000000000002" stroke="#ffffff" stroke-width="0.3" stroke-linecap="round" fill="none"/>
<rect x="7" y="22.240000000000002" width="20.32" height="15.24" stroke="#ffffff" stroke-width="0.3" fill="rgba(255,255,255,0.06)"/>
<polyline points="8.524000000000001,17.033 8.651,17.16 9.413,17.16 9.54,17.287" stroke="#ffffff" stroke-width="0.3" stroke-linejoin="round" stroke-linecap="round" fill="none"/>
<circle cx="9.032" cy="14.620000000000001" r="0.2794" stroke="#ffffff" stroke-width="0.3" fill="#ffffff"/>
<polyline points="9.032,17.16 8.651,17.795 9.413,17.795 9.032,17.16" stroke="#ffffff" stroke-width="0.3" stroke-linejoin="round" stroke-linecap="round" fill="none"/>
<rect x="10.556000000000001" y="15.382000000000001" width="3.6830000000000003" height="3.302" stroke="#ffffff" stroke-width="0.3" fill="none"/>
<circle cx="15.89" cy="14.620000000000001" r="0.2794" stroke="#ffffff" stroke-width="0.3" fill="#ffffff"/>
<circle cx="15.89" cy="20.462" r="0.2794" stroke="#ffffff" stroke-width="0.3" fill="#ffffff"/>
<polyline points="19.192,11.445 19.319,11.572000000000001 20.081,11.572000000000001 20.208,11.699000000000002" stroke="#ffffff" stroke-width="0.3" stroke-linejoin="round" stroke-linecap="round" fill="none"/>
<polyline points="19.7,11.572000000000001 19.319,12.207 20.081,12.207 19.7,11.572000000000001" stroke="#ffffff" stroke-width="0.3" stroke-linejoin="round" stroke-linecap="round" fill="none"/>
<polyline points="19.7,13.604000000000001 20.081,12.969000000000001 19.319,12.969000000000001 19.7,13.604000000000001" stroke="#ffffff" stroke-width="0.3" stroke-linejoin="round" stroke-linecap="round" fill="none"/>
<line x1="19.7" y1="14.620000000000001" x2="14.239" y2="14.620000000000001" stroke="#ffffff" stroke-width="0.3" stroke-linecap="round" fill="none"/>
<line x1="19.7" y1="14.620000000000001" x2="22.494" y2="14.620000000000001" stroke="#ffffff" stroke-width="0.3" stroke-linecap="round" fill="none"/>
<circle cx="19.7" cy="14.620000000000001" r="0.2794" stroke="#ffffff" stroke-width="0.3" fill="#ffffff"/>
<line x1="20.081" y1="13.604000000000001" x2="19.319" y2="13.604000000000001" stroke="#ffffff" stroke-width="0.3" stroke-linecap="round" fill="none"/>
<line x1="22.494" y1="12.715000000000002" x2="22.494" y2="16.525000000000002" stroke="#ffffff" stroke-width="0.3" stroke-linecap="round" fill="none"/>
<line x1="23.002" y1="12.334000000000001" x2="23.002" y2="13.350000000000001" stroke="#ffffff" stroke-width="0.3" stroke-linecap="round" fill="none"/>
<line x1="23.002" y1="12.842" x2="24.78" y2="12.842" stroke="#ffffff" stroke-width="0.3" stroke-linecap="round" fill="none"/>
<line x1="23.002" y1="14.112000000000002" x2="23.002" y2="15.128" stroke="#ffffff" stroke-width="0.3" stroke-linecap="round" fill="none"/>
<line x1="23.002" y1="14.620000000000001" x2="24.78" y2="14.620000000000001" stroke="#ffffff" stroke-width="0.3" stroke-linecap="round" fill="none"/>
<line x1="23.002" y1="15.89" x2="23.002" y2="16.906000000000002" stroke="#ffffff" stroke-width="0.3" stroke-linecap="round" fill="none"/>
<line x1="23.002" y1="16.398" x2="24.78" y2="16.398" stroke="#ffffff" stroke-width="0.3" stroke-linecap="round" fill="none"/>
<polyline points="23.256,14.620000000000001 24.272,14.239 24.272,15.001000000000001 23.256,14.620000000000001" stroke="#ffffff" stroke-width="0.3" stroke-linejoin="round" stroke-linecap="round" fill="#ffffff"/>
<circle cx="23.891" cy="14.620000000000001" r="2.8194" stroke="#ffffff" stroke-width="0.3" fill="none"/>
<circle cx="24.78" cy="10.81" r="0.2794" stroke="#ffffff" stroke-width="0.3" fill="#ffffff"/>
<line x1="24.78" y1="12.080000000000002" x2="24.78" y2="12.842" stroke="#ffffff" stroke-width="0.3" stroke-linecap="round" fill="none"/>
<circle cx="24.78" cy="12.842" r="0.2794" stroke="#ffffff" stroke-width="0.3" fill="#ffffff"/>
<line x1="24.78" y1="16.398" x2="24.78" y2="14.620000000000001" stroke="#ffffff" stroke-width="0.3" stroke-linecap="round" fill="none"/>
<line x1="24.78" y1="16.398" x2="24.78" y2="17.16" stroke="#ffffff" stroke-width="0.3" stroke-linecap="round" fill="none"/>
<polyline points="24.78,16.398 25.542,16.398 25.542,12.842 24.78,12.842" stroke="#ffffff" stroke-width="0.3" stroke-linejoin="round" stroke-linecap="round" fill="none"/>
<circle cx="24.78" cy="16.398" r="0.2794" stroke="#ffffff" stroke-width="0.3" fill="#ffffff"/>
<circle cx="24.78" cy="18.557000000000002" r="0.2794" stroke="#ffffff" stroke-width="0.3" fill="#ffffff"/>
<circle cx="24.78" cy="20.462" r="0.2794" stroke="#ffffff" stroke-width="0.3" fill="#ffffff"/>
<line x1="25.161" y1="14.239" x2="25.923000000000002" y2="14.239" stroke="#ffffff" stroke-width="0.3" stroke-linecap="round" fill="none"/>
<polyline points="25.542,14.239 25.161,14.874 25.923000000000002,14.874 25.542,14.239" stroke="#ffffff" stroke-width="0.3" stroke-linejoin="round" stroke-linecap="round" fill="none"/>
<line x1="4.460000000000001" y1="14.620000000000001" x2="7" y2="14.620000000000001" stroke="#ffd60a" stroke-width="0.44742857142857145" stroke-linecap="round"/>
<text x="4" y="14.620000000000001" fill="#ffd60a" font-size="1" font-family="monospace" text-anchor="start" dominant-baseline="middle">IN</text>
<line x1="24.78" y1="4.460000000000001" x2="24.78" y2="7.000000000000001" stroke="#ffd60a" stroke-width="0.44742857142857145" stroke-linecap="round"/>
<text x="24.78" y="4" fill="#ffd60a" font-size="1" font-family="monospace" text-anchor="middle" dominant-baseline="middle">DRAIN</text>
<line x1="24.78" y1="24.78" x2="24.78" y2="22.240000000000002" stroke="#ffd60a" stroke-width="0.44742857142857145" stroke-linecap="round"/>
<text x="24.78" y="25.240000000000002" fill="#ffd60a" font-size="1" font-family="monospace" text-anchor="middle" dominant-baseline="middle">SOURCE</text>
<line x1="24.78" y1="24.78" x2="24.78" y2="22.240000000000002" stroke="#ffd60a" stroke-width="0.44742857142857145" stroke-linecap="round"/>
<text x="24.78" y="25.240000000000002" fill="#ffd60a" font-size="1" font-family="monospace" text-anchor="middle" dominant-baseline="middle">SOURCE</text>
</svg>