<svg xmlns="http://www.w3.org/2000/svg" viewBox="0 0 280 300">
<rect x="50" y="50" width="180" height="200" stroke="#ffffff" stroke-width="1.5" fill="rgba(255,255,255,0.04)"/>
<text x="140" y="150" fill="#888" font-size="3" font-family="monospace" text-anchor="middle" dominant-baseline="middle">J</text>
<line x1="30" y1="60" x2="50" y2="60" stroke="#ffd60a" stroke-width="1.5" stroke-linecap="round"/>
<text x="55" y="60" fill="#ffd60a" font-size="2" font-family="monospace" text-anchor="start" dominant-baseline="middle">JTAG2</text>
<line x1="30" y1="80" x2="50" y2="80" stroke="#ffd60a" stroke-width="1.5" stroke-linecap="round"/>
<text x="55" y="80" fill="#ffd60a" font-size="2" font-family="monospace" text-anchor="start" dominant-baseline="middle">JTAG3</text>
<line x1="30" y1="100" x2="50" y2="100" stroke="#ffd60a" stroke-width="1.5" stroke-linecap="round"/>
<text x="55" y="100" fill="#ffd60a" font-size="2" font-family="monospace" text-anchor="start" dominant-baseline="middle">JTAG4</text>
<line x1="30" y1="120" x2="50" y2="120" stroke="#ffd60a" stroke-width="1.5" stroke-linecap="round"/>
<text x="55" y="120" fill="#ffd60a" font-size="2" font-family="monospace" text-anchor="start" dominant-baseline="middle">JTAG5</text>
<line x1="30" y1="140" x2="50" y2="140" stroke="#ffd60a" stroke-width="1.5" stroke-linecap="round"/>
<text x="55" y="140" fill="#ffd60a" font-size="2" font-family="monospace" text-anchor="start" dominant-baseline="middle">~{PERST}</text>
<line x1="30" y1="160" x2="50" y2="160" stroke="#ffd60a" stroke-width="1.5" stroke-linecap="round"/>
<text x="55" y="160" fill="#ffd60a" font-size="2" font-family="monospace" text-anchor="start" dominant-baseline="middle">PERp0</text>
<line x1="30" y1="180" x2="50" y2="180" stroke="#ffd60a" stroke-width="1.5" stroke-linecap="round"/>
<text x="55" y="180" fill="#ffd60a" font-size="2" font-family="monospace" text-anchor="start" dominant-baseline="middle">PERn0</text>
<line x1="30" y1="200" x2="50" y2="200" stroke="#ffd60a" stroke-width="1.5" stroke-linecap="round"/>
<text x="55" y="200" fill="#ffd60a" font-size="2" font-family="monospace" text-anchor="start" dominant-baseline="middle">JTAG1</text>
<line x1="30" y1="220" x2="50" y2="220" stroke="#ffd60a" stroke-width="1.5" stroke-linecap="round"/>
<text x="55" y="220" fill="#ffd60a" font-size="2" font-family="monospace" text-anchor="start" dominant-baseline="middle">~{WAKE}</text>
<line x1="30" y1="240" x2="50" y2="240" stroke="#ffd60a" stroke-width="1.5" stroke-linecap="round"/>
<text x="55" y="240" fill="#ffd60a" font-size="2" font-family="monospace" text-anchor="start" dominant-baseline="middle">RSVD</text>
<line x1="250" y1="62.5" x2="230" y2="62.5" stroke="#ffd60a" stroke-width="1.5" stroke-linecap="round"/>
<text x="225" y="62.5" fill="#ffd60a" font-size="2" font-family="monospace" text-anchor="end" dominant-baseline="middle">~{PRSNT1}</text>
<line x1="250" y1="87.5" x2="230" y2="87.5" stroke="#ffd60a" stroke-width="1.5" stroke-linecap="round"/>
<text x="225" y="87.5" fill="#ffd60a" font-size="2" font-family="monospace" text-anchor="end" dominant-baseline="middle">REFCLK+</text>
<line x1="250" y1="112.5" x2="230" y2="112.5" stroke="#ffd60a" stroke-width="1.5" stroke-linecap="round"/>
<text x="225" y="112.5" fill="#ffd60a" font-size="2" font-family="monospace" text-anchor="end" dominant-baseline="middle">REFCLK-</text>
<line x1="250" y1="137.5" x2="230" y2="137.5" stroke="#ffd60a" stroke-width="1.5" stroke-linecap="round"/>
<text x="225" y="137.5" fill="#ffd60a" font-size="2" font-family="monospace" text-anchor="end" dominant-baseline="middle">SMCLK</text>
<line x1="250" y1="162.5" x2="230" y2="162.5" stroke="#ffd60a" stroke-width="1.5" stroke-linecap="round"/>
<text x="225" y="162.5" fill="#ffd60a" font-size="2" font-family="monospace" text-anchor="end" dominant-baseline="middle">SMDAT</text>
<line x1="250" y1="187.5" x2="230" y2="187.5" stroke="#ffd60a" stroke-width="1.5" stroke-linecap="round"/>
<text x="225" y="187.5" fill="#ffd60a" font-size="2" font-family="monospace" text-anchor="end" dominant-baseline="middle">PETp0</text>
<line x1="250" y1="212.5" x2="230" y2="212.5" stroke="#ffd60a" stroke-width="1.5" stroke-linecap="round"/>
<text x="225" y="212.5" fill="#ffd60a" font-size="2" font-family="monospace" text-anchor="end" dominant-baseline="middle">PETn0</text>
<line x1="250" y1="237.5" x2="230" y2="237.5" stroke="#ffd60a" stroke-width="1.5" stroke-linecap="round"/>
<text x="225" y="237.5" fill="#ffd60a" font-size="2" font-family="monospace" text-anchor="end" dominant-baseline="middle">~{PRSNT2}</text>
<line x1="60" y1="30" x2="60" y2="50" stroke="#ffd60a" stroke-width="1.5" stroke-linecap="round"/>
<text x="60" y="25" fill="#ffd60a" font-size="2" font-family="monospace" text-anchor="middle" dominant-baseline="middle">GND</text>
<line x1="80" y1="30" x2="80" y2="50" stroke="#ffd60a" stroke-width="1.5" stroke-linecap="round"/>
<text x="80" y="25" fill="#ffd60a" font-size="2" font-family="monospace" text-anchor="middle" dominant-baseline="middle">GND</text>
<line x1="100" y1="30" x2="100" y2="50" stroke="#ffd60a" stroke-width="1.5" stroke-linecap="round"/>
<text x="100" y="25" fill="#ffd60a" font-size="2" font-family="monospace" text-anchor="middle" dominant-baseline="middle">GND</text>
<line x1="120" y1="30" x2="120" y2="50" stroke="#ffd60a" stroke-width="1.5" stroke-linecap="round"/>
<text x="120" y="25" fill="#ffd60a" font-size="2" font-family="monospace" text-anchor="middle" dominant-baseline="middle">GND</text>
<line x1="140" y1="30" x2="140" y2="50" stroke="#ffd60a" stroke-width="1.5" stroke-linecap="round"/>
<text x="140" y="25" fill="#ffd60a" font-size="2" font-family="monospace" text-anchor="middle" dominant-baseline="middle">GND</text>
<line x1="160" y1="30" x2="160" y2="50" stroke="#ffd60a" stroke-width="1.5" stroke-linecap="round"/>
<text x="160" y="25" fill="#ffd60a" font-size="2" font-family="monospace" text-anchor="middle" dominant-baseline="middle">GND</text>
<line x1="180" y1="30" x2="180" y2="50" stroke="#ffd60a" stroke-width="1.5" stroke-linecap="round"/>
<text x="180" y="25" fill="#ffd60a" font-size="2" font-family="monospace" text-anchor="middle" dominant-baseline="middle">GND</text>
<line x1="200" y1="30" x2="200" y2="50" stroke="#ffd60a" stroke-width="1.5" stroke-linecap="round"/>
<text x="200" y="25" fill="#ffd60a" font-size="2" font-family="monospace" text-anchor="middle" dominant-baseline="middle">GND</text>
<line x1="220" y1="30" x2="220" y2="50" stroke="#ffd60a" stroke-width="1.5" stroke-linecap="round"/>
<text x="220" y="25" fill="#ffd60a" font-size="2" font-family="monospace" text-anchor="middle" dominant-baseline="middle">GND</text>
<line x1="60" y1="270" x2="60" y2="250" stroke="#ffd60a" stroke-width="1.5" stroke-linecap="round"/>
<text x="60" y="284" fill="#ffd60a" font-size="2" font-family="monospace" text-anchor="middle" dominant-baseline="middle">+12V</text>
<line x1="80" y1="270" x2="80" y2="250" stroke="#ffd60a" stroke-width="1.5" stroke-linecap="round"/>
<text x="80" y="284" fill="#ffd60a" font-size="2" font-family="monospace" text-anchor="middle" dominant-baseline="middle">+12V</text>
<line x1="100" y1="270" x2="100" y2="250" stroke="#ffd60a" stroke-width="1.5" stroke-linecap="round"/>
<text x="100" y="284" fill="#ffd60a" font-size="2" font-family="monospace" text-anchor="middle" dominant-baseline="middle">+3.3V</text>
<line x1="120" y1="270" x2="120" y2="250" stroke="#ffd60a" stroke-width="1.5" stroke-linecap="round"/>
<text x="120" y="284" fill="#ffd60a" font-size="2" font-family="monospace" text-anchor="middle" dominant-baseline="middle">+3.3V</text>
<line x1="140" y1="270" x2="140" y2="250" stroke="#ffd60a" stroke-width="1.5" stroke-linecap="round"/>
<text x="140" y="284" fill="#ffd60a" font-size="2" font-family="monospace" text-anchor="middle" dominant-baseline="middle">+12V</text>
<line x1="160" y1="270" x2="160" y2="250" stroke="#ffd60a" stroke-width="1.5" stroke-linecap="round"/>
<text x="160" y="284" fill="#ffd60a" font-size="2" font-family="monospace" text-anchor="middle" dominant-baseline="middle">+12V</text>
<line x1="180" y1="270" x2="180" y2="250" stroke="#ffd60a" stroke-width="1.5" stroke-linecap="round"/>
<text x="180" y="284" fill="#ffd60a" font-size="2" font-family="monospace" text-anchor="middle" dominant-baseline="middle">+12V</text>
<line x1="200" y1="270" x2="200" y2="250" stroke="#ffd60a" stroke-width="1.5" stroke-linecap="round"/>
<text x="200" y="284" fill="#ffd60a" font-size="2" font-family="monospace" text-anchor="middle" dominant-baseline="middle">+3.3V</text>
<line x1="220" y1="270" x2="220" y2="250" stroke="#ffd60a" stroke-width="1.5" stroke-linecap="round"/>
<text x="220" y="284" fill="#ffd60a" font-size="2" font-family="monospace" text-anchor="middle" dominant-baseline="middle">3.3Vaux</text>
</svg>