<svg xmlns="http://www.w3.org/2000/svg" viewBox="0 0 19.08 13.080000000000002">
<circle cx="6.745999999999999" cy="5.270000000000001" r="0.254" stroke="#ffffff" stroke-width="0.3" fill="#ffffff"/>
<line x1="6.745999999999999" y1="6.159000000000001" x2="7.254" y2="6.159000000000001" stroke="#ffffff" stroke-width="0.3" stroke-linecap="round" fill="none"/>
<line x1="6.745999999999999" y1="6.921000000000001" x2="7.254" y2="6.921000000000001" stroke="#ffffff" stroke-width="0.3" stroke-linecap="round" fill="none"/>
<circle cx="6.745999999999999" cy="7.8100000000000005" r="0.254" stroke="#ffffff" stroke-width="0.3" fill="#ffffff"/>
<line x1="6.999999999999999" y1="4.508000000000001" x2="6.999999999999999" y2="4.000000000000001" stroke="#ffffff" stroke-width="0.3" stroke-linecap="round" fill="none"/>
<line x1="6.999999999999999" y1="8.572000000000001" x2="6.999999999999999" y2="9.080000000000002" stroke="#ffffff" stroke-width="0.3" stroke-linecap="round" fill="none"/>
<path d="M 8.015999999999998 4.508000000000001 A 0.5080047844998024 0.5080047844998024 0 0 1 6.999999999999999 4.508000000000001" stroke="#ffffff" stroke-width="0.3" fill="none"/>
<path d="M 6.999999999999999 8.572000000000001 A 0.5080047844998024 0.5080047844998024 0 0 1 8.015999999999998 8.572000000000001" stroke="#ffffff" stroke-width="0.3" fill="none"/>
<line x1="7.761999999999999" y1="6.159000000000001" x2="8.27" y2="6.159000000000001" stroke="#ffffff" stroke-width="0.3" stroke-linecap="round" fill="none"/>
<line x1="7.761999999999999" y1="6.921000000000001" x2="8.27" y2="6.921000000000001" stroke="#ffffff" stroke-width="0.3" stroke-linecap="round" fill="none"/>
<path d="M 9.032 4.508000000000001 A 0.5080047844998028 0.5080047844998028 0 0 1 8.015999999999998 4.508000000000001" stroke="#ffffff" stroke-width="0.3" fill="none"/>
<path d="M 8.015999999999998 8.572000000000001 A 0.5080047844998019 0.5080047844998019 0 0 1 9.032 8.572000000000001" stroke="#ffffff" stroke-width="0.3" fill="none"/>
<line x1="8.777999999999999" y1="6.159000000000001" x2="9.286" y2="6.159000000000001" stroke="#ffffff" stroke-width="0.3" stroke-linecap="round" fill="none"/>
<line x1="8.777999999999999" y1="6.921000000000001" x2="9.286" y2="6.921000000000001" stroke="#ffffff" stroke-width="0.3" stroke-linecap="round" fill="none"/>
<path d="M 10.047999999999998 4.508000000000001 A 0.5080047844998024 0.5080047844998024 0 0 1 9.032 4.508000000000001" stroke="#ffffff" stroke-width="0.3" fill="none"/>
<path d="M 9.032 8.572000000000001 A 0.5080047844998024 0.5080047844998024 0 0 1 10.047999999999998 8.572000000000001" stroke="#ffffff" stroke-width="0.3" fill="none"/>
<line x1="9.793999999999999" y1="6.159000000000001" x2="10.302" y2="6.159000000000001" stroke="#ffffff" stroke-width="0.3" stroke-linecap="round" fill="none"/>
<line x1="9.793999999999999" y1="6.921000000000001" x2="10.302" y2="6.921000000000001" stroke="#ffffff" stroke-width="0.3" stroke-linecap="round" fill="none"/>
<path d="M 11.064 4.508000000000001 A 0.5080047844998019 0.5080047844998019 0 0 1 10.047999999999998 4.508000000000001" stroke="#ffffff" stroke-width="0.3" fill="none"/>
<path d="M 10.047999999999998 8.572000000000001 A 0.5080047844998028 0.5080047844998028 0 0 1 11.064 8.572000000000001" stroke="#ffffff" stroke-width="0.3" fill="none"/>
<line x1="10.809999999999999" y1="6.159000000000001" x2="11.318" y2="6.159000000000001" stroke="#ffffff" stroke-width="0.3" stroke-linecap="round" fill="none"/>
<line x1="10.809999999999999" y1="6.921000000000001" x2="11.318" y2="6.921000000000001" stroke="#ffffff" stroke-width="0.3" stroke-linecap="round" fill="none"/>
<path d="M 12.079999999999998 4.508000000000001 A 0.5080047844998024 0.5080047844998024 0 0 1 11.064 4.508000000000001" stroke="#ffffff" stroke-width="0.3" fill="none"/>
<path d="M 11.064 8.572000000000001 A 0.5080047844998024 0.5080047844998024 0 0 1 12.079999999999998 8.572000000000001" stroke="#ffffff" stroke-width="0.3" fill="none"/>
<line x1="11.825999999999999" y1="6.159000000000001" x2="12.334" y2="6.159000000000001" stroke="#ffffff" stroke-width="0.3" stroke-linecap="round" fill="none"/>
<line x1="11.825999999999999" y1="6.921000000000001" x2="12.334" y2="6.921000000000001" stroke="#ffffff" stroke-width="0.3" stroke-linecap="round" fill="none"/>
<line x1="12.079999999999998" y1="4.000000000000001" x2="12.079999999999998" y2="4.508000000000001" stroke="#ffffff" stroke-width="0.3" stroke-linecap="round" fill="none"/>
<line x1="12.079999999999998" y1="8.572000000000001" x2="12.079999999999998" y2="9.080000000000002" stroke="#ffffff" stroke-width="0.3" stroke-linecap="round" fill="none"/>
<line x1="4.459999999999999" y1="4.000000000000001" x2="6.999999999999999" y2="4.000000000000001" stroke="#ffd60a" stroke-width="0.2725714285714285" stroke-linecap="round"/>
<text x="3.999999999999999" y="4.000000000000001" fill="#ffd60a" font-size="1" font-family="monospace" text-anchor="start" dominant-baseline="middle">1</text>
<line x1="4.459999999999999" y1="9.080000000000002" x2="6.999999999999999" y2="9.080000000000002" stroke="#ffd60a" stroke-width="0.2725714285714285" stroke-linecap="round"/>
<text x="3.999999999999999" y="9.080000000000002" fill="#ffd60a" font-size="1" font-family="monospace" text-anchor="start" dominant-baseline="middle">2</text>
<line x1="14.62" y1="4.000000000000001" x2="12.079999999999998" y2="4" stroke="#ffd60a" stroke-width="0.2725714285714285" stroke-linecap="round"/>
<text x="9.079999999999998" y="4" fill="#ffd60a" font-size="1" font-family="monospace" text-anchor="end" dominant-baseline="middle">3</text>
<line x1="14.62" y1="9.080000000000002" x2="12.079999999999998" y2="9.08" stroke="#ffd60a" stroke-width="0.2725714285714285" stroke-linecap="round"/>
<text x="15.079999999999998" y="9.080000000000002" fill="#ffd60a" font-size="1" font-family="monospace" text-anchor="end" dominant-baseline="middle">4</text>
</svg>