<svg xmlns="http://www.w3.org/2000/svg" viewBox="0 0 24.16 31.78">
<polyline points="7,12.08 7,18.43 7,18.43" stroke="#ffffff" stroke-width="0.3" stroke-linejoin="round" stroke-linecap="round" fill="none"/>
<line x1="9.54" y1="24.78" x2="9.54" y2="20.97" stroke="#ffffff" stroke-width="0.3" stroke-linecap="round" fill="none"/>
<path d="M 7 12.08 A 5.080048281895649 5.080048281895649 0 0 1 17.16 12.08" stroke="#ffffff" stroke-width="0.3" fill="none"/>
<path d="M 17.16 18.43 A 5.080048281895649 5.080048281895649 0 0 1 7 18.43" stroke="#ffffff" stroke-width="0.3" fill="none"/>
<path d="M 9.54 20.97 A 2.6181631302944735 2.6181631302944735 0 0 1 14.620000000000001 20.97" stroke="#ffffff" stroke-width="0.3" fill="none"/>
<polyline points="17.16,18.43 17.16,12.08 17.16,12.08" stroke="#ffffff" stroke-width="0.3" stroke-linejoin="round" stroke-linecap="round" fill="none"/>
<line x1="7" y1="17.16" x2="8.905000000000001" y2="17.16" stroke="#ffffff" stroke-width="0.3" stroke-linecap="round" fill="none"/>
<line x1="11.445" y1="17.16" x2="12.715" y2="17.16" stroke="#ffffff" stroke-width="0.3" stroke-linecap="round" fill="none"/>
<line x1="12.08" y1="9.54" x2="12.08" y2="7" stroke="#ffffff" stroke-width="0.3" stroke-linecap="round" fill="none"/>
<line x1="13.985" y1="17.16" x2="15.254999999999999" y2="17.16" stroke="#ffffff" stroke-width="0.3" stroke-linecap="round" fill="none"/>
<line x1="15.254999999999999" y1="14.620000000000001" x2="17.16" y2="14.620000000000001" stroke="#ffffff" stroke-width="0.3" stroke-linecap="round" fill="none"/>
<line x1="8.27" y1="12.08" x2="9.286" y2="12.08" stroke="#ffffff" stroke-width="0.3" stroke-linecap="round" fill="none"/>
<polyline points="8.27,12.08 8.27,20.97 9.54,20.97" stroke="#ffffff" stroke-width="0.3" stroke-linejoin="round" stroke-linecap="round" fill="none"/>
<line x1="8.905000000000001" y1="14.620000000000001" x2="9.286" y2="14.620000000000001" stroke="#ffffff" stroke-width="0.3" stroke-linecap="round" fill="none"/>
<polyline points="9.54,9.54 14.620000000000001,9.54 14.620000000000001,9.54" stroke="#ffffff" stroke-width="0.3" stroke-linejoin="round" stroke-linecap="round" fill="none"/>
<circle cx="9.54" cy="20.97" r="0.3556" stroke="#ffffff" stroke-width="0.3" fill="#ffffff"/>
<line x1="10.175" y1="17.16" x2="8.905000000000001" y2="17.16" stroke="#ffffff" stroke-width="0.3" stroke-linecap="round" fill="none"/>
<line x1="10.2258" y1="12.08" x2="10.8608" y2="12.08" stroke="#ffffff" stroke-width="0.3" stroke-linecap="round" fill="none"/>
<line x1="10.2258" y1="14.620000000000001" x2="10.8608" y2="14.620000000000001" stroke="#ffffff" stroke-width="0.3" stroke-linecap="round" fill="none"/>
<line x1="11.7498" y1="12.08" x2="12.4102" y2="12.08" stroke="#ffffff" stroke-width="0.3" stroke-linecap="round" fill="none"/>
<line x1="11.7498" y1="14.620000000000001" x2="12.4102" y2="14.620000000000001" stroke="#ffffff" stroke-width="0.3" stroke-linecap="round" fill="none"/>
<line x1="13.2992" y1="12.08" x2="13.9342" y2="12.08" stroke="#ffffff" stroke-width="0.3" stroke-linecap="round" fill="none"/>
<line x1="13.2992" y1="14.620000000000001" x2="13.9342" y2="14.620000000000001" stroke="#ffffff" stroke-width="0.3" stroke-linecap="round" fill="none"/>
<line x1="14.874" y1="14.620000000000001" x2="15.254999999999999" y2="14.620000000000001" stroke="#ffffff" stroke-width="0.3" stroke-linecap="round" fill="none"/>
<line x1="15.89" y1="12.08" x2="14.874" y2="12.08" stroke="#ffffff" stroke-width="0.3" stroke-linecap="round" fill="none"/>
<polyline points="9.54,24.018 9.54,22.240000000000002 9.54,22.240000000000002" stroke="#ffffff" stroke-width="0.3" stroke-linejoin="round" stroke-linecap="round" fill="none"/>
<line x1="14.620000000000001" y1="24.78" x2="14.620000000000001" y2="20.97" stroke="#ffffff" stroke-width="0.3" stroke-linecap="round" fill="none"/>
<line x1="9.54" y1="27.32" x2="9.54" y2="24.78" stroke="#ffd60a" stroke-width="0.454" stroke-linecap="round"/>
<text x="9.54" y="27.78" fill="#ffd60a" font-size="1" font-family="monospace" text-anchor="middle" dominant-baseline="middle">F+,G3</text>
<line x1="12.08" y1="4.460000000000001" x2="12.08" y2="7" stroke="#ffd60a" stroke-width="0.454" stroke-linecap="round"/>
<text x="12.08" y="4" fill="#ffd60a" font-size="1" font-family="monospace" text-anchor="middle" dominant-baseline="middle">P</text>
<line x1="19.7" y1="14.620000000000001" x2="17.16" y2="14.62" stroke="#ffd60a" stroke-width="0.454" stroke-linecap="round"/>
<text x="20.16" y="14.620000000000001" fill="#ffd60a" font-size="1" font-family="monospace" text-anchor="end" dominant-baseline="middle">G2</text>
<line x1="4.46" y1="17.16" x2="7" y2="17.16" stroke="#ffd60a" stroke-width="0.454" stroke-linecap="round"/>
<text x="4" y="17.16" fill="#ffd60a" font-size="1" font-family="monospace" text-anchor="start" dominant-baseline="middle">G1</text>
<line x1="14.620000000000001" y1="27.32" x2="14.620000000000001" y2="24.78" stroke="#ffd60a" stroke-width="0.454" stroke-linecap="round"/>
<text x="14.620000000000001" y="27.78" fill="#ffd60a" font-size="1" font-family="monospace" text-anchor="middle" dominant-baseline="middle">F+,G3</text>
</svg>