<svg xmlns="http://www.w3.org/2000/svg" viewBox="0 0 180 1140">
<rect x="50" y="50" width="80" height="1040" stroke="#ffffff" stroke-width="1.5" fill="rgba(255,255,255,0.04)"/>
<text x="90" y="570" fill="#888" font-size="3" font-family="monospace" text-anchor="middle" dominant-baseline="middle">J</text>
<line x1="30" y1="60" x2="50" y2="60" stroke="#ffd60a" stroke-width="1.5" stroke-linecap="round"/>
<text x="55" y="60" fill="#ffd60a" font-size="2" font-family="monospace" text-anchor="start" dominant-baseline="middle">Pin_1b</text>
<line x1="30" y1="80" x2="50" y2="80" stroke="#ffd60a" stroke-width="1.5" stroke-linecap="round"/>
<text x="55" y="80" fill="#ffd60a" font-size="2" font-family="monospace" text-anchor="start" dominant-baseline="middle">Pin_2b</text>
<line x1="30" y1="100" x2="50" y2="100" stroke="#ffd60a" stroke-width="1.5" stroke-linecap="round"/>
<text x="55" y="100" fill="#ffd60a" font-size="2" font-family="monospace" text-anchor="start" dominant-baseline="middle">Pin_3b</text>
<line x1="30" y1="120" x2="50" y2="120" stroke="#ffd60a" stroke-width="1.5" stroke-linecap="round"/>
<text x="55" y="120" fill="#ffd60a" font-size="2" font-family="monospace" text-anchor="start" dominant-baseline="middle">Pin_4b</text>
<line x1="30" y1="140" x2="50" y2="140" stroke="#ffd60a" stroke-width="1.5" stroke-linecap="round"/>
<text x="55" y="140" fill="#ffd60a" font-size="2" font-family="monospace" text-anchor="start" dominant-baseline="middle">Pin_5b</text>
<line x1="30" y1="160" x2="50" y2="160" stroke="#ffd60a" stroke-width="1.5" stroke-linecap="round"/>
<text x="55" y="160" fill="#ffd60a" font-size="2" font-family="monospace" text-anchor="start" dominant-baseline="middle">Pin_6b</text>
<line x1="30" y1="180" x2="50" y2="180" stroke="#ffd60a" stroke-width="1.5" stroke-linecap="round"/>
<text x="55" y="180" fill="#ffd60a" font-size="2" font-family="monospace" text-anchor="start" dominant-baseline="middle">Pin_7b</text>
<line x1="30" y1="200" x2="50" y2="200" stroke="#ffd60a" stroke-width="1.5" stroke-linecap="round"/>
<text x="55" y="200" fill="#ffd60a" font-size="2" font-family="monospace" text-anchor="start" dominant-baseline="middle">Pin_8b</text>
<line x1="30" y1="220" x2="50" y2="220" stroke="#ffd60a" stroke-width="1.5" stroke-linecap="round"/>
<text x="55" y="220" fill="#ffd60a" font-size="2" font-family="monospace" text-anchor="start" dominant-baseline="middle">Pin_9b</text>
<line x1="30" y1="240" x2="50" y2="240" stroke="#ffd60a" stroke-width="1.5" stroke-linecap="round"/>
<text x="55" y="240" fill="#ffd60a" font-size="2" font-family="monospace" text-anchor="start" dominant-baseline="middle">Pin_10b</text>
<line x1="30" y1="260" x2="50" y2="260" stroke="#ffd60a" stroke-width="1.5" stroke-linecap="round"/>
<text x="55" y="260" fill="#ffd60a" font-size="2" font-family="monospace" text-anchor="start" dominant-baseline="middle">Pin_11b</text>
<line x1="30" y1="280" x2="50" y2="280" stroke="#ffd60a" stroke-width="1.5" stroke-linecap="round"/>
<text x="55" y="280" fill="#ffd60a" font-size="2" font-family="monospace" text-anchor="start" dominant-baseline="middle">Pin_12b</text>
<line x1="30" y1="300" x2="50" y2="300" stroke="#ffd60a" stroke-width="1.5" stroke-linecap="round"/>
<text x="55" y="300" fill="#ffd60a" font-size="2" font-family="monospace" text-anchor="start" dominant-baseline="middle">Pin_13b</text>
<line x1="30" y1="320" x2="50" y2="320" stroke="#ffd60a" stroke-width="1.5" stroke-linecap="round"/>
<text x="55" y="320" fill="#ffd60a" font-size="2" font-family="monospace" text-anchor="start" dominant-baseline="middle">Pin_14b</text>
<line x1="30" y1="340" x2="50" y2="340" stroke="#ffd60a" stroke-width="1.5" stroke-linecap="round"/>
<text x="55" y="340" fill="#ffd60a" font-size="2" font-family="monospace" text-anchor="start" dominant-baseline="middle">Pin_15b</text>
<line x1="30" y1="360" x2="50" y2="360" stroke="#ffd60a" stroke-width="1.5" stroke-linecap="round"/>
<text x="55" y="360" fill="#ffd60a" font-size="2" font-family="monospace" text-anchor="start" dominant-baseline="middle">Pin_16b</text>
<line x1="30" y1="380" x2="50" y2="380" stroke="#ffd60a" stroke-width="1.5" stroke-linecap="round"/>
<text x="55" y="380" fill="#ffd60a" font-size="2" font-family="monospace" text-anchor="start" dominant-baseline="middle">Pin_17b</text>
<line x1="30" y1="400" x2="50" y2="400" stroke="#ffd60a" stroke-width="1.5" stroke-linecap="round"/>
<text x="55" y="400" fill="#ffd60a" font-size="2" font-family="monospace" text-anchor="start" dominant-baseline="middle">Pin_18b</text>
<line x1="30" y1="420" x2="50" y2="420" stroke="#ffd60a" stroke-width="1.5" stroke-linecap="round"/>
<text x="55" y="420" fill="#ffd60a" font-size="2" font-family="monospace" text-anchor="start" dominant-baseline="middle">Pin_19b</text>
<line x1="30" y1="440" x2="50" y2="440" stroke="#ffd60a" stroke-width="1.5" stroke-linecap="round"/>
<text x="55" y="440" fill="#ffd60a" font-size="2" font-family="monospace" text-anchor="start" dominant-baseline="middle">Pin_20b</text>
<line x1="30" y1="460" x2="50" y2="460" stroke="#ffd60a" stroke-width="1.5" stroke-linecap="round"/>
<text x="55" y="460" fill="#ffd60a" font-size="2" font-family="monospace" text-anchor="start" dominant-baseline="middle">Pin_21b</text>
<line x1="30" y1="480" x2="50" y2="480" stroke="#ffd60a" stroke-width="1.5" stroke-linecap="round"/>
<text x="55" y="480" fill="#ffd60a" font-size="2" font-family="monospace" text-anchor="start" dominant-baseline="middle">Pin_22b</text>
<line x1="30" y1="500" x2="50" y2="500" stroke="#ffd60a" stroke-width="1.5" stroke-linecap="round"/>
<text x="55" y="500" fill="#ffd60a" font-size="2" font-family="monospace" text-anchor="start" dominant-baseline="middle">Pin_23b</text>
<line x1="30" y1="520" x2="50" y2="520" stroke="#ffd60a" stroke-width="1.5" stroke-linecap="round"/>
<text x="55" y="520" fill="#ffd60a" font-size="2" font-family="monospace" text-anchor="start" dominant-baseline="middle">Pin_24b</text>
<line x1="30" y1="540" x2="50" y2="540" stroke="#ffd60a" stroke-width="1.5" stroke-linecap="round"/>
<text x="55" y="540" fill="#ffd60a" font-size="2" font-family="monospace" text-anchor="start" dominant-baseline="middle">Pin_25b</text>
<line x1="30" y1="560" x2="50" y2="560" stroke="#ffd60a" stroke-width="1.5" stroke-linecap="round"/>
<text x="55" y="560" fill="#ffd60a" font-size="2" font-family="monospace" text-anchor="start" dominant-baseline="middle">Pin_26b</text>
<line x1="30" y1="580" x2="50" y2="580" stroke="#ffd60a" stroke-width="1.5" stroke-linecap="round"/>
<text x="55" y="580" fill="#ffd60a" font-size="2" font-family="monospace" text-anchor="start" dominant-baseline="middle">Pin_27b</text>
<line x1="30" y1="600" x2="50" y2="600" stroke="#ffd60a" stroke-width="1.5" stroke-linecap="round"/>
<text x="55" y="600" fill="#ffd60a" font-size="2" font-family="monospace" text-anchor="start" dominant-baseline="middle">Pin_28b</text>
<line x1="30" y1="620" x2="50" y2="620" stroke="#ffd60a" stroke-width="1.5" stroke-linecap="round"/>
<text x="55" y="620" fill="#ffd60a" font-size="2" font-family="monospace" text-anchor="start" dominant-baseline="middle">Pin_29b</text>
<line x1="30" y1="640" x2="50" y2="640" stroke="#ffd60a" stroke-width="1.5" stroke-linecap="round"/>
<text x="55" y="640" fill="#ffd60a" font-size="2" font-family="monospace" text-anchor="start" dominant-baseline="middle">Pin_30b</text>
<line x1="30" y1="660" x2="50" y2="660" stroke="#ffd60a" stroke-width="1.5" stroke-linecap="round"/>
<text x="55" y="660" fill="#ffd60a" font-size="2" font-family="monospace" text-anchor="start" dominant-baseline="middle">Pin_31b</text>
<line x1="30" y1="680" x2="50" y2="680" stroke="#ffd60a" stroke-width="1.5" stroke-linecap="round"/>
<text x="55" y="680" fill="#ffd60a" font-size="2" font-family="monospace" text-anchor="start" dominant-baseline="middle">Pin_32b</text>
<line x1="30" y1="700" x2="50" y2="700" stroke="#ffd60a" stroke-width="1.5" stroke-linecap="round"/>
<text x="55" y="700" fill="#ffd60a" font-size="2" font-family="monospace" text-anchor="start" dominant-baseline="middle">Pin_33b</text>
<line x1="30" y1="720" x2="50" y2="720" stroke="#ffd60a" stroke-width="1.5" stroke-linecap="round"/>
<text x="55" y="720" fill="#ffd60a" font-size="2" font-family="monospace" text-anchor="start" dominant-baseline="middle">Pin_34b</text>
<line x1="30" y1="740" x2="50" y2="740" stroke="#ffd60a" stroke-width="1.5" stroke-linecap="round"/>
<text x="55" y="740" fill="#ffd60a" font-size="2" font-family="monospace" text-anchor="start" dominant-baseline="middle">Pin_35b</text>
<line x1="30" y1="760" x2="50" y2="760" stroke="#ffd60a" stroke-width="1.5" stroke-linecap="round"/>
<text x="55" y="760" fill="#ffd60a" font-size="2" font-family="monospace" text-anchor="start" dominant-baseline="middle">Pin_36b</text>
<line x1="30" y1="780" x2="50" y2="780" stroke="#ffd60a" stroke-width="1.5" stroke-linecap="round"/>
<text x="55" y="780" fill="#ffd60a" font-size="2" font-family="monospace" text-anchor="start" dominant-baseline="middle">Pin_37b</text>
<line x1="30" y1="800" x2="50" y2="800" stroke="#ffd60a" stroke-width="1.5" stroke-linecap="round"/>
<text x="55" y="800" fill="#ffd60a" font-size="2" font-family="monospace" text-anchor="start" dominant-baseline="middle">Pin_38b</text>
<line x1="30" y1="820" x2="50" y2="820" stroke="#ffd60a" stroke-width="1.5" stroke-linecap="round"/>
<text x="55" y="820" fill="#ffd60a" font-size="2" font-family="monospace" text-anchor="start" dominant-baseline="middle">Pin_39b</text>
<line x1="30" y1="840" x2="50" y2="840" stroke="#ffd60a" stroke-width="1.5" stroke-linecap="round"/>
<text x="55" y="840" fill="#ffd60a" font-size="2" font-family="monospace" text-anchor="start" dominant-baseline="middle">Pin_40b</text>
<line x1="30" y1="860" x2="50" y2="860" stroke="#ffd60a" stroke-width="1.5" stroke-linecap="round"/>
<text x="55" y="860" fill="#ffd60a" font-size="2" font-family="monospace" text-anchor="start" dominant-baseline="middle">Pin_41b</text>
<line x1="30" y1="880" x2="50" y2="880" stroke="#ffd60a" stroke-width="1.5" stroke-linecap="round"/>
<text x="55" y="880" fill="#ffd60a" font-size="2" font-family="monospace" text-anchor="start" dominant-baseline="middle">Pin_42b</text>
<line x1="30" y1="900" x2="50" y2="900" stroke="#ffd60a" stroke-width="1.5" stroke-linecap="round"/>
<text x="55" y="900" fill="#ffd60a" font-size="2" font-family="monospace" text-anchor="start" dominant-baseline="middle">Pin_43b</text>
<line x1="30" y1="920" x2="50" y2="920" stroke="#ffd60a" stroke-width="1.5" stroke-linecap="round"/>
<text x="55" y="920" fill="#ffd60a" font-size="2" font-family="monospace" text-anchor="start" dominant-baseline="middle">Pin_44b</text>
<line x1="30" y1="940" x2="50" y2="940" stroke="#ffd60a" stroke-width="1.5" stroke-linecap="round"/>
<text x="55" y="940" fill="#ffd60a" font-size="2" font-family="monospace" text-anchor="start" dominant-baseline="middle">Pin_45b</text>
<line x1="30" y1="960" x2="50" y2="960" stroke="#ffd60a" stroke-width="1.5" stroke-linecap="round"/>
<text x="55" y="960" fill="#ffd60a" font-size="2" font-family="monospace" text-anchor="start" dominant-baseline="middle">Pin_46b</text>
<line x1="30" y1="980" x2="50" y2="980" stroke="#ffd60a" stroke-width="1.5" stroke-linecap="round"/>
<text x="55" y="980" fill="#ffd60a" font-size="2" font-family="monospace" text-anchor="start" dominant-baseline="middle">Pin_47b</text>
<line x1="30" y1="1000" x2="50" y2="1000" stroke="#ffd60a" stroke-width="1.5" stroke-linecap="round"/>
<text x="55" y="1000" fill="#ffd60a" font-size="2" font-family="monospace" text-anchor="start" dominant-baseline="middle">Pin_48b</text>
<line x1="30" y1="1020" x2="50" y2="1020" stroke="#ffd60a" stroke-width="1.5" stroke-linecap="round"/>
<text x="55" y="1020" fill="#ffd60a" font-size="2" font-family="monospace" text-anchor="start" dominant-baseline="middle">Pin_49b</text>
<line x1="30" y1="1040" x2="50" y2="1040" stroke="#ffd60a" stroke-width="1.5" stroke-linecap="round"/>
<text x="55" y="1040" fill="#ffd60a" font-size="2" font-family="monospace" text-anchor="start" dominant-baseline="middle">Pin_50b</text>
<line x1="30" y1="1060" x2="50" y2="1060" stroke="#ffd60a" stroke-width="1.5" stroke-linecap="round"/>
<text x="55" y="1060" fill="#ffd60a" font-size="2" font-family="monospace" text-anchor="start" dominant-baseline="middle">Pin_51b</text>
<line x1="30" y1="1080" x2="50" y2="1080" stroke="#ffd60a" stroke-width="1.5" stroke-linecap="round"/>
<text x="55" y="1080" fill="#ffd60a" font-size="2" font-family="monospace" text-anchor="start" dominant-baseline="middle">Pin_52b</text>
<line x1="150" y1="60" x2="130" y2="60" stroke="#ffd60a" stroke-width="1.5" stroke-linecap="round"/>
<text x="125" y="60" fill="#ffd60a" font-size="2" font-family="monospace" text-anchor="end" dominant-baseline="middle">Pin_1a</text>
<line x1="150" y1="80" x2="130" y2="80" stroke="#ffd60a" stroke-width="1.5" stroke-linecap="round"/>
<text x="125" y="80" fill="#ffd60a" font-size="2" font-family="monospace" text-anchor="end" dominant-baseline="middle">Pin_2a</text>
<line x1="150" y1="100" x2="130" y2="100" stroke="#ffd60a" stroke-width="1.5" stroke-linecap="round"/>
<text x="125" y="100" fill="#ffd60a" font-size="2" font-family="monospace" text-anchor="end" dominant-baseline="middle">Pin_3a</text>
<line x1="150" y1="120" x2="130" y2="120" stroke="#ffd60a" stroke-width="1.5" stroke-linecap="round"/>
<text x="125" y="120" fill="#ffd60a" font-size="2" font-family="monospace" text-anchor="end" dominant-baseline="middle">Pin_4a</text>
<line x1="150" y1="140" x2="130" y2="140" stroke="#ffd60a" stroke-width="1.5" stroke-linecap="round"/>
<text x="125" y="140" fill="#ffd60a" font-size="2" font-family="monospace" text-anchor="end" dominant-baseline="middle">Pin_5a</text>
<line x1="150" y1="160" x2="130" y2="160" stroke="#ffd60a" stroke-width="1.5" stroke-linecap="round"/>
<text x="125" y="160" fill="#ffd60a" font-size="2" font-family="monospace" text-anchor="end" dominant-baseline="middle">Pin_6a</text>
<line x1="150" y1="180" x2="130" y2="180" stroke="#ffd60a" stroke-width="1.5" stroke-linecap="round"/>
<text x="125" y="180" fill="#ffd60a" font-size="2" font-family="monospace" text-anchor="end" dominant-baseline="middle">Pin_7a</text>
<line x1="150" y1="200" x2="130" y2="200" stroke="#ffd60a" stroke-width="1.5" stroke-linecap="round"/>
<text x="125" y="200" fill="#ffd60a" font-size="2" font-family="monospace" text-anchor="end" dominant-baseline="middle">Pin_8a</text>
<line x1="150" y1="220" x2="130" y2="220" stroke="#ffd60a" stroke-width="1.5" stroke-linecap="round"/>
<text x="125" y="220" fill="#ffd60a" font-size="2" font-family="monospace" text-anchor="end" dominant-baseline="middle">Pin_9a</text>
<line x1="150" y1="240" x2="130" y2="240" stroke="#ffd60a" stroke-width="1.5" stroke-linecap="round"/>
<text x="125" y="240" fill="#ffd60a" font-size="2" font-family="monospace" text-anchor="end" dominant-baseline="middle">Pin_10a</text>
<line x1="150" y1="260" x2="130" y2="260" stroke="#ffd60a" stroke-width="1.5" stroke-linecap="round"/>
<text x="125" y="260" fill="#ffd60a" font-size="2" font-family="monospace" text-anchor="end" dominant-baseline="middle">Pin_11a</text>
<line x1="150" y1="280" x2="130" y2="280" stroke="#ffd60a" stroke-width="1.5" stroke-linecap="round"/>
<text x="125" y="280" fill="#ffd60a" font-size="2" font-family="monospace" text-anchor="end" dominant-baseline="middle">Pin_12a</text>
<line x1="150" y1="300" x2="130" y2="300" stroke="#ffd60a" stroke-width="1.5" stroke-linecap="round"/>
<text x="125" y="300" fill="#ffd60a" font-size="2" font-family="monospace" text-anchor="end" dominant-baseline="middle">Pin_13a</text>
<line x1="150" y1="320" x2="130" y2="320" stroke="#ffd60a" stroke-width="1.5" stroke-linecap="round"/>
<text x="125" y="320" fill="#ffd60a" font-size="2" font-family="monospace" text-anchor="end" dominant-baseline="middle">Pin_14a</text>
<line x1="150" y1="340" x2="130" y2="340" stroke="#ffd60a" stroke-width="1.5" stroke-linecap="round"/>
<text x="125" y="340" fill="#ffd60a" font-size="2" font-family="monospace" text-anchor="end" dominant-baseline="middle">Pin_15a</text>
<line x1="150" y1="360" x2="130" y2="360" stroke="#ffd60a" stroke-width="1.5" stroke-linecap="round"/>
<text x="125" y="360" fill="#ffd60a" font-size="2" font-family="monospace" text-anchor="end" dominant-baseline="middle">Pin_16a</text>
<line x1="150" y1="380" x2="130" y2="380" stroke="#ffd60a" stroke-width="1.5" stroke-linecap="round"/>
<text x="125" y="380" fill="#ffd60a" font-size="2" font-family="monospace" text-anchor="end" dominant-baseline="middle">Pin_17a</text>
<line x1="150" y1="400" x2="130" y2="400" stroke="#ffd60a" stroke-width="1.5" stroke-linecap="round"/>
<text x="125" y="400" fill="#ffd60a" font-size="2" font-family="monospace" text-anchor="end" dominant-baseline="middle">Pin_18a</text>
<line x1="150" y1="420" x2="130" y2="420" stroke="#ffd60a" stroke-width="1.5" stroke-linecap="round"/>
<text x="125" y="420" fill="#ffd60a" font-size="2" font-family="monospace" text-anchor="end" dominant-baseline="middle">Pin_19a</text>
<line x1="150" y1="440" x2="130" y2="440" stroke="#ffd60a" stroke-width="1.5" stroke-linecap="round"/>
<text x="125" y="440" fill="#ffd60a" font-size="2" font-family="monospace" text-anchor="end" dominant-baseline="middle">Pin_20a</text>
<line x1="150" y1="460" x2="130" y2="460" stroke="#ffd60a" stroke-width="1.5" stroke-linecap="round"/>
<text x="125" y="460" fill="#ffd60a" font-size="2" font-family="monospace" text-anchor="end" dominant-baseline="middle">Pin_21a</text>
<line x1="150" y1="480" x2="130" y2="480" stroke="#ffd60a" stroke-width="1.5" stroke-linecap="round"/>
<text x="125" y="480" fill="#ffd60a" font-size="2" font-family="monospace" text-anchor="end" dominant-baseline="middle">Pin_22a</text>
<line x1="150" y1="500" x2="130" y2="500" stroke="#ffd60a" stroke-width="1.5" stroke-linecap="round"/>
<text x="125" y="500" fill="#ffd60a" font-size="2" font-family="monospace" text-anchor="end" dominant-baseline="middle">Pin_23a</text>
<line x1="150" y1="520" x2="130" y2="520" stroke="#ffd60a" stroke-width="1.5" stroke-linecap="round"/>
<text x="125" y="520" fill="#ffd60a" font-size="2" font-family="monospace" text-anchor="end" dominant-baseline="middle">Pin_24a</text>
<line x1="150" y1="540" x2="130" y2="540" stroke="#ffd60a" stroke-width="1.5" stroke-linecap="round"/>
<text x="125" y="540" fill="#ffd60a" font-size="2" font-family="monospace" text-anchor="end" dominant-baseline="middle">Pin_25a</text>
<line x1="150" y1="560" x2="130" y2="560" stroke="#ffd60a" stroke-width="1.5" stroke-linecap="round"/>
<text x="125" y="560" fill="#ffd60a" font-size="2" font-family="monospace" text-anchor="end" dominant-baseline="middle">Pin_26a</text>
<line x1="150" y1="580" x2="130" y2="580" stroke="#ffd60a" stroke-width="1.5" stroke-linecap="round"/>
<text x="125" y="580" fill="#ffd60a" font-size="2" font-family="monospace" text-anchor="end" dominant-baseline="middle">Pin_27a</text>
<line x1="150" y1="600" x2="130" y2="600" stroke="#ffd60a" stroke-width="1.5" stroke-linecap="round"/>
<text x="125" y="600" fill="#ffd60a" font-size="2" font-family="monospace" text-anchor="end" dominant-baseline="middle">Pin_28a</text>
<line x1="150" y1="620" x2="130" y2="620" stroke="#ffd60a" stroke-width="1.5" stroke-linecap="round"/>
<text x="125" y="620" fill="#ffd60a" font-size="2" font-family="monospace" text-anchor="end" dominant-baseline="middle">Pin_29a</text>
<line x1="150" y1="640" x2="130" y2="640" stroke="#ffd60a" stroke-width="1.5" stroke-linecap="round"/>
<text x="125" y="640" fill="#ffd60a" font-size="2" font-family="monospace" text-anchor="end" dominant-baseline="middle">Pin_30a</text>
<line x1="150" y1="660" x2="130" y2="660" stroke="#ffd60a" stroke-width="1.5" stroke-linecap="round"/>
<text x="125" y="660" fill="#ffd60a" font-size="2" font-family="monospace" text-anchor="end" dominant-baseline="middle">Pin_31a</text>
<line x1="150" y1="680" x2="130" y2="680" stroke="#ffd60a" stroke-width="1.5" stroke-linecap="round"/>
<text x="125" y="680" fill="#ffd60a" font-size="2" font-family="monospace" text-anchor="end" dominant-baseline="middle">Pin_32a</text>
<line x1="150" y1="700" x2="130" y2="700" stroke="#ffd60a" stroke-width="1.5" stroke-linecap="round"/>
<text x="125" y="700" fill="#ffd60a" font-size="2" font-family="monospace" text-anchor="end" dominant-baseline="middle">Pin_33a</text>
<line x1="150" y1="720" x2="130" y2="720" stroke="#ffd60a" stroke-width="1.5" stroke-linecap="round"/>
<text x="125" y="720" fill="#ffd60a" font-size="2" font-family="monospace" text-anchor="end" dominant-baseline="middle">Pin_34a</text>
<line x1="150" y1="740" x2="130" y2="740" stroke="#ffd60a" stroke-width="1.5" stroke-linecap="round"/>
<text x="125" y="740" fill="#ffd60a" font-size="2" font-family="monospace" text-anchor="end" dominant-baseline="middle">Pin_35a</text>
<line x1="150" y1="760" x2="130" y2="760" stroke="#ffd60a" stroke-width="1.5" stroke-linecap="round"/>
<text x="125" y="760" fill="#ffd60a" font-size="2" font-family="monospace" text-anchor="end" dominant-baseline="middle">Pin_36a</text>
<line x1="150" y1="780" x2="130" y2="780" stroke="#ffd60a" stroke-width="1.5" stroke-linecap="round"/>
<text x="125" y="780" fill="#ffd60a" font-size="2" font-family="monospace" text-anchor="end" dominant-baseline="middle">Pin_37a</text>
<line x1="150" y1="800" x2="130" y2="800" stroke="#ffd60a" stroke-width="1.5" stroke-linecap="round"/>
<text x="125" y="800" fill="#ffd60a" font-size="2" font-family="monospace" text-anchor="end" dominant-baseline="middle">Pin_38a</text>
<line x1="150" y1="820" x2="130" y2="820" stroke="#ffd60a" stroke-width="1.5" stroke-linecap="round"/>
<text x="125" y="820" fill="#ffd60a" font-size="2" font-family="monospace" text-anchor="end" dominant-baseline="middle">Pin_39a</text>
<line x1="150" y1="840" x2="130" y2="840" stroke="#ffd60a" stroke-width="1.5" stroke-linecap="round"/>
<text x="125" y="840" fill="#ffd60a" font-size="2" font-family="monospace" text-anchor="end" dominant-baseline="middle">Pin_40a</text>
<line x1="150" y1="860" x2="130" y2="860" stroke="#ffd60a" stroke-width="1.5" stroke-linecap="round"/>
<text x="125" y="860" fill="#ffd60a" font-size="2" font-family="monospace" text-anchor="end" dominant-baseline="middle">Pin_41a</text>
<line x1="150" y1="880" x2="130" y2="880" stroke="#ffd60a" stroke-width="1.5" stroke-linecap="round"/>
<text x="125" y="880" fill="#ffd60a" font-size="2" font-family="monospace" text-anchor="end" dominant-baseline="middle">Pin_42a</text>
<line x1="150" y1="900" x2="130" y2="900" stroke="#ffd60a" stroke-width="1.5" stroke-linecap="round"/>
<text x="125" y="900" fill="#ffd60a" font-size="2" font-family="monospace" text-anchor="end" dominant-baseline="middle">Pin_43a</text>
<line x1="150" y1="920" x2="130" y2="920" stroke="#ffd60a" stroke-width="1.5" stroke-linecap="round"/>
<text x="125" y="920" fill="#ffd60a" font-size="2" font-family="monospace" text-anchor="end" dominant-baseline="middle">Pin_44a</text>
<line x1="150" y1="940" x2="130" y2="940" stroke="#ffd60a" stroke-width="1.5" stroke-linecap="round"/>
<text x="125" y="940" fill="#ffd60a" font-size="2" font-family="monospace" text-anchor="end" dominant-baseline="middle">Pin_45a</text>
<line x1="150" y1="960" x2="130" y2="960" stroke="#ffd60a" stroke-width="1.5" stroke-linecap="round"/>
<text x="125" y="960" fill="#ffd60a" font-size="2" font-family="monospace" text-anchor="end" dominant-baseline="middle">Pin_46a</text>
<line x1="150" y1="980" x2="130" y2="980" stroke="#ffd60a" stroke-width="1.5" stroke-linecap="round"/>
<text x="125" y="980" fill="#ffd60a" font-size="2" font-family="monospace" text-anchor="end" dominant-baseline="middle">Pin_47a</text>
<line x1="150" y1="1000" x2="130" y2="1000" stroke="#ffd60a" stroke-width="1.5" stroke-linecap="round"/>
<text x="125" y="1000" fill="#ffd60a" font-size="2" font-family="monospace" text-anchor="end" dominant-baseline="middle">Pin_48a</text>
<line x1="150" y1="1020" x2="130" y2="1020" stroke="#ffd60a" stroke-width="1.5" stroke-linecap="round"/>
<text x="125" y="1020" fill="#ffd60a" font-size="2" font-family="monospace" text-anchor="end" dominant-baseline="middle">Pin_49a</text>
<line x1="150" y1="1040" x2="130" y2="1040" stroke="#ffd60a" stroke-width="1.5" stroke-linecap="round"/>
<text x="125" y="1040" fill="#ffd60a" font-size="2" font-family="monospace" text-anchor="end" dominant-baseline="middle">Pin_50a</text>
<line x1="150" y1="1060" x2="130" y2="1060" stroke="#ffd60a" stroke-width="1.5" stroke-linecap="round"/>
<text x="125" y="1060" fill="#ffd60a" font-size="2" font-family="monospace" text-anchor="end" dominant-baseline="middle">Pin_51a</text>
<line x1="150" y1="1080" x2="130" y2="1080" stroke="#ffd60a" stroke-width="1.5" stroke-linecap="round"/>
<text x="125" y="1080" fill="#ffd60a" font-size="2" font-family="monospace" text-anchor="end" dominant-baseline="middle">Pin_52a</text>
</svg>