<svg xmlns="http://www.w3.org/2000/svg" viewBox="0 0 180 1300">
<rect x="50" y="50" width="80" height="1200" stroke="#ffffff" stroke-width="1.5" fill="rgba(255,255,255,0.04)"/>
<text x="90" y="650" fill="#888" font-size="3" font-family="monospace" text-anchor="middle" dominant-baseline="middle">J</text>
<line x1="150" y1="60" x2="130" y2="60" stroke="#ffd60a" stroke-width="1.5" stroke-linecap="round"/>
<text x="125" y="60" fill="#ffd60a" font-size="2" font-family="monospace" text-anchor="end" dominant-baseline="middle">1A</text>
<line x1="150" y1="80" x2="130" y2="80" stroke="#ffd60a" stroke-width="1.5" stroke-linecap="round"/>
<text x="125" y="80" fill="#ffd60a" font-size="2" font-family="monospace" text-anchor="end" dominant-baseline="middle">2A</text>
<line x1="150" y1="100" x2="130" y2="100" stroke="#ffd60a" stroke-width="1.5" stroke-linecap="round"/>
<text x="125" y="100" fill="#ffd60a" font-size="2" font-family="monospace" text-anchor="end" dominant-baseline="middle">3A</text>
<line x1="150" y1="120" x2="130" y2="120" stroke="#ffd60a" stroke-width="1.5" stroke-linecap="round"/>
<text x="125" y="120" fill="#ffd60a" font-size="2" font-family="monospace" text-anchor="end" dominant-baseline="middle">4A</text>
<line x1="150" y1="140" x2="130" y2="140" stroke="#ffd60a" stroke-width="1.5" stroke-linecap="round"/>
<text x="125" y="140" fill="#ffd60a" font-size="2" font-family="monospace" text-anchor="end" dominant-baseline="middle">5A</text>
<line x1="150" y1="160" x2="130" y2="160" stroke="#ffd60a" stroke-width="1.5" stroke-linecap="round"/>
<text x="125" y="160" fill="#ffd60a" font-size="2" font-family="monospace" text-anchor="end" dominant-baseline="middle">6A</text>
<line x1="150" y1="180" x2="130" y2="180" stroke="#ffd60a" stroke-width="1.5" stroke-linecap="round"/>
<text x="125" y="180" fill="#ffd60a" font-size="2" font-family="monospace" text-anchor="end" dominant-baseline="middle">7A</text>
<line x1="150" y1="200" x2="130" y2="200" stroke="#ffd60a" stroke-width="1.5" stroke-linecap="round"/>
<text x="125" y="200" fill="#ffd60a" font-size="2" font-family="monospace" text-anchor="end" dominant-baseline="middle">8A</text>
<line x1="150" y1="220" x2="130" y2="220" stroke="#ffd60a" stroke-width="1.5" stroke-linecap="round"/>
<text x="125" y="220" fill="#ffd60a" font-size="2" font-family="monospace" text-anchor="end" dominant-baseline="middle">9A</text>
<line x1="150" y1="240" x2="130" y2="240" stroke="#ffd60a" stroke-width="1.5" stroke-linecap="round"/>
<text x="125" y="240" fill="#ffd60a" font-size="2" font-family="monospace" text-anchor="end" dominant-baseline="middle">10A</text>
<line x1="150" y1="260" x2="130" y2="260" stroke="#ffd60a" stroke-width="1.5" stroke-linecap="round"/>
<text x="125" y="260" fill="#ffd60a" font-size="2" font-family="monospace" text-anchor="end" dominant-baseline="middle">11A</text>
<line x1="150" y1="280" x2="130" y2="280" stroke="#ffd60a" stroke-width="1.5" stroke-linecap="round"/>
<text x="125" y="280" fill="#ffd60a" font-size="2" font-family="monospace" text-anchor="end" dominant-baseline="middle">12A</text>
<line x1="150" y1="300" x2="130" y2="300" stroke="#ffd60a" stroke-width="1.5" stroke-linecap="round"/>
<text x="125" y="300" fill="#ffd60a" font-size="2" font-family="monospace" text-anchor="end" dominant-baseline="middle">13A</text>
<line x1="150" y1="320" x2="130" y2="320" stroke="#ffd60a" stroke-width="1.5" stroke-linecap="round"/>
<text x="125" y="320" fill="#ffd60a" font-size="2" font-family="monospace" text-anchor="end" dominant-baseline="middle">14A</text>
<line x1="150" y1="340" x2="130" y2="340" stroke="#ffd60a" stroke-width="1.5" stroke-linecap="round"/>
<text x="125" y="340" fill="#ffd60a" font-size="2" font-family="monospace" text-anchor="end" dominant-baseline="middle">15A</text>
<line x1="150" y1="360.00000000000006" x2="130" y2="360.00000000000006" stroke="#ffd60a" stroke-width="1.5" stroke-linecap="round"/>
<text x="125" y="360.00000000000006" fill="#ffd60a" font-size="2" font-family="monospace" text-anchor="end" dominant-baseline="middle">1B</text>
<line x1="150" y1="380" x2="130" y2="380" stroke="#ffd60a" stroke-width="1.5" stroke-linecap="round"/>
<text x="125" y="380" fill="#ffd60a" font-size="2" font-family="monospace" text-anchor="end" dominant-baseline="middle">2B</text>
<line x1="150" y1="400" x2="130" y2="400" stroke="#ffd60a" stroke-width="1.5" stroke-linecap="round"/>
<text x="125" y="400" fill="#ffd60a" font-size="2" font-family="monospace" text-anchor="end" dominant-baseline="middle">3B</text>
<line x1="150" y1="420" x2="130" y2="420" stroke="#ffd60a" stroke-width="1.5" stroke-linecap="round"/>
<text x="125" y="420" fill="#ffd60a" font-size="2" font-family="monospace" text-anchor="end" dominant-baseline="middle">4B</text>
<line x1="150" y1="440" x2="130" y2="440" stroke="#ffd60a" stroke-width="1.5" stroke-linecap="round"/>
<text x="125" y="440" fill="#ffd60a" font-size="2" font-family="monospace" text-anchor="end" dominant-baseline="middle">5B</text>
<line x1="150" y1="460" x2="130" y2="460" stroke="#ffd60a" stroke-width="1.5" stroke-linecap="round"/>
<text x="125" y="460" fill="#ffd60a" font-size="2" font-family="monospace" text-anchor="end" dominant-baseline="middle">6B</text>
<line x1="150" y1="480" x2="130" y2="480" stroke="#ffd60a" stroke-width="1.5" stroke-linecap="round"/>
<text x="125" y="480" fill="#ffd60a" font-size="2" font-family="monospace" text-anchor="end" dominant-baseline="middle">7B</text>
<line x1="150" y1="500" x2="130" y2="500" stroke="#ffd60a" stroke-width="1.5" stroke-linecap="round"/>
<text x="125" y="500" fill="#ffd60a" font-size="2" font-family="monospace" text-anchor="end" dominant-baseline="middle">8B</text>
<line x1="150" y1="520" x2="130" y2="520" stroke="#ffd60a" stroke-width="1.5" stroke-linecap="round"/>
<text x="125" y="520" fill="#ffd60a" font-size="2" font-family="monospace" text-anchor="end" dominant-baseline="middle">9B</text>
<line x1="150" y1="540" x2="130" y2="540" stroke="#ffd60a" stroke-width="1.5" stroke-linecap="round"/>
<text x="125" y="540" fill="#ffd60a" font-size="2" font-family="monospace" text-anchor="end" dominant-baseline="middle">10B</text>
<line x1="150" y1="560" x2="130" y2="560" stroke="#ffd60a" stroke-width="1.5" stroke-linecap="round"/>
<text x="125" y="560" fill="#ffd60a" font-size="2" font-family="monospace" text-anchor="end" dominant-baseline="middle">11B</text>
<line x1="150" y1="580" x2="130" y2="580" stroke="#ffd60a" stroke-width="1.5" stroke-linecap="round"/>
<text x="125" y="580" fill="#ffd60a" font-size="2" font-family="monospace" text-anchor="end" dominant-baseline="middle">12B</text>
<line x1="150" y1="600" x2="130" y2="600" stroke="#ffd60a" stroke-width="1.5" stroke-linecap="round"/>
<text x="125" y="600" fill="#ffd60a" font-size="2" font-family="monospace" text-anchor="end" dominant-baseline="middle">13B</text>
<line x1="150" y1="620" x2="130" y2="620" stroke="#ffd60a" stroke-width="1.5" stroke-linecap="round"/>
<text x="125" y="620" fill="#ffd60a" font-size="2" font-family="monospace" text-anchor="end" dominant-baseline="middle">14B</text>
<line x1="150" y1="640" x2="130" y2="640" stroke="#ffd60a" stroke-width="1.5" stroke-linecap="round"/>
<text x="125" y="640" fill="#ffd60a" font-size="2" font-family="monospace" text-anchor="end" dominant-baseline="middle">15B</text>
<line x1="150" y1="660" x2="130" y2="660" stroke="#ffd60a" stroke-width="1.5" stroke-linecap="round"/>
<text x="125" y="660" fill="#ffd60a" font-size="2" font-family="monospace" text-anchor="end" dominant-baseline="middle">1C</text>
<line x1="150" y1="680" x2="130" y2="680" stroke="#ffd60a" stroke-width="1.5" stroke-linecap="round"/>
<text x="125" y="680" fill="#ffd60a" font-size="2" font-family="monospace" text-anchor="end" dominant-baseline="middle">2C</text>
<line x1="150" y1="700" x2="130" y2="700" stroke="#ffd60a" stroke-width="1.5" stroke-linecap="round"/>
<text x="125" y="700" fill="#ffd60a" font-size="2" font-family="monospace" text-anchor="end" dominant-baseline="middle">3C</text>
<line x1="150" y1="720" x2="130" y2="720" stroke="#ffd60a" stroke-width="1.5" stroke-linecap="round"/>
<text x="125" y="720" fill="#ffd60a" font-size="2" font-family="monospace" text-anchor="end" dominant-baseline="middle">4C</text>
<line x1="150" y1="740" x2="130" y2="740" stroke="#ffd60a" stroke-width="1.5" stroke-linecap="round"/>
<text x="125" y="740" fill="#ffd60a" font-size="2" font-family="monospace" text-anchor="end" dominant-baseline="middle">5C</text>
<line x1="150" y1="760" x2="130" y2="760" stroke="#ffd60a" stroke-width="1.5" stroke-linecap="round"/>
<text x="125" y="760" fill="#ffd60a" font-size="2" font-family="monospace" text-anchor="end" dominant-baseline="middle">6C</text>
<line x1="150" y1="779.9999999999999" x2="130" y2="779.9999999999999" stroke="#ffd60a" stroke-width="1.5" stroke-linecap="round"/>
<text x="125" y="779.9999999999999" fill="#ffd60a" font-size="2" font-family="monospace" text-anchor="end" dominant-baseline="middle">7C</text>
<line x1="150" y1="800" x2="130" y2="800" stroke="#ffd60a" stroke-width="1.5" stroke-linecap="round"/>
<text x="125" y="800" fill="#ffd60a" font-size="2" font-family="monospace" text-anchor="end" dominant-baseline="middle">8C</text>
<line x1="150" y1="820.0000000000001" x2="130" y2="820.0000000000001" stroke="#ffd60a" stroke-width="1.5" stroke-linecap="round"/>
<text x="125" y="820.0000000000001" fill="#ffd60a" font-size="2" font-family="monospace" text-anchor="end" dominant-baseline="middle">9C</text>
<line x1="150" y1="840" x2="130" y2="840" stroke="#ffd60a" stroke-width="1.5" stroke-linecap="round"/>
<text x="125" y="840" fill="#ffd60a" font-size="2" font-family="monospace" text-anchor="end" dominant-baseline="middle">10C</text>
<line x1="150" y1="860" x2="130" y2="860" stroke="#ffd60a" stroke-width="1.5" stroke-linecap="round"/>
<text x="125" y="860" fill="#ffd60a" font-size="2" font-family="monospace" text-anchor="end" dominant-baseline="middle">11C</text>
<line x1="150" y1="880" x2="130" y2="880" stroke="#ffd60a" stroke-width="1.5" stroke-linecap="round"/>
<text x="125" y="880" fill="#ffd60a" font-size="2" font-family="monospace" text-anchor="end" dominant-baseline="middle">12C</text>
<line x1="150" y1="900" x2="130" y2="900" stroke="#ffd60a" stroke-width="1.5" stroke-linecap="round"/>
<text x="125" y="900" fill="#ffd60a" font-size="2" font-family="monospace" text-anchor="end" dominant-baseline="middle">13C</text>
<line x1="150" y1="920" x2="130" y2="920" stroke="#ffd60a" stroke-width="1.5" stroke-linecap="round"/>
<text x="125" y="920" fill="#ffd60a" font-size="2" font-family="monospace" text-anchor="end" dominant-baseline="middle">14C</text>
<line x1="150" y1="940" x2="130" y2="940" stroke="#ffd60a" stroke-width="1.5" stroke-linecap="round"/>
<text x="125" y="940" fill="#ffd60a" font-size="2" font-family="monospace" text-anchor="end" dominant-baseline="middle">15C</text>
<line x1="150" y1="960" x2="130" y2="960" stroke="#ffd60a" stroke-width="1.5" stroke-linecap="round"/>
<text x="125" y="960" fill="#ffd60a" font-size="2" font-family="monospace" text-anchor="end" dominant-baseline="middle">1D</text>
<line x1="150" y1="980" x2="130" y2="980" stroke="#ffd60a" stroke-width="1.5" stroke-linecap="round"/>
<text x="125" y="980" fill="#ffd60a" font-size="2" font-family="monospace" text-anchor="end" dominant-baseline="middle">2D</text>
<line x1="150" y1="1000" x2="130" y2="1000" stroke="#ffd60a" stroke-width="1.5" stroke-linecap="round"/>
<text x="125" y="1000" fill="#ffd60a" font-size="2" font-family="monospace" text-anchor="end" dominant-baseline="middle">3D</text>
<line x1="150" y1="1020" x2="130" y2="1020" stroke="#ffd60a" stroke-width="1.5" stroke-linecap="round"/>
<text x="125" y="1020" fill="#ffd60a" font-size="2" font-family="monospace" text-anchor="end" dominant-baseline="middle">4D</text>
<line x1="150" y1="1040" x2="130" y2="1040" stroke="#ffd60a" stroke-width="1.5" stroke-linecap="round"/>
<text x="125" y="1040" fill="#ffd60a" font-size="2" font-family="monospace" text-anchor="end" dominant-baseline="middle">5D</text>
<line x1="150" y1="1060" x2="130" y2="1060" stroke="#ffd60a" stroke-width="1.5" stroke-linecap="round"/>
<text x="125" y="1060" fill="#ffd60a" font-size="2" font-family="monospace" text-anchor="end" dominant-baseline="middle">6D</text>
<line x1="150" y1="1080" x2="130" y2="1080" stroke="#ffd60a" stroke-width="1.5" stroke-linecap="round"/>
<text x="125" y="1080" fill="#ffd60a" font-size="2" font-family="monospace" text-anchor="end" dominant-baseline="middle">7D</text>
<line x1="150" y1="1100" x2="130" y2="1100" stroke="#ffd60a" stroke-width="1.5" stroke-linecap="round"/>
<text x="125" y="1100" fill="#ffd60a" font-size="2" font-family="monospace" text-anchor="end" dominant-baseline="middle">8D</text>
<line x1="150" y1="1120" x2="130" y2="1120" stroke="#ffd60a" stroke-width="1.5" stroke-linecap="round"/>
<text x="125" y="1120" fill="#ffd60a" font-size="2" font-family="monospace" text-anchor="end" dominant-baseline="middle">9D</text>
<line x1="150" y1="1140" x2="130" y2="1140" stroke="#ffd60a" stroke-width="1.5" stroke-linecap="round"/>
<text x="125" y="1140" fill="#ffd60a" font-size="2" font-family="monospace" text-anchor="end" dominant-baseline="middle">10D</text>
<line x1="150" y1="1160" x2="130" y2="1160" stroke="#ffd60a" stroke-width="1.5" stroke-linecap="round"/>
<text x="125" y="1160" fill="#ffd60a" font-size="2" font-family="monospace" text-anchor="end" dominant-baseline="middle">11D</text>
<line x1="150" y1="1180" x2="130" y2="1180" stroke="#ffd60a" stroke-width="1.5" stroke-linecap="round"/>
<text x="125" y="1180" fill="#ffd60a" font-size="2" font-family="monospace" text-anchor="end" dominant-baseline="middle">12D</text>
<line x1="150" y1="1200" x2="130" y2="1200" stroke="#ffd60a" stroke-width="1.5" stroke-linecap="round"/>
<text x="125" y="1200" fill="#ffd60a" font-size="2" font-family="monospace" text-anchor="end" dominant-baseline="middle">13D</text>
<line x1="150" y1="1220" x2="130" y2="1220" stroke="#ffd60a" stroke-width="1.5" stroke-linecap="round"/>
<text x="125" y="1220" fill="#ffd60a" font-size="2" font-family="monospace" text-anchor="end" dominant-baseline="middle">14D</text>
<line x1="150" y1="1240" x2="130" y2="1240" stroke="#ffd60a" stroke-width="1.5" stroke-linecap="round"/>
<text x="125" y="1240" fill="#ffd60a" font-size="2" font-family="monospace" text-anchor="end" dominant-baseline="middle">15D</text>
</svg>