<svg xmlns="http://www.w3.org/2000/svg" viewBox="0 0 15.564 24.509999999999998">
<rect x="7.8100000000000005" y="16.7" width="2.54" height="12.7" stroke="#ffffff" stroke-width="0.3" fill="none"/>
<rect x="8.064" y="16.445999999999998" width="2.032" height="12.192" stroke="#ffffff" stroke-width="0.3" fill="rgba(255,255,255,0.06)"/>
<rect x="8.064" y="5.396999999999999" width="1.27" height="0.25399999999999956" stroke="#ffffff" stroke-width="0.3" fill="none"/>
<rect x="8.064" y="7.936999999999999" width="1.27" height="0.254" stroke="#ffffff" stroke-width="0.3" fill="none"/>
<rect x="8.064" y="10.477" width="1.27" height="0.254" stroke="#ffffff" stroke-width="0.3" fill="none"/>
<rect x="8.064" y="13.017" width="1.27" height="0.254" stroke="#ffffff" stroke-width="0.3" fill="none"/>
<rect x="8.064" y="15.556999999999999" width="1.27" height="0.25399999999999956" stroke="#ffffff" stroke-width="0.3" fill="none"/>
<line x1="4" y1="5.27" x2="8.064" y2="5.27" stroke="#ffd60a" stroke-width="0.3501428571428571" stroke-linecap="round"/>
<text x="11.064" y="5.27" fill="#ffd60a" font-size="1" font-family="monospace" text-anchor="start" dominant-baseline="middle">Pin_1</text>
<line x1="4" y1="7.81" x2="8.064" y2="7.81" stroke="#ffd60a" stroke-width="0.3501428571428571" stroke-linecap="round"/>
<text x="11.064" y="7.81" fill="#ffd60a" font-size="1" font-family="monospace" text-anchor="start" dominant-baseline="middle">Pin_2</text>
<line x1="4" y1="10.35" x2="8.064" y2="10.35" stroke="#ffd60a" stroke-width="0.3501428571428571" stroke-linecap="round"/>
<text x="11.064" y="10.35" fill="#ffd60a" font-size="1" font-family="monospace" text-anchor="start" dominant-baseline="middle">Pin_3</text>
<line x1="4" y1="12.89" x2="8.064" y2="12.89" stroke="#ffd60a" stroke-width="0.3501428571428571" stroke-linecap="round"/>
<text x="11.064" y="12.89" fill="#ffd60a" font-size="1" font-family="monospace" text-anchor="start" dominant-baseline="middle">Pin_4</text>
<line x1="4" y1="15.43" x2="8.064" y2="15.43" stroke="#ffd60a" stroke-width="0.3501428571428571" stroke-linecap="round"/>
<text x="11.064" y="15.43" fill="#ffd60a" font-size="1" font-family="monospace" text-anchor="start" dominant-baseline="middle">Pin_5</text>
<line x1="9.08" y1="20.509999999999998" x2="9.08" y2="16.7" stroke="#ffd60a" stroke-width="0.3501428571428571" stroke-linecap="round"/>
<text x="9.08" y="13.7" fill="#ffd60a" font-size="1" font-family="monospace" text-anchor="middle" dominant-baseline="middle">Shield</text>
</svg>