<svg xmlns="http://www.w3.org/2000/svg" viewBox="0 0 23.240000000000002 15.620000000000001">
<rect x="6.540000000000001" y="11.620000000000001" width="10.16" height="7.62" stroke="#ffffff" stroke-width="0.3" fill="rgba(255,255,255,0.06)"/>
<polyline points="6.540000000000001,5.2700000000000005 8.445,5.2700000000000005 8.445,10.350000000000001 6.540000000000001,10.350000000000001" stroke="#ffffff" stroke-width="0.3" stroke-linejoin="round" stroke-linecap="round" fill="none"/>
<line x1="7.8100000000000005" y1="8.445" x2="9.080000000000002" y2="8.445" stroke="#ffffff" stroke-width="0.3" stroke-linecap="round" fill="none"/>
<polyline points="8.445,8.445 7.8100000000000005,7.175000000000001 9.080000000000002,7.175000000000001 8.445,8.445" stroke="#ffffff" stroke-width="0.3" stroke-linejoin="round" stroke-linecap="round" fill="none"/>
<polyline points="9.715000000000002,7.3020000000000005 10.985000000000001,7.3020000000000005 10.604000000000001,7.429 10.604000000000001,7.175000000000001 10.985000000000001,7.3020000000000005" stroke="#ffffff" stroke-width="0.3" stroke-linejoin="round" stroke-linecap="round" fill="none"/>
<polyline points="9.715000000000002,8.318000000000001 10.985000000000001,8.318000000000001 10.604000000000001,8.445 10.604000000000001,8.191 10.985000000000001,8.318000000000001" stroke="#ffffff" stroke-width="0.3" stroke-linejoin="round" stroke-linecap="round" fill="none"/>
<line x1="12.636000000000001" y1="7.048" x2="12.636000000000001" y2="8.572000000000001" stroke="#ffffff" stroke-width="0.3" stroke-linecap="round" fill="none"/>
<polyline points="13.144000000000002,7.048 14.414000000000001,7.048 14.414000000000001,5.2700000000000005 16.700000000000003,5.2700000000000005" stroke="#ffffff" stroke-width="0.3" stroke-linejoin="round" stroke-linecap="round" fill="none"/>
<polyline points="13.144000000000002,7.8100000000000005 14.414000000000001,7.8100000000000005 14.414000000000001,10.350000000000001 16.700000000000003,10.350000000000001" stroke="#ffffff" stroke-width="0.3" stroke-linejoin="round" stroke-linecap="round" fill="none"/>
<line x1="13.144000000000002" y1="8.572000000000001" x2="14.414000000000001" y2="8.572000000000001" stroke="#ffffff" stroke-width="0.3" stroke-linecap="round" fill="none"/>
<polyline points="13.398000000000001,7.8100000000000005 13.906,7.683000000000001 13.906,7.937 13.398000000000001,7.8100000000000005" stroke="#ffffff" stroke-width="0.3" stroke-linejoin="round" stroke-linecap="round" fill="none"/>
<circle cx="14.414000000000001" cy="6.413" r="0.127" stroke="#ffffff" stroke-width="0.3" fill="none"/>
<circle cx="14.414000000000001" cy="8.572000000000001" r="0.127" stroke="#ffffff" stroke-width="0.3" fill="none"/>
<polyline points="14.414000000000001,9.207 15.430000000000001,9.207 15.430000000000001,6.413 14.414000000000001,6.413" stroke="#ffffff" stroke-width="0.3" stroke-linejoin="round" stroke-linecap="round" fill="none"/>
<circle cx="14.414000000000001" cy="9.207" r="0.127" stroke="#ffffff" stroke-width="0.3" fill="none"/>
<line x1="15.049000000000001" y1="7.429" x2="15.811" y2="7.429" stroke="#ffffff" stroke-width="0.3" stroke-linecap="round" fill="none"/>
<polyline points="15.430000000000001,7.429 15.049000000000001,8.191 15.811,8.191 15.430000000000001,7.429" stroke="#ffffff" stroke-width="0.3" stroke-linejoin="round" stroke-linecap="round" fill="none"/>
<line x1="13.144000000000002" y1="6.921" x2="13.144000000000002" y2="7.175000000000001" stroke="#ffffff" stroke-width="0.3302" stroke-linecap="round" fill="none"/>
<line x1="13.144000000000002" y1="7.683000000000001" x2="13.144000000000002" y2="7.937" stroke="#ffffff" stroke-width="0.3302" stroke-linecap="round" fill="none"/>
<line x1="13.144000000000002" y1="8.445" x2="13.144000000000002" y2="8.699" stroke="#ffffff" stroke-width="0.3302" stroke-linecap="round" fill="none"/>
<line x1="4.000000000000001" y1="5.2700000000000005" x2="6.540000000000001" y2="5.2700000000000005" stroke="#ffd60a" stroke-width="0.332" stroke-linecap="round"/>
<line x1="4.000000000000001" y1="10.350000000000001" x2="6.540000000000001" y2="10.350000000000001" stroke="#ffd60a" stroke-width="0.332" stroke-linecap="round"/>
<line x1="19.240000000000002" y1="10.350000000000001" x2="16.700000000000003" y2="10.35" stroke="#ffd60a" stroke-width="0.332" stroke-linecap="round"/>
<line x1="19.240000000000002" y1="5.2700000000000005" x2="16.700000000000003" y2="5.27" stroke="#ffd60a" stroke-width="0.332" stroke-linecap="round"/>
</svg>