<svg xmlns="http://www.w3.org/2000/svg" viewBox="0 0 26.240000000000002 23.240000000000002">
<line x1="7.000000000000001" y1="14.16" x2="7.812800000000001" y2="14.16" stroke="#ffffff" stroke-width="0.3" stroke-linecap="round" fill="none"/>
<rect x="7.000000000000001" y="19.240000000000002" width="15.24" height="15.24" stroke="#ffffff" stroke-width="0.3" fill="rgba(255,255,255,0.06)"/>
<polyline points="8.8796,9.5372 10.0226,9.5372 10.0226,13.702800000000002 8.8796,13.702800000000002" stroke="#ffffff" stroke-width="0.3" stroke-linejoin="round" stroke-linecap="round" fill="none"/>
<line x1="10.708400000000001" y1="16.2936" x2="18.5316" y2="16.2936" stroke="#ffffff" stroke-width="0.3" stroke-linecap="round" fill="none"/>
<circle cx="12.486400000000001" cy="10.4008" r="1.9812" stroke="#ffffff" stroke-width="0.3" fill="none"/>
<path d="M 10.708400000000001 16.2936 A 5.936113589650204 5.936113589650204 0 0 1 8.8796 13.702800000000002" stroke="#ffffff" stroke-width="0.3" fill="none"/>
<path d="M 20.360400000000002 13.702800000000002 A 6.2747598391958785 6.2747598391958785 0 0 1 18.5316 16.2936" stroke="#ffffff" stroke-width="0.3" fill="none"/>
<path d="M 8.8796 9.5372 A 6.106574162327034 6.106574162327034 0 0 1 12.5372 5.879600000000001" stroke="#ffffff" stroke-width="0.3" fill="none"/>
<circle cx="14.620000000000001" cy="11.620000000000001" r="7.2644" stroke="#ffffff" stroke-width="0.3" fill="none"/>
<path d="M 16.7028 5.879600000000001 A 6.106574162327034 6.106574162327034 0 0 1 20.360400000000002 9.5372" stroke="#ffffff" stroke-width="0.3" fill="none"/>
<polyline points="16.7028,5.879600000000001 16.7028,7.022600000000001 12.5372,7.022600000000001 12.5372,5.879600000000001" stroke="#ffffff" stroke-width="0.3" stroke-linejoin="round" stroke-linecap="round" fill="none"/>
<circle cx="16.753600000000002" cy="12.839200000000002" r="1.9812" stroke="#ffffff" stroke-width="0.3" fill="none"/>
<circle cx="17.668" cy="9.080000000000002" r="1.143" stroke="#ffffff" stroke-width="0.3" fill="none"/>
<polyline points="20.360400000000002,13.702800000000002 19.2174,13.702800000000002 19.2174,9.5372 20.360400000000002,9.5372" stroke="#ffffff" stroke-width="0.3" stroke-linejoin="round" stroke-linecap="round" fill="none"/>
<line x1="4.460000000000001" y1="6.540000000000001" x2="7.000000000000001" y2="6.540000000000001" stroke="#ffd60a" stroke-width="0.3748571428571429" stroke-linecap="round"/>
<text x="4" y="6.540000000000001" fill="#ffd60a" font-size="1" font-family="monospace" text-anchor="start" dominant-baseline="middle">1</text>
<line x1="4.460000000000001" y1="9.080000000000002" x2="7.000000000000001" y2="9.080000000000002" stroke="#ffd60a" stroke-width="0.3748571428571429" stroke-linecap="round"/>
<text x="4" y="9.080000000000002" fill="#ffd60a" font-size="1" font-family="monospace" text-anchor="start" dominant-baseline="middle">2</text>
<line x1="4.460000000000001" y1="11.620000000000001" x2="7.000000000000001" y2="11.620000000000001" stroke="#ffd60a" stroke-width="0.3748571428571429" stroke-linecap="round"/>
<text x="4" y="11.620000000000001" fill="#ffd60a" font-size="1" font-family="monospace" text-anchor="start" dominant-baseline="middle">3</text>
<line x1="4.460000000000001" y1="14.16" x2="7.000000000000001" y2="14.16" stroke="#ffd60a" stroke-width="0.3748571428571429" stroke-linecap="round"/>
<text x="4" y="14.16" fill="#ffd60a" font-size="1" font-family="monospace" text-anchor="start" dominant-baseline="middle">Shield</text>
<line x1="4.460000000000001" y1="16.700000000000003" x2="7.000000000000001" y2="16.700000000000003" stroke="#ffd60a" stroke-width="0.3748571428571429" stroke-linecap="round"/>
<text x="4" y="16.700000000000003" fill="#ffd60a" font-size="1" font-family="monospace" text-anchor="start" dominant-baseline="middle">Shield</text>
</svg>