<svg xmlns="http://www.w3.org/2000/svg" viewBox="0 0 19.08 15.620000000000001">
<circle cx="8.27" cy="7.8100000000000005" r="0.254" stroke="#ffffff" stroke-width="0.3" fill="#ffffff"/>
<line x1="8.27" y1="7.8100000000000005" x2="6.999999999999999" y2="7.8100000000000005" stroke="#ffffff" stroke-width="0.3" stroke-linecap="round" fill="none"/>
<polyline points="9.54,4 12.079999999999998,5.2700000000000005 9.54,6.540000000000001 9.54,4 9.54,4 9.54,4" stroke="#ffffff" stroke-width="0.3" stroke-linejoin="round" stroke-linecap="round" fill="none"/>
<polyline points="9.54,9.08 12.079999999999998,10.350000000000001 9.54,11.620000000000001 9.54,9.08 9.54,9.08 9.54,9.08" stroke="#ffffff" stroke-width="0.3" stroke-linejoin="round" stroke-linecap="round" fill="none"/>
<polyline points="12.079999999999998,5.2700000000000005 8.27,5.2700000000000005 8.27,10.350000000000001 12.079999999999998,10.350000000000001" stroke="#ffffff" stroke-width="0.3" stroke-linejoin="round" stroke-linecap="round" fill="none"/>
<polyline points="12.588,4.2540000000000004 12.588,4 12.079999999999998,4 12.079999999999998,6.540000000000001 11.572,6.540000000000001 11.572,6.2860000000000005" stroke="#ffffff" stroke-width="0.3" stroke-linejoin="round" stroke-linecap="round" fill="none"/>
<polyline points="12.588,9.334 12.588,9.08 12.079999999999998,9.08 12.079999999999998,11.620000000000001 11.572,11.620000000000001 11.572,11.366" stroke="#ffffff" stroke-width="0.3" stroke-linejoin="round" stroke-linecap="round" fill="none"/>
<line x1="14.62" y1="5.2700000000000005" x2="12.079999999999998" y2="5.27" stroke="#ffd60a" stroke-width="0.2725714285714285" stroke-linecap="round"/>
<text x="15.079999999999998" y="5.2700000000000005" fill="#ffd60a" font-size="1" font-family="monospace" text-anchor="end" dominant-baseline="middle">K</text>
<line x1="14.62" y1="10.350000000000001" x2="12.079999999999998" y2="10.35" stroke="#ffd60a" stroke-width="0.2725714285714285" stroke-linecap="round"/>
<text x="15.079999999999998" y="10.350000000000001" fill="#ffd60a" font-size="1" font-family="monospace" text-anchor="end" dominant-baseline="middle">K</text>
<line x1="4.459999999999999" y1="7.8100000000000005" x2="6.999999999999999" y2="7.8100000000000005" stroke="#ffd60a" stroke-width="0.2725714285714285" stroke-linecap="round"/>
<text x="3.999999999999999" y="7.8100000000000005" fill="#ffd60a" font-size="1" font-family="monospace" text-anchor="start" dominant-baseline="middle">A</text>
</svg>