<svg xmlns="http://www.w3.org/2000/svg" viewBox="0 0 23.240000000000002 14.81">
<polyline points="7.8100000000000005,6.539999999999999 7.8100000000000005,3.9999999999999996 8.318000000000001,3.9999999999999996" stroke="#ffffff" stroke-width="0.3" stroke-linejoin="round" stroke-linecap="round" fill="none"/>
<line x1="8.064" y1="5.27" x2="15.430000000000001" y2="5.27" stroke="#ffffff" stroke-width="0.3" stroke-linecap="round" fill="none"/>
<polyline points="10.350000000000001,6.539999999999999 7.8100000000000005,5.27 10.350000000000001,3.9999999999999996 10.350000000000001,6.539999999999999 10.350000000000001,6.539999999999999 10.350000000000001,6.539999999999999" stroke="#ffffff" stroke-width="0.3" stroke-linejoin="round" stroke-linecap="round" fill="none"/>
<line x1="11.620000000000001" y1="5.27" x2="11.620000000000001" y2="7.81" stroke="#ffffff" stroke-width="0.3" stroke-linecap="round" fill="none"/>
<circle cx="11.620000000000001" cy="5.27" r="0.254" stroke="#ffffff" stroke-width="0.3" fill="#ffffff"/>
<polyline points="12.89,3.9999999999999996 15.430000000000001,5.27 12.89,6.539999999999999 12.89,3.9999999999999996 12.89,3.9999999999999996 12.89,3.9999999999999996" stroke="#ffffff" stroke-width="0.3" stroke-linejoin="round" stroke-linecap="round" fill="none"/>
<polyline points="15.430000000000001,3.9999999999999996 15.430000000000001,6.539999999999999 14.922,6.539999999999999" stroke="#ffffff" stroke-width="0.3" stroke-linejoin="round" stroke-linecap="round" fill="none"/>
<line x1="11.620000000000001" y1="10.35" x2="11.620000000000001" y2="7.81" stroke="#ffd60a" stroke-width="0.332" stroke-linecap="round"/>
<text x="11.620000000000001" y="10.809999999999999" fill="#ffd60a" font-size="1" font-family="monospace" text-anchor="middle" dominant-baseline="middle">A</text>
<line x1="4.000000000000001" y1="5.27" x2="7.8100000000000005" y2="5.27" stroke="#ffd60a" stroke-width="0.332" stroke-linecap="round"/>
<text x="10.81" y="5.27" fill="#ffd60a" font-size="1" font-family="monospace" text-anchor="start" dominant-baseline="middle">K</text>
<line x1="19.240000000000002" y1="5.27" x2="15.430000000000001" y2="5.269999999999999" stroke="#ffd60a" stroke-width="0.332" stroke-linecap="round"/>
<text x="12.430000000000001" y="5.269999999999999" fill="#ffd60a" font-size="1" font-family="monospace" text-anchor="end" dominant-baseline="middle">K</text>
</svg>