<svg xmlns="http://www.w3.org/2000/svg" viewBox="0 0 32.129999999999995 23.240000000000002">
<polyline points="19.24,6.540000000000001 19.24,9.080000000000002 18.605,8.445 19.24,7.8100000000000005" stroke="#ffffff" stroke-width="0.3" stroke-linejoin="round" stroke-linecap="round" fill="none"/>
<polyline points="26.86,6.540000000000001 26.86,9.080000000000002 26.225,8.445 26.86,7.8100000000000005" stroke="#ffffff" stroke-width="0.3" stroke-linejoin="round" stroke-linecap="round" fill="none"/>
<rect x="4" y="16.700000000000003" width="24.13" height="10.16" stroke="#ffffff" stroke-width="0.3" fill="rgba(255,255,255,0.06)"/>
<rect x="5.904999999999999" y="13.525" width="6.35" height="3.81" stroke="#ffffff" stroke-width="0.3" fill="none"/>
<line x1="6.539999999999999" y1="13.525" x2="11.62" y2="9.715000000000002" stroke="#ffffff" stroke-width="0.3" stroke-linecap="round" fill="none"/>
<line x1="9.079999999999998" y1="6.540000000000001" x2="9.079999999999998" y2="9.715000000000002" stroke="#ffffff" stroke-width="0.3" stroke-linecap="round" fill="none"/>
<line x1="9.079999999999998" y1="16.700000000000003" x2="9.079999999999998" y2="13.525" stroke="#ffffff" stroke-width="0.3" stroke-linecap="round" fill="none"/>
<line x1="12.254999999999999" y1="11.620000000000001" x2="12.889999999999999" y2="11.620000000000001" stroke="#ffffff" stroke-width="0.3" stroke-linecap="round" fill="none"/>
<line x1="13.524999999999999" y1="11.620000000000001" x2="14.16" y2="11.620000000000001" stroke="#ffffff" stroke-width="0.3" stroke-linecap="round" fill="none"/>
<line x1="14.795" y1="11.620000000000001" x2="15.43" y2="11.620000000000001" stroke="#ffffff" stroke-width="0.3" stroke-linecap="round" fill="none"/>
<line x1="16.064999999999998" y1="11.620000000000001" x2="16.7" y2="11.620000000000001" stroke="#ffffff" stroke-width="0.3" stroke-linecap="round" fill="none"/>
<line x1="17.335" y1="11.620000000000001" x2="17.97" y2="11.620000000000001" stroke="#ffffff" stroke-width="0.3" stroke-linecap="round" fill="none"/>
<line x1="18.605" y1="11.620000000000001" x2="19.24" y2="11.620000000000001" stroke="#ffffff" stroke-width="0.3" stroke-linecap="round" fill="none"/>
<line x1="19.24" y1="14.16" x2="17.335" y2="7.8100000000000005" stroke="#ffffff" stroke-width="0.508" stroke-linecap="round" fill="none"/>
<line x1="19.24" y1="14.16" x2="19.24" y2="16.700000000000003" stroke="#ffffff" stroke-width="0.3" stroke-linecap="round" fill="none"/>
<line x1="19.875" y1="11.620000000000001" x2="20.509999999999998" y2="11.620000000000001" stroke="#ffffff" stroke-width="0.3" stroke-linecap="round" fill="none"/>
<line x1="21.145" y1="11.620000000000001" x2="21.78" y2="11.620000000000001" stroke="#ffffff" stroke-width="0.3" stroke-linecap="round" fill="none"/>
<line x1="22.415" y1="11.620000000000001" x2="23.049999999999997" y2="11.620000000000001" stroke="#ffffff" stroke-width="0.3" stroke-linecap="round" fill="none"/>
<line x1="23.685" y1="11.620000000000001" x2="24.32" y2="11.620000000000001" stroke="#ffffff" stroke-width="0.3" stroke-linecap="round" fill="none"/>
<line x1="24.955" y1="11.620000000000001" x2="25.59" y2="11.620000000000001" stroke="#ffffff" stroke-width="0.3" stroke-linecap="round" fill="none"/>
<line x1="26.86" y1="14.16" x2="24.955" y2="7.8100000000000005" stroke="#ffffff" stroke-width="0.508" stroke-linecap="round" fill="none"/>
<line x1="26.86" y1="14.16" x2="26.86" y2="16.700000000000003" stroke="#ffffff" stroke-width="0.3" stroke-linecap="round" fill="none"/>
<line x1="19.24" y1="19.240000000000002" x2="19.24" y2="16.700000000000003" stroke="#ffd60a" stroke-width="0.4589999999999999" stroke-linecap="round"/>
<line x1="9.079999999999998" y1="19.240000000000002" x2="9.079999999999998" y2="16.700000000000003" stroke="#ffd60a" stroke-width="0.4589999999999999" stroke-linecap="round"/>
<line x1="9.079999999999998" y1="4.000000000000001" x2="9.079999999999998" y2="6.540000000000001" stroke="#ffd60a" stroke-width="0.4589999999999999" stroke-linecap="round"/>
<line x1="19.24" y1="4.000000000000001" x2="19.24" y2="6.540000000000001" stroke="#ffd60a" stroke-width="0.4589999999999999" stroke-linecap="round"/>
<line x1="26.86" y1="4.000000000000001" x2="26.86" y2="6.540000000000001" stroke="#ffd60a" stroke-width="0.4589999999999999" stroke-linecap="round"/>
<line x1="26.86" y1="19.240000000000002" x2="26.86" y2="16.700000000000003" stroke="#ffd60a" stroke-width="0.4589999999999999" stroke-linecap="round"/>
</svg>