<svg xmlns="http://www.w3.org/2000/svg" viewBox="0 0 28.32 23.7">
<line x1="16.7" y1="7.8100000000000005" x2="16.7" y2="6.540000000000001" stroke="#ffffff" stroke-width="0.3" stroke-linecap="round" fill="none"/>
<line x1="21.78" y1="7.8100000000000005" x2="21.78" y2="6.540000000000001" stroke="#ffffff" stroke-width="0.3" stroke-linecap="round" fill="none"/>
<polyline points="21.78,7.8100000000000005 21.78,9.080000000000002 21.145,8.445 21.78,7.8100000000000005" stroke="#ffffff" stroke-width="0.3" stroke-linejoin="round" stroke-linecap="round" fill="none"/>
<rect x="4" y="16.700000000000003" width="20.32" height="10.16" stroke="#ffffff" stroke-width="0.3" fill="rgba(255,255,255,0.06)"/>
<line x1="4" y1="6.540000000000001" x2="4" y2="9.715000000000002" stroke="#ffffff" stroke-width="0.3" stroke-linecap="round" fill="none"/>
<line x1="4" y1="16.700000000000003" x2="4" y2="13.525" stroke="#ffffff" stroke-width="0.3" stroke-linecap="round" fill="none"/>
<rect x="5.904999999999999" y="13.525" width="6.3500000000000005" height="3.81" stroke="#ffffff" stroke-width="0.3" fill="none"/>
<circle cx="7.8100000000000005" cy="8.445" r="0.635" stroke="#ffffff" stroke-width="0.3" fill="#ffffff"/>
<line x1="9.08" y1="6.540000000000001" x2="9.08" y2="9.715000000000002" stroke="#ffffff" stroke-width="0.3" stroke-linecap="round" fill="none"/>
<line x1="9.08" y1="16.700000000000003" x2="9.08" y2="13.525" stroke="#ffffff" stroke-width="0.3" stroke-linecap="round" fill="none"/>
<line x1="12.255" y1="11.620000000000001" x2="12.89" y2="11.620000000000001" stroke="#ffffff" stroke-width="0.3" stroke-linecap="round" fill="none"/>
<line x1="13.525" y1="11.620000000000001" x2="14.16" y2="11.620000000000001" stroke="#ffffff" stroke-width="0.3" stroke-linecap="round" fill="none"/>
<line x1="14.795" y1="11.620000000000001" x2="15.43" y2="11.620000000000001" stroke="#ffffff" stroke-width="0.3" stroke-linecap="round" fill="none"/>
<line x1="16.065" y1="11.620000000000001" x2="16.7" y2="11.620000000000001" stroke="#ffffff" stroke-width="0.3" stroke-linecap="round" fill="none"/>
<polyline points="16.7,9.080000000000002 17.335,8.445 16.7,7.8100000000000005" stroke="#ffffff" stroke-width="0.3" stroke-linejoin="round" stroke-linecap="round" fill="#ffffff"/>
<line x1="17.335" y1="11.620000000000001" x2="17.97" y2="11.620000000000001" stroke="#ffffff" stroke-width="0.3" stroke-linecap="round" fill="none"/>
<line x1="19.240000000000002" y1="14.16" x2="17.335" y2="7.8100000000000005" stroke="#ffffff" stroke-width="0.508" stroke-linecap="round" fill="none"/>
<line x1="19.240000000000002" y1="14.16" x2="19.240000000000002" y2="16.700000000000003" stroke="#ffffff" stroke-width="0.3" stroke-linecap="round" fill="none"/>
<circle cx="23.05" cy="8.445" r="0.635" stroke="#ffffff" stroke-width="0.3" fill="#ffffff"/>
<polyline points="5.904999999999999,10.985000000000001 6.54,10.985000000000001 6.54,12.255 5.904999999999999,12.255 5.904999999999999,13.525 7.175,13.525 7.175,9.715000000000002 5.904999999999999,9.715000000000002 5.904999999999999,10.985000000000001" stroke="#ffffff" stroke-width="0.3" stroke-linejoin="round" stroke-linecap="round" fill="#ffffff"/>
<line x1="19.240000000000002" y1="19.240000000000002" x2="19.240000000000002" y2="16.700000000000003" stroke="#ffd60a" stroke-width="0.4045714285714286" stroke-linecap="round"/>
<line x1="16.7" y1="4.000000000000001" x2="16.7" y2="6.540000000000001" stroke="#ffd60a" stroke-width="0.4045714285714286" stroke-linecap="round"/>
<line x1="21.78" y1="4.000000000000001" x2="21.78" y2="6.540000000000001" stroke="#ffd60a" stroke-width="0.4045714285714286" stroke-linecap="round"/>
<line x1="9.08" y1="4.000000000000001" x2="9.079999999999998" y2="6.540000000000001" stroke="#ffd60a" stroke-width="0.4045714285714286" stroke-linecap="round"/>
<line x1="9.08" y1="19.240000000000002" x2="9.08" y2="16.700000000000003" stroke="#ffd60a" stroke-width="0.4045714285714286" stroke-linecap="round"/>
<line x1="21.78" y1="19.240000000000002" x2="21.78" y2="16.700000000000003" stroke="#ffd60a" stroke-width="0.4045714285714286" stroke-linecap="round"/>
<text x="21.78" y="19.700000000000003" fill="#ffd60a" font-size="1" font-family="monospace" text-anchor="middle" dominant-baseline="middle">Earth</text>
</svg>