<svg xmlns="http://www.w3.org/2000/svg" viewBox="0 0 21.16 21.16">
<rect x="4" y="14.16" width="10.16" height="10.16" stroke="#ffffff" stroke-width="0.3" fill="rgba(255,255,255,0.06)"/>
<line x1="5.143000000000001" y1="5.905" x2="5.143000000000001" y2="9.08" stroke="#ffffff" stroke-width="0.3" stroke-linecap="round" fill="none"/>
<line x1="5.143000000000001" y1="5.905" x2="5.7780000000000005" y2="5.905" stroke="#ffffff" stroke-width="0.3" stroke-linecap="round" fill="none"/>
<line x1="5.143000000000001" y1="6.54" x2="5.7780000000000005" y2="6.54" stroke="#ffffff" stroke-width="0.3" stroke-linecap="round" fill="none"/>
<line x1="5.143000000000001" y1="7.175" x2="5.7780000000000005" y2="7.175" stroke="#ffffff" stroke-width="0.3" stroke-linecap="round" fill="none"/>
<line x1="5.143000000000001" y1="7.8100000000000005" x2="5.7780000000000005" y2="7.8100000000000005" stroke="#ffffff" stroke-width="0.3" stroke-linecap="round" fill="none"/>
<line x1="5.143000000000001" y1="8.445" x2="5.7780000000000005" y2="8.445" stroke="#ffffff" stroke-width="0.3" stroke-linecap="round" fill="none"/>
<path d="M 5.143000000000001 5.905 A 0.6350057646686706 0.6350057646686706 0 0 1 6.413 5.905" stroke="#ffffff" stroke-width="0.3" fill="none"/>
<circle cx="5.7780000000000005" cy="11.620000000000001" r="1.27" stroke="#ffffff" stroke-width="0.3" fill="#ffffff"/>
<line x1="6.413" y1="5.905" x2="6.413" y2="9.08" stroke="#ffffff" stroke-width="0.3" stroke-linecap="round" fill="none"/>
<rect x="5.143000000000001" y="10.985" width="1.27" height="1.905" stroke="#ffffff" stroke-width="0.3" fill="#ffffff"/>
<line x1="9.08" y1="16.7" x2="9.08" y2="14.16" stroke="#ffd60a" stroke-width="0.30228571428571427" stroke-linecap="round"/>
<text x="9.08" y="17.16" fill="#ffd60a" font-size="1" font-family="monospace" text-anchor="middle" dominant-baseline="middle">GND</text>
<line x1="16.7" y1="9.08" x2="14.16" y2="9.08" stroke="#ffd60a" stroke-width="0.30228571428571427" stroke-linecap="round"/>
<text x="17.16" y="9.08" fill="#ffd60a" font-size="1" font-family="monospace" text-anchor="end" dominant-baseline="middle">DQ</text>
<line x1="14.16" y1="6.54" x2="11.620000000000001" y2="6.539999999999999" stroke="#ffd60a" stroke-width="0.30228571428571427" stroke-linecap="round"/>
<text x="8.620000000000001" y="6.539999999999999" fill="#ffd60a" font-size="1" font-family="monospace" text-anchor="end" dominant-baseline="middle">NC</text>
</svg>