<svg xmlns="http://www.w3.org/2000/svg" viewBox="0 0 180 620">
<rect x="50" y="50" width="80" height="520" stroke="#ffffff" stroke-width="1.5" fill="rgba(255,255,255,0.04)"/>
<text x="90" y="310" fill="#888" font-size="3" font-family="monospace" text-anchor="middle" dominant-baseline="middle">U</text>
<line x1="30" y1="60" x2="50" y2="60" stroke="#ffd60a" stroke-width="1.5" stroke-linecap="round"/>
<text x="55" y="60" fill="#ffd60a" font-size="2" font-family="monospace" text-anchor="start" dominant-baseline="middle">WUP</text>
<line x1="30" y1="80" x2="50" y2="80" stroke="#ffd60a" stroke-width="1.5" stroke-linecap="round"/>
<text x="55" y="80" fill="#ffd60a" font-size="2" font-family="monospace" text-anchor="start" dominant-baseline="middle">DPROT</text>
<line x1="30" y1="100" x2="50" y2="100" stroke="#ffd60a" stroke-width="1.5" stroke-linecap="round"/>
<text x="55" y="100" fill="#ffd60a" font-size="2" font-family="monospace" text-anchor="start" dominant-baseline="middle">DPWR</text>
<line x1="30" y1="120" x2="50" y2="120" stroke="#ffd60a" stroke-width="1.5" stroke-linecap="round"/>
<text x="55" y="120" fill="#ffd60a" font-size="2" font-family="monospace" text-anchor="start" dominant-baseline="middle">WP</text>
<line x1="30" y1="140" x2="50" y2="140" stroke="#ffd60a" stroke-width="1.5" stroke-linecap="round"/>
<text x="55" y="140" fill="#ffd60a" font-size="2" font-family="monospace" text-anchor="start" dominant-baseline="middle">NC</text>
<line x1="30" y1="160" x2="50" y2="160" stroke="#ffd60a" stroke-width="1.5" stroke-linecap="round"/>
<text x="55" y="160" fill="#ffd60a" font-size="2" font-family="monospace" text-anchor="start" dominant-baseline="middle">NC</text>
<line x1="30" y1="180" x2="50" y2="180" stroke="#ffd60a" stroke-width="1.5" stroke-linecap="round"/>
<text x="55" y="180" fill="#ffd60a" font-size="2" font-family="monospace" text-anchor="start" dominant-baseline="middle">NC</text>
<line x1="30" y1="200" x2="50" y2="200" stroke="#ffd60a" stroke-width="1.5" stroke-linecap="round"/>
<text x="55" y="200" fill="#ffd60a" font-size="2" font-family="monospace" text-anchor="start" dominant-baseline="middle">NC</text>
<line x1="30" y1="220" x2="50" y2="220" stroke="#ffd60a" stroke-width="1.5" stroke-linecap="round"/>
<text x="55" y="220" fill="#ffd60a" font-size="2" font-family="monospace" text-anchor="start" dominant-baseline="middle">NC</text>
<line x1="30" y1="240" x2="50" y2="240" stroke="#ffd60a" stroke-width="1.5" stroke-linecap="round"/>
<text x="55" y="240" fill="#ffd60a" font-size="2" font-family="monospace" text-anchor="start" dominant-baseline="middle">NC</text>
<line x1="30" y1="260" x2="50" y2="260" stroke="#ffd60a" stroke-width="1.5" stroke-linecap="round"/>
<text x="55" y="260" fill="#ffd60a" font-size="2" font-family="monospace" text-anchor="start" dominant-baseline="middle">NC</text>
<line x1="30" y1="280" x2="50" y2="280" stroke="#ffd60a" stroke-width="1.5" stroke-linecap="round"/>
<text x="55" y="280" fill="#ffd60a" font-size="2" font-family="monospace" text-anchor="start" dominant-baseline="middle">NC</text>
<line x1="30" y1="300" x2="50" y2="300" stroke="#ffd60a" stroke-width="1.5" stroke-linecap="round"/>
<text x="55" y="300" fill="#ffd60a" font-size="2" font-family="monospace" text-anchor="start" dominant-baseline="middle">NC</text>
<line x1="30" y1="320" x2="50" y2="320" stroke="#ffd60a" stroke-width="1.5" stroke-linecap="round"/>
<text x="55" y="320" fill="#ffd60a" font-size="2" font-family="monospace" text-anchor="start" dominant-baseline="middle">NC</text>
<line x1="30" y1="340" x2="50" y2="340" stroke="#ffd60a" stroke-width="1.5" stroke-linecap="round"/>
<text x="55" y="340" fill="#ffd60a" font-size="2" font-family="monospace" text-anchor="start" dominant-baseline="middle">NC</text>
<line x1="30" y1="360" x2="50" y2="360" stroke="#ffd60a" stroke-width="1.5" stroke-linecap="round"/>
<text x="55" y="360" fill="#ffd60a" font-size="2" font-family="monospace" text-anchor="start" dominant-baseline="middle">NC</text>
<line x1="30" y1="380" x2="50" y2="380" stroke="#ffd60a" stroke-width="1.5" stroke-linecap="round"/>
<text x="55" y="380" fill="#ffd60a" font-size="2" font-family="monospace" text-anchor="start" dominant-baseline="middle">NC</text>
<line x1="30" y1="400" x2="50" y2="400" stroke="#ffd60a" stroke-width="1.5" stroke-linecap="round"/>
<text x="55" y="400" fill="#ffd60a" font-size="2" font-family="monospace" text-anchor="start" dominant-baseline="middle">NC</text>
<line x1="30" y1="420" x2="50" y2="420" stroke="#ffd60a" stroke-width="1.5" stroke-linecap="round"/>
<text x="55" y="420" fill="#ffd60a" font-size="2" font-family="monospace" text-anchor="start" dominant-baseline="middle">NC</text>
<line x1="30" y1="440" x2="50" y2="440" stroke="#ffd60a" stroke-width="1.5" stroke-linecap="round"/>
<text x="55" y="440" fill="#ffd60a" font-size="2" font-family="monospace" text-anchor="start" dominant-baseline="middle">NC</text>
<line x1="30" y1="460" x2="50" y2="460" stroke="#ffd60a" stroke-width="1.5" stroke-linecap="round"/>
<text x="55" y="460" fill="#ffd60a" font-size="2" font-family="monospace" text-anchor="start" dominant-baseline="middle">NC</text>
<line x1="30" y1="480" x2="50" y2="480" stroke="#ffd60a" stroke-width="1.5" stroke-linecap="round"/>
<text x="55" y="480" fill="#ffd60a" font-size="2" font-family="monospace" text-anchor="start" dominant-baseline="middle">NC</text>
<line x1="30" y1="500" x2="50" y2="500" stroke="#ffd60a" stroke-width="1.5" stroke-linecap="round"/>
<text x="55" y="500" fill="#ffd60a" font-size="2" font-family="monospace" text-anchor="start" dominant-baseline="middle">NC</text>
<line x1="30" y1="520" x2="50" y2="520" stroke="#ffd60a" stroke-width="1.5" stroke-linecap="round"/>
<text x="55" y="520" fill="#ffd60a" font-size="2" font-family="monospace" text-anchor="start" dominant-baseline="middle">NC</text>
<line x1="30" y1="540" x2="50" y2="540" stroke="#ffd60a" stroke-width="1.5" stroke-linecap="round"/>
<text x="55" y="540" fill="#ffd60a" font-size="2" font-family="monospace" text-anchor="start" dominant-baseline="middle">NC</text>
<line x1="30" y1="560" x2="50" y2="560" stroke="#ffd60a" stroke-width="1.5" stroke-linecap="round"/>
<text x="55" y="560" fill="#ffd60a" font-size="2" font-family="monospace" text-anchor="start" dominant-baseline="middle">NC</text>
<line x1="150" y1="63" x2="130" y2="63" stroke="#ffd60a" stroke-width="1.5" stroke-linecap="round"/>
<text x="125" y="63" fill="#ffd60a" font-size="2" font-family="monospace" text-anchor="end" dominant-baseline="middle">VADJ</text>
<line x1="150" y1="89" x2="130" y2="89" stroke="#ffd60a" stroke-width="1.5" stroke-linecap="round"/>
<text x="125" y="89" fill="#ffd60a" font-size="2" font-family="monospace" text-anchor="end" dominant-baseline="middle">VOUT</text>
<line x1="150" y1="115" x2="130" y2="115" stroke="#ffd60a" stroke-width="1.5" stroke-linecap="round"/>
<text x="125" y="115" fill="#ffd60a" font-size="2" font-family="monospace" text-anchor="end" dominant-baseline="middle">~{RESET}</text>
<line x1="150" y1="141" x2="130" y2="141" stroke="#ffd60a" stroke-width="1.5" stroke-linecap="round"/>
<text x="125" y="141" fill="#ffd60a" font-size="2" font-family="monospace" text-anchor="end" dominant-baseline="middle">BAUD0</text>
<line x1="150" y1="167" x2="130" y2="167" stroke="#ffd60a" stroke-width="1.5" stroke-linecap="round"/>
<text x="125" y="167" fill="#ffd60a" font-size="2" font-family="monospace" text-anchor="end" dominant-baseline="middle">BAUD1</text>
<line x1="150" y1="193" x2="130" y2="193" stroke="#ffd60a" stroke-width="1.5" stroke-linecap="round"/>
<text x="125" y="193" fill="#ffd60a" font-size="2" font-family="monospace" text-anchor="end" dominant-baseline="middle">BAUD2</text>
<line x1="150" y1="219" x2="130" y2="219" stroke="#ffd60a" stroke-width="1.5" stroke-linecap="round"/>
<text x="125" y="219" fill="#ffd60a" font-size="2" font-family="monospace" text-anchor="end" dominant-baseline="middle">ADR0</text>
<line x1="150" y1="245" x2="130" y2="245" stroke="#ffd60a" stroke-width="1.5" stroke-linecap="round"/>
<text x="125" y="245" fill="#ffd60a" font-size="2" font-family="monospace" text-anchor="end" dominant-baseline="middle">RxD</text>
<line x1="150" y1="271" x2="130" y2="271" stroke="#ffd60a" stroke-width="1.5" stroke-linecap="round"/>
<text x="125" y="271" fill="#ffd60a" font-size="2" font-family="monospace" text-anchor="end" dominant-baseline="middle">TxD</text>
<line x1="150" y1="297" x2="130" y2="297" stroke="#ffd60a" stroke-width="1.5" stroke-linecap="round"/>
<text x="125" y="297" fill="#ffd60a" font-size="2" font-family="monospace" text-anchor="end" dominant-baseline="middle">EN485</text>
<line x1="150" y1="323" x2="130" y2="323" stroke="#ffd60a" stroke-width="1.5" stroke-linecap="round"/>
<text x="125" y="323" fill="#ffd60a" font-size="2" font-family="monospace" text-anchor="end" dominant-baseline="middle">ADR1</text>
<line x1="150" y1="349" x2="130" y2="349" stroke="#ffd60a" stroke-width="1.5" stroke-linecap="round"/>
<text x="125" y="349" fill="#ffd60a" font-size="2" font-family="monospace" text-anchor="end" dominant-baseline="middle">ADR2</text>
<line x1="150" y1="375" x2="130" y2="375" stroke="#ffd60a" stroke-width="1.5" stroke-linecap="round"/>
<text x="125" y="375" fill="#ffd60a" font-size="2" font-family="monospace" text-anchor="end" dominant-baseline="middle">BUZZ</text>
<line x1="150" y1="401" x2="130" y2="401" stroke="#ffd60a" stroke-width="1.5" stroke-linecap="round"/>
<text x="125" y="401" fill="#ffd60a" font-size="2" font-family="monospace" text-anchor="end" dominant-baseline="middle">TEST_SBUF</text>
<line x1="150" y1="427" x2="130" y2="427" stroke="#ffd60a" stroke-width="1.5" stroke-linecap="round"/>
<text x="125" y="427" fill="#ffd60a" font-size="2" font-family="monospace" text-anchor="end" dominant-baseline="middle">PDI</text>
<line x1="150" y1="453" x2="130" y2="453" stroke="#ffd60a" stroke-width="1.5" stroke-linecap="round"/>
<text x="125" y="453" fill="#ffd60a" font-size="2" font-family="monospace" text-anchor="end" dominant-baseline="middle">PDO</text>
<line x1="150" y1="479" x2="130" y2="479" stroke="#ffd60a" stroke-width="1.5" stroke-linecap="round"/>
<text x="125" y="479" fill="#ffd60a" font-size="2" font-family="monospace" text-anchor="end" dominant-baseline="middle">NC</text>
<line x1="150" y1="505" x2="130" y2="505" stroke="#ffd60a" stroke-width="1.5" stroke-linecap="round"/>
<text x="125" y="505" fill="#ffd60a" font-size="2" font-family="monospace" text-anchor="end" dominant-baseline="middle">NC</text>
<line x1="150" y1="531" x2="130" y2="531" stroke="#ffd60a" stroke-width="1.5" stroke-linecap="round"/>
<text x="125" y="531" fill="#ffd60a" font-size="2" font-family="monospace" text-anchor="end" dominant-baseline="middle">NC</text>
<line x1="150" y1="557" x2="130" y2="557" stroke="#ffd60a" stroke-width="1.5" stroke-linecap="round"/>
<text x="125" y="557" fill="#ffd60a" font-size="2" font-family="monospace" text-anchor="end" dominant-baseline="middle">NC</text>
<line x1="90" y1="30" x2="90" y2="50" stroke="#ffd60a" stroke-width="1.5" stroke-linecap="round"/>
<text x="90" y="25" fill="#ffd60a" font-size="2" font-family="monospace" text-anchor="middle" dominant-baseline="middle">GND</text>
<line x1="90" y1="590" x2="90" y2="570" stroke="#ffd60a" stroke-width="1.5" stroke-linecap="round"/>
<text x="90" y="604" fill="#ffd60a" font-size="2" font-family="monospace" text-anchor="middle" dominant-baseline="middle">VDD</text>
</svg>