<svg xmlns="http://www.w3.org/2000/svg" viewBox="0 0 21.16 29.240000000000002">
<polyline points="7,12.080000000000002 7,17.16 7,17.16" stroke="#ffffff" stroke-width="0.3" stroke-linejoin="round" stroke-linecap="round" fill="none"/>
<path d="M 7 12.080000000000002 A 5.080048281895649 5.080048281895649 0 0 1 17.16 12.080000000000002" stroke="#ffffff" stroke-width="0.3" fill="none"/>
<path d="M 17.16 17.16 A 5.080048281895649 5.080048281895649 0 0 1 7 17.16" stroke="#ffffff" stroke-width="0.3" fill="none"/>
<line x1="17.16" y1="12.080000000000002" x2="17.16" y2="17.16" stroke="#ffffff" stroke-width="0.3" stroke-linecap="round" fill="none"/>
<line x1="9.54" y1="19.700000000000003" x2="9.54" y2="22.240000000000002" stroke="#ffffff" stroke-width="0.3" stroke-linecap="round" fill="none"/>
<line x1="10.175" y1="14.620000000000001" x2="8.905000000000001" y2="14.620000000000001" stroke="#ffffff" stroke-width="0.3" stroke-linecap="round" fill="none"/>
<line x1="11.445" y1="14.620000000000001" x2="12.715" y2="14.620000000000001" stroke="#ffffff" stroke-width="0.3" stroke-linecap="round" fill="none"/>
<line x1="12.08" y1="9.540000000000001" x2="12.08" y2="7.000000000000001" stroke="#ffffff" stroke-width="0.3" stroke-linecap="round" fill="none"/>
<line x1="13.985" y1="14.620000000000001" x2="15.254999999999999" y2="14.620000000000001" stroke="#ffffff" stroke-width="0.3" stroke-linecap="round" fill="none"/>
<line x1="7" y1="14.620000000000001" x2="8.905000000000001" y2="14.620000000000001" stroke="#ffffff" stroke-width="0.3" stroke-linecap="round" fill="none"/>
<polyline points="9.54,9.540000000000001 14.620000000000001,9.540000000000001 14.620000000000001,9.540000000000001" stroke="#ffffff" stroke-width="0.3" stroke-linejoin="round" stroke-linecap="round" fill="none"/>
<path d="M 9.54 19.700000000000003 A 2.6181631302944735 2.6181631302944735 0 0 1 14.620000000000001 19.700000000000003" stroke="#ffffff" stroke-width="0.3" fill="none"/>
<path d="M 9.54 20.97 A 3.2527656618610754 3.2527656618610754 0 0 1 14.620000000000001 20.97" stroke="#ffffff" stroke-width="0.3" fill="none"/>
<line x1="12.08" y1="4.460000000000001" x2="12.08" y2="7.000000000000001" stroke="#ffd60a" stroke-width="0.41771428571428576" stroke-linecap="round"/>
<text x="12.08" y="4" fill="#ffd60a" font-size="1" font-family="monospace" text-anchor="middle" dominant-baseline="middle">A</text>
<line x1="4.46" y1="14.620000000000001" x2="7" y2="14.620000000000001" stroke="#ffd60a" stroke-width="0.41771428571428576" stroke-linecap="round"/>
<text x="4" y="14.620000000000001" fill="#ffd60a" font-size="1" font-family="monospace" text-anchor="start" dominant-baseline="middle">G</text>
<line x1="9.54" y1="24.78" x2="9.54" y2="22.240000000000002" stroke="#ffd60a" stroke-width="0.41771428571428576" stroke-linecap="round"/>
<text x="9.54" y="25.240000000000002" fill="#ffd60a" font-size="1" font-family="monospace" text-anchor="middle" dominant-baseline="middle">K</text>
<line x1="9.54" y1="23.51" x2="9.54" y2="20.970000000000002" stroke="#ffd60a" stroke-width="0.41771428571428576" stroke-linecap="round"/>
<text x="9.54" y="17.970000000000002" fill="#ffd60a" font-size="1" font-family="monospace" text-anchor="middle" dominant-baseline="middle">F1</text>
<line x1="14.620000000000001" y1="23.51" x2="14.620000000000001" y2="20.970000000000002" stroke="#ffd60a" stroke-width="0.41771428571428576" stroke-linecap="round"/>
<text x="14.620000000000001" y="17.970000000000002" fill="#ffd60a" font-size="1" font-family="monospace" text-anchor="middle" dominant-baseline="middle">F2</text>
</svg>