<svg xmlns="http://www.w3.org/2000/svg" viewBox="0 0 180 740">
<rect x="50" y="50" width="80" height="640" stroke="#ffffff" stroke-width="1.5" fill="rgba(255,255,255,0.04)"/>
<text x="90" y="370" fill="#888" font-size="3" font-family="monospace" text-anchor="middle" dominant-baseline="middle">U</text>
<line x1="30" y1="60" x2="50" y2="60" stroke="#ffd60a" stroke-width="1.5" stroke-linecap="round"/>
<text x="55" y="60" fill="#ffd60a" font-size="2" font-family="monospace" text-anchor="start" dominant-baseline="middle">I/O_25C</text>
<line x1="30" y1="80" x2="50" y2="80" stroke="#ffd60a" stroke-width="1.5" stroke-linecap="round"/>
<text x="55" y="80" fill="#ffd60a" font-size="2" font-family="monospace" text-anchor="start" dominant-baseline="middle">I/O_26C</text>
<line x1="30" y1="100" x2="50" y2="100" stroke="#ffd60a" stroke-width="1.5" stroke-linecap="round"/>
<text x="55" y="100" fill="#ffd60a" font-size="2" font-family="monospace" text-anchor="start" dominant-baseline="middle">I/O_27C</text>
<line x1="30" y1="120" x2="50" y2="120" stroke="#ffd60a" stroke-width="1.5" stroke-linecap="round"/>
<text x="55" y="120" fill="#ffd60a" font-size="2" font-family="monospace" text-anchor="start" dominant-baseline="middle">I/O_28C</text>
<line x1="30" y1="140" x2="50" y2="140" stroke="#ffd60a" stroke-width="1.5" stroke-linecap="round"/>
<text x="55" y="140" fill="#ffd60a" font-size="2" font-family="monospace" text-anchor="start" dominant-baseline="middle">I/O_29C</text>
<line x1="30" y1="160" x2="50" y2="160" stroke="#ffd60a" stroke-width="1.5" stroke-linecap="round"/>
<text x="55" y="160" fill="#ffd60a" font-size="2" font-family="monospace" text-anchor="start" dominant-baseline="middle">I/O_30C</text>
<line x1="30" y1="180" x2="50" y2="180" stroke="#ffd60a" stroke-width="1.5" stroke-linecap="round"/>
<text x="55" y="180" fill="#ffd60a" font-size="2" font-family="monospace" text-anchor="start" dominant-baseline="middle">I/O_31C</text>
<line x1="30" y1="200" x2="50" y2="200" stroke="#ffd60a" stroke-width="1.5" stroke-linecap="round"/>
<text x="55" y="200" fill="#ffd60a" font-size="2" font-family="monospace" text-anchor="start" dominant-baseline="middle">I/O_32C</text>
<line x1="30" y1="220" x2="50" y2="220" stroke="#ffd60a" stroke-width="1.5" stroke-linecap="round"/>
<text x="55" y="220" fill="#ffd60a" font-size="2" font-family="monospace" text-anchor="start" dominant-baseline="middle">I/O_33C</text>
<line x1="30" y1="240" x2="50" y2="240" stroke="#ffd60a" stroke-width="1.5" stroke-linecap="round"/>
<text x="55" y="240" fill="#ffd60a" font-size="2" font-family="monospace" text-anchor="start" dominant-baseline="middle">I/O_34C</text>
<line x1="30" y1="260" x2="50" y2="260" stroke="#ffd60a" stroke-width="1.5" stroke-linecap="round"/>
<text x="55" y="260" fill="#ffd60a" font-size="2" font-family="monospace" text-anchor="start" dominant-baseline="middle">I/O_35C</text>
<line x1="30" y1="280" x2="50" y2="280" stroke="#ffd60a" stroke-width="1.5" stroke-linecap="round"/>
<text x="55" y="280" fill="#ffd60a" font-size="2" font-family="monospace" text-anchor="start" dominant-baseline="middle">I/O_36C</text>
<line x1="30" y1="300" x2="50" y2="300" stroke="#ffd60a" stroke-width="1.5" stroke-linecap="round"/>
<text x="55" y="300" fill="#ffd60a" font-size="2" font-family="monospace" text-anchor="start" dominant-baseline="middle">INP9</text>
<line x1="30" y1="320" x2="50" y2="320" stroke="#ffd60a" stroke-width="1.5" stroke-linecap="round"/>
<text x="55" y="320" fill="#ffd60a" font-size="2" font-family="monospace" text-anchor="start" dominant-baseline="middle">INP10</text>
<line x1="30" y1="340" x2="50" y2="340" stroke="#ffd60a" stroke-width="1.5" stroke-linecap="round"/>
<text x="55" y="340" fill="#ffd60a" font-size="2" font-family="monospace" text-anchor="start" dominant-baseline="middle">INP11</text>
<line x1="30" y1="360" x2="50" y2="360" stroke="#ffd60a" stroke-width="1.5" stroke-linecap="round"/>
<text x="55" y="360" fill="#ffd60a" font-size="2" font-family="monospace" text-anchor="start" dominant-baseline="middle">CLK3/INP12</text>
<line x1="30" y1="380" x2="50" y2="380" stroke="#ffd60a" stroke-width="1.5" stroke-linecap="round"/>
<text x="55" y="380" fill="#ffd60a" font-size="2" font-family="monospace" text-anchor="start" dominant-baseline="middle">CLK4/INP13</text>
<line x1="30" y1="400" x2="50" y2="400" stroke="#ffd60a" stroke-width="1.5" stroke-linecap="round"/>
<text x="55" y="400" fill="#ffd60a" font-size="2" font-family="monospace" text-anchor="start" dominant-baseline="middle">INP14</text>
<line x1="30" y1="420" x2="50" y2="420" stroke="#ffd60a" stroke-width="1.5" stroke-linecap="round"/>
<text x="55" y="420" fill="#ffd60a" font-size="2" font-family="monospace" text-anchor="start" dominant-baseline="middle">INP15</text>
<line x1="30" y1="440" x2="50" y2="440" stroke="#ffd60a" stroke-width="1.5" stroke-linecap="round"/>
<text x="55" y="440" fill="#ffd60a" font-size="2" font-family="monospace" text-anchor="start" dominant-baseline="middle">INP16</text>
<line x1="30" y1="460" x2="50" y2="460" stroke="#ffd60a" stroke-width="1.5" stroke-linecap="round"/>
<text x="55" y="460" fill="#ffd60a" font-size="2" font-family="monospace" text-anchor="start" dominant-baseline="middle">I/O_37D</text>
<line x1="30" y1="480" x2="50" y2="480" stroke="#ffd60a" stroke-width="1.5" stroke-linecap="round"/>
<text x="55" y="480" fill="#ffd60a" font-size="2" font-family="monospace" text-anchor="start" dominant-baseline="middle">I/O_38D</text>
<line x1="30" y1="500" x2="50" y2="500" stroke="#ffd60a" stroke-width="1.5" stroke-linecap="round"/>
<text x="55" y="500" fill="#ffd60a" font-size="2" font-family="monospace" text-anchor="start" dominant-baseline="middle">I/O_39D</text>
<line x1="30" y1="520" x2="50" y2="520" stroke="#ffd60a" stroke-width="1.5" stroke-linecap="round"/>
<text x="55" y="520" fill="#ffd60a" font-size="2" font-family="monospace" text-anchor="start" dominant-baseline="middle">I/O_40D</text>
<line x1="30" y1="540" x2="50" y2="540" stroke="#ffd60a" stroke-width="1.5" stroke-linecap="round"/>
<text x="55" y="540" fill="#ffd60a" font-size="2" font-family="monospace" text-anchor="start" dominant-baseline="middle">I/O_41D</text>
<line x1="30" y1="560" x2="50" y2="560" stroke="#ffd60a" stroke-width="1.5" stroke-linecap="round"/>
<text x="55" y="560" fill="#ffd60a" font-size="2" font-family="monospace" text-anchor="start" dominant-baseline="middle">I/O_42D</text>
<line x1="30" y1="580" x2="50" y2="580" stroke="#ffd60a" stroke-width="1.5" stroke-linecap="round"/>
<text x="55" y="580" fill="#ffd60a" font-size="2" font-family="monospace" text-anchor="start" dominant-baseline="middle">I/O_43D</text>
<line x1="30" y1="600" x2="50" y2="600" stroke="#ffd60a" stroke-width="1.5" stroke-linecap="round"/>
<text x="55" y="600" fill="#ffd60a" font-size="2" font-family="monospace" text-anchor="start" dominant-baseline="middle">I/O_44D</text>
<line x1="30" y1="620" x2="50" y2="620" stroke="#ffd60a" stroke-width="1.5" stroke-linecap="round"/>
<text x="55" y="620" fill="#ffd60a" font-size="2" font-family="monospace" text-anchor="start" dominant-baseline="middle">I/O_45D</text>
<line x1="30" y1="640" x2="50" y2="640" stroke="#ffd60a" stroke-width="1.5" stroke-linecap="round"/>
<text x="55" y="640" fill="#ffd60a" font-size="2" font-family="monospace" text-anchor="start" dominant-baseline="middle">I/O_46D</text>
<line x1="30" y1="660" x2="50" y2="660" stroke="#ffd60a" stroke-width="1.5" stroke-linecap="round"/>
<text x="55" y="660" fill="#ffd60a" font-size="2" font-family="monospace" text-anchor="start" dominant-baseline="middle">I/O_47D</text>
<line x1="30" y1="680" x2="50" y2="680" stroke="#ffd60a" stroke-width="1.5" stroke-linecap="round"/>
<text x="55" y="680" fill="#ffd60a" font-size="2" font-family="monospace" text-anchor="start" dominant-baseline="middle">I/O_48D</text>
<line x1="150" y1="60" x2="130" y2="60" stroke="#ffd60a" stroke-width="1.5" stroke-linecap="round"/>
<text x="125" y="60" fill="#ffd60a" font-size="2" font-family="monospace" text-anchor="end" dominant-baseline="middle">I/O_1A</text>
<line x1="150" y1="80" x2="130" y2="80" stroke="#ffd60a" stroke-width="1.5" stroke-linecap="round"/>
<text x="125" y="80" fill="#ffd60a" font-size="2" font-family="monospace" text-anchor="end" dominant-baseline="middle">I/O_2A</text>
<line x1="150" y1="100" x2="130" y2="100" stroke="#ffd60a" stroke-width="1.5" stroke-linecap="round"/>
<text x="125" y="100" fill="#ffd60a" font-size="2" font-family="monospace" text-anchor="end" dominant-baseline="middle">I/O_3A</text>
<line x1="150" y1="120" x2="130" y2="120" stroke="#ffd60a" stroke-width="1.5" stroke-linecap="round"/>
<text x="125" y="120" fill="#ffd60a" font-size="2" font-family="monospace" text-anchor="end" dominant-baseline="middle">I/O_4A</text>
<line x1="150" y1="140" x2="130" y2="140" stroke="#ffd60a" stroke-width="1.5" stroke-linecap="round"/>
<text x="125" y="140" fill="#ffd60a" font-size="2" font-family="monospace" text-anchor="end" dominant-baseline="middle">I/O_5A</text>
<line x1="150" y1="160" x2="130" y2="160" stroke="#ffd60a" stroke-width="1.5" stroke-linecap="round"/>
<text x="125" y="160" fill="#ffd60a" font-size="2" font-family="monospace" text-anchor="end" dominant-baseline="middle">I/O_6A</text>
<line x1="150" y1="180" x2="130" y2="180" stroke="#ffd60a" stroke-width="1.5" stroke-linecap="round"/>
<text x="125" y="180" fill="#ffd60a" font-size="2" font-family="monospace" text-anchor="end" dominant-baseline="middle">I/O_7A</text>
<line x1="150" y1="200" x2="130" y2="200" stroke="#ffd60a" stroke-width="1.5" stroke-linecap="round"/>
<text x="125" y="200" fill="#ffd60a" font-size="2" font-family="monospace" text-anchor="end" dominant-baseline="middle">I/O_8A</text>
<line x1="150" y1="220" x2="130" y2="220" stroke="#ffd60a" stroke-width="1.5" stroke-linecap="round"/>
<text x="125" y="220" fill="#ffd60a" font-size="2" font-family="monospace" text-anchor="end" dominant-baseline="middle">I/O_9A</text>
<line x1="150" y1="240" x2="130" y2="240" stroke="#ffd60a" stroke-width="1.5" stroke-linecap="round"/>
<text x="125" y="240" fill="#ffd60a" font-size="2" font-family="monospace" text-anchor="end" dominant-baseline="middle">I/O_10A</text>
<line x1="150" y1="260" x2="130" y2="260" stroke="#ffd60a" stroke-width="1.5" stroke-linecap="round"/>
<text x="125" y="260" fill="#ffd60a" font-size="2" font-family="monospace" text-anchor="end" dominant-baseline="middle">I/O_11A</text>
<line x1="150" y1="280" x2="130" y2="280" stroke="#ffd60a" stroke-width="1.5" stroke-linecap="round"/>
<text x="125" y="280" fill="#ffd60a" font-size="2" font-family="monospace" text-anchor="end" dominant-baseline="middle">I/O_12A</text>
<line x1="150" y1="300" x2="130" y2="300" stroke="#ffd60a" stroke-width="1.5" stroke-linecap="round"/>
<text x="125" y="300" fill="#ffd60a" font-size="2" font-family="monospace" text-anchor="end" dominant-baseline="middle">INP1</text>
<line x1="150" y1="320" x2="130" y2="320" stroke="#ffd60a" stroke-width="1.5" stroke-linecap="round"/>
<text x="125" y="320" fill="#ffd60a" font-size="2" font-family="monospace" text-anchor="end" dominant-baseline="middle">INP2</text>
<line x1="150" y1="340" x2="130" y2="340" stroke="#ffd60a" stroke-width="1.5" stroke-linecap="round"/>
<text x="125" y="340" fill="#ffd60a" font-size="2" font-family="monospace" text-anchor="end" dominant-baseline="middle">INP3</text>
<line x1="150" y1="360" x2="130" y2="360" stroke="#ffd60a" stroke-width="1.5" stroke-linecap="round"/>
<text x="125" y="360" fill="#ffd60a" font-size="2" font-family="monospace" text-anchor="end" dominant-baseline="middle">INP4/CLK1</text>
<line x1="150" y1="380" x2="130" y2="380" stroke="#ffd60a" stroke-width="1.5" stroke-linecap="round"/>
<text x="125" y="380" fill="#ffd60a" font-size="2" font-family="monospace" text-anchor="end" dominant-baseline="middle">INP5/CLK2</text>
<line x1="150" y1="400" x2="130" y2="400" stroke="#ffd60a" stroke-width="1.5" stroke-linecap="round"/>
<text x="125" y="400" fill="#ffd60a" font-size="2" font-family="monospace" text-anchor="end" dominant-baseline="middle">INP6</text>
<line x1="150" y1="420" x2="130" y2="420" stroke="#ffd60a" stroke-width="1.5" stroke-linecap="round"/>
<text x="125" y="420" fill="#ffd60a" font-size="2" font-family="monospace" text-anchor="end" dominant-baseline="middle">INP7</text>
<line x1="150" y1="440" x2="130" y2="440" stroke="#ffd60a" stroke-width="1.5" stroke-linecap="round"/>
<text x="125" y="440" fill="#ffd60a" font-size="2" font-family="monospace" text-anchor="end" dominant-baseline="middle">INP8</text>
<line x1="150" y1="460" x2="130" y2="460" stroke="#ffd60a" stroke-width="1.5" stroke-linecap="round"/>
<text x="125" y="460" fill="#ffd60a" font-size="2" font-family="monospace" text-anchor="end" dominant-baseline="middle">I/O_13B</text>
<line x1="150" y1="480" x2="130" y2="480" stroke="#ffd60a" stroke-width="1.5" stroke-linecap="round"/>
<text x="125" y="480" fill="#ffd60a" font-size="2" font-family="monospace" text-anchor="end" dominant-baseline="middle">I/O_14B</text>
<line x1="150" y1="500" x2="130" y2="500" stroke="#ffd60a" stroke-width="1.5" stroke-linecap="round"/>
<text x="125" y="500" fill="#ffd60a" font-size="2" font-family="monospace" text-anchor="end" dominant-baseline="middle">I/O_15B</text>
<line x1="150" y1="520" x2="130" y2="520" stroke="#ffd60a" stroke-width="1.5" stroke-linecap="round"/>
<text x="125" y="520" fill="#ffd60a" font-size="2" font-family="monospace" text-anchor="end" dominant-baseline="middle">I/O_16B</text>
<line x1="150" y1="540" x2="130" y2="540" stroke="#ffd60a" stroke-width="1.5" stroke-linecap="round"/>
<text x="125" y="540" fill="#ffd60a" font-size="2" font-family="monospace" text-anchor="end" dominant-baseline="middle">I/O_17B</text>
<line x1="150" y1="560" x2="130" y2="560" stroke="#ffd60a" stroke-width="1.5" stroke-linecap="round"/>
<text x="125" y="560" fill="#ffd60a" font-size="2" font-family="monospace" text-anchor="end" dominant-baseline="middle">I/O_18B</text>
<line x1="150" y1="580" x2="130" y2="580" stroke="#ffd60a" stroke-width="1.5" stroke-linecap="round"/>
<text x="125" y="580" fill="#ffd60a" font-size="2" font-family="monospace" text-anchor="end" dominant-baseline="middle">I/O_19B</text>
<line x1="150" y1="600" x2="130" y2="600" stroke="#ffd60a" stroke-width="1.5" stroke-linecap="round"/>
<text x="125" y="600" fill="#ffd60a" font-size="2" font-family="monospace" text-anchor="end" dominant-baseline="middle">I/O_20B</text>
<line x1="150" y1="620" x2="130" y2="620" stroke="#ffd60a" stroke-width="1.5" stroke-linecap="round"/>
<text x="125" y="620" fill="#ffd60a" font-size="2" font-family="monospace" text-anchor="end" dominant-baseline="middle">I/O_21B</text>
<line x1="150" y1="640" x2="130" y2="640" stroke="#ffd60a" stroke-width="1.5" stroke-linecap="round"/>
<text x="125" y="640" fill="#ffd60a" font-size="2" font-family="monospace" text-anchor="end" dominant-baseline="middle">I/O_22B</text>
<line x1="150" y1="660" x2="130" y2="660" stroke="#ffd60a" stroke-width="1.5" stroke-linecap="round"/>
<text x="125" y="660" fill="#ffd60a" font-size="2" font-family="monospace" text-anchor="end" dominant-baseline="middle">I/O_23B</text>
<line x1="150" y1="680" x2="130" y2="680" stroke="#ffd60a" stroke-width="1.5" stroke-linecap="round"/>
<text x="125" y="680" fill="#ffd60a" font-size="2" font-family="monospace" text-anchor="end" dominant-baseline="middle">I/O_24B</text>
<line x1="70" y1="30" x2="70" y2="50" stroke="#ffd60a" stroke-width="1.5" stroke-linecap="round"/>
<text x="70" y="25" fill="#ffd60a" font-size="2" font-family="monospace" text-anchor="middle" dominant-baseline="middle">GND</text>
<line x1="110" y1="30" x2="110" y2="50" stroke="#ffd60a" stroke-width="1.5" stroke-linecap="round"/>
<text x="110" y="25" fill="#ffd60a" font-size="2" font-family="monospace" text-anchor="middle" dominant-baseline="middle">GND</text>
<line x1="70" y1="710" x2="70" y2="690" stroke="#ffd60a" stroke-width="1.5" stroke-linecap="round"/>
<text x="70" y="724" fill="#ffd60a" font-size="2" font-family="monospace" text-anchor="middle" dominant-baseline="middle">VCC</text>
<line x1="110" y1="710" x2="110" y2="690" stroke="#ffd60a" stroke-width="1.5" stroke-linecap="round"/>
<text x="110" y="724" fill="#ffd60a" font-size="2" font-family="monospace" text-anchor="middle" dominant-baseline="middle">VCC</text>
</svg>