<svg xmlns="http://www.w3.org/2000/svg" viewBox="0 0 280 920">
<rect x="50" y="50" width="180" height="820" stroke="#ffffff" stroke-width="1.5" fill="rgba(255,255,255,0.04)"/>
<text x="140" y="460" fill="#888" font-size="3" font-family="monospace" text-anchor="middle" dominant-baseline="middle">U</text>
<line x1="30" y1="60" x2="50" y2="60" stroke="#ffd60a" stroke-width="1.5" stroke-linecap="round"/>
<text x="55" y="60" fill="#ffd60a" font-size="2" font-family="monospace" text-anchor="start" dominant-baseline="middle">IO</text>
<line x1="30" y1="80" x2="50" y2="80" stroke="#ffd60a" stroke-width="1.5" stroke-linecap="round"/>
<text x="55" y="80" fill="#ffd60a" font-size="2" font-family="monospace" text-anchor="start" dominant-baseline="middle">IO</text>
<line x1="30" y1="100" x2="50" y2="100" stroke="#ffd60a" stroke-width="1.5" stroke-linecap="round"/>
<text x="55" y="100" fill="#ffd60a" font-size="2" font-family="monospace" text-anchor="start" dominant-baseline="middle">IO</text>
<line x1="30" y1="120" x2="50" y2="120" stroke="#ffd60a" stroke-width="1.5" stroke-linecap="round"/>
<text x="55" y="120" fill="#ffd60a" font-size="2" font-family="monospace" text-anchor="start" dominant-baseline="middle">IO</text>
<line x1="30" y1="140" x2="50" y2="140" stroke="#ffd60a" stroke-width="1.5" stroke-linecap="round"/>
<text x="55" y="140" fill="#ffd60a" font-size="2" font-family="monospace" text-anchor="start" dominant-baseline="middle">IO</text>
<line x1="30" y1="160" x2="50" y2="160" stroke="#ffd60a" stroke-width="1.5" stroke-linecap="round"/>
<text x="55" y="160" fill="#ffd60a" font-size="2" font-family="monospace" text-anchor="start" dominant-baseline="middle">IO</text>
<line x1="30" y1="180" x2="50" y2="180" stroke="#ffd60a" stroke-width="1.5" stroke-linecap="round"/>
<text x="55" y="180" fill="#ffd60a" font-size="2" font-family="monospace" text-anchor="start" dominant-baseline="middle">IO</text>
<line x1="30" y1="200" x2="50" y2="200" stroke="#ffd60a" stroke-width="1.5" stroke-linecap="round"/>
<text x="55" y="200" fill="#ffd60a" font-size="2" font-family="monospace" text-anchor="start" dominant-baseline="middle">IO</text>
<line x1="30" y1="220" x2="50" y2="220" stroke="#ffd60a" stroke-width="1.5" stroke-linecap="round"/>
<text x="55" y="220" fill="#ffd60a" font-size="2" font-family="monospace" text-anchor="start" dominant-baseline="middle">IO</text>
<line x1="30" y1="240" x2="50" y2="240" stroke="#ffd60a" stroke-width="1.5" stroke-linecap="round"/>
<text x="55" y="240" fill="#ffd60a" font-size="2" font-family="monospace" text-anchor="start" dominant-baseline="middle">IO</text>
<line x1="30" y1="260" x2="50" y2="260" stroke="#ffd60a" stroke-width="1.5" stroke-linecap="round"/>
<text x="55" y="260" fill="#ffd60a" font-size="2" font-family="monospace" text-anchor="start" dominant-baseline="middle">IO</text>
<line x1="30" y1="280" x2="50" y2="280" stroke="#ffd60a" stroke-width="1.5" stroke-linecap="round"/>
<text x="55" y="280" fill="#ffd60a" font-size="2" font-family="monospace" text-anchor="start" dominant-baseline="middle">IO</text>
<line x1="30" y1="300" x2="50" y2="300" stroke="#ffd60a" stroke-width="1.5" stroke-linecap="round"/>
<text x="55" y="300" fill="#ffd60a" font-size="2" font-family="monospace" text-anchor="start" dominant-baseline="middle">IO</text>
<line x1="30" y1="320" x2="50" y2="320" stroke="#ffd60a" stroke-width="1.5" stroke-linecap="round"/>
<text x="55" y="320" fill="#ffd60a" font-size="2" font-family="monospace" text-anchor="start" dominant-baseline="middle">IO</text>
<line x1="30" y1="340" x2="50" y2="340" stroke="#ffd60a" stroke-width="1.5" stroke-linecap="round"/>
<text x="55" y="340" fill="#ffd60a" font-size="2" font-family="monospace" text-anchor="start" dominant-baseline="middle">IO</text>
<line x1="30" y1="360" x2="50" y2="360" stroke="#ffd60a" stroke-width="1.5" stroke-linecap="round"/>
<text x="55" y="360" fill="#ffd60a" font-size="2" font-family="monospace" text-anchor="start" dominant-baseline="middle">IO</text>
<line x1="30" y1="380" x2="50" y2="380" stroke="#ffd60a" stroke-width="1.5" stroke-linecap="round"/>
<text x="55" y="380" fill="#ffd60a" font-size="2" font-family="monospace" text-anchor="start" dominant-baseline="middle">IO</text>
<line x1="30" y1="400" x2="50" y2="400" stroke="#ffd60a" stroke-width="1.5" stroke-linecap="round"/>
<text x="55" y="400" fill="#ffd60a" font-size="2" font-family="monospace" text-anchor="start" dominant-baseline="middle">IO</text>
<line x1="30" y1="420" x2="50" y2="420" stroke="#ffd60a" stroke-width="1.5" stroke-linecap="round"/>
<text x="55" y="420" fill="#ffd60a" font-size="2" font-family="monospace" text-anchor="start" dominant-baseline="middle">IO</text>
<line x1="30" y1="440" x2="50" y2="440" stroke="#ffd60a" stroke-width="1.5" stroke-linecap="round"/>
<text x="55" y="440" fill="#ffd60a" font-size="2" font-family="monospace" text-anchor="start" dominant-baseline="middle">IO</text>
<line x1="30" y1="460" x2="50" y2="460" stroke="#ffd60a" stroke-width="1.5" stroke-linecap="round"/>
<text x="55" y="460" fill="#ffd60a" font-size="2" font-family="monospace" text-anchor="start" dominant-baseline="middle">IO</text>
<line x1="30" y1="480" x2="50" y2="480" stroke="#ffd60a" stroke-width="1.5" stroke-linecap="round"/>
<text x="55" y="480" fill="#ffd60a" font-size="2" font-family="monospace" text-anchor="start" dominant-baseline="middle">IO</text>
<line x1="30" y1="500.00000000000006" x2="50" y2="500.00000000000006" stroke="#ffd60a" stroke-width="1.5" stroke-linecap="round"/>
<text x="55" y="500.00000000000006" fill="#ffd60a" font-size="2" font-family="monospace" text-anchor="start" dominant-baseline="middle">IO</text>
<line x1="30" y1="520" x2="50" y2="520" stroke="#ffd60a" stroke-width="1.5" stroke-linecap="round"/>
<text x="55" y="520" fill="#ffd60a" font-size="2" font-family="monospace" text-anchor="start" dominant-baseline="middle">IO</text>
<line x1="30" y1="540" x2="50" y2="540" stroke="#ffd60a" stroke-width="1.5" stroke-linecap="round"/>
<text x="55" y="540" fill="#ffd60a" font-size="2" font-family="monospace" text-anchor="start" dominant-baseline="middle">IO</text>
<line x1="30" y1="560" x2="50" y2="560" stroke="#ffd60a" stroke-width="1.5" stroke-linecap="round"/>
<text x="55" y="560" fill="#ffd60a" font-size="2" font-family="monospace" text-anchor="start" dominant-baseline="middle">IO</text>
<line x1="30" y1="580" x2="50" y2="580" stroke="#ffd60a" stroke-width="1.5" stroke-linecap="round"/>
<text x="55" y="580" fill="#ffd60a" font-size="2" font-family="monospace" text-anchor="start" dominant-baseline="middle">IO</text>
<line x1="30" y1="600" x2="50" y2="600" stroke="#ffd60a" stroke-width="1.5" stroke-linecap="round"/>
<text x="55" y="600" fill="#ffd60a" font-size="2" font-family="monospace" text-anchor="start" dominant-baseline="middle">IO</text>
<line x1="30" y1="620" x2="50" y2="620" stroke="#ffd60a" stroke-width="1.5" stroke-linecap="round"/>
<text x="55" y="620" fill="#ffd60a" font-size="2" font-family="monospace" text-anchor="start" dominant-baseline="middle">IO</text>
<line x1="30" y1="640" x2="50" y2="640" stroke="#ffd60a" stroke-width="1.5" stroke-linecap="round"/>
<text x="55" y="640" fill="#ffd60a" font-size="2" font-family="monospace" text-anchor="start" dominant-baseline="middle">IO</text>
<line x1="30" y1="660" x2="50" y2="660" stroke="#ffd60a" stroke-width="1.5" stroke-linecap="round"/>
<text x="55" y="660" fill="#ffd60a" font-size="2" font-family="monospace" text-anchor="start" dominant-baseline="middle">CLKA</text>
<line x1="30" y1="680" x2="50" y2="680" stroke="#ffd60a" stroke-width="1.5" stroke-linecap="round"/>
<text x="55" y="680" fill="#ffd60a" font-size="2" font-family="monospace" text-anchor="start" dominant-baseline="middle">CLKB</text>
<line x1="30" y1="700" x2="50" y2="700" stroke="#ffd60a" stroke-width="1.5" stroke-linecap="round"/>
<text x="55" y="700" fill="#ffd60a" font-size="2" font-family="monospace" text-anchor="start" dominant-baseline="middle">PRA/IO</text>
<line x1="30" y1="720" x2="50" y2="720" stroke="#ffd60a" stroke-width="1.5" stroke-linecap="round"/>
<text x="55" y="720" fill="#ffd60a" font-size="2" font-family="monospace" text-anchor="start" dominant-baseline="middle">IO</text>
<line x1="30" y1="740" x2="50" y2="740" stroke="#ffd60a" stroke-width="1.5" stroke-linecap="round"/>
<text x="55" y="740" fill="#ffd60a" font-size="2" font-family="monospace" text-anchor="start" dominant-baseline="middle">IO</text>
<line x1="30" y1="760" x2="50" y2="760" stroke="#ffd60a" stroke-width="1.5" stroke-linecap="round"/>
<text x="55" y="760" fill="#ffd60a" font-size="2" font-family="monospace" text-anchor="start" dominant-baseline="middle">IO</text>
<line x1="30" y1="780" x2="50" y2="780" stroke="#ffd60a" stroke-width="1.5" stroke-linecap="round"/>
<text x="55" y="780" fill="#ffd60a" font-size="2" font-family="monospace" text-anchor="start" dominant-baseline="middle">IO</text>
<line x1="30" y1="800" x2="50" y2="800" stroke="#ffd60a" stroke-width="1.5" stroke-linecap="round"/>
<text x="55" y="800" fill="#ffd60a" font-size="2" font-family="monospace" text-anchor="start" dominant-baseline="middle">IO</text>
<line x1="30" y1="820" x2="50" y2="820" stroke="#ffd60a" stroke-width="1.5" stroke-linecap="round"/>
<text x="55" y="820" fill="#ffd60a" font-size="2" font-family="monospace" text-anchor="start" dominant-baseline="middle">IO</text>
<line x1="30" y1="840" x2="50" y2="840" stroke="#ffd60a" stroke-width="1.5" stroke-linecap="round"/>
<text x="55" y="840" fill="#ffd60a" font-size="2" font-family="monospace" text-anchor="start" dominant-baseline="middle">IO</text>
<line x1="30" y1="860" x2="50" y2="860" stroke="#ffd60a" stroke-width="1.5" stroke-linecap="round"/>
<text x="55" y="860" fill="#ffd60a" font-size="2" font-family="monospace" text-anchor="start" dominant-baseline="middle">TCK/IO</text>
<line x1="250" y1="60" x2="230" y2="60" stroke="#ffd60a" stroke-width="1.5" stroke-linecap="round"/>
<text x="225" y="60" fill="#ffd60a" font-size="2" font-family="monospace" text-anchor="end" dominant-baseline="middle">IO/TDI</text>
<line x1="250" y1="80" x2="230" y2="80" stroke="#ffd60a" stroke-width="1.5" stroke-linecap="round"/>
<text x="225" y="80" fill="#ffd60a" font-size="2" font-family="monospace" text-anchor="end" dominant-baseline="middle">IO</text>
<line x1="250" y1="100" x2="230" y2="100" stroke="#ffd60a" stroke-width="1.5" stroke-linecap="round"/>
<text x="225" y="100" fill="#ffd60a" font-size="2" font-family="monospace" text-anchor="end" dominant-baseline="middle">IO</text>
<line x1="250" y1="120" x2="230" y2="120" stroke="#ffd60a" stroke-width="1.5" stroke-linecap="round"/>
<text x="225" y="120" fill="#ffd60a" font-size="2" font-family="monospace" text-anchor="end" dominant-baseline="middle">IO</text>
<line x1="250" y1="140" x2="230" y2="140" stroke="#ffd60a" stroke-width="1.5" stroke-linecap="round"/>
<text x="225" y="140" fill="#ffd60a" font-size="2" font-family="monospace" text-anchor="end" dominant-baseline="middle">IO</text>
<line x1="250" y1="160" x2="230" y2="160" stroke="#ffd60a" stroke-width="1.5" stroke-linecap="round"/>
<text x="225" y="160" fill="#ffd60a" font-size="2" font-family="monospace" text-anchor="end" dominant-baseline="middle">TMS</text>
<line x1="250" y1="180" x2="230" y2="180" stroke="#ffd60a" stroke-width="1.5" stroke-linecap="round"/>
<text x="225" y="180" fill="#ffd60a" font-size="2" font-family="monospace" text-anchor="end" dominant-baseline="middle">IO</text>
<line x1="250" y1="200" x2="230" y2="200" stroke="#ffd60a" stroke-width="1.5" stroke-linecap="round"/>
<text x="225" y="200" fill="#ffd60a" font-size="2" font-family="monospace" text-anchor="end" dominant-baseline="middle">IO</text>
<line x1="250" y1="220" x2="230" y2="220" stroke="#ffd60a" stroke-width="1.5" stroke-linecap="round"/>
<text x="225" y="220" fill="#ffd60a" font-size="2" font-family="monospace" text-anchor="end" dominant-baseline="middle">IO</text>
<line x1="250" y1="240" x2="230" y2="240" stroke="#ffd60a" stroke-width="1.5" stroke-linecap="round"/>
<text x="225" y="240" fill="#ffd60a" font-size="2" font-family="monospace" text-anchor="end" dominant-baseline="middle">IO</text>
<line x1="250" y1="260" x2="230" y2="260" stroke="#ffd60a" stroke-width="1.5" stroke-linecap="round"/>
<text x="225" y="260" fill="#ffd60a" font-size="2" font-family="monospace" text-anchor="end" dominant-baseline="middle">IO</text>
<line x1="250" y1="280" x2="230" y2="280" stroke="#ffd60a" stroke-width="1.5" stroke-linecap="round"/>
<text x="225" y="280" fill="#ffd60a" font-size="2" font-family="monospace" text-anchor="end" dominant-baseline="middle">IO</text>
<line x1="250" y1="300" x2="230" y2="300" stroke="#ffd60a" stroke-width="1.5" stroke-linecap="round"/>
<text x="225" y="300" fill="#ffd60a" font-size="2" font-family="monospace" text-anchor="end" dominant-baseline="middle">IO/TRST</text>
<line x1="250" y1="320" x2="230" y2="320" stroke="#ffd60a" stroke-width="1.5" stroke-linecap="round"/>
<text x="225" y="320" fill="#ffd60a" font-size="2" font-family="monospace" text-anchor="end" dominant-baseline="middle">IO</text>
<line x1="250" y1="340" x2="230" y2="340" stroke="#ffd60a" stroke-width="1.5" stroke-linecap="round"/>
<text x="225" y="340" fill="#ffd60a" font-size="2" font-family="monospace" text-anchor="end" dominant-baseline="middle">IO</text>
<line x1="250" y1="360" x2="230" y2="360" stroke="#ffd60a" stroke-width="1.5" stroke-linecap="round"/>
<text x="225" y="360" fill="#ffd60a" font-size="2" font-family="monospace" text-anchor="end" dominant-baseline="middle">IO</text>
<line x1="250" y1="380" x2="230" y2="380" stroke="#ffd60a" stroke-width="1.5" stroke-linecap="round"/>
<text x="225" y="380" fill="#ffd60a" font-size="2" font-family="monospace" text-anchor="end" dominant-baseline="middle">IO</text>
<line x1="250" y1="400" x2="230" y2="400" stroke="#ffd60a" stroke-width="1.5" stroke-linecap="round"/>
<text x="225" y="400" fill="#ffd60a" font-size="2" font-family="monospace" text-anchor="end" dominant-baseline="middle">IO</text>
<line x1="250" y1="420" x2="230" y2="420" stroke="#ffd60a" stroke-width="1.5" stroke-linecap="round"/>
<text x="225" y="420" fill="#ffd60a" font-size="2" font-family="monospace" text-anchor="end" dominant-baseline="middle">IO</text>
<line x1="250" y1="440" x2="230" y2="440" stroke="#ffd60a" stroke-width="1.5" stroke-linecap="round"/>
<text x="225" y="440" fill="#ffd60a" font-size="2" font-family="monospace" text-anchor="end" dominant-baseline="middle">IO</text>
<line x1="250" y1="460" x2="230" y2="460" stroke="#ffd60a" stroke-width="1.5" stroke-linecap="round"/>
<text x="225" y="460" fill="#ffd60a" font-size="2" font-family="monospace" text-anchor="end" dominant-baseline="middle">IO</text>
<line x1="250" y1="480" x2="230" y2="480" stroke="#ffd60a" stroke-width="1.5" stroke-linecap="round"/>
<text x="225" y="480" fill="#ffd60a" font-size="2" font-family="monospace" text-anchor="end" dominant-baseline="middle">IO</text>
<line x1="250" y1="500.00000000000006" x2="230" y2="500.00000000000006" stroke="#ffd60a" stroke-width="1.5" stroke-linecap="round"/>
<text x="225" y="500.00000000000006" fill="#ffd60a" font-size="2" font-family="monospace" text-anchor="end" dominant-baseline="middle">IO</text>
<line x1="250" y1="520" x2="230" y2="520" stroke="#ffd60a" stroke-width="1.5" stroke-linecap="round"/>
<text x="225" y="520" fill="#ffd60a" font-size="2" font-family="monospace" text-anchor="end" dominant-baseline="middle">IO</text>
<line x1="250" y1="540" x2="230" y2="540" stroke="#ffd60a" stroke-width="1.5" stroke-linecap="round"/>
<text x="225" y="540" fill="#ffd60a" font-size="2" font-family="monospace" text-anchor="end" dominant-baseline="middle">IO</text>
<line x1="250" y1="560" x2="230" y2="560" stroke="#ffd60a" stroke-width="1.5" stroke-linecap="round"/>
<text x="225" y="560" fill="#ffd60a" font-size="2" font-family="monospace" text-anchor="end" dominant-baseline="middle">IO</text>
<line x1="250" y1="580" x2="230" y2="580" stroke="#ffd60a" stroke-width="1.5" stroke-linecap="round"/>
<text x="225" y="580" fill="#ffd60a" font-size="2" font-family="monospace" text-anchor="end" dominant-baseline="middle">IO</text>
<line x1="250" y1="600" x2="230" y2="600" stroke="#ffd60a" stroke-width="1.5" stroke-linecap="round"/>
<text x="225" y="600" fill="#ffd60a" font-size="2" font-family="monospace" text-anchor="end" dominant-baseline="middle">IO</text>
<line x1="250" y1="620" x2="230" y2="620" stroke="#ffd60a" stroke-width="1.5" stroke-linecap="round"/>
<text x="225" y="620" fill="#ffd60a" font-size="2" font-family="monospace" text-anchor="end" dominant-baseline="middle">IO</text>
<line x1="250" y1="640" x2="230" y2="640" stroke="#ffd60a" stroke-width="1.5" stroke-linecap="round"/>
<text x="225" y="640" fill="#ffd60a" font-size="2" font-family="monospace" text-anchor="end" dominant-baseline="middle">IO/PRB</text>
<line x1="250" y1="660" x2="230" y2="660" stroke="#ffd60a" stroke-width="1.5" stroke-linecap="round"/>
<text x="225" y="660" fill="#ffd60a" font-size="2" font-family="monospace" text-anchor="end" dominant-baseline="middle">IO</text>
<line x1="250" y1="680" x2="230" y2="680" stroke="#ffd60a" stroke-width="1.5" stroke-linecap="round"/>
<text x="225" y="680" fill="#ffd60a" font-size="2" font-family="monospace" text-anchor="end" dominant-baseline="middle">HCLK</text>
<line x1="250" y1="700" x2="230" y2="700" stroke="#ffd60a" stroke-width="1.5" stroke-linecap="round"/>
<text x="225" y="700" fill="#ffd60a" font-size="2" font-family="monospace" text-anchor="end" dominant-baseline="middle">IO</text>
<line x1="250" y1="720" x2="230" y2="720" stroke="#ffd60a" stroke-width="1.5" stroke-linecap="round"/>
<text x="225" y="720" fill="#ffd60a" font-size="2" font-family="monospace" text-anchor="end" dominant-baseline="middle">IO</text>
<line x1="250" y1="740" x2="230" y2="740" stroke="#ffd60a" stroke-width="1.5" stroke-linecap="round"/>
<text x="225" y="740" fill="#ffd60a" font-size="2" font-family="monospace" text-anchor="end" dominant-baseline="middle">IO</text>
<line x1="250" y1="760" x2="230" y2="760" stroke="#ffd60a" stroke-width="1.5" stroke-linecap="round"/>
<text x="225" y="760" fill="#ffd60a" font-size="2" font-family="monospace" text-anchor="end" dominant-baseline="middle">IO</text>
<line x1="250" y1="780" x2="230" y2="780" stroke="#ffd60a" stroke-width="1.5" stroke-linecap="round"/>
<text x="225" y="780" fill="#ffd60a" font-size="2" font-family="monospace" text-anchor="end" dominant-baseline="middle">IO</text>
<line x1="250" y1="800" x2="230" y2="800" stroke="#ffd60a" stroke-width="1.5" stroke-linecap="round"/>
<text x="225" y="800" fill="#ffd60a" font-size="2" font-family="monospace" text-anchor="end" dominant-baseline="middle">IO</text>
<line x1="250" y1="820" x2="230" y2="820" stroke="#ffd60a" stroke-width="1.5" stroke-linecap="round"/>
<text x="225" y="820" fill="#ffd60a" font-size="2" font-family="monospace" text-anchor="end" dominant-baseline="middle">IO</text>
<line x1="250" y1="840" x2="230" y2="840" stroke="#ffd60a" stroke-width="1.5" stroke-linecap="round"/>
<text x="225" y="840" fill="#ffd60a" font-size="2" font-family="monospace" text-anchor="end" dominant-baseline="middle">IO</text>
<line x1="250" y1="860" x2="230" y2="860" stroke="#ffd60a" stroke-width="1.5" stroke-linecap="round"/>
<text x="225" y="860" fill="#ffd60a" font-size="2" font-family="monospace" text-anchor="end" dominant-baseline="middle">IO/TDO</text>
<line x1="62.857142857142854" y1="30" x2="62.857142857142854" y2="50" stroke="#ffd60a" stroke-width="1.5" stroke-linecap="round"/>
<text x="62.857142857142854" y="25" fill="#ffd60a" font-size="2" font-family="monospace" text-anchor="middle" dominant-baseline="middle">GND</text>
<line x1="88.57142857142857" y1="30" x2="88.57142857142857" y2="50" stroke="#ffd60a" stroke-width="1.5" stroke-linecap="round"/>
<text x="88.57142857142857" y="25" fill="#ffd60a" font-size="2" font-family="monospace" text-anchor="middle" dominant-baseline="middle">GND</text>
<line x1="114.28571428571429" y1="30" x2="114.28571428571429" y2="50" stroke="#ffd60a" stroke-width="1.5" stroke-linecap="round"/>
<text x="114.28571428571429" y="25" fill="#ffd60a" font-size="2" font-family="monospace" text-anchor="middle" dominant-baseline="middle">GND</text>
<line x1="140" y1="30" x2="140" y2="50" stroke="#ffd60a" stroke-width="1.5" stroke-linecap="round"/>
<text x="140" y="25" fill="#ffd60a" font-size="2" font-family="monospace" text-anchor="middle" dominant-baseline="middle">GND</text>
<line x1="165.71428571428572" y1="30" x2="165.71428571428572" y2="50" stroke="#ffd60a" stroke-width="1.5" stroke-linecap="round"/>
<text x="165.71428571428572" y="25" fill="#ffd60a" font-size="2" font-family="monospace" text-anchor="middle" dominant-baseline="middle">GND/LP</text>
<line x1="191.42857142857142" y1="30" x2="191.42857142857142" y2="50" stroke="#ffd60a" stroke-width="1.5" stroke-linecap="round"/>
<text x="191.42857142857142" y="25" fill="#ffd60a" font-size="2" font-family="monospace" text-anchor="middle" dominant-baseline="middle">GND</text>
<line x1="217.14285714285714" y1="30" x2="217.14285714285714" y2="50" stroke="#ffd60a" stroke-width="1.5" stroke-linecap="round"/>
<text x="217.14285714285714" y="25" fill="#ffd60a" font-size="2" font-family="monospace" text-anchor="middle" dominant-baseline="middle">GND</text>
<line x1="60" y1="890" x2="60" y2="870" stroke="#ffd60a" stroke-width="1.5" stroke-linecap="round"/>
<text x="60" y="904" fill="#ffd60a" font-size="2" font-family="monospace" text-anchor="middle" dominant-baseline="middle">VCCI</text>
<line x1="80" y1="890" x2="80" y2="870" stroke="#ffd60a" stroke-width="1.5" stroke-linecap="round"/>
<text x="80" y="904" fill="#ffd60a" font-size="2" font-family="monospace" text-anchor="middle" dominant-baseline="middle">VCCI</text>
<line x1="100" y1="890" x2="100" y2="870" stroke="#ffd60a" stroke-width="1.5" stroke-linecap="round"/>
<text x="100" y="904" fill="#ffd60a" font-size="2" font-family="monospace" text-anchor="middle" dominant-baseline="middle">VCCA</text>
<line x1="120" y1="890" x2="120" y2="870" stroke="#ffd60a" stroke-width="1.5" stroke-linecap="round"/>
<text x="120" y="904" fill="#ffd60a" font-size="2" font-family="monospace" text-anchor="middle" dominant-baseline="middle">VCCI</text>
<line x1="140" y1="890" x2="140" y2="870" stroke="#ffd60a" stroke-width="1.5" stroke-linecap="round"/>
<text x="140" y="904" fill="#ffd60a" font-size="2" font-family="monospace" text-anchor="middle" dominant-baseline="middle">VSV</text>
<line x1="160" y1="890" x2="160" y2="870" stroke="#ffd60a" stroke-width="1.5" stroke-linecap="round"/>
<text x="160" y="904" fill="#ffd60a" font-size="2" font-family="monospace" text-anchor="middle" dominant-baseline="middle">VCCI</text>
<line x1="180" y1="890" x2="180" y2="870" stroke="#ffd60a" stroke-width="1.5" stroke-linecap="round"/>
<text x="180" y="904" fill="#ffd60a" font-size="2" font-family="monospace" text-anchor="middle" dominant-baseline="middle">VCCA</text>
<line x1="200" y1="890" x2="200" y2="870" stroke="#ffd60a" stroke-width="1.5" stroke-linecap="round"/>
<text x="200" y="904" fill="#ffd60a" font-size="2" font-family="monospace" text-anchor="middle" dominant-baseline="middle">VCCI</text>
<line x1="220" y1="890" x2="220" y2="870" stroke="#ffd60a" stroke-width="1.5" stroke-linecap="round"/>
<text x="220" y="904" fill="#ffd60a" font-size="2" font-family="monospace" text-anchor="middle" dominant-baseline="middle">VCCA</text>
</svg>