<svg xmlns="http://www.w3.org/2000/svg" viewBox="0 0 17.144 24.16">
<path d="M 8.572 12.08 A 4.662957114228457 4.662957114228457 0 0 1 8.572 16.652" stroke="#ffffff" stroke-width="0.3" fill="none"/>
<path d="M 8.572 12.08 A 3.7637648059844824 3.7637648059844824 0 0 1 7.047999999999999 16.398" stroke="#ffffff" stroke-width="0.3" fill="none"/>
<path d="M 8.572 12.08 A 4.662957114228457 4.662957114228457 0 0 1 3.999999999999999 12.08" stroke="#ffffff" stroke-width="0.3" fill="none"/>
<path d="M 8.572 12.08 A 3.7637648059844824 3.7637648059844824 0 0 1 4.254 10.556000000000001" stroke="#ffffff" stroke-width="0.3" fill="none"/>
<line x1="8.572" y1="7.508" x2="8.572" y2="7" stroke="#ffffff" stroke-width="0.3" stroke-linecap="round" fill="none"/>
<circle cx="8.572" cy="12.08" r="4.572" stroke="#ffffff" stroke-width="0.3" fill="none"/>
<line x1="8.572" y1="17.16" x2="8.572" y2="16.652" stroke="#ffffff" stroke-width="0.3" stroke-linecap="round" fill="none"/>
<path d="M 8.572 12.08 A 3.7637648059844824 3.7637648059844824 0 0 1 12.889999999999999 13.604" stroke="#ffffff" stroke-width="0.3" fill="none"/>
<path d="M 8.572 12.08 A 4.662957114228457 4.662957114228457 0 0 1 13.143999999999998 12.08" stroke="#ffffff" stroke-width="0.3" fill="none"/>
<path d="M 8.572 12.08 A 3.7755544416951423 3.7755544416951423 0 0 1 10.096 7.7620000000000005" stroke="#ffffff" stroke-width="0.3" fill="none"/>
<path d="M 8.572 12.08 A 4.662957114228457 4.662957114228457 0 0 1 8.572 7.508" stroke="#ffffff" stroke-width="0.3" fill="none"/>
<line x1="8.572" y1="4.46" x2="8.572" y2="7" stroke="#ffd60a" stroke-width="0.34514285714285714" stroke-linecap="round"/>
<text x="8.572" y="4" fill="#ffd60a" font-size="1" font-family="monospace" text-anchor="middle" dominant-baseline="middle">+</text>
<line x1="8.572" y1="19.7" x2="8.572" y2="17.16" stroke="#ffd60a" stroke-width="0.34514285714285714" stroke-linecap="round"/>
<text x="8.572" y="20.16" fill="#ffd60a" font-size="1" font-family="monospace" text-anchor="middle" dominant-baseline="middle">-</text>
</svg>