<svg xmlns="http://www.w3.org/2000/svg" viewBox="0 0 24.16 25.605">
<polyline points="7,10.985 12.08,10.985 12.08,13.525" stroke="#ffffff" stroke-width="0.3" stroke-linejoin="round" stroke-linecap="round" fill="none"/>
<line x1="9.794" y1="14.16" x2="9.794" y2="17.97" stroke="#ffffff" stroke-width="0.3" stroke-linecap="round" fill="none"/>
<line x1="9.794" y1="16.065" x2="7" y2="16.065" stroke="#ffffff" stroke-width="0.3" stroke-linecap="round" fill="none"/>
<line x1="10.302" y1="13.779" x2="10.302" y2="14.795" stroke="#ffffff" stroke-width="0.3" stroke-linecap="round" fill="none"/>
<line x1="10.302" y1="15.557" x2="10.302" y2="16.573" stroke="#ffffff" stroke-width="0.3" stroke-linecap="round" fill="none"/>
<line x1="10.302" y1="17.335" x2="10.302" y2="18.351" stroke="#ffffff" stroke-width="0.3" stroke-linecap="round" fill="none"/>
<polyline points="10.302,17.843 12.842,17.843 12.842,14.287 10.302,14.287" stroke="#ffffff" stroke-width="0.3" stroke-linejoin="round" stroke-linecap="round" fill="none"/>
<circle cx="11.191" cy="16.065" r="2.794" stroke="#ffffff" stroke-width="0.3" fill="none"/>
<line x1="12.08" y1="13.525" x2="12.08" y2="14.287" stroke="#ffffff" stroke-width="0.3" stroke-linecap="round" fill="none"/>
<circle cx="12.08" cy="14.287" r="0.254" stroke="#ffffff" stroke-width="0.3" fill="#ffffff"/>
<circle cx="12.08" cy="17.843" r="0.254" stroke="#ffffff" stroke-width="0.3" fill="#ffffff"/>
<polyline points="12.08,18.605 12.08,16.065 10.302,16.065" stroke="#ffffff" stroke-width="0.3" stroke-linejoin="round" stroke-linecap="round" fill="none"/>
<line x1="17.16" y1="5.905" x2="13.731" y2="5.905" stroke="#ffffff" stroke-width="0.3" stroke-linecap="round" fill="none"/>
<polyline points="8.651,5.905 11.191,5.905 11.191,7.683000000000001" stroke="#ffffff" stroke-width="0.3" stroke-linejoin="round" stroke-linecap="round" fill="none"/>
<line x1="8.905000000000001" y1="5.905" x2="6.111" y2="5.905" stroke="#ffffff" stroke-width="0.3" stroke-linecap="round" fill="none"/>
<circle cx="9.413" cy="5.905" r="0.254" stroke="#ffffff" stroke-width="0.3" fill="#ffffff"/>
<polyline points="9.413,7.683000000000001 9.413,5.143000000000001 12.969,5.143000000000001 12.969,7.683000000000001" stroke="#ffffff" stroke-width="0.3" stroke-linejoin="round" stroke-linecap="round" fill="none"/>
<line x1="9.921" y1="7.683000000000001" x2="8.905000000000001" y2="7.683000000000001" stroke="#ffffff" stroke-width="0.3" stroke-linecap="round" fill="none"/>
<polyline points="10.556000000000001,16.065 11.572,15.684000000000001 11.572,16.446 10.556000000000001,16.065" stroke="#ffffff" stroke-width="0.3" stroke-linejoin="round" stroke-linecap="round" fill="#ffffff"/>
<polyline points="10.683,5.651000000000001 10.81,5.524000000000001 10.81,4.7620000000000005 10.937,4.635" stroke="#ffffff" stroke-width="0.3" stroke-linejoin="round" stroke-linecap="round" fill="none"/>
<polyline points="10.81,5.143000000000001 11.445,5.524000000000001 11.445,4.7620000000000005 10.81,5.143000000000001" stroke="#ffffff" stroke-width="0.3" stroke-linejoin="round" stroke-linecap="round" fill="none"/>
<polyline points="11.191,6.159000000000001 11.572,7.175000000000001 10.81,7.175000000000001 11.191,6.159000000000001" stroke="#ffffff" stroke-width="0.3" stroke-linejoin="round" stroke-linecap="round" fill="#ffffff"/>
<circle cx="11.191" cy="6.7940000000000005" r="2.794" stroke="#ffffff" stroke-width="0.3" fill="none"/>
<line x1="11.191" y1="8.191" x2="11.191" y2="10.985" stroke="#ffffff" stroke-width="0.3" stroke-linecap="round" fill="none"/>
<circle cx="11.191" cy="10.985" r="0.254" stroke="#ffffff" stroke-width="0.3" fill="#ffffff"/>
<line x1="11.699" y1="7.683000000000001" x2="10.683" y2="7.683000000000001" stroke="#ffffff" stroke-width="0.3" stroke-linecap="round" fill="none"/>
<polyline points="12.334,15.557 12.461,15.684000000000001 13.223,15.684000000000001 13.35,15.811" stroke="#ffffff" stroke-width="0.3" stroke-linejoin="round" stroke-linecap="round" fill="none"/>
<polyline points="12.842,15.684000000000001 12.461,16.319 13.223,16.319 12.842,15.684000000000001" stroke="#ffffff" stroke-width="0.3" stroke-linejoin="round" stroke-linecap="round" fill="none"/>
<circle cx="12.969" cy="5.905" r="0.254" stroke="#ffffff" stroke-width="0.3" fill="#ffffff"/>
<line x1="13.096" y1="8.191" x2="9.286" y2="8.191" stroke="#ffffff" stroke-width="0.3" stroke-linecap="round" fill="none"/>
<line x1="13.477" y1="7.683000000000001" x2="12.461" y2="7.683000000000001" stroke="#ffffff" stroke-width="0.3" stroke-linecap="round" fill="none"/>
<line x1="13.731" y1="5.905" x2="12.969" y2="5.905" stroke="#ffffff" stroke-width="0.3" stroke-linecap="round" fill="none"/>
<line x1="12.08" y1="21.145" x2="12.08" y2="18.605" stroke="#ffd60a" stroke-width="0.36578571428571427" stroke-linecap="round"/>
<text x="12.08" y="21.605" fill="#ffd60a" font-size="1" font-family="monospace" text-anchor="middle" dominant-baseline="middle">S1</text>
<line x1="19.7" y1="5.905" x2="17.16" y2="5.905" stroke="#ffd60a" stroke-width="0.36578571428571427" stroke-linecap="round"/>
<text x="20.16" y="5.905" fill="#ffd60a" font-size="1" font-family="monospace" text-anchor="end" dominant-baseline="middle">D2</text>
<line x1="19.7" y1="5.905" x2="17.16" y2="5.905" stroke="#ffd60a" stroke-width="0.36578571428571427" stroke-linecap="round"/>
<text x="20.16" y="5.905" fill="#ffd60a" font-size="1" font-family="monospace" text-anchor="end" dominant-baseline="middle">D2</text>
<line x1="4.46" y1="5.905" x2="7" y2="5.905" stroke="#ffd60a" stroke-width="0.36578571428571427" stroke-linecap="round"/>
<text x="4" y="5.905" fill="#ffd60a" font-size="1" font-family="monospace" text-anchor="start" dominant-baseline="middle">S2</text>
<line x1="4.46" y1="16.065" x2="7" y2="16.065" stroke="#ffd60a" stroke-width="0.36578571428571427" stroke-linecap="round"/>
<text x="4" y="16.065" fill="#ffd60a" font-size="1" font-family="monospace" text-anchor="start" dominant-baseline="middle">G1</text>
<line x1="4.46" y1="10.985" x2="7" y2="10.985" stroke="#ffd60a" stroke-width="0.36578571428571427" stroke-linecap="round"/>
<text x="4" y="10.985" fill="#ffd60a" font-size="1" font-family="monospace" text-anchor="start" dominant-baseline="middle">D1</text>
</svg>