<svg xmlns="http://www.w3.org/2000/svg" viewBox="0 0 24.16 14.81">
<rect x="6.365" y="8.445" width="11.303" height="4.445" stroke="#ffffff" stroke-width="0.3" fill="rgba(255,255,255,0.06)"/>
<line x1="7" y1="5.2700000000000005" x2="9.54" y2="5.2700000000000005" stroke="#ffffff" stroke-width="0.3" stroke-linecap="round" fill="none"/>
<rect x="7" y="7.048" width="2.032" height="0.254" stroke="#ffffff" stroke-width="0.3" fill="#ffffff"/>
<circle cx="8.016" cy="5.2700000000000005" r="0.254" stroke="#ffffff" stroke-width="0.3" fill="#ffffff"/>
<line x1="8.016" y1="5.2700000000000005" x2="8.016" y2="6.032" stroke="#ffffff" stroke-width="0.3" stroke-linecap="round" fill="none"/>
<polyline points="8.016,7.048 8.016,7.8100000000000005 15.89,7.8100000000000005 15.89,7.048" stroke="#ffffff" stroke-width="0.3" stroke-linejoin="round" stroke-linecap="round" fill="none"/>
<rect x="7" y="6.2860000000000005" width="2.032" height="0.254" stroke="#ffffff" stroke-width="0.3" fill="#ffffff"/>
<path d="M 9.54 5.2700000000000005 A 0.5080047844998032 0.5080047844998032 0 0 1 10.556000000000001 5.2700000000000005" stroke="#ffffff" stroke-width="0.3" fill="none"/>
<path d="M 10.556000000000001 5.2700000000000005 A 0.5080047844998019 0.5080047844998019 0 0 1 11.572 5.2700000000000005" stroke="#ffffff" stroke-width="0.3" fill="none"/>
<path d="M 11.572 5.2700000000000005 A 0.5080047844998024 0.5080047844998024 0 0 1 12.588000000000001 5.2700000000000005" stroke="#ffffff" stroke-width="0.3" fill="none"/>
<circle cx="12.08" cy="7.8100000000000005" r="0.254" stroke="#ffffff" stroke-width="0.3" fill="#ffffff"/>
<path d="M 12.588000000000001 5.2700000000000005 A 0.5080047844998028 0.5080047844998028 0 0 1 13.604 5.2700000000000005" stroke="#ffffff" stroke-width="0.3" fill="none"/>
<path d="M 13.604 5.2700000000000005 A 0.5080047844998015 0.5080047844998015 0 0 1 14.620000000000001 5.2700000000000005" stroke="#ffffff" stroke-width="0.3" fill="none"/>
<line x1="14.620000000000001" y1="5.2700000000000005" x2="17.16" y2="5.2700000000000005" stroke="#ffffff" stroke-width="0.3" stroke-linecap="round" fill="none"/>
<rect x="14.874" y="7.048" width="2.0319999999999996" height="0.254" stroke="#ffffff" stroke-width="0.3" fill="#ffffff"/>
<line x1="15.89" y1="5.2700000000000005" x2="15.89" y2="6.032" stroke="#ffffff" stroke-width="0.3" stroke-linecap="round" fill="none"/>
<circle cx="15.89" cy="5.2700000000000005" r="0.254" stroke="#ffffff" stroke-width="0.3" fill="#ffffff"/>
<rect x="14.874" y="6.2860000000000005" width="2.0319999999999996" height="0.254" stroke="#ffffff" stroke-width="0.3" fill="#ffffff"/>
<line x1="4.46" y1="5.2700000000000005" x2="7" y2="5.2700000000000005" stroke="#ffd60a" stroke-width="0.34514285714285714" stroke-linecap="round"/>
<text x="4" y="5.2700000000000005" fill="#ffd60a" font-size="1" font-family="monospace" text-anchor="start" dominant-baseline="middle">1</text>
<line x1="12.08" y1="10.350000000000001" x2="12.08" y2="7.8100000000000005" stroke="#ffd60a" stroke-width="0.34514285714285714" stroke-linecap="round"/>
<text x="12.08" y="10.81" fill="#ffd60a" font-size="1" font-family="monospace" text-anchor="middle" dominant-baseline="middle">2</text>
<line x1="19.7" y1="5.2700000000000005" x2="17.16" y2="5.27" stroke="#ffd60a" stroke-width="0.34514285714285714" stroke-linecap="round"/>
<text x="20.16" y="5.2700000000000005" fill="#ffd60a" font-size="1" font-family="monospace" text-anchor="end" dominant-baseline="middle">3</text>
</svg>