<svg xmlns="http://www.w3.org/2000/svg" viewBox="0 0 19.08 15.239">
<circle cx="6.999999999999999" cy="4.254" r="0.254" stroke="#ffffff" stroke-width="0.3" fill="#ffffff"/>
<line x1="6.999999999999999" y1="6.159" x2="12.460999999999999" y2="6.159" stroke="#ffffff" stroke-width="0.3" stroke-linecap="round" fill="none"/>
<circle cx="6.999999999999999" cy="6.7940000000000005" r="0.254" stroke="#ffffff" stroke-width="0.3" fill="#ffffff"/>
<line x1="6.999999999999999" y1="8.699" x2="12.460999999999999" y2="8.699" stroke="#ffffff" stroke-width="0.3" stroke-linecap="round" fill="none"/>
<circle cx="6.999999999999999" cy="9.334" r="0.254" stroke="#ffffff" stroke-width="0.3" fill="#ffffff"/>
<line x1="6.999999999999999" y1="11.239" x2="12.460999999999999" y2="11.239" stroke="#ffffff" stroke-width="0.3" stroke-linecap="round" fill="none"/>
<path d="M 6.999999999999999 5.524 A 0.6350057646686711 0.6350057646686711 0 0 1 8.27 5.524" stroke="#ffffff" stroke-width="0.3" fill="none"/>
<path d="M 6.999999999999999 8.064 A 0.6350057646686704 0.6350057646686704 0 0 1 8.27 8.064" stroke="#ffffff" stroke-width="0.3" fill="none"/>
<path d="M 6.999999999999999 10.604 A 0.6350057646686706 0.6350057646686706 0 0 1 8.27 10.604" stroke="#ffffff" stroke-width="0.3" fill="none"/>
<line x1="8.651" y1="7.937" x2="6.999999999999999" y2="8.699" stroke="#ffffff" stroke-width="0.3" stroke-linecap="round" fill="none"/>
<line x1="8.651" y1="10.477" x2="6.999999999999999" y2="11.239" stroke="#ffffff" stroke-width="0.3" stroke-linecap="round" fill="none"/>
<path d="M 8.27 5.524 A 0.6350057646686693 0.6350057646686693 0 0 1 9.54 5.524" stroke="#ffffff" stroke-width="0.3" fill="none"/>
<path d="M 8.27 8.064 A 0.6350057646686701 0.6350057646686701 0 0 1 9.54 8.064" stroke="#ffffff" stroke-width="0.3" fill="none"/>
<path d="M 8.27 10.604 A 0.6350057646686694 0.6350057646686694 0 0 1 9.54 10.604" stroke="#ffffff" stroke-width="0.3" fill="none"/>
<path d="M 9.54 5.524 A 0.6350057646686706 0.6350057646686706 0 0 1 10.809999999999999 5.524" stroke="#ffffff" stroke-width="0.3" fill="none"/>
<path d="M 9.54 8.064 A 0.6350057646686699 0.6350057646686699 0 0 1 10.809999999999999 8.064" stroke="#ffffff" stroke-width="0.3" fill="none"/>
<path d="M 9.54 10.604 A 0.6350057646686705 0.6350057646686705 0 0 1 10.809999999999999 10.604" stroke="#ffffff" stroke-width="0.3" fill="none"/>
<line x1="10.302" y1="7.175" x2="9.286" y2="7.683" stroke="#ffffff" stroke-width="0.3" stroke-linecap="round" fill="none"/>
<line x1="10.302" y1="9.715" x2="9.286" y2="10.222999999999999" stroke="#ffffff" stroke-width="0.3" stroke-linecap="round" fill="none"/>
<path d="M 10.809999999999999 5.524 A 0.6350057646686689 0.6350057646686689 0 0 1 12.079999999999998 5.524" stroke="#ffffff" stroke-width="0.3" fill="none"/>
<path d="M 10.809999999999999 8.064 A 0.6350057646686695 0.6350057646686695 0 0 1 12.079999999999998 8.064" stroke="#ffffff" stroke-width="0.3" fill="none"/>
<path d="M 10.809999999999999 10.604 A 0.6350057646686693 0.6350057646686693 0 0 1 12.079999999999998 10.604" stroke="#ffffff" stroke-width="0.3" fill="none"/>
<line x1="12.460999999999999" y1="6.159" x2="10.809999999999999" y2="6.921" stroke="#ffffff" stroke-width="0.3" stroke-linecap="round" fill="none"/>
<line x1="12.460999999999999" y1="8.699" x2="10.809999999999999" y2="9.461" stroke="#ffffff" stroke-width="0.3" stroke-linecap="round" fill="none"/>
<line x1="4.459999999999999" y1="5.524" x2="6.999999999999999" y2="5.524" stroke="#ffd60a" stroke-width="0.2725714285714285" stroke-linecap="round"/>
<text x="3.999999999999999" y="5.524" fill="#ffd60a" font-size="1" font-family="monospace" text-anchor="start" dominant-baseline="middle">1</text>
<line x1="4.459999999999999" y1="8.064" x2="6.999999999999999" y2="8.064" stroke="#ffd60a" stroke-width="0.2725714285714285" stroke-linecap="round"/>
<text x="3.999999999999999" y="8.064" fill="#ffd60a" font-size="1" font-family="monospace" text-anchor="start" dominant-baseline="middle">2</text>
<line x1="4.459999999999999" y1="10.604" x2="6.999999999999999" y2="10.604" stroke="#ffd60a" stroke-width="0.2725714285714285" stroke-linecap="round"/>
<text x="3.999999999999999" y="10.604" fill="#ffd60a" font-size="1" font-family="monospace" text-anchor="start" dominant-baseline="middle">3</text>
<line x1="14.62" y1="10.604" x2="12.079999999999998" y2="10.604" stroke="#ffd60a" stroke-width="0.2725714285714285" stroke-linecap="round"/>
<text x="15.079999999999998" y="10.604" fill="#ffd60a" font-size="1" font-family="monospace" text-anchor="end" dominant-baseline="middle">4</text>
<line x1="14.62" y1="8.064" x2="12.079999999999998" y2="8.064" stroke="#ffd60a" stroke-width="0.2725714285714285" stroke-linecap="round"/>
<text x="15.079999999999998" y="8.064" fill="#ffd60a" font-size="1" font-family="monospace" text-anchor="end" dominant-baseline="middle">5</text>
<line x1="14.62" y1="5.524" x2="12.079999999999998" y2="5.523999999999999" stroke="#ffd60a" stroke-width="0.2725714285714285" stroke-linecap="round"/>
<text x="15.079999999999998" y="5.524" fill="#ffd60a" font-size="1" font-family="monospace" text-anchor="end" dominant-baseline="middle">6</text>
</svg>