<svg xmlns="http://www.w3.org/2000/svg" viewBox="0 0 29.240000000000002 15.620000000000001">
<rect x="7.000000000000001" y="11.620000000000001" width="15.24" height="7.62" stroke="#ffffff" stroke-width="0.3" fill="rgba(255,255,255,0.06)"/>
<rect x="9.794" y="7.556000000000001" width="2.0319999999999996" height="0.254" stroke="#ffffff" stroke-width="0.3" fill="#ffffff"/>
<rect x="9.794" y="8.318000000000001" width="2.0319999999999996" height="0.254" stroke="#ffffff" stroke-width="0.3" fill="#ffffff"/>
<line x1="10.81" y1="7.3020000000000005" x2="10.81" y2="5.2700000000000005" stroke="#ffffff" stroke-width="0.3" stroke-linecap="round" fill="none"/>
<line x1="10.81" y1="8.318000000000001" x2="10.81" y2="10.350000000000001" stroke="#ffffff" stroke-width="0.3" stroke-linecap="round" fill="none"/>
<line x1="13.096" y1="5.2700000000000005" x2="9.032" y2="5.2700000000000005" stroke="#ffffff" stroke-width="0.3" stroke-linecap="round" fill="none"/>
<line x1="13.096" y1="10.350000000000001" x2="9.032" y2="10.350000000000001" stroke="#ffffff" stroke-width="0.3" stroke-linecap="round" fill="none"/>
<path d="M 13.096 5.2700000000000005 A 0.38100337374802296 0.38100337374802296 0 0 1 13.858 5.2700000000000005" stroke="#ffffff" stroke-width="0.3" fill="none"/>
<path d="M 13.096 10.350000000000001 A 0.38100337374802296 0.38100337374802296 0 0 1 13.858 10.350000000000001" stroke="#ffffff" stroke-width="0.3" fill="none"/>
<path d="M 13.858 5.2700000000000005 A 0.38100337374802334 0.38100337374802334 0 0 1 14.620000000000001 5.2700000000000005" stroke="#ffffff" stroke-width="0.3" fill="none"/>
<path d="M 13.858 10.350000000000001 A 0.38100337374802334 0.38100337374802334 0 0 1 14.620000000000001 10.350000000000001" stroke="#ffffff" stroke-width="0.3" fill="none"/>
<circle cx="14.620000000000001" cy="7.8100000000000005" r="1.8034" stroke="#ffffff" stroke-width="0.3" fill="none"/>
<path d="M 14.620000000000001 5.2700000000000005 A 0.381003373748023 0.381003373748023 0 0 1 15.382000000000001 5.2700000000000005" stroke="#ffffff" stroke-width="0.3" fill="none"/>
<path d="M 14.620000000000001 10.350000000000001 A 0.381003373748023 0.381003373748023 0 0 1 15.382000000000001 10.350000000000001" stroke="#ffffff" stroke-width="0.3" fill="none"/>
<path d="M 15.382000000000001 5.2700000000000005 A 0.3810033737480234 0.3810033737480234 0 0 1 16.144000000000002 5.2700000000000005" stroke="#ffffff" stroke-width="0.3" fill="none"/>
<path d="M 15.382000000000001 10.350000000000001 A 0.3810033737480234 0.3810033737480234 0 0 1 16.144000000000002 10.350000000000001" stroke="#ffffff" stroke-width="0.3" fill="none"/>
<line x1="16.144000000000002" y1="10.350000000000001" x2="19.700000000000003" y2="10.350000000000001" stroke="#ffffff" stroke-width="0.3" stroke-linecap="round" fill="none"/>
<rect x="17.414" y="6.2860000000000005" width="2.0319999999999996" height="0.254" stroke="#ffffff" stroke-width="0.3" fill="#ffffff"/>
<rect x="17.414" y="7.048" width="2.0319999999999996" height="0.254" stroke="#ffffff" stroke-width="0.3" fill="#ffffff"/>
<rect x="17.414" y="8.826" width="2.0319999999999996" height="0.254" stroke="#ffffff" stroke-width="0.3" fill="#ffffff"/>
<rect x="17.414" y="9.588000000000001" width="2.0319999999999996" height="0.254" stroke="#ffffff" stroke-width="0.3" fill="#ffffff"/>
<line x1="18.43" y1="6.032" x2="18.43" y2="5.2700000000000005" stroke="#ffffff" stroke-width="0.3" stroke-linecap="round" fill="none"/>
<line x1="18.43" y1="7.048" x2="18.43" y2="8.572000000000001" stroke="#ffffff" stroke-width="0.3" stroke-linecap="round" fill="none"/>
<line x1="18.43" y1="7.8100000000000005" x2="20.462" y2="7.8100000000000005" stroke="#ffffff" stroke-width="0.3" stroke-linecap="round" fill="none"/>
<line x1="18.43" y1="9.588000000000001" x2="18.43" y2="10.350000000000001" stroke="#ffffff" stroke-width="0.3" stroke-linecap="round" fill="none"/>
<line x1="19.700000000000003" y1="5.2700000000000005" x2="16.144000000000002" y2="5.2700000000000005" stroke="#ffffff" stroke-width="0.3" stroke-linecap="round" fill="none"/>
<line x1="4.460000000000001" y1="10.350000000000001" x2="7.000000000000001" y2="10.350000000000001" stroke="#ffd60a" stroke-width="0.41771428571428576" stroke-linecap="round"/>
<text x="4" y="10.350000000000001" fill="#ffd60a" font-size="1" font-family="monospace" text-anchor="start" dominant-baseline="middle">N</text>
<line x1="24.78" y1="10.350000000000001" x2="22.240000000000002" y2="10.35" stroke="#ffd60a" stroke-width="0.41771428571428576" stroke-linecap="round"/>
<text x="25.240000000000002" y="10.350000000000001" fill="#ffd60a" font-size="1" font-family="monospace" text-anchor="end" dominant-baseline="middle">N'</text>
<line x1="24.78" y1="7.8100000000000005" x2="22.240000000000002" y2="7.8100000000000005" stroke="#ffd60a" stroke-width="0.41771428571428576" stroke-linecap="round"/>
<text x="25.240000000000002" y="7.8100000000000005" fill="#ffd60a" font-size="1" font-family="monospace" text-anchor="end" dominant-baseline="middle">E</text>
<line x1="24.78" y1="5.2700000000000005" x2="22.240000000000002" y2="5.27" stroke="#ffd60a" stroke-width="0.41771428571428576" stroke-linecap="round"/>
<text x="25.240000000000002" y="5.2700000000000005" fill="#ffd60a" font-size="1" font-family="monospace" text-anchor="end" dominant-baseline="middle">P'</text>
<line x1="4.460000000000001" y1="5.2700000000000005" x2="7.000000000000001" y2="5.2700000000000005" stroke="#ffd60a" stroke-width="0.41771428571428576" stroke-linecap="round"/>
<text x="4" y="5.2700000000000005" fill="#ffd60a" font-size="1" font-family="monospace" text-anchor="start" dominant-baseline="middle">P</text>
</svg>