<svg xmlns="http://www.w3.org/2000/svg" viewBox="0 0 26.240000000000002 28.828">
<line x1="6.54" y1="11.873999999999999" x2="9.08" y2="11.873999999999999" stroke="#ffffff" stroke-width="0.3" stroke-linecap="round" fill="none"/>
<line x1="6.54" y1="14.414" x2="14.16" y2="14.414" stroke="#ffffff" stroke-width="0.3" stroke-linecap="round" fill="none"/>
<line x1="6.54" y1="16.954" x2="19.240000000000002" y2="16.954" stroke="#ffffff" stroke-width="0.3" stroke-linecap="round" fill="none"/>
<line x1="9.08" y1="4.254" x2="9.08" y2="8.064" stroke="#ffffff" stroke-width="0.3" stroke-linecap="round" fill="none"/>
<line x1="9.08" y1="4.254" x2="19.240000000000002" y2="4.254" stroke="#ffffff" stroke-width="0.3" stroke-linecap="round" fill="none"/>
<line x1="9.08" y1="10.604" x2="9.08" y2="18.224" stroke="#ffffff" stroke-width="0.3" stroke-linecap="round" fill="none"/>
<circle cx="9.08" cy="11.873999999999999" r="0.254" stroke="#ffffff" stroke-width="0.3" fill="#ffffff"/>
<line x1="9.08" y1="20.764" x2="9.08" y2="24.573999999999998" stroke="#ffffff" stroke-width="0.3" stroke-linecap="round" fill="none"/>
<line x1="9.08" y1="24.573999999999998" x2="19.240000000000002" y2="24.573999999999998" stroke="#ffffff" stroke-width="0.3" stroke-linecap="round" fill="none"/>
<circle cx="14.16" cy="4.254" r="0.254" stroke="#ffffff" stroke-width="0.3" fill="#ffffff"/>
<line x1="14.16" y1="8.064" x2="14.16" y2="4.254" stroke="#ffffff" stroke-width="0.3" stroke-linecap="round" fill="none"/>
<line x1="14.16" y1="10.604" x2="14.16" y2="18.224" stroke="#ffffff" stroke-width="0.3" stroke-linecap="round" fill="none"/>
<circle cx="14.16" cy="14.414" r="0.254" stroke="#ffffff" stroke-width="0.3" fill="#ffffff"/>
<line x1="14.16" y1="20.764" x2="14.16" y2="24.573999999999998" stroke="#ffffff" stroke-width="0.3" stroke-linecap="round" fill="none"/>
<circle cx="14.16" cy="24.573999999999998" r="0.254" stroke="#ffffff" stroke-width="0.3" fill="#ffffff"/>
<line x1="19.240000000000002" y1="4.254" x2="19.240000000000002" y2="8.064" stroke="#ffffff" stroke-width="0.3" stroke-linecap="round" fill="none"/>
<circle cx="19.240000000000002" cy="4.254" r="0.254" stroke="#ffffff" stroke-width="0.3" fill="#ffffff"/>
<line x1="19.240000000000002" y1="10.604" x2="19.240000000000002" y2="18.224" stroke="#ffffff" stroke-width="0.3" stroke-linecap="round" fill="none"/>
<circle cx="19.240000000000002" cy="16.954" r="0.254" stroke="#ffffff" stroke-width="0.3" fill="#ffffff"/>
<line x1="19.240000000000002" y1="24.573999999999998" x2="19.240000000000002" y2="19.494" stroke="#ffffff" stroke-width="0.3" stroke-linecap="round" fill="none"/>
<circle cx="19.240000000000002" cy="24.573999999999998" r="0.254" stroke="#ffffff" stroke-width="0.3" fill="#ffffff"/>
<line x1="9.08" y1="10.604" x2="9.08" y2="8.064" stroke="#ffffff" stroke-width="0.3" stroke-linecap="round" fill="none"/>
<line x1="9.08" y1="20.764" x2="9.08" y2="18.224" stroke="#ffffff" stroke-width="0.3" stroke-linecap="round" fill="none"/>
<line x1="10.35" y1="8.064" x2="7.8100000000000005" y2="8.064" stroke="#ffffff" stroke-width="0.3" stroke-linecap="round" fill="none"/>
<polyline points="10.35,10.604 7.8100000000000005,10.604 9.08,8.064 10.35,10.604" stroke="#ffffff" stroke-width="0.3" stroke-linejoin="round" stroke-linecap="round" fill="none"/>
<line x1="10.35" y1="18.224" x2="7.8100000000000005" y2="18.224" stroke="#ffffff" stroke-width="0.3" stroke-linecap="round" fill="none"/>
<polyline points="10.35,20.764 7.8100000000000005,20.764 9.08,18.224 10.35,20.764" stroke="#ffffff" stroke-width="0.3" stroke-linejoin="round" stroke-linecap="round" fill="none"/>
<line x1="14.16" y1="10.604" x2="14.16" y2="8.064" stroke="#ffffff" stroke-width="0.3" stroke-linecap="round" fill="none"/>
<line x1="14.16" y1="20.764" x2="14.16" y2="18.224" stroke="#ffffff" stroke-width="0.3" stroke-linecap="round" fill="none"/>
<line x1="15.43" y1="8.064" x2="12.89" y2="8.064" stroke="#ffffff" stroke-width="0.3" stroke-linecap="round" fill="none"/>
<polyline points="15.43,10.604 12.89,10.604 14.16,8.064 15.43,10.604" stroke="#ffffff" stroke-width="0.3" stroke-linejoin="round" stroke-linecap="round" fill="none"/>
<line x1="15.43" y1="18.224" x2="12.89" y2="18.224" stroke="#ffffff" stroke-width="0.3" stroke-linecap="round" fill="none"/>
<polyline points="15.43,20.764 12.89,20.764 14.16,18.224 15.43,20.764" stroke="#ffffff" stroke-width="0.3" stroke-linejoin="round" stroke-linecap="round" fill="none"/>
<line x1="19.240000000000002" y1="10.604" x2="19.240000000000002" y2="8.064" stroke="#ffffff" stroke-width="0.3" stroke-linecap="round" fill="none"/>
<line x1="19.240000000000002" y1="20.764" x2="19.240000000000002" y2="18.224" stroke="#ffffff" stroke-width="0.3" stroke-linecap="round" fill="none"/>
<line x1="20.509999999999998" y1="8.064" x2="17.97" y2="8.064" stroke="#ffffff" stroke-width="0.3" stroke-linecap="round" fill="none"/>
<polyline points="20.509999999999998,10.604 17.97,10.604 19.240000000000002,8.064 20.509999999999998,10.604" stroke="#ffffff" stroke-width="0.3" stroke-linejoin="round" stroke-linecap="round" fill="none"/>
<line x1="20.509999999999998" y1="18.224" x2="17.97" y2="18.224" stroke="#ffffff" stroke-width="0.3" stroke-linecap="round" fill="none"/>
<polyline points="20.509999999999998,20.764 17.97,20.764 19.240000000000002,18.224 20.509999999999998,20.764" stroke="#ffffff" stroke-width="0.3" stroke-linejoin="round" stroke-linecap="round" fill="none"/>
<line x1="21.78" y1="4.254" x2="19.240000000000002" y2="4.254" stroke="#ffd60a" stroke-width="0.41182857142857143" stroke-linecap="round"/>
<text x="22.240000000000002" y="4.254" fill="#ffd60a" font-size="1" font-family="monospace" text-anchor="end" dominant-baseline="middle">+</text>
<line x1="4" y1="11.873999999999999" x2="6.54" y2="11.873999999999999" stroke="#ffd60a" stroke-width="0.41182857142857143" stroke-linecap="round"/>
<line x1="4" y1="14.414" x2="6.54" y2="14.414" stroke="#ffd60a" stroke-width="0.41182857142857143" stroke-linecap="round"/>
<line x1="4" y1="16.954" x2="6.54" y2="16.954" stroke="#ffd60a" stroke-width="0.41182857142857143" stroke-linecap="round"/>
<line x1="21.78" y1="24.573999999999998" x2="19.240000000000002" y2="24.573999999999998" stroke="#ffd60a" stroke-width="0.41182857142857143" stroke-linecap="round"/>
<text x="22.240000000000002" y="24.573999999999998" fill="#ffd60a" font-size="1" font-family="monospace" text-anchor="end" dominant-baseline="middle">-</text>
</svg>