<svg xmlns="http://www.w3.org/2000/svg" viewBox="0 0 23.240000000000002 23.240000000000002">
<rect x="6.540000000000001" y="16.700000000000003" width="10.16" height="10.16" stroke="#ffffff" stroke-width="0.3" fill="rgba(255,255,255,0.06)"/>
<polyline points="6.540000000000001,14.16 7.8100000000000005,14.16 7.8100000000000005,9.080000000000002 6.540000000000001,9.080000000000002" stroke="#ffffff" stroke-width="0.3" stroke-linejoin="round" stroke-linecap="round" fill="none"/>
<line x1="7.175000000000001" y1="12.255" x2="8.445" y2="12.255" stroke="#ffffff" stroke-width="0.3" stroke-linecap="round" fill="none"/>
<polyline points="7.8100000000000005,12.255 7.175000000000001,10.985000000000001 8.445,10.985000000000001 7.8100000000000005,12.255" stroke="#ffffff" stroke-width="0.3" stroke-linejoin="round" stroke-linecap="round" fill="none"/>
<polyline points="8.826,11.112000000000002 10.096,11.112000000000002 9.715000000000002,11.239 9.715000000000002,10.985000000000001 10.096,11.112000000000002" stroke="#ffffff" stroke-width="0.3" stroke-linejoin="round" stroke-linecap="round" fill="none"/>
<polyline points="8.826,12.128 10.096,12.128 9.715000000000002,12.255 9.715000000000002,12.001000000000001 10.096,12.128" stroke="#ffffff" stroke-width="0.3" stroke-linejoin="round" stroke-linecap="round" fill="none"/>
<line x1="11.620000000000001" y1="9.080000000000002" x2="11.620000000000001" y2="6.540000000000001" stroke="#ffffff" stroke-width="0.3" stroke-linecap="round" fill="none"/>
<polyline points="11.620000000000001,14.16 11.620000000000001,16.700000000000003 11.620000000000001,15.430000000000001" stroke="#ffffff" stroke-width="0.3" stroke-linejoin="round" stroke-linecap="round" fill="none"/>
<path d="M 12.89 9.080000000000002 A 2.5400239224990115 2.5400239224990115 0 0 1 12.89 14.16" stroke="#ffffff" stroke-width="0.3" fill="none"/>
<polyline points="12.89,14.16 10.350000000000001,14.16 10.350000000000001,9.080000000000002 12.89,9.080000000000002" stroke="#ffffff" stroke-width="0.3" stroke-linejoin="round" stroke-linecap="round" fill="none"/>
<line x1="4.000000000000001" y1="9.080000000000002" x2="6.540000000000001" y2="9.080000000000002" stroke="#ffd60a" stroke-width="0.332" stroke-linecap="round"/>
<line x1="4.000000000000001" y1="14.16" x2="6.540000000000001" y2="14.16" stroke="#ffd60a" stroke-width="0.332" stroke-linecap="round"/>
<line x1="6.540000000000001" y1="11.620000000000001" x2="9.080000000000002" y2="11.620000000000001" stroke="#ffd60a" stroke-width="0.332" stroke-linecap="round"/>
<line x1="19.240000000000002" y1="11.620000000000001" x2="15.430000000000001" y2="11.620000000000001" stroke="#ffd60a" stroke-width="0.332" stroke-linecap="round"/>
<line x1="11.620000000000001" y1="19.240000000000002" x2="11.620000000000001" y2="16.700000000000003" stroke="#ffd60a" stroke-width="0.332" stroke-linecap="round"/>
<line x1="11.620000000000001" y1="4.000000000000001" x2="11.620000000000001" y2="6.540000000000001" stroke="#ffd60a" stroke-width="0.332" stroke-linecap="round"/>
</svg>