<svg xmlns="http://www.w3.org/2000/svg" viewBox="0 0 280 500">
<rect x="50" y="50" width="180" height="400" stroke="#ffffff" stroke-width="1.5" fill="rgba(255,255,255,0.04)"/>
<text x="140" y="250" fill="#888" font-size="3" font-family="monospace" text-anchor="middle" dominant-baseline="middle">J</text>
<line x1="250" y1="60" x2="230" y2="60" stroke="#ffd60a" stroke-width="1.5" stroke-linecap="round"/>
<text x="225" y="60" fill="#ffd60a" font-size="2" font-family="monospace" text-anchor="end" dominant-baseline="middle">D2+</text>
<line x1="250" y1="80" x2="230" y2="80" stroke="#ffd60a" stroke-width="1.5" stroke-linecap="round"/>
<text x="225" y="80" fill="#ffd60a" font-size="2" font-family="monospace" text-anchor="end" dominant-baseline="middle">D2-</text>
<line x1="250" y1="100" x2="230" y2="100" stroke="#ffd60a" stroke-width="1.5" stroke-linecap="round"/>
<text x="225" y="100" fill="#ffd60a" font-size="2" font-family="monospace" text-anchor="end" dominant-baseline="middle">D1+</text>
<line x1="250" y1="120" x2="230" y2="120" stroke="#ffd60a" stroke-width="1.5" stroke-linecap="round"/>
<text x="225" y="120" fill="#ffd60a" font-size="2" font-family="monospace" text-anchor="end" dominant-baseline="middle">D1-</text>
<line x1="250" y1="140" x2="230" y2="140" stroke="#ffd60a" stroke-width="1.5" stroke-linecap="round"/>
<text x="225" y="140" fill="#ffd60a" font-size="2" font-family="monospace" text-anchor="end" dominant-baseline="middle">D0+</text>
<line x1="250" y1="160" x2="230" y2="160" stroke="#ffd60a" stroke-width="1.5" stroke-linecap="round"/>
<text x="225" y="160" fill="#ffd60a" font-size="2" font-family="monospace" text-anchor="end" dominant-baseline="middle">D0-</text>
<line x1="250" y1="180" x2="230" y2="180" stroke="#ffd60a" stroke-width="1.5" stroke-linecap="round"/>
<text x="225" y="180" fill="#ffd60a" font-size="2" font-family="monospace" text-anchor="end" dominant-baseline="middle">CK+</text>
<line x1="250" y1="200" x2="230" y2="200" stroke="#ffd60a" stroke-width="1.5" stroke-linecap="round"/>
<text x="225" y="200" fill="#ffd60a" font-size="2" font-family="monospace" text-anchor="end" dominant-baseline="middle">CK-</text>
<line x1="250" y1="220" x2="230" y2="220" stroke="#ffd60a" stroke-width="1.5" stroke-linecap="round"/>
<text x="225" y="220" fill="#ffd60a" font-size="2" font-family="monospace" text-anchor="end" dominant-baseline="middle">D5+</text>
<line x1="250" y1="240" x2="230" y2="240" stroke="#ffd60a" stroke-width="1.5" stroke-linecap="round"/>
<text x="225" y="240" fill="#ffd60a" font-size="2" font-family="monospace" text-anchor="end" dominant-baseline="middle">D5-</text>
<line x1="250" y1="260" x2="230" y2="260" stroke="#ffd60a" stroke-width="1.5" stroke-linecap="round"/>
<text x="225" y="260" fill="#ffd60a" font-size="2" font-family="monospace" text-anchor="end" dominant-baseline="middle">D4+</text>
<line x1="250" y1="280" x2="230" y2="280" stroke="#ffd60a" stroke-width="1.5" stroke-linecap="round"/>
<text x="225" y="280" fill="#ffd60a" font-size="2" font-family="monospace" text-anchor="end" dominant-baseline="middle">D4-</text>
<line x1="250" y1="300" x2="230" y2="300" stroke="#ffd60a" stroke-width="1.5" stroke-linecap="round"/>
<text x="225" y="300" fill="#ffd60a" font-size="2" font-family="monospace" text-anchor="end" dominant-baseline="middle">D3+</text>
<line x1="250" y1="320" x2="230" y2="320" stroke="#ffd60a" stroke-width="1.5" stroke-linecap="round"/>
<text x="225" y="320" fill="#ffd60a" font-size="2" font-family="monospace" text-anchor="end" dominant-baseline="middle">D3-</text>
<line x1="250" y1="340" x2="230" y2="340" stroke="#ffd60a" stroke-width="1.5" stroke-linecap="round"/>
<text x="225" y="340" fill="#ffd60a" font-size="2" font-family="monospace" text-anchor="end" dominant-baseline="middle">CEC</text>
<line x1="250" y1="360" x2="230" y2="360" stroke="#ffd60a" stroke-width="1.5" stroke-linecap="round"/>
<text x="225" y="360" fill="#ffd60a" font-size="2" font-family="monospace" text-anchor="end" dominant-baseline="middle">NC</text>
<line x1="250" y1="380" x2="230" y2="380" stroke="#ffd60a" stroke-width="1.5" stroke-linecap="round"/>
<text x="225" y="380" fill="#ffd60a" font-size="2" font-family="monospace" text-anchor="end" dominant-baseline="middle">NC</text>
<line x1="250" y1="400" x2="230" y2="400" stroke="#ffd60a" stroke-width="1.5" stroke-linecap="round"/>
<text x="225" y="400" fill="#ffd60a" font-size="2" font-family="monospace" text-anchor="end" dominant-baseline="middle">SCL</text>
<line x1="250" y1="420" x2="230" y2="420" stroke="#ffd60a" stroke-width="1.5" stroke-linecap="round"/>
<text x="225" y="420" fill="#ffd60a" font-size="2" font-family="monospace" text-anchor="end" dominant-baseline="middle">SDA</text>
<line x1="250" y1="440" x2="230" y2="440" stroke="#ffd60a" stroke-width="1.5" stroke-linecap="round"/>
<text x="225" y="440" fill="#ffd60a" font-size="2" font-family="monospace" text-anchor="end" dominant-baseline="middle">HPD</text>
<line x1="60" y1="30" x2="60" y2="50" stroke="#ffd60a" stroke-width="1.5" stroke-linecap="round"/>
<text x="60" y="25" fill="#ffd60a" font-size="2" font-family="monospace" text-anchor="middle" dominant-baseline="middle">D2S</text>
<line x1="80" y1="30" x2="80" y2="50" stroke="#ffd60a" stroke-width="1.5" stroke-linecap="round"/>
<text x="80" y="25" fill="#ffd60a" font-size="2" font-family="monospace" text-anchor="middle" dominant-baseline="middle">D1S</text>
<line x1="100" y1="30" x2="100" y2="50" stroke="#ffd60a" stroke-width="1.5" stroke-linecap="round"/>
<text x="100" y="25" fill="#ffd60a" font-size="2" font-family="monospace" text-anchor="middle" dominant-baseline="middle">D0S</text>
<line x1="120" y1="30" x2="120" y2="50" stroke="#ffd60a" stroke-width="1.5" stroke-linecap="round"/>
<text x="120" y="25" fill="#ffd60a" font-size="2" font-family="monospace" text-anchor="middle" dominant-baseline="middle">CKS</text>
<line x1="140" y1="30" x2="140" y2="50" stroke="#ffd60a" stroke-width="1.5" stroke-linecap="round"/>
<text x="140" y="25" fill="#ffd60a" font-size="2" font-family="monospace" text-anchor="middle" dominant-baseline="middle">D5S</text>
<line x1="160" y1="30" x2="160" y2="50" stroke="#ffd60a" stroke-width="1.5" stroke-linecap="round"/>
<text x="160" y="25" fill="#ffd60a" font-size="2" font-family="monospace" text-anchor="middle" dominant-baseline="middle">D4S</text>
<line x1="180" y1="30" x2="180" y2="50" stroke="#ffd60a" stroke-width="1.5" stroke-linecap="round"/>
<text x="180" y="25" fill="#ffd60a" font-size="2" font-family="monospace" text-anchor="middle" dominant-baseline="middle">D3S</text>
<line x1="200" y1="30" x2="200" y2="50" stroke="#ffd60a" stroke-width="1.5" stroke-linecap="round"/>
<text x="200" y="25" fill="#ffd60a" font-size="2" font-family="monospace" text-anchor="middle" dominant-baseline="middle">GND</text>
<line x1="220" y1="30" x2="220" y2="50" stroke="#ffd60a" stroke-width="1.5" stroke-linecap="round"/>
<text x="220" y="25" fill="#ffd60a" font-size="2" font-family="monospace" text-anchor="middle" dominant-baseline="middle">SH</text>
<line x1="140" y1="470" x2="140" y2="450" stroke="#ffd60a" stroke-width="1.5" stroke-linecap="round"/>
<text x="140" y="484" fill="#ffd60a" font-size="2" font-family="monospace" text-anchor="middle" dominant-baseline="middle">+5V</text>
</svg>