<svg xmlns="http://www.w3.org/2000/svg" viewBox="0 0 680 180">
<rect x="50" y="50" width="580" height="80" stroke="#ffffff" stroke-width="1.5" fill="rgba(255,255,255,0.04)"/>
<text x="340" y="90" fill="#888" font-size="3" font-family="monospace" text-anchor="middle" dominant-baseline="middle">U</text>
<line x1="30" y1="70" x2="50" y2="70" stroke="#ffd60a" stroke-width="1.5" stroke-linecap="round"/>
<text x="55" y="70" fill="#ffd60a" font-size="2" font-family="monospace" text-anchor="start" dominant-baseline="middle">20</text>
<line x1="30" y1="110" x2="50" y2="110" stroke="#ffd60a" stroke-width="1.5" stroke-linecap="round"/>
<text x="55" y="110" fill="#ffd60a" font-size="2" font-family="monospace" text-anchor="start" dominant-baseline="middle">21</text>
<line x1="650" y1="70" x2="630" y2="70" stroke="#ffd60a" stroke-width="1.5" stroke-linecap="round"/>
<text x="625" y="70" fill="#ffd60a" font-size="2" font-family="monospace" text-anchor="end" dominant-baseline="middle">4</text>
<line x1="650" y1="110" x2="630" y2="110" stroke="#ffd60a" stroke-width="1.5" stroke-linecap="round"/>
<text x="625" y="110" fill="#ffd60a" font-size="2" font-family="monospace" text-anchor="end" dominant-baseline="middle">5</text>
<line x1="60" y1="30" x2="60" y2="50" stroke="#ffd60a" stroke-width="1.5" stroke-linecap="round"/>
<text x="60" y="25" fill="#ffd60a" font-size="2" font-family="monospace" text-anchor="middle" dominant-baseline="middle">GND</text>
<line x1="80" y1="30" x2="80" y2="50" stroke="#ffd60a" stroke-width="1.5" stroke-linecap="round"/>
<text x="80" y="25" fill="#ffd60a" font-size="2" font-family="monospace" text-anchor="middle" dominant-baseline="middle">GND</text>
<line x1="100" y1="30" x2="100" y2="50" stroke="#ffd60a" stroke-width="1.5" stroke-linecap="round"/>
<text x="100" y="25" fill="#ffd60a" font-size="2" font-family="monospace" text-anchor="middle" dominant-baseline="middle">GND</text>
<line x1="120" y1="30" x2="120" y2="50" stroke="#ffd60a" stroke-width="1.5" stroke-linecap="round"/>
<text x="120" y="25" fill="#ffd60a" font-size="2" font-family="monospace" text-anchor="middle" dominant-baseline="middle">GND</text>
<line x1="140" y1="30" x2="140" y2="50" stroke="#ffd60a" stroke-width="1.5" stroke-linecap="round"/>
<text x="140" y="25" fill="#ffd60a" font-size="2" font-family="monospace" text-anchor="middle" dominant-baseline="middle">GND</text>
<line x1="160" y1="30" x2="160" y2="50" stroke="#ffd60a" stroke-width="1.5" stroke-linecap="round"/>
<text x="160" y="25" fill="#ffd60a" font-size="2" font-family="monospace" text-anchor="middle" dominant-baseline="middle">GND</text>
<line x1="180" y1="30" x2="180" y2="50" stroke="#ffd60a" stroke-width="1.5" stroke-linecap="round"/>
<text x="180" y="25" fill="#ffd60a" font-size="2" font-family="monospace" text-anchor="middle" dominant-baseline="middle">GND</text>
<line x1="200" y1="30" x2="200" y2="50" stroke="#ffd60a" stroke-width="1.5" stroke-linecap="round"/>
<text x="200" y="25" fill="#ffd60a" font-size="2" font-family="monospace" text-anchor="middle" dominant-baseline="middle">GND</text>
<line x1="219.99999999999997" y1="30" x2="219.99999999999997" y2="50" stroke="#ffd60a" stroke-width="1.5" stroke-linecap="round"/>
<text x="219.99999999999997" y="25" fill="#ffd60a" font-size="2" font-family="monospace" text-anchor="middle" dominant-baseline="middle">GND</text>
<line x1="240" y1="30" x2="240" y2="50" stroke="#ffd60a" stroke-width="1.5" stroke-linecap="round"/>
<text x="240" y="25" fill="#ffd60a" font-size="2" font-family="monospace" text-anchor="middle" dominant-baseline="middle">GND</text>
<line x1="260" y1="30" x2="260" y2="50" stroke="#ffd60a" stroke-width="1.5" stroke-linecap="round"/>
<text x="260" y="25" fill="#ffd60a" font-size="2" font-family="monospace" text-anchor="middle" dominant-baseline="middle">GND</text>
<line x1="280" y1="30" x2="280" y2="50" stroke="#ffd60a" stroke-width="1.5" stroke-linecap="round"/>
<text x="280" y="25" fill="#ffd60a" font-size="2" font-family="monospace" text-anchor="middle" dominant-baseline="middle">GND</text>
<line x1="300" y1="30" x2="300" y2="50" stroke="#ffd60a" stroke-width="1.5" stroke-linecap="round"/>
<text x="300" y="25" fill="#ffd60a" font-size="2" font-family="monospace" text-anchor="middle" dominant-baseline="middle">GND</text>
<line x1="320" y1="30" x2="320" y2="50" stroke="#ffd60a" stroke-width="1.5" stroke-linecap="round"/>
<text x="320" y="25" fill="#ffd60a" font-size="2" font-family="monospace" text-anchor="middle" dominant-baseline="middle">GND</text>
<line x1="340" y1="30" x2="340" y2="50" stroke="#ffd60a" stroke-width="1.5" stroke-linecap="round"/>
<text x="340" y="25" fill="#ffd60a" font-size="2" font-family="monospace" text-anchor="middle" dominant-baseline="middle">GND</text>
<line x1="360" y1="30" x2="360" y2="50" stroke="#ffd60a" stroke-width="1.5" stroke-linecap="round"/>
<text x="360" y="25" fill="#ffd60a" font-size="2" font-family="monospace" text-anchor="middle" dominant-baseline="middle">GND</text>
<line x1="380" y1="30" x2="380" y2="50" stroke="#ffd60a" stroke-width="1.5" stroke-linecap="round"/>
<text x="380" y="25" fill="#ffd60a" font-size="2" font-family="monospace" text-anchor="middle" dominant-baseline="middle">GND</text>
<line x1="400" y1="30" x2="400" y2="50" stroke="#ffd60a" stroke-width="1.5" stroke-linecap="round"/>
<text x="400" y="25" fill="#ffd60a" font-size="2" font-family="monospace" text-anchor="middle" dominant-baseline="middle">GND</text>
<line x1="420.00000000000006" y1="30" x2="420.00000000000006" y2="50" stroke="#ffd60a" stroke-width="1.5" stroke-linecap="round"/>
<text x="420.00000000000006" y="25" fill="#ffd60a" font-size="2" font-family="monospace" text-anchor="middle" dominant-baseline="middle">GND</text>
<line x1="440" y1="30" x2="440" y2="50" stroke="#ffd60a" stroke-width="1.5" stroke-linecap="round"/>
<text x="440" y="25" fill="#ffd60a" font-size="2" font-family="monospace" text-anchor="middle" dominant-baseline="middle">GND</text>
<line x1="460" y1="30" x2="460" y2="50" stroke="#ffd60a" stroke-width="1.5" stroke-linecap="round"/>
<text x="460" y="25" fill="#ffd60a" font-size="2" font-family="monospace" text-anchor="middle" dominant-baseline="middle">GND</text>
<line x1="480" y1="30" x2="480" y2="50" stroke="#ffd60a" stroke-width="1.5" stroke-linecap="round"/>
<text x="480" y="25" fill="#ffd60a" font-size="2" font-family="monospace" text-anchor="middle" dominant-baseline="middle">GND</text>
<line x1="500" y1="30" x2="500" y2="50" stroke="#ffd60a" stroke-width="1.5" stroke-linecap="round"/>
<text x="500" y="25" fill="#ffd60a" font-size="2" font-family="monospace" text-anchor="middle" dominant-baseline="middle">GND</text>
<line x1="520" y1="30" x2="520" y2="50" stroke="#ffd60a" stroke-width="1.5" stroke-linecap="round"/>
<text x="520" y="25" fill="#ffd60a" font-size="2" font-family="monospace" text-anchor="middle" dominant-baseline="middle">GND</text>
<line x1="540" y1="30" x2="540" y2="50" stroke="#ffd60a" stroke-width="1.5" stroke-linecap="round"/>
<text x="540" y="25" fill="#ffd60a" font-size="2" font-family="monospace" text-anchor="middle" dominant-baseline="middle">GND</text>
<line x1="560" y1="30" x2="560" y2="50" stroke="#ffd60a" stroke-width="1.5" stroke-linecap="round"/>
<text x="560" y="25" fill="#ffd60a" font-size="2" font-family="monospace" text-anchor="middle" dominant-baseline="middle">GND</text>
<line x1="580" y1="30" x2="580" y2="50" stroke="#ffd60a" stroke-width="1.5" stroke-linecap="round"/>
<text x="580" y="25" fill="#ffd60a" font-size="2" font-family="monospace" text-anchor="middle" dominant-baseline="middle">GND</text>
<line x1="600" y1="30" x2="600" y2="50" stroke="#ffd60a" stroke-width="1.5" stroke-linecap="round"/>
<text x="600" y="25" fill="#ffd60a" font-size="2" font-family="monospace" text-anchor="middle" dominant-baseline="middle">GND</text>
<line x1="620" y1="30" x2="620" y2="50" stroke="#ffd60a" stroke-width="1.5" stroke-linecap="round"/>
<text x="620" y="25" fill="#ffd60a" font-size="2" font-family="monospace" text-anchor="middle" dominant-baseline="middle">GND</text>
</svg>