<svg xmlns="http://www.w3.org/2000/svg" viewBox="0 0 180 1060">
<rect x="50" y="50" width="80" height="960" stroke="#ffffff" stroke-width="1.5" fill="rgba(255,255,255,0.04)"/>
<text x="90" y="530" fill="#888" font-size="3" font-family="monospace" text-anchor="middle" dominant-baseline="middle">U</text>
<line x1="30" y1="60" x2="50" y2="60" stroke="#ffd60a" stroke-width="1.5" stroke-linecap="round"/>
<text x="55" y="60" fill="#ffd60a" font-size="2" font-family="monospace" text-anchor="start" dominant-baseline="middle">AD15</text>
<line x1="30" y1="80" x2="50" y2="80" stroke="#ffd60a" stroke-width="1.5" stroke-linecap="round"/>
<text x="55" y="80" fill="#ffd60a" font-size="2" font-family="monospace" text-anchor="start" dominant-baseline="middle">AD7</text>
<line x1="30" y1="100" x2="50" y2="100" stroke="#ffd60a" stroke-width="1.5" stroke-linecap="round"/>
<text x="55" y="100" fill="#ffd60a" font-size="2" font-family="monospace" text-anchor="start" dominant-baseline="middle">AD14</text>
<line x1="30" y1="120" x2="50" y2="120" stroke="#ffd60a" stroke-width="1.5" stroke-linecap="round"/>
<text x="55" y="120" fill="#ffd60a" font-size="2" font-family="monospace" text-anchor="start" dominant-baseline="middle">AD6</text>
<line x1="30" y1="140" x2="50" y2="140" stroke="#ffd60a" stroke-width="1.5" stroke-linecap="round"/>
<text x="55" y="140" fill="#ffd60a" font-size="2" font-family="monospace" text-anchor="start" dominant-baseline="middle">AD13</text>
<line x1="30" y1="160" x2="50" y2="160" stroke="#ffd60a" stroke-width="1.5" stroke-linecap="round"/>
<text x="55" y="160" fill="#ffd60a" font-size="2" font-family="monospace" text-anchor="start" dominant-baseline="middle">AD5</text>
<line x1="30" y1="180" x2="50" y2="180" stroke="#ffd60a" stroke-width="1.5" stroke-linecap="round"/>
<text x="55" y="180" fill="#ffd60a" font-size="2" font-family="monospace" text-anchor="start" dominant-baseline="middle">AD12</text>
<line x1="30" y1="200" x2="50" y2="200" stroke="#ffd60a" stroke-width="1.5" stroke-linecap="round"/>
<text x="55" y="200" fill="#ffd60a" font-size="2" font-family="monospace" text-anchor="start" dominant-baseline="middle">AD4</text>
<line x1="30" y1="220" x2="50" y2="220" stroke="#ffd60a" stroke-width="1.5" stroke-linecap="round"/>
<text x="55" y="220" fill="#ffd60a" font-size="2" font-family="monospace" text-anchor="start" dominant-baseline="middle">AD11</text>
<line x1="30" y1="240" x2="50" y2="240" stroke="#ffd60a" stroke-width="1.5" stroke-linecap="round"/>
<text x="55" y="240" fill="#ffd60a" font-size="2" font-family="monospace" text-anchor="start" dominant-baseline="middle">AD3</text>
<line x1="30" y1="260" x2="50" y2="260" stroke="#ffd60a" stroke-width="1.5" stroke-linecap="round"/>
<text x="55" y="260" fill="#ffd60a" font-size="2" font-family="monospace" text-anchor="start" dominant-baseline="middle">AD10</text>
<line x1="30" y1="280" x2="50" y2="280" stroke="#ffd60a" stroke-width="1.5" stroke-linecap="round"/>
<text x="55" y="280" fill="#ffd60a" font-size="2" font-family="monospace" text-anchor="start" dominant-baseline="middle">AD2</text>
<line x1="30" y1="300" x2="50" y2="300" stroke="#ffd60a" stroke-width="1.5" stroke-linecap="round"/>
<text x="55" y="300" fill="#ffd60a" font-size="2" font-family="monospace" text-anchor="start" dominant-baseline="middle">AD9</text>
<line x1="30" y1="320" x2="50" y2="320" stroke="#ffd60a" stroke-width="1.5" stroke-linecap="round"/>
<text x="55" y="320" fill="#ffd60a" font-size="2" font-family="monospace" text-anchor="start" dominant-baseline="middle">AD1</text>
<line x1="30" y1="340" x2="50" y2="340" stroke="#ffd60a" stroke-width="1.5" stroke-linecap="round"/>
<text x="55" y="340" fill="#ffd60a" font-size="2" font-family="monospace" text-anchor="start" dominant-baseline="middle">AD8</text>
<line x1="30" y1="360" x2="50" y2="360" stroke="#ffd60a" stroke-width="1.5" stroke-linecap="round"/>
<text x="55" y="360" fill="#ffd60a" font-size="2" font-family="monospace" text-anchor="start" dominant-baseline="middle">AD0</text>
<line x1="30" y1="380" x2="50" y2="380" stroke="#ffd60a" stroke-width="1.5" stroke-linecap="round"/>
<text x="55" y="380" fill="#ffd60a" font-size="2" font-family="monospace" text-anchor="start" dominant-baseline="middle">TMR_OUT_0</text>
<line x1="30" y1="400" x2="50" y2="400" stroke="#ffd60a" stroke-width="1.5" stroke-linecap="round"/>
<text x="55" y="400" fill="#ffd60a" font-size="2" font-family="monospace" text-anchor="start" dominant-baseline="middle">TMR_OUT_1</text>
<line x1="30" y1="420" x2="50" y2="420" stroke="#ffd60a" stroke-width="1.5" stroke-linecap="round"/>
<text x="55" y="420" fill="#ffd60a" font-size="2" font-family="monospace" text-anchor="start" dominant-baseline="middle">~{PCS0}</text>
<line x1="30" y1="440" x2="50" y2="440" stroke="#ffd60a" stroke-width="1.5" stroke-linecap="round"/>
<text x="55" y="440" fill="#ffd60a" font-size="2" font-family="monospace" text-anchor="start" dominant-baseline="middle">~{PCS1}</text>
<line x1="30" y1="460" x2="50" y2="460" stroke="#ffd60a" stroke-width="1.5" stroke-linecap="round"/>
<text x="55" y="460" fill="#ffd60a" font-size="2" font-family="monospace" text-anchor="start" dominant-baseline="middle">~{PCS2}</text>
<line x1="30" y1="480" x2="50" y2="480" stroke="#ffd60a" stroke-width="1.5" stroke-linecap="round"/>
<text x="55" y="480" fill="#ffd60a" font-size="2" font-family="monospace" text-anchor="start" dominant-baseline="middle">~{PCS3}</text>
<line x1="30" y1="500" x2="50" y2="500" stroke="#ffd60a" stroke-width="1.5" stroke-linecap="round"/>
<text x="55" y="500" fill="#ffd60a" font-size="2" font-family="monospace" text-anchor="start" dominant-baseline="middle">~{PCS4}</text>
<line x1="30" y1="520" x2="50" y2="520" stroke="#ffd60a" stroke-width="1.5" stroke-linecap="round"/>
<text x="55" y="520" fill="#ffd60a" font-size="2" font-family="monospace" text-anchor="start" dominant-baseline="middle">~{PCS5}/A1</text>
<line x1="30" y1="540" x2="50" y2="540" stroke="#ffd60a" stroke-width="1.5" stroke-linecap="round"/>
<text x="55" y="540" fill="#ffd60a" font-size="2" font-family="monospace" text-anchor="start" dominant-baseline="middle">~{PCS6}/A2</text>
<line x1="30" y1="560" x2="50" y2="560" stroke="#ffd60a" stroke-width="1.5" stroke-linecap="round"/>
<text x="55" y="560" fill="#ffd60a" font-size="2" font-family="monospace" text-anchor="start" dominant-baseline="middle">~{LCS}</text>
<line x1="30" y1="580" x2="50" y2="580" stroke="#ffd60a" stroke-width="1.5" stroke-linecap="round"/>
<text x="55" y="580" fill="#ffd60a" font-size="2" font-family="monospace" text-anchor="start" dominant-baseline="middle">~{UCS}</text>
<line x1="30" y1="600" x2="50" y2="600" stroke="#ffd60a" stroke-width="1.5" stroke-linecap="round"/>
<text x="55" y="600" fill="#ffd60a" font-size="2" font-family="monospace" text-anchor="start" dominant-baseline="middle">~{MCS3}/~{NPS}</text>
<line x1="30" y1="620" x2="50" y2="620" stroke="#ffd60a" stroke-width="1.5" stroke-linecap="round"/>
<text x="55" y="620" fill="#ffd60a" font-size="2" font-family="monospace" text-anchor="start" dominant-baseline="middle">~{MCS2}</text>
<line x1="30" y1="640" x2="50" y2="640" stroke="#ffd60a" stroke-width="1.5" stroke-linecap="round"/>
<text x="55" y="640" fill="#ffd60a" font-size="2" font-family="monospace" text-anchor="start" dominant-baseline="middle">~{MCS1}/~{ERROR}</text>
<line x1="30" y1="660" x2="50" y2="660" stroke="#ffd60a" stroke-width="1.5" stroke-linecap="round"/>
<text x="55" y="660" fill="#ffd60a" font-size="2" font-family="monospace" text-anchor="start" dominant-baseline="middle">~{MCS0}/PEREQ</text>
<line x1="30" y1="680" x2="50" y2="680" stroke="#ffd60a" stroke-width="1.5" stroke-linecap="round"/>
<text x="55" y="680" fill="#ffd60a" font-size="2" font-family="monospace" text-anchor="start" dominant-baseline="middle">~{DEN}</text>
<line x1="30" y1="700" x2="50" y2="700" stroke="#ffd60a" stroke-width="1.5" stroke-linecap="round"/>
<text x="55" y="700" fill="#ffd60a" font-size="2" font-family="monospace" text-anchor="start" dominant-baseline="middle">DT/~{R}</text>
<line x1="30" y1="720" x2="50" y2="720" stroke="#ffd60a" stroke-width="1.5" stroke-linecap="round"/>
<text x="55" y="720" fill="#ffd60a" font-size="2" font-family="monospace" text-anchor="start" dominant-baseline="middle">~{LOCK}</text>
<line x1="30" y1="740" x2="50" y2="740" stroke="#ffd60a" stroke-width="1.5" stroke-linecap="round"/>
<text x="55" y="740" fill="#ffd60a" font-size="2" font-family="monospace" text-anchor="start" dominant-baseline="middle">HLDA</text>
<line x1="30" y1="760" x2="50" y2="760" stroke="#ffd60a" stroke-width="1.5" stroke-linecap="round"/>
<text x="55" y="760" fill="#ffd60a" font-size="2" font-family="monospace" text-anchor="start" dominant-baseline="middle">~{S0}</text>
<line x1="30" y1="780" x2="50" y2="780" stroke="#ffd60a" stroke-width="1.5" stroke-linecap="round"/>
<text x="55" y="780" fill="#ffd60a" font-size="2" font-family="monospace" text-anchor="start" dominant-baseline="middle">~{S1}</text>
<line x1="30" y1="800" x2="50" y2="800" stroke="#ffd60a" stroke-width="1.5" stroke-linecap="round"/>
<text x="55" y="800" fill="#ffd60a" font-size="2" font-family="monospace" text-anchor="start" dominant-baseline="middle">~{S2}</text>
<line x1="30" y1="820" x2="50" y2="820" stroke="#ffd60a" stroke-width="1.5" stroke-linecap="round"/>
<text x="55" y="820" fill="#ffd60a" font-size="2" font-family="monospace" text-anchor="start" dominant-baseline="middle">CLKOUT</text>
<line x1="30" y1="840" x2="50" y2="840" stroke="#ffd60a" stroke-width="1.5" stroke-linecap="round"/>
<text x="55" y="840" fill="#ffd60a" font-size="2" font-family="monospace" text-anchor="start" dominant-baseline="middle">RESET</text>
<line x1="30" y1="860" x2="50" y2="860" stroke="#ffd60a" stroke-width="1.5" stroke-linecap="round"/>
<text x="55" y="860" fill="#ffd60a" font-size="2" font-family="monospace" text-anchor="start" dominant-baseline="middle">ALE/QS0</text>
<line x1="30" y1="880" x2="50" y2="880" stroke="#ffd60a" stroke-width="1.5" stroke-linecap="round"/>
<text x="55" y="880" fill="#ffd60a" font-size="2" font-family="monospace" text-anchor="start" dominant-baseline="middle">~{RD}/~{QSMD}</text>
<line x1="30" y1="900" x2="50" y2="900" stroke="#ffd60a" stroke-width="1.5" stroke-linecap="round"/>
<text x="55" y="900" fill="#ffd60a" font-size="2" font-family="monospace" text-anchor="start" dominant-baseline="middle">~{WR}/QS1</text>
<line x1="30" y1="920" x2="50" y2="920" stroke="#ffd60a" stroke-width="1.5" stroke-linecap="round"/>
<text x="55" y="920" fill="#ffd60a" font-size="2" font-family="monospace" text-anchor="start" dominant-baseline="middle">~{BHE}</text>
<line x1="30" y1="940" x2="50" y2="940" stroke="#ffd60a" stroke-width="1.5" stroke-linecap="round"/>
<text x="55" y="940" fill="#ffd60a" font-size="2" font-family="monospace" text-anchor="start" dominant-baseline="middle">A19/S6</text>
<line x1="30" y1="960" x2="50" y2="960" stroke="#ffd60a" stroke-width="1.5" stroke-linecap="round"/>
<text x="55" y="960" fill="#ffd60a" font-size="2" font-family="monospace" text-anchor="start" dominant-baseline="middle">A18/S5</text>
<line x1="30" y1="980" x2="50" y2="980" stroke="#ffd60a" stroke-width="1.5" stroke-linecap="round"/>
<text x="55" y="980" fill="#ffd60a" font-size="2" font-family="monospace" text-anchor="start" dominant-baseline="middle">A17/S4</text>
<line x1="30" y1="1000" x2="50" y2="1000" stroke="#ffd60a" stroke-width="1.5" stroke-linecap="round"/>
<text x="55" y="1000" fill="#ffd60a" font-size="2" font-family="monospace" text-anchor="start" dominant-baseline="middle">A16/S3</text>
<line x1="150" y1="80" x2="130" y2="80" stroke="#ffd60a" stroke-width="1.5" stroke-linecap="round"/>
<text x="125" y="80" fill="#ffd60a" font-size="2" font-family="monospace" text-anchor="end" dominant-baseline="middle">DRQ0</text>
<line x1="150" y1="140" x2="130" y2="140" stroke="#ffd60a" stroke-width="1.5" stroke-linecap="round"/>
<text x="125" y="140" fill="#ffd60a" font-size="2" font-family="monospace" text-anchor="end" dominant-baseline="middle">DRQ1</text>
<line x1="150" y1="200" x2="130" y2="200" stroke="#ffd60a" stroke-width="1.5" stroke-linecap="round"/>
<text x="125" y="200" fill="#ffd60a" font-size="2" font-family="monospace" text-anchor="end" dominant-baseline="middle">TMR_IN_0</text>
<line x1="150" y1="260" x2="130" y2="260" stroke="#ffd60a" stroke-width="1.5" stroke-linecap="round"/>
<text x="125" y="260" fill="#ffd60a" font-size="2" font-family="monospace" text-anchor="end" dominant-baseline="middle">TMR_IN_1</text>
<line x1="150" y1="320" x2="130" y2="320" stroke="#ffd60a" stroke-width="1.5" stroke-linecap="round"/>
<text x="125" y="320" fill="#ffd60a" font-size="2" font-family="monospace" text-anchor="end" dominant-baseline="middle">~{RES}</text>
<line x1="150" y1="380" x2="130" y2="380" stroke="#ffd60a" stroke-width="1.5" stroke-linecap="round"/>
<text x="125" y="380" fill="#ffd60a" font-size="2" font-family="monospace" text-anchor="end" dominant-baseline="middle">INT3/~{INTA1}/IRQ</text>
<line x1="150" y1="440" x2="130" y2="440" stroke="#ffd60a" stroke-width="1.5" stroke-linecap="round"/>
<text x="125" y="440" fill="#ffd60a" font-size="2" font-family="monospace" text-anchor="end" dominant-baseline="middle">INT2/~{INTA0}</text>
<line x1="150" y1="500" x2="130" y2="500" stroke="#ffd60a" stroke-width="1.5" stroke-linecap="round"/>
<text x="125" y="500" fill="#ffd60a" font-size="2" font-family="monospace" text-anchor="end" dominant-baseline="middle">INT1/~{SELECT}</text>
<line x1="150" y1="560" x2="130" y2="560" stroke="#ffd60a" stroke-width="1.5" stroke-linecap="round"/>
<text x="125" y="560" fill="#ffd60a" font-size="2" font-family="monospace" text-anchor="end" dominant-baseline="middle">INT0</text>
<line x1="150" y1="620" x2="130" y2="620" stroke="#ffd60a" stroke-width="1.5" stroke-linecap="round"/>
<text x="125" y="620" fill="#ffd60a" font-size="2" font-family="monospace" text-anchor="end" dominant-baseline="middle">NMI</text>
<line x1="150" y1="680" x2="130" y2="680" stroke="#ffd60a" stroke-width="1.5" stroke-linecap="round"/>
<text x="125" y="680" fill="#ffd60a" font-size="2" font-family="monospace" text-anchor="end" dominant-baseline="middle">~{TEST}/BUSY</text>
<line x1="150" y1="740" x2="130" y2="740" stroke="#ffd60a" stroke-width="1.5" stroke-linecap="round"/>
<text x="125" y="740" fill="#ffd60a" font-size="2" font-family="monospace" text-anchor="end" dominant-baseline="middle">SRDY</text>
<line x1="150" y1="800" x2="130" y2="800" stroke="#ffd60a" stroke-width="1.5" stroke-linecap="round"/>
<text x="125" y="800" fill="#ffd60a" font-size="2" font-family="monospace" text-anchor="end" dominant-baseline="middle">HOLD</text>
<line x1="150" y1="860" x2="130" y2="860" stroke="#ffd60a" stroke-width="1.5" stroke-linecap="round"/>
<text x="125" y="860" fill="#ffd60a" font-size="2" font-family="monospace" text-anchor="end" dominant-baseline="middle">ARDY</text>
<line x1="150" y1="920" x2="130" y2="920" stroke="#ffd60a" stroke-width="1.5" stroke-linecap="round"/>
<text x="125" y="920" fill="#ffd60a" font-size="2" font-family="monospace" text-anchor="end" dominant-baseline="middle">X2</text>
<line x1="150" y1="980" x2="130" y2="980" stroke="#ffd60a" stroke-width="1.5" stroke-linecap="round"/>
<text x="125" y="980" fill="#ffd60a" font-size="2" font-family="monospace" text-anchor="end" dominant-baseline="middle">X1</text>
<line x1="70" y1="30" x2="70" y2="50" stroke="#ffd60a" stroke-width="1.5" stroke-linecap="round"/>
<text x="70" y="25" fill="#ffd60a" font-size="2" font-family="monospace" text-anchor="middle" dominant-baseline="middle">VSS</text>
<line x1="110" y1="30" x2="110" y2="50" stroke="#ffd60a" stroke-width="1.5" stroke-linecap="round"/>
<text x="110" y="25" fill="#ffd60a" font-size="2" font-family="monospace" text-anchor="middle" dominant-baseline="middle">VSS</text>
<line x1="70" y1="1030" x2="70" y2="1010" stroke="#ffd60a" stroke-width="1.5" stroke-linecap="round"/>
<text x="70" y="1044" fill="#ffd60a" font-size="2" font-family="monospace" text-anchor="middle" dominant-baseline="middle">VCC</text>
<line x1="110" y1="1030" x2="110" y2="1010" stroke="#ffd60a" stroke-width="1.5" stroke-linecap="round"/>
<text x="110" y="1044" fill="#ffd60a" font-size="2" font-family="monospace" text-anchor="middle" dominant-baseline="middle">VCC</text>
</svg>