<svg xmlns="http://www.w3.org/2000/svg" viewBox="0 0 28.32 29.240000000000002">
<rect x="8.318000000000001" y="20.97" width="11.684" height="12.7" stroke="#ffffff" stroke-width="0.3" fill="none"/>
<line x1="12.382" y1="20.97" x2="12.382" y2="8.270000000000001" stroke="#ffffff" stroke-width="0.3" stroke-linecap="round" fill="none"/>
<line x1="15.938" y1="8.270000000000001" x2="15.938" y2="20.97" stroke="#ffffff" stroke-width="0.3" stroke-linecap="round" fill="none"/>
<rect x="6.54" y="22.240000000000002" width="15.24" height="15.24" stroke="#ffffff" stroke-width="0.3" fill="rgba(255,255,255,0.06)"/>
<line x1="6.54" y1="12.080000000000002" x2="16.954" y2="12.080000000000002" stroke="#ffffff" stroke-width="0.3" stroke-linecap="round" fill="none"/>
<line x1="6.54" y1="17.16" x2="9.334" y2="17.16" stroke="#ffffff" stroke-width="0.3" stroke-linecap="round" fill="none"/>
<circle cx="8.318000000000001" cy="17.16" r="0.2794" stroke="#ffffff" stroke-width="0.3" fill="#ffffff"/>
<line x1="8.826" y1="9.540000000000001" x2="7.8100000000000005" y2="9.540000000000001" stroke="#ffffff" stroke-width="0.3" stroke-linecap="round" fill="none"/>
<line x1="8.826" y1="18.684" x2="7.8100000000000005" y2="18.684" stroke="#ffffff" stroke-width="0.3" stroke-linecap="round" fill="none"/>
<circle cx="12.382" cy="8.270000000000001" r="0.2794" stroke="#ffffff" stroke-width="0.3" fill="#ffffff"/>
<circle cx="12.382" cy="17.16" r="0.2794" stroke="#ffffff" stroke-width="0.3" fill="#ffffff"/>
<circle cx="12.382" cy="20.97" r="0.2794" stroke="#ffffff" stroke-width="0.3" fill="#ffffff"/>
<line x1="12.89" y1="9.540000000000001" x2="11.874" y2="9.540000000000001" stroke="#ffffff" stroke-width="0.3" stroke-linecap="round" fill="none"/>
<line x1="12.89" y1="18.684" x2="11.874" y2="18.684" stroke="#ffffff" stroke-width="0.3" stroke-linecap="round" fill="none"/>
<line x1="13.652000000000001" y1="14.112000000000002" x2="13.652000000000001" y2="14.366000000000001" stroke="#ffffff" stroke-width="0.3" stroke-linecap="round" fill="none"/>
<line x1="14.16" y1="7.000000000000001" x2="14.16" y2="22.240000000000002" stroke="#ffffff" stroke-width="0.3" stroke-linecap="round" fill="none"/>
<circle cx="14.16" cy="8.270000000000001" r="0.2794" stroke="#ffffff" stroke-width="0.3" fill="#ffffff"/>
<circle cx="14.16" cy="20.97" r="0.2794" stroke="#ffffff" stroke-width="0.3" fill="#ffffff"/>
<line x1="14.668" y1="14.112000000000002" x2="13.652000000000001" y2="14.112000000000002" stroke="#ffffff" stroke-width="0.3" stroke-linecap="round" fill="none"/>
<circle cx="15.938" cy="8.270000000000001" r="0.2794" stroke="#ffffff" stroke-width="0.3" fill="#ffffff"/>
<circle cx="15.938" cy="12.080000000000002" r="0.2794" stroke="#ffffff" stroke-width="0.3" fill="#ffffff"/>
<circle cx="15.938" cy="20.97" r="0.2794" stroke="#ffffff" stroke-width="0.3" fill="#ffffff"/>
<line x1="16.446" y1="9.540000000000001" x2="15.43" y2="9.540000000000001" stroke="#ffffff" stroke-width="0.3" stroke-linecap="round" fill="none"/>
<line x1="16.446" y1="18.684" x2="15.43" y2="18.684" stroke="#ffffff" stroke-width="0.3" stroke-linecap="round" fill="none"/>
<circle cx="20.002" cy="12.080000000000002" r="0.2794" stroke="#ffffff" stroke-width="0.3" fill="#ffffff"/>
<line x1="20.509999999999998" y1="9.540000000000001" x2="19.494" y2="9.540000000000001" stroke="#ffffff" stroke-width="0.3" stroke-linecap="round" fill="none"/>
<line x1="20.509999999999998" y1="18.684" x2="19.494" y2="18.684" stroke="#ffffff" stroke-width="0.3" stroke-linecap="round" fill="none"/>
<line x1="21.78" y1="12.080000000000002" x2="18.986" y2="12.080000000000002" stroke="#ffffff" stroke-width="0.3" stroke-linecap="round" fill="none"/>
<line x1="21.78" y1="17.16" x2="11.366" y2="17.16" stroke="#ffffff" stroke-width="0.3" stroke-linecap="round" fill="none"/>
<polyline points="8.826,10.556000000000001 7.8100000000000005,10.556000000000001 8.318000000000001,9.540000000000001 8.826,10.556000000000001" stroke="#ffffff" stroke-width="0.3" stroke-linejoin="round" stroke-linecap="round" fill="#ffffff"/>
<polyline points="8.826,19.700000000000003 7.8100000000000005,19.700000000000003 8.318000000000001,18.684 8.826,19.700000000000003" stroke="#ffffff" stroke-width="0.3" stroke-linejoin="round" stroke-linecap="round" fill="#ffffff"/>
<rect x="9.334" y="17.668" width="2.0319999999999996" height="1.016" stroke="#ffffff" stroke-width="0.3" fill="none"/>
<polyline points="12.89,10.556000000000001 11.874,10.556000000000001 12.382,9.540000000000001 12.89,10.556000000000001" stroke="#ffffff" stroke-width="0.3" stroke-linejoin="round" stroke-linecap="round" fill="#ffffff"/>
<polyline points="12.89,19.700000000000003 11.874,19.700000000000003 12.382,18.684 12.89,19.700000000000003" stroke="#ffffff" stroke-width="0.3" stroke-linejoin="round" stroke-linecap="round" fill="#ffffff"/>
<polyline points="14.668,15.128 13.652000000000001,15.128 14.16,14.112000000000002 14.668,15.128" stroke="#ffffff" stroke-width="0.3" stroke-linejoin="round" stroke-linecap="round" fill="#ffffff"/>
<polyline points="16.446,10.556000000000001 15.43,10.556000000000001 15.938,9.540000000000001 16.446,10.556000000000001" stroke="#ffffff" stroke-width="0.3" stroke-linejoin="round" stroke-linecap="round" fill="#ffffff"/>
<polyline points="16.446,19.700000000000003 15.43,19.700000000000003 15.938,18.684 16.446,19.700000000000003" stroke="#ffffff" stroke-width="0.3" stroke-linejoin="round" stroke-linecap="round" fill="#ffffff"/>
<rect x="16.954" y="12.588000000000001" width="2.0319999999999996" height="1.016" stroke="#ffffff" stroke-width="0.3" fill="none"/>
<polyline points="20.509999999999998,10.556000000000001 19.494,10.556000000000001 20.002,9.540000000000001 20.509999999999998,10.556000000000001" stroke="#ffffff" stroke-width="0.3" stroke-linejoin="round" stroke-linecap="round" fill="#ffffff"/>
<polyline points="20.509999999999998,19.700000000000003 19.494,19.700000000000003 20.002,18.684 20.509999999999998,19.700000000000003" stroke="#ffffff" stroke-width="0.3" stroke-linejoin="round" stroke-linecap="round" fill="#ffffff"/>
<line x1="4" y1="17.16" x2="6.54" y2="17.16" stroke="#ffd60a" stroke-width="0.41771428571428576" stroke-linecap="round"/>
<line x1="14.16" y1="24.78" x2="14.16" y2="22.240000000000002" stroke="#ffd60a" stroke-width="0.41771428571428576" stroke-linecap="round"/>
<text x="14.16" y="25.240000000000002" fill="#ffd60a" font-size="1" font-family="monospace" text-anchor="middle" dominant-baseline="middle">VN</text>
<line x1="24.32" y1="17.16" x2="21.78" y2="17.16" stroke="#ffd60a" stroke-width="0.41771428571428576" stroke-linecap="round"/>
<line x1="24.32" y1="12.080000000000002" x2="21.78" y2="12.08" stroke="#ffd60a" stroke-width="0.41771428571428576" stroke-linecap="round"/>
<line x1="14.16" y1="4.460000000000001" x2="14.16" y2="7.000000000000001" stroke="#ffd60a" stroke-width="0.41771428571428576" stroke-linecap="round"/>
<text x="14.16" y="4" fill="#ffd60a" font-size="1" font-family="monospace" text-anchor="middle" dominant-baseline="middle">VP</text>
<line x1="4" y1="12.080000000000002" x2="6.54" y2="12.080000000000002" stroke="#ffd60a" stroke-width="0.41771428571428576" stroke-linecap="round"/>
</svg>