<svg xmlns="http://www.w3.org/2000/svg" viewBox="0 0 560 260">
<rect x="50" y="50" width="460" height="160" stroke="#ffffff" stroke-width="1.5" fill="rgba(255,255,255,0.04)"/>
<text x="280" y="130" fill="#888" font-size="3" font-family="monospace" text-anchor="middle" dominant-baseline="middle">U</text>
<line x1="30" y1="60" x2="50" y2="60" stroke="#ffd60a" stroke-width="1.5" stroke-linecap="round"/>
<text x="55" y="60" fill="#ffd60a" font-size="2" font-family="monospace" text-anchor="start" dominant-baseline="middle">Vout</text>
<line x1="30" y1="80" x2="50" y2="80" stroke="#ffd60a" stroke-width="1.5" stroke-linecap="round"/>
<text x="55" y="80" fill="#ffd60a" font-size="2" font-family="monospace" text-anchor="start" dominant-baseline="middle">GPIO1</text>
<line x1="30" y1="100" x2="50" y2="100" stroke="#ffd60a" stroke-width="1.5" stroke-linecap="round"/>
<text x="55" y="100" fill="#ffd60a" font-size="2" font-family="monospace" text-anchor="start" dominant-baseline="middle">GPIO2</text>
<line x1="30" y1="120" x2="50" y2="120" stroke="#ffd60a" stroke-width="1.5" stroke-linecap="round"/>
<text x="55" y="120" fill="#ffd60a" font-size="2" font-family="monospace" text-anchor="start" dominant-baseline="middle">GPIO3</text>
<line x1="30" y1="140" x2="50" y2="140" stroke="#ffd60a" stroke-width="1.5" stroke-linecap="round"/>
<text x="55" y="140" fill="#ffd60a" font-size="2" font-family="monospace" text-anchor="start" dominant-baseline="middle">GPIO4</text>
<line x1="30" y1="160" x2="50" y2="160" stroke="#ffd60a" stroke-width="1.5" stroke-linecap="round"/>
<text x="55" y="160" fill="#ffd60a" font-size="2" font-family="monospace" text-anchor="start" dominant-baseline="middle">RFU6</text>
<line x1="30" y1="180" x2="50" y2="180" stroke="#ffd60a" stroke-width="1.5" stroke-linecap="round"/>
<text x="55" y="180" fill="#ffd60a" font-size="2" font-family="monospace" text-anchor="start" dominant-baseline="middle">RFU7</text>
<line x1="30" y1="200" x2="50" y2="200" stroke="#ffd60a" stroke-width="1.5" stroke-linecap="round"/>
<text x="55" y="200" fill="#ffd60a" font-size="2" font-family="monospace" text-anchor="start" dominant-baseline="middle">RF</text>
<line x1="530" y1="60" x2="510" y2="60" stroke="#ffd60a" stroke-width="1.5" stroke-linecap="round"/>
<text x="505" y="60" fill="#ffd60a" font-size="2" font-family="monospace" text-anchor="end" dominant-baseline="middle">EN</text>
<line x1="530" y1="80" x2="510" y2="80" stroke="#ffd60a" stroke-width="1.5" stroke-linecap="round"/>
<text x="505" y="80" fill="#ffd60a" font-size="2" font-family="monospace" text-anchor="end" dominant-baseline="middle">UART_TX</text>
<line x1="530" y1="100" x2="510" y2="100" stroke="#ffd60a" stroke-width="1.5" stroke-linecap="round"/>
<text x="505" y="100" fill="#ffd60a" font-size="2" font-family="monospace" text-anchor="end" dominant-baseline="middle">UART_RX</text>
<line x1="530" y1="120" x2="510" y2="120" stroke="#ffd60a" stroke-width="1.5" stroke-linecap="round"/>
<text x="505" y="120" fill="#ffd60a" font-size="2" font-family="monospace" text-anchor="end" dominant-baseline="middle">RFU1</text>
<line x1="530" y1="140" x2="510" y2="140" stroke="#ffd60a" stroke-width="1.5" stroke-linecap="round"/>
<text x="505" y="140" fill="#ffd60a" font-size="2" font-family="monospace" text-anchor="end" dominant-baseline="middle">RFU2</text>
<line x1="530" y1="160" x2="510" y2="160" stroke="#ffd60a" stroke-width="1.5" stroke-linecap="round"/>
<text x="505" y="160" fill="#ffd60a" font-size="2" font-family="monospace" text-anchor="end" dominant-baseline="middle">RFU3</text>
<line x1="530" y1="180" x2="510" y2="180" stroke="#ffd60a" stroke-width="1.5" stroke-linecap="round"/>
<text x="505" y="180" fill="#ffd60a" font-size="2" font-family="monospace" text-anchor="end" dominant-baseline="middle">RFU4</text>
<line x1="530" y1="200" x2="510" y2="200" stroke="#ffd60a" stroke-width="1.5" stroke-linecap="round"/>
<text x="505" y="200" fill="#ffd60a" font-size="2" font-family="monospace" text-anchor="end" dominant-baseline="middle">RFU5</text>
<line x1="60" y1="30" x2="60" y2="50" stroke="#ffd60a" stroke-width="1.5" stroke-linecap="round"/>
<text x="60" y="25" fill="#ffd60a" font-size="2" font-family="monospace" text-anchor="middle" dominant-baseline="middle">GND</text>
<line x1="80" y1="30" x2="80" y2="50" stroke="#ffd60a" stroke-width="1.5" stroke-linecap="round"/>
<text x="80" y="25" fill="#ffd60a" font-size="2" font-family="monospace" text-anchor="middle" dominant-baseline="middle">GND</text>
<line x1="100" y1="30" x2="100" y2="50" stroke="#ffd60a" stroke-width="1.5" stroke-linecap="round"/>
<text x="100" y="25" fill="#ffd60a" font-size="2" font-family="monospace" text-anchor="middle" dominant-baseline="middle">GND</text>
<line x1="120" y1="30" x2="120" y2="50" stroke="#ffd60a" stroke-width="1.5" stroke-linecap="round"/>
<text x="120" y="25" fill="#ffd60a" font-size="2" font-family="monospace" text-anchor="middle" dominant-baseline="middle">GND</text>
<line x1="140" y1="30" x2="140" y2="50" stroke="#ffd60a" stroke-width="1.5" stroke-linecap="round"/>
<text x="140" y="25" fill="#ffd60a" font-size="2" font-family="monospace" text-anchor="middle" dominant-baseline="middle">GND</text>
<line x1="160" y1="30" x2="160" y2="50" stroke="#ffd60a" stroke-width="1.5" stroke-linecap="round"/>
<text x="160" y="25" fill="#ffd60a" font-size="2" font-family="monospace" text-anchor="middle" dominant-baseline="middle">GND</text>
<line x1="180" y1="30" x2="180" y2="50" stroke="#ffd60a" stroke-width="1.5" stroke-linecap="round"/>
<text x="180" y="25" fill="#ffd60a" font-size="2" font-family="monospace" text-anchor="middle" dominant-baseline="middle">GND</text>
<line x1="200" y1="30" x2="200" y2="50" stroke="#ffd60a" stroke-width="1.5" stroke-linecap="round"/>
<text x="200" y="25" fill="#ffd60a" font-size="2" font-family="monospace" text-anchor="middle" dominant-baseline="middle">GND</text>
<line x1="220" y1="30" x2="220" y2="50" stroke="#ffd60a" stroke-width="1.5" stroke-linecap="round"/>
<text x="220" y="25" fill="#ffd60a" font-size="2" font-family="monospace" text-anchor="middle" dominant-baseline="middle">GND</text>
<line x1="240" y1="30" x2="240" y2="50" stroke="#ffd60a" stroke-width="1.5" stroke-linecap="round"/>
<text x="240" y="25" fill="#ffd60a" font-size="2" font-family="monospace" text-anchor="middle" dominant-baseline="middle">GND</text>
<line x1="260" y1="30" x2="260" y2="50" stroke="#ffd60a" stroke-width="1.5" stroke-linecap="round"/>
<text x="260" y="25" fill="#ffd60a" font-size="2" font-family="monospace" text-anchor="middle" dominant-baseline="middle">GND</text>
<line x1="280" y1="30" x2="280" y2="50" stroke="#ffd60a" stroke-width="1.5" stroke-linecap="round"/>
<text x="280" y="25" fill="#ffd60a" font-size="2" font-family="monospace" text-anchor="middle" dominant-baseline="middle">GND</text>
<line x1="300" y1="30" x2="300" y2="50" stroke="#ffd60a" stroke-width="1.5" stroke-linecap="round"/>
<text x="300" y="25" fill="#ffd60a" font-size="2" font-family="monospace" text-anchor="middle" dominant-baseline="middle">GND</text>
<line x1="320" y1="30" x2="320" y2="50" stroke="#ffd60a" stroke-width="1.5" stroke-linecap="round"/>
<text x="320" y="25" fill="#ffd60a" font-size="2" font-family="monospace" text-anchor="middle" dominant-baseline="middle">GND</text>
<line x1="340" y1="30" x2="340" y2="50" stroke="#ffd60a" stroke-width="1.5" stroke-linecap="round"/>
<text x="340" y="25" fill="#ffd60a" font-size="2" font-family="monospace" text-anchor="middle" dominant-baseline="middle">GND</text>
<line x1="360" y1="30" x2="360" y2="50" stroke="#ffd60a" stroke-width="1.5" stroke-linecap="round"/>
<text x="360" y="25" fill="#ffd60a" font-size="2" font-family="monospace" text-anchor="middle" dominant-baseline="middle">GND</text>
<line x1="380" y1="30" x2="380" y2="50" stroke="#ffd60a" stroke-width="1.5" stroke-linecap="round"/>
<text x="380" y="25" fill="#ffd60a" font-size="2" font-family="monospace" text-anchor="middle" dominant-baseline="middle">GND</text>
<line x1="400" y1="30" x2="400" y2="50" stroke="#ffd60a" stroke-width="1.5" stroke-linecap="round"/>
<text x="400" y="25" fill="#ffd60a" font-size="2" font-family="monospace" text-anchor="middle" dominant-baseline="middle">GND</text>
<line x1="420" y1="30" x2="420" y2="50" stroke="#ffd60a" stroke-width="1.5" stroke-linecap="round"/>
<text x="420" y="25" fill="#ffd60a" font-size="2" font-family="monospace" text-anchor="middle" dominant-baseline="middle">GND</text>
<line x1="440" y1="30" x2="440" y2="50" stroke="#ffd60a" stroke-width="1.5" stroke-linecap="round"/>
<text x="440" y="25" fill="#ffd60a" font-size="2" font-family="monospace" text-anchor="middle" dominant-baseline="middle">GND</text>
<line x1="460" y1="30" x2="460" y2="50" stroke="#ffd60a" stroke-width="1.5" stroke-linecap="round"/>
<text x="460" y="25" fill="#ffd60a" font-size="2" font-family="monospace" text-anchor="middle" dominant-baseline="middle">GND</text>
<line x1="480" y1="30" x2="480" y2="50" stroke="#ffd60a" stroke-width="1.5" stroke-linecap="round"/>
<text x="480" y="25" fill="#ffd60a" font-size="2" font-family="monospace" text-anchor="middle" dominant-baseline="middle">GND</text>
<line x1="500" y1="30" x2="500" y2="50" stroke="#ffd60a" stroke-width="1.5" stroke-linecap="round"/>
<text x="500" y="25" fill="#ffd60a" font-size="2" font-family="monospace" text-anchor="middle" dominant-baseline="middle">GND</text>
<line x1="165" y1="230" x2="165" y2="210" stroke="#ffd60a" stroke-width="1.5" stroke-linecap="round"/>
<text x="165" y="244" fill="#ffd60a" font-size="2" font-family="monospace" text-anchor="middle" dominant-baseline="middle">Vin</text>
<line x1="395" y1="230" x2="395" y2="210" stroke="#ffd60a" stroke-width="1.5" stroke-linecap="round"/>
<text x="395" y="244" fill="#ffd60a" font-size="2" font-family="monospace" text-anchor="middle" dominant-baseline="middle">Vin</text>
</svg>