<svg xmlns="http://www.w3.org/2000/svg" viewBox="0 0 24.16 24.51">
<polyline points="7,7.8100000000000005 15.89,7.8100000000000005 15.89,17.97 7,17.97" stroke="#ffffff" stroke-width="0.3" stroke-linejoin="round" stroke-linecap="round" fill="none"/>
<polyline points="9.921,4.889000000000001 11.064,6.032000000000001 10.81,5.524000000000001 10.556000000000001,5.7780000000000005 11.064,6.032000000000001" stroke="#ffffff" stroke-width="0.3" stroke-linejoin="round" stroke-linecap="round" fill="none"/>
<polyline points="9.921,9.969000000000001 11.064,11.112 10.81,10.604000000000001 10.556000000000001,10.858 11.064,11.112" stroke="#ffffff" stroke-width="0.3" stroke-linejoin="round" stroke-linecap="round" fill="none"/>
<polyline points="9.921,15.049 11.064,16.192 10.81,15.684000000000001 10.556000000000001,15.938 11.064,16.192" stroke="#ffffff" stroke-width="0.3" stroke-linejoin="round" stroke-linecap="round" fill="none"/>
<polyline points="11.064,14.922 12.207,16.065 11.953,15.557 11.699,15.811 12.207,16.065" stroke="#ffffff" stroke-width="0.3" stroke-linejoin="round" stroke-linecap="round" fill="none"/>
<polyline points="11.191,4.7620000000000005 12.334,5.905 12.08,5.397 11.826,5.651000000000001 12.334,5.905" stroke="#ffffff" stroke-width="0.3" stroke-linejoin="round" stroke-linecap="round" fill="none"/>
<polyline points="11.191,9.969000000000001 12.334,11.112 12.08,10.604000000000001 11.826,10.858 12.334,11.112" stroke="#ffffff" stroke-width="0.3" stroke-linejoin="round" stroke-linecap="round" fill="none"/>
<polyline points="12.715,6.540000000000001 12.715,9.08 12.715,7.8100000000000005 10.81,6.540000000000001 10.81,9.08 12.715,7.8100000000000005" stroke="#ffffff" stroke-width="0.3" stroke-linejoin="round" stroke-linecap="round" fill="none"/>
<polyline points="12.715,11.620000000000001 12.715,14.16 12.715,12.89 10.81,11.620000000000001 10.81,14.16 12.715,12.89" stroke="#ffffff" stroke-width="0.3" stroke-linejoin="round" stroke-linecap="round" fill="none"/>
<polyline points="12.715,16.7 12.715,19.240000000000002 12.715,17.97 10.81,16.7 10.81,19.240000000000002 12.715,17.97" stroke="#ffffff" stroke-width="0.3" stroke-linejoin="round" stroke-linecap="round" fill="none"/>
<circle cx="15.89" cy="12.89" r="0.508" stroke="#ffffff" stroke-width="0.3" fill="#ffffff"/>
<line x1="17.16" y1="12.89" x2="7" y2="12.89" stroke="#ffffff" stroke-width="0.3" stroke-linecap="round" fill="none"/>
<rect x="7" y="20.51" width="10.16" height="16.51" stroke="#ffffff" stroke-width="0.3" fill="rgba(255,255,255,0.06)"/>
<line x1="4.46" y1="7.8100000000000005" x2="7" y2="7.8100000000000005" stroke="#ffd60a" stroke-width="0.35014285714285714" stroke-linecap="round"/>
<text x="4" y="7.8100000000000005" fill="#ffd60a" font-size="1" font-family="monospace" text-anchor="start" dominant-baseline="middle">AR</text>
<line x1="4.46" y1="12.89" x2="7" y2="12.89" stroke="#ffd60a" stroke-width="0.35014285714285714" stroke-linecap="round"/>
<text x="4" y="12.89" fill="#ffd60a" font-size="1" font-family="monospace" text-anchor="start" dominant-baseline="middle">AG</text>
<line x1="4.46" y1="17.97" x2="7" y2="17.97" stroke="#ffd60a" stroke-width="0.35014285714285714" stroke-linecap="round"/>
<text x="4" y="17.97" fill="#ffd60a" font-size="1" font-family="monospace" text-anchor="start" dominant-baseline="middle">AB</text>
<line x1="19.7" y1="12.89" x2="17.16" y2="12.89" stroke="#ffd60a" stroke-width="0.35014285714285714" stroke-linecap="round"/>
<text x="20.16" y="12.89" fill="#ffd60a" font-size="1" font-family="monospace" text-anchor="end" dominant-baseline="middle">C</text>
</svg>