<svg xmlns="http://www.w3.org/2000/svg" viewBox="0 0 11.175 19.08">
<line x1="3.9999999999999996" y1="11.444999999999999" x2="7.175" y2="6.999999999999999" stroke="#ffffff" stroke-width="0.3" stroke-linecap="round" fill="none"/>
<path d="M 5.27 6.999999999999999 A 0.6350057646686704 0.6350057646686704 0 0 1 5.27 8.27" stroke="#ffffff" stroke-width="0.3" fill="none"/>
<path d="M 5.27 8.27 A 0.6350057646686701 0.6350057646686701 0 0 1 5.27 9.54" stroke="#ffffff" stroke-width="0.3" fill="none"/>
<path d="M 5.27 9.54 A 0.6350057646686699 0.6350057646686699 0 0 1 5.27 10.809999999999999" stroke="#ffffff" stroke-width="0.3" fill="none"/>
<path d="M 5.27 10.809999999999999 A 0.6350057646686695 0.6350057646686695 0 0 1 5.27 12.079999999999998" stroke="#ffffff" stroke-width="0.3" fill="none"/>
<line x1="7.175" y1="6.999999999999999" x2="6.286" y2="7.380999999999999" stroke="#ffffff" stroke-width="0.3" stroke-linecap="round" fill="none"/>
<line x1="7.175" y1="6.999999999999999" x2="7.048" y2="7.888999999999999" stroke="#ffffff" stroke-width="0.3" stroke-linecap="round" fill="none"/>
<line x1="5.27" y1="5.729999999999999" x2="5.27" y2="6.999999999999999" stroke="#ffd60a" stroke-width="0.2725714285714285" stroke-linecap="round"/>
<text x="5.27" y="3.999999999999999" fill="#ffd60a" font-size="1" font-family="monospace" text-anchor="middle" dominant-baseline="middle">1</text>
<line x1="5.27" y1="13.35" x2="5.27" y2="12.079999999999998" stroke="#ffd60a" stroke-width="0.2725714285714285" stroke-linecap="round"/>
<text x="5.27" y="15.079999999999998" fill="#ffd60a" font-size="1" font-family="monospace" text-anchor="middle" dominant-baseline="middle">2</text>
</svg>