<svg xmlns="http://www.w3.org/2000/svg" viewBox="0 0 21.619999999999997 12.190999999999999">
<line x1="6.999999999999998" y1="6.920999999999999" x2="9.793999999999999" y2="6.920999999999999" stroke="#ffffff" stroke-width="0.3" stroke-linecap="round" fill="none"/>
<line x1="7.126999999999999" y1="8.190999999999999" x2="7.126999999999999" y2="5.651" stroke="#ffffff" stroke-width="0.3" stroke-linecap="round" fill="none"/>
<polyline points="7.507999999999999,5.523999999999999 9.031999999999998,3.9999999999999996 8.27,3.9999999999999996 9.031999999999998,3.9999999999999996 9.031999999999998,4.762" stroke="#ffffff" stroke-width="0.3" stroke-linejoin="round" stroke-linecap="round" fill="none"/>
<polyline points="8.777999999999999,5.523999999999999 10.302,3.9999999999999996 9.54,3.9999999999999996 10.302,3.9999999999999996 10.302,4.762" stroke="#ffffff" stroke-width="0.3" stroke-linejoin="round" stroke-linecap="round" fill="none"/>
<polyline points="9.666999999999998,8.190999999999999 9.666999999999998,5.651 7.126999999999999,6.920999999999999 9.666999999999998,8.190999999999999" stroke="#ffffff" stroke-width="0.3" stroke-linejoin="round" stroke-linecap="round" fill="none"/>
<line x1="10.302" y1="6.920999999999999" x2="10.047999999999998" y2="6.920999999999999" stroke="#ffffff" stroke-width="0.3" stroke-linecap="round" fill="none"/>
<line x1="10.937" y1="6.920999999999999" x2="10.682999999999998" y2="6.920999999999999" stroke="#ffffff" stroke-width="0.3" stroke-linecap="round" fill="none"/>
<line x1="11.317999999999998" y1="6.920999999999999" x2="11.572" y2="6.920999999999999" stroke="#ffffff" stroke-width="0.3" stroke-linecap="round" fill="none"/>
<line x1="11.825999999999999" y1="6.920999999999999" x2="14.62" y2="6.920999999999999" stroke="#ffffff" stroke-width="0.3" stroke-linecap="round" fill="none"/>
<line x1="11.953" y1="8.190999999999999" x2="11.953" y2="5.651" stroke="#ffffff" stroke-width="0.3" stroke-linecap="round" fill="none"/>
<polyline points="12.334,5.523999999999999 13.857999999999999,3.9999999999999996 13.095999999999998,3.9999999999999996 13.857999999999999,3.9999999999999996 13.857999999999999,4.762" stroke="#ffffff" stroke-width="0.3" stroke-linejoin="round" stroke-linecap="round" fill="none"/>
<polyline points="13.604,5.523999999999999 15.127999999999998,3.9999999999999996 14.366,3.9999999999999996 15.127999999999998,3.9999999999999996 15.127999999999998,4.762" stroke="#ffffff" stroke-width="0.3" stroke-linejoin="round" stroke-linecap="round" fill="none"/>
<polyline points="14.492999999999999,8.190999999999999 14.492999999999999,5.651 11.953,6.920999999999999 14.492999999999999,8.190999999999999" stroke="#ffffff" stroke-width="0.3" stroke-linejoin="round" stroke-linecap="round" fill="none"/>
<line x1="4.459999999999999" y1="6.920999999999999" x2="6.999999999999999" y2="6.920999999999999" stroke="#ffd60a" stroke-width="0.30885714285714283" stroke-linecap="round"/>
<text x="3.999999999999999" y="6.920999999999999" fill="#ffd60a" font-size="1" font-family="monospace" text-anchor="start" dominant-baseline="middle">K</text>
<line x1="17.159999999999997" y1="6.920999999999999" x2="14.619999999999997" y2="6.920999999999999" stroke="#ffd60a" stroke-width="0.30885714285714283" stroke-linecap="round"/>
<text x="17.619999999999997" y="6.920999999999999" fill="#ffd60a" font-size="1" font-family="monospace" text-anchor="end" dominant-baseline="middle">A</text>
</svg>