<svg xmlns="http://www.w3.org/2000/svg" viewBox="0 0 23.240000000000002 19.176000000000002">
<line x1="6.540000000000001" y1="8.064" x2="13.652000000000001" y2="8.064" stroke="#ffffff" stroke-width="0.3" stroke-linecap="round" fill="none"/>
<line x1="6.540000000000001" y1="13.143999999999998" x2="13.652000000000001" y2="13.143999999999998" stroke="#ffffff" stroke-width="0.3" stroke-linecap="round" fill="none"/>
<polyline points="10.350000000000001,6.793999999999999 10.350000000000001,9.334 12.89,8.064 10.350000000000001,6.793999999999999" stroke="#ffffff" stroke-width="0.3" stroke-linejoin="round" stroke-linecap="round" fill="none"/>
<polyline points="10.350000000000001,11.873999999999999 10.350000000000001,14.414 12.89,13.143999999999998 10.350000000000001,11.873999999999999" stroke="#ffffff" stroke-width="0.3" stroke-linejoin="round" stroke-linecap="round" fill="none"/>
<circle cx="11.620000000000001" cy="10.604" r="4.572" stroke="#ffffff" stroke-width="0.3" fill="rgba(255,255,255,0.06)"/>
<line x1="12.89" y1="6.793999999999999" x2="12.89" y2="9.334" stroke="#ffffff" stroke-width="0.3" stroke-linecap="round" fill="none"/>
<line x1="12.89" y1="11.873999999999999" x2="12.89" y2="14.414" stroke="#ffffff" stroke-width="0.3" stroke-linecap="round" fill="none"/>
<polyline points="13.652000000000001,5.523999999999999 15.176000000000002,3.999999999999999 14.414000000000001,3.999999999999999 15.176000000000002,3.999999999999999 15.176000000000002,4.762" stroke="#ffffff" stroke-width="0.3" stroke-linejoin="round" stroke-linecap="round" fill="none"/>
<polyline points="14.922,6.539999999999999 16.446,5.015999999999999 15.684000000000001,5.015999999999999 16.446,5.015999999999999 16.446,5.778" stroke="#ffffff" stroke-width="0.3" stroke-linejoin="round" stroke-linecap="round" fill="none"/>
<line x1="15.430000000000001" y1="8.064" x2="13.525" y2="8.064" stroke="#ffffff" stroke-width="0.3" stroke-linecap="round" fill="none"/>
<line x1="15.430000000000001" y1="13.143999999999998" x2="13.525" y2="13.143999999999998" stroke="#ffffff" stroke-width="0.3" stroke-linecap="round" fill="none"/>
<line x1="4.000000000000001" y1="8.064" x2="7.048000000000001" y2="8.064" stroke="#ffd60a" stroke-width="0.332" stroke-linecap="round"/>
<text x="10.048000000000002" y="8.064" fill="#ffd60a" font-size="1" font-family="monospace" text-anchor="start" dominant-baseline="middle">A1</text>
<line x1="19.240000000000002" y1="8.064" x2="15.430000000000001" y2="8.063999999999998" stroke="#ffd60a" stroke-width="0.332" stroke-linecap="round"/>
<text x="12.430000000000001" y="8.063999999999998" fill="#ffd60a" font-size="1" font-family="monospace" text-anchor="end" dominant-baseline="middle">K1</text>
<line x1="19.240000000000002" y1="13.143999999999998" x2="15.430000000000001" y2="13.143999999999998" stroke="#ffd60a" stroke-width="0.332" stroke-linecap="round"/>
<text x="12.430000000000001" y="13.143999999999998" fill="#ffd60a" font-size="1" font-family="monospace" text-anchor="end" dominant-baseline="middle">K2</text>
<line x1="4.000000000000001" y1="13.143999999999998" x2="7.048000000000001" y2="13.143999999999998" stroke="#ffd60a" stroke-width="0.332" stroke-linecap="round"/>
<text x="10.048000000000002" y="13.143999999999998" fill="#ffd60a" font-size="1" font-family="monospace" text-anchor="start" dominant-baseline="middle">A2</text>
</svg>