<svg xmlns="http://www.w3.org/2000/svg" viewBox="0 0 29.240000000000002 21.16">
<line x1="7.000000000000001" y1="9.08" x2="22.240000000000002" y2="9.08" stroke="#ffffff" stroke-width="0.3" stroke-linecap="round" fill="none"/>
<circle cx="7.762000000000001" cy="9.08" r="0.254" stroke="#ffffff" stroke-width="0.3" fill="#ffffff"/>
<polyline points="7.762000000000001,9.08 7.762000000000001,12.128 21.478,12.128 21.478,9.08" stroke="#ffffff" stroke-width="0.3" stroke-linejoin="round" stroke-linecap="round" fill="none"/>
<polyline points="12.334000000000001,13.144 12.080000000000002,12.89 12.080000000000002,11.366 11.826,11.112" stroke="#ffffff" stroke-width="0.3" stroke-linejoin="round" stroke-linecap="round" fill="none"/>
<line x1="14.620000000000001" y1="9.08" x2="14.620000000000001" y2="13.652000000000001" stroke="#ffffff" stroke-width="0.3" stroke-linecap="round" fill="none"/>
<circle cx="14.620000000000001" cy="9.08" r="0.254" stroke="#ffffff" stroke-width="0.3" fill="#ffffff"/>
<circle cx="14.620000000000001" cy="12.128" r="0.254" stroke="#ffffff" stroke-width="0.3" fill="#ffffff"/>
<line x1="14.620000000000001" y1="12.89" x2="14.620000000000001" y2="13.652000000000001" stroke="#ffffff" stroke-width="0.3" stroke-linecap="round" fill="none"/>
<polyline points="18.938000000000002,13.144 18.684,12.89 18.684,11.366 18.43,11.112" stroke="#ffffff" stroke-width="0.3" stroke-linejoin="round" stroke-linecap="round" fill="none"/>
<circle cx="21.478" cy="9.08" r="0.254" stroke="#ffffff" stroke-width="0.3" fill="#ffffff"/>
<rect x="7.000000000000001" y="14.16" width="15.24" height="10.16" stroke="#ffffff" stroke-width="0.3" fill="rgba(255,255,255,0.06)"/>
<line x1="8.524000000000001" y1="7.8100000000000005" x2="8.524000000000001" y2="10.35" stroke="#ffffff" stroke-width="0.3" stroke-linecap="round" fill="none"/>
<polyline points="8.524000000000001,9.08 11.064,7.8100000000000005 11.064,10.35 8.524000000000001,9.08" stroke="#ffffff" stroke-width="0.3" stroke-linejoin="round" stroke-linecap="round" fill="none"/>
<line x1="9.032" y1="7.556" x2="10.556000000000001" y2="6.032" stroke="#ffffff" stroke-width="0.3" stroke-linecap="round" fill="none"/>
<polyline points="9.794,6.032 10.556000000000001,6.032 10.556000000000001,6.7940000000000005" stroke="#ffffff" stroke-width="0.3" stroke-linejoin="round" stroke-linecap="round" fill="none"/>
<line x1="10.302000000000001" y1="7.556" x2="11.826" y2="6.032" stroke="#ffffff" stroke-width="0.3" stroke-linecap="round" fill="none"/>
<polyline points="10.556000000000001,11.366 12.080000000000002,12.128 10.556000000000001,12.89 10.556000000000001,11.366" stroke="#ffffff" stroke-width="0.3" stroke-linejoin="round" stroke-linecap="round" fill="none"/>
<polyline points="11.064,6.032 11.826,6.032 11.826,6.7940000000000005" stroke="#ffffff" stroke-width="0.3" stroke-linejoin="round" stroke-linecap="round" fill="none"/>
<line x1="11.572000000000001" y1="7.8100000000000005" x2="11.572000000000001" y2="10.35" stroke="#ffffff" stroke-width="0.3" stroke-linecap="round" fill="none"/>
<polyline points="11.572000000000001,9.08 14.112000000000002,7.8100000000000005 14.112000000000002,10.35 11.572000000000001,9.08" stroke="#ffffff" stroke-width="0.3" stroke-linejoin="round" stroke-linecap="round" fill="none"/>
<line x1="12.080000000000002" y1="7.556" x2="13.604000000000001" y2="6.032" stroke="#ffffff" stroke-width="0.3" stroke-linecap="round" fill="none"/>
<polyline points="12.842,6.032 13.604000000000001,6.032 13.604000000000001,6.7940000000000005" stroke="#ffffff" stroke-width="0.3" stroke-linejoin="round" stroke-linecap="round" fill="none"/>
<line x1="13.350000000000001" y1="7.556" x2="14.874" y2="6.032" stroke="#ffffff" stroke-width="0.3" stroke-linecap="round" fill="none"/>
<polyline points="14.112000000000002,6.032 14.874,6.032 14.874,6.7940000000000005" stroke="#ffffff" stroke-width="0.3" stroke-linejoin="round" stroke-linecap="round" fill="none"/>
<line x1="15.128" y1="7.8100000000000005" x2="15.128" y2="10.35" stroke="#ffffff" stroke-width="0.3" stroke-linecap="round" fill="none"/>
<polyline points="15.128,9.08 17.668,7.8100000000000005 17.668,10.35 15.128,9.08" stroke="#ffffff" stroke-width="0.3" stroke-linejoin="round" stroke-linecap="round" fill="none"/>
<line x1="15.636000000000001" y1="7.556" x2="17.16" y2="6.032" stroke="#ffffff" stroke-width="0.3" stroke-linecap="round" fill="none"/>
<polyline points="16.398,6.032 17.16,6.032 17.16,6.7940000000000005" stroke="#ffffff" stroke-width="0.3" stroke-linejoin="round" stroke-linecap="round" fill="none"/>
<line x1="16.906000000000002" y1="7.556" x2="18.43" y2="6.032" stroke="#ffffff" stroke-width="0.3" stroke-linecap="round" fill="none"/>
<polyline points="17.16,11.366 18.684,12.128 17.16,12.89 17.16,11.366" stroke="#ffffff" stroke-width="0.3" stroke-linejoin="round" stroke-linecap="round" fill="none"/>
<polyline points="17.668,6.032 18.43,6.032 18.43,6.7940000000000005" stroke="#ffffff" stroke-width="0.3" stroke-linejoin="round" stroke-linecap="round" fill="none"/>
<line x1="18.176000000000002" y1="7.8100000000000005" x2="18.176000000000002" y2="10.35" stroke="#ffffff" stroke-width="0.3" stroke-linecap="round" fill="none"/>
<polyline points="18.176000000000002,9.08 20.716,7.8100000000000005 20.716,10.35 18.176000000000002,9.08" stroke="#ffffff" stroke-width="0.3" stroke-linejoin="round" stroke-linecap="round" fill="none"/>
<line x1="18.684" y1="7.556" x2="20.208000000000002" y2="6.032" stroke="#ffffff" stroke-width="0.3" stroke-linecap="round" fill="none"/>
<polyline points="19.446,6.032 20.208000000000002,6.032 20.208000000000002,6.7940000000000005" stroke="#ffffff" stroke-width="0.3" stroke-linejoin="round" stroke-linecap="round" fill="none"/>
<line x1="19.954" y1="7.556" x2="21.478" y2="6.032" stroke="#ffffff" stroke-width="0.3" stroke-linecap="round" fill="none"/>
<polyline points="20.716,6.032 21.478,6.032 21.478,6.7940000000000005" stroke="#ffffff" stroke-width="0.3" stroke-linejoin="round" stroke-linecap="round" fill="none"/>
<line x1="4.460000000000001" y1="9.08" x2="7.000000000000001" y2="9.08" stroke="#ffd60a" stroke-width="0.41771428571428576" stroke-linecap="round"/>
<text x="4" y="9.08" fill="#ffd60a" font-size="1" font-family="monospace" text-anchor="start" dominant-baseline="middle">K</text>
<line x1="24.78" y1="9.08" x2="22.240000000000002" y2="9.08" stroke="#ffd60a" stroke-width="0.41771428571428576" stroke-linecap="round"/>
<text x="25.240000000000002" y="9.08" fill="#ffd60a" font-size="1" font-family="monospace" text-anchor="end" dominant-baseline="middle">A</text>
<line x1="14.620000000000001" y1="16.7" x2="14.620000000000001" y2="14.16" stroke="#ffd60a" stroke-width="0.41771428571428576" stroke-linecap="round"/>
<text x="14.620000000000001" y="17.16" fill="#ffd60a" font-size="1" font-family="monospace" text-anchor="middle" dominant-baseline="middle">PAD</text>
</svg>