<svg xmlns="http://www.w3.org/2000/svg" viewBox="0 0 21.619999999999997 26.748">
<polyline points="5.983999999999999,17.208 5.983999999999999,19.748 15.636,19.748 15.636,17.208" stroke="#ffffff" stroke-width="0.3" stroke-linejoin="round" stroke-linecap="round" fill="none"/>
<circle cx="6.999999999999998" cy="9.588000000000001" r="0.3556" stroke="#ffffff" stroke-width="0.3" fill="#ffffff"/>
<circle cx="6.999999999999998" cy="12.128" r="0.3556" stroke="#ffffff" stroke-width="0.3" fill="#ffffff"/>
<circle cx="6.999999999999998" cy="14.668" r="0.3556" stroke="#ffffff" stroke-width="0.3" fill="#ffffff"/>
<line x1="6.999999999999998" y1="14.668" x2="14.62" y2="14.668" stroke="#ffffff" stroke-width="0.3" stroke-linecap="round" fill="none"/>
<polyline points="6.999999999999998,17.716 6.999999999999998,5.016 14.62,5.016 14.62,17.716 6.999999999999998,17.716" stroke="#ffffff" stroke-width="0.3" stroke-linejoin="round" stroke-linecap="round" fill="none"/>
<line x1="7.761999999999999" y1="10.858" x2="7.761999999999999" y2="8.318" stroke="#ffffff" stroke-width="0.3" stroke-linecap="round" fill="none"/>
<line x1="7.761999999999999" y1="15.938" x2="7.761999999999999" y2="13.398" stroke="#ffffff" stroke-width="0.3" stroke-linecap="round" fill="none"/>
<polyline points="8.142999999999999,8.191 9.666999999999998,6.667 8.905,6.667 9.666999999999998,6.667 9.666999999999998,7.429" stroke="#ffffff" stroke-width="0.3" stroke-linejoin="round" stroke-linecap="round" fill="none"/>
<polyline points="8.142999999999999,13.271 9.666999999999998,11.747 8.905,11.747 9.666999999999998,11.747 9.666999999999998,12.509" stroke="#ffffff" stroke-width="0.3" stroke-linejoin="round" stroke-linecap="round" fill="none"/>
<polyline points="9.412999999999998,8.191 10.937,6.667 10.174999999999999,6.667 10.937,6.667 10.937,7.429" stroke="#ffffff" stroke-width="0.3" stroke-linejoin="round" stroke-linecap="round" fill="none"/>
<polyline points="9.412999999999998,13.271 10.937,11.747 10.174999999999999,11.747 10.937,11.747 10.937,12.509" stroke="#ffffff" stroke-width="0.3" stroke-linejoin="round" stroke-linecap="round" fill="none"/>
<polyline points="9.54,5.7780000000000005 9.54,4.2540000000000004 11.063999999999998,5.016 9.54,5.7780000000000005 9.54,5.524" stroke="#ffffff" stroke-width="0.3" stroke-linejoin="round" stroke-linecap="round" fill="none"/>
<polyline points="9.921,18.478 9.921,16.954 11.444999999999999,17.716 9.921,18.478 9.921,18.224" stroke="#ffffff" stroke-width="0.3" stroke-linejoin="round" stroke-linecap="round" fill="none"/>
<polyline points="10.302,10.858 10.302,8.318 7.761999999999999,9.588000000000001 10.302,10.858" stroke="#ffffff" stroke-width="0.3" stroke-linejoin="round" stroke-linecap="round" fill="none"/>
<polyline points="10.302,15.938 10.302,13.398 7.761999999999999,14.668 10.302,15.938" stroke="#ffffff" stroke-width="0.3" stroke-linejoin="round" stroke-linecap="round" fill="none"/>
<line x1="10.682999999999998" y1="10.858" x2="10.682999999999998" y2="8.318" stroke="#ffffff" stroke-width="0.3" stroke-linecap="round" fill="none"/>
<line x1="10.809999999999999" y1="15.938" x2="10.809999999999999" y2="13.398" stroke="#ffffff" stroke-width="0.3" stroke-linecap="round" fill="none"/>
<polyline points="11.063999999999998,8.191 12.588,6.667 11.825999999999999,6.667 12.588,6.667 12.588,7.429" stroke="#ffffff" stroke-width="0.3" stroke-linejoin="round" stroke-linecap="round" fill="none"/>
<polyline points="11.190999999999999,13.271 12.714999999999998,11.747 11.953,11.747 12.714999999999998,11.747 12.714999999999998,12.509" stroke="#ffffff" stroke-width="0.3" stroke-linejoin="round" stroke-linecap="round" fill="none"/>
<polyline points="11.317999999999998,6.032 11.063999999999998,5.7780000000000005 11.063999999999998,4.2540000000000004 10.809999999999999,4" stroke="#ffffff" stroke-width="0.3" stroke-linejoin="round" stroke-linecap="round" fill="none"/>
<polyline points="11.698999999999998,18.732 11.444999999999999,18.478 11.444999999999999,16.954 11.190999999999999,16.7" stroke="#ffffff" stroke-width="0.3" stroke-linejoin="round" stroke-linecap="round" fill="none"/>
<polyline points="12.334,8.191 13.857999999999999,6.667 13.095999999999998,6.667 13.857999999999999,6.667 13.857999999999999,7.429" stroke="#ffffff" stroke-width="0.3" stroke-linejoin="round" stroke-linecap="round" fill="none"/>
<polyline points="12.460999999999999,13.271 13.985,11.747 13.222999999999999,11.747 13.985,11.747 13.985,12.509" stroke="#ffffff" stroke-width="0.3" stroke-linejoin="round" stroke-linecap="round" fill="none"/>
<polyline points="13.222999999999999,10.858 13.222999999999999,8.318 10.682999999999998,9.588000000000001 13.222999999999999,10.858" stroke="#ffffff" stroke-width="0.3" stroke-linejoin="round" stroke-linecap="round" fill="none"/>
<polyline points="13.349999999999998,15.938 13.349999999999998,13.398 10.809999999999999,14.668 13.349999999999998,15.938" stroke="#ffffff" stroke-width="0.3" stroke-linejoin="round" stroke-linecap="round" fill="none"/>
<line x1="14.62" y1="9.588000000000001" x2="6.999999999999998" y2="9.588000000000001" stroke="#ffffff" stroke-width="0.3" stroke-linecap="round" fill="none"/>
<circle cx="14.62" cy="9.588000000000001" r="0.3556" stroke="#ffffff" stroke-width="0.3" fill="#ffffff"/>
<circle cx="14.62" cy="12.128" r="0.3556" stroke="#ffffff" stroke-width="0.3" fill="#ffffff"/>
<circle cx="14.62" cy="14.668" r="0.3556" stroke="#ffffff" stroke-width="0.3" fill="#ffffff"/>
<line x1="4.459999999999999" y1="12.128" x2="6.999999999999999" y2="12.128" stroke="#ffd60a" stroke-width="0.38211428571428574" stroke-linecap="round"/>
<text x="3.999999999999999" y="12.128" fill="#ffd60a" font-size="1" font-family="monospace" text-anchor="start" dominant-baseline="middle">K</text>
<line x1="17.159999999999997" y1="12.128" x2="14.619999999999997" y2="12.128" stroke="#ffd60a" stroke-width="0.38211428571428574" stroke-linecap="round"/>
<text x="17.619999999999997" y="12.128" fill="#ffd60a" font-size="1" font-family="monospace" text-anchor="end" dominant-baseline="middle">A</text>
<line x1="10.809999999999999" y1="22.288" x2="10.809999999999999" y2="19.748" stroke="#ffd60a" stroke-width="0.38211428571428574" stroke-linecap="round"/>
<text x="10.809999999999999" y="22.748" fill="#ffd60a" font-size="1" font-family="monospace" text-anchor="middle" dominant-baseline="middle">PAD</text>
</svg>