<svg xmlns="http://www.w3.org/2000/svg" viewBox="0 0 33.4 33.4">
<line x1="6.539999999999999" y1="11.62" x2="7.809999999999999" y2="11.62" stroke="#ffffff" stroke-width="0.3" stroke-linecap="round" fill="none"/>
<line x1="7.809999999999999" y1="11.62" x2="10.858" y2="13.905999999999999" stroke="#ffffff" stroke-width="0.3" stroke-linecap="round" fill="none"/>
<line x1="7.809999999999999" y1="21.78" x2="6.539999999999999" y2="21.78" stroke="#ffffff" stroke-width="0.3" stroke-linecap="round" fill="none"/>
<line x1="7.809999999999999" y1="21.78" x2="10.858" y2="19.494" stroke="#ffffff" stroke-width="0.3" stroke-linecap="round" fill="none"/>
<line x1="9.079999999999998" y1="16.7" x2="24.32" y2="16.7" stroke="#ffffff" stroke-width="0.3" stroke-linecap="round" fill="none"/>
<circle cx="11.62" cy="14.16" r="0.762" stroke="#ffffff" stroke-width="0.3" fill="none"/>
<circle cx="11.62" cy="19.24" r="0.762" stroke="#ffffff" stroke-width="0.3" fill="none"/>
<path d="M 16.674599999999998 24.32 A 7.619985722793425 7.619985722793425 0 0 1 9.079999999999998 16.7254" stroke="#ffffff" stroke-width="0.3" fill="none"/>
<line x1="16.7" y1="6.539999999999999" x2="16.7" y2="10.858" stroke="#ffffff" stroke-width="0.3" stroke-linecap="round" fill="none"/>
<circle cx="16.7" cy="11.62" r="0.762" stroke="#ffffff" stroke-width="0.3" fill="none"/>
<circle cx="16.7" cy="16.7" r="10.16" stroke="#ffffff" stroke-width="0.3" fill="rgba(255,255,255,0.06)"/>
<path d="M 24.32 16.7254 A 7.619985722793425 7.619985722793425 0 0 1 16.7254 24.32" stroke="#ffffff" stroke-width="0.3" fill="none"/>
<circle cx="16.7" cy="21.78" r="0.762" stroke="#ffffff" stroke-width="0.3" fill="none"/>
<line x1="16.7" y1="26.86" x2="16.7" y2="22.541999999999998" stroke="#ffffff" stroke-width="0.3" stroke-linecap="round" fill="none"/>
<circle cx="21.78" cy="14.16" r="0.762" stroke="#ffffff" stroke-width="0.3" fill="none"/>
<circle cx="21.78" cy="19.24" r="0.762" stroke="#ffffff" stroke-width="0.3" fill="none"/>
<line x1="25.59" y1="11.62" x2="22.541999999999998" y2="13.905999999999999" stroke="#ffffff" stroke-width="0.3" stroke-linecap="round" fill="none"/>
<line x1="25.59" y1="21.78" x2="22.541999999999998" y2="19.494" stroke="#ffffff" stroke-width="0.3" stroke-linecap="round" fill="none"/>
<line x1="25.59" y1="21.78" x2="26.86" y2="21.78" stroke="#ffffff" stroke-width="0.3" stroke-linecap="round" fill="none"/>
<line x1="26.86" y1="11.62" x2="25.59" y2="11.62" stroke="#ffffff" stroke-width="0.3" stroke-linecap="round" fill="none"/>
<line x1="4" y1="21.78" x2="6.539999999999999" y2="21.78" stroke="#ffd60a" stroke-width="0.47714285714285715" stroke-linecap="round"/>
<line x1="16.7" y1="29.4" x2="16.7" y2="26.86" stroke="#ffd60a" stroke-width="0.47714285714285715" stroke-linecap="round"/>
<line x1="29.4" y1="21.78" x2="26.86" y2="21.78" stroke="#ffd60a" stroke-width="0.47714285714285715" stroke-linecap="round"/>
<line x1="29.4" y1="11.62" x2="26.86" y2="11.62" stroke="#ffd60a" stroke-width="0.47714285714285715" stroke-linecap="round"/>
<line x1="16.7" y1="4" x2="16.7" y2="6.539999999999999" stroke="#ffd60a" stroke-width="0.47714285714285715" stroke-linecap="round"/>
<line x1="4" y1="11.62" x2="6.539999999999999" y2="11.62" stroke="#ffd60a" stroke-width="0.47714285714285715" stroke-linecap="round"/>
</svg>