<svg xmlns="http://www.w3.org/2000/svg" viewBox="0 0 240 180">
<rect x="50" y="50" width="140" height="80" stroke="#ffffff" stroke-width="1.5" fill="rgba(255,255,255,0.04)"/>
<text x="120" y="90" fill="#888" font-size="3" font-family="monospace" text-anchor="middle" dominant-baseline="middle">U</text>
<line x1="30" y1="90" x2="50" y2="90" stroke="#ffd60a" stroke-width="1.5" stroke-linecap="round"/>
<text x="55" y="90" fill="#ffd60a" font-size="2" font-family="monospace" text-anchor="start" dominant-baseline="middle">8</text>
<line x1="210" y1="70" x2="190" y2="70" stroke="#ffd60a" stroke-width="1.5" stroke-linecap="round"/>
<text x="185" y="70" fill="#ffd60a" font-size="2" font-family="monospace" text-anchor="end" dominant-baseline="middle">+</text>
<line x1="210" y1="110" x2="190" y2="110" stroke="#ffd60a" stroke-width="1.5" stroke-linecap="round"/>
<text x="185" y="110" fill="#ffd60a" font-size="2" font-family="monospace" text-anchor="end" dominant-baseline="middle">-</text>
<line x1="60" y1="30" x2="60" y2="50" stroke="#ffd60a" stroke-width="1.5" stroke-linecap="round"/>
<text x="60" y="25" fill="#ffd60a" font-size="2" font-family="monospace" text-anchor="middle" dominant-baseline="middle">GND</text>
<line x1="80" y1="30" x2="80" y2="50" stroke="#ffd60a" stroke-width="1.5" stroke-linecap="round"/>
<text x="80" y="25" fill="#ffd60a" font-size="2" font-family="monospace" text-anchor="middle" dominant-baseline="middle">GND</text>
<line x1="100" y1="30" x2="100" y2="50" stroke="#ffd60a" stroke-width="1.5" stroke-linecap="round"/>
<text x="100" y="25" fill="#ffd60a" font-size="2" font-family="monospace" text-anchor="middle" dominant-baseline="middle">GND</text>
<line x1="120" y1="30" x2="120" y2="50" stroke="#ffd60a" stroke-width="1.5" stroke-linecap="round"/>
<text x="120" y="25" fill="#ffd60a" font-size="2" font-family="monospace" text-anchor="middle" dominant-baseline="middle">GND</text>
<line x1="140" y1="30" x2="140" y2="50" stroke="#ffd60a" stroke-width="1.5" stroke-linecap="round"/>
<text x="140" y="25" fill="#ffd60a" font-size="2" font-family="monospace" text-anchor="middle" dominant-baseline="middle">GND</text>
<line x1="160" y1="30" x2="160" y2="50" stroke="#ffd60a" stroke-width="1.5" stroke-linecap="round"/>
<text x="160" y="25" fill="#ffd60a" font-size="2" font-family="monospace" text-anchor="middle" dominant-baseline="middle">GND</text>
<line x1="180" y1="30" x2="180" y2="50" stroke="#ffd60a" stroke-width="1.5" stroke-linecap="round"/>
<text x="180" y="25" fill="#ffd60a" font-size="2" font-family="monospace" text-anchor="middle" dominant-baseline="middle">GND</text>
<line x1="67.5" y1="150" x2="67.5" y2="130" stroke="#ffd60a" stroke-width="1.5" stroke-linecap="round"/>
<text x="67.5" y="164" fill="#ffd60a" font-size="2" font-family="monospace" text-anchor="middle" dominant-baseline="middle">BYPASS</text>
<line x1="102.5" y1="150" x2="102.5" y2="130" stroke="#ffd60a" stroke-width="1.5" stroke-linecap="round"/>
<text x="102.5" y="164" fill="#ffd60a" font-size="2" font-family="monospace" text-anchor="middle" dominant-baseline="middle">NC</text>
<line x1="137.5" y1="150" x2="137.5" y2="130" stroke="#ffd60a" stroke-width="1.5" stroke-linecap="round"/>
<text x="137.5" y="164" fill="#ffd60a" font-size="2" font-family="monospace" text-anchor="middle" dominant-baseline="middle">NC</text>
<line x1="172.5" y1="150" x2="172.5" y2="130" stroke="#ffd60a" stroke-width="1.5" stroke-linecap="round"/>
<text x="172.5" y="164" fill="#ffd60a" font-size="2" font-family="monospace" text-anchor="middle" dominant-baseline="middle">VS</text>
</svg>