<svg xmlns="http://www.w3.org/2000/svg" viewBox="0 0 300 180">
<rect x="50" y="50" width="200" height="80" stroke="#ffffff" stroke-width="1.5" fill="rgba(255,255,255,0.04)"/>
<text x="150" y="90" fill="#888" font-size="3" font-family="monospace" text-anchor="middle" dominant-baseline="middle">U</text>
<line x1="30" y1="90" x2="50" y2="90" stroke="#ffd60a" stroke-width="1.5" stroke-linecap="round"/>
<text x="55" y="90" fill="#ffd60a" font-size="2" font-family="monospace" text-anchor="start" dominant-baseline="middle">12</text>
<line x1="270" y1="90" x2="250" y2="90" stroke="#ffd60a" stroke-width="1.5" stroke-linecap="round"/>
<text x="245" y="90" fill="#ffd60a" font-size="2" font-family="monospace" text-anchor="end" dominant-baseline="middle">IN</text>
<line x1="60" y1="30" x2="60" y2="50" stroke="#ffd60a" stroke-width="1.5" stroke-linecap="round"/>
<text x="60" y="25" fill="#ffd60a" font-size="2" font-family="monospace" text-anchor="middle" dominant-baseline="middle">V-</text>
<line x1="80" y1="30" x2="80" y2="50" stroke="#ffd60a" stroke-width="1.5" stroke-linecap="round"/>
<text x="80" y="25" fill="#ffd60a" font-size="2" font-family="monospace" text-anchor="middle" dominant-baseline="middle">V-</text>
<line x1="100" y1="30" x2="100" y2="50" stroke="#ffd60a" stroke-width="1.5" stroke-linecap="round"/>
<text x="100" y="25" fill="#ffd60a" font-size="2" font-family="monospace" text-anchor="middle" dominant-baseline="middle">V-</text>
<line x1="120" y1="30" x2="120" y2="50" stroke="#ffd60a" stroke-width="1.5" stroke-linecap="round"/>
<text x="120" y="25" fill="#ffd60a" font-size="2" font-family="monospace" text-anchor="middle" dominant-baseline="middle">V-</text>
<line x1="140" y1="30" x2="140" y2="50" stroke="#ffd60a" stroke-width="1.5" stroke-linecap="round"/>
<text x="140" y="25" fill="#ffd60a" font-size="2" font-family="monospace" text-anchor="middle" dominant-baseline="middle">V-</text>
<line x1="160" y1="30" x2="160" y2="50" stroke="#ffd60a" stroke-width="1.5" stroke-linecap="round"/>
<text x="160" y="25" fill="#ffd60a" font-size="2" font-family="monospace" text-anchor="middle" dominant-baseline="middle">V-</text>
<line x1="180" y1="30" x2="180" y2="50" stroke="#ffd60a" stroke-width="1.5" stroke-linecap="round"/>
<text x="180" y="25" fill="#ffd60a" font-size="2" font-family="monospace" text-anchor="middle" dominant-baseline="middle">V-</text>
<line x1="200" y1="30" x2="200" y2="50" stroke="#ffd60a" stroke-width="1.5" stroke-linecap="round"/>
<text x="200" y="25" fill="#ffd60a" font-size="2" font-family="monospace" text-anchor="middle" dominant-baseline="middle">NC</text>
<line x1="220" y1="30" x2="220" y2="50" stroke="#ffd60a" stroke-width="1.5" stroke-linecap="round"/>
<text x="220" y="25" fill="#ffd60a" font-size="2" font-family="monospace" text-anchor="middle" dominant-baseline="middle">V-</text>
<line x1="240" y1="30" x2="240" y2="50" stroke="#ffd60a" stroke-width="1.5" stroke-linecap="round"/>
<text x="240" y="25" fill="#ffd60a" font-size="2" font-family="monospace" text-anchor="middle" dominant-baseline="middle">V-</text>
<line x1="100" y1="150" x2="100" y2="130" stroke="#ffd60a" stroke-width="1.5" stroke-linecap="round"/>
<text x="100" y="164" fill="#ffd60a" font-size="2" font-family="monospace" text-anchor="middle" dominant-baseline="middle">NC</text>
<line x1="200" y1="150" x2="200" y2="130" stroke="#ffd60a" stroke-width="1.5" stroke-linecap="round"/>
<text x="200" y="164" fill="#ffd60a" font-size="2" font-family="monospace" text-anchor="middle" dominant-baseline="middle">V+</text>
</svg>