<svg xmlns="http://www.w3.org/2000/svg" viewBox="0 0 30.2504 27.964399999999998">
<polyline points="21.8562,23.964399999999998 21.7546,23.913600000000002 21.4752,23.735799999999998 21.1196,23.5072 20.662399999999998,23.2024 20.2306,22.8976 19.875,22.669 19.621,22.4912 19.519399999999997,22.4404 19.443199999999997,22.4658 19.24,22.5674 18.9352,22.7198 18.7574,22.8214 18.477999999999998,22.923000000000002 18.351,22.9484 18.3256,22.923000000000002 18.224,22.7198 18.0716,22.3388 17.843,21.8562 17.6144,21.2974 17.3604,20.6878 17.081,20.0782 16.8524,19.468600000000002 16.6238,18.935200000000002 16.445999999999998,18.5034 16.3444,18.1986 16.293599999999998,18.0716 16.319,18.0462 16.445999999999998,17.9192 16.7,17.7414 17.208,17.3096 17.7414,16.6492 18.0462,15.9126 18.1732,15.0998 18.0716,14.3378 17.7668,13.6266 17.2588,12.9662 16.6492,12.4836 15.937999999999999,12.1788 15.1252,12.077200000000001 14.363199999999999,12.1534 13.6266,12.4582 12.9662,12.9662 12.6868,13.271 12.3058,13.9314 12.0772,14.6426 12.0518,14.8204 12.102599999999999,15.607800000000001 12.331199999999999,16.3444 12.7376,17.0048 13.2964,17.5636 13.3726,17.6144 13.652,17.8176 13.829799999999999,17.9446 13.9568,18.0716 12.9662,20.4592 12.8138,20.8402 12.5344,21.5006 12.3058,22.0594 12.102599999999999,22.5166 11.9756,22.8214 11.8994,22.923000000000002 11.8994,22.9484 11.8232,22.9484 11.645399999999999,22.8976 11.2898,22.7198 11.0866,22.6182 10.8326,22.4912 10.7056,22.4404 10.604,22.4912 10.375399999999999,22.6436 10.0198,22.8976 9.588,23.177 9.1816,23.456400000000002 8.8006,23.7104 8.5212,23.888199999999998 8.3942,23.964399999999998 8.3688,23.964399999999998 8.267199999999999,23.888199999999998 8.038599999999999,23.7104 7.708399999999999,23.4056 7.2512,22.9484 7.175,22.8722 6.793999999999999,22.4912 6.4892,22.161 6.286,21.9324 6.2097999999999995,21.8308 6.2097999999999995,21.8308 6.286,21.7038 6.463799999999999,21.4244 6.692399999999999,21.0434 6.997199999999999,20.6116 7.81,19.4432 7.352799999999999,18.351 7.2258,18.0208 7.048,17.6144 6.920999999999999,17.335 6.870199999999999,17.208 6.7432,17.1572 6.463799999999999,17.1064 6.032,17.0048 5.4986,16.903200000000002 5.016,16.827 4.584199999999999,16.7254 4.254,16.6746 4.1015999999999995,16.6492 4.0762,16.6238 4.050799999999999,16.5476 4.025399999999999,16.3952 4.025399999999999,16.1412 4,15.7094 4,15.0998 4,15.0236 4.025399999999999,14.439400000000001 4.025399999999999,13.9822 4.050799999999999,13.7028 4.050799999999999,13.575800000000001 4.050799999999999,13.575800000000001 4.203199999999999,13.5504 4.507999999999999,13.4742 4.965199999999999,13.398 5.4732,13.2964 5.523999999999999,13.271 6.032,13.1694 6.4892,13.0932 6.793999999999999,13.017 6.920999999999999,12.9662 6.946399999999999,12.9408 7.048,12.7376 7.200399999999999,12.407399999999999 7.3782,12.001000000000001 7.555999999999999,11.5946 7.708399999999999,11.2136 7.81,10.9342 7.8354,10.8072 7.8354,10.8072 7.7592,10.6802 7.5813999999999995,10.426200000000001 7.3274,10.045200000000001 6.997199999999999,9.588000000000001 6.997199999999999,9.5626 6.692399999999999,9.1054 6.4384,8.7244 6.286,8.470400000000001 6.2097999999999995,8.343399999999999 6.2097999999999995,8.343399999999999 6.311399999999999,8.2164 6.539999999999999,7.962400000000001 6.870199999999999,7.6068 7.2512,7.2258 7.3782,7.098800000000001 7.81,6.667 8.114799999999999,6.387600000000001 8.2926,6.2606 8.3942,6.2097999999999995 8.3942,6.2097999999999995 8.5212,6.311400000000001 8.8006,6.4892 9.1816,6.7432 9.6388,7.048 9.6642,7.0733999999999995 10.1214,7.3782000000000005 10.477,7.6322 10.7564,7.8100000000000005 10.858,7.8608 10.8834,7.8608 11.0612,7.8100000000000005 11.391399999999999,7.7084 11.7724,7.556 12.178799999999999,7.3782000000000005 12.5598,7.2258 12.8392,7.098800000000001 12.9662,7.022600000000001 12.9662,7.022600000000001 13.017,6.8702000000000005 13.0932,6.540000000000001 13.194799999999999,6.082800000000001 13.2964,5.524000000000001 13.3218,5.447800000000001 13.423399999999999,4.9144000000000005 13.4996,4.4826 13.5504,4.1777999999999995 13.601199999999999,4.050800000000001 13.677399999999999,4.025399999999999 13.9314,4 14.3124,4 14.795,4 15.2776,4 15.785599999999999,4 16.192,4.025399999999999 16.4968,4.050800000000001 16.6238,4.0762 16.6238,4.0762 16.674599999999998,4.2286 16.750799999999998,4.5588 16.826999999999998,5.041399999999999 16.954,5.5748 16.954,5.676400000000001 17.0556,6.2097999999999995 17.1572,6.6416 17.208,6.946400000000001 17.2588,7.048 17.2842,7.0733999999999995 17.5128,7.175000000000001 17.8684,7.3274 18.3002,7.5052 19.3162,7.9116 20.586199999999998,7.048 20.6878,6.9718 21.145,6.667 21.5006,6.413 21.7546,6.2606 21.8816,6.2097999999999995 21.8816,6.2097999999999995 22.0086,6.311400000000001 22.2626,6.540000000000001 22.5928,6.8702000000000005 22.9738,7.2766 23.278599999999997,7.556 23.6088,7.9116 23.8374,8.1402 23.964399999999998,8.2926 23.9898,8.394200000000001 23.9898,8.445 23.9136,8.572 23.735799999999998,8.8514 23.456400000000002,9.2324 23.151600000000002,9.664200000000001 22.923,10.045200000000001 22.6436,10.4516 22.4658,10.7564 22.415,10.9088 22.415,10.9596 22.5166,11.2136 22.6436,11.5692 22.846799999999998,12.0264 23.278599999999997,13.017 23.9136,13.144 24.32,13.1948 24.8788,13.3218 25.3868,13.4234 26.225,13.575800000000001 26.2504,16.573 26.1234,16.6238 25.9964,16.6492 25.6916,16.7254 25.2598,16.8016 24.7518,16.903200000000002 24.32,16.979400000000002 23.8628,17.081 23.558,17.1318 23.4056,17.1572 23.380200000000002,17.208 23.278599999999997,17.4112 23.1008,17.7668 22.9484,18.1732 22.7706,18.5796 22.6182,18.986 22.4912,19.2654 22.4658,19.4432 22.5166,19.544800000000002 22.6944,19.7988 22.923,20.1798 23.227800000000002,20.6116 23.532600000000002,21.0434 23.7866,21.4244 23.939,21.6784 24.0152,21.8054 23.9898,21.907 23.811999999999998,22.1102 23.4818,22.4404 22.9992,22.923000000000002 22.923,22.999200000000002 22.5166,23.380200000000002 22.1864,23.685000000000002 21.9578,23.888199999999998 21.8562,23.964399999999998" stroke="#ffffff" stroke-width="0.3" stroke-linejoin="round" stroke-linecap="round" fill="#ffffff"/>
</svg>