<svg xmlns="http://www.w3.org/2000/svg" viewBox="0 0 180 580">
<rect x="50" y="50" width="80" height="480" stroke="#ffffff" stroke-width="1.5" fill="rgba(255,255,255,0.04)"/>
<text x="90" y="290" fill="#888" font-size="3" font-family="monospace" text-anchor="middle" dominant-baseline="middle">U</text>
<line x1="30" y1="62" x2="50" y2="62" stroke="#ffd60a" stroke-width="1.5" stroke-linecap="round"/>
<text x="55" y="62" fill="#ffd60a" font-size="2" font-family="monospace" text-anchor="start" dominant-baseline="middle">PIO1_25</text>
<line x1="30" y1="86" x2="50" y2="86" stroke="#ffd60a" stroke-width="1.5" stroke-linecap="round"/>
<text x="55" y="86" fill="#ffd60a" font-size="2" font-family="monospace" text-anchor="start" dominant-baseline="middle">PIO1_19</text>
<line x1="30" y1="110" x2="50" y2="110" stroke="#ffd60a" stroke-width="1.5" stroke-linecap="round"/>
<text x="55" y="110" fill="#ffd60a" font-size="2" font-family="monospace" text-anchor="start" dominant-baseline="middle">XTALIN</text>
<line x1="30" y1="134" x2="50" y2="134" stroke="#ffd60a" stroke-width="1.5" stroke-linecap="round"/>
<text x="55" y="134" fill="#ffd60a" font-size="2" font-family="monospace" text-anchor="start" dominant-baseline="middle">XTALOUT</text>
<line x1="30" y1="158" x2="50" y2="158" stroke="#ffd60a" stroke-width="1.5" stroke-linecap="round"/>
<text x="55" y="158" fill="#ffd60a" font-size="2" font-family="monospace" text-anchor="start" dominant-baseline="middle">PIO1_26</text>
<line x1="30" y1="182" x2="50" y2="182" stroke="#ffd60a" stroke-width="1.5" stroke-linecap="round"/>
<text x="55" y="182" fill="#ffd60a" font-size="2" font-family="monospace" text-anchor="start" dominant-baseline="middle">PIO1_27</text>
<line x1="30" y1="206" x2="50" y2="206" stroke="#ffd60a" stroke-width="1.5" stroke-linecap="round"/>
<text x="55" y="206" fill="#ffd60a" font-size="2" font-family="monospace" text-anchor="start" dominant-baseline="middle">PIO1_20</text>
<line x1="30" y1="230" x2="50" y2="230" stroke="#ffd60a" stroke-width="1.5" stroke-linecap="round"/>
<text x="55" y="230" fill="#ffd60a" font-size="2" font-family="monospace" text-anchor="start" dominant-baseline="middle">PIO1_23</text>
<line x1="30" y1="254" x2="50" y2="254" stroke="#ffd60a" stroke-width="1.5" stroke-linecap="round"/>
<text x="55" y="254" fill="#ffd60a" font-size="2" font-family="monospace" text-anchor="start" dominant-baseline="middle">NC</text>
<line x1="30" y1="278" x2="50" y2="278" stroke="#ffd60a" stroke-width="1.5" stroke-linecap="round"/>
<text x="55" y="278" fill="#ffd60a" font-size="2" font-family="monospace" text-anchor="start" dominant-baseline="middle">NC</text>
<line x1="30" y1="302" x2="50" y2="302" stroke="#ffd60a" stroke-width="1.5" stroke-linecap="round"/>
<text x="55" y="302" fill="#ffd60a" font-size="2" font-family="monospace" text-anchor="start" dominant-baseline="middle">PIO1_24</text>
<line x1="30" y1="326" x2="50" y2="326" stroke="#ffd60a" stroke-width="1.5" stroke-linecap="round"/>
<text x="55" y="326" fill="#ffd60a" font-size="2" font-family="monospace" text-anchor="start" dominant-baseline="middle">PIO1_28</text>
<line x1="30" y1="350" x2="50" y2="350" stroke="#ffd60a" stroke-width="1.5" stroke-linecap="round"/>
<text x="55" y="350" fill="#ffd60a" font-size="2" font-family="monospace" text-anchor="start" dominant-baseline="middle">PIO1_31</text>
<line x1="30" y1="374" x2="50" y2="374" stroke="#ffd60a" stroke-width="1.5" stroke-linecap="round"/>
<text x="55" y="374" fill="#ffd60a" font-size="2" font-family="monospace" text-anchor="start" dominant-baseline="middle">PIO1_21</text>
<line x1="30" y1="398" x2="50" y2="398" stroke="#ffd60a" stroke-width="1.5" stroke-linecap="round"/>
<text x="55" y="398" fill="#ffd60a" font-size="2" font-family="monospace" text-anchor="start" dominant-baseline="middle">PIO1_29</text>
<line x1="30" y1="422" x2="50" y2="422" stroke="#ffd60a" stroke-width="1.5" stroke-linecap="round"/>
<text x="55" y="422" fill="#ffd60a" font-size="2" font-family="monospace" text-anchor="start" dominant-baseline="middle">PIO1_13</text>
<line x1="30" y1="446" x2="50" y2="446" stroke="#ffd60a" stroke-width="1.5" stroke-linecap="round"/>
<text x="55" y="446" fill="#ffd60a" font-size="2" font-family="monospace" text-anchor="start" dominant-baseline="middle">PIO1_14</text>
<line x1="30" y1="470" x2="50" y2="470" stroke="#ffd60a" stroke-width="1.5" stroke-linecap="round"/>
<text x="55" y="470" fill="#ffd60a" font-size="2" font-family="monospace" text-anchor="start" dominant-baseline="middle">PIO1_22</text>
<line x1="30" y1="494" x2="50" y2="494" stroke="#ffd60a" stroke-width="1.5" stroke-linecap="round"/>
<text x="55" y="494" fill="#ffd60a" font-size="2" font-family="monospace" text-anchor="start" dominant-baseline="middle">PIO1_15</text>
<line x1="30" y1="518" x2="50" y2="518" stroke="#ffd60a" stroke-width="1.5" stroke-linecap="round"/>
<text x="55" y="518" fill="#ffd60a" font-size="2" font-family="monospace" text-anchor="start" dominant-baseline="middle">PIO1_16</text>
<line x1="150" y1="60" x2="130" y2="60" stroke="#ffd60a" stroke-width="1.5" stroke-linecap="round"/>
<text x="125" y="60" fill="#ffd60a" font-size="2" font-family="monospace" text-anchor="end" dominant-baseline="middle">PIO0_0</text>
<line x1="150" y1="80" x2="130" y2="80" stroke="#ffd60a" stroke-width="1.5" stroke-linecap="round"/>
<text x="125" y="80" fill="#ffd60a" font-size="2" font-family="monospace" text-anchor="end" dominant-baseline="middle">PIO0_1</text>
<line x1="150" y1="100" x2="130" y2="100" stroke="#ffd60a" stroke-width="1.5" stroke-linecap="round"/>
<text x="125" y="100" fill="#ffd60a" font-size="2" font-family="monospace" text-anchor="end" dominant-baseline="middle">PIO0_20</text>
<line x1="150" y1="120" x2="130" y2="120" stroke="#ffd60a" stroke-width="1.5" stroke-linecap="round"/>
<text x="125" y="120" fill="#ffd60a" font-size="2" font-family="monospace" text-anchor="end" dominant-baseline="middle">PIO0_2</text>
<line x1="150" y1="140" x2="130" y2="140" stroke="#ffd60a" stroke-width="1.5" stroke-linecap="round"/>
<text x="125" y="140" fill="#ffd60a" font-size="2" font-family="monospace" text-anchor="end" dominant-baseline="middle">PIO0_3</text>
<line x1="150" y1="160" x2="130" y2="160" stroke="#ffd60a" stroke-width="1.5" stroke-linecap="round"/>
<text x="125" y="160" fill="#ffd60a" font-size="2" font-family="monospace" text-anchor="end" dominant-baseline="middle">PIO0_4</text>
<line x1="150" y1="180" x2="130" y2="180" stroke="#ffd60a" stroke-width="1.5" stroke-linecap="round"/>
<text x="125" y="180" fill="#ffd60a" font-size="2" font-family="monospace" text-anchor="end" dominant-baseline="middle">PIO0_5</text>
<line x1="150" y1="200" x2="130" y2="200" stroke="#ffd60a" stroke-width="1.5" stroke-linecap="round"/>
<text x="125" y="200" fill="#ffd60a" font-size="2" font-family="monospace" text-anchor="end" dominant-baseline="middle">PIO0_21</text>
<line x1="150" y1="220" x2="130" y2="220" stroke="#ffd60a" stroke-width="1.5" stroke-linecap="round"/>
<text x="125" y="220" fill="#ffd60a" font-size="2" font-family="monospace" text-anchor="end" dominant-baseline="middle">PIO0_6</text>
<line x1="150" y1="240" x2="130" y2="240" stroke="#ffd60a" stroke-width="1.5" stroke-linecap="round"/>
<text x="125" y="240" fill="#ffd60a" font-size="2" font-family="monospace" text-anchor="end" dominant-baseline="middle">PIO0_7</text>
<line x1="150" y1="260" x2="130" y2="260" stroke="#ffd60a" stroke-width="1.5" stroke-linecap="round"/>
<text x="125" y="260" fill="#ffd60a" font-size="2" font-family="monospace" text-anchor="end" dominant-baseline="middle">PIO0_8</text>
<line x1="150" y1="280" x2="130" y2="280" stroke="#ffd60a" stroke-width="1.5" stroke-linecap="round"/>
<text x="125" y="280" fill="#ffd60a" font-size="2" font-family="monospace" text-anchor="end" dominant-baseline="middle">PIO0_9</text>
<line x1="150" y1="300" x2="130" y2="300" stroke="#ffd60a" stroke-width="1.5" stroke-linecap="round"/>
<text x="125" y="300" fill="#ffd60a" font-size="2" font-family="monospace" text-anchor="end" dominant-baseline="middle">PIO0_10</text>
<line x1="150" y1="320" x2="130" y2="320" stroke="#ffd60a" stroke-width="1.5" stroke-linecap="round"/>
<text x="125" y="320" fill="#ffd60a" font-size="2" font-family="monospace" text-anchor="end" dominant-baseline="middle">PIO0_22</text>
<line x1="150" y1="340" x2="130" y2="340" stroke="#ffd60a" stroke-width="1.5" stroke-linecap="round"/>
<text x="125" y="340" fill="#ffd60a" font-size="2" font-family="monospace" text-anchor="end" dominant-baseline="middle">PIO0_11</text>
<line x1="150" y1="360" x2="130" y2="360" stroke="#ffd60a" stroke-width="1.5" stroke-linecap="round"/>
<text x="125" y="360" fill="#ffd60a" font-size="2" font-family="monospace" text-anchor="end" dominant-baseline="middle">PIO0_12</text>
<line x1="150" y1="380" x2="130" y2="380" stroke="#ffd60a" stroke-width="1.5" stroke-linecap="round"/>
<text x="125" y="380" fill="#ffd60a" font-size="2" font-family="monospace" text-anchor="end" dominant-baseline="middle">PIO0_13</text>
<line x1="150" y1="400" x2="130" y2="400" stroke="#ffd60a" stroke-width="1.5" stroke-linecap="round"/>
<text x="125" y="400" fill="#ffd60a" font-size="2" font-family="monospace" text-anchor="end" dominant-baseline="middle">PIO0_14</text>
<line x1="150" y1="420" x2="130" y2="420" stroke="#ffd60a" stroke-width="1.5" stroke-linecap="round"/>
<text x="125" y="420" fill="#ffd60a" font-size="2" font-family="monospace" text-anchor="end" dominant-baseline="middle">PIO0_15</text>
<line x1="150" y1="440" x2="130" y2="440" stroke="#ffd60a" stroke-width="1.5" stroke-linecap="round"/>
<text x="125" y="440" fill="#ffd60a" font-size="2" font-family="monospace" text-anchor="end" dominant-baseline="middle">PIO0_16</text>
<line x1="150" y1="460" x2="130" y2="460" stroke="#ffd60a" stroke-width="1.5" stroke-linecap="round"/>
<text x="125" y="460" fill="#ffd60a" font-size="2" font-family="monospace" text-anchor="end" dominant-baseline="middle">PIO0_23</text>
<line x1="150" y1="480" x2="130" y2="480" stroke="#ffd60a" stroke-width="1.5" stroke-linecap="round"/>
<text x="125" y="480" fill="#ffd60a" font-size="2" font-family="monospace" text-anchor="end" dominant-baseline="middle">PIO0_17</text>
<line x1="150" y1="500" x2="130" y2="500" stroke="#ffd60a" stroke-width="1.5" stroke-linecap="round"/>
<text x="125" y="500" fill="#ffd60a" font-size="2" font-family="monospace" text-anchor="end" dominant-baseline="middle">PIO0_18</text>
<line x1="150" y1="520" x2="130" y2="520" stroke="#ffd60a" stroke-width="1.5" stroke-linecap="round"/>
<text x="125" y="520" fill="#ffd60a" font-size="2" font-family="monospace" text-anchor="end" dominant-baseline="middle">PIO0_19</text>
<line x1="70" y1="30" x2="70" y2="50" stroke="#ffd60a" stroke-width="1.5" stroke-linecap="round"/>
<text x="70" y="25" fill="#ffd60a" font-size="2" font-family="monospace" text-anchor="middle" dominant-baseline="middle">VSS</text>
<line x1="110" y1="30" x2="110" y2="50" stroke="#ffd60a" stroke-width="1.5" stroke-linecap="round"/>
<text x="110" y="25" fill="#ffd60a" font-size="2" font-family="monospace" text-anchor="middle" dominant-baseline="middle">VSS</text>
<line x1="70" y1="550" x2="70" y2="530" stroke="#ffd60a" stroke-width="1.5" stroke-linecap="round"/>
<text x="70" y="564" fill="#ffd60a" font-size="2" font-family="monospace" text-anchor="middle" dominant-baseline="middle">VDD</text>
<line x1="110" y1="550" x2="110" y2="530" stroke="#ffd60a" stroke-width="1.5" stroke-linecap="round"/>
<text x="110" y="564" fill="#ffd60a" font-size="2" font-family="monospace" text-anchor="middle" dominant-baseline="middle">VDD</text>
</svg>