<svg xmlns="http://www.w3.org/2000/svg" viewBox="0 0 260 520">
<rect x="50" y="50" width="160" height="420" stroke="#ffffff" stroke-width="1.5" fill="rgba(255,255,255,0.04)"/>
<text x="130" y="260" fill="#888" font-size="3" font-family="monospace" text-anchor="middle" dominant-baseline="middle">U</text>
<line x1="30" y1="65" x2="50" y2="65" stroke="#ffd60a" stroke-width="1.5" stroke-linecap="round"/>
<text x="55" y="65" fill="#ffd60a" font-size="2" font-family="monospace" text-anchor="start" dominant-baseline="middle">NC</text>
<line x1="30" y1="95" x2="50" y2="95" stroke="#ffd60a" stroke-width="1.5" stroke-linecap="round"/>
<text x="55" y="95" fill="#ffd60a" font-size="2" font-family="monospace" text-anchor="start" dominant-baseline="middle">V_{REF_BYP}</text>
<line x1="30" y1="125" x2="50" y2="125" stroke="#ffd60a" stroke-width="1.5" stroke-linecap="round"/>
<text x="55" y="125" fill="#ffd60a" font-size="2" font-family="monospace" text-anchor="start" dominant-baseline="middle">V_{REFOUT}</text>
<line x1="30" y1="155" x2="50" y2="155" stroke="#ffd60a" stroke-width="1.5" stroke-linecap="round"/>
<text x="55" y="155" fill="#ffd60a" font-size="2" font-family="monospace" text-anchor="start" dominant-baseline="middle">V_{REFP}</text>
<line x1="30" y1="185" x2="50" y2="185" stroke="#ffd60a" stroke-width="1.5" stroke-linecap="round"/>
<text x="55" y="185" fill="#ffd60a" font-size="2" font-family="monospace" text-anchor="start" dominant-baseline="middle">INTERRUPT</text>
<line x1="30" y1="215" x2="50" y2="215" stroke="#ffd60a" stroke-width="1.5" stroke-linecap="round"/>
<text x="55" y="215" fill="#ffd60a" font-size="2" font-family="monospace" text-anchor="start" dominant-baseline="middle">SCK</text>
<line x1="30" y1="245" x2="50" y2="245" stroke="#ffd60a" stroke-width="1.5" stroke-linecap="round"/>
<text x="55" y="245" fill="#ffd60a" font-size="2" font-family="monospace" text-anchor="start" dominant-baseline="middle">SDO</text>
<line x1="30" y1="275" x2="50" y2="275" stroke="#ffd60a" stroke-width="1.5" stroke-linecap="round"/>
<text x="55" y="275" fill="#ffd60a" font-size="2" font-family="monospace" text-anchor="start" dominant-baseline="middle">SDI</text>
<line x1="30" y1="305" x2="50" y2="305" stroke="#ffd60a" stroke-width="1.5" stroke-linecap="round"/>
<text x="55" y="305" fill="#ffd60a" font-size="2" font-family="monospace" text-anchor="start" dominant-baseline="middle">~{CS}</text>
<line x1="30" y1="335" x2="50" y2="335" stroke="#ffd60a" stroke-width="1.5" stroke-linecap="round"/>
<text x="55" y="335" fill="#ffd60a" font-size="2" font-family="monospace" text-anchor="start" dominant-baseline="middle">~{RESET}</text>
<line x1="30" y1="365" x2="50" y2="365" stroke="#ffd60a" stroke-width="1.5" stroke-linecap="round"/>
<text x="55" y="365" fill="#ffd60a" font-size="2" font-family="monospace" text-anchor="start" dominant-baseline="middle">LDO</text>
<line x1="30" y1="395" x2="50" y2="395" stroke="#ffd60a" stroke-width="1.5" stroke-linecap="round"/>
<text x="55" y="395" fill="#ffd60a" font-size="2" font-family="monospace" text-anchor="start" dominant-baseline="middle">Q3</text>
<line x1="30" y1="425" x2="50" y2="425" stroke="#ffd60a" stroke-width="1.5" stroke-linecap="round"/>
<text x="55" y="425" fill="#ffd60a" font-size="2" font-family="monospace" text-anchor="start" dominant-baseline="middle">Q2</text>
<line x1="30" y1="455" x2="50" y2="455" stroke="#ffd60a" stroke-width="1.5" stroke-linecap="round"/>
<text x="55" y="455" fill="#ffd60a" font-size="2" font-family="monospace" text-anchor="start" dominant-baseline="middle">Q1</text>
<line x1="230" y1="60" x2="210" y2="60" stroke="#ffd60a" stroke-width="1.5" stroke-linecap="round"/>
<text x="205" y="60" fill="#ffd60a" font-size="2" font-family="monospace" text-anchor="end" dominant-baseline="middle">CH1</text>
<line x1="230" y1="80" x2="210" y2="80" stroke="#ffd60a" stroke-width="1.5" stroke-linecap="round"/>
<text x="205" y="80" fill="#ffd60a" font-size="2" font-family="monospace" text-anchor="end" dominant-baseline="middle">CH2</text>
<line x1="230" y1="100" x2="210" y2="100" stroke="#ffd60a" stroke-width="1.5" stroke-linecap="round"/>
<text x="205" y="100" fill="#ffd60a" font-size="2" font-family="monospace" text-anchor="end" dominant-baseline="middle">CH3</text>
<line x1="230" y1="120" x2="210" y2="120" stroke="#ffd60a" stroke-width="1.5" stroke-linecap="round"/>
<text x="205" y="120" fill="#ffd60a" font-size="2" font-family="monospace" text-anchor="end" dominant-baseline="middle">CH4</text>
<line x1="230" y1="140" x2="210" y2="140" stroke="#ffd60a" stroke-width="1.5" stroke-linecap="round"/>
<text x="205" y="140" fill="#ffd60a" font-size="2" font-family="monospace" text-anchor="end" dominant-baseline="middle">CH5</text>
<line x1="230" y1="160" x2="210" y2="160" stroke="#ffd60a" stroke-width="1.5" stroke-linecap="round"/>
<text x="205" y="160" fill="#ffd60a" font-size="2" font-family="monospace" text-anchor="end" dominant-baseline="middle">CH6</text>
<line x1="230" y1="180" x2="210" y2="180" stroke="#ffd60a" stroke-width="1.5" stroke-linecap="round"/>
<text x="205" y="180" fill="#ffd60a" font-size="2" font-family="monospace" text-anchor="end" dominant-baseline="middle">CH7</text>
<line x1="230" y1="200" x2="210" y2="200" stroke="#ffd60a" stroke-width="1.5" stroke-linecap="round"/>
<text x="205" y="200" fill="#ffd60a" font-size="2" font-family="monospace" text-anchor="end" dominant-baseline="middle">CH8</text>
<line x1="230" y1="220" x2="210" y2="220" stroke="#ffd60a" stroke-width="1.5" stroke-linecap="round"/>
<text x="205" y="220" fill="#ffd60a" font-size="2" font-family="monospace" text-anchor="end" dominant-baseline="middle">CH9</text>
<line x1="230" y1="240" x2="210" y2="240" stroke="#ffd60a" stroke-width="1.5" stroke-linecap="round"/>
<text x="205" y="240" fill="#ffd60a" font-size="2" font-family="monospace" text-anchor="end" dominant-baseline="middle">CH10</text>
<line x1="230" y1="260" x2="210" y2="260" stroke="#ffd60a" stroke-width="1.5" stroke-linecap="round"/>
<text x="205" y="260" fill="#ffd60a" font-size="2" font-family="monospace" text-anchor="end" dominant-baseline="middle">CH11</text>
<line x1="230" y1="280" x2="210" y2="280" stroke="#ffd60a" stroke-width="1.5" stroke-linecap="round"/>
<text x="205" y="280" fill="#ffd60a" font-size="2" font-family="monospace" text-anchor="end" dominant-baseline="middle">CH12</text>
<line x1="230" y1="300" x2="210" y2="300" stroke="#ffd60a" stroke-width="1.5" stroke-linecap="round"/>
<text x="205" y="300" fill="#ffd60a" font-size="2" font-family="monospace" text-anchor="end" dominant-baseline="middle">CH13</text>
<line x1="230" y1="320" x2="210" y2="320" stroke="#ffd60a" stroke-width="1.5" stroke-linecap="round"/>
<text x="205" y="320" fill="#ffd60a" font-size="2" font-family="monospace" text-anchor="end" dominant-baseline="middle">CH14</text>
<line x1="230" y1="340" x2="210" y2="340" stroke="#ffd60a" stroke-width="1.5" stroke-linecap="round"/>
<text x="205" y="340" fill="#ffd60a" font-size="2" font-family="monospace" text-anchor="end" dominant-baseline="middle">CH15</text>
<line x1="230" y1="360" x2="210" y2="360" stroke="#ffd60a" stroke-width="1.5" stroke-linecap="round"/>
<text x="205" y="360" fill="#ffd60a" font-size="2" font-family="monospace" text-anchor="end" dominant-baseline="middle">CH16</text>
<line x1="230" y1="380" x2="210" y2="380" stroke="#ffd60a" stroke-width="1.5" stroke-linecap="round"/>
<text x="205" y="380" fill="#ffd60a" font-size="2" font-family="monospace" text-anchor="end" dominant-baseline="middle">CH17</text>
<line x1="230" y1="400" x2="210" y2="400" stroke="#ffd60a" stroke-width="1.5" stroke-linecap="round"/>
<text x="205" y="400" fill="#ffd60a" font-size="2" font-family="monospace" text-anchor="end" dominant-baseline="middle">CH18</text>
<line x1="230" y1="420" x2="210" y2="420" stroke="#ffd60a" stroke-width="1.5" stroke-linecap="round"/>
<text x="205" y="420" fill="#ffd60a" font-size="2" font-family="monospace" text-anchor="end" dominant-baseline="middle">CH19</text>
<line x1="230" y1="440" x2="210" y2="440" stroke="#ffd60a" stroke-width="1.5" stroke-linecap="round"/>
<text x="205" y="440" fill="#ffd60a" font-size="2" font-family="monospace" text-anchor="end" dominant-baseline="middle">CH20</text>
<line x1="230" y1="460" x2="210" y2="460" stroke="#ffd60a" stroke-width="1.5" stroke-linecap="round"/>
<text x="205" y="460" fill="#ffd60a" font-size="2" font-family="monospace" text-anchor="end" dominant-baseline="middle">COM</text>
<line x1="60" y1="30" x2="60" y2="50" stroke="#ffd60a" stroke-width="1.5" stroke-linecap="round"/>
<text x="60" y="25" fill="#ffd60a" font-size="2" font-family="monospace" text-anchor="middle" dominant-baseline="middle">GND</text>
<line x1="80" y1="30" x2="80" y2="50" stroke="#ffd60a" stroke-width="1.5" stroke-linecap="round"/>
<text x="80" y="25" fill="#ffd60a" font-size="2" font-family="monospace" text-anchor="middle" dominant-baseline="middle">GND</text>
<line x1="100" y1="30" x2="100" y2="50" stroke="#ffd60a" stroke-width="1.5" stroke-linecap="round"/>
<text x="100" y="25" fill="#ffd60a" font-size="2" font-family="monospace" text-anchor="middle" dominant-baseline="middle">GND</text>
<line x1="120" y1="30" x2="120" y2="50" stroke="#ffd60a" stroke-width="1.5" stroke-linecap="round"/>
<text x="120" y="25" fill="#ffd60a" font-size="2" font-family="monospace" text-anchor="middle" dominant-baseline="middle">GND</text>
<line x1="140" y1="30" x2="140" y2="50" stroke="#ffd60a" stroke-width="1.5" stroke-linecap="round"/>
<text x="140" y="25" fill="#ffd60a" font-size="2" font-family="monospace" text-anchor="middle" dominant-baseline="middle">GND</text>
<line x1="160" y1="30" x2="160" y2="50" stroke="#ffd60a" stroke-width="1.5" stroke-linecap="round"/>
<text x="160" y="25" fill="#ffd60a" font-size="2" font-family="monospace" text-anchor="middle" dominant-baseline="middle">GND</text>
<line x1="180" y1="30" x2="180" y2="50" stroke="#ffd60a" stroke-width="1.5" stroke-linecap="round"/>
<text x="180" y="25" fill="#ffd60a" font-size="2" font-family="monospace" text-anchor="middle" dominant-baseline="middle">GND</text>
<line x1="200" y1="30" x2="200" y2="50" stroke="#ffd60a" stroke-width="1.5" stroke-linecap="round"/>
<text x="200" y="25" fill="#ffd60a" font-size="2" font-family="monospace" text-anchor="middle" dominant-baseline="middle">GND</text>
<line x1="66" y1="490" x2="66" y2="470" stroke="#ffd60a" stroke-width="1.5" stroke-linecap="round"/>
<text x="66" y="504" fill="#ffd60a" font-size="2" font-family="monospace" text-anchor="middle" dominant-baseline="middle">V_{DD}</text>
<line x1="98" y1="490" x2="98" y2="470" stroke="#ffd60a" stroke-width="1.5" stroke-linecap="round"/>
<text x="98" y="504" fill="#ffd60a" font-size="2" font-family="monospace" text-anchor="middle" dominant-baseline="middle">V_{DD}</text>
<line x1="130" y1="490" x2="130" y2="470" stroke="#ffd60a" stroke-width="1.5" stroke-linecap="round"/>
<text x="130" y="504" fill="#ffd60a" font-size="2" font-family="monospace" text-anchor="middle" dominant-baseline="middle">V_{DD}</text>
<line x1="162" y1="490" x2="162" y2="470" stroke="#ffd60a" stroke-width="1.5" stroke-linecap="round"/>
<text x="162" y="504" fill="#ffd60a" font-size="2" font-family="monospace" text-anchor="middle" dominant-baseline="middle">V_{DD}</text>
<line x1="194" y1="490" x2="194" y2="470" stroke="#ffd60a" stroke-width="1.5" stroke-linecap="round"/>
<text x="194" y="504" fill="#ffd60a" font-size="2" font-family="monospace" text-anchor="middle" dominant-baseline="middle">V_{DD}</text>
</svg>