<svg xmlns="http://www.w3.org/2000/svg" viewBox="0 0 220 700">
<rect x="50" y="50" width="120" height="600" stroke="#ffffff" stroke-width="1.5" fill="rgba(255,255,255,0.04)"/>
<text x="110" y="350" fill="#888" font-size="3" font-family="monospace" text-anchor="middle" dominant-baseline="middle">U</text>
<line x1="30" y1="60" x2="50" y2="60" stroke="#ffd60a" stroke-width="1.5" stroke-linecap="round"/>
<text x="55" y="60" fill="#ffd60a" font-size="2" font-family="monospace" text-anchor="start" dominant-baseline="middle">SHDNB</text>
<line x1="30" y1="80" x2="50" y2="80" stroke="#ffd60a" stroke-width="1.5" stroke-linecap="round"/>
<text x="55" y="80" fill="#ffd60a" font-size="2" font-family="monospace" text-anchor="start" dominant-baseline="middle">~{OEB}</text>
<line x1="30" y1="100" x2="50" y2="100" stroke="#ffd60a" stroke-width="1.5" stroke-linecap="round"/>
<text x="55" y="100" fill="#ffd60a" font-size="2" font-family="monospace" text-anchor="start" dominant-baseline="middle">DB0</text>
<line x1="30" y1="120" x2="50" y2="120" stroke="#ffd60a" stroke-width="1.5" stroke-linecap="round"/>
<text x="55" y="120" fill="#ffd60a" font-size="2" font-family="monospace" text-anchor="start" dominant-baseline="middle">DB1</text>
<line x1="30" y1="140" x2="50" y2="140" stroke="#ffd60a" stroke-width="1.5" stroke-linecap="round"/>
<text x="55" y="140" fill="#ffd60a" font-size="2" font-family="monospace" text-anchor="start" dominant-baseline="middle">DB2</text>
<line x1="30" y1="160" x2="50" y2="160" stroke="#ffd60a" stroke-width="1.5" stroke-linecap="round"/>
<text x="55" y="160" fill="#ffd60a" font-size="2" font-family="monospace" text-anchor="start" dominant-baseline="middle">DB3</text>
<line x1="30" y1="180" x2="50" y2="180" stroke="#ffd60a" stroke-width="1.5" stroke-linecap="round"/>
<text x="55" y="180" fill="#ffd60a" font-size="2" font-family="monospace" text-anchor="start" dominant-baseline="middle">DB4</text>
<line x1="30" y1="200" x2="50" y2="200" stroke="#ffd60a" stroke-width="1.5" stroke-linecap="round"/>
<text x="55" y="200" fill="#ffd60a" font-size="2" font-family="monospace" text-anchor="start" dominant-baseline="middle">DB5</text>
<line x1="30" y1="220" x2="50" y2="220" stroke="#ffd60a" stroke-width="1.5" stroke-linecap="round"/>
<text x="55" y="220" fill="#ffd60a" font-size="2" font-family="monospace" text-anchor="start" dominant-baseline="middle">DB6</text>
<line x1="30" y1="240" x2="50" y2="240" stroke="#ffd60a" stroke-width="1.5" stroke-linecap="round"/>
<text x="55" y="240" fill="#ffd60a" font-size="2" font-family="monospace" text-anchor="start" dominant-baseline="middle">DB7</text>
<line x1="30" y1="260" x2="50" y2="260" stroke="#ffd60a" stroke-width="1.5" stroke-linecap="round"/>
<text x="55" y="260" fill="#ffd60a" font-size="2" font-family="monospace" text-anchor="start" dominant-baseline="middle">DB8</text>
<line x1="30" y1="280" x2="50" y2="280" stroke="#ffd60a" stroke-width="1.5" stroke-linecap="round"/>
<text x="55" y="280" fill="#ffd60a" font-size="2" font-family="monospace" text-anchor="start" dominant-baseline="middle">DB9</text>
<line x1="30" y1="300" x2="50" y2="300" stroke="#ffd60a" stroke-width="1.5" stroke-linecap="round"/>
<text x="55" y="300" fill="#ffd60a" font-size="2" font-family="monospace" text-anchor="start" dominant-baseline="middle">DB10</text>
<line x1="30" y1="320" x2="50" y2="320" stroke="#ffd60a" stroke-width="1.5" stroke-linecap="round"/>
<text x="55" y="320" fill="#ffd60a" font-size="2" font-family="monospace" text-anchor="start" dominant-baseline="middle">DB11</text>
<line x1="30" y1="340" x2="50" y2="340" stroke="#ffd60a" stroke-width="1.5" stroke-linecap="round"/>
<text x="55" y="340" fill="#ffd60a" font-size="2" font-family="monospace" text-anchor="start" dominant-baseline="middle">OFB</text>
<line x1="30" y1="360.00000000000006" x2="50" y2="360.00000000000006" stroke="#ffd60a" stroke-width="1.5" stroke-linecap="round"/>
<text x="55" y="360.00000000000006" fill="#ffd60a" font-size="2" font-family="monospace" text-anchor="start" dominant-baseline="middle">DA0</text>
<line x1="30" y1="380" x2="50" y2="380" stroke="#ffd60a" stroke-width="1.5" stroke-linecap="round"/>
<text x="55" y="380" fill="#ffd60a" font-size="2" font-family="monospace" text-anchor="start" dominant-baseline="middle">DA1</text>
<line x1="30" y1="400" x2="50" y2="400" stroke="#ffd60a" stroke-width="1.5" stroke-linecap="round"/>
<text x="55" y="400" fill="#ffd60a" font-size="2" font-family="monospace" text-anchor="start" dominant-baseline="middle">DA2</text>
<line x1="30" y1="420" x2="50" y2="420" stroke="#ffd60a" stroke-width="1.5" stroke-linecap="round"/>
<text x="55" y="420" fill="#ffd60a" font-size="2" font-family="monospace" text-anchor="start" dominant-baseline="middle">DA3</text>
<line x1="30" y1="440" x2="50" y2="440" stroke="#ffd60a" stroke-width="1.5" stroke-linecap="round"/>
<text x="55" y="440" fill="#ffd60a" font-size="2" font-family="monospace" text-anchor="start" dominant-baseline="middle">DA4</text>
<line x1="30" y1="460" x2="50" y2="460" stroke="#ffd60a" stroke-width="1.5" stroke-linecap="round"/>
<text x="55" y="460" fill="#ffd60a" font-size="2" font-family="monospace" text-anchor="start" dominant-baseline="middle">DA5</text>
<line x1="30" y1="480" x2="50" y2="480" stroke="#ffd60a" stroke-width="1.5" stroke-linecap="round"/>
<text x="55" y="480" fill="#ffd60a" font-size="2" font-family="monospace" text-anchor="start" dominant-baseline="middle">DA6</text>
<line x1="30" y1="500" x2="50" y2="500" stroke="#ffd60a" stroke-width="1.5" stroke-linecap="round"/>
<text x="55" y="500" fill="#ffd60a" font-size="2" font-family="monospace" text-anchor="start" dominant-baseline="middle">DA7</text>
<line x1="30" y1="520" x2="50" y2="520" stroke="#ffd60a" stroke-width="1.5" stroke-linecap="round"/>
<text x="55" y="520" fill="#ffd60a" font-size="2" font-family="monospace" text-anchor="start" dominant-baseline="middle">DA8</text>
<line x1="30" y1="540" x2="50" y2="540" stroke="#ffd60a" stroke-width="1.5" stroke-linecap="round"/>
<text x="55" y="540" fill="#ffd60a" font-size="2" font-family="monospace" text-anchor="start" dominant-baseline="middle">DA9</text>
<line x1="30" y1="560" x2="50" y2="560" stroke="#ffd60a" stroke-width="1.5" stroke-linecap="round"/>
<text x="55" y="560" fill="#ffd60a" font-size="2" font-family="monospace" text-anchor="start" dominant-baseline="middle">DA10</text>
<line x1="30" y1="580" x2="50" y2="580" stroke="#ffd60a" stroke-width="1.5" stroke-linecap="round"/>
<text x="55" y="580" fill="#ffd60a" font-size="2" font-family="monospace" text-anchor="start" dominant-baseline="middle">DA11</text>
<line x1="30" y1="600" x2="50" y2="600" stroke="#ffd60a" stroke-width="1.5" stroke-linecap="round"/>
<text x="55" y="600" fill="#ffd60a" font-size="2" font-family="monospace" text-anchor="start" dominant-baseline="middle">OFA</text>
<line x1="30" y1="620" x2="50" y2="620" stroke="#ffd60a" stroke-width="1.5" stroke-linecap="round"/>
<text x="55" y="620" fill="#ffd60a" font-size="2" font-family="monospace" text-anchor="start" dominant-baseline="middle">~{OEA}</text>
<line x1="30" y1="640" x2="50" y2="640" stroke="#ffd60a" stroke-width="1.5" stroke-linecap="round"/>
<text x="55" y="640" fill="#ffd60a" font-size="2" font-family="monospace" text-anchor="start" dominant-baseline="middle">SHDNA</text>
<line x1="190" y1="62.5" x2="170" y2="62.5" stroke="#ffd60a" stroke-width="1.5" stroke-linecap="round"/>
<text x="165" y="62.5" fill="#ffd60a" font-size="2" font-family="monospace" text-anchor="end" dominant-baseline="middle">AINA+</text>
<line x1="190" y1="87.5" x2="170" y2="87.5" stroke="#ffd60a" stroke-width="1.5" stroke-linecap="round"/>
<text x="165" y="87.5" fill="#ffd60a" font-size="2" font-family="monospace" text-anchor="end" dominant-baseline="middle">AINA-</text>
<line x1="190" y1="112.5" x2="170" y2="112.5" stroke="#ffd60a" stroke-width="1.5" stroke-linecap="round"/>
<text x="165" y="112.5" fill="#ffd60a" font-size="2" font-family="monospace" text-anchor="end" dominant-baseline="middle">REFHA</text>
<line x1="190" y1="137.5" x2="170" y2="137.5" stroke="#ffd60a" stroke-width="1.5" stroke-linecap="round"/>
<text x="165" y="137.5" fill="#ffd60a" font-size="2" font-family="monospace" text-anchor="end" dominant-baseline="middle">REFHA</text>
<line x1="190" y1="162.5" x2="170" y2="162.5" stroke="#ffd60a" stroke-width="1.5" stroke-linecap="round"/>
<text x="165" y="162.5" fill="#ffd60a" font-size="2" font-family="monospace" text-anchor="end" dominant-baseline="middle">REFLA</text>
<line x1="190" y1="187.5" x2="170" y2="187.5" stroke="#ffd60a" stroke-width="1.5" stroke-linecap="round"/>
<text x="165" y="187.5" fill="#ffd60a" font-size="2" font-family="monospace" text-anchor="end" dominant-baseline="middle">REFLA</text>
<line x1="190" y1="212.5" x2="170" y2="212.5" stroke="#ffd60a" stroke-width="1.5" stroke-linecap="round"/>
<text x="165" y="212.5" fill="#ffd60a" font-size="2" font-family="monospace" text-anchor="end" dominant-baseline="middle">CLKA</text>
<line x1="190" y1="237.5" x2="170" y2="237.5" stroke="#ffd60a" stroke-width="1.5" stroke-linecap="round"/>
<text x="165" y="237.5" fill="#ffd60a" font-size="2" font-family="monospace" text-anchor="end" dominant-baseline="middle">CLKB</text>
<line x1="190" y1="262.5" x2="170" y2="262.5" stroke="#ffd60a" stroke-width="1.5" stroke-linecap="round"/>
<text x="165" y="262.5" fill="#ffd60a" font-size="2" font-family="monospace" text-anchor="end" dominant-baseline="middle">REFLB</text>
<line x1="190" y1="287.5" x2="170" y2="287.5" stroke="#ffd60a" stroke-width="1.5" stroke-linecap="round"/>
<text x="165" y="287.5" fill="#ffd60a" font-size="2" font-family="monospace" text-anchor="end" dominant-baseline="middle">REFLB</text>
<line x1="190" y1="312.5" x2="170" y2="312.5" stroke="#ffd60a" stroke-width="1.5" stroke-linecap="round"/>
<text x="165" y="312.5" fill="#ffd60a" font-size="2" font-family="monospace" text-anchor="end" dominant-baseline="middle">REFHB</text>
<line x1="190" y1="337.5" x2="170" y2="337.5" stroke="#ffd60a" stroke-width="1.5" stroke-linecap="round"/>
<text x="165" y="337.5" fill="#ffd60a" font-size="2" font-family="monospace" text-anchor="end" dominant-baseline="middle">REFHB</text>
<line x1="190" y1="362.5" x2="170" y2="362.5" stroke="#ffd60a" stroke-width="1.5" stroke-linecap="round"/>
<text x="165" y="362.5" fill="#ffd60a" font-size="2" font-family="monospace" text-anchor="end" dominant-baseline="middle">AINB-</text>
<line x1="190" y1="387.5" x2="170" y2="387.5" stroke="#ffd60a" stroke-width="1.5" stroke-linecap="round"/>
<text x="165" y="387.5" fill="#ffd60a" font-size="2" font-family="monospace" text-anchor="end" dominant-baseline="middle">AINB+</text>
<line x1="190" y1="412.5" x2="170" y2="412.5" stroke="#ffd60a" stroke-width="1.5" stroke-linecap="round"/>
<text x="165" y="412.5" fill="#ffd60a" font-size="2" font-family="monospace" text-anchor="end" dominant-baseline="middle">SENSEB</text>
<line x1="190" y1="437.5" x2="170" y2="437.5" stroke="#ffd60a" stroke-width="1.5" stroke-linecap="round"/>
<text x="165" y="437.5" fill="#ffd60a" font-size="2" font-family="monospace" text-anchor="end" dominant-baseline="middle">VCMB</text>
<line x1="190" y1="462.5" x2="170" y2="462.5" stroke="#ffd60a" stroke-width="1.5" stroke-linecap="round"/>
<text x="165" y="462.5" fill="#ffd60a" font-size="2" font-family="monospace" text-anchor="end" dominant-baseline="middle">MUX</text>
<line x1="190" y1="487.5" x2="170" y2="487.5" stroke="#ffd60a" stroke-width="1.5" stroke-linecap="round"/>
<text x="165" y="487.5" fill="#ffd60a" font-size="2" font-family="monospace" text-anchor="end" dominant-baseline="middle">NC</text>
<line x1="190" y1="512.5" x2="170" y2="512.5" stroke="#ffd60a" stroke-width="1.5" stroke-linecap="round"/>
<text x="165" y="512.5" fill="#ffd60a" font-size="2" font-family="monospace" text-anchor="end" dominant-baseline="middle">NC</text>
<line x1="190" y1="537.5" x2="170" y2="537.5" stroke="#ffd60a" stroke-width="1.5" stroke-linecap="round"/>
<text x="165" y="537.5" fill="#ffd60a" font-size="2" font-family="monospace" text-anchor="end" dominant-baseline="middle">NC</text>
<line x1="190" y1="562.5" x2="170" y2="562.5" stroke="#ffd60a" stroke-width="1.5" stroke-linecap="round"/>
<text x="165" y="562.5" fill="#ffd60a" font-size="2" font-family="monospace" text-anchor="end" dominant-baseline="middle">NC</text>
<line x1="190" y1="587.5" x2="170" y2="587.5" stroke="#ffd60a" stroke-width="1.5" stroke-linecap="round"/>
<text x="165" y="587.5" fill="#ffd60a" font-size="2" font-family="monospace" text-anchor="end" dominant-baseline="middle">MODE</text>
<line x1="190" y1="612.5" x2="170" y2="612.5" stroke="#ffd60a" stroke-width="1.5" stroke-linecap="round"/>
<text x="165" y="612.5" fill="#ffd60a" font-size="2" font-family="monospace" text-anchor="end" dominant-baseline="middle">VCMA</text>
<line x1="190" y1="637.5" x2="170" y2="637.5" stroke="#ffd60a" stroke-width="1.5" stroke-linecap="round"/>
<text x="165" y="637.5" fill="#ffd60a" font-size="2" font-family="monospace" text-anchor="end" dominant-baseline="middle">SENSEA</text>
<line x1="62" y1="30" x2="62" y2="50" stroke="#ffd60a" stroke-width="1.5" stroke-linecap="round"/>
<text x="62" y="25" fill="#ffd60a" font-size="2" font-family="monospace" text-anchor="middle" dominant-baseline="middle">GND</text>
<line x1="86" y1="30" x2="86" y2="50" stroke="#ffd60a" stroke-width="1.5" stroke-linecap="round"/>
<text x="86" y="25" fill="#ffd60a" font-size="2" font-family="monospace" text-anchor="middle" dominant-baseline="middle">OGND</text>
<line x1="110" y1="30" x2="110" y2="50" stroke="#ffd60a" stroke-width="1.5" stroke-linecap="round"/>
<text x="110" y="25" fill="#ffd60a" font-size="2" font-family="monospace" text-anchor="middle" dominant-baseline="middle">OGND</text>
<line x1="134" y1="30" x2="134" y2="50" stroke="#ffd60a" stroke-width="1.5" stroke-linecap="round"/>
<text x="134" y="25" fill="#ffd60a" font-size="2" font-family="monospace" text-anchor="middle" dominant-baseline="middle">GND</text>
<line x1="158" y1="30" x2="158" y2="50" stroke="#ffd60a" stroke-width="1.5" stroke-linecap="round"/>
<text x="158" y="25" fill="#ffd60a" font-size="2" font-family="monospace" text-anchor="middle" dominant-baseline="middle">GND</text>
<line x1="60" y1="670" x2="60" y2="650" stroke="#ffd60a" stroke-width="1.5" stroke-linecap="round"/>
<text x="60" y="684" fill="#ffd60a" font-size="2" font-family="monospace" text-anchor="middle" dominant-baseline="middle">VDD</text>
<line x1="80" y1="670" x2="80" y2="650" stroke="#ffd60a" stroke-width="1.5" stroke-linecap="round"/>
<text x="80" y="684" fill="#ffd60a" font-size="2" font-family="monospace" text-anchor="middle" dominant-baseline="middle">VDD</text>
<line x1="100" y1="670" x2="100" y2="650" stroke="#ffd60a" stroke-width="1.5" stroke-linecap="round"/>
<text x="100" y="684" fill="#ffd60a" font-size="2" font-family="monospace" text-anchor="middle" dominant-baseline="middle">VDD</text>
<line x1="120" y1="670" x2="120" y2="650" stroke="#ffd60a" stroke-width="1.5" stroke-linecap="round"/>
<text x="120" y="684" fill="#ffd60a" font-size="2" font-family="monospace" text-anchor="middle" dominant-baseline="middle">OVDD</text>
<line x1="140" y1="670" x2="140" y2="650" stroke="#ffd60a" stroke-width="1.5" stroke-linecap="round"/>
<text x="140" y="684" fill="#ffd60a" font-size="2" font-family="monospace" text-anchor="middle" dominant-baseline="middle">OVDD</text>
<line x1="160" y1="670" x2="160" y2="650" stroke="#ffd60a" stroke-width="1.5" stroke-linecap="round"/>
<text x="160" y="684" fill="#ffd60a" font-size="2" font-family="monospace" text-anchor="middle" dominant-baseline="middle">VDD</text>
</svg>