<svg xmlns="http://www.w3.org/2000/svg" viewBox="0 0 840 580">
<rect x="50" y="50" width="740" height="480" stroke="#ffffff" stroke-width="1.5" fill="rgba(255,255,255,0.04)"/>
<text x="420" y="290" fill="#888" font-size="3" font-family="monospace" text-anchor="middle" dominant-baseline="middle">U</text>
<line x1="30" y1="60" x2="50" y2="60" stroke="#ffd60a" stroke-width="1.5" stroke-linecap="round"/>
<text x="55" y="60" fill="#ffd60a" font-size="2" font-family="monospace" text-anchor="start" dominant-baseline="middle">V_{OUT1P}</text>
<line x1="30" y1="80" x2="50" y2="80" stroke="#ffd60a" stroke-width="1.5" stroke-linecap="round"/>
<text x="55" y="80" fill="#ffd60a" font-size="2" font-family="monospace" text-anchor="start" dominant-baseline="middle">V_{OUT1P}</text>
<line x1="30" y1="100" x2="50" y2="100" stroke="#ffd60a" stroke-width="1.5" stroke-linecap="round"/>
<text x="55" y="100" fill="#ffd60a" font-size="2" font-family="monospace" text-anchor="start" dominant-baseline="middle">V_{OUT1P}</text>
<line x1="30" y1="120" x2="50" y2="120" stroke="#ffd60a" stroke-width="1.5" stroke-linecap="round"/>
<text x="55" y="120" fill="#ffd60a" font-size="2" font-family="monospace" text-anchor="start" dominant-baseline="middle">V_{OUT1P}</text>
<line x1="30" y1="140" x2="50" y2="140" stroke="#ffd60a" stroke-width="1.5" stroke-linecap="round"/>
<text x="55" y="140" fill="#ffd60a" font-size="2" font-family="monospace" text-anchor="start" dominant-baseline="middle">FBX1</text>
<line x1="30" y1="160" x2="50" y2="160" stroke="#ffd60a" stroke-width="1.5" stroke-linecap="round"/>
<text x="55" y="160" fill="#ffd60a" font-size="2" font-family="monospace" text-anchor="start" dominant-baseline="middle">V_{OUT1N}</text>
<line x1="30" y1="180" x2="50" y2="180" stroke="#ffd60a" stroke-width="1.5" stroke-linecap="round"/>
<text x="55" y="180" fill="#ffd60a" font-size="2" font-family="monospace" text-anchor="start" dominant-baseline="middle">SS1</text>
<line x1="30" y1="200" x2="50" y2="200" stroke="#ffd60a" stroke-width="1.5" stroke-linecap="round"/>
<text x="55" y="200" fill="#ffd60a" font-size="2" font-family="monospace" text-anchor="start" dominant-baseline="middle">V_{OUT1N}</text>
<line x1="30" y1="220" x2="50" y2="220" stroke="#ffd60a" stroke-width="1.5" stroke-linecap="round"/>
<text x="55" y="220" fill="#ffd60a" font-size="2" font-family="monospace" text-anchor="start" dominant-baseline="middle">V_{OUT1N}</text>
<line x1="30" y1="240" x2="50" y2="240" stroke="#ffd60a" stroke-width="1.5" stroke-linecap="round"/>
<text x="55" y="240" fill="#ffd60a" font-size="2" font-family="monospace" text-anchor="start" dominant-baseline="middle">PG1</text>
<line x1="30" y1="260" x2="50" y2="260" stroke="#ffd60a" stroke-width="1.5" stroke-linecap="round"/>
<text x="55" y="260" fill="#ffd60a" font-size="2" font-family="monospace" text-anchor="start" dominant-baseline="middle">V_{OUT1N}</text>
<line x1="30" y1="280" x2="50" y2="280" stroke="#ffd60a" stroke-width="1.5" stroke-linecap="round"/>
<text x="55" y="280" fill="#ffd60a" font-size="2" font-family="monospace" text-anchor="start" dominant-baseline="middle">V_{OUT1N}</text>
<line x1="30" y1="300" x2="50" y2="300" stroke="#ffd60a" stroke-width="1.5" stroke-linecap="round"/>
<text x="55" y="300" fill="#ffd60a" font-size="2" font-family="monospace" text-anchor="start" dominant-baseline="middle">V_{OUT2N}</text>
<line x1="30" y1="320" x2="50" y2="320" stroke="#ffd60a" stroke-width="1.5" stroke-linecap="round"/>
<text x="55" y="320" fill="#ffd60a" font-size="2" font-family="monospace" text-anchor="start" dominant-baseline="middle">V_{OUT2N}</text>
<line x1="30" y1="340" x2="50" y2="340" stroke="#ffd60a" stroke-width="1.5" stroke-linecap="round"/>
<text x="55" y="340" fill="#ffd60a" font-size="2" font-family="monospace" text-anchor="start" dominant-baseline="middle">V_{OUT2N}</text>
<line x1="30" y1="360" x2="50" y2="360" stroke="#ffd60a" stroke-width="1.5" stroke-linecap="round"/>
<text x="55" y="360" fill="#ffd60a" font-size="2" font-family="monospace" text-anchor="start" dominant-baseline="middle">V_{OUT2N}</text>
<line x1="30" y1="380" x2="50" y2="380" stroke="#ffd60a" stroke-width="1.5" stroke-linecap="round"/>
<text x="55" y="380" fill="#ffd60a" font-size="2" font-family="monospace" text-anchor="start" dominant-baseline="middle">PG2</text>
<line x1="30" y1="400" x2="50" y2="400" stroke="#ffd60a" stroke-width="1.5" stroke-linecap="round"/>
<text x="55" y="400" fill="#ffd60a" font-size="2" font-family="monospace" text-anchor="start" dominant-baseline="middle">FBX2</text>
<line x1="30" y1="420" x2="50" y2="420" stroke="#ffd60a" stroke-width="1.5" stroke-linecap="round"/>
<text x="55" y="420" fill="#ffd60a" font-size="2" font-family="monospace" text-anchor="start" dominant-baseline="middle">V_{OUT2N}</text>
<line x1="30" y1="440" x2="50" y2="440" stroke="#ffd60a" stroke-width="1.5" stroke-linecap="round"/>
<text x="55" y="440" fill="#ffd60a" font-size="2" font-family="monospace" text-anchor="start" dominant-baseline="middle">SS2</text>
<line x1="30" y1="460" x2="50" y2="460" stroke="#ffd60a" stroke-width="1.5" stroke-linecap="round"/>
<text x="55" y="460" fill="#ffd60a" font-size="2" font-family="monospace" text-anchor="start" dominant-baseline="middle">V_{OUT2P}</text>
<line x1="30" y1="480" x2="50" y2="480" stroke="#ffd60a" stroke-width="1.5" stroke-linecap="round"/>
<text x="55" y="480" fill="#ffd60a" font-size="2" font-family="monospace" text-anchor="start" dominant-baseline="middle">V_{OUT2P}</text>
<line x1="30" y1="500" x2="50" y2="500" stroke="#ffd60a" stroke-width="1.5" stroke-linecap="round"/>
<text x="55" y="500" fill="#ffd60a" font-size="2" font-family="monospace" text-anchor="start" dominant-baseline="middle">V_{OUT2P}</text>
<line x1="30" y1="520" x2="50" y2="520" stroke="#ffd60a" stroke-width="1.5" stroke-linecap="round"/>
<text x="55" y="520" fill="#ffd60a" font-size="2" font-family="monospace" text-anchor="start" dominant-baseline="middle">V_{OUT2P}</text>
<line x1="810" y1="65" x2="790" y2="65" stroke="#ffd60a" stroke-width="1.5" stroke-linecap="round"/>
<text x="785" y="65" fill="#ffd60a" font-size="2" font-family="monospace" text-anchor="end" dominant-baseline="middle">V_{IN1}</text>
<line x1="810" y1="95" x2="790" y2="95" stroke="#ffd60a" stroke-width="1.5" stroke-linecap="round"/>
<text x="785" y="95" fill="#ffd60a" font-size="2" font-family="monospace" text-anchor="end" dominant-baseline="middle">V_{IN1}</text>
<line x1="810" y1="125" x2="790" y2="125" stroke="#ffd60a" stroke-width="1.5" stroke-linecap="round"/>
<text x="785" y="125" fill="#ffd60a" font-size="2" font-family="monospace" text-anchor="end" dominant-baseline="middle">V_{IN1}</text>
<line x1="810" y1="155" x2="790" y2="155" stroke="#ffd60a" stroke-width="1.5" stroke-linecap="round"/>
<text x="785" y="155" fill="#ffd60a" font-size="2" font-family="monospace" text-anchor="end" dominant-baseline="middle">RUN1</text>
<line x1="810" y1="185" x2="790" y2="185" stroke="#ffd60a" stroke-width="1.5" stroke-linecap="round"/>
<text x="785" y="185" fill="#ffd60a" font-size="2" font-family="monospace" text-anchor="end" dominant-baseline="middle">SYNC1</text>
<line x1="810" y1="215" x2="790" y2="215" stroke="#ffd60a" stroke-width="1.5" stroke-linecap="round"/>
<text x="785" y="215" fill="#ffd60a" font-size="2" font-family="monospace" text-anchor="end" dominant-baseline="middle">CLKOUT1</text>
<line x1="810" y1="245" x2="790" y2="245" stroke="#ffd60a" stroke-width="1.5" stroke-linecap="round"/>
<text x="785" y="245" fill="#ffd60a" font-size="2" font-family="monospace" text-anchor="end" dominant-baseline="middle">RT1</text>
<line x1="810" y1="275" x2="790" y2="275" stroke="#ffd60a" stroke-width="1.5" stroke-linecap="round"/>
<text x="785" y="275" fill="#ffd60a" font-size="2" font-family="monospace" text-anchor="end" dominant-baseline="middle">SHARE1</text>
<line x1="810" y1="305" x2="790" y2="305" stroke="#ffd60a" stroke-width="1.5" stroke-linecap="round"/>
<text x="785" y="305" fill="#ffd60a" font-size="2" font-family="monospace" text-anchor="end" dominant-baseline="middle">SHARE2</text>
<line x1="810" y1="335" x2="790" y2="335" stroke="#ffd60a" stroke-width="1.5" stroke-linecap="round"/>
<text x="785" y="335" fill="#ffd60a" font-size="2" font-family="monospace" text-anchor="end" dominant-baseline="middle">CLKOUT2</text>
<line x1="810" y1="365" x2="790" y2="365" stroke="#ffd60a" stroke-width="1.5" stroke-linecap="round"/>
<text x="785" y="365" fill="#ffd60a" font-size="2" font-family="monospace" text-anchor="end" dominant-baseline="middle">RT2</text>
<line x1="810" y1="395" x2="790" y2="395" stroke="#ffd60a" stroke-width="1.5" stroke-linecap="round"/>
<text x="785" y="395" fill="#ffd60a" font-size="2" font-family="monospace" text-anchor="end" dominant-baseline="middle">SYNC2</text>
<line x1="810" y1="425" x2="790" y2="425" stroke="#ffd60a" stroke-width="1.5" stroke-linecap="round"/>
<text x="785" y="425" fill="#ffd60a" font-size="2" font-family="monospace" text-anchor="end" dominant-baseline="middle">RUN2</text>
<line x1="810" y1="455" x2="790" y2="455" stroke="#ffd60a" stroke-width="1.5" stroke-linecap="round"/>
<text x="785" y="455" fill="#ffd60a" font-size="2" font-family="monospace" text-anchor="end" dominant-baseline="middle">V_{IN2}</text>
<line x1="810" y1="485" x2="790" y2="485" stroke="#ffd60a" stroke-width="1.5" stroke-linecap="round"/>
<text x="785" y="485" fill="#ffd60a" font-size="2" font-family="monospace" text-anchor="end" dominant-baseline="middle">V_{IN2}</text>
<line x1="810" y1="515" x2="790" y2="515" stroke="#ffd60a" stroke-width="1.5" stroke-linecap="round"/>
<text x="785" y="515" fill="#ffd60a" font-size="2" font-family="monospace" text-anchor="end" dominant-baseline="middle">V_{IN2}</text>
<line x1="60" y1="30" x2="60" y2="50" stroke="#ffd60a" stroke-width="1.5" stroke-linecap="round"/>
<text x="60" y="25" fill="#ffd60a" font-size="2" font-family="monospace" text-anchor="middle" dominant-baseline="middle">GND</text>
<line x1="80" y1="30" x2="80" y2="50" stroke="#ffd60a" stroke-width="1.5" stroke-linecap="round"/>
<text x="80" y="25" fill="#ffd60a" font-size="2" font-family="monospace" text-anchor="middle" dominant-baseline="middle">GND</text>
<line x1="100" y1="30" x2="100" y2="50" stroke="#ffd60a" stroke-width="1.5" stroke-linecap="round"/>
<text x="100" y="25" fill="#ffd60a" font-size="2" font-family="monospace" text-anchor="middle" dominant-baseline="middle">GND</text>
<line x1="120" y1="30" x2="120" y2="50" stroke="#ffd60a" stroke-width="1.5" stroke-linecap="round"/>
<text x="120" y="25" fill="#ffd60a" font-size="2" font-family="monospace" text-anchor="middle" dominant-baseline="middle">GND</text>
<line x1="140" y1="30" x2="140" y2="50" stroke="#ffd60a" stroke-width="1.5" stroke-linecap="round"/>
<text x="140" y="25" fill="#ffd60a" font-size="2" font-family="monospace" text-anchor="middle" dominant-baseline="middle">GND</text>
<line x1="160" y1="30" x2="160" y2="50" stroke="#ffd60a" stroke-width="1.5" stroke-linecap="round"/>
<text x="160" y="25" fill="#ffd60a" font-size="2" font-family="monospace" text-anchor="middle" dominant-baseline="middle">GND</text>
<line x1="180" y1="30" x2="180" y2="50" stroke="#ffd60a" stroke-width="1.5" stroke-linecap="round"/>
<text x="180" y="25" fill="#ffd60a" font-size="2" font-family="monospace" text-anchor="middle" dominant-baseline="middle">GND</text>
<line x1="200" y1="30" x2="200" y2="50" stroke="#ffd60a" stroke-width="1.5" stroke-linecap="round"/>
<text x="200" y="25" fill="#ffd60a" font-size="2" font-family="monospace" text-anchor="middle" dominant-baseline="middle">GND</text>
<line x1="220" y1="30" x2="220" y2="50" stroke="#ffd60a" stroke-width="1.5" stroke-linecap="round"/>
<text x="220" y="25" fill="#ffd60a" font-size="2" font-family="monospace" text-anchor="middle" dominant-baseline="middle">GND</text>
<line x1="240" y1="30" x2="240" y2="50" stroke="#ffd60a" stroke-width="1.5" stroke-linecap="round"/>
<text x="240" y="25" fill="#ffd60a" font-size="2" font-family="monospace" text-anchor="middle" dominant-baseline="middle">GND</text>
<line x1="260" y1="30" x2="260" y2="50" stroke="#ffd60a" stroke-width="1.5" stroke-linecap="round"/>
<text x="260" y="25" fill="#ffd60a" font-size="2" font-family="monospace" text-anchor="middle" dominant-baseline="middle">GND</text>
<line x1="280" y1="30" x2="280" y2="50" stroke="#ffd60a" stroke-width="1.5" stroke-linecap="round"/>
<text x="280" y="25" fill="#ffd60a" font-size="2" font-family="monospace" text-anchor="middle" dominant-baseline="middle">GND</text>
<line x1="300" y1="30" x2="300" y2="50" stroke="#ffd60a" stroke-width="1.5" stroke-linecap="round"/>
<text x="300" y="25" fill="#ffd60a" font-size="2" font-family="monospace" text-anchor="middle" dominant-baseline="middle">GND</text>
<line x1="320" y1="30" x2="320" y2="50" stroke="#ffd60a" stroke-width="1.5" stroke-linecap="round"/>
<text x="320" y="25" fill="#ffd60a" font-size="2" font-family="monospace" text-anchor="middle" dominant-baseline="middle">GND</text>
<line x1="340" y1="30" x2="340" y2="50" stroke="#ffd60a" stroke-width="1.5" stroke-linecap="round"/>
<text x="340" y="25" fill="#ffd60a" font-size="2" font-family="monospace" text-anchor="middle" dominant-baseline="middle">GND</text>
<line x1="360" y1="30" x2="360" y2="50" stroke="#ffd60a" stroke-width="1.5" stroke-linecap="round"/>
<text x="360" y="25" fill="#ffd60a" font-size="2" font-family="monospace" text-anchor="middle" dominant-baseline="middle">GND</text>
<line x1="380" y1="30" x2="380" y2="50" stroke="#ffd60a" stroke-width="1.5" stroke-linecap="round"/>
<text x="380" y="25" fill="#ffd60a" font-size="2" font-family="monospace" text-anchor="middle" dominant-baseline="middle">GND</text>
<line x1="400" y1="30" x2="400" y2="50" stroke="#ffd60a" stroke-width="1.5" stroke-linecap="round"/>
<text x="400" y="25" fill="#ffd60a" font-size="2" font-family="monospace" text-anchor="middle" dominant-baseline="middle">GND</text>
<line x1="420" y1="30" x2="420" y2="50" stroke="#ffd60a" stroke-width="1.5" stroke-linecap="round"/>
<text x="420" y="25" fill="#ffd60a" font-size="2" font-family="monospace" text-anchor="middle" dominant-baseline="middle">GND</text>
<line x1="439.99999999999994" y1="30" x2="439.99999999999994" y2="50" stroke="#ffd60a" stroke-width="1.5" stroke-linecap="round"/>
<text x="439.99999999999994" y="25" fill="#ffd60a" font-size="2" font-family="monospace" text-anchor="middle" dominant-baseline="middle">GND</text>
<line x1="460" y1="30" x2="460" y2="50" stroke="#ffd60a" stroke-width="1.5" stroke-linecap="round"/>
<text x="460" y="25" fill="#ffd60a" font-size="2" font-family="monospace" text-anchor="middle" dominant-baseline="middle">GND</text>
<line x1="479.99999999999994" y1="30" x2="479.99999999999994" y2="50" stroke="#ffd60a" stroke-width="1.5" stroke-linecap="round"/>
<text x="479.99999999999994" y="25" fill="#ffd60a" font-size="2" font-family="monospace" text-anchor="middle" dominant-baseline="middle">GND</text>
<line x1="500" y1="30" x2="500" y2="50" stroke="#ffd60a" stroke-width="1.5" stroke-linecap="round"/>
<text x="500" y="25" fill="#ffd60a" font-size="2" font-family="monospace" text-anchor="middle" dominant-baseline="middle">GND</text>
<line x1="520" y1="30" x2="520" y2="50" stroke="#ffd60a" stroke-width="1.5" stroke-linecap="round"/>
<text x="520" y="25" fill="#ffd60a" font-size="2" font-family="monospace" text-anchor="middle" dominant-baseline="middle">GND</text>
<line x1="540" y1="30" x2="540" y2="50" stroke="#ffd60a" stroke-width="1.5" stroke-linecap="round"/>
<text x="540" y="25" fill="#ffd60a" font-size="2" font-family="monospace" text-anchor="middle" dominant-baseline="middle">GND</text>
<line x1="560" y1="30" x2="560" y2="50" stroke="#ffd60a" stroke-width="1.5" stroke-linecap="round"/>
<text x="560" y="25" fill="#ffd60a" font-size="2" font-family="monospace" text-anchor="middle" dominant-baseline="middle">GND</text>
<line x1="580" y1="30" x2="580" y2="50" stroke="#ffd60a" stroke-width="1.5" stroke-linecap="round"/>
<text x="580" y="25" fill="#ffd60a" font-size="2" font-family="monospace" text-anchor="middle" dominant-baseline="middle">GND</text>
<line x1="600" y1="30" x2="600" y2="50" stroke="#ffd60a" stroke-width="1.5" stroke-linecap="round"/>
<text x="600" y="25" fill="#ffd60a" font-size="2" font-family="monospace" text-anchor="middle" dominant-baseline="middle">GND</text>
<line x1="620" y1="30" x2="620" y2="50" stroke="#ffd60a" stroke-width="1.5" stroke-linecap="round"/>
<text x="620" y="25" fill="#ffd60a" font-size="2" font-family="monospace" text-anchor="middle" dominant-baseline="middle">GND</text>
<line x1="640" y1="30" x2="640" y2="50" stroke="#ffd60a" stroke-width="1.5" stroke-linecap="round"/>
<text x="640" y="25" fill="#ffd60a" font-size="2" font-family="monospace" text-anchor="middle" dominant-baseline="middle">GND</text>
<line x1="660" y1="30" x2="660" y2="50" stroke="#ffd60a" stroke-width="1.5" stroke-linecap="round"/>
<text x="660" y="25" fill="#ffd60a" font-size="2" font-family="monospace" text-anchor="middle" dominant-baseline="middle">GND</text>
<line x1="680" y1="30" x2="680" y2="50" stroke="#ffd60a" stroke-width="1.5" stroke-linecap="round"/>
<text x="680" y="25" fill="#ffd60a" font-size="2" font-family="monospace" text-anchor="middle" dominant-baseline="middle">GND</text>
<line x1="700" y1="30" x2="700" y2="50" stroke="#ffd60a" stroke-width="1.5" stroke-linecap="round"/>
<text x="700" y="25" fill="#ffd60a" font-size="2" font-family="monospace" text-anchor="middle" dominant-baseline="middle">GND</text>
<line x1="720" y1="30" x2="720" y2="50" stroke="#ffd60a" stroke-width="1.5" stroke-linecap="round"/>
<text x="720" y="25" fill="#ffd60a" font-size="2" font-family="monospace" text-anchor="middle" dominant-baseline="middle">GND</text>
<line x1="740" y1="30" x2="740" y2="50" stroke="#ffd60a" stroke-width="1.5" stroke-linecap="round"/>
<text x="740" y="25" fill="#ffd60a" font-size="2" font-family="monospace" text-anchor="middle" dominant-baseline="middle">GND</text>
<line x1="760" y1="30" x2="760" y2="50" stroke="#ffd60a" stroke-width="1.5" stroke-linecap="round"/>
<text x="760" y="25" fill="#ffd60a" font-size="2" font-family="monospace" text-anchor="middle" dominant-baseline="middle">GND</text>
<line x1="780" y1="30" x2="780" y2="50" stroke="#ffd60a" stroke-width="1.5" stroke-linecap="round"/>
<text x="780" y="25" fill="#ffd60a" font-size="2" font-family="monospace" text-anchor="middle" dominant-baseline="middle">GND</text>
</svg>