<svg xmlns="http://www.w3.org/2000/svg" viewBox="0 0 180 460">
<rect x="50" y="50" width="80" height="360" stroke="#ffffff" stroke-width="1.5" fill="rgba(255,255,255,0.04)"/>
<text x="90" y="230" fill="#888" font-size="3" font-family="monospace" text-anchor="middle" dominant-baseline="middle">A</text>
<line x1="30" y1="60" x2="50" y2="60" stroke="#ffd60a" stroke-width="1.5" stroke-linecap="round"/>
<text x="55" y="60" fill="#ffd60a" font-size="2" font-family="monospace" text-anchor="start" dominant-baseline="middle">BUT/D32</text>
<line x1="30" y1="80" x2="50" y2="80" stroke="#ffd60a" stroke-width="1.5" stroke-linecap="round"/>
<text x="55" y="80" fill="#ffd60a" font-size="2" font-family="monospace" text-anchor="start" dominant-baseline="middle">SCL1/D15</text>
<line x1="30" y1="100" x2="50" y2="100" stroke="#ffd60a" stroke-width="1.5" stroke-linecap="round"/>
<text x="55" y="100" fill="#ffd60a" font-size="2" font-family="monospace" text-anchor="start" dominant-baseline="middle">SDA1/D16</text>
<line x1="30" y1="120" x2="50" y2="120" stroke="#ffd60a" stroke-width="1.5" stroke-linecap="round"/>
<text x="55" y="120" fill="#ffd60a" font-size="2" font-family="monospace" text-anchor="start" dominant-baseline="middle">D17</text>
<line x1="30" y1="140" x2="50" y2="140" stroke="#ffd60a" stroke-width="1.5" stroke-linecap="round"/>
<text x="55" y="140" fill="#ffd60a" font-size="2" font-family="monospace" text-anchor="start" dominant-baseline="middle">D18</text>
<line x1="30" y1="160" x2="50" y2="160" stroke="#ffd60a" stroke-width="1.5" stroke-linecap="round"/>
<text x="55" y="160" fill="#ffd60a" font-size="2" font-family="monospace" text-anchor="start" dominant-baseline="middle">D19</text>
<line x1="30" y1="180" x2="50" y2="180" stroke="#ffd60a" stroke-width="1.5" stroke-linecap="round"/>
<text x="55" y="180" fill="#ffd60a" font-size="2" font-family="monospace" text-anchor="start" dominant-baseline="middle">D20</text>
<line x1="30" y1="200" x2="50" y2="200" stroke="#ffd60a" stroke-width="1.5" stroke-linecap="round"/>
<text x="55" y="200" fill="#ffd60a" font-size="2" font-family="monospace" text-anchor="start" dominant-baseline="middle">D21</text>
<line x1="30" y1="220" x2="50" y2="220" stroke="#ffd60a" stroke-width="1.5" stroke-linecap="round"/>
<text x="55" y="220" fill="#ffd60a" font-size="2" font-family="monospace" text-anchor="start" dominant-baseline="middle">D22</text>
<line x1="30" y1="240" x2="50" y2="240" stroke="#ffd60a" stroke-width="1.5" stroke-linecap="round"/>
<text x="55" y="240" fill="#ffd60a" font-size="2" font-family="monospace" text-anchor="start" dominant-baseline="middle">D23</text>
<line x1="30" y1="260" x2="50" y2="260" stroke="#ffd60a" stroke-width="1.5" stroke-linecap="round"/>
<text x="55" y="260" fill="#ffd60a" font-size="2" font-family="monospace" text-anchor="start" dominant-baseline="middle">D24</text>
<line x1="30" y1="280" x2="50" y2="280" stroke="#ffd60a" stroke-width="1.5" stroke-linecap="round"/>
<text x="55" y="280" fill="#ffd60a" font-size="2" font-family="monospace" text-anchor="start" dominant-baseline="middle">RX1/D25</text>
<line x1="30" y1="300" x2="50" y2="300" stroke="#ffd60a" stroke-width="1.5" stroke-linecap="round"/>
<text x="55" y="300" fill="#ffd60a" font-size="2" font-family="monospace" text-anchor="start" dominant-baseline="middle">TX1/D26</text>
<line x1="30" y1="320" x2="50" y2="320" stroke="#ffd60a" stroke-width="1.5" stroke-linecap="round"/>
<text x="55" y="320" fill="#ffd60a" font-size="2" font-family="monospace" text-anchor="start" dominant-baseline="middle">D27</text>
<line x1="30" y1="340" x2="50" y2="340" stroke="#ffd60a" stroke-width="1.5" stroke-linecap="round"/>
<text x="55" y="340" fill="#ffd60a" font-size="2" font-family="monospace" text-anchor="start" dominant-baseline="middle">MOSI2/D28</text>
<line x1="30" y1="360" x2="50" y2="360" stroke="#ffd60a" stroke-width="1.5" stroke-linecap="round"/>
<text x="55" y="360" fill="#ffd60a" font-size="2" font-family="monospace" text-anchor="start" dominant-baseline="middle">MISO2/D29</text>
<line x1="30" y1="380" x2="50" y2="380" stroke="#ffd60a" stroke-width="1.5" stroke-linecap="round"/>
<text x="55" y="380" fill="#ffd60a" font-size="2" font-family="monospace" text-anchor="start" dominant-baseline="middle">SCK2/D30</text>
<line x1="30" y1="400" x2="50" y2="400" stroke="#ffd60a" stroke-width="1.5" stroke-linecap="round"/>
<text x="55" y="400" fill="#ffd60a" font-size="2" font-family="monospace" text-anchor="start" dominant-baseline="middle">SS2/D31</text>
<line x1="150" y1="60" x2="130" y2="60" stroke="#ffd60a" stroke-width="1.5" stroke-linecap="round"/>
<text x="125" y="60" fill="#ffd60a" font-size="2" font-family="monospace" text-anchor="end" dominant-baseline="middle">D0/SDA2</text>
<line x1="150" y1="80" x2="130" y2="80" stroke="#ffd60a" stroke-width="1.5" stroke-linecap="round"/>
<text x="125" y="80" fill="#ffd60a" font-size="2" font-family="monospace" text-anchor="end" dominant-baseline="middle">D1/SCL2</text>
<line x1="150" y1="100" x2="130" y2="100" stroke="#ffd60a" stroke-width="1.5" stroke-linecap="round"/>
<text x="125" y="100" fill="#ffd60a" font-size="2" font-family="monospace" text-anchor="end" dominant-baseline="middle">D2</text>
<line x1="150" y1="120" x2="130" y2="120" stroke="#ffd60a" stroke-width="1.5" stroke-linecap="round"/>
<text x="125" y="120" fill="#ffd60a" font-size="2" font-family="monospace" text-anchor="end" dominant-baseline="middle">D3</text>
<line x1="150" y1="140" x2="130" y2="140" stroke="#ffd60a" stroke-width="1.5" stroke-linecap="round"/>
<text x="125" y="140" fill="#ffd60a" font-size="2" font-family="monospace" text-anchor="end" dominant-baseline="middle">D4/MOSI1</text>
<line x1="150" y1="160" x2="130" y2="160" stroke="#ffd60a" stroke-width="1.5" stroke-linecap="round"/>
<text x="125" y="160" fill="#ffd60a" font-size="2" font-family="monospace" text-anchor="end" dominant-baseline="middle">D5/MISO1</text>
<line x1="150" y1="180" x2="130" y2="180" stroke="#ffd60a" stroke-width="1.5" stroke-linecap="round"/>
<text x="125" y="180" fill="#ffd60a" font-size="2" font-family="monospace" text-anchor="end" dominant-baseline="middle">D6/SCK1</text>
<line x1="150" y1="200" x2="130" y2="200" stroke="#ffd60a" stroke-width="1.5" stroke-linecap="round"/>
<text x="125" y="200" fill="#ffd60a" font-size="2" font-family="monospace" text-anchor="end" dominant-baseline="middle">D7/SS1</text>
<line x1="150" y1="220" x2="130" y2="220" stroke="#ffd60a" stroke-width="1.5" stroke-linecap="round"/>
<text x="125" y="220" fill="#ffd60a" font-size="2" font-family="monospace" text-anchor="end" dominant-baseline="middle">D8/RX2</text>
<line x1="150" y1="240" x2="130" y2="240" stroke="#ffd60a" stroke-width="1.5" stroke-linecap="round"/>
<text x="125" y="240" fill="#ffd60a" font-size="2" font-family="monospace" text-anchor="end" dominant-baseline="middle">D9/TX2</text>
<line x1="150" y1="260" x2="130" y2="260" stroke="#ffd60a" stroke-width="1.5" stroke-linecap="round"/>
<text x="125" y="260" fill="#ffd60a" font-size="2" font-family="monospace" text-anchor="end" dominant-baseline="middle">D10</text>
<line x1="150" y1="280" x2="130" y2="280" stroke="#ffd60a" stroke-width="1.5" stroke-linecap="round"/>
<text x="125" y="280" fill="#ffd60a" font-size="2" font-family="monospace" text-anchor="end" dominant-baseline="middle">D11</text>
<line x1="150" y1="300" x2="130" y2="300" stroke="#ffd60a" stroke-width="1.5" stroke-linecap="round"/>
<text x="125" y="300" fill="#ffd60a" font-size="2" font-family="monospace" text-anchor="end" dominant-baseline="middle">~{RESET}</text>
<line x1="150" y1="320" x2="130" y2="320" stroke="#ffd60a" stroke-width="1.5" stroke-linecap="round"/>
<text x="125" y="320" fill="#ffd60a" font-size="2" font-family="monospace" text-anchor="end" dominant-baseline="middle">D12</text>
<line x1="150" y1="340" x2="130" y2="340" stroke="#ffd60a" stroke-width="1.5" stroke-linecap="round"/>
<text x="125" y="340" fill="#ffd60a" font-size="2" font-family="monospace" text-anchor="end" dominant-baseline="middle">D13</text>
<line x1="150" y1="360" x2="130" y2="360" stroke="#ffd60a" stroke-width="1.5" stroke-linecap="round"/>
<text x="125" y="360" fill="#ffd60a" font-size="2" font-family="monospace" text-anchor="end" dominant-baseline="middle">D14</text>
<line x1="150" y1="380" x2="130" y2="380" stroke="#ffd60a" stroke-width="1.5" stroke-linecap="round"/>
<text x="125" y="380" fill="#ffd60a" font-size="2" font-family="monospace" text-anchor="end" dominant-baseline="middle">AV-</text>
<line x1="150" y1="400" x2="130" y2="400" stroke="#ffd60a" stroke-width="1.5" stroke-linecap="round"/>
<text x="125" y="400" fill="#ffd60a" font-size="2" font-family="monospace" text-anchor="end" dominant-baseline="middle">AV+</text>
<line x1="90" y1="30" x2="90" y2="50" stroke="#ffd60a" stroke-width="1.5" stroke-linecap="round"/>
<text x="90" y="25" fill="#ffd60a" font-size="2" font-family="monospace" text-anchor="middle" dominant-baseline="middle">GND</text>
<line x1="63.33333333333333" y1="430" x2="63.33333333333333" y2="410" stroke="#ffd60a" stroke-width="1.5" stroke-linecap="round"/>
<text x="63.33333333333333" y="444" fill="#ffd60a" font-size="2" font-family="monospace" text-anchor="middle" dominant-baseline="middle">VCC</text>
<line x1="90" y1="430" x2="90" y2="410" stroke="#ffd60a" stroke-width="1.5" stroke-linecap="round"/>
<text x="90" y="444" fill="#ffd60a" font-size="2" font-family="monospace" text-anchor="middle" dominant-baseline="middle">VIN</text>
<line x1="116.66666666666667" y1="430" x2="116.66666666666667" y2="410" stroke="#ffd60a" stroke-width="1.5" stroke-linecap="round"/>
<text x="116.66666666666667" y="444" fill="#ffd60a" font-size="2" font-family="monospace" text-anchor="middle" dominant-baseline="middle">VBAT</text>
</svg>