<svg xmlns="http://www.w3.org/2000/svg" viewBox="0 0 24.16 29.240000000000002">
<rect x="7" y="22.240000000000002" width="10.16" height="15.24" stroke="#ffffff" stroke-width="0.3" fill="rgba(255,255,255,0.06)"/>
<circle cx="10.175" cy="15.255" r="0.3556" stroke="#ffffff" stroke-width="0.3" fill="#ffffff"/>
<polyline points="10.175,15.255 9.54,15.255 9.54,17.16 8.905000000000001,17.16" stroke="#ffffff" stroke-width="0.3" stroke-linejoin="round" stroke-linecap="round" fill="none"/>
<rect x="10.556000000000001" y="13.985000000000001" width="0" height="0" stroke="#ffffff" stroke-width="0.3" fill="none"/>
<polyline points="10.556000000000001,13.985000000000001 9.54,13.985000000000001 9.54,12.080000000000002 8.905000000000001,12.080000000000002" stroke="#ffffff" stroke-width="0.3" stroke-linejoin="round" stroke-linecap="round" fill="none"/>
<polyline points="13.096,14.620000000000001 10.556000000000001,13.350000000000001 10.556000000000001,15.89 13.096,14.620000000000001" stroke="#ffffff" stroke-width="0.3" stroke-linejoin="round" stroke-linecap="round" fill="none"/>
<line x1="13.858" y1="14.620000000000001" x2="13.096" y2="14.620000000000001" stroke="#ffffff" stroke-width="0.3" stroke-linecap="round" fill="none"/>
<line x1="12.08" y1="4.460000000000001" x2="12.08" y2="7.000000000000001" stroke="#ffd60a" stroke-width="0.41771428571428576" stroke-linecap="round"/>
<text x="12.08" y="4" fill="#ffd60a" font-size="1" font-family="monospace" text-anchor="middle" dominant-baseline="middle">VCC</text>
<line x1="12.08" y1="24.78" x2="12.08" y2="22.240000000000002" stroke="#ffd60a" stroke-width="0.41771428571428576" stroke-linecap="round"/>
<text x="12.08" y="25.240000000000002" fill="#ffd60a" font-size="1" font-family="monospace" text-anchor="middle" dominant-baseline="middle">GND</text>
<line x1="19.7" y1="14.620000000000001" x2="17.16" y2="14.620000000000001" stroke="#ffd60a" stroke-width="0.41771428571428576" stroke-linecap="round"/>
<text x="20.16" y="14.620000000000001" fill="#ffd60a" font-size="1" font-family="monospace" text-anchor="end" dominant-baseline="middle">RO</text>
<line x1="4.46" y1="17.16" x2="7" y2="17.16" stroke="#ffd60a" stroke-width="0.41771428571428576" stroke-linecap="round"/>
<text x="4" y="17.16" fill="#ffd60a" font-size="1" font-family="monospace" text-anchor="start" dominant-baseline="middle">B</text>
<line x1="14.620000000000001" y1="4.460000000000001" x2="14.62" y2="7.000000000000001" stroke="#ffd60a" stroke-width="0.41771428571428576" stroke-linecap="round"/>
<text x="14.620000000000001" y="4" fill="#ffd60a" font-size="1" font-family="monospace" text-anchor="middle" dominant-baseline="middle">VL</text>
<line x1="4.46" y1="12.080000000000002" x2="7" y2="12.080000000000002" stroke="#ffd60a" stroke-width="0.41771428571428576" stroke-linecap="round"/>
<text x="4" y="12.080000000000002" fill="#ffd60a" font-size="1" font-family="monospace" text-anchor="start" dominant-baseline="middle">A</text>
</svg>