<svg xmlns="http://www.w3.org/2000/svg" viewBox="0 0 180 340">
<rect x="50" y="50" width="80" height="240" stroke="#ffffff" stroke-width="1.5" fill="rgba(255,255,255,0.04)"/>
<text x="90" y="170" fill="#888" font-size="3" font-family="monospace" text-anchor="middle" dominant-baseline="middle">IC</text>
<line x1="30" y1="60" x2="50" y2="60" stroke="#ffd60a" stroke-width="1.5" stroke-linecap="round"/>
<text x="55" y="60" fill="#ffd60a" font-size="2" font-family="monospace" text-anchor="start" dominant-baseline="middle">PTB5</text>
<line x1="30" y1="80" x2="50" y2="80" stroke="#ffd60a" stroke-width="1.5" stroke-linecap="round"/>
<text x="55" y="80" fill="#ffd60a" font-size="2" font-family="monospace" text-anchor="start" dominant-baseline="middle">PTB4</text>
<line x1="30" y1="100" x2="50" y2="100" stroke="#ffd60a" stroke-width="1.5" stroke-linecap="round"/>
<text x="55" y="100" fill="#ffd60a" font-size="2" font-family="monospace" text-anchor="start" dominant-baseline="middle">PTB3</text>
<line x1="30" y1="120" x2="50" y2="120" stroke="#ffd60a" stroke-width="1.5" stroke-linecap="round"/>
<text x="55" y="120" fill="#ffd60a" font-size="2" font-family="monospace" text-anchor="start" dominant-baseline="middle">PTB2</text>
<line x1="30" y1="140" x2="50" y2="140" stroke="#ffd60a" stroke-width="1.5" stroke-linecap="round"/>
<text x="55" y="140" fill="#ffd60a" font-size="2" font-family="monospace" text-anchor="start" dominant-baseline="middle">PTB1</text>
<line x1="30" y1="160" x2="50" y2="160" stroke="#ffd60a" stroke-width="1.5" stroke-linecap="round"/>
<text x="55" y="160" fill="#ffd60a" font-size="2" font-family="monospace" text-anchor="start" dominant-baseline="middle">PTB0</text>
<line x1="30" y1="180" x2="50" y2="180" stroke="#ffd60a" stroke-width="1.5" stroke-linecap="round"/>
<text x="55" y="180" fill="#ffd60a" font-size="2" font-family="monospace" text-anchor="start" dominant-baseline="middle">PTA7</text>
<line x1="30" y1="200" x2="50" y2="200" stroke="#ffd60a" stroke-width="1.5" stroke-linecap="round"/>
<text x="55" y="200" fill="#ffd60a" font-size="2" font-family="monospace" text-anchor="start" dominant-baseline="middle">PTA6</text>
<line x1="30" y1="220" x2="50" y2="220" stroke="#ffd60a" stroke-width="1.5" stroke-linecap="round"/>
<text x="55" y="220" fill="#ffd60a" font-size="2" font-family="monospace" text-anchor="start" dominant-baseline="middle">PTA3</text>
<line x1="30" y1="240" x2="50" y2="240" stroke="#ffd60a" stroke-width="1.5" stroke-linecap="round"/>
<text x="55" y="240" fill="#ffd60a" font-size="2" font-family="monospace" text-anchor="start" dominant-baseline="middle">PTA2</text>
<line x1="30" y1="260" x2="50" y2="260" stroke="#ffd60a" stroke-width="1.5" stroke-linecap="round"/>
<text x="55" y="260" fill="#ffd60a" font-size="2" font-family="monospace" text-anchor="start" dominant-baseline="middle">PTA1</text>
<line x1="30" y1="280" x2="50" y2="280" stroke="#ffd60a" stroke-width="1.5" stroke-linecap="round"/>
<text x="55" y="280" fill="#ffd60a" font-size="2" font-family="monospace" text-anchor="start" dominant-baseline="middle">PTA0</text>
<line x1="150" y1="60" x2="130" y2="60" stroke="#ffd60a" stroke-width="1.5" stroke-linecap="round"/>
<text x="125" y="60" fill="#ffd60a" font-size="2" font-family="monospace" text-anchor="end" dominant-baseline="middle">PTC5</text>
<line x1="150" y1="80" x2="130" y2="80" stroke="#ffd60a" stroke-width="1.5" stroke-linecap="round"/>
<text x="125" y="80" fill="#ffd60a" font-size="2" font-family="monospace" text-anchor="end" dominant-baseline="middle">PTC4</text>
<line x1="150" y1="100" x2="130" y2="100" stroke="#ffd60a" stroke-width="1.5" stroke-linecap="round"/>
<text x="125" y="100" fill="#ffd60a" font-size="2" font-family="monospace" text-anchor="end" dominant-baseline="middle">PTA5/~{RESET}</text>
<line x1="150" y1="120" x2="130" y2="120" stroke="#ffd60a" stroke-width="1.5" stroke-linecap="round"/>
<text x="125" y="120" fill="#ffd60a" font-size="2" font-family="monospace" text-anchor="end" dominant-baseline="middle">PTA4/BKGD/MS</text>
<line x1="150" y1="140" x2="130" y2="140" stroke="#ffd60a" stroke-width="1.5" stroke-linecap="round"/>
<text x="125" y="140" fill="#ffd60a" font-size="2" font-family="monospace" text-anchor="end" dominant-baseline="middle">PTB7/EXTAL</text>
<line x1="150" y1="160" x2="130" y2="160" stroke="#ffd60a" stroke-width="1.5" stroke-linecap="round"/>
<text x="125" y="160" fill="#ffd60a" font-size="2" font-family="monospace" text-anchor="end" dominant-baseline="middle">PTB6/XTAL</text>
<line x1="150" y1="180" x2="130" y2="180" stroke="#ffd60a" stroke-width="1.5" stroke-linecap="round"/>
<text x="125" y="180" fill="#ffd60a" font-size="2" font-family="monospace" text-anchor="end" dominant-baseline="middle">PTC3</text>
<line x1="150" y1="200" x2="130" y2="200" stroke="#ffd60a" stroke-width="1.5" stroke-linecap="round"/>
<text x="125" y="200" fill="#ffd60a" font-size="2" font-family="monospace" text-anchor="end" dominant-baseline="middle">PTC2</text>
<line x1="150" y1="220" x2="130" y2="220" stroke="#ffd60a" stroke-width="1.5" stroke-linecap="round"/>
<text x="125" y="220" fill="#ffd60a" font-size="2" font-family="monospace" text-anchor="end" dominant-baseline="middle">PTC1</text>
<line x1="150" y1="240" x2="130" y2="240" stroke="#ffd60a" stroke-width="1.5" stroke-linecap="round"/>
<text x="125" y="240" fill="#ffd60a" font-size="2" font-family="monospace" text-anchor="end" dominant-baseline="middle">PTC0</text>
<line x1="150" y1="260" x2="130" y2="260" stroke="#ffd60a" stroke-width="1.5" stroke-linecap="round"/>
<text x="125" y="260" fill="#ffd60a" font-size="2" font-family="monospace" text-anchor="end" dominant-baseline="middle">PTC7</text>
<line x1="150" y1="280" x2="130" y2="280" stroke="#ffd60a" stroke-width="1.5" stroke-linecap="round"/>
<text x="125" y="280" fill="#ffd60a" font-size="2" font-family="monospace" text-anchor="end" dominant-baseline="middle">PTC6</text>
<line x1="70" y1="30" x2="70" y2="50" stroke="#ffd60a" stroke-width="1.5" stroke-linecap="round"/>
<text x="70" y="25" fill="#ffd60a" font-size="2" font-family="monospace" text-anchor="middle" dominant-baseline="middle">VSSA/VREFL</text>
<line x1="110" y1="30" x2="110" y2="50" stroke="#ffd60a" stroke-width="1.5" stroke-linecap="round"/>
<text x="110" y="25" fill="#ffd60a" font-size="2" font-family="monospace" text-anchor="middle" dominant-baseline="middle">VSS</text>
<line x1="70" y1="310" x2="70" y2="290" stroke="#ffd60a" stroke-width="1.5" stroke-linecap="round"/>
<text x="70" y="324" fill="#ffd60a" font-size="2" font-family="monospace" text-anchor="middle" dominant-baseline="middle">VDD</text>
<line x1="110" y1="310" x2="110" y2="290" stroke="#ffd60a" stroke-width="1.5" stroke-linecap="round"/>
<text x="110" y="324" fill="#ffd60a" font-size="2" font-family="monospace" text-anchor="middle" dominant-baseline="middle">VDDA/VREFH</text>
</svg>