<svg xmlns="http://www.w3.org/2000/svg" viewBox="0 0 300 220">
<rect x="50" y="50" width="200" height="120" stroke="#ffffff" stroke-width="1.5" fill="rgba(255,255,255,0.04)"/>
<text x="150" y="110" fill="#888" font-size="3" font-family="monospace" text-anchor="middle" dominant-baseline="middle">U</text>
<line x1="30" y1="70" x2="50" y2="70" stroke="#ffd60a" stroke-width="1.5" stroke-linecap="round"/>
<text x="55" y="70" fill="#ffd60a" font-size="2" font-family="monospace" text-anchor="start" dominant-baseline="middle">P0B</text>
<line x1="30" y1="110" x2="50" y2="110" stroke="#ffd60a" stroke-width="1.5" stroke-linecap="round"/>
<text x="55" y="110" fill="#ffd60a" font-size="2" font-family="monospace" text-anchor="start" dominant-baseline="middle">P0W</text>
<line x1="30" y1="150" x2="50" y2="150" stroke="#ffd60a" stroke-width="1.5" stroke-linecap="round"/>
<text x="55" y="150" fill="#ffd60a" font-size="2" font-family="monospace" text-anchor="start" dominant-baseline="middle">P0A</text>
<line x1="270" y1="60" x2="250" y2="60" stroke="#ffd60a" stroke-width="1.5" stroke-linecap="round"/>
<text x="245" y="60" fill="#ffd60a" font-size="2" font-family="monospace" text-anchor="end" dominant-baseline="middle">SCL</text>
<line x1="270" y1="80" x2="250" y2="80" stroke="#ffd60a" stroke-width="1.5" stroke-linecap="round"/>
<text x="245" y="80" fill="#ffd60a" font-size="2" font-family="monospace" text-anchor="end" dominant-baseline="middle">A1</text>
<line x1="270" y1="100" x2="250" y2="100" stroke="#ffd60a" stroke-width="1.5" stroke-linecap="round"/>
<text x="245" y="100" fill="#ffd60a" font-size="2" font-family="monospace" text-anchor="end" dominant-baseline="middle">SDA</text>
<line x1="270" y1="120" x2="250" y2="120" stroke="#ffd60a" stroke-width="1.5" stroke-linecap="round"/>
<text x="245" y="120" fill="#ffd60a" font-size="2" font-family="monospace" text-anchor="end" dominant-baseline="middle">A0</text>
<line x1="270" y1="140" x2="250" y2="140" stroke="#ffd60a" stroke-width="1.5" stroke-linecap="round"/>
<text x="245" y="140" fill="#ffd60a" font-size="2" font-family="monospace" text-anchor="end" dominant-baseline="middle">~{WLAT}</text>
<line x1="270" y1="160" x2="250" y2="160" stroke="#ffd60a" stroke-width="1.5" stroke-linecap="round"/>
<text x="245" y="160" fill="#ffd60a" font-size="2" font-family="monospace" text-anchor="end" dominant-baseline="middle">~{SHDN}</text>
<line x1="60" y1="30" x2="60" y2="50" stroke="#ffd60a" stroke-width="1.5" stroke-linecap="round"/>
<text x="60" y="25" fill="#ffd60a" font-size="2" font-family="monospace" text-anchor="middle" dominant-baseline="middle">NC</text>
<line x1="80" y1="30" x2="80" y2="50" stroke="#ffd60a" stroke-width="1.5" stroke-linecap="round"/>
<text x="80" y="25" fill="#ffd60a" font-size="2" font-family="monospace" text-anchor="middle" dominant-baseline="middle">NC</text>
<line x1="100" y1="30" x2="100" y2="50" stroke="#ffd60a" stroke-width="1.5" stroke-linecap="round"/>
<text x="100" y="25" fill="#ffd60a" font-size="2" font-family="monospace" text-anchor="middle" dominant-baseline="middle">NC</text>
<line x1="120" y1="30" x2="120" y2="50" stroke="#ffd60a" stroke-width="1.5" stroke-linecap="round"/>
<text x="120" y="25" fill="#ffd60a" font-size="2" font-family="monospace" text-anchor="middle" dominant-baseline="middle">DGND</text>
<line x1="140" y1="30" x2="140" y2="50" stroke="#ffd60a" stroke-width="1.5" stroke-linecap="round"/>
<text x="140" y="25" fill="#ffd60a" font-size="2" font-family="monospace" text-anchor="middle" dominant-baseline="middle">V-</text>
<line x1="160" y1="30" x2="160" y2="50" stroke="#ffd60a" stroke-width="1.5" stroke-linecap="round"/>
<text x="160" y="25" fill="#ffd60a" font-size="2" font-family="monospace" text-anchor="middle" dominant-baseline="middle">NC</text>
<line x1="180" y1="30" x2="180" y2="50" stroke="#ffd60a" stroke-width="1.5" stroke-linecap="round"/>
<text x="180" y="25" fill="#ffd60a" font-size="2" font-family="monospace" text-anchor="middle" dominant-baseline="middle">NC</text>
<line x1="200" y1="30" x2="200" y2="50" stroke="#ffd60a" stroke-width="1.5" stroke-linecap="round"/>
<text x="200" y="25" fill="#ffd60a" font-size="2" font-family="monospace" text-anchor="middle" dominant-baseline="middle">NC</text>
<line x1="220" y1="30" x2="220" y2="50" stroke="#ffd60a" stroke-width="1.5" stroke-linecap="round"/>
<text x="220" y="25" fill="#ffd60a" font-size="2" font-family="monospace" text-anchor="middle" dominant-baseline="middle">NC</text>
<line x1="240" y1="30" x2="240" y2="50" stroke="#ffd60a" stroke-width="1.5" stroke-linecap="round"/>
<text x="240" y="25" fill="#ffd60a" font-size="2" font-family="monospace" text-anchor="middle" dominant-baseline="middle">EP</text>
<line x1="100" y1="190" x2="100" y2="170" stroke="#ffd60a" stroke-width="1.5" stroke-linecap="round"/>
<text x="100" y="204" fill="#ffd60a" font-size="2" font-family="monospace" text-anchor="middle" dominant-baseline="middle">VL</text>
<line x1="200" y1="190" x2="200" y2="170" stroke="#ffd60a" stroke-width="1.5" stroke-linecap="round"/>
<text x="200" y="204" fill="#ffd60a" font-size="2" font-family="monospace" text-anchor="middle" dominant-baseline="middle">V+</text>
</svg>