<svg xmlns="http://www.w3.org/2000/svg" viewBox="0 0 220 880">
<rect x="50" y="50" width="120" height="780" stroke="#ffffff" stroke-width="1.5" fill="rgba(255,255,255,0.04)"/>
<text x="110" y="440" fill="#888" font-size="3" font-family="monospace" text-anchor="middle" dominant-baseline="middle">U</text>
<line x1="30" y1="60" x2="50" y2="60" stroke="#ffd60a" stroke-width="1.5" stroke-linecap="round"/>
<text x="55" y="60" fill="#ffd60a" font-size="2" font-family="monospace" text-anchor="start" dominant-baseline="middle">PTE0</text>
<line x1="30" y1="80" x2="50" y2="80" stroke="#ffd60a" stroke-width="1.5" stroke-linecap="round"/>
<text x="55" y="80" fill="#ffd60a" font-size="2" font-family="monospace" text-anchor="start" dominant-baseline="middle">PTE1</text>
<line x1="30" y1="100" x2="50" y2="100" stroke="#ffd60a" stroke-width="1.5" stroke-linecap="round"/>
<text x="55" y="100" fill="#ffd60a" font-size="2" font-family="monospace" text-anchor="start" dominant-baseline="middle">PTE2</text>
<line x1="30" y1="120" x2="50" y2="120" stroke="#ffd60a" stroke-width="1.5" stroke-linecap="round"/>
<text x="55" y="120" fill="#ffd60a" font-size="2" font-family="monospace" text-anchor="start" dominant-baseline="middle">PTE3</text>
<line x1="30" y1="140" x2="50" y2="140" stroke="#ffd60a" stroke-width="1.5" stroke-linecap="round"/>
<text x="55" y="140" fill="#ffd60a" font-size="2" font-family="monospace" text-anchor="start" dominant-baseline="middle">PTE4</text>
<line x1="30" y1="160" x2="50" y2="160" stroke="#ffd60a" stroke-width="1.5" stroke-linecap="round"/>
<text x="55" y="160" fill="#ffd60a" font-size="2" font-family="monospace" text-anchor="start" dominant-baseline="middle">PTE5</text>
<line x1="30" y1="180" x2="50" y2="180" stroke="#ffd60a" stroke-width="1.5" stroke-linecap="round"/>
<text x="55" y="180" fill="#ffd60a" font-size="2" font-family="monospace" text-anchor="start" dominant-baseline="middle">PTE20</text>
<line x1="30" y1="200" x2="50" y2="200" stroke="#ffd60a" stroke-width="1.5" stroke-linecap="round"/>
<text x="55" y="200" fill="#ffd60a" font-size="2" font-family="monospace" text-anchor="start" dominant-baseline="middle">PTE21</text>
<line x1="30" y1="220" x2="50" y2="220" stroke="#ffd60a" stroke-width="1.5" stroke-linecap="round"/>
<text x="55" y="220" fill="#ffd60a" font-size="2" font-family="monospace" text-anchor="start" dominant-baseline="middle">PTE22</text>
<line x1="30" y1="240" x2="50" y2="240" stroke="#ffd60a" stroke-width="1.5" stroke-linecap="round"/>
<text x="55" y="240" fill="#ffd60a" font-size="2" font-family="monospace" text-anchor="start" dominant-baseline="middle">PTE23</text>
<line x1="30" y1="260" x2="50" y2="260" stroke="#ffd60a" stroke-width="1.5" stroke-linecap="round"/>
<text x="55" y="260" fill="#ffd60a" font-size="2" font-family="monospace" text-anchor="start" dominant-baseline="middle">PTE29</text>
<line x1="30" y1="280" x2="50" y2="280" stroke="#ffd60a" stroke-width="1.5" stroke-linecap="round"/>
<text x="55" y="280" fill="#ffd60a" font-size="2" font-family="monospace" text-anchor="start" dominant-baseline="middle">PTE30</text>
<line x1="30" y1="300" x2="50" y2="300" stroke="#ffd60a" stroke-width="1.5" stroke-linecap="round"/>
<text x="55" y="300" fill="#ffd60a" font-size="2" font-family="monospace" text-anchor="start" dominant-baseline="middle">PTE31</text>
<line x1="30" y1="320" x2="50" y2="320" stroke="#ffd60a" stroke-width="1.5" stroke-linecap="round"/>
<text x="55" y="320" fill="#ffd60a" font-size="2" font-family="monospace" text-anchor="start" dominant-baseline="middle">PTE24</text>
<line x1="30" y1="340" x2="50" y2="340" stroke="#ffd60a" stroke-width="1.5" stroke-linecap="round"/>
<text x="55" y="340" fill="#ffd60a" font-size="2" font-family="monospace" text-anchor="start" dominant-baseline="middle">PTE25</text>
<line x1="30" y1="360" x2="50" y2="360" stroke="#ffd60a" stroke-width="1.5" stroke-linecap="round"/>
<text x="55" y="360" fill="#ffd60a" font-size="2" font-family="monospace" text-anchor="start" dominant-baseline="middle">PTC0</text>
<line x1="30" y1="380" x2="50" y2="380" stroke="#ffd60a" stroke-width="1.5" stroke-linecap="round"/>
<text x="55" y="380" fill="#ffd60a" font-size="2" font-family="monospace" text-anchor="start" dominant-baseline="middle">PTC1/LLWU_P6/RTC_CLKIN</text>
<line x1="30" y1="400" x2="50" y2="400" stroke="#ffd60a" stroke-width="1.5" stroke-linecap="round"/>
<text x="55" y="400" fill="#ffd60a" font-size="2" font-family="monospace" text-anchor="start" dominant-baseline="middle">PTC2</text>
<line x1="30" y1="420" x2="50" y2="420" stroke="#ffd60a" stroke-width="1.5" stroke-linecap="round"/>
<text x="55" y="420" fill="#ffd60a" font-size="2" font-family="monospace" text-anchor="start" dominant-baseline="middle">PTC3/LLWU_P7</text>
<line x1="30" y1="440" x2="50" y2="440" stroke="#ffd60a" stroke-width="1.5" stroke-linecap="round"/>
<text x="55" y="440" fill="#ffd60a" font-size="2" font-family="monospace" text-anchor="start" dominant-baseline="middle">PTC4/LLWU_P8</text>
<line x1="30" y1="460" x2="50" y2="460" stroke="#ffd60a" stroke-width="1.5" stroke-linecap="round"/>
<text x="55" y="460" fill="#ffd60a" font-size="2" font-family="monospace" text-anchor="start" dominant-baseline="middle">PTC5/LLWU_P9</text>
<line x1="30" y1="480.00000000000006" x2="50" y2="480.00000000000006" stroke="#ffd60a" stroke-width="1.5" stroke-linecap="round"/>
<text x="55" y="480.00000000000006" fill="#ffd60a" font-size="2" font-family="monospace" text-anchor="start" dominant-baseline="middle">PTC6/LLWU_P10</text>
<line x1="30" y1="499.99999999999994" x2="50" y2="499.99999999999994" stroke="#ffd60a" stroke-width="1.5" stroke-linecap="round"/>
<text x="55" y="499.99999999999994" fill="#ffd60a" font-size="2" font-family="monospace" text-anchor="start" dominant-baseline="middle">PTC7</text>
<line x1="30" y1="520" x2="50" y2="520" stroke="#ffd60a" stroke-width="1.5" stroke-linecap="round"/>
<text x="55" y="520" fill="#ffd60a" font-size="2" font-family="monospace" text-anchor="start" dominant-baseline="middle">PTC8</text>
<line x1="30" y1="540" x2="50" y2="540" stroke="#ffd60a" stroke-width="1.5" stroke-linecap="round"/>
<text x="55" y="540" fill="#ffd60a" font-size="2" font-family="monospace" text-anchor="start" dominant-baseline="middle">PTC9</text>
<line x1="30" y1="560" x2="50" y2="560" stroke="#ffd60a" stroke-width="1.5" stroke-linecap="round"/>
<text x="55" y="560" fill="#ffd60a" font-size="2" font-family="monospace" text-anchor="start" dominant-baseline="middle">PTC10</text>
<line x1="30" y1="580" x2="50" y2="580" stroke="#ffd60a" stroke-width="1.5" stroke-linecap="round"/>
<text x="55" y="580" fill="#ffd60a" font-size="2" font-family="monospace" text-anchor="start" dominant-baseline="middle">PTC11</text>
<line x1="30" y1="600" x2="50" y2="600" stroke="#ffd60a" stroke-width="1.5" stroke-linecap="round"/>
<text x="55" y="600" fill="#ffd60a" font-size="2" font-family="monospace" text-anchor="start" dominant-baseline="middle">PTC12</text>
<line x1="30" y1="620" x2="50" y2="620" stroke="#ffd60a" stroke-width="1.5" stroke-linecap="round"/>
<text x="55" y="620" fill="#ffd60a" font-size="2" font-family="monospace" text-anchor="start" dominant-baseline="middle">PTC13</text>
<line x1="30" y1="640" x2="50" y2="640" stroke="#ffd60a" stroke-width="1.5" stroke-linecap="round"/>
<text x="55" y="640" fill="#ffd60a" font-size="2" font-family="monospace" text-anchor="start" dominant-baseline="middle">PTC16</text>
<line x1="30" y1="660" x2="50" y2="660" stroke="#ffd60a" stroke-width="1.5" stroke-linecap="round"/>
<text x="55" y="660" fill="#ffd60a" font-size="2" font-family="monospace" text-anchor="start" dominant-baseline="middle">PTC17</text>
<line x1="30" y1="680" x2="50" y2="680" stroke="#ffd60a" stroke-width="1.5" stroke-linecap="round"/>
<text x="55" y="680" fill="#ffd60a" font-size="2" font-family="monospace" text-anchor="start" dominant-baseline="middle">PTD0</text>
<line x1="30" y1="700" x2="50" y2="700" stroke="#ffd60a" stroke-width="1.5" stroke-linecap="round"/>
<text x="55" y="700" fill="#ffd60a" font-size="2" font-family="monospace" text-anchor="start" dominant-baseline="middle">PTD1</text>
<line x1="30" y1="720" x2="50" y2="720" stroke="#ffd60a" stroke-width="1.5" stroke-linecap="round"/>
<text x="55" y="720" fill="#ffd60a" font-size="2" font-family="monospace" text-anchor="start" dominant-baseline="middle">PTD2</text>
<line x1="30" y1="740" x2="50" y2="740" stroke="#ffd60a" stroke-width="1.5" stroke-linecap="round"/>
<text x="55" y="740" fill="#ffd60a" font-size="2" font-family="monospace" text-anchor="start" dominant-baseline="middle">PTD3</text>
<line x1="30" y1="760" x2="50" y2="760" stroke="#ffd60a" stroke-width="1.5" stroke-linecap="round"/>
<text x="55" y="760" fill="#ffd60a" font-size="2" font-family="monospace" text-anchor="start" dominant-baseline="middle">PTD4/LLWU_P14</text>
<line x1="30" y1="780" x2="50" y2="780" stroke="#ffd60a" stroke-width="1.5" stroke-linecap="round"/>
<text x="55" y="780" fill="#ffd60a" font-size="2" font-family="monospace" text-anchor="start" dominant-baseline="middle">PTD5</text>
<line x1="30" y1="800" x2="50" y2="800" stroke="#ffd60a" stroke-width="1.5" stroke-linecap="round"/>
<text x="55" y="800" fill="#ffd60a" font-size="2" font-family="monospace" text-anchor="start" dominant-baseline="middle">PTD6/LLWU_P15</text>
<line x1="30" y1="820" x2="50" y2="820" stroke="#ffd60a" stroke-width="1.5" stroke-linecap="round"/>
<text x="55" y="820" fill="#ffd60a" font-size="2" font-family="monospace" text-anchor="start" dominant-baseline="middle">PTD7</text>
<line x1="190" y1="63" x2="170" y2="63" stroke="#ffd60a" stroke-width="1.5" stroke-linecap="round"/>
<text x="165" y="63" fill="#ffd60a" font-size="2" font-family="monospace" text-anchor="end" dominant-baseline="middle">USB0_DP</text>
<line x1="190" y1="89" x2="170" y2="89" stroke="#ffd60a" stroke-width="1.5" stroke-linecap="round"/>
<text x="165" y="89" fill="#ffd60a" font-size="2" font-family="monospace" text-anchor="end" dominant-baseline="middle">USB0_DM</text>
<line x1="190" y1="115" x2="170" y2="115" stroke="#ffd60a" stroke-width="1.5" stroke-linecap="round"/>
<text x="165" y="115" fill="#ffd60a" font-size="2" font-family="monospace" text-anchor="end" dominant-baseline="middle">VOUT33</text>
<line x1="190" y1="141" x2="170" y2="141" stroke="#ffd60a" stroke-width="1.5" stroke-linecap="round"/>
<text x="165" y="141" fill="#ffd60a" font-size="2" font-family="monospace" text-anchor="end" dominant-baseline="middle">PTA0</text>
<line x1="190" y1="167" x2="170" y2="167" stroke="#ffd60a" stroke-width="1.5" stroke-linecap="round"/>
<text x="165" y="167" fill="#ffd60a" font-size="2" font-family="monospace" text-anchor="end" dominant-baseline="middle">PTA1</text>
<line x1="190" y1="193" x2="170" y2="193" stroke="#ffd60a" stroke-width="1.5" stroke-linecap="round"/>
<text x="165" y="193" fill="#ffd60a" font-size="2" font-family="monospace" text-anchor="end" dominant-baseline="middle">PTA2</text>
<line x1="190" y1="219" x2="170" y2="219" stroke="#ffd60a" stroke-width="1.5" stroke-linecap="round"/>
<text x="165" y="219" fill="#ffd60a" font-size="2" font-family="monospace" text-anchor="end" dominant-baseline="middle">PTA3</text>
<line x1="190" y1="245" x2="170" y2="245" stroke="#ffd60a" stroke-width="1.5" stroke-linecap="round"/>
<text x="165" y="245" fill="#ffd60a" font-size="2" font-family="monospace" text-anchor="end" dominant-baseline="middle">PTA4</text>
<line x1="190" y1="271" x2="170" y2="271" stroke="#ffd60a" stroke-width="1.5" stroke-linecap="round"/>
<text x="165" y="271" fill="#ffd60a" font-size="2" font-family="monospace" text-anchor="end" dominant-baseline="middle">PTA5</text>
<line x1="190" y1="297" x2="170" y2="297" stroke="#ffd60a" stroke-width="1.5" stroke-linecap="round"/>
<text x="165" y="297" fill="#ffd60a" font-size="2" font-family="monospace" text-anchor="end" dominant-baseline="middle">PTA12</text>
<line x1="190" y1="323" x2="170" y2="323" stroke="#ffd60a" stroke-width="1.5" stroke-linecap="round"/>
<text x="165" y="323" fill="#ffd60a" font-size="2" font-family="monospace" text-anchor="end" dominant-baseline="middle">PTA13</text>
<line x1="190" y1="349" x2="170" y2="349" stroke="#ffd60a" stroke-width="1.5" stroke-linecap="round"/>
<text x="165" y="349" fill="#ffd60a" font-size="2" font-family="monospace" text-anchor="end" dominant-baseline="middle">PTA14</text>
<line x1="190" y1="375" x2="170" y2="375" stroke="#ffd60a" stroke-width="1.5" stroke-linecap="round"/>
<text x="165" y="375" fill="#ffd60a" font-size="2" font-family="monospace" text-anchor="end" dominant-baseline="middle">PTA15</text>
<line x1="190" y1="401" x2="170" y2="401" stroke="#ffd60a" stroke-width="1.5" stroke-linecap="round"/>
<text x="165" y="401" fill="#ffd60a" font-size="2" font-family="monospace" text-anchor="end" dominant-baseline="middle">PTA16</text>
<line x1="190" y1="427" x2="170" y2="427" stroke="#ffd60a" stroke-width="1.5" stroke-linecap="round"/>
<text x="165" y="427" fill="#ffd60a" font-size="2" font-family="monospace" text-anchor="end" dominant-baseline="middle">PTA17</text>
<line x1="190" y1="453.00000000000006" x2="170" y2="453.00000000000006" stroke="#ffd60a" stroke-width="1.5" stroke-linecap="round"/>
<text x="165" y="453.00000000000006" fill="#ffd60a" font-size="2" font-family="monospace" text-anchor="end" dominant-baseline="middle">PTA18</text>
<line x1="190" y1="479.00000000000006" x2="170" y2="479.00000000000006" stroke="#ffd60a" stroke-width="1.5" stroke-linecap="round"/>
<text x="165" y="479.00000000000006" fill="#ffd60a" font-size="2" font-family="monospace" text-anchor="end" dominant-baseline="middle">PTA19</text>
<line x1="190" y1="505.00000000000006" x2="170" y2="505.00000000000006" stroke="#ffd60a" stroke-width="1.5" stroke-linecap="round"/>
<text x="165" y="505.00000000000006" fill="#ffd60a" font-size="2" font-family="monospace" text-anchor="end" dominant-baseline="middle">PTA20</text>
<line x1="190" y1="531" x2="170" y2="531" stroke="#ffd60a" stroke-width="1.5" stroke-linecap="round"/>
<text x="165" y="531" fill="#ffd60a" font-size="2" font-family="monospace" text-anchor="end" dominant-baseline="middle">PTB0/LLWU_P5</text>
<line x1="190" y1="557" x2="170" y2="557" stroke="#ffd60a" stroke-width="1.5" stroke-linecap="round"/>
<text x="165" y="557" fill="#ffd60a" font-size="2" font-family="monospace" text-anchor="end" dominant-baseline="middle">PTB1</text>
<line x1="190" y1="583" x2="170" y2="583" stroke="#ffd60a" stroke-width="1.5" stroke-linecap="round"/>
<text x="165" y="583" fill="#ffd60a" font-size="2" font-family="monospace" text-anchor="end" dominant-baseline="middle">PTB2</text>
<line x1="190" y1="609" x2="170" y2="609" stroke="#ffd60a" stroke-width="1.5" stroke-linecap="round"/>
<text x="165" y="609" fill="#ffd60a" font-size="2" font-family="monospace" text-anchor="end" dominant-baseline="middle">PTB3</text>
<line x1="190" y1="635" x2="170" y2="635" stroke="#ffd60a" stroke-width="1.5" stroke-linecap="round"/>
<text x="165" y="635" fill="#ffd60a" font-size="2" font-family="monospace" text-anchor="end" dominant-baseline="middle">PTB8</text>
<line x1="190" y1="661" x2="170" y2="661" stroke="#ffd60a" stroke-width="1.5" stroke-linecap="round"/>
<text x="165" y="661" fill="#ffd60a" font-size="2" font-family="monospace" text-anchor="end" dominant-baseline="middle">PTB9</text>
<line x1="190" y1="687" x2="170" y2="687" stroke="#ffd60a" stroke-width="1.5" stroke-linecap="round"/>
<text x="165" y="687" fill="#ffd60a" font-size="2" font-family="monospace" text-anchor="end" dominant-baseline="middle">PTB10</text>
<line x1="190" y1="713" x2="170" y2="713" stroke="#ffd60a" stroke-width="1.5" stroke-linecap="round"/>
<text x="165" y="713" fill="#ffd60a" font-size="2" font-family="monospace" text-anchor="end" dominant-baseline="middle">PTB11</text>
<line x1="190" y1="739" x2="170" y2="739" stroke="#ffd60a" stroke-width="1.5" stroke-linecap="round"/>
<text x="165" y="739" fill="#ffd60a" font-size="2" font-family="monospace" text-anchor="end" dominant-baseline="middle">PTB16</text>
<line x1="190" y1="765" x2="170" y2="765" stroke="#ffd60a" stroke-width="1.5" stroke-linecap="round"/>
<text x="165" y="765" fill="#ffd60a" font-size="2" font-family="monospace" text-anchor="end" dominant-baseline="middle">PTB17</text>
<line x1="190" y1="791" x2="170" y2="791" stroke="#ffd60a" stroke-width="1.5" stroke-linecap="round"/>
<text x="165" y="791" fill="#ffd60a" font-size="2" font-family="monospace" text-anchor="end" dominant-baseline="middle">PTB18</text>
<line x1="190" y1="817" x2="170" y2="817" stroke="#ffd60a" stroke-width="1.5" stroke-linecap="round"/>
<text x="165" y="817" fill="#ffd60a" font-size="2" font-family="monospace" text-anchor="end" dominant-baseline="middle">PTB19</text>
<line x1="62" y1="30" x2="62" y2="50" stroke="#ffd60a" stroke-width="1.5" stroke-linecap="round"/>
<text x="62" y="25" fill="#ffd60a" font-size="2" font-family="monospace" text-anchor="middle" dominant-baseline="middle">VSS</text>
<line x1="86" y1="30" x2="86" y2="50" stroke="#ffd60a" stroke-width="1.5" stroke-linecap="round"/>
<text x="86" y="25" fill="#ffd60a" font-size="2" font-family="monospace" text-anchor="middle" dominant-baseline="middle">VREFL</text>
<line x1="110" y1="30" x2="110" y2="50" stroke="#ffd60a" stroke-width="1.5" stroke-linecap="round"/>
<text x="110" y="25" fill="#ffd60a" font-size="2" font-family="monospace" text-anchor="middle" dominant-baseline="middle">VSSA</text>
<line x1="134" y1="30" x2="134" y2="50" stroke="#ffd60a" stroke-width="1.5" stroke-linecap="round"/>
<text x="134" y="25" fill="#ffd60a" font-size="2" font-family="monospace" text-anchor="middle" dominant-baseline="middle">VSS</text>
<line x1="158" y1="30" x2="158" y2="50" stroke="#ffd60a" stroke-width="1.5" stroke-linecap="round"/>
<text x="158" y="25" fill="#ffd60a" font-size="2" font-family="monospace" text-anchor="middle" dominant-baseline="middle">VSS</text>
<line x1="60" y1="850" x2="60" y2="830" stroke="#ffd60a" stroke-width="1.5" stroke-linecap="round"/>
<text x="60" y="864" fill="#ffd60a" font-size="2" font-family="monospace" text-anchor="middle" dominant-baseline="middle">VDD</text>
<line x1="80" y1="850" x2="80" y2="830" stroke="#ffd60a" stroke-width="1.5" stroke-linecap="round"/>
<text x="80" y="864" fill="#ffd60a" font-size="2" font-family="monospace" text-anchor="middle" dominant-baseline="middle">VREGIN</text>
<line x1="100" y1="850" x2="100" y2="830" stroke="#ffd60a" stroke-width="1.5" stroke-linecap="round"/>
<text x="100" y="864" fill="#ffd60a" font-size="2" font-family="monospace" text-anchor="middle" dominant-baseline="middle">VDDA</text>
<line x1="120" y1="850" x2="120" y2="830" stroke="#ffd60a" stroke-width="1.5" stroke-linecap="round"/>
<text x="120" y="864" fill="#ffd60a" font-size="2" font-family="monospace" text-anchor="middle" dominant-baseline="middle">VREFH</text>
<line x1="140" y1="850" x2="140" y2="830" stroke="#ffd60a" stroke-width="1.5" stroke-linecap="round"/>
<text x="140" y="864" fill="#ffd60a" font-size="2" font-family="monospace" text-anchor="middle" dominant-baseline="middle">VDD</text>
<line x1="160" y1="850" x2="160" y2="830" stroke="#ffd60a" stroke-width="1.5" stroke-linecap="round"/>
<text x="160" y="864" fill="#ffd60a" font-size="2" font-family="monospace" text-anchor="middle" dominant-baseline="middle">VDD</text>
</svg>