<svg xmlns="http://www.w3.org/2000/svg" viewBox="0 0 260 1200">
<rect x="50" y="50" width="160" height="1100" stroke="#ffffff" stroke-width="1.5" fill="rgba(255,255,255,0.04)"/>
<text x="130" y="600" fill="#888" font-size="3" font-family="monospace" text-anchor="middle" dominant-baseline="middle">U</text>
<line x1="30" y1="60" x2="50" y2="60" stroke="#ffd60a" stroke-width="1.5" stroke-linecap="round"/>
<text x="55" y="60" fill="#ffd60a" font-size="2" font-family="monospace" text-anchor="start" dominant-baseline="middle">PTD7</text>
<line x1="30" y1="80" x2="50" y2="80" stroke="#ffd60a" stroke-width="1.5" stroke-linecap="round"/>
<text x="55" y="80" fill="#ffd60a" font-size="2" font-family="monospace" text-anchor="start" dominant-baseline="middle">PTD5</text>
<line x1="30" y1="100" x2="50" y2="100" stroke="#ffd60a" stroke-width="1.5" stroke-linecap="round"/>
<text x="55" y="100" fill="#ffd60a" font-size="2" font-family="monospace" text-anchor="start" dominant-baseline="middle">PTD4/LLWU_P14</text>
<line x1="30" y1="119.99999999999999" x2="50" y2="119.99999999999999" stroke="#ffd60a" stroke-width="1.5" stroke-linecap="round"/>
<text x="55" y="119.99999999999999" fill="#ffd60a" font-size="2" font-family="monospace" text-anchor="start" dominant-baseline="middle">NC</text>
<line x1="30" y1="140" x2="50" y2="140" stroke="#ffd60a" stroke-width="1.5" stroke-linecap="round"/>
<text x="55" y="140" fill="#ffd60a" font-size="2" font-family="monospace" text-anchor="start" dominant-baseline="middle">NC</text>
<line x1="30" y1="160" x2="50" y2="160" stroke="#ffd60a" stroke-width="1.5" stroke-linecap="round"/>
<text x="55" y="160" fill="#ffd60a" font-size="2" font-family="monospace" text-anchor="start" dominant-baseline="middle">PTC13</text>
<line x1="30" y1="180" x2="50" y2="180" stroke="#ffd60a" stroke-width="1.5" stroke-linecap="round"/>
<text x="55" y="180" fill="#ffd60a" font-size="2" font-family="monospace" text-anchor="start" dominant-baseline="middle">PTC8</text>
<line x1="30" y1="200" x2="50" y2="200" stroke="#ffd60a" stroke-width="1.5" stroke-linecap="round"/>
<text x="55" y="200" fill="#ffd60a" font-size="2" font-family="monospace" text-anchor="start" dominant-baseline="middle">PTC4/LLWU_P8</text>
<line x1="30" y1="220" x2="50" y2="220" stroke="#ffd60a" stroke-width="1.5" stroke-linecap="round"/>
<text x="55" y="220" fill="#ffd60a" font-size="2" font-family="monospace" text-anchor="start" dominant-baseline="middle">NC</text>
<line x1="30" y1="240" x2="50" y2="240" stroke="#ffd60a" stroke-width="1.5" stroke-linecap="round"/>
<text x="55" y="240" fill="#ffd60a" font-size="2" font-family="monospace" text-anchor="start" dominant-baseline="middle">PTD6/LLWU_P15</text>
<line x1="30" y1="260" x2="50" y2="260" stroke="#ffd60a" stroke-width="1.5" stroke-linecap="round"/>
<text x="55" y="260" fill="#ffd60a" font-size="2" font-family="monospace" text-anchor="start" dominant-baseline="middle">PTD3</text>
<line x1="30" y1="280" x2="50" y2="280" stroke="#ffd60a" stroke-width="1.5" stroke-linecap="round"/>
<text x="55" y="280" fill="#ffd60a" font-size="2" font-family="monospace" text-anchor="start" dominant-baseline="middle">PTC18</text>
<line x1="30" y1="300" x2="50" y2="300" stroke="#ffd60a" stroke-width="1.5" stroke-linecap="round"/>
<text x="55" y="300" fill="#ffd60a" font-size="2" font-family="monospace" text-anchor="start" dominant-baseline="middle">NC</text>
<line x1="30" y1="320" x2="50" y2="320" stroke="#ffd60a" stroke-width="1.5" stroke-linecap="round"/>
<text x="55" y="320" fill="#ffd60a" font-size="2" font-family="monospace" text-anchor="start" dominant-baseline="middle">PTC12</text>
<line x1="30" y1="340" x2="50" y2="340" stroke="#ffd60a" stroke-width="1.5" stroke-linecap="round"/>
<text x="55" y="340" fill="#ffd60a" font-size="2" font-family="monospace" text-anchor="start" dominant-baseline="middle">PTC7</text>
<line x1="30" y1="360" x2="50" y2="360" stroke="#ffd60a" stroke-width="1.5" stroke-linecap="round"/>
<text x="55" y="360" fill="#ffd60a" font-size="2" font-family="monospace" text-anchor="start" dominant-baseline="middle">PTC3/LLWU_P7</text>
<line x1="30" y1="380" x2="50" y2="380" stroke="#ffd60a" stroke-width="1.5" stroke-linecap="round"/>
<text x="55" y="380" fill="#ffd60a" font-size="2" font-family="monospace" text-anchor="start" dominant-baseline="middle">PTC0</text>
<line x1="30" y1="400" x2="50" y2="400" stroke="#ffd60a" stroke-width="1.5" stroke-linecap="round"/>
<text x="55" y="400" fill="#ffd60a" font-size="2" font-family="monospace" text-anchor="start" dominant-baseline="middle">NC</text>
<line x1="30" y1="420" x2="50" y2="420" stroke="#ffd60a" stroke-width="1.5" stroke-linecap="round"/>
<text x="55" y="420" fill="#ffd60a" font-size="2" font-family="monospace" text-anchor="start" dominant-baseline="middle">NC</text>
<line x1="30" y1="440" x2="50" y2="440" stroke="#ffd60a" stroke-width="1.5" stroke-linecap="round"/>
<text x="55" y="440" fill="#ffd60a" font-size="2" font-family="monospace" text-anchor="start" dominant-baseline="middle">PTD2</text>
<line x1="30" y1="460" x2="50" y2="460" stroke="#ffd60a" stroke-width="1.5" stroke-linecap="round"/>
<text x="55" y="460" fill="#ffd60a" font-size="2" font-family="monospace" text-anchor="start" dominant-baseline="middle">PTC17</text>
<line x1="30" y1="480" x2="50" y2="480" stroke="#ffd60a" stroke-width="1.5" stroke-linecap="round"/>
<text x="55" y="480" fill="#ffd60a" font-size="2" font-family="monospace" text-anchor="start" dominant-baseline="middle">PTC11</text>
<line x1="30" y1="500" x2="50" y2="500" stroke="#ffd60a" stroke-width="1.5" stroke-linecap="round"/>
<text x="55" y="500" fill="#ffd60a" font-size="2" font-family="monospace" text-anchor="start" dominant-baseline="middle">PTC10</text>
<line x1="30" y1="520" x2="50" y2="520" stroke="#ffd60a" stroke-width="1.5" stroke-linecap="round"/>
<text x="55" y="520" fill="#ffd60a" font-size="2" font-family="monospace" text-anchor="start" dominant-baseline="middle">PTC6/LLWU_P10</text>
<line x1="30" y1="540" x2="50" y2="540" stroke="#ffd60a" stroke-width="1.5" stroke-linecap="round"/>
<text x="55" y="540" fill="#ffd60a" font-size="2" font-family="monospace" text-anchor="start" dominant-baseline="middle">PTC2</text>
<line x1="30" y1="560" x2="50" y2="560" stroke="#ffd60a" stroke-width="1.5" stroke-linecap="round"/>
<text x="55" y="560" fill="#ffd60a" font-size="2" font-family="monospace" text-anchor="start" dominant-baseline="middle">NC</text>
<line x1="30" y1="580" x2="50" y2="580" stroke="#ffd60a" stroke-width="1.5" stroke-linecap="round"/>
<text x="55" y="580" fill="#ffd60a" font-size="2" font-family="monospace" text-anchor="start" dominant-baseline="middle">NC</text>
<line x1="30" y1="600" x2="50" y2="600" stroke="#ffd60a" stroke-width="1.5" stroke-linecap="round"/>
<text x="55" y="600" fill="#ffd60a" font-size="2" font-family="monospace" text-anchor="start" dominant-baseline="middle">PTD1</text>
<line x1="30" y1="620" x2="50" y2="620" stroke="#ffd60a" stroke-width="1.5" stroke-linecap="round"/>
<text x="55" y="620" fill="#ffd60a" font-size="2" font-family="monospace" text-anchor="start" dominant-baseline="middle">PTD0</text>
<line x1="30" y1="640" x2="50" y2="640" stroke="#ffd60a" stroke-width="1.5" stroke-linecap="round"/>
<text x="55" y="640" fill="#ffd60a" font-size="2" font-family="monospace" text-anchor="start" dominant-baseline="middle">PTC16</text>
<line x1="30" y1="660" x2="50" y2="660" stroke="#ffd60a" stroke-width="1.5" stroke-linecap="round"/>
<text x="55" y="660" fill="#ffd60a" font-size="2" font-family="monospace" text-anchor="start" dominant-baseline="middle">PTC9</text>
<line x1="30" y1="680" x2="50" y2="680" stroke="#ffd60a" stroke-width="1.5" stroke-linecap="round"/>
<text x="55" y="680" fill="#ffd60a" font-size="2" font-family="monospace" text-anchor="start" dominant-baseline="middle">PTC5/LLWU_P9</text>
<line x1="30" y1="700" x2="50" y2="700" stroke="#ffd60a" stroke-width="1.5" stroke-linecap="round"/>
<text x="55" y="700" fill="#ffd60a" font-size="2" font-family="monospace" text-anchor="start" dominant-baseline="middle">PTC1/LLWU_P6/RTC_CLKIN</text>
<line x1="30" y1="720" x2="50" y2="720" stroke="#ffd60a" stroke-width="1.5" stroke-linecap="round"/>
<text x="55" y="720" fill="#ffd60a" font-size="2" font-family="monospace" text-anchor="start" dominant-baseline="middle">NC</text>
<line x1="30" y1="740" x2="50" y2="740" stroke="#ffd60a" stroke-width="1.5" stroke-linecap="round"/>
<text x="55" y="740" fill="#ffd60a" font-size="2" font-family="monospace" text-anchor="start" dominant-baseline="middle">PTE2</text>
<line x1="30" y1="760" x2="50" y2="760" stroke="#ffd60a" stroke-width="1.5" stroke-linecap="round"/>
<text x="55" y="760" fill="#ffd60a" font-size="2" font-family="monospace" text-anchor="start" dominant-baseline="middle">PTE1</text>
<line x1="30" y1="780.0000000000001" x2="50" y2="780.0000000000001" stroke="#ffd60a" stroke-width="1.5" stroke-linecap="round"/>
<text x="55" y="780.0000000000001" fill="#ffd60a" font-size="2" font-family="monospace" text-anchor="start" dominant-baseline="middle">PTE0</text>
<line x1="30" y1="800" x2="50" y2="800" stroke="#ffd60a" stroke-width="1.5" stroke-linecap="round"/>
<text x="55" y="800" fill="#ffd60a" font-size="2" font-family="monospace" text-anchor="start" dominant-baseline="middle">PTE6</text>
<line x1="30" y1="820" x2="50" y2="820" stroke="#ffd60a" stroke-width="1.5" stroke-linecap="round"/>
<text x="55" y="820" fill="#ffd60a" font-size="2" font-family="monospace" text-anchor="start" dominant-baseline="middle">PTE3</text>
<line x1="30" y1="840" x2="50" y2="840" stroke="#ffd60a" stroke-width="1.5" stroke-linecap="round"/>
<text x="55" y="840" fill="#ffd60a" font-size="2" font-family="monospace" text-anchor="start" dominant-baseline="middle">PTE5</text>
<line x1="30" y1="860" x2="50" y2="860" stroke="#ffd60a" stroke-width="1.5" stroke-linecap="round"/>
<text x="55" y="860" fill="#ffd60a" font-size="2" font-family="monospace" text-anchor="start" dominant-baseline="middle">PTE16</text>
<line x1="30" y1="880" x2="50" y2="880" stroke="#ffd60a" stroke-width="1.5" stroke-linecap="round"/>
<text x="55" y="880" fill="#ffd60a" font-size="2" font-family="monospace" text-anchor="start" dominant-baseline="middle">PTE17</text>
<line x1="30" y1="900" x2="50" y2="900" stroke="#ffd60a" stroke-width="1.5" stroke-linecap="round"/>
<text x="55" y="900" fill="#ffd60a" font-size="2" font-family="monospace" text-anchor="start" dominant-baseline="middle">PTE24</text>
<line x1="30" y1="920" x2="50" y2="920" stroke="#ffd60a" stroke-width="1.5" stroke-linecap="round"/>
<text x="55" y="920" fill="#ffd60a" font-size="2" font-family="monospace" text-anchor="start" dominant-baseline="middle">PTE26</text>
<line x1="30" y1="940" x2="50" y2="940" stroke="#ffd60a" stroke-width="1.5" stroke-linecap="round"/>
<text x="55" y="940" fill="#ffd60a" font-size="2" font-family="monospace" text-anchor="start" dominant-baseline="middle">PTE4</text>
<line x1="30" y1="960" x2="50" y2="960" stroke="#ffd60a" stroke-width="1.5" stroke-linecap="round"/>
<text x="55" y="960" fill="#ffd60a" font-size="2" font-family="monospace" text-anchor="start" dominant-baseline="middle">PTE18</text>
<line x1="30" y1="980" x2="50" y2="980" stroke="#ffd60a" stroke-width="1.5" stroke-linecap="round"/>
<text x="55" y="980" fill="#ffd60a" font-size="2" font-family="monospace" text-anchor="start" dominant-baseline="middle">PTE19</text>
<line x1="30" y1="1000" x2="50" y2="1000" stroke="#ffd60a" stroke-width="1.5" stroke-linecap="round"/>
<text x="55" y="1000" fill="#ffd60a" font-size="2" font-family="monospace" text-anchor="start" dominant-baseline="middle">PTE25</text>
<line x1="30" y1="1020" x2="50" y2="1020" stroke="#ffd60a" stroke-width="1.5" stroke-linecap="round"/>
<text x="55" y="1020" fill="#ffd60a" font-size="2" font-family="monospace" text-anchor="start" dominant-baseline="middle">PTE20</text>
<line x1="30" y1="1040" x2="50" y2="1040" stroke="#ffd60a" stroke-width="1.5" stroke-linecap="round"/>
<text x="55" y="1040" fill="#ffd60a" font-size="2" font-family="monospace" text-anchor="start" dominant-baseline="middle">PTE21</text>
<line x1="30" y1="1060" x2="50" y2="1060" stroke="#ffd60a" stroke-width="1.5" stroke-linecap="round"/>
<text x="55" y="1060" fill="#ffd60a" font-size="2" font-family="monospace" text-anchor="start" dominant-baseline="middle">PTE30</text>
<line x1="30" y1="1080" x2="50" y2="1080" stroke="#ffd60a" stroke-width="1.5" stroke-linecap="round"/>
<text x="55" y="1080" fill="#ffd60a" font-size="2" font-family="monospace" text-anchor="start" dominant-baseline="middle">PTE22</text>
<line x1="30" y1="1100" x2="50" y2="1100" stroke="#ffd60a" stroke-width="1.5" stroke-linecap="round"/>
<text x="55" y="1100" fill="#ffd60a" font-size="2" font-family="monospace" text-anchor="start" dominant-baseline="middle">PTE23</text>
<line x1="30" y1="1120" x2="50" y2="1120" stroke="#ffd60a" stroke-width="1.5" stroke-linecap="round"/>
<text x="55" y="1120" fill="#ffd60a" font-size="2" font-family="monospace" text-anchor="start" dominant-baseline="middle">PTE29</text>
<line x1="30" y1="1140" x2="50" y2="1140" stroke="#ffd60a" stroke-width="1.5" stroke-linecap="round"/>
<text x="55" y="1140" fill="#ffd60a" font-size="2" font-family="monospace" text-anchor="start" dominant-baseline="middle">PTE31</text>
<line x1="230" y1="61" x2="210" y2="61" stroke="#ffd60a" stroke-width="1.5" stroke-linecap="round"/>
<text x="205" y="61" fill="#ffd60a" font-size="2" font-family="monospace" text-anchor="end" dominant-baseline="middle">VLL1/PTC21</text>
<line x1="230" y1="83" x2="210" y2="83" stroke="#ffd60a" stroke-width="1.5" stroke-linecap="round"/>
<text x="205" y="83" fill="#ffd60a" font-size="2" font-family="monospace" text-anchor="end" dominant-baseline="middle">VLL2/PTC20</text>
<line x1="230" y1="105" x2="210" y2="105" stroke="#ffd60a" stroke-width="1.5" stroke-linecap="round"/>
<text x="205" y="105" fill="#ffd60a" font-size="2" font-family="monospace" text-anchor="end" dominant-baseline="middle">VLL3</text>
<line x1="230" y1="127.00000000000001" x2="210" y2="127.00000000000001" stroke="#ffd60a" stroke-width="1.5" stroke-linecap="round"/>
<text x="205" y="127.00000000000001" fill="#ffd60a" font-size="2" font-family="monospace" text-anchor="end" dominant-baseline="middle">PTB16</text>
<line x1="230" y1="149" x2="210" y2="149" stroke="#ffd60a" stroke-width="1.5" stroke-linecap="round"/>
<text x="205" y="149" fill="#ffd60a" font-size="2" font-family="monospace" text-anchor="end" dominant-baseline="middle">VCAP2/PTC22</text>
<line x1="230" y1="171" x2="210" y2="171" stroke="#ffd60a" stroke-width="1.5" stroke-linecap="round"/>
<text x="205" y="171" fill="#ffd60a" font-size="2" font-family="monospace" text-anchor="end" dominant-baseline="middle">PTB19</text>
<line x1="230" y1="193" x2="210" y2="193" stroke="#ffd60a" stroke-width="1.5" stroke-linecap="round"/>
<text x="205" y="193" fill="#ffd60a" font-size="2" font-family="monospace" text-anchor="end" dominant-baseline="middle">PTB11</text>
<line x1="230" y1="215" x2="210" y2="215" stroke="#ffd60a" stroke-width="1.5" stroke-linecap="round"/>
<text x="205" y="215" fill="#ffd60a" font-size="2" font-family="monospace" text-anchor="end" dominant-baseline="middle">VCAP1/PTC23</text>
<line x1="230" y1="237" x2="210" y2="237" stroke="#ffd60a" stroke-width="1.5" stroke-linecap="round"/>
<text x="205" y="237" fill="#ffd60a" font-size="2" font-family="monospace" text-anchor="end" dominant-baseline="middle">PTB18</text>
<line x1="230" y1="259" x2="210" y2="259" stroke="#ffd60a" stroke-width="1.5" stroke-linecap="round"/>
<text x="205" y="259" fill="#ffd60a" font-size="2" font-family="monospace" text-anchor="end" dominant-baseline="middle">PTB10</text>
<line x1="230" y1="281" x2="210" y2="281" stroke="#ffd60a" stroke-width="1.5" stroke-linecap="round"/>
<text x="205" y="281" fill="#ffd60a" font-size="2" font-family="monospace" text-anchor="end" dominant-baseline="middle">PTB8</text>
<line x1="230" y1="303" x2="210" y2="303" stroke="#ffd60a" stroke-width="1.5" stroke-linecap="round"/>
<text x="205" y="303" fill="#ffd60a" font-size="2" font-family="monospace" text-anchor="end" dominant-baseline="middle">PTB23</text>
<line x1="230" y1="325" x2="210" y2="325" stroke="#ffd60a" stroke-width="1.5" stroke-linecap="round"/>
<text x="205" y="325" fill="#ffd60a" font-size="2" font-family="monospace" text-anchor="end" dominant-baseline="middle">PTB17</text>
<line x1="230" y1="347" x2="210" y2="347" stroke="#ffd60a" stroke-width="1.5" stroke-linecap="round"/>
<text x="205" y="347" fill="#ffd60a" font-size="2" font-family="monospace" text-anchor="end" dominant-baseline="middle">PTB9</text>
<line x1="230" y1="369" x2="210" y2="369" stroke="#ffd60a" stroke-width="1.5" stroke-linecap="round"/>
<text x="205" y="369" fill="#ffd60a" font-size="2" font-family="monospace" text-anchor="end" dominant-baseline="middle">PTB7</text>
<line x1="230" y1="391" x2="210" y2="391" stroke="#ffd60a" stroke-width="1.5" stroke-linecap="round"/>
<text x="205" y="391" fill="#ffd60a" font-size="2" font-family="monospace" text-anchor="end" dominant-baseline="middle">USB0_DP</text>
<line x1="230" y1="413" x2="210" y2="413" stroke="#ffd60a" stroke-width="1.5" stroke-linecap="round"/>
<text x="205" y="413" fill="#ffd60a" font-size="2" font-family="monospace" text-anchor="end" dominant-baseline="middle">USB0_DM</text>
<line x1="230" y1="435" x2="210" y2="435" stroke="#ffd60a" stroke-width="1.5" stroke-linecap="round"/>
<text x="205" y="435" fill="#ffd60a" font-size="2" font-family="monospace" text-anchor="end" dominant-baseline="middle">PTB22</text>
<line x1="230" y1="457" x2="210" y2="457" stroke="#ffd60a" stroke-width="1.5" stroke-linecap="round"/>
<text x="205" y="457" fill="#ffd60a" font-size="2" font-family="monospace" text-anchor="end" dominant-baseline="middle">PTB21</text>
<line x1="230" y1="479" x2="210" y2="479" stroke="#ffd60a" stroke-width="1.5" stroke-linecap="round"/>
<text x="205" y="479" fill="#ffd60a" font-size="2" font-family="monospace" text-anchor="end" dominant-baseline="middle">PTB2</text>
<line x1="230" y1="501" x2="210" y2="501" stroke="#ffd60a" stroke-width="1.5" stroke-linecap="round"/>
<text x="205" y="501" fill="#ffd60a" font-size="2" font-family="monospace" text-anchor="end" dominant-baseline="middle">NC</text>
<line x1="230" y1="523" x2="210" y2="523" stroke="#ffd60a" stroke-width="1.5" stroke-linecap="round"/>
<text x="205" y="523" fill="#ffd60a" font-size="2" font-family="monospace" text-anchor="end" dominant-baseline="middle">VOUT33</text>
<line x1="230" y1="545" x2="210" y2="545" stroke="#ffd60a" stroke-width="1.5" stroke-linecap="round"/>
<text x="205" y="545" fill="#ffd60a" font-size="2" font-family="monospace" text-anchor="end" dominant-baseline="middle">PTB3</text>
<line x1="230" y1="567" x2="210" y2="567" stroke="#ffd60a" stroke-width="1.5" stroke-linecap="round"/>
<text x="205" y="567" fill="#ffd60a" font-size="2" font-family="monospace" text-anchor="end" dominant-baseline="middle">PTB2</text>
<line x1="230" y1="589" x2="210" y2="589" stroke="#ffd60a" stroke-width="1.5" stroke-linecap="round"/>
<text x="205" y="589" fill="#ffd60a" font-size="2" font-family="monospace" text-anchor="end" dominant-baseline="middle">PTB1</text>
<line x1="230" y1="611" x2="210" y2="611" stroke="#ffd60a" stroke-width="1.5" stroke-linecap="round"/>
<text x="205" y="611" fill="#ffd60a" font-size="2" font-family="monospace" text-anchor="end" dominant-baseline="middle">PTB0/LLWU_P5</text>
<line x1="230" y1="633" x2="210" y2="633" stroke="#ffd60a" stroke-width="1.5" stroke-linecap="round"/>
<text x="205" y="633" fill="#ffd60a" font-size="2" font-family="monospace" text-anchor="end" dominant-baseline="middle">NC</text>
<line x1="230" y1="655" x2="210" y2="655" stroke="#ffd60a" stroke-width="1.5" stroke-linecap="round"/>
<text x="205" y="655" fill="#ffd60a" font-size="2" font-family="monospace" text-anchor="end" dominant-baseline="middle">PTA7</text>
<line x1="230" y1="677" x2="210" y2="677" stroke="#ffd60a" stroke-width="1.5" stroke-linecap="round"/>
<text x="205" y="677" fill="#ffd60a" font-size="2" font-family="monospace" text-anchor="end" dominant-baseline="middle">PTA1</text>
<line x1="230" y1="699" x2="210" y2="699" stroke="#ffd60a" stroke-width="1.5" stroke-linecap="round"/>
<text x="205" y="699" fill="#ffd60a" font-size="2" font-family="monospace" text-anchor="end" dominant-baseline="middle">PTA3</text>
<line x1="230" y1="721" x2="210" y2="721" stroke="#ffd60a" stroke-width="1.5" stroke-linecap="round"/>
<text x="205" y="721" fill="#ffd60a" font-size="2" font-family="monospace" text-anchor="end" dominant-baseline="middle">PTA17</text>
<line x1="230" y1="743" x2="210" y2="743" stroke="#ffd60a" stroke-width="1.5" stroke-linecap="round"/>
<text x="205" y="743" fill="#ffd60a" font-size="2" font-family="monospace" text-anchor="end" dominant-baseline="middle">NC</text>
<line x1="230" y1="765" x2="210" y2="765" stroke="#ffd60a" stroke-width="1.5" stroke-linecap="round"/>
<text x="205" y="765" fill="#ffd60a" font-size="2" font-family="monospace" text-anchor="end" dominant-baseline="middle">NC</text>
<line x1="230" y1="787" x2="210" y2="787" stroke="#ffd60a" stroke-width="1.5" stroke-linecap="round"/>
<text x="205" y="787" fill="#ffd60a" font-size="2" font-family="monospace" text-anchor="end" dominant-baseline="middle">NC</text>
<line x1="230" y1="808.9999999999999" x2="210" y2="808.9999999999999" stroke="#ffd60a" stroke-width="1.5" stroke-linecap="round"/>
<text x="205" y="808.9999999999999" fill="#ffd60a" font-size="2" font-family="monospace" text-anchor="end" dominant-baseline="middle">PTA0</text>
<line x1="230" y1="831" x2="210" y2="831" stroke="#ffd60a" stroke-width="1.5" stroke-linecap="round"/>
<text x="205" y="831" fill="#ffd60a" font-size="2" font-family="monospace" text-anchor="end" dominant-baseline="middle">PTA2</text>
<line x1="230" y1="853" x2="210" y2="853" stroke="#ffd60a" stroke-width="1.5" stroke-linecap="round"/>
<text x="205" y="853" fill="#ffd60a" font-size="2" font-family="monospace" text-anchor="end" dominant-baseline="middle">PTA4</text>
<line x1="230" y1="875" x2="210" y2="875" stroke="#ffd60a" stroke-width="1.5" stroke-linecap="round"/>
<text x="205" y="875" fill="#ffd60a" font-size="2" font-family="monospace" text-anchor="end" dominant-baseline="middle">NC</text>
<line x1="230" y1="897" x2="210" y2="897" stroke="#ffd60a" stroke-width="1.5" stroke-linecap="round"/>
<text x="205" y="897" fill="#ffd60a" font-size="2" font-family="monospace" text-anchor="end" dominant-baseline="middle">PTA16</text>
<line x1="230" y1="919" x2="210" y2="919" stroke="#ffd60a" stroke-width="1.5" stroke-linecap="round"/>
<text x="205" y="919" fill="#ffd60a" font-size="2" font-family="monospace" text-anchor="end" dominant-baseline="middle">PTA20</text>
<line x1="230" y1="941.0000000000001" x2="210" y2="941.0000000000001" stroke="#ffd60a" stroke-width="1.5" stroke-linecap="round"/>
<text x="205" y="941.0000000000001" fill="#ffd60a" font-size="2" font-family="monospace" text-anchor="end" dominant-baseline="middle">PTA6</text>
<line x1="230" y1="963" x2="210" y2="963" stroke="#ffd60a" stroke-width="1.5" stroke-linecap="round"/>
<text x="205" y="963" fill="#ffd60a" font-size="2" font-family="monospace" text-anchor="end" dominant-baseline="middle">NC</text>
<line x1="230" y1="985" x2="210" y2="985" stroke="#ffd60a" stroke-width="1.5" stroke-linecap="round"/>
<text x="205" y="985" fill="#ffd60a" font-size="2" font-family="monospace" text-anchor="end" dominant-baseline="middle">PTA5</text>
<line x1="230" y1="1007" x2="210" y2="1007" stroke="#ffd60a" stroke-width="1.5" stroke-linecap="round"/>
<text x="205" y="1007" fill="#ffd60a" font-size="2" font-family="monospace" text-anchor="end" dominant-baseline="middle">PTA12</text>
<line x1="230" y1="1029" x2="210" y2="1029" stroke="#ffd60a" stroke-width="1.5" stroke-linecap="round"/>
<text x="205" y="1029" fill="#ffd60a" font-size="2" font-family="monospace" text-anchor="end" dominant-baseline="middle">PTA14</text>
<line x1="230" y1="1051" x2="210" y2="1051" stroke="#ffd60a" stroke-width="1.5" stroke-linecap="round"/>
<text x="205" y="1051" fill="#ffd60a" font-size="2" font-family="monospace" text-anchor="end" dominant-baseline="middle">PTA19</text>
<line x1="230" y1="1073" x2="210" y2="1073" stroke="#ffd60a" stroke-width="1.5" stroke-linecap="round"/>
<text x="205" y="1073" fill="#ffd60a" font-size="2" font-family="monospace" text-anchor="end" dominant-baseline="middle">NC</text>
<line x1="230" y1="1095" x2="210" y2="1095" stroke="#ffd60a" stroke-width="1.5" stroke-linecap="round"/>
<text x="205" y="1095" fill="#ffd60a" font-size="2" font-family="monospace" text-anchor="end" dominant-baseline="middle">PTA13</text>
<line x1="230" y1="1117" x2="210" y2="1117" stroke="#ffd60a" stroke-width="1.5" stroke-linecap="round"/>
<text x="205" y="1117" fill="#ffd60a" font-size="2" font-family="monospace" text-anchor="end" dominant-baseline="middle">PTA15</text>
<line x1="230" y1="1139" x2="210" y2="1139" stroke="#ffd60a" stroke-width="1.5" stroke-linecap="round"/>
<text x="205" y="1139" fill="#ffd60a" font-size="2" font-family="monospace" text-anchor="end" dominant-baseline="middle">PTA18</text>
<line x1="60" y1="30" x2="60" y2="50" stroke="#ffd60a" stroke-width="1.5" stroke-linecap="round"/>
<text x="60" y="25" fill="#ffd60a" font-size="2" font-family="monospace" text-anchor="middle" dominant-baseline="middle">VSSA</text>
<line x1="80" y1="30" x2="80" y2="50" stroke="#ffd60a" stroke-width="1.5" stroke-linecap="round"/>
<text x="80" y="25" fill="#ffd60a" font-size="2" font-family="monospace" text-anchor="middle" dominant-baseline="middle">VSS</text>
<line x1="100" y1="30" x2="100" y2="50" stroke="#ffd60a" stroke-width="1.5" stroke-linecap="round"/>
<text x="100" y="25" fill="#ffd60a" font-size="2" font-family="monospace" text-anchor="middle" dominant-baseline="middle">VSS</text>
<line x1="120" y1="30" x2="120" y2="50" stroke="#ffd60a" stroke-width="1.5" stroke-linecap="round"/>
<text x="120" y="25" fill="#ffd60a" font-size="2" font-family="monospace" text-anchor="middle" dominant-baseline="middle">VREFL</text>
<line x1="140" y1="30" x2="140" y2="50" stroke="#ffd60a" stroke-width="1.5" stroke-linecap="round"/>
<text x="140" y="25" fill="#ffd60a" font-size="2" font-family="monospace" text-anchor="middle" dominant-baseline="middle">VSS</text>
<line x1="160" y1="30" x2="160" y2="50" stroke="#ffd60a" stroke-width="1.5" stroke-linecap="round"/>
<text x="160" y="25" fill="#ffd60a" font-size="2" font-family="monospace" text-anchor="middle" dominant-baseline="middle">VSS</text>
<line x1="180" y1="30" x2="180" y2="50" stroke="#ffd60a" stroke-width="1.5" stroke-linecap="round"/>
<text x="180" y="25" fill="#ffd60a" font-size="2" font-family="monospace" text-anchor="middle" dominant-baseline="middle">VSS</text>
<line x1="200" y1="30" x2="200" y2="50" stroke="#ffd60a" stroke-width="1.5" stroke-linecap="round"/>
<text x="200" y="25" fill="#ffd60a" font-size="2" font-family="monospace" text-anchor="middle" dominant-baseline="middle">VSS</text>
<line x1="60" y1="1170" x2="60" y2="1150" stroke="#ffd60a" stroke-width="1.5" stroke-linecap="round"/>
<text x="60" y="1184" fill="#ffd60a" font-size="2" font-family="monospace" text-anchor="middle" dominant-baseline="middle">VDD</text>
<line x1="80" y1="1170" x2="80" y2="1150" stroke="#ffd60a" stroke-width="1.5" stroke-linecap="round"/>
<text x="80" y="1184" fill="#ffd60a" font-size="2" font-family="monospace" text-anchor="middle" dominant-baseline="middle">VDD</text>
<line x1="100" y1="1170" x2="100" y2="1150" stroke="#ffd60a" stroke-width="1.5" stroke-linecap="round"/>
<text x="100" y="1184" fill="#ffd60a" font-size="2" font-family="monospace" text-anchor="middle" dominant-baseline="middle">VDD</text>
<line x1="120" y1="1170" x2="120" y2="1150" stroke="#ffd60a" stroke-width="1.5" stroke-linecap="round"/>
<text x="120" y="1184" fill="#ffd60a" font-size="2" font-family="monospace" text-anchor="middle" dominant-baseline="middle">VDDA</text>
<line x1="140" y1="1170" x2="140" y2="1150" stroke="#ffd60a" stroke-width="1.5" stroke-linecap="round"/>
<text x="140" y="1184" fill="#ffd60a" font-size="2" font-family="monospace" text-anchor="middle" dominant-baseline="middle">VREGIN</text>
<line x1="160" y1="1170" x2="160" y2="1150" stroke="#ffd60a" stroke-width="1.5" stroke-linecap="round"/>
<text x="160" y="1184" fill="#ffd60a" font-size="2" font-family="monospace" text-anchor="middle" dominant-baseline="middle">VREFH</text>
<line x1="180" y1="1170" x2="180" y2="1150" stroke="#ffd60a" stroke-width="1.5" stroke-linecap="round"/>
<text x="180" y="1184" fill="#ffd60a" font-size="2" font-family="monospace" text-anchor="middle" dominant-baseline="middle">VDD</text>
<line x1="200" y1="1170" x2="200" y2="1150" stroke="#ffd60a" stroke-width="1.5" stroke-linecap="round"/>
<text x="200" y="1184" fill="#ffd60a" font-size="2" font-family="monospace" text-anchor="middle" dominant-baseline="middle">VDD</text>
</svg>