<svg xmlns="http://www.w3.org/2000/svg" viewBox="0 0 24.16 15.620000000000001">
<rect x="7" y="11.620000000000001" width="10.16" height="7.62" stroke="#ffffff" stroke-width="0.3" fill="rgba(255,255,255,0.06)"/>
<line x1="7" y1="5.2700000000000005" x2="9.54" y2="5.2700000000000005" stroke="#ffffff" stroke-width="0.3" stroke-linecap="round" fill="none"/>
<line x1="9.286" y1="10.350000000000001" x2="7" y2="10.350000000000001" stroke="#ffffff" stroke-width="0.3" stroke-linecap="round" fill="none"/>
<polyline points="9.286,10.350000000000001 10.048,10.350000000000001 10.048,5.2700000000000005 9.286,5.2700000000000005" stroke="#ffffff" stroke-width="0.3" stroke-linejoin="round" stroke-linecap="round" fill="none"/>
<polyline points="11.064,6.7940000000000005 9.032,6.7940000000000005 10.048,8.826 11.064,6.7940000000000005" stroke="#ffffff" stroke-width="0.3" stroke-linejoin="round" stroke-linecap="round" fill="none"/>
<line x1="11.064" y1="8.826" x2="9.032" y2="8.826" stroke="#ffffff" stroke-width="0.3" stroke-linecap="round" fill="none"/>
<line x1="11.318" y1="7.3020000000000005" x2="13.35" y2="6.7940000000000005" stroke="#ffffff" stroke-width="0.3" stroke-linecap="round" fill="none"/>
<line x1="11.318" y1="8.318000000000001" x2="13.35" y2="7.8100000000000005" stroke="#ffffff" stroke-width="0.3" stroke-linecap="round" fill="none"/>
<polyline points="12.334,6.7940000000000005 13.35,6.7940000000000005 12.588000000000001,7.3020000000000005" stroke="#ffffff" stroke-width="0.3" stroke-linejoin="round" stroke-linecap="round" fill="none"/>
<polyline points="12.334,7.8100000000000005 13.35,7.8100000000000005 12.588000000000001,8.318000000000001" stroke="#ffffff" stroke-width="0.3" stroke-linejoin="round" stroke-linecap="round" fill="none"/>
<rect x="13.858" y="9.334" width="1.524" height="3.048" stroke="#ffffff" stroke-width="0.3" fill="none"/>
<polyline points="14.620000000000001,6.2860000000000005 14.620000000000001,5.2700000000000005 17.16,5.2700000000000005" stroke="#ffffff" stroke-width="0.3" stroke-linejoin="round" stroke-linecap="round" fill="none"/>
<polyline points="14.620000000000001,9.334 14.620000000000001,10.350000000000001 17.16,10.350000000000001" stroke="#ffffff" stroke-width="0.3" stroke-linejoin="round" stroke-linecap="round" fill="none"/>
<line x1="4.46" y1="5.2700000000000005" x2="7" y2="5.2700000000000005" stroke="#ffd60a" stroke-width="0.34514285714285714" stroke-linecap="round"/>
<text x="4" y="5.2700000000000005" fill="#ffd60a" font-size="1" font-family="monospace" text-anchor="start" dominant-baseline="middle">A</text>
<line x1="4.46" y1="10.350000000000001" x2="7" y2="10.350000000000001" stroke="#ffd60a" stroke-width="0.34514285714285714" stroke-linecap="round"/>
<text x="4" y="10.350000000000001" fill="#ffd60a" font-size="1" font-family="monospace" text-anchor="start" dominant-baseline="middle">K</text>
<line x1="19.7" y1="10.350000000000001" x2="17.16" y2="10.35" stroke="#ffd60a" stroke-width="0.34514285714285714" stroke-linecap="round"/>
<text x="20.16" y="10.350000000000001" fill="#ffd60a" font-size="1" font-family="monospace" text-anchor="end" dominant-baseline="middle">R</text>
<line x1="19.7" y1="5.2700000000000005" x2="17.16" y2="5.27" stroke="#ffd60a" stroke-width="0.34514285714285714" stroke-linecap="round"/>
<text x="20.16" y="5.2700000000000005" fill="#ffd60a" font-size="1" font-family="monospace" text-anchor="end" dominant-baseline="middle">R</text>
</svg>