<svg xmlns="http://www.w3.org/2000/svg" viewBox="0 0 16.153399999999998 19.08">
<path d="M 6.032 5.729999999999999 A 0.4015871092006296 0.4015871092006296 0 0 1 6.539999999999999 6.2379999999999995" stroke="#ffffff" stroke-width="0.3" fill="none"/>
<polyline points="6.794,5.983999999999999 6.286,6.491999999999999 7.302,6.999999999999999 6.794,5.983999999999999" stroke="#ffffff" stroke-width="0.3" stroke-linejoin="round" stroke-linecap="round" fill="#ffffff"/>
<line x1="8.190999999999999" y1="8.015999999999998" x2="10.477" y2="8.015999999999998" stroke="#ffffff" stroke-width="0.3" stroke-linecap="round" fill="none"/>
<line x1="8.190999999999999" y1="11.064" x2="10.477" y2="11.064" stroke="#ffffff" stroke-width="0.3" stroke-linecap="round" fill="none"/>
<line x1="9.334" y1="6.999999999999999" x2="9.334" y2="8.015999999999998" stroke="#ffffff" stroke-width="0.3" stroke-linecap="round" fill="none"/>
<circle cx="9.334" cy="9.54" r="2.8194" stroke="#ffffff" stroke-width="0.3" fill="none"/>
<line x1="9.334" y1="11.064" x2="9.334" y2="12.079999999999998" stroke="#ffffff" stroke-width="0.3" stroke-linecap="round" fill="none"/>
<circle cx="10.731" cy="10.428999999999998" r="0.254" stroke="#ffffff" stroke-width="0.3" fill="#ffffff"/>
<path d="M 4 5.729999999999999 A 0.40158710920061746 0.40158710920061746 0 0 1 4.508 6.2379999999999995" stroke="#ffffff" stroke-width="0.3" fill="none"/>
<path d="M 5.016 6.745999999999999 A 0.4015871092006261 0.4015871092006261 0 0 1 4.508 6.2379999999999995" stroke="#ffffff" stroke-width="0.3" fill="none"/>
<path d="M 5.016 4.7139999999999995 A 0.4015871092006343 0.4015871092006343 0 0 1 5.523999999999999 5.2219999999999995" stroke="#ffffff" stroke-width="0.3" fill="none"/>
<path d="M 5.016 6.745999999999999 A 0.40158710920062757 0.40158710920062757 0 0 1 5.523999999999999 7.254" stroke="#ffffff" stroke-width="0.3" fill="none"/>
<polyline points="5.778,6.999999999999999 5.27,7.507999999999999 6.286,8.015999999999998 5.778,6.999999999999999" stroke="#ffffff" stroke-width="0.3" stroke-linejoin="round" stroke-linecap="round" fill="#ffffff"/>
<path d="M 6.032 5.729999999999999 A 0.40158710920062285 0.40158710920062285 0 0 1 5.523999999999999 5.2219999999999995" stroke="#ffffff" stroke-width="0.3" fill="none"/>
<line x1="9.334" y1="4.459999999999999" x2="9.334" y2="6.999999999999999" stroke="#ffd60a" stroke-width="0.2725714285714285" stroke-linecap="round"/>
<text x="9.334" y="3.999999999999999" fill="#ffd60a" font-size="1" font-family="monospace" text-anchor="middle" dominant-baseline="middle">1</text>
<line x1="9.334" y1="14.62" x2="9.334" y2="12.079999999999998" stroke="#ffd60a" stroke-width="0.2725714285714285" stroke-linecap="round"/>
<text x="9.334" y="15.079999999999998" fill="#ffd60a" font-size="1" font-family="monospace" text-anchor="middle" dominant-baseline="middle">2</text>
</svg>