<svg xmlns="http://www.w3.org/2000/svg" viewBox="0 0 17.525 19.08">
<line x1="9.334" y1="7.634999999999999" x2="9.334" y2="11.444999999999999" stroke="#ffffff" stroke-width="0.3" stroke-linecap="round" fill="none"/>
<line x1="9.334" y1="9.54" x2="6.54" y2="9.54" stroke="#ffffff" stroke-width="0.3" stroke-linecap="round" fill="none"/>
<line x1="9.842" y1="7.254" x2="9.842" y2="8.27" stroke="#ffffff" stroke-width="0.3" stroke-linecap="round" fill="none"/>
<line x1="9.842" y1="9.032" x2="9.842" y2="10.047999999999998" stroke="#ffffff" stroke-width="0.3" stroke-linecap="round" fill="none"/>
<line x1="9.842" y1="10.809999999999999" x2="9.842" y2="11.825999999999999" stroke="#ffffff" stroke-width="0.3" stroke-linecap="round" fill="none"/>
<polyline points="9.842,11.318 12.382,11.318 12.382,7.761999999999999 9.842,7.761999999999999" stroke="#ffffff" stroke-width="0.3" stroke-linejoin="round" stroke-linecap="round" fill="none"/>
<polyline points="10.096,9.54 11.112,9.158999999999999 11.112,9.921 10.096,9.54" stroke="#ffffff" stroke-width="0.3" stroke-linejoin="round" stroke-linecap="round" fill="#ffffff"/>
<circle cx="10.731" cy="9.54" r="2.794" stroke="#ffffff" stroke-width="0.3" fill="none"/>
<line x1="11.620000000000001" y1="6.999999999999999" x2="11.620000000000001" y2="7.761999999999999" stroke="#ffffff" stroke-width="0.3" stroke-linecap="round" fill="none"/>
<circle cx="11.620000000000001" cy="7.761999999999999" r="0.254" stroke="#ffffff" stroke-width="0.3" fill="#ffffff"/>
<circle cx="11.620000000000001" cy="11.318" r="0.254" stroke="#ffffff" stroke-width="0.3" fill="#ffffff"/>
<polyline points="11.620000000000001,12.079999999999998 11.620000000000001,9.54 9.842,9.54" stroke="#ffffff" stroke-width="0.3" stroke-linejoin="round" stroke-linecap="round" fill="none"/>
<line x1="12.001" y1="9.158999999999999" x2="12.763" y2="9.158999999999999" stroke="#ffffff" stroke-width="0.3" stroke-linecap="round" fill="none"/>
<polyline points="12.382,9.158999999999999 12.001,9.793999999999999 12.763,9.793999999999999 12.382,9.158999999999999" stroke="#ffffff" stroke-width="0.3" stroke-linejoin="round" stroke-linecap="round" fill="none"/>
<line x1="11.620000000000001" y1="14.62" x2="11.620000000000001" y2="12.079999999999998" stroke="#ffd60a" stroke-width="0.2725714285714285" stroke-linecap="round"/>
<text x="11.620000000000001" y="15.079999999999998" fill="#ffd60a" font-size="1" font-family="monospace" text-anchor="middle" dominant-baseline="middle">S</text>
<line x1="4" y1="9.54" x2="9.08" y2="9.54" stroke="#ffd60a" stroke-width="0.2725714285714285" stroke-linecap="round"/>
<text x="12.08" y="9.54" fill="#ffd60a" font-size="1" font-family="monospace" text-anchor="start" dominant-baseline="middle">G</text>
<line x1="11.620000000000001" y1="4.459999999999999" x2="11.62" y2="6.999999999999999" stroke="#ffd60a" stroke-width="0.2725714285714285" stroke-linecap="round"/>
<text x="11.620000000000001" y="3.999999999999999" fill="#ffd60a" font-size="1" font-family="monospace" text-anchor="middle" dominant-baseline="middle">D</text>
</svg>