<svg xmlns="http://www.w3.org/2000/svg" viewBox="0 0 15.620000000000001 20.35">
<rect x="4" y="12.715" width="7.62" height="6.35" stroke="#ffffff" stroke-width="0.3" fill="rgba(255,255,255,0.06)"/>
<circle cx="5.2700000000000005" cy="7.254" r="0.254" stroke="#ffffff" stroke-width="0.3" fill="#ffffff"/>
<line x1="5.2700000000000005" y1="7.254" x2="10.350000000000001" y2="7.254" stroke="#ffffff" stroke-width="0.3" stroke-linecap="round" fill="none"/>
<polyline points="5.2700000000000005,7.254 5.2700000000000005,8.015999999999998 6.032,8.371599999999999 4.508000000000001,9.032 6.032,9.6924 4.508000000000001,10.3782 6.032,11.064 4.508000000000001,11.7244 5.2700000000000005,12.079999999999998 5.2700000000000005,13.35" stroke="#ffffff" stroke-width="0.3" stroke-linejoin="round" stroke-linecap="round" fill="none"/>
<circle cx="7.8100000000000005" cy="7.254" r="0.254" stroke="#ffffff" stroke-width="0.3" fill="#ffffff"/>
<polyline points="7.8100000000000005,7.254 7.8100000000000005,8.015999999999998 8.572000000000001,8.371599999999999 7.048,9.032 8.572000000000001,9.6924 7.048,10.3782 8.572000000000001,11.064 7.048,11.7244 7.8100000000000005,12.079999999999998 7.8100000000000005,13.35" stroke="#ffffff" stroke-width="0.3" stroke-linejoin="round" stroke-linecap="round" fill="none"/>
<polyline points="10.350000000000001,7.254 10.350000000000001,8.015999999999998 11.112,8.371599999999999 9.588000000000001,9.032 11.112,9.6924 9.588000000000001,10.3782 11.112,11.064 9.588000000000001,11.7244 10.350000000000001,12.079999999999998 10.350000000000001,13.35" stroke="#ffffff" stroke-width="0.3" stroke-linejoin="round" stroke-linecap="round" fill="none"/>
<line x1="5.2700000000000005" y1="4.459999999999999" x2="5.27" y2="6.999999999999999" stroke="#ffd60a" stroke-width="0.29071428571428576" stroke-linecap="round"/>
<text x="5.2700000000000005" y="3.999999999999999" fill="#ffd60a" font-size="1" font-family="monospace" text-anchor="middle" dominant-baseline="middle">common</text>
<line x1="5.2700000000000005" y1="14.62" x2="5.2700000000000005" y2="13.35" stroke="#ffd60a" stroke-width="0.29071428571428576" stroke-linecap="round"/>
<text x="5.2700000000000005" y="16.35" fill="#ffd60a" font-size="1" font-family="monospace" text-anchor="middle" dominant-baseline="middle">R1</text>
<line x1="7.8100000000000005" y1="14.62" x2="7.8100000000000005" y2="13.35" stroke="#ffd60a" stroke-width="0.29071428571428576" stroke-linecap="round"/>
<text x="7.8100000000000005" y="16.35" fill="#ffd60a" font-size="1" font-family="monospace" text-anchor="middle" dominant-baseline="middle">R2</text>
<line x1="10.350000000000001" y1="14.62" x2="10.350000000000001" y2="13.35" stroke="#ffd60a" stroke-width="0.29071428571428576" stroke-linecap="round"/>
<text x="10.350000000000001" y="16.35" fill="#ffd60a" font-size="1" font-family="monospace" text-anchor="middle" dominant-baseline="middle">R3</text>
</svg>