<svg xmlns="http://www.w3.org/2000/svg" viewBox="0 0 28.32 28.32">
<line x1="16.7" y1="10.35" x2="16.7" y2="9.08" stroke="#ffffff" stroke-width="0.3" stroke-linecap="round" fill="none"/>
<line x1="21.78" y1="10.35" x2="21.78" y2="9.08" stroke="#ffffff" stroke-width="0.3" stroke-linecap="round" fill="none"/>
<polyline points="21.78,10.35 21.78,11.620000000000001 21.145,10.985 21.78,10.35" stroke="#ffffff" stroke-width="0.3" stroke-linejoin="round" stroke-linecap="round" fill="none"/>
<rect x="4" y="19.240000000000002" width="20.32" height="10.16" stroke="#ffffff" stroke-width="0.3" fill="rgba(255,255,255,0.06)"/>
<rect x="5.904999999999999" y="16.065" width="6.3500000000000005" height="3.81" stroke="#ffffff" stroke-width="0.3" fill="none"/>
<line x1="6.54" y1="16.065" x2="11.620000000000001" y2="12.255" stroke="#ffffff" stroke-width="0.3" stroke-linecap="round" fill="none"/>
<line x1="9.08" y1="9.08" x2="9.08" y2="12.255" stroke="#ffffff" stroke-width="0.3" stroke-linecap="round" fill="none"/>
<line x1="9.08" y1="19.240000000000002" x2="9.08" y2="16.065" stroke="#ffffff" stroke-width="0.3" stroke-linecap="round" fill="none"/>
<line x1="12.255" y1="14.16" x2="12.89" y2="14.16" stroke="#ffffff" stroke-width="0.3" stroke-linecap="round" fill="none"/>
<line x1="13.525" y1="14.16" x2="14.16" y2="14.16" stroke="#ffffff" stroke-width="0.3" stroke-linecap="round" fill="none"/>
<line x1="14.795" y1="14.16" x2="15.43" y2="14.16" stroke="#ffffff" stroke-width="0.3" stroke-linecap="round" fill="none"/>
<line x1="16.065" y1="14.16" x2="16.7" y2="14.16" stroke="#ffffff" stroke-width="0.3" stroke-linecap="round" fill="none"/>
<polyline points="16.7,11.620000000000001 17.335,10.985 16.7,10.35" stroke="#ffffff" stroke-width="0.3" stroke-linejoin="round" stroke-linecap="round" fill="#ffffff"/>
<line x1="17.335" y1="14.16" x2="17.97" y2="14.16" stroke="#ffffff" stroke-width="0.3" stroke-linecap="round" fill="none"/>
<line x1="19.240000000000002" y1="16.7" x2="17.335" y2="10.35" stroke="#ffffff" stroke-width="0.508" stroke-linecap="round" fill="none"/>
<line x1="19.240000000000002" y1="16.7" x2="19.240000000000002" y2="19.240000000000002" stroke="#ffffff" stroke-width="0.3" stroke-linecap="round" fill="none"/>
<line x1="19.240000000000002" y1="24.32" x2="19.240000000000002" y2="19.240000000000002" stroke="#ffd60a" stroke-width="0.4045714285714286" stroke-linecap="round"/>
<line x1="16.7" y1="4" x2="16.7" y2="9.08" stroke="#ffd60a" stroke-width="0.4045714285714286" stroke-linecap="round"/>
<line x1="21.78" y1="4" x2="21.78" y2="9.08" stroke="#ffd60a" stroke-width="0.4045714285714286" stroke-linecap="round"/>
<line x1="9.08" y1="4" x2="9.079999999999998" y2="9.08" stroke="#ffd60a" stroke-width="0.4045714285714286" stroke-linecap="round"/>
<line x1="9.08" y1="24.32" x2="9.08" y2="19.240000000000002" stroke="#ffd60a" stroke-width="0.4045714285714286" stroke-linecap="round"/>
</svg>