<svg xmlns="http://www.w3.org/2000/svg" viewBox="0 0 23.240000000000002 18.16">
<rect x="6.540000000000001" y="14.16" width="10.16" height="10.16" stroke="#ffffff" stroke-width="0.3" fill="rgba(255,255,255,0.06)"/>
<line x1="10.096" y1="9.842" x2="10.350000000000001" y2="9.842" stroke="#ffffff" stroke-width="0.3" stroke-linecap="round" fill="none"/>
<polyline points="10.096,10.35 9.588000000000001,10.35 9.588000000000001,9.08 13.906,9.08" stroke="#ffffff" stroke-width="0.3" stroke-linejoin="round" stroke-linecap="round" fill="none"/>
<path d="M 11.620000000000001 6.286 A 1.4004802872502553 1.4004802872502553 0 0 1 10.858 7.556" stroke="#ffffff" stroke-width="0.3" fill="none"/>
<path d="M 12.382000000000001 7.556 A 1.4535602865672441 1.4535602865672441 0 0 1 11.620000000000001 6.286" stroke="#ffffff" stroke-width="0.3" fill="none"/>
<line x1="13.144000000000002" y1="9.842" x2="10.350000000000001" y2="9.842" stroke="#ffffff" stroke-width="0.3" stroke-linecap="round" fill="none"/>
<polyline points="13.144000000000002,9.842 13.652000000000001,9.842 13.652000000000001,11.112 9.334000000000001,11.112" stroke="#ffffff" stroke-width="0.3" stroke-linejoin="round" stroke-linecap="round" fill="none"/>
<line x1="13.144000000000002" y1="10.35" x2="10.096" y2="10.35" stroke="#ffffff" stroke-width="0.3" stroke-linecap="round" fill="none"/>
<line x1="4.000000000000001" y1="6.54" x2="6.540000000000001" y2="6.54" stroke="#ffd60a" stroke-width="0.332" stroke-linecap="round"/>
<line x1="4.000000000000001" y1="11.620000000000001" x2="6.540000000000001" y2="11.620000000000001" stroke="#ffd60a" stroke-width="0.332" stroke-linecap="round"/>
<line x1="19.240000000000002" y1="11.620000000000001" x2="16.700000000000003" y2="11.62" stroke="#ffd60a" stroke-width="0.332" stroke-linecap="round"/>
<line x1="19.240000000000002" y1="6.54" x2="16.700000000000003" y2="6.539999999999999" stroke="#ffd60a" stroke-width="0.332" stroke-linecap="round"/>
<line x1="4.000000000000001" y1="11.620000000000001" x2="6.540000000000001" y2="11.620000000000001" stroke="#ffd60a" stroke-width="0.332" stroke-linecap="round"/>
</svg>