<svg xmlns="http://www.w3.org/2000/svg" viewBox="0 0 320 520">
<rect x="50" y="50" width="220" height="420" stroke="#ffffff" stroke-width="1.5" fill="rgba(255,255,255,0.04)"/>
<text x="160" y="260" fill="#888" font-size="3" font-family="monospace" text-anchor="middle" dominant-baseline="middle">U</text>
<line x1="30" y1="67.5" x2="50" y2="67.5" stroke="#ffd60a" stroke-width="1.5" stroke-linecap="round"/>
<text x="55" y="67.5" fill="#ffd60a" font-size="2" font-family="monospace" text-anchor="start" dominant-baseline="middle">OUT0b</text>
<line x1="30" y1="102.5" x2="50" y2="102.5" stroke="#ffd60a" stroke-width="1.5" stroke-linecap="round"/>
<text x="55" y="102.5" fill="#ffd60a" font-size="2" font-family="monospace" text-anchor="start" dominant-baseline="middle">OUT0</text>
<line x1="30" y1="137.5" x2="50" y2="137.5" stroke="#ffd60a" stroke-width="1.5" stroke-linecap="round"/>
<text x="55" y="137.5" fill="#ffd60a" font-size="2" font-family="monospace" text-anchor="start" dominant-baseline="middle">NC</text>
<line x1="30" y1="172.5" x2="50" y2="172.5" stroke="#ffd60a" stroke-width="1.5" stroke-linecap="round"/>
<text x="55" y="172.5" fill="#ffd60a" font-size="2" font-family="monospace" text-anchor="start" dominant-baseline="middle">OUT1b</text>
<line x1="30" y1="207.5" x2="50" y2="207.5" stroke="#ffd60a" stroke-width="1.5" stroke-linecap="round"/>
<text x="55" y="207.5" fill="#ffd60a" font-size="2" font-family="monospace" text-anchor="start" dominant-baseline="middle">OUT1</text>
<line x1="30" y1="242.5" x2="50" y2="242.5" stroke="#ffd60a" stroke-width="1.5" stroke-linecap="round"/>
<text x="55" y="242.5" fill="#ffd60a" font-size="2" font-family="monospace" text-anchor="start" dominant-baseline="middle">~{LOL}</text>
<line x1="30" y1="277.5" x2="50" y2="277.5" stroke="#ffd60a" stroke-width="1.5" stroke-linecap="round"/>
<text x="55" y="277.5" fill="#ffd60a" font-size="2" font-family="monospace" text-anchor="start" dominant-baseline="middle">~{LOS_XAXB}</text>
<line x1="30" y1="312.5" x2="50" y2="312.5" stroke="#ffd60a" stroke-width="1.5" stroke-linecap="round"/>
<text x="55" y="312.5" fill="#ffd60a" font-size="2" font-family="monospace" text-anchor="start" dominant-baseline="middle">OUT2b</text>
<line x1="30" y1="347.5" x2="50" y2="347.5" stroke="#ffd60a" stroke-width="1.5" stroke-linecap="round"/>
<text x="55" y="347.5" fill="#ffd60a" font-size="2" font-family="monospace" text-anchor="start" dominant-baseline="middle">OUT2</text>
<line x1="30" y1="382.5" x2="50" y2="382.5" stroke="#ffd60a" stroke-width="1.5" stroke-linecap="round"/>
<text x="55" y="382.5" fill="#ffd60a" font-size="2" font-family="monospace" text-anchor="start" dominant-baseline="middle">~{INTR}</text>
<line x1="30" y1="417.5" x2="50" y2="417.5" stroke="#ffd60a" stroke-width="1.5" stroke-linecap="round"/>
<text x="55" y="417.5" fill="#ffd60a" font-size="2" font-family="monospace" text-anchor="start" dominant-baseline="middle">OUT3b</text>
<line x1="30" y1="452.5" x2="50" y2="452.5" stroke="#ffd60a" stroke-width="1.5" stroke-linecap="round"/>
<text x="55" y="452.5" fill="#ffd60a" font-size="2" font-family="monospace" text-anchor="start" dominant-baseline="middle">OUT3</text>
<line x1="290" y1="60" x2="270" y2="60" stroke="#ffd60a" stroke-width="1.5" stroke-linecap="round"/>
<text x="265" y="60" fill="#ffd60a" font-size="2" font-family="monospace" text-anchor="end" dominant-baseline="middle">IN1</text>
<line x1="290" y1="80" x2="270" y2="80" stroke="#ffd60a" stroke-width="1.5" stroke-linecap="round"/>
<text x="265" y="80" fill="#ffd60a" font-size="2" font-family="monospace" text-anchor="end" dominant-baseline="middle">IN1b</text>
<line x1="290" y1="100" x2="270" y2="100" stroke="#ffd60a" stroke-width="1.5" stroke-linecap="round"/>
<text x="265" y="100" fill="#ffd60a" font-size="2" font-family="monospace" text-anchor="end" dominant-baseline="middle">IN_SEL0</text>
<line x1="290" y1="120" x2="270" y2="120" stroke="#ffd60a" stroke-width="1.5" stroke-linecap="round"/>
<text x="265" y="120" fill="#ffd60a" font-size="2" font-family="monospace" text-anchor="end" dominant-baseline="middle">X1</text>
<line x1="290" y1="140" x2="270" y2="140" stroke="#ffd60a" stroke-width="1.5" stroke-linecap="round"/>
<text x="265" y="140" fill="#ffd60a" font-size="2" font-family="monospace" text-anchor="end" dominant-baseline="middle">XA</text>
<line x1="290" y1="160" x2="270" y2="160" stroke="#ffd60a" stroke-width="1.5" stroke-linecap="round"/>
<text x="265" y="160" fill="#ffd60a" font-size="2" font-family="monospace" text-anchor="end" dominant-baseline="middle">XB</text>
<line x1="290" y1="180" x2="270" y2="180" stroke="#ffd60a" stroke-width="1.5" stroke-linecap="round"/>
<text x="265" y="180" fill="#ffd60a" font-size="2" font-family="monospace" text-anchor="end" dominant-baseline="middle">X2</text>
<line x1="290" y1="200" x2="270" y2="200" stroke="#ffd60a" stroke-width="1.5" stroke-linecap="round"/>
<text x="265" y="200" fill="#ffd60a" font-size="2" font-family="monospace" text-anchor="end" dominant-baseline="middle">IN2</text>
<line x1="290" y1="220" x2="270" y2="220" stroke="#ffd60a" stroke-width="1.5" stroke-linecap="round"/>
<text x="265" y="220" fill="#ffd60a" font-size="2" font-family="monospace" text-anchor="end" dominant-baseline="middle">IN2b</text>
<line x1="290" y1="240" x2="270" y2="240" stroke="#ffd60a" stroke-width="1.5" stroke-linecap="round"/>
<text x="265" y="240" fill="#ffd60a" font-size="2" font-family="monospace" text-anchor="end" dominant-baseline="middle">~{OE}</text>
<line x1="290" y1="260" x2="270" y2="260" stroke="#ffd60a" stroke-width="1.5" stroke-linecap="round"/>
<text x="265" y="260" fill="#ffd60a" font-size="2" font-family="monospace" text-anchor="end" dominant-baseline="middle">SDA/SDIO</text>
<line x1="290" y1="280" x2="270" y2="280" stroke="#ffd60a" stroke-width="1.5" stroke-linecap="round"/>
<text x="265" y="280" fill="#ffd60a" font-size="2" font-family="monospace" text-anchor="end" dominant-baseline="middle">SCLK</text>
<line x1="290" y1="300" x2="270" y2="300" stroke="#ffd60a" stroke-width="1.5" stroke-linecap="round"/>
<text x="265" y="300" fill="#ffd60a" font-size="2" font-family="monospace" text-anchor="end" dominant-baseline="middle">A1/SDO</text>
<line x1="290" y1="320" x2="270" y2="320" stroke="#ffd60a" stroke-width="1.5" stroke-linecap="round"/>
<text x="265" y="320" fill="#ffd60a" font-size="2" font-family="monospace" text-anchor="end" dominant-baseline="middle">A0/~{CS}</text>
<line x1="290" y1="340" x2="270" y2="340" stroke="#ffd60a" stroke-width="1.5" stroke-linecap="round"/>
<text x="265" y="340" fill="#ffd60a" font-size="2" font-family="monospace" text-anchor="end" dominant-baseline="middle">~{RST}</text>
<line x1="290" y1="360" x2="270" y2="360" stroke="#ffd60a" stroke-width="1.5" stroke-linecap="round"/>
<text x="265" y="360" fill="#ffd60a" font-size="2" font-family="monospace" text-anchor="end" dominant-baseline="middle">IN_SEL1</text>
<line x1="290" y1="380" x2="270" y2="380" stroke="#ffd60a" stroke-width="1.5" stroke-linecap="round"/>
<text x="265" y="380" fill="#ffd60a" font-size="2" font-family="monospace" text-anchor="end" dominant-baseline="middle">I2C_SEL</text>
<line x1="290" y1="400" x2="270" y2="400" stroke="#ffd60a" stroke-width="1.5" stroke-linecap="round"/>
<text x="265" y="400" fill="#ffd60a" font-size="2" font-family="monospace" text-anchor="end" dominant-baseline="middle">IN3/FB_IN</text>
<line x1="290" y1="420" x2="270" y2="420" stroke="#ffd60a" stroke-width="1.5" stroke-linecap="round"/>
<text x="265" y="420" fill="#ffd60a" font-size="2" font-family="monospace" text-anchor="end" dominant-baseline="middle">IN3b/FB_INb</text>
<line x1="290" y1="440" x2="270" y2="440" stroke="#ffd60a" stroke-width="1.5" stroke-linecap="round"/>
<text x="265" y="440" fill="#ffd60a" font-size="2" font-family="monospace" text-anchor="end" dominant-baseline="middle">IN0</text>
<line x1="290" y1="460" x2="270" y2="460" stroke="#ffd60a" stroke-width="1.5" stroke-linecap="round"/>
<text x="265" y="460" fill="#ffd60a" font-size="2" font-family="monospace" text-anchor="end" dominant-baseline="middle">IN0b</text>
<line x1="160" y1="30" x2="160" y2="50" stroke="#ffd60a" stroke-width="1.5" stroke-linecap="round"/>
<text x="160" y="25" fill="#ffd60a" font-size="2" font-family="monospace" text-anchor="middle" dominant-baseline="middle">GND</text>
<line x1="60" y1="490" x2="60" y2="470" stroke="#ffd60a" stroke-width="1.5" stroke-linecap="round"/>
<text x="60" y="504" fill="#ffd60a" font-size="2" font-family="monospace" text-anchor="middle" dominant-baseline="middle">VDDA</text>
<line x1="80" y1="490" x2="80" y2="470" stroke="#ffd60a" stroke-width="1.5" stroke-linecap="round"/>
<text x="80" y="504" fill="#ffd60a" font-size="2" font-family="monospace" text-anchor="middle" dominant-baseline="middle">VDDA</text>
<line x1="100" y1="490" x2="100" y2="470" stroke="#ffd60a" stroke-width="1.5" stroke-linecap="round"/>
<text x="100" y="504" fill="#ffd60a" font-size="2" font-family="monospace" text-anchor="middle" dominant-baseline="middle">VDDO0</text>
<line x1="120" y1="490" x2="120" y2="470" stroke="#ffd60a" stroke-width="1.5" stroke-linecap="round"/>
<text x="120" y="504" fill="#ffd60a" font-size="2" font-family="monospace" text-anchor="middle" dominant-baseline="middle">VDD</text>
<line x1="140" y1="490" x2="140" y2="470" stroke="#ffd60a" stroke-width="1.5" stroke-linecap="round"/>
<text x="140" y="504" fill="#ffd60a" font-size="2" font-family="monospace" text-anchor="middle" dominant-baseline="middle">VDDO1</text>
<line x1="160" y1="490" x2="160" y2="470" stroke="#ffd60a" stroke-width="1.5" stroke-linecap="round"/>
<text x="160" y="504" fill="#ffd60a" font-size="2" font-family="monospace" text-anchor="middle" dominant-baseline="middle">VDDS</text>
<line x1="180" y1="490" x2="180" y2="470" stroke="#ffd60a" stroke-width="1.5" stroke-linecap="round"/>
<text x="180" y="504" fill="#ffd60a" font-size="2" font-family="monospace" text-anchor="middle" dominant-baseline="middle">VDDO2</text>
<line x1="200" y1="490" x2="200" y2="470" stroke="#ffd60a" stroke-width="1.5" stroke-linecap="round"/>
<text x="200" y="504" fill="#ffd60a" font-size="2" font-family="monospace" text-anchor="middle" dominant-baseline="middle">VDD</text>
<line x1="220" y1="490" x2="220" y2="470" stroke="#ffd60a" stroke-width="1.5" stroke-linecap="round"/>
<text x="220" y="504" fill="#ffd60a" font-size="2" font-family="monospace" text-anchor="middle" dominant-baseline="middle">VDDO3</text>
<line x1="240" y1="490" x2="240" y2="470" stroke="#ffd60a" stroke-width="1.5" stroke-linecap="round"/>
<text x="240" y="504" fill="#ffd60a" font-size="2" font-family="monospace" text-anchor="middle" dominant-baseline="middle">VDD</text>
<line x1="260" y1="490" x2="260" y2="470" stroke="#ffd60a" stroke-width="1.5" stroke-linecap="round"/>
<text x="260" y="504" fill="#ffd60a" font-size="2" font-family="monospace" text-anchor="middle" dominant-baseline="middle">VDD</text>
</svg>