<svg xmlns="http://www.w3.org/2000/svg" viewBox="0 0 36.4 23.240000000000002">
<polyline points="7,4 32.4,4 32.4,16.7 29.86,19.240000000000002 7,19.240000000000002 7,4" stroke="#ffffff" stroke-width="0.3" stroke-linejoin="round" stroke-linecap="round" fill="rgba(255,255,255,0.06)"/>
<rect x="15.89" y="10.350000000000001" width="3.81" height="1.27" stroke="#ffffff" stroke-width="0.3" fill="#ffffff"/>
<rect x="15.89" y="12.89" width="3.81" height="1.27" stroke="#ffffff" stroke-width="0.3" fill="#ffffff"/>
<rect x="15.89" y="15.43" width="3.81" height="1.27" stroke="#ffffff" stroke-width="0.3" fill="#ffffff"/>
<rect x="20.97" y="10.350000000000001" width="3.81" height="1.27" stroke="#ffffff" stroke-width="0.3" fill="#ffffff"/>
<rect x="20.97" y="12.89" width="3.81" height="1.27" stroke="#ffffff" stroke-width="0.3" fill="#ffffff"/>
<rect x="20.97" y="15.43" width="3.81" height="1.27" stroke="#ffffff" stroke-width="0.3" fill="#ffffff"/>
<line x1="4.460000000000001" y1="5.2700000000000005" x2="7" y2="5.2700000000000005" stroke="#ffd60a" stroke-width="0.52" stroke-linecap="round"/>
<text x="4" y="5.2700000000000005" fill="#ffd60a" font-size="1" font-family="monospace" text-anchor="start" dominant-baseline="middle">VCC</text>
<line x1="4.460000000000001" y1="7.8100000000000005" x2="7" y2="7.8100000000000005" stroke="#ffd60a" stroke-width="0.52" stroke-linecap="round"/>
<text x="4" y="7.8100000000000005" fill="#ffd60a" font-size="1" font-family="monospace" text-anchor="start" dominant-baseline="middle">RST</text>
<line x1="4.460000000000001" y1="10.350000000000001" x2="7" y2="10.350000000000001" stroke="#ffd60a" stroke-width="0.52" stroke-linecap="round"/>
<text x="4" y="10.350000000000001" fill="#ffd60a" font-size="1" font-family="monospace" text-anchor="start" dominant-baseline="middle">CLK</text>
<line x1="4.460000000000001" y1="12.89" x2="7" y2="12.89" stroke="#ffd60a" stroke-width="0.52" stroke-linecap="round"/>
<text x="4" y="12.89" fill="#ffd60a" font-size="1" font-family="monospace" text-anchor="start" dominant-baseline="middle">GND</text>
<line x1="4.460000000000001" y1="15.43" x2="7" y2="15.43" stroke="#ffd60a" stroke-width="0.52" stroke-linecap="round"/>
<text x="4" y="15.43" fill="#ffd60a" font-size="1" font-family="monospace" text-anchor="start" dominant-baseline="middle">VPP</text>
<line x1="4.460000000000001" y1="17.97" x2="7" y2="17.97" stroke="#ffd60a" stroke-width="0.52" stroke-linecap="round"/>
<text x="4" y="17.97" fill="#ffd60a" font-size="1" font-family="monospace" text-anchor="start" dominant-baseline="middle">I/O</text>
</svg>