<svg xmlns="http://www.w3.org/2000/svg" viewBox="0 0 38.480000000000004 16.636">
<polyline points="13.144000000000002,5.016 15.176000000000002,4 15.176000000000002,6.032 13.144000000000002,5.016" stroke="#ffffff" stroke-width="0.3" stroke-linejoin="round" stroke-linecap="round" fill="none"/>
<polyline points="13.652000000000001,6.032 13.144000000000002,6.032 13.144000000000002,4" stroke="#ffffff" stroke-width="0.3" stroke-linejoin="round" stroke-linecap="round" fill="none"/>
<circle cx="16.700000000000003" cy="5.016" r="0.254" stroke="#ffffff" stroke-width="0.3" fill="#ffffff"/>
<line x1="16.700000000000003" y1="7.556" x2="16.700000000000003" y2="5.016" stroke="#ffffff" stroke-width="0.3" stroke-linecap="round" fill="none"/>
<circle cx="21.78" cy="5.016" r="0.254" stroke="#ffffff" stroke-width="0.3" fill="#ffffff"/>
<line x1="21.78" y1="7.556" x2="21.78" y2="5.016" stroke="#ffffff" stroke-width="0.3" stroke-linecap="round" fill="none"/>
<polyline points="24.828000000000003,4 25.336000000000002,4 25.336000000000002,6.032" stroke="#ffffff" stroke-width="0.3" stroke-linejoin="round" stroke-linecap="round" fill="none"/>
<polyline points="25.336000000000002,5.016 23.304000000000002,4 23.304000000000002,6.032 25.336000000000002,5.016" stroke="#ffffff" stroke-width="0.3" stroke-linejoin="round" stroke-linecap="round" fill="none"/>
<line x1="29.400000000000002" y1="5.016" x2="9.080000000000002" y2="5.016" stroke="#ffffff" stroke-width="0.3" stroke-linecap="round" fill="none"/>
<line x1="21.78" y1="5.016" x2="19.240000000000002" y2="5.016" stroke="#ffd60a" stroke-width="0.5497142857142858" stroke-linecap="round"/>
<line x1="21.78" y1="12.636" x2="21.78" y2="7.556" stroke="#ffd60a" stroke-width="0.5497142857142858" stroke-linecap="round"/>
<text x="21.78" y="4.556" fill="#ffd60a" font-size="1" font-family="monospace" text-anchor="middle" dominant-baseline="middle">GND</text>
<line x1="16.700000000000003" y1="5.016" x2="19.240000000000002" y2="5.016" stroke="#ffd60a" stroke-width="0.5497142857142858" stroke-linecap="round"/>
<line x1="34.480000000000004" y1="5.016" x2="29.400000000000002" y2="5.015999999999999" stroke="#ffd60a" stroke-width="0.5497142857142858" stroke-linecap="round"/>
<text x="26.400000000000002" y="5.015999999999999" fill="#ffd60a" font-size="1" font-family="monospace" text-anchor="end" dominant-baseline="middle">B</text>
<line x1="16.700000000000003" y1="12.636" x2="16.700000000000003" y2="7.556" stroke="#ffd60a" stroke-width="0.5497142857142858" stroke-linecap="round"/>
<text x="16.700000000000003" y="4.556" fill="#ffd60a" font-size="1" font-family="monospace" text-anchor="middle" dominant-baseline="middle">GND</text>
<line x1="4.000000000000002" y1="5.016" x2="9.080000000000002" y2="5.016" stroke="#ffd60a" stroke-width="0.5497142857142858" stroke-linecap="round"/>
<text x="12.080000000000002" y="5.016" fill="#ffd60a" font-size="1" font-family="monospace" text-anchor="start" dominant-baseline="middle">A</text>
</svg>