<svg xmlns="http://www.w3.org/2000/svg" viewBox="0 0 17.985 19.08">
<line x1="9.793999999999999" y1="7.634999999999999" x2="9.793999999999999" y2="11.444999999999999" stroke="#ffffff" stroke-width="0.3" stroke-linecap="round" fill="none"/>
<line x1="9.793999999999999" y1="9.54" x2="6.999999999999999" y2="9.54" stroke="#ffffff" stroke-width="0.3" stroke-linecap="round" fill="none"/>
<line x1="10.302" y1="7.254" x2="10.302" y2="8.27" stroke="#ffffff" stroke-width="0.3" stroke-linecap="round" fill="none"/>
<line x1="10.302" y1="9.032" x2="10.302" y2="10.047999999999998" stroke="#ffffff" stroke-width="0.3" stroke-linecap="round" fill="none"/>
<line x1="10.302" y1="10.809999999999999" x2="10.302" y2="11.825999999999999" stroke="#ffffff" stroke-width="0.3" stroke-linecap="round" fill="none"/>
<polyline points="10.302,11.318 12.841999999999999,11.318 12.841999999999999,7.761999999999999 10.302,7.761999999999999" stroke="#ffffff" stroke-width="0.3" stroke-linejoin="round" stroke-linecap="round" fill="none"/>
<polyline points="10.556,9.54 11.572,9.158999999999999 11.572,9.921 10.556,9.54" stroke="#ffffff" stroke-width="0.3" stroke-linejoin="round" stroke-linecap="round" fill="#ffffff"/>
<circle cx="11.190999999999999" cy="9.54" r="2.794" stroke="#ffffff" stroke-width="0.3" fill="none"/>
<line x1="12.079999999999998" y1="6.999999999999999" x2="12.079999999999998" y2="7.761999999999999" stroke="#ffffff" stroke-width="0.3" stroke-linecap="round" fill="none"/>
<circle cx="12.079999999999998" cy="7.761999999999999" r="0.254" stroke="#ffffff" stroke-width="0.3" fill="#ffffff"/>
<circle cx="12.079999999999998" cy="11.318" r="0.254" stroke="#ffffff" stroke-width="0.3" fill="#ffffff"/>
<polyline points="12.079999999999998,12.079999999999998 12.079999999999998,9.54 10.302,9.54" stroke="#ffffff" stroke-width="0.3" stroke-linejoin="round" stroke-linecap="round" fill="none"/>
<polyline points="12.334,9.032 12.460999999999999,9.158999999999999 13.222999999999999,9.158999999999999 13.35,9.286" stroke="#ffffff" stroke-width="0.3" stroke-linejoin="round" stroke-linecap="round" fill="none"/>
<polyline points="12.841999999999999,9.158999999999999 12.460999999999999,9.793999999999999 13.222999999999999,9.793999999999999 12.841999999999999,9.158999999999999" stroke="#ffffff" stroke-width="0.3" stroke-linejoin="round" stroke-linecap="round" fill="none"/>
<line x1="4.459999999999999" y1="9.54" x2="6.999999999999999" y2="9.54" stroke="#ffd60a" stroke-width="0.2725714285714285" stroke-linecap="round"/>
<text x="3.999999999999999" y="9.54" fill="#ffd60a" font-size="1" font-family="monospace" text-anchor="start" dominant-baseline="middle">G</text>
<line x1="12.079999999999998" y1="14.62" x2="12.079999999999998" y2="12.079999999999998" stroke="#ffd60a" stroke-width="0.2725714285714285" stroke-linecap="round"/>
<text x="12.079999999999998" y="15.079999999999998" fill="#ffd60a" font-size="1" font-family="monospace" text-anchor="middle" dominant-baseline="middle">S</text>
<line x1="12.079999999999998" y1="14.62" x2="12.079999999999998" y2="12.079999999999998" stroke="#ffd60a" stroke-width="0.2725714285714285" stroke-linecap="round"/>
<text x="12.079999999999998" y="15.079999999999998" fill="#ffd60a" font-size="1" font-family="monospace" text-anchor="middle" dominant-baseline="middle">S</text>
<line x1="12.079999999999998" y1="14.62" x2="12.079999999999998" y2="12.079999999999998" stroke="#ffd60a" stroke-width="0.2725714285714285" stroke-linecap="round"/>
<text x="12.079999999999998" y="15.079999999999998" fill="#ffd60a" font-size="1" font-family="monospace" text-anchor="middle" dominant-baseline="middle">S</text>
<line x1="12.079999999999998" y1="4.459999999999999" x2="12.079999999999998" y2="6.999999999999999" stroke="#ffd60a" stroke-width="0.2725714285714285" stroke-linecap="round"/>
<text x="12.079999999999998" y="3.999999999999999" fill="#ffd60a" font-size="1" font-family="monospace" text-anchor="middle" dominant-baseline="middle">D</text>
</svg>