<svg xmlns="http://www.w3.org/2000/svg" viewBox="0 0 200 420">
<rect x="50" y="50" width="100" height="320" stroke="#ffffff" stroke-width="1.5" fill="rgba(255,255,255,0.04)"/>
<text x="100" y="210" fill="#888" font-size="3" font-family="monospace" text-anchor="middle" dominant-baseline="middle">U</text>
<line x1="30" y1="60" x2="50" y2="60" stroke="#ffd60a" stroke-width="1.5" stroke-linecap="round"/>
<text x="55" y="60" fill="#ffd60a" font-size="2" font-family="monospace" text-anchor="start" dominant-baseline="middle">VSP_D</text>
<line x1="30" y1="80" x2="50" y2="80" stroke="#ffd60a" stroke-width="1.5" stroke-linecap="round"/>
<text x="55" y="80" fill="#ffd60a" font-size="2" font-family="monospace" text-anchor="start" dominant-baseline="middle">VSP_A</text>
<line x1="30" y1="100" x2="50" y2="100" stroke="#ffd60a" stroke-width="1.5" stroke-linecap="round"/>
<text x="55" y="100" fill="#ffd60a" font-size="2" font-family="monospace" text-anchor="start" dominant-baseline="middle">VSP_RF</text>
<line x1="30" y1="120" x2="50" y2="120" stroke="#ffd60a" stroke-width="1.5" stroke-linecap="round"/>
<text x="55" y="120" fill="#ffd60a" font-size="2" font-family="monospace" text-anchor="start" dominant-baseline="middle">RFO1</text>
<line x1="30" y1="140" x2="50" y2="140" stroke="#ffd60a" stroke-width="1.5" stroke-linecap="round"/>
<text x="55" y="140" fill="#ffd60a" font-size="2" font-family="monospace" text-anchor="start" dominant-baseline="middle">RFO2</text>
<line x1="30" y1="160" x2="50" y2="160" stroke="#ffd60a" stroke-width="1.5" stroke-linecap="round"/>
<text x="55" y="160" fill="#ffd60a" font-size="2" font-family="monospace" text-anchor="start" dominant-baseline="middle">TRIM1_3</text>
<line x1="30" y1="180" x2="50" y2="180" stroke="#ffd60a" stroke-width="1.5" stroke-linecap="round"/>
<text x="55" y="180" fill="#ffd60a" font-size="2" font-family="monospace" text-anchor="start" dominant-baseline="middle">TRIM2_3</text>
<line x1="30" y1="200" x2="50" y2="200" stroke="#ffd60a" stroke-width="1.5" stroke-linecap="round"/>
<text x="55" y="200" fill="#ffd60a" font-size="2" font-family="monospace" text-anchor="start" dominant-baseline="middle">TRIM1_2</text>
<line x1="30" y1="220" x2="50" y2="220" stroke="#ffd60a" stroke-width="1.5" stroke-linecap="round"/>
<text x="55" y="220" fill="#ffd60a" font-size="2" font-family="monospace" text-anchor="start" dominant-baseline="middle">TRIM2_2</text>
<line x1="30" y1="240" x2="50" y2="240" stroke="#ffd60a" stroke-width="1.5" stroke-linecap="round"/>
<text x="55" y="240" fill="#ffd60a" font-size="2" font-family="monospace" text-anchor="start" dominant-baseline="middle">TRIM1_1</text>
<line x1="30" y1="260" x2="50" y2="260" stroke="#ffd60a" stroke-width="1.5" stroke-linecap="round"/>
<text x="55" y="260" fill="#ffd60a" font-size="2" font-family="monospace" text-anchor="start" dominant-baseline="middle">TRIM2_1</text>
<line x1="30" y1="280" x2="50" y2="280" stroke="#ffd60a" stroke-width="1.5" stroke-linecap="round"/>
<text x="55" y="280" fill="#ffd60a" font-size="2" font-family="monospace" text-anchor="start" dominant-baseline="middle">TRIM1_0</text>
<line x1="30" y1="300" x2="50" y2="300" stroke="#ffd60a" stroke-width="1.5" stroke-linecap="round"/>
<text x="55" y="300" fill="#ffd60a" font-size="2" font-family="monospace" text-anchor="start" dominant-baseline="middle">TRIM2_0</text>
<line x1="30" y1="320" x2="50" y2="320" stroke="#ffd60a" stroke-width="1.5" stroke-linecap="round"/>
<text x="55" y="320" fill="#ffd60a" font-size="2" font-family="monospace" text-anchor="start" dominant-baseline="middle">RFI1</text>
<line x1="30" y1="340" x2="50" y2="340" stroke="#ffd60a" stroke-width="1.5" stroke-linecap="round"/>
<text x="55" y="340" fill="#ffd60a" font-size="2" font-family="monospace" text-anchor="start" dominant-baseline="middle">RFI2</text>
<line x1="30" y1="360" x2="50" y2="360" stroke="#ffd60a" stroke-width="1.5" stroke-linecap="round"/>
<text x="55" y="360" fill="#ffd60a" font-size="2" font-family="monospace" text-anchor="start" dominant-baseline="middle">AGD</text>
<line x1="170" y1="66" x2="150" y2="66" stroke="#ffd60a" stroke-width="1.5" stroke-linecap="round"/>
<text x="145" y="66" fill="#ffd60a" font-size="2" font-family="monospace" text-anchor="end" dominant-baseline="middle">CSO</text>
<line x1="170" y1="98" x2="150" y2="98" stroke="#ffd60a" stroke-width="1.5" stroke-linecap="round"/>
<text x="145" y="98" fill="#ffd60a" font-size="2" font-family="monospace" text-anchor="end" dominant-baseline="middle">XTO</text>
<line x1="170" y1="130" x2="150" y2="130" stroke="#ffd60a" stroke-width="1.5" stroke-linecap="round"/>
<text x="145" y="130" fill="#ffd60a" font-size="2" font-family="monospace" text-anchor="end" dominant-baseline="middle">XTI</text>
<line x1="170" y1="162" x2="150" y2="162" stroke="#ffd60a" stroke-width="1.5" stroke-linecap="round"/>
<text x="145" y="162" fill="#ffd60a" font-size="2" font-family="monospace" text-anchor="end" dominant-baseline="middle">CSI</text>
<line x1="170" y1="194" x2="150" y2="194" stroke="#ffd60a" stroke-width="1.5" stroke-linecap="round"/>
<text x="145" y="194" fill="#ffd60a" font-size="2" font-family="monospace" text-anchor="end" dominant-baseline="middle">IRQ</text>
<line x1="170" y1="226" x2="150" y2="226" stroke="#ffd60a" stroke-width="1.5" stroke-linecap="round"/>
<text x="145" y="226" fill="#ffd60a" font-size="2" font-family="monospace" text-anchor="end" dominant-baseline="middle">MCU_CLK</text>
<line x1="170" y1="258" x2="150" y2="258" stroke="#ffd60a" stroke-width="1.5" stroke-linecap="round"/>
<text x="145" y="258" fill="#ffd60a" font-size="2" font-family="monospace" text-anchor="end" dominant-baseline="middle">MISO</text>
<line x1="170" y1="290" x2="150" y2="290" stroke="#ffd60a" stroke-width="1.5" stroke-linecap="round"/>
<text x="145" y="290" fill="#ffd60a" font-size="2" font-family="monospace" text-anchor="end" dominant-baseline="middle">MOSI</text>
<line x1="170" y1="322" x2="150" y2="322" stroke="#ffd60a" stroke-width="1.5" stroke-linecap="round"/>
<text x="145" y="322" fill="#ffd60a" font-size="2" font-family="monospace" text-anchor="end" dominant-baseline="middle">SCLK</text>
<line x1="170" y1="354" x2="150" y2="354" stroke="#ffd60a" stroke-width="1.5" stroke-linecap="round"/>
<text x="145" y="354" fill="#ffd60a" font-size="2" font-family="monospace" text-anchor="end" dominant-baseline="middle">/SS</text>
<line x1="60" y1="30" x2="60" y2="50" stroke="#ffd60a" stroke-width="1.5" stroke-linecap="round"/>
<text x="60" y="25" fill="#ffd60a" font-size="2" font-family="monospace" text-anchor="middle" dominant-baseline="middle">VSN_D</text>
<line x1="80" y1="30" x2="80" y2="50" stroke="#ffd60a" stroke-width="1.5" stroke-linecap="round"/>
<text x="80" y="25" fill="#ffd60a" font-size="2" font-family="monospace" text-anchor="middle" dominant-baseline="middle">VSN_RF</text>
<line x1="100" y1="30" x2="100" y2="50" stroke="#ffd60a" stroke-width="1.5" stroke-linecap="round"/>
<text x="100" y="25" fill="#ffd60a" font-size="2" font-family="monospace" text-anchor="middle" dominant-baseline="middle">VSS</text>
<line x1="120" y1="30" x2="120" y2="50" stroke="#ffd60a" stroke-width="1.5" stroke-linecap="round"/>
<text x="120" y="25" fill="#ffd60a" font-size="2" font-family="monospace" text-anchor="middle" dominant-baseline="middle">VSN_A</text>
<line x1="140" y1="30" x2="140" y2="50" stroke="#ffd60a" stroke-width="1.5" stroke-linecap="round"/>
<text x="140" y="25" fill="#ffd60a" font-size="2" font-family="monospace" text-anchor="middle" dominant-baseline="middle">EP</text>
<line x1="75" y1="390" x2="75" y2="370" stroke="#ffd60a" stroke-width="1.5" stroke-linecap="round"/>
<text x="75" y="404" fill="#ffd60a" font-size="2" font-family="monospace" text-anchor="middle" dominant-baseline="middle">VDD_IO</text>
<line x1="125" y1="390" x2="125" y2="370" stroke="#ffd60a" stroke-width="1.5" stroke-linecap="round"/>
<text x="125" y="404" fill="#ffd60a" font-size="2" font-family="monospace" text-anchor="middle" dominant-baseline="middle">VDD</text>
</svg>