<svg xmlns="http://www.w3.org/2000/svg" viewBox="0 0 17.1694 19.08">
<line x1="7.8100000000000005" y1="9.54" x2="8.064" y2="9.54" stroke="#ffffff" stroke-width="0.3" stroke-linecap="round" fill="none"/>
<circle cx="10.096" cy="9.54" r="3.0734" stroke="#ffffff" stroke-width="0.3" fill="none"/>
<line x1="10.35" y1="7.126999999999999" x2="11.620000000000001" y2="7.126999999999999" stroke="#ffffff" stroke-width="0.3" stroke-linecap="round" fill="none"/>
<line x1="10.35" y1="11.953" x2="11.620000000000001" y2="11.953" stroke="#ffffff" stroke-width="0.3" stroke-linecap="round" fill="none"/>
<line x1="11.112" y1="8.905" x2="12.128" y2="8.905" stroke="#ffffff" stroke-width="0.3" stroke-linecap="round" fill="none"/>
<line x1="11.620000000000001" y1="5.729999999999999" x2="11.620000000000001" y2="13.35" stroke="#ffffff" stroke-width="0.3" stroke-linecap="round" fill="none"/>
<polyline points="11.620000000000001,8.905 11.112,10.174999999999999 12.128,10.174999999999999 11.620000000000001,8.905" stroke="#ffffff" stroke-width="0.3" stroke-linejoin="round" stroke-linecap="round" fill="#ffffff"/>
<polyline points="8.064,7.634999999999999 8.064,11.444999999999999 8.064,11.444999999999999" stroke="#ffffff" stroke-width="0.3" stroke-linejoin="round" stroke-linecap="round" fill="none"/>
<line x1="8.572" y1="7.507999999999999" x2="8.572" y2="8.524" stroke="#ffffff" stroke-width="0.3" stroke-linecap="round" fill="none"/>
<line x1="8.572" y1="9.032" x2="8.572" y2="10.047999999999998" stroke="#ffffff" stroke-width="0.3" stroke-linecap="round" fill="none"/>
<line x1="8.572" y1="10.556" x2="8.572" y2="11.572" stroke="#ffffff" stroke-width="0.3" stroke-linecap="round" fill="none"/>
<polyline points="8.953,11.572 9.207,11.064 10.096,11.825999999999999 8.953,11.572" stroke="#ffffff" stroke-width="0.3" stroke-linejoin="round" stroke-linecap="round" fill="#ffffff"/>
<polyline points="9.969,7.634999999999999 9.715,7.126999999999999 8.826,7.888999999999999 9.969,7.634999999999999" stroke="#ffffff" stroke-width="0.3" stroke-linejoin="round" stroke-linecap="round" fill="#ffffff"/>
<line x1="10.35" y1="7.126999999999999" x2="8.572" y2="8.015999999999998" stroke="#ffffff" stroke-width="0.3" stroke-linecap="round" fill="none"/>
<line x1="10.35" y1="10.428999999999998" x2="8.572" y2="9.54" stroke="#ffffff" stroke-width="0.3" stroke-linecap="round" fill="none"/>
<line x1="10.35" y1="11.953" x2="8.572" y2="11.064" stroke="#ffffff" stroke-width="0.3" stroke-linecap="round" fill="none"/>
<line x1="4" y1="9.54" x2="7.8100000000000005" y2="9.54" stroke="#ffd60a" stroke-width="0.2725714285714285" stroke-linecap="round"/>
<text x="10.81" y="9.54" fill="#ffd60a" font-size="1" font-family="monospace" text-anchor="start" dominant-baseline="middle">G</text>
<line x1="11.620000000000001" y1="4.459999999999999" x2="11.62" y2="6.999999999999999" stroke="#ffd60a" stroke-width="0.2725714285714285" stroke-linecap="round"/>
<text x="11.620000000000001" y="3.999999999999999" fill="#ffd60a" font-size="1" font-family="monospace" text-anchor="middle" dominant-baseline="middle">C</text>
<line x1="11.620000000000001" y1="14.62" x2="11.620000000000001" y2="12.079999999999998" stroke="#ffd60a" stroke-width="0.2725714285714285" stroke-linecap="round"/>
<text x="11.620000000000001" y="15.079999999999998" fill="#ffd60a" font-size="1" font-family="monospace" text-anchor="middle" dominant-baseline="middle">E</text>
</svg>