<svg xmlns="http://www.w3.org/2000/svg" viewBox="0 0 260 480">
<rect x="50" y="50" width="160" height="380" stroke="#ffffff" stroke-width="1.5" fill="rgba(255,255,255,0.04)"/>
<text x="130" y="240" fill="#888" font-size="3" font-family="monospace" text-anchor="middle" dominant-baseline="middle">U</text>
<line x1="30" y1="61.875" x2="50" y2="61.875" stroke="#ffd60a" stroke-width="1.5" stroke-linecap="round"/>
<text x="55" y="61.875" fill="#ffd60a" font-size="2" font-family="monospace" text-anchor="start" dominant-baseline="middle">PA0</text>
<line x1="30" y1="85.625" x2="50" y2="85.625" stroke="#ffd60a" stroke-width="1.5" stroke-linecap="round"/>
<text x="55" y="85.625" fill="#ffd60a" font-size="2" font-family="monospace" text-anchor="start" dominant-baseline="middle">PA1</text>
<line x1="30" y1="109.375" x2="50" y2="109.375" stroke="#ffd60a" stroke-width="1.5" stroke-linecap="round"/>
<text x="55" y="109.375" fill="#ffd60a" font-size="2" font-family="monospace" text-anchor="start" dominant-baseline="middle">PA2</text>
<line x1="30" y1="133.125" x2="50" y2="133.125" stroke="#ffd60a" stroke-width="1.5" stroke-linecap="round"/>
<text x="55" y="133.125" fill="#ffd60a" font-size="2" font-family="monospace" text-anchor="start" dominant-baseline="middle">PA3</text>
<line x1="30" y1="156.875" x2="50" y2="156.875" stroke="#ffd60a" stroke-width="1.5" stroke-linecap="round"/>
<text x="55" y="156.875" fill="#ffd60a" font-size="2" font-family="monospace" text-anchor="start" dominant-baseline="middle">PA4</text>
<line x1="30" y1="180.625" x2="50" y2="180.625" stroke="#ffd60a" stroke-width="1.5" stroke-linecap="round"/>
<text x="55" y="180.625" fill="#ffd60a" font-size="2" font-family="monospace" text-anchor="start" dominant-baseline="middle">PA5</text>
<line x1="30" y1="204.375" x2="50" y2="204.375" stroke="#ffd60a" stroke-width="1.5" stroke-linecap="round"/>
<text x="55" y="204.375" fill="#ffd60a" font-size="2" font-family="monospace" text-anchor="start" dominant-baseline="middle">PA6</text>
<line x1="30" y1="228.125" x2="50" y2="228.125" stroke="#ffd60a" stroke-width="1.5" stroke-linecap="round"/>
<text x="55" y="228.125" fill="#ffd60a" font-size="2" font-family="monospace" text-anchor="start" dominant-baseline="middle">PA7</text>
<line x1="30" y1="251.875" x2="50" y2="251.875" stroke="#ffd60a" stroke-width="1.5" stroke-linecap="round"/>
<text x="55" y="251.875" fill="#ffd60a" font-size="2" font-family="monospace" text-anchor="start" dominant-baseline="middle">PA8</text>
<line x1="30" y1="275.625" x2="50" y2="275.625" stroke="#ffd60a" stroke-width="1.5" stroke-linecap="round"/>
<text x="55" y="275.625" fill="#ffd60a" font-size="2" font-family="monospace" text-anchor="start" dominant-baseline="middle">PA9</text>
<line x1="30" y1="299.375" x2="50" y2="299.375" stroke="#ffd60a" stroke-width="1.5" stroke-linecap="round"/>
<text x="55" y="299.375" fill="#ffd60a" font-size="2" font-family="monospace" text-anchor="start" dominant-baseline="middle">PA10</text>
<line x1="30" y1="323.125" x2="50" y2="323.125" stroke="#ffd60a" stroke-width="1.5" stroke-linecap="round"/>
<text x="55" y="323.125" fill="#ffd60a" font-size="2" font-family="monospace" text-anchor="start" dominant-baseline="middle">PA11</text>
<line x1="30" y1="346.875" x2="50" y2="346.875" stroke="#ffd60a" stroke-width="1.5" stroke-linecap="round"/>
<text x="55" y="346.875" fill="#ffd60a" font-size="2" font-family="monospace" text-anchor="start" dominant-baseline="middle">PA12</text>
<line x1="30" y1="370.625" x2="50" y2="370.625" stroke="#ffd60a" stroke-width="1.5" stroke-linecap="round"/>
<text x="55" y="370.625" fill="#ffd60a" font-size="2" font-family="monospace" text-anchor="start" dominant-baseline="middle">PA13</text>
<line x1="30" y1="394.375" x2="50" y2="394.375" stroke="#ffd60a" stroke-width="1.5" stroke-linecap="round"/>
<text x="55" y="394.375" fill="#ffd60a" font-size="2" font-family="monospace" text-anchor="start" dominant-baseline="middle">PA14</text>
<line x1="30" y1="418.125" x2="50" y2="418.125" stroke="#ffd60a" stroke-width="1.5" stroke-linecap="round"/>
<text x="55" y="418.125" fill="#ffd60a" font-size="2" font-family="monospace" text-anchor="start" dominant-baseline="middle">PA15</text>
<line x1="230" y1="60" x2="210" y2="60" stroke="#ffd60a" stroke-width="1.5" stroke-linecap="round"/>
<text x="205" y="60" fill="#ffd60a" font-size="2" font-family="monospace" text-anchor="end" dominant-baseline="middle">PC13</text>
<line x1="230" y1="80" x2="210" y2="80" stroke="#ffd60a" stroke-width="1.5" stroke-linecap="round"/>
<text x="205" y="80" fill="#ffd60a" font-size="2" font-family="monospace" text-anchor="end" dominant-baseline="middle">PC14</text>
<line x1="230" y1="100" x2="210" y2="100" stroke="#ffd60a" stroke-width="1.5" stroke-linecap="round"/>
<text x="205" y="100" fill="#ffd60a" font-size="2" font-family="monospace" text-anchor="end" dominant-baseline="middle">PC15</text>
<line x1="230" y1="120" x2="210" y2="120" stroke="#ffd60a" stroke-width="1.5" stroke-linecap="round"/>
<text x="205" y="120" fill="#ffd60a" font-size="2" font-family="monospace" text-anchor="end" dominant-baseline="middle">PH0</text>
<line x1="230" y1="140" x2="210" y2="140" stroke="#ffd60a" stroke-width="1.5" stroke-linecap="round"/>
<text x="205" y="140" fill="#ffd60a" font-size="2" font-family="monospace" text-anchor="end" dominant-baseline="middle">PH1</text>
<line x1="230" y1="160" x2="210" y2="160" stroke="#ffd60a" stroke-width="1.5" stroke-linecap="round"/>
<text x="205" y="160" fill="#ffd60a" font-size="2" font-family="monospace" text-anchor="end" dominant-baseline="middle">NRST</text>
<line x1="230" y1="180" x2="210" y2="180" stroke="#ffd60a" stroke-width="1.5" stroke-linecap="round"/>
<text x="205" y="180" fill="#ffd60a" font-size="2" font-family="monospace" text-anchor="end" dominant-baseline="middle">PB0</text>
<line x1="230" y1="200" x2="210" y2="200" stroke="#ffd60a" stroke-width="1.5" stroke-linecap="round"/>
<text x="205" y="200" fill="#ffd60a" font-size="2" font-family="monospace" text-anchor="end" dominant-baseline="middle">PB1</text>
<line x1="230" y1="220" x2="210" y2="220" stroke="#ffd60a" stroke-width="1.5" stroke-linecap="round"/>
<text x="205" y="220" fill="#ffd60a" font-size="2" font-family="monospace" text-anchor="end" dominant-baseline="middle">VLXSMPS</text>
<line x1="230" y1="240" x2="210" y2="240" stroke="#ffd60a" stroke-width="1.5" stroke-linecap="round"/>
<text x="205" y="240" fill="#ffd60a" font-size="2" font-family="monospace" text-anchor="end" dominant-baseline="middle">PB13</text>
<line x1="230" y1="260" x2="210" y2="260" stroke="#ffd60a" stroke-width="1.5" stroke-linecap="round"/>
<text x="205" y="260" fill="#ffd60a" font-size="2" font-family="monospace" text-anchor="end" dominant-baseline="middle">PB14</text>
<line x1="230" y1="280" x2="210" y2="280" stroke="#ffd60a" stroke-width="1.5" stroke-linecap="round"/>
<text x="205" y="280" fill="#ffd60a" font-size="2" font-family="monospace" text-anchor="end" dominant-baseline="middle">PB15</text>
<line x1="230" y1="300" x2="210" y2="300" stroke="#ffd60a" stroke-width="1.5" stroke-linecap="round"/>
<text x="205" y="300" fill="#ffd60a" font-size="2" font-family="monospace" text-anchor="end" dominant-baseline="middle">PB3</text>
<line x1="230" y1="320" x2="210" y2="320" stroke="#ffd60a" stroke-width="1.5" stroke-linecap="round"/>
<text x="205" y="320" fill="#ffd60a" font-size="2" font-family="monospace" text-anchor="end" dominant-baseline="middle">PB4</text>
<line x1="230" y1="340" x2="210" y2="340" stroke="#ffd60a" stroke-width="1.5" stroke-linecap="round"/>
<text x="205" y="340" fill="#ffd60a" font-size="2" font-family="monospace" text-anchor="end" dominant-baseline="middle">PB5</text>
<line x1="230" y1="360" x2="210" y2="360" stroke="#ffd60a" stroke-width="1.5" stroke-linecap="round"/>
<text x="205" y="360" fill="#ffd60a" font-size="2" font-family="monospace" text-anchor="end" dominant-baseline="middle">PB6</text>
<line x1="230" y1="380" x2="210" y2="380" stroke="#ffd60a" stroke-width="1.5" stroke-linecap="round"/>
<text x="205" y="380" fill="#ffd60a" font-size="2" font-family="monospace" text-anchor="end" dominant-baseline="middle">PB7</text>
<line x1="230" y1="400" x2="210" y2="400" stroke="#ffd60a" stroke-width="1.5" stroke-linecap="round"/>
<text x="205" y="400" fill="#ffd60a" font-size="2" font-family="monospace" text-anchor="end" dominant-baseline="middle">PH3</text>
<line x1="230" y1="420" x2="210" y2="420" stroke="#ffd60a" stroke-width="1.5" stroke-linecap="round"/>
<text x="205" y="420" fill="#ffd60a" font-size="2" font-family="monospace" text-anchor="end" dominant-baseline="middle">PB8</text>
<line x1="66" y1="30" x2="66" y2="50" stroke="#ffd60a" stroke-width="1.5" stroke-linecap="round"/>
<text x="66" y="25" fill="#ffd60a" font-size="2" font-family="monospace" text-anchor="middle" dominant-baseline="middle">VSSA</text>
<line x1="98" y1="30" x2="98" y2="50" stroke="#ffd60a" stroke-width="1.5" stroke-linecap="round"/>
<text x="98" y="25" fill="#ffd60a" font-size="2" font-family="monospace" text-anchor="middle" dominant-baseline="middle">VSSSMPS</text>
<line x1="130" y1="30" x2="130" y2="50" stroke="#ffd60a" stroke-width="1.5" stroke-linecap="round"/>
<text x="130" y="25" fill="#ffd60a" font-size="2" font-family="monospace" text-anchor="middle" dominant-baseline="middle">VSS</text>
<line x1="162" y1="30" x2="162" y2="50" stroke="#ffd60a" stroke-width="1.5" stroke-linecap="round"/>
<text x="162" y="25" fill="#ffd60a" font-size="2" font-family="monospace" text-anchor="middle" dominant-baseline="middle">VSS</text>
<line x1="194" y1="30" x2="194" y2="50" stroke="#ffd60a" stroke-width="1.5" stroke-linecap="round"/>
<text x="194" y="25" fill="#ffd60a" font-size="2" font-family="monospace" text-anchor="middle" dominant-baseline="middle">VSS</text>
<line x1="60" y1="450" x2="60" y2="430" stroke="#ffd60a" stroke-width="1.5" stroke-linecap="round"/>
<text x="60" y="464" fill="#ffd60a" font-size="2" font-family="monospace" text-anchor="middle" dominant-baseline="middle">VBAT</text>
<line x1="80" y1="450" x2="80" y2="430" stroke="#ffd60a" stroke-width="1.5" stroke-linecap="round"/>
<text x="80" y="464" fill="#ffd60a" font-size="2" font-family="monospace" text-anchor="middle" dominant-baseline="middle">VDDA</text>
<line x1="100" y1="450" x2="100" y2="430" stroke="#ffd60a" stroke-width="1.5" stroke-linecap="round"/>
<text x="100" y="464" fill="#ffd60a" font-size="2" font-family="monospace" text-anchor="middle" dominant-baseline="middle">VDDSMPS</text>
<line x1="120" y1="450" x2="120" y2="430" stroke="#ffd60a" stroke-width="1.5" stroke-linecap="round"/>
<text x="120" y="464" fill="#ffd60a" font-size="2" font-family="monospace" text-anchor="middle" dominant-baseline="middle">VDD11</text>
<line x1="140" y1="450" x2="140" y2="430" stroke="#ffd60a" stroke-width="1.5" stroke-linecap="round"/>
<text x="140" y="464" fill="#ffd60a" font-size="2" font-family="monospace" text-anchor="middle" dominant-baseline="middle">VDD</text>
<line x1="160" y1="450" x2="160" y2="430" stroke="#ffd60a" stroke-width="1.5" stroke-linecap="round"/>
<text x="160" y="464" fill="#ffd60a" font-size="2" font-family="monospace" text-anchor="middle" dominant-baseline="middle">VDD</text>
<line x1="180" y1="450" x2="180" y2="430" stroke="#ffd60a" stroke-width="1.5" stroke-linecap="round"/>
<text x="180" y="464" fill="#ffd60a" font-size="2" font-family="monospace" text-anchor="middle" dominant-baseline="middle">VDD11</text>
<line x1="200" y1="450" x2="200" y2="430" stroke="#ffd60a" stroke-width="1.5" stroke-linecap="round"/>
<text x="200" y="464" fill="#ffd60a" font-size="2" font-family="monospace" text-anchor="middle" dominant-baseline="middle">VDD</text>
</svg>