<svg xmlns="http://www.w3.org/2000/svg" viewBox="0 0 220 700">
<rect x="50" y="50" width="120" height="600" stroke="#ffffff" stroke-width="1.5" fill="rgba(255,255,255,0.04)"/>
<text x="110" y="350" fill="#888" font-size="3" font-family="monospace" text-anchor="middle" dominant-baseline="middle">U</text>
<line x1="30" y1="60" x2="50" y2="60" stroke="#ffd60a" stroke-width="1.5" stroke-linecap="round"/>
<text x="55" y="60" fill="#ffd60a" font-size="2" font-family="monospace" text-anchor="start" dominant-baseline="middle">PE2</text>
<line x1="30" y1="80" x2="50" y2="80" stroke="#ffd60a" stroke-width="1.5" stroke-linecap="round"/>
<text x="55" y="80" fill="#ffd60a" font-size="2" font-family="monospace" text-anchor="start" dominant-baseline="middle">PE3</text>
<line x1="30" y1="100" x2="50" y2="100" stroke="#ffd60a" stroke-width="1.5" stroke-linecap="round"/>
<text x="55" y="100" fill="#ffd60a" font-size="2" font-family="monospace" text-anchor="start" dominant-baseline="middle">PE4</text>
<line x1="30" y1="120" x2="50" y2="120" stroke="#ffd60a" stroke-width="1.5" stroke-linecap="round"/>
<text x="55" y="120" fill="#ffd60a" font-size="2" font-family="monospace" text-anchor="start" dominant-baseline="middle">PE5</text>
<line x1="30" y1="140" x2="50" y2="140" stroke="#ffd60a" stroke-width="1.5" stroke-linecap="round"/>
<text x="55" y="140" fill="#ffd60a" font-size="2" font-family="monospace" text-anchor="start" dominant-baseline="middle">PD0</text>
<line x1="30" y1="160" x2="50" y2="160" stroke="#ffd60a" stroke-width="1.5" stroke-linecap="round"/>
<text x="55" y="160" fill="#ffd60a" font-size="2" font-family="monospace" text-anchor="start" dominant-baseline="middle">PD1</text>
<line x1="30" y1="180" x2="50" y2="180" stroke="#ffd60a" stroke-width="1.5" stroke-linecap="round"/>
<text x="55" y="180" fill="#ffd60a" font-size="2" font-family="monospace" text-anchor="start" dominant-baseline="middle">PD2</text>
<line x1="30" y1="200" x2="50" y2="200" stroke="#ffd60a" stroke-width="1.5" stroke-linecap="round"/>
<text x="55" y="200" fill="#ffd60a" font-size="2" font-family="monospace" text-anchor="start" dominant-baseline="middle">PD3</text>
<line x1="30" y1="220" x2="50" y2="220" stroke="#ffd60a" stroke-width="1.5" stroke-linecap="round"/>
<text x="55" y="220" fill="#ffd60a" font-size="2" font-family="monospace" text-anchor="start" dominant-baseline="middle">PF0</text>
<line x1="30" y1="240" x2="50" y2="240" stroke="#ffd60a" stroke-width="1.5" stroke-linecap="round"/>
<text x="55" y="240" fill="#ffd60a" font-size="2" font-family="monospace" text-anchor="start" dominant-baseline="middle">PF1</text>
<line x1="30" y1="260" x2="50" y2="260" stroke="#ffd60a" stroke-width="1.5" stroke-linecap="round"/>
<text x="55" y="260" fill="#ffd60a" font-size="2" font-family="monospace" text-anchor="start" dominant-baseline="middle">PF4</text>
<line x1="30" y1="280" x2="50" y2="280" stroke="#ffd60a" stroke-width="1.5" stroke-linecap="round"/>
<text x="55" y="280" fill="#ffd60a" font-size="2" font-family="monospace" text-anchor="start" dominant-baseline="middle">PF5</text>
<line x1="30" y1="300" x2="50" y2="300" stroke="#ffd60a" stroke-width="1.5" stroke-linecap="round"/>
<text x="55" y="300" fill="#ffd60a" font-size="2" font-family="monospace" text-anchor="start" dominant-baseline="middle">PF6</text>
<line x1="30" y1="320" x2="50" y2="320" stroke="#ffd60a" stroke-width="1.5" stroke-linecap="round"/>
<text x="55" y="320" fill="#ffd60a" font-size="2" font-family="monospace" text-anchor="start" dominant-baseline="middle">PF7</text>
<line x1="30" y1="340" x2="50" y2="340" stroke="#ffd60a" stroke-width="1.5" stroke-linecap="round"/>
<text x="55" y="340" fill="#ffd60a" font-size="2" font-family="monospace" text-anchor="start" dominant-baseline="middle">PD4</text>
<line x1="30" y1="360.00000000000006" x2="50" y2="360.00000000000006" stroke="#ffd60a" stroke-width="1.5" stroke-linecap="round"/>
<text x="55" y="360.00000000000006" fill="#ffd60a" font-size="2" font-family="monospace" text-anchor="start" dominant-baseline="middle">PD5</text>
<line x1="30" y1="380" x2="50" y2="380" stroke="#ffd60a" stroke-width="1.5" stroke-linecap="round"/>
<text x="55" y="380" fill="#ffd60a" font-size="2" font-family="monospace" text-anchor="start" dominant-baseline="middle">PD6</text>
<line x1="30" y1="400" x2="50" y2="400" stroke="#ffd60a" stroke-width="1.5" stroke-linecap="round"/>
<text x="55" y="400" fill="#ffd60a" font-size="2" font-family="monospace" text-anchor="start" dominant-baseline="middle">PD7</text>
<line x1="30" y1="420" x2="50" y2="420" stroke="#ffd60a" stroke-width="1.5" stroke-linecap="round"/>
<text x="55" y="420" fill="#ffd60a" font-size="2" font-family="monospace" text-anchor="start" dominant-baseline="middle">PG4</text>
<line x1="30" y1="440" x2="50" y2="440" stroke="#ffd60a" stroke-width="1.5" stroke-linecap="round"/>
<text x="55" y="440" fill="#ffd60a" font-size="2" font-family="monospace" text-anchor="start" dominant-baseline="middle">PG5</text>
<line x1="30" y1="460" x2="50" y2="460" stroke="#ffd60a" stroke-width="1.5" stroke-linecap="round"/>
<text x="55" y="460" fill="#ffd60a" font-size="2" font-family="monospace" text-anchor="start" dominant-baseline="middle">PG6</text>
<line x1="30" y1="480" x2="50" y2="480" stroke="#ffd60a" stroke-width="1.5" stroke-linecap="round"/>
<text x="55" y="480" fill="#ffd60a" font-size="2" font-family="monospace" text-anchor="start" dominant-baseline="middle">PG7</text>
<line x1="30" y1="500" x2="50" y2="500" stroke="#ffd60a" stroke-width="1.5" stroke-linecap="round"/>
<text x="55" y="500" fill="#ffd60a" font-size="2" font-family="monospace" text-anchor="start" dominant-baseline="middle">PE6</text>
<line x1="30" y1="520" x2="50" y2="520" stroke="#ffd60a" stroke-width="1.5" stroke-linecap="round"/>
<text x="55" y="520" fill="#ffd60a" font-size="2" font-family="monospace" text-anchor="start" dominant-baseline="middle">PE7</text>
<line x1="30" y1="540" x2="50" y2="540" stroke="#ffd60a" stroke-width="1.5" stroke-linecap="round"/>
<text x="55" y="540" fill="#ffd60a" font-size="2" font-family="monospace" text-anchor="start" dominant-baseline="middle">PG0</text>
<line x1="30" y1="560" x2="50" y2="560" stroke="#ffd60a" stroke-width="1.5" stroke-linecap="round"/>
<text x="55" y="560" fill="#ffd60a" font-size="2" font-family="monospace" text-anchor="start" dominant-baseline="middle">PG1</text>
<line x1="30" y1="580" x2="50" y2="580" stroke="#ffd60a" stroke-width="1.5" stroke-linecap="round"/>
<text x="55" y="580" fill="#ffd60a" font-size="2" font-family="monospace" text-anchor="start" dominant-baseline="middle">PG2</text>
<line x1="30" y1="600" x2="50" y2="600" stroke="#ffd60a" stroke-width="1.5" stroke-linecap="round"/>
<text x="55" y="600" fill="#ffd60a" font-size="2" font-family="monospace" text-anchor="start" dominant-baseline="middle">PG3</text>
<line x1="30" y1="620" x2="50" y2="620" stroke="#ffd60a" stroke-width="1.5" stroke-linecap="round"/>
<text x="55" y="620" fill="#ffd60a" font-size="2" font-family="monospace" text-anchor="start" dominant-baseline="middle">PE0</text>
<line x1="30" y1="640" x2="50" y2="640" stroke="#ffd60a" stroke-width="1.5" stroke-linecap="round"/>
<text x="55" y="640" fill="#ffd60a" font-size="2" font-family="monospace" text-anchor="start" dominant-baseline="middle">PE1</text>
<line x1="190" y1="62.5" x2="170" y2="62.5" stroke="#ffd60a" stroke-width="1.5" stroke-linecap="round"/>
<text x="165" y="62.5" fill="#ffd60a" font-size="2" font-family="monospace" text-anchor="end" dominant-baseline="middle">PB0</text>
<line x1="190" y1="87.5" x2="170" y2="87.5" stroke="#ffd60a" stroke-width="1.5" stroke-linecap="round"/>
<text x="165" y="87.5" fill="#ffd60a" font-size="2" font-family="monospace" text-anchor="end" dominant-baseline="middle">PB1</text>
<line x1="190" y1="112.5" x2="170" y2="112.5" stroke="#ffd60a" stroke-width="1.5" stroke-linecap="round"/>
<text x="165" y="112.5" fill="#ffd60a" font-size="2" font-family="monospace" text-anchor="end" dominant-baseline="middle">PB2</text>
<line x1="190" y1="137.5" x2="170" y2="137.5" stroke="#ffd60a" stroke-width="1.5" stroke-linecap="round"/>
<text x="165" y="137.5" fill="#ffd60a" font-size="2" font-family="monospace" text-anchor="end" dominant-baseline="middle">PB3</text>
<line x1="190" y1="162.5" x2="170" y2="162.5" stroke="#ffd60a" stroke-width="1.5" stroke-linecap="round"/>
<text x="165" y="162.5" fill="#ffd60a" font-size="2" font-family="monospace" text-anchor="end" dominant-baseline="middle">PB4</text>
<line x1="190" y1="187.5" x2="170" y2="187.5" stroke="#ffd60a" stroke-width="1.5" stroke-linecap="round"/>
<text x="165" y="187.5" fill="#ffd60a" font-size="2" font-family="monospace" text-anchor="end" dominant-baseline="middle">PB5</text>
<line x1="190" y1="212.5" x2="170" y2="212.5" stroke="#ffd60a" stroke-width="1.5" stroke-linecap="round"/>
<text x="165" y="212.5" fill="#ffd60a" font-size="2" font-family="monospace" text-anchor="end" dominant-baseline="middle">PB6</text>
<line x1="190" y1="237.5" x2="170" y2="237.5" stroke="#ffd60a" stroke-width="1.5" stroke-linecap="round"/>
<text x="165" y="237.5" fill="#ffd60a" font-size="2" font-family="monospace" text-anchor="end" dominant-baseline="middle">PB7</text>
<line x1="190" y1="262.5" x2="170" y2="262.5" stroke="#ffd60a" stroke-width="1.5" stroke-linecap="round"/>
<text x="165" y="262.5" fill="#ffd60a" font-size="2" font-family="monospace" text-anchor="end" dominant-baseline="middle">PC0</text>
<line x1="190" y1="287.5" x2="170" y2="287.5" stroke="#ffd60a" stroke-width="1.5" stroke-linecap="round"/>
<text x="165" y="287.5" fill="#ffd60a" font-size="2" font-family="monospace" text-anchor="end" dominant-baseline="middle">PC1</text>
<line x1="190" y1="312.5" x2="170" y2="312.5" stroke="#ffd60a" stroke-width="1.5" stroke-linecap="round"/>
<text x="165" y="312.5" fill="#ffd60a" font-size="2" font-family="monospace" text-anchor="end" dominant-baseline="middle">PC2</text>
<line x1="190" y1="337.5" x2="170" y2="337.5" stroke="#ffd60a" stroke-width="1.5" stroke-linecap="round"/>
<text x="165" y="337.5" fill="#ffd60a" font-size="2" font-family="monospace" text-anchor="end" dominant-baseline="middle">PC3</text>
<line x1="190" y1="362.5" x2="170" y2="362.5" stroke="#ffd60a" stroke-width="1.5" stroke-linecap="round"/>
<text x="165" y="362.5" fill="#ffd60a" font-size="2" font-family="monospace" text-anchor="end" dominant-baseline="middle">PC4</text>
<line x1="190" y1="387.5" x2="170" y2="387.5" stroke="#ffd60a" stroke-width="1.5" stroke-linecap="round"/>
<text x="165" y="387.5" fill="#ffd60a" font-size="2" font-family="monospace" text-anchor="end" dominant-baseline="middle">PC5</text>
<line x1="190" y1="412.5" x2="170" y2="412.5" stroke="#ffd60a" stroke-width="1.5" stroke-linecap="round"/>
<text x="165" y="412.5" fill="#ffd60a" font-size="2" font-family="monospace" text-anchor="end" dominant-baseline="middle">PC6</text>
<line x1="190" y1="437.5" x2="170" y2="437.5" stroke="#ffd60a" stroke-width="1.5" stroke-linecap="round"/>
<text x="165" y="437.5" fill="#ffd60a" font-size="2" font-family="monospace" text-anchor="end" dominant-baseline="middle">PC7</text>
<line x1="190" y1="462.5" x2="170" y2="462.5" stroke="#ffd60a" stroke-width="1.5" stroke-linecap="round"/>
<text x="165" y="462.5" fill="#ffd60a" font-size="2" font-family="monospace" text-anchor="end" dominant-baseline="middle">PA0</text>
<line x1="190" y1="487.5" x2="170" y2="487.5" stroke="#ffd60a" stroke-width="1.5" stroke-linecap="round"/>
<text x="165" y="487.5" fill="#ffd60a" font-size="2" font-family="monospace" text-anchor="end" dominant-baseline="middle">NRST/PA1</text>
<line x1="190" y1="512.5" x2="170" y2="512.5" stroke="#ffd60a" stroke-width="1.5" stroke-linecap="round"/>
<text x="165" y="512.5" fill="#ffd60a" font-size="2" font-family="monospace" text-anchor="end" dominant-baseline="middle">PA2</text>
<line x1="190" y1="537.5" x2="170" y2="537.5" stroke="#ffd60a" stroke-width="1.5" stroke-linecap="round"/>
<text x="165" y="537.5" fill="#ffd60a" font-size="2" font-family="monospace" text-anchor="end" dominant-baseline="middle">PA3</text>
<line x1="190" y1="562.5" x2="170" y2="562.5" stroke="#ffd60a" stroke-width="1.5" stroke-linecap="round"/>
<text x="165" y="562.5" fill="#ffd60a" font-size="2" font-family="monospace" text-anchor="end" dominant-baseline="middle">PA4</text>
<line x1="190" y1="587.5" x2="170" y2="587.5" stroke="#ffd60a" stroke-width="1.5" stroke-linecap="round"/>
<text x="165" y="587.5" fill="#ffd60a" font-size="2" font-family="monospace" text-anchor="end" dominant-baseline="middle">PA5</text>
<line x1="190" y1="612.5" x2="170" y2="612.5" stroke="#ffd60a" stroke-width="1.5" stroke-linecap="round"/>
<text x="165" y="612.5" fill="#ffd60a" font-size="2" font-family="monospace" text-anchor="end" dominant-baseline="middle">PA6</text>
<line x1="190" y1="637.5" x2="170" y2="637.5" stroke="#ffd60a" stroke-width="1.5" stroke-linecap="round"/>
<text x="165" y="637.5" fill="#ffd60a" font-size="2" font-family="monospace" text-anchor="end" dominant-baseline="middle">PA7</text>
<line x1="65" y1="30" x2="65" y2="50" stroke="#ffd60a" stroke-width="1.5" stroke-linecap="round"/>
<text x="65" y="25" fill="#ffd60a" font-size="2" font-family="monospace" text-anchor="middle" dominant-baseline="middle">GND</text>
<line x1="95" y1="30" x2="95" y2="50" stroke="#ffd60a" stroke-width="1.5" stroke-linecap="round"/>
<text x="95" y="25" fill="#ffd60a" font-size="2" font-family="monospace" text-anchor="middle" dominant-baseline="middle">GND</text>
<line x1="125" y1="30" x2="125" y2="50" stroke="#ffd60a" stroke-width="1.5" stroke-linecap="round"/>
<text x="125" y="25" fill="#ffd60a" font-size="2" font-family="monospace" text-anchor="middle" dominant-baseline="middle">GND</text>
<line x1="155" y1="30" x2="155" y2="50" stroke="#ffd60a" stroke-width="1.5" stroke-linecap="round"/>
<text x="155" y="25" fill="#ffd60a" font-size="2" font-family="monospace" text-anchor="middle" dominant-baseline="middle">VSSA/VREF-</text>
<line x1="60" y1="670" x2="60" y2="650" stroke="#ffd60a" stroke-width="1.5" stroke-linecap="round"/>
<text x="60" y="684" fill="#ffd60a" font-size="2" font-family="monospace" text-anchor="middle" dominant-baseline="middle">VDD</text>
<line x1="80" y1="670" x2="80" y2="650" stroke="#ffd60a" stroke-width="1.5" stroke-linecap="round"/>
<text x="80" y="684" fill="#ffd60a" font-size="2" font-family="monospace" text-anchor="middle" dominant-baseline="middle">VDD</text>
<line x1="100" y1="670" x2="100" y2="650" stroke="#ffd60a" stroke-width="1.5" stroke-linecap="round"/>
<text x="100" y="684" fill="#ffd60a" font-size="2" font-family="monospace" text-anchor="middle" dominant-baseline="middle">VDD</text>
<line x1="120" y1="670" x2="120" y2="650" stroke="#ffd60a" stroke-width="1.5" stroke-linecap="round"/>
<text x="120" y="684" fill="#ffd60a" font-size="2" font-family="monospace" text-anchor="middle" dominant-baseline="middle">VDDA</text>
<line x1="140" y1="670" x2="140" y2="650" stroke="#ffd60a" stroke-width="1.5" stroke-linecap="round"/>
<text x="140" y="684" fill="#ffd60a" font-size="2" font-family="monospace" text-anchor="middle" dominant-baseline="middle">VREF+</text>
<line x1="160" y1="670" x2="160" y2="650" stroke="#ffd60a" stroke-width="1.5" stroke-linecap="round"/>
<text x="160" y="684" fill="#ffd60a" font-size="2" font-family="monospace" text-anchor="middle" dominant-baseline="middle">VLCD</text>
</svg>