<svg xmlns="http://www.w3.org/2000/svg" viewBox="0 0 18.16 16.89">
<line x1="6.667" y1="9.841999999999999" x2="7.936999999999999" y2="9.841999999999999" stroke="#ffffff" stroke-width="0.3" stroke-linecap="round" fill="none"/>
<polyline points="6.667,9.841999999999999 7.936999999999999,9.841999999999999 7.936999999999999,10.095999999999998 8.064,10.349999999999998 8.318,10.730999999999998 8.572,10.857999999999999 8.064,11.873999999999999 7.683,11.62 7.302,11.238999999999999 6.920999999999999,10.730999999999998 6.667,9.841999999999999" stroke="#ffffff" stroke-width="0.3" stroke-linejoin="round" stroke-linecap="round" fill="#ffffff"/>
<line x1="7.81" y1="7.809999999999999" x2="8.699" y2="8.825999999999999" stroke="#ffffff" stroke-width="0.3" stroke-linecap="round" fill="none"/>
<line x1="8.064" y1="11.873999999999999" x2="8.572" y2="10.857999999999999" stroke="#ffffff" stroke-width="0.3" stroke-linecap="round" fill="none"/>
<polyline points="8.699,8.825999999999999 8.064,7.9369999999999985 7.81,7.809999999999999 8.445,7.555999999999999 9.334,7.682999999999999 9.715,7.682999999999999 9.841999999999999,7.809999999999999 10.222999999999999,7.9369999999999985 9.588,8.825999999999999 9.207,8.698999999999998 8.953,8.698999999999998 8.699,8.825999999999999" stroke="#ffffff" stroke-width="0.3" stroke-linejoin="round" stroke-linecap="round" fill="#ffffff"/>
<path d="M 10.222999999999999 9.841999999999999 A 1.2700239827117161 1.2700239827117161 0 0 1 9.715 10.857999999999999" stroke="#ffffff" stroke-width="0.3" fill="none"/>
<path d="M 8.064 11.873999999999999 A 2.414266634102766 2.414266634102766 0 0 1 6.667 9.841999999999999" stroke="#ffffff" stroke-width="0.3" fill="none"/>
<circle cx="9.08" cy="9.841999999999999" r="0.8128" stroke="#ffffff" stroke-width="0.3" fill="#ffffff"/>
<path d="M 7.81 7.809999999999999 A 2.50502839791787 2.50502839791787 0 0 1 10.35 7.809999999999999" stroke="#ffffff" stroke-width="0.3" fill="none"/>
<path d="M 8.699 8.825999999999999 A 1.166615056818182 1.166615056818182 0 0 1 9.588 8.825999999999999" stroke="#ffffff" stroke-width="0.3" fill="none"/>
<path d="M 8.572 10.857999999999999 A 1.2256099680670671 1.2256099680670671 0 0 1 7.936999999999999 9.841999999999999" stroke="#ffffff" stroke-width="0.3" fill="none"/>
<path d="M 11.492999999999999 9.841999999999999 A 2.1735573430399366 2.1735573430399366 0 0 1 10.35 11.873999999999999" stroke="#ffffff" stroke-width="0.3" fill="none"/>
<line x1="9.588" y1="8.825999999999999" x2="10.35" y2="7.809999999999999" stroke="#ffffff" stroke-width="0.3" stroke-linecap="round" fill="none"/>
<line x1="9.715" y1="10.857999999999999" x2="10.35" y2="11.873999999999999" stroke="#ffffff" stroke-width="0.3" stroke-linecap="round" fill="none"/>
<polyline points="9.715,10.857999999999999 10.35,11.873999999999999 10.858,11.492999999999999 11.239,10.857999999999999 11.366,10.222999999999999 11.492999999999999,9.841999999999999 10.222999999999999,9.841999999999999 10.222999999999999,10.222999999999999 9.969,10.604 9.715,10.857999999999999" stroke="#ffffff" stroke-width="0.3" stroke-linejoin="round" stroke-linecap="round" fill="#ffffff"/>
<line x1="10.222999999999999" y1="9.841999999999999" x2="11.492999999999999" y2="9.841999999999999" stroke="#ffffff" stroke-width="0.3" stroke-linecap="round" fill="none"/>
<polyline points="4,12.889999999999999 14.16,12.889999999999999 9.08,3.999999999999999 4,12.889999999999999" stroke="#ffffff" stroke-width="0.508" stroke-linejoin="round" stroke-linecap="round" fill="rgba(255,255,255,0.06)"/>
</svg>