<svg xmlns="http://www.w3.org/2000/svg" viewBox="0 0 13.08 12.445">
<polyline points="4,8.445 9.08,8.445 6.54,4 4,8.445" stroke="#ffffff" stroke-width="0.3" stroke-linejoin="round" stroke-linecap="round" fill="rgba(255,255,255,0.06)"/>
<path d="M 5.7780000000000005 6.7940000000000005 A 0.635 0.635 0 0 1 5.7780000000000005 7.556" stroke="#ffffff" stroke-width="0.3" fill="none"/>
<path d="M 6.54 6.7940000000000005 A 0.6350000000000001 0.6350000000000001 0 0 1 6.54 7.556" stroke="#ffffff" stroke-width="0.3" fill="none"/>
<path d="M 5.7780000000000005 6.7940000000000005 A 0.6350000000000001 0.6350000000000001 0 0 1 5.7780000000000005 6.032" stroke="#ffffff" stroke-width="0.3" fill="none"/>
<path d="M 7.302 6.7940000000000005 A 0.6350000000000007 0.6350000000000007 0 0 1 7.302 7.556" stroke="#ffffff" stroke-width="0.3" fill="none"/>
<path d="M 6.54 6.7940000000000005 A 0.6350000000000001 0.6350000000000001 0 0 1 6.54 6.032" stroke="#ffffff" stroke-width="0.3" fill="none"/>
<path d="M 7.302 6.7940000000000005 A 0.6349999999999999 0.6349999999999999 0 0 1 7.302 6.032" stroke="#ffffff" stroke-width="0.3" fill="none"/>
<line x1="7.8100000000000005" y1="7.937" x2="5.27" y2="7.937" stroke="#ffffff" stroke-width="0.3" stroke-linecap="round" fill="none"/>
</svg>