<svg xmlns="http://www.w3.org/2000/svg" viewBox="0 0 13.461 12.5212">
<polyline points="4,8.4958 9.461,8.4958 6.667,4.0508 4,8.4958" stroke="#ffffff" stroke-width="0.3" stroke-linejoin="round" stroke-linecap="round" fill="none"/>
<line x1="5.397" y1="6.2097999999999995" x2="8.826" y2="7.6068" stroke="#ffffff" stroke-width="0.3" stroke-linecap="round" fill="none"/>
<polyline points="9.4102,8.4958 9.3848,8.4704 9.2832,8.267199999999999 9.2324,8.190999999999999 9.1562,8.0894 9.1054,7.9624 8.419599999999999,6.8194 8.3688,6.7177999999999995 8.2926,6.6415999999999995 8.267199999999999,6.54 8.2164,6.489199999999999 8.1656,6.3876 8.1402,6.3622 8.1402,6.3876 8.114799999999999,6.3876 7.9878,6.5146 7.9624,6.5653999999999995 7.9624,6.6162 7.936999999999999,6.667 7.9116,6.7432 7.81,6.844799999999999 7.7592,6.920999999999999 7.7084,6.9464 7.5813999999999995,7.0733999999999995 7.429,7.175 7.3274,7.2512 7.175,7.3528 7.1242,7.4036 7.0226,7.4544 6.9718,7.505199999999999 6.8956,7.556 6.7432,7.784599999999999 6.6924,7.8862 6.6415999999999995,8.0132 6.6162,8.0894 6.5653999999999995,8.1656 6.54,8.2418 6.489199999999999,8.267199999999999 6.4638,8.318 6.413,8.343399999999999 6.2606,8.343399999999999 6.2606,8.318 6.2097999999999995,8.2926 6.1844,8.2164 6.159,8.114799999999999 6.159,7.683 6.2097999999999995,7.4798 6.2606,7.4036 6.413,7.2512 6.4638,7.175 6.54,7.1242 6.5653999999999995,7.0733999999999995 6.5908,6.997199999999999 6.6162,6.9464 6.6415999999999995,6.920999999999999 6.6415999999999995,6.8702 6.667,6.8194 6.5908,6.7432 6.54,6.7177999999999995 6.5146,6.667 6.4638,6.6415999999999995 6.4384,6.6162 6.413,6.6162 6.3622,6.667 6.3114,6.6924 6.2352,6.7177999999999995 6.1844,6.7432 6.1082,6.8194 6.0573999999999995,6.844799999999999 5.8288,7.0733999999999995 5.8542,7.1495999999999995 5.8796,7.175 5.8796,7.4544 5.8542,7.4798 5.8542,7.556 5.904999999999999,7.6068 5.904999999999999,7.6322 6.0066,7.8862 6.0066,8.1656 5.981199999999999,8.190999999999999 5.981199999999999,8.2164 5.9304,8.2926 5.8288,8.343399999999999 5.7526,8.343399999999999 5.7272,8.318 5.7017999999999995,8.267199999999999 5.651,8.190999999999999 5.6255999999999995,8.114799999999999 5.524,7.860799999999999 5.4478,7.6322 5.397,7.556 5.3716,7.4798 5.3462,7.428999999999999 5.3462,7.4036 5.2954,7.302 5.27,7.175 5.27,7.0733999999999995 5.2954,6.9718 5.3462,6.844799999999999 5.3716,6.794 5.4732,6.6415999999999995 5.6255999999999995,6.4384 5.6764,6.3876 5.7017999999999995,6.3368 5.7526,6.2606 5.778,6.2097999999999995 5.8034,6.2097999999999995 5.8542,6.0828 6.0573999999999995,5.8796 6.1335999999999995,5.8542 6.159,5.828799999999999 6.2352,5.828799999999999 6.3114,5.8034 6.4384,5.778 6.5653999999999995,5.778 6.7177999999999995,5.7526 6.8702,5.7526 6.9718,5.7272 7.1495999999999995,5.7272 7.2004,5.7017999999999995 7.2512,5.7017999999999995 7.3528,5.651 7.3782,5.6255999999999995 7.429,5.6002 7.4798,5.5493999999999994 7.5306,5.524 7.556,5.4732 7.5813999999999995,5.4478 7.5813999999999995,5.397 7.556,5.3716 7.5306,5.3208 7.4798,5.2446 7.3782,5.041399999999999 7.302,4.9398 7.2512,4.8382 7.175,4.7112 7.1242,4.635 7.048,4.507999999999999 6.9718,4.4064 6.920999999999999,4.3048 6.8702,4.2286 6.8448,4.1524 6.7686,4.0762 6.7686,4.0508 6.7432,4.025399999999999 6.7432,3.9999999999999996 6.6924,3.9999999999999996 6.6924,4.025399999999999 6.6415999999999995,4.0762 6.5653999999999995,4.2286 6.413,4.4572 6.3622,4.5588 6.2097999999999995,4.812799999999999 6.1082,4.965199999999999 5.904999999999999,5.3208 5.778,5.524 5.651,5.7526 5.4986,5.981199999999999 5.3462,6.2606 5.27,6.3876 5.143,6.6162 4.888999999999999,7.0226 4.7874,7.2258 4.660399999999999,7.4036 4.5588,7.5813999999999995 4.4572,7.7338 4.381,7.8862 4.2286,8.1402 4.1777999999999995,8.2418 4.1015999999999995,8.343399999999999 4.0762,8.419599999999999 4.0508,8.4704 4.025399999999999,8.4958 4.025399999999999,8.5212 9.4102,8.5212 9.4102,8.4958" stroke="#ffffff" stroke-width="0.3" stroke-linejoin="round" stroke-linecap="round" fill="rgba(255,255,255,0.06)"/>
</svg>