<svg xmlns="http://www.w3.org/2000/svg" viewBox="0 0 51.2794 70.5161">
<line x1="4.413600000000002" y1="34.391400000000004" x2="46.8316" y2="34.391400000000004" stroke="#ffffff" stroke-width="0.635" stroke-linecap="round" fill="none"/>
<line x1="4.6676" y1="48.869400000000006" x2="46.577600000000004" y2="48.869400000000006" stroke="#ffffff" stroke-width="0.635" stroke-linecap="round" fill="none"/>
<line x1="5.429600000000001" y1="34.391400000000004" x2="8.7316" y2="24.231400000000008" stroke="#ffffff" stroke-width="0.3" stroke-linecap="round" fill="none"/>
<line x1="7.207599999999999" y1="24.231400000000008" x2="44.2916" y2="24.231400000000008" stroke="#ffffff" stroke-width="0.635" stroke-linecap="round" fill="none"/>
<line x1="7.9696" y1="34.391400000000004" x2="11.271600000000001" y2="24.231400000000008" stroke="#ffffff" stroke-width="0.3" stroke-linecap="round" fill="none"/>
<line x1="10.5096" y1="34.391400000000004" x2="13.8116" y2="24.231400000000008" stroke="#ffffff" stroke-width="0.3" stroke-linecap="round" fill="none"/>
<line x1="13.049600000000002" y1="34.391400000000004" x2="16.3516" y2="24.231400000000008" stroke="#ffffff" stroke-width="0.3" stroke-linecap="round" fill="none"/>
<line x1="15.5896" y1="34.391400000000004" x2="18.8916" y2="24.231400000000008" stroke="#ffffff" stroke-width="0.3" stroke-linecap="round" fill="none"/>
<line x1="16.605600000000003" y1="8.737400000000001" x2="34.8936" y2="8.737400000000001" stroke="#ffffff" stroke-width="0.635" stroke-linecap="round" fill="none"/>
<line x1="18.1296" y1="34.391400000000004" x2="21.431600000000003" y2="24.231400000000008" stroke="#ffffff" stroke-width="0.3" stroke-linecap="round" fill="none"/>
<line x1="20.669600000000003" y1="34.391400000000004" x2="23.971600000000002" y2="24.231400000000008" stroke="#ffffff" stroke-width="0.3" stroke-linecap="round" fill="none"/>
<line x1="23.209600000000002" y1="34.391400000000004" x2="26.5116" y2="24.231400000000008" stroke="#ffffff" stroke-width="0.3" stroke-linecap="round" fill="none"/>
<line x1="25.7496" y1="34.391400000000004" x2="29.0516" y2="24.231400000000008" stroke="#ffffff" stroke-width="0.3" stroke-linecap="round" fill="none"/>
<line x1="28.2896" y1="34.391400000000004" x2="31.5916" y2="24.231400000000008" stroke="#ffffff" stroke-width="0.3" stroke-linecap="round" fill="none"/>
<polyline points="29.5596,66.1414 32.5372,65.3052 35.369,64.0382 38.0097,62.371 40.4136,60.334500000000006 42.535399999999996,57.959300000000006 44.329499999999996,55.27610000000001 45.7505,52.3156 46.7529,49.1086 46.9075,48.239200000000004 47.0674,46.7351 47.183400000000006,44.901900000000005 47.2545,42.857400000000005 47.2794,40.71940000000001 47.2572,38.605700000000006 47.1867,36.634100000000004 47.066900000000004,34.9224 46.896699999999996,33.588300000000004 46.7789,32.9438 45.563,27.808300000000003 43.9026,22.972300000000004 41.789100000000005,18.416600000000003 39.2134,14.121700000000004 36.1667,10.068100000000001 35.4062,9.174800000000005 33.9973,7.652400000000007 32.7137,6.479400000000005 31.4612,5.574100000000001 30.145500000000002,4.855100000000007 29.3961,4.514100000000006 28.6365,4.237900000000003 27.877100000000002,4.0830000000000055 26.9378,4.015000000000008 25.6385,4.000000000000007 24.5304,4.009600000000006 23.543300000000002,4.0660000000000025 22.7661,4.203700000000005 22.0183,4.457100000000004 21.119600000000002,4.860600000000005 20.0706,5.421200000000006 18.8135,6.290700000000001 17.5302,7.419700000000006 16.1417,8.879200000000004 14.5691,10.739900000000006 11.635700000000002,14.757700000000007 9.1494,19.042300000000004 7.117699999999999,23.594200000000008 5.530900000000003,28.4354 4.379000000000001,33.588300000000004 4.2352000000000025,34.6653 4.109300000000001,36.30500000000001 4.031200000000002,38.2239 4,40.3051 4.014700000000001,42.431700000000006 4.074300000000001,44.486900000000006 4.1777000000000015,46.35380000000001 4.324000000000002,47.91550000000001 4.5122,49.0552 5.020800000000001,50.892100000000006 6.308300000000003,54.086200000000005 8.0184,57.002900000000004 10.1133,59.6045 12.555100000000001,61.853300000000004 15.3063,63.7115 18.3289,65.14160000000001 21.5853,66.1057 23.3491,66.3986 26.4818,66.51610000000001 29.5596,66.1414" stroke="#ffffff" stroke-width="0.635" stroke-linejoin="round" stroke-linecap="round" fill="none"/>
<line x1="30.8296" y1="34.391400000000004" x2="34.1316" y2="24.231400000000008" stroke="#ffffff" stroke-width="0.3" stroke-linecap="round" fill="none"/>
<line x1="33.3696" y1="34.391400000000004" x2="36.6716" y2="24.231400000000008" stroke="#ffffff" stroke-width="0.3" stroke-linecap="round" fill="none"/>
<line x1="35.9096" y1="34.391400000000004" x2="39.211600000000004" y2="24.231400000000008" stroke="#ffffff" stroke-width="0.3" stroke-linecap="round" fill="none"/>
<line x1="38.449600000000004" y1="34.391400000000004" x2="41.751599999999996" y2="24.231400000000008" stroke="#ffffff" stroke-width="0.3" stroke-linecap="round" fill="none"/>
<line x1="40.9896" y1="34.391400000000004" x2="44.2916" y2="24.231400000000008" stroke="#ffffff" stroke-width="0.3" stroke-linecap="round" fill="none"/>
<line x1="43.5296" y1="34.391400000000004" x2="45.4346" y2="28.041400000000003" stroke="#ffffff" stroke-width="0.3" stroke-linecap="round" fill="none"/>
<line x1="46.0696" y1="34.391400000000004" x2="46.7046" y2="32.4864" stroke="#ffffff" stroke-width="0.3" stroke-linecap="round" fill="none"/>
</svg>