<svg xmlns="http://www.w3.org/2000/svg" viewBox="0 0 16.588 15.112">
<line x1="4.254" y1="8.572" x2="4" y2="8.826" stroke="#ffffff" stroke-width="0.3" stroke-linecap="round" fill="none"/>
<line x1="4.7620000000000005" y1="8.064" x2="4.508" y2="8.318" stroke="#ffffff" stroke-width="0.3" stroke-linecap="round" fill="none"/>
<circle cx="5.27" cy="7.556" r="0.254" stroke="#ffffff" stroke-width="0.3" fill="#ffffff"/>
<line x1="5.27" y1="7.556" x2="5.016" y2="7.8100000000000005" stroke="#ffffff" stroke-width="0.3" stroke-linecap="round" fill="none"/>
<line x1="5.7780000000000005" y1="7.048" x2="5.524" y2="7.302" stroke="#ffffff" stroke-width="0.3" stroke-linecap="round" fill="none"/>
<line x1="6.286" y1="6.54" x2="6.032" y2="6.7940000000000005" stroke="#ffffff" stroke-width="0.3" stroke-linecap="round" fill="none"/>
<line x1="6.7940000000000005" y1="6.032" x2="6.54" y2="6.286" stroke="#ffffff" stroke-width="0.3" stroke-linecap="round" fill="none"/>
<line x1="7.302" y1="5.524" x2="7.048" y2="5.7780000000000005" stroke="#ffffff" stroke-width="0.3" stroke-linecap="round" fill="none"/>
<line x1="7.8100000000000005" y1="5.016" x2="7.556" y2="5.27" stroke="#ffffff" stroke-width="0.3" stroke-linecap="round" fill="none"/>
<rect x="8.064" y="11.112" width="2.032" height="7.112" stroke="#ffffff" stroke-width="0.3" fill="none"/>
<line x1="8.318" y1="5.016" x2="7.8100000000000005" y2="5.016" stroke="#ffffff" stroke-width="0.3" stroke-linecap="round" fill="none"/>
<line x1="8.318" y1="10.096" x2="8.064" y2="10.096" stroke="#ffffff" stroke-width="0.3" stroke-linecap="round" fill="none"/>
<polyline points="8.572,10.096 7.8100000000000005,10.096 4,6.286" stroke="#ffffff" stroke-width="0.3" stroke-linejoin="round" stroke-linecap="round" fill="none"/>
<circle cx="9.08" cy="5.016" r="0.508" stroke="#ffffff" stroke-width="0.3" fill="none"/>
<circle cx="9.08" cy="10.096" r="0.508" stroke="#ffffff" stroke-width="0.3" fill="none"/>
<line x1="12.128" y1="5.016" x2="9.588000000000001" y2="5.016" stroke="#ffd60a" stroke-width="0.23697142857142858" stroke-linecap="round"/>
<text x="12.588000000000001" y="5.016" fill="#ffd60a" font-size="1" font-family="monospace" text-anchor="end" dominant-baseline="middle">+</text>
<line x1="12.128" y1="10.096" x2="9.588000000000001" y2="10.096" stroke="#ffd60a" stroke-width="0.23697142857142858" stroke-linecap="round"/>
<text x="12.588000000000001" y="10.096" fill="#ffd60a" font-size="1" font-family="monospace" text-anchor="end" dominant-baseline="middle">-</text>
</svg>