<svg xmlns="http://www.w3.org/2000/svg" viewBox="0 0 23.240000000000002 15.620000000000001">
<rect x="6.540000000000001" y="11.620000000000001" width="10.16" height="7.62" stroke="#ffffff" stroke-width="0.3" fill="rgba(255,255,255,0.06)"/>
<polyline points="6.540000000000001,10.350000000000001 9.842,10.350000000000001 9.842,5.2700000000000005 6.540000000000001,5.2700000000000005" stroke="#ffffff" stroke-width="0.3" stroke-linejoin="round" stroke-linecap="round" fill="none"/>
<circle cx="7.937000000000001" cy="5.2700000000000005" r="0.127" stroke="#ffffff" stroke-width="0.3" fill="none"/>
<line x1="7.937000000000001" y1="5.2700000000000005" x2="7.937000000000001" y2="10.350000000000001" stroke="#ffffff" stroke-width="0.3" stroke-linecap="round" fill="none"/>
<polyline points="7.937000000000001,7.175000000000001 8.572000000000001,8.445 7.302000000000001,8.445 7.937000000000001,7.175000000000001" stroke="#ffffff" stroke-width="0.3" stroke-linejoin="round" stroke-linecap="round" fill="none"/>
<circle cx="7.937000000000001" cy="10.350000000000001" r="0.127" stroke="#ffffff" stroke-width="0.3" fill="none"/>
<line x1="8.572000000000001" y1="7.175000000000001" x2="7.302000000000001" y2="7.175000000000001" stroke="#ffffff" stroke-width="0.3" stroke-linecap="round" fill="none"/>
<line x1="9.207" y1="8.445" x2="10.477" y2="8.445" stroke="#ffffff" stroke-width="0.3" stroke-linecap="round" fill="none"/>
<polyline points="9.842,8.445 9.207,7.175000000000001 10.477,7.175000000000001 9.842,8.445" stroke="#ffffff" stroke-width="0.3" stroke-linejoin="round" stroke-linecap="round" fill="none"/>
<polyline points="11.112000000000002,7.3020000000000005 12.382000000000001,7.3020000000000005 12.001000000000001,7.429 12.001000000000001,7.175000000000001 12.382000000000001,7.3020000000000005" stroke="#ffffff" stroke-width="0.3" stroke-linejoin="round" stroke-linecap="round" fill="none"/>
<polyline points="11.112000000000002,8.318000000000001 12.382000000000001,8.318000000000001 12.001000000000001,8.445 12.001000000000001,8.191 12.382000000000001,8.318000000000001" stroke="#ffffff" stroke-width="0.3" stroke-linejoin="round" stroke-linecap="round" fill="none"/>
<polyline points="13.525,9.08 13.525,5.2700000000000005 16.700000000000003,5.2700000000000005" stroke="#ffffff" stroke-width="0.3" stroke-linejoin="round" stroke-linecap="round" fill="none"/>
<line x1="14.541" y1="8.064" x2="14.541" y2="10.096" stroke="#ffffff" stroke-width="0.3556" stroke-linecap="round" fill="none"/>
<line x1="14.541" y1="8.953000000000001" x2="15.684000000000001" y2="7.8100000000000005" stroke="#ffffff" stroke-width="0.3" stroke-linecap="round" fill="none"/>
<line x1="14.541" y1="9.08" x2="13.525" y2="9.08" stroke="#ffffff" stroke-width="0.3" stroke-linecap="round" fill="none"/>
<line x1="14.541" y1="9.207" x2="15.684000000000001" y2="10.350000000000001" stroke="#ffffff" stroke-width="0.3" stroke-linecap="round" fill="none"/>
<polyline points="15.557,10.223 15.303,9.715 15.049000000000001,9.969000000000001 15.557,10.223" stroke="#ffffff" stroke-width="0.3" stroke-linejoin="round" stroke-linecap="round" fill="none"/>
<line x1="15.684000000000001" y1="10.350000000000001" x2="16.700000000000003" y2="10.350000000000001" stroke="#ffffff" stroke-width="0.3" stroke-linecap="round" fill="none"/>
<line x1="16.700000000000003" y1="7.8100000000000005" x2="15.684000000000001" y2="7.8100000000000005" stroke="#ffffff" stroke-width="0.3" stroke-linecap="round" fill="none"/>
<line x1="4.000000000000001" y1="5.2700000000000005" x2="6.540000000000001" y2="5.2700000000000005" stroke="#ffd60a" stroke-width="0.332" stroke-linecap="round"/>
<line x1="4.000000000000001" y1="10.350000000000001" x2="6.540000000000001" y2="10.350000000000001" stroke="#ffd60a" stroke-width="0.332" stroke-linecap="round"/>
<line x1="19.240000000000002" y1="10.350000000000001" x2="16.700000000000003" y2="10.35" stroke="#ffd60a" stroke-width="0.332" stroke-linecap="round"/>
<line x1="19.240000000000002" y1="7.8100000000000005" x2="16.700000000000003" y2="7.8100000000000005" stroke="#ffd60a" stroke-width="0.332" stroke-linecap="round"/>
<line x1="19.240000000000002" y1="5.2700000000000005" x2="16.700000000000003" y2="5.27" stroke="#ffd60a" stroke-width="0.332" stroke-linecap="round"/>
</svg>