<svg xmlns="http://www.w3.org/2000/svg" viewBox="0 0 29.240000000000002 29.240000000000002">
<rect x="7.000000000000001" y="22.240000000000002" width="15.24" height="15.24" stroke="#ffffff" stroke-width="0.3" fill="rgba(255,255,255,0.06)"/>
<polyline points="7.000000000000001,9.540000000000001 9.540000000000001,9.540000000000001 9.540000000000001,12.080000000000002" stroke="#ffffff" stroke-width="0.3" stroke-linejoin="round" stroke-linecap="round" fill="none"/>
<polyline points="7.000000000000001,19.700000000000003 9.540000000000001,19.700000000000003 9.540000000000001,17.16" stroke="#ffffff" stroke-width="0.3" stroke-linejoin="round" stroke-linecap="round" fill="none"/>
<polyline points="8.778000000000002,13.858 10.302000000000001,13.858 9.540000000000001,15.128 8.778000000000002,13.858" stroke="#ffffff" stroke-width="0.3" stroke-linejoin="round" stroke-linecap="round" fill="none"/>
<line x1="8.778000000000002" y1="15.128" x2="10.302000000000001" y2="15.128" stroke="#ffffff" stroke-width="0.3" stroke-linecap="round" fill="none"/>
<line x1="9.540000000000001" y1="12.029200000000001" x2="9.540000000000001" y2="13.756400000000001" stroke="#ffffff" stroke-width="0.3" stroke-linecap="round" fill="none"/>
<line x1="9.540000000000001" y1="13.858" x2="9.540000000000001" y2="15.128" stroke="#ffffff" stroke-width="0.3" stroke-linecap="round" fill="none"/>
<line x1="9.540000000000001" y1="17.2616" x2="9.540000000000001" y2="15.229600000000001" stroke="#ffffff" stroke-width="0.3" stroke-linecap="round" fill="none"/>
<polyline points="10.81,13.985000000000001 13.096,13.096 12.461000000000002,12.969000000000001" stroke="#ffffff" stroke-width="0.3" stroke-linejoin="round" stroke-linecap="round" fill="none"/>
<polyline points="10.937000000000001,15.001000000000001 13.223,14.112000000000002 12.588000000000001,13.985000000000001" stroke="#ffffff" stroke-width="0.3" stroke-linejoin="round" stroke-linecap="round" fill="none"/>
<line x1="13.096" y1="13.096" x2="12.715000000000002" y2="13.604000000000001" stroke="#ffffff" stroke-width="0.3" stroke-linecap="round" fill="none"/>
<line x1="13.223" y1="14.112000000000002" x2="12.842" y2="14.620000000000001" stroke="#ffffff" stroke-width="0.3" stroke-linecap="round" fill="none"/>
<line x1="13.858" y1="12.842" x2="15.382000000000001" y2="12.842" stroke="#ffffff" stroke-width="0.3" stroke-linecap="round" fill="none"/>
<line x1="14.620000000000001" y1="7.000000000000001" x2="14.620000000000001" y2="9.540000000000001" stroke="#ffffff" stroke-width="0.3" stroke-linecap="round" fill="none"/>
<line x1="14.620000000000001" y1="12.6896" x2="14.620000000000001" y2="9.540000000000001" stroke="#ffffff" stroke-width="0.3" stroke-linecap="round" fill="none"/>
<line x1="14.620000000000001" y1="12.842" x2="14.620000000000001" y2="14.112000000000002" stroke="#ffffff" stroke-width="0.3" stroke-linecap="round" fill="none"/>
<polyline points="14.620000000000001,12.842 13.858,14.112000000000002 15.382000000000001,14.112000000000002 14.620000000000001,12.842" stroke="#ffffff" stroke-width="0.3" stroke-linejoin="round" stroke-linecap="round" fill="none"/>
<polyline points="14.620000000000001,14.112000000000002 14.620000000000001,16.0424 17.668,16.0424" stroke="#ffffff" stroke-width="0.3" stroke-linejoin="round" stroke-linecap="round" fill="none"/>
<line x1="14.620000000000001" y1="22.240000000000002" x2="14.620000000000001" y2="19.700000000000003" stroke="#ffffff" stroke-width="0.3" stroke-linecap="round" fill="none"/>
<line x1="14.7216" y1="19.700000000000003" x2="21.224" y2="19.700000000000003" stroke="#ffffff" stroke-width="0.3" stroke-linecap="round" fill="none"/>
<line x1="17.668" y1="15.001000000000001" x2="17.668" y2="17.033" stroke="#ffffff" stroke-width="0.3" stroke-linecap="round" fill="none"/>
<line x1="17.668" y1="15.89" x2="18.938000000000002" y2="14.620000000000001" stroke="#ffffff" stroke-width="0.3" stroke-linecap="round" fill="none"/>
<line x1="17.668" y1="16.144000000000002" x2="19.065" y2="17.541" stroke="#ffffff" stroke-width="0.3" stroke-linecap="round" fill="none"/>
<polyline points="18.684,17.16 18.43,16.652 18.176000000000002,16.906000000000002 18.684,17.16" stroke="#ffffff" stroke-width="0.3" stroke-linejoin="round" stroke-linecap="round" fill="none"/>
<line x1="18.938000000000002" y1="14.620000000000001" x2="22.240000000000002" y2="14.620000000000001" stroke="#ffffff" stroke-width="0.3" stroke-linecap="round" fill="none"/>
<line x1="19.954" y1="16.525000000000002" x2="19.954" y2="18.557000000000002" stroke="#ffffff" stroke-width="0.3" stroke-linecap="round" fill="none"/>
<line x1="19.954" y1="17.414" x2="21.224" y2="16.144000000000002" stroke="#ffffff" stroke-width="0.3" stroke-linecap="round" fill="none"/>
<line x1="19.954" y1="17.541" x2="19.065" y2="17.541" stroke="#ffffff" stroke-width="0.3" stroke-linecap="round" fill="none"/>
<line x1="19.954" y1="17.668" x2="21.224" y2="18.938000000000002" stroke="#ffffff" stroke-width="0.3" stroke-linecap="round" fill="none"/>
<polyline points="20.97,18.684 20.716,18.176000000000002 20.462,18.43 20.97,18.684" stroke="#ffffff" stroke-width="0.3" stroke-linejoin="round" stroke-linecap="round" fill="none"/>
<circle cx="21.224" cy="14.620000000000001" r="0.127" stroke="#ffffff" stroke-width="0.3" fill="none"/>
<line x1="21.224" y1="16.144000000000002" x2="21.224" y2="14.620000000000001" stroke="#ffffff" stroke-width="0.3" stroke-linecap="round" fill="none"/>
<line x1="21.224" y1="18.938000000000002" x2="21.224" y2="19.700000000000003" stroke="#ffffff" stroke-width="0.3" stroke-linecap="round" fill="none"/>
<line x1="4.460000000000001" y1="9.540000000000001" x2="7.000000000000001" y2="9.540000000000001" stroke="#ffd60a" stroke-width="0.41771428571428576" stroke-linecap="round"/>
<text x="4" y="9.540000000000001" fill="#ffd60a" font-size="1" font-family="monospace" text-anchor="start" dominant-baseline="middle">A</text>
<line x1="7.000000000000001" y1="14.620000000000001" x2="9.540000000000001" y2="14.620000000000001" stroke="#ffd60a" stroke-width="0.41771428571428576" stroke-linecap="round"/>
<text x="12.540000000000001" y="14.620000000000001" fill="#ffd60a" font-size="1" font-family="monospace" text-anchor="start" dominant-baseline="middle">NC</text>
<line x1="4.460000000000001" y1="19.700000000000003" x2="7.000000000000001" y2="19.700000000000003" stroke="#ffd60a" stroke-width="0.41771428571428576" stroke-linecap="round"/>
<text x="4" y="19.700000000000003" fill="#ffd60a" font-size="1" font-family="monospace" text-anchor="start" dominant-baseline="middle">K</text>
<line x1="14.620000000000001" y1="24.78" x2="14.620000000000001" y2="22.240000000000002" stroke="#ffd60a" stroke-width="0.41771428571428576" stroke-linecap="round"/>
<text x="14.620000000000001" y="25.240000000000002" fill="#ffd60a" font-size="1" font-family="monospace" text-anchor="middle" dominant-baseline="middle">GND</text>
<line x1="24.78" y1="14.620000000000001" x2="22.240000000000002" y2="14.620000000000001" stroke="#ffd60a" stroke-width="0.41771428571428576" stroke-linecap="round"/>
<text x="25.240000000000002" y="14.620000000000001" fill="#ffd60a" font-size="1" font-family="monospace" text-anchor="end" dominant-baseline="middle">Out</text>
<line x1="14.620000000000001" y1="4.460000000000001" x2="14.620000000000001" y2="7.000000000000001" stroke="#ffd60a" stroke-width="0.41771428571428576" stroke-linecap="round"/>
<text x="14.620000000000001" y="4" fill="#ffd60a" font-size="1" font-family="monospace" text-anchor="middle" dominant-baseline="middle">VCC</text>
</svg>