<svg xmlns="http://www.w3.org/2000/svg" viewBox="0 0 180 420">
<rect x="50" y="50" width="80" height="320" stroke="#ffffff" stroke-width="1.5" fill="rgba(255,255,255,0.04)"/>
<text x="90" y="210" fill="#888" font-size="3" font-family="monospace" text-anchor="middle" dominant-baseline="middle">U</text>
<line x1="30" y1="60" x2="50" y2="60" stroke="#ffd60a" stroke-width="1.5" stroke-linecap="round"/>
<text x="55" y="60" fill="#ffd60a" font-size="2" font-family="monospace" text-anchor="start" dominant-baseline="middle">RESET</text>
<line x1="30" y1="80" x2="50" y2="80" stroke="#ffd60a" stroke-width="1.5" stroke-linecap="round"/>
<text x="55" y="80" fill="#ffd60a" font-size="2" font-family="monospace" text-anchor="start" dominant-baseline="middle">NXT</text>
<line x1="30" y1="100" x2="50" y2="100" stroke="#ffd60a" stroke-width="1.5" stroke-linecap="round"/>
<text x="55" y="100" fill="#ffd60a" font-size="2" font-family="monospace" text-anchor="start" dominant-baseline="middle">DIR</text>
<line x1="30" y1="120" x2="50" y2="120" stroke="#ffd60a" stroke-width="1.5" stroke-linecap="round"/>
<text x="55" y="120" fill="#ffd60a" font-size="2" font-family="monospace" text-anchor="start" dominant-baseline="middle">STP</text>
<line x1="30" y1="140" x2="50" y2="140" stroke="#ffd60a" stroke-width="1.5" stroke-linecap="round"/>
<text x="55" y="140" fill="#ffd60a" font-size="2" font-family="monospace" text-anchor="start" dominant-baseline="middle">CLKOUT</text>
<line x1="30" y1="160" x2="50" y2="160" stroke="#ffd60a" stroke-width="1.5" stroke-linecap="round"/>
<text x="55" y="160" fill="#ffd60a" font-size="2" font-family="monospace" text-anchor="start" dominant-baseline="middle">VDD1.8</text>
<line x1="30" y1="180" x2="50" y2="180" stroke="#ffd60a" stroke-width="1.5" stroke-linecap="round"/>
<text x="55" y="180" fill="#ffd60a" font-size="2" font-family="monospace" text-anchor="start" dominant-baseline="middle">DATA7</text>
<line x1="30" y1="200" x2="50" y2="200" stroke="#ffd60a" stroke-width="1.5" stroke-linecap="round"/>
<text x="55" y="200" fill="#ffd60a" font-size="2" font-family="monospace" text-anchor="start" dominant-baseline="middle">DATA6</text>
<line x1="30" y1="220" x2="50" y2="220" stroke="#ffd60a" stroke-width="1.5" stroke-linecap="round"/>
<text x="55" y="220" fill="#ffd60a" font-size="2" font-family="monospace" text-anchor="start" dominant-baseline="middle">DATA5</text>
<line x1="30" y1="240" x2="50" y2="240" stroke="#ffd60a" stroke-width="1.5" stroke-linecap="round"/>
<text x="55" y="240" fill="#ffd60a" font-size="2" font-family="monospace" text-anchor="start" dominant-baseline="middle">DATA4</text>
<line x1="30" y1="260" x2="50" y2="260" stroke="#ffd60a" stroke-width="1.5" stroke-linecap="round"/>
<text x="55" y="260" fill="#ffd60a" font-size="2" font-family="monospace" text-anchor="start" dominant-baseline="middle">DATA3</text>
<line x1="30" y1="280" x2="50" y2="280" stroke="#ffd60a" stroke-width="1.5" stroke-linecap="round"/>
<text x="55" y="280" fill="#ffd60a" font-size="2" font-family="monospace" text-anchor="start" dominant-baseline="middle">DATA2</text>
<line x1="30" y1="300" x2="50" y2="300" stroke="#ffd60a" stroke-width="1.5" stroke-linecap="round"/>
<text x="55" y="300" fill="#ffd60a" font-size="2" font-family="monospace" text-anchor="start" dominant-baseline="middle">DATA1</text>
<line x1="30" y1="320" x2="50" y2="320" stroke="#ffd60a" stroke-width="1.5" stroke-linecap="round"/>
<text x="55" y="320" fill="#ffd60a" font-size="2" font-family="monospace" text-anchor="start" dominant-baseline="middle">DATA0</text>
<line x1="30" y1="340" x2="50" y2="340" stroke="#ffd60a" stroke-width="1.5" stroke-linecap="round"/>
<text x="55" y="340" fill="#ffd60a" font-size="2" font-family="monospace" text-anchor="start" dominant-baseline="middle">VDD1.8</text>
<line x1="30" y1="360" x2="50" y2="360" stroke="#ffd60a" stroke-width="1.5" stroke-linecap="round"/>
<text x="55" y="360" fill="#ffd60a" font-size="2" font-family="monospace" text-anchor="start" dominant-baseline="middle">VDDA1.8</text>
<line x1="150" y1="66" x2="130" y2="66" stroke="#ffd60a" stroke-width="1.5" stroke-linecap="round"/>
<text x="125" y="66" fill="#ffd60a" font-size="2" font-family="monospace" text-anchor="end" dominant-baseline="middle">CPEN</text>
<line x1="150" y1="98" x2="130" y2="98" stroke="#ffd60a" stroke-width="1.5" stroke-linecap="round"/>
<text x="125" y="98" fill="#ffd60a" font-size="2" font-family="monospace" text-anchor="end" dominant-baseline="middle">VBUS</text>
<line x1="150" y1="130" x2="130" y2="130" stroke="#ffd60a" stroke-width="1.5" stroke-linecap="round"/>
<text x="125" y="130" fill="#ffd60a" font-size="2" font-family="monospace" text-anchor="end" dominant-baseline="middle">ID</text>
<line x1="150" y1="162" x2="130" y2="162" stroke="#ffd60a" stroke-width="1.5" stroke-linecap="round"/>
<text x="125" y="162" fill="#ffd60a" font-size="2" font-family="monospace" text-anchor="end" dominant-baseline="middle">DP</text>
<line x1="150" y1="194" x2="130" y2="194" stroke="#ffd60a" stroke-width="1.5" stroke-linecap="round"/>
<text x="125" y="194" fill="#ffd60a" font-size="2" font-family="monospace" text-anchor="end" dominant-baseline="middle">DM</text>
<line x1="150" y1="226" x2="130" y2="226" stroke="#ffd60a" stroke-width="1.5" stroke-linecap="round"/>
<text x="125" y="226" fill="#ffd60a" font-size="2" font-family="monospace" text-anchor="end" dominant-baseline="middle">EXTVBUS</text>
<line x1="150" y1="258" x2="130" y2="258" stroke="#ffd60a" stroke-width="1.5" stroke-linecap="round"/>
<text x="125" y="258" fill="#ffd60a" font-size="2" font-family="monospace" text-anchor="end" dominant-baseline="middle">XO</text>
<line x1="150" y1="290" x2="130" y2="290" stroke="#ffd60a" stroke-width="1.5" stroke-linecap="round"/>
<text x="125" y="290" fill="#ffd60a" font-size="2" font-family="monospace" text-anchor="end" dominant-baseline="middle">XI</text>
<line x1="150" y1="322" x2="130" y2="322" stroke="#ffd60a" stroke-width="1.5" stroke-linecap="round"/>
<text x="125" y="322" fill="#ffd60a" font-size="2" font-family="monospace" text-anchor="end" dominant-baseline="middle">REG_EN</text>
<line x1="150" y1="354" x2="130" y2="354" stroke="#ffd60a" stroke-width="1.5" stroke-linecap="round"/>
<text x="125" y="354" fill="#ffd60a" font-size="2" font-family="monospace" text-anchor="end" dominant-baseline="middle">RBIAS</text>
<line x1="63.33333333333333" y1="30" x2="63.33333333333333" y2="50" stroke="#ffd60a" stroke-width="1.5" stroke-linecap="round"/>
<text x="63.33333333333333" y="25" fill="#ffd60a" font-size="2" font-family="monospace" text-anchor="middle" dominant-baseline="middle">GND</text>
<line x1="90" y1="30" x2="90" y2="50" stroke="#ffd60a" stroke-width="1.5" stroke-linecap="round"/>
<text x="90" y="25" fill="#ffd60a" font-size="2" font-family="monospace" text-anchor="middle" dominant-baseline="middle">GND</text>
<line x1="116.66666666666667" y1="30" x2="116.66666666666667" y2="50" stroke="#ffd60a" stroke-width="1.5" stroke-linecap="round"/>
<text x="116.66666666666667" y="25" fill="#ffd60a" font-size="2" font-family="monospace" text-anchor="middle" dominant-baseline="middle">GND</text>
<line x1="60" y1="390" x2="60" y2="370" stroke="#ffd60a" stroke-width="1.5" stroke-linecap="round"/>
<text x="60" y="404" fill="#ffd60a" font-size="2" font-family="monospace" text-anchor="middle" dominant-baseline="middle">VDD3.3</text>
<line x1="80" y1="390" x2="80" y2="370" stroke="#ffd60a" stroke-width="1.5" stroke-linecap="round"/>
<text x="80" y="404" fill="#ffd60a" font-size="2" font-family="monospace" text-anchor="middle" dominant-baseline="middle">VDD3.3</text>
<line x1="100" y1="390" x2="100" y2="370" stroke="#ffd60a" stroke-width="1.5" stroke-linecap="round"/>
<text x="100" y="404" fill="#ffd60a" font-size="2" font-family="monospace" text-anchor="middle" dominant-baseline="middle">VDD3.3</text>
<line x1="120" y1="390" x2="120" y2="370" stroke="#ffd60a" stroke-width="1.5" stroke-linecap="round"/>
<text x="120" y="404" fill="#ffd60a" font-size="2" font-family="monospace" text-anchor="middle" dominant-baseline="middle">VDD3.3</text>
</svg>