<svg xmlns="http://www.w3.org/2000/svg" viewBox="0 0 29.415000000000003 24.16">
<line x1="22.240000000000002" y1="9.413" x2="22.240000000000002" y2="7" stroke="#ffffff" stroke-width="0.3" stroke-linecap="round" fill="none"/>
<line x1="22.240000000000002" y1="17.16" x2="22.240000000000002" y2="14.747" stroke="#ffffff" stroke-width="0.3" stroke-linecap="round" fill="none"/>
<rect x="7.000000000000002" y="17.16" width="18.415" height="10.16" stroke="#ffffff" stroke-width="0.3" fill="rgba(255,255,255,0.06)"/>
<rect x="11.064000000000002" y="13.858" width="5.8420000000000005" height="3.683" stroke="#ffffff" stroke-width="0.3" fill="none"/>
<line x1="11.064000000000002" y1="12.08" x2="7.000000000000002" y2="12.08" stroke="#ffffff" stroke-width="0.3" stroke-linecap="round" fill="none"/>
<polyline points="12.562600000000002,16.017 9.032000000000002,16.017 9.032000000000002,12.08" stroke="#ffffff" stroke-width="0.3" stroke-linejoin="round" stroke-linecap="round" fill="none"/>
<circle cx="12.842000000000002" cy="16.017" r="0.254" stroke="#ffffff" stroke-width="0.3" fill="none"/>
<line x1="13.096000000000002" y1="15.89" x2="14.975600000000002" y2="15.0772" stroke="#ffffff" stroke-width="0.3" stroke-linecap="round" fill="none"/>
<circle cx="15.128000000000002" cy="16.017" r="0.254" stroke="#ffffff" stroke-width="0.3" fill="none"/>
<line x1="16.652" y1="16.017" x2="15.407400000000003" y2="16.017" stroke="#ffffff" stroke-width="0.3" stroke-linecap="round" fill="none"/>
<polyline points="16.652,16.017 16.906000000000002,15.509 17.160000000000004,16.017 17.414,16.525 17.668000000000003,16.017" stroke="#ffffff" stroke-width="0.3" stroke-linejoin="round" stroke-linecap="round" fill="none"/>
<line x1="16.906000000000002" y1="12.08" x2="19.954" y2="12.08" stroke="#ffffff" stroke-width="0.3" stroke-linecap="round" fill="none"/>
<polyline points="17.668000000000003,16.017 17.922000000000004,15.509 18.176000000000002,16.017 18.430000000000003,16.525 18.684,16.017" stroke="#ffffff" stroke-width="0.3" stroke-linejoin="round" stroke-linecap="round" fill="none"/>
<polyline points="18.684,16.017 18.938000000000002,15.509 19.192,16.017 19.446,16.525 19.700000000000003,16.017" stroke="#ffffff" stroke-width="0.3" stroke-linejoin="round" stroke-linecap="round" fill="none"/>
<line x1="19.954" y1="10.175" x2="19.954" y2="13.985" stroke="#ffffff" stroke-width="0.3" stroke-linecap="round" fill="none"/>
<line x1="20.462000000000003" y1="9.794" x2="20.462000000000003" y2="10.81" stroke="#ffffff" stroke-width="0.3" stroke-linecap="round" fill="none"/>
<line x1="20.462000000000003" y1="11.572" x2="20.462000000000003" y2="12.588000000000001" stroke="#ffffff" stroke-width="0.3" stroke-linecap="round" fill="none"/>
<line x1="20.462000000000003" y1="13.35" x2="20.462000000000003" y2="14.366" stroke="#ffffff" stroke-width="0.3" stroke-linecap="round" fill="none"/>
<polyline points="20.462000000000003,13.858 23.002000000000002,13.858 23.002000000000002,10.302 20.462000000000003,10.302" stroke="#ffffff" stroke-width="0.3" stroke-linejoin="round" stroke-linecap="round" fill="none"/>
<polyline points="20.716,12.08 21.732000000000003,11.699 21.732000000000003,12.461 20.716,12.08" stroke="#ffffff" stroke-width="0.3" stroke-linejoin="round" stroke-linecap="round" fill="#ffffff"/>
<circle cx="21.351000000000003" cy="12.08" r="2.794" stroke="#ffffff" stroke-width="0.3" fill="none"/>
<line x1="22.240000000000002" y1="9.54" x2="22.240000000000002" y2="10.302" stroke="#ffffff" stroke-width="0.3" stroke-linecap="round" fill="none"/>
<circle cx="22.240000000000002" cy="10.302" r="0.254" stroke="#ffffff" stroke-width="0.3" fill="#ffffff"/>
<circle cx="22.240000000000002" cy="13.858" r="0.254" stroke="#ffffff" stroke-width="0.3" fill="#ffffff"/>
<polyline points="22.240000000000002,14.620000000000001 22.240000000000002,12.08 20.462000000000003,12.08" stroke="#ffffff" stroke-width="0.3" stroke-linejoin="round" stroke-linecap="round" fill="none"/>
<line x1="22.240000000000002" y1="16.017" x2="19.700000000000003" y2="16.017" stroke="#ffffff" stroke-width="0.3" stroke-linecap="round" fill="none"/>
<polyline points="22.494000000000003,11.572 22.621000000000002,11.699 23.383000000000003,11.699 23.51,11.826" stroke="#ffffff" stroke-width="0.3" stroke-linejoin="round" stroke-linecap="round" fill="none"/>
<polyline points="23.002000000000002,11.699 22.621000000000002,12.334 23.383000000000003,12.334 23.002000000000002,11.699" stroke="#ffffff" stroke-width="0.3" stroke-linejoin="round" stroke-linecap="round" fill="none"/>
<circle cx="9.032000000000002" cy="12.08" r="0.2794" stroke="#ffffff" stroke-width="0.3" fill="#ffffff"/>
<line x1="13.959600000000002" y1="14.1882" x2="13.959600000000002" y2="13.8834" stroke="#ffffff" stroke-width="0.3" stroke-linecap="round" fill="none"/>
<line x1="13.959600000000002" y1="14.8232" x2="13.959600000000002" y2="14.5692" stroke="#ffffff" stroke-width="0.3" stroke-linecap="round" fill="none"/>
<line x1="13.959600000000002" y1="15.4582" x2="13.959600000000002" y2="15.2042" stroke="#ffffff" stroke-width="0.3" stroke-linecap="round" fill="none"/>
<circle cx="22.240000000000002" cy="16.017" r="0.2794" stroke="#ffffff" stroke-width="0.3" fill="#ffffff"/>
<line x1="4.460000000000001" y1="12.08" x2="7" y2="12.08" stroke="#ffd60a" stroke-width="0.42021428571428576" stroke-linecap="round"/>
<text x="4" y="12.08" fill="#ffd60a" font-size="1" font-family="monospace" text-anchor="start" dominant-baseline="middle">INPUT</text>
<line x1="22.240000000000002" y1="4.46" x2="22.240000000000002" y2="7" stroke="#ffd60a" stroke-width="0.42021428571428576" stroke-linecap="round"/>
<text x="22.240000000000002" y="4" fill="#ffd60a" font-size="1" font-family="monospace" text-anchor="middle" dominant-baseline="middle">DRAIN</text>
<line x1="22.240000000000002" y1="19.7" x2="22.240000000000002" y2="17.16" stroke="#ffd60a" stroke-width="0.42021428571428576" stroke-linecap="round"/>
<text x="22.240000000000002" y="20.16" fill="#ffd60a" font-size="1" font-family="monospace" text-anchor="middle" dominant-baseline="middle">SOURCE</text>
</svg>