<svg xmlns="http://www.w3.org/2000/svg" viewBox="0 0 240 440">
<rect x="50" y="50" width="140" height="340" stroke="#ffffff" stroke-width="1.5" fill="rgba(255,255,255,0.04)"/>
<text x="120" y="220" fill="#888" font-size="3" font-family="monospace" text-anchor="middle" dominant-baseline="middle">U</text>
<line x1="30" y1="60" x2="50" y2="60" stroke="#ffd60a" stroke-width="1.5" stroke-linecap="round"/>
<text x="55" y="60" fill="#ffd60a" font-size="2" font-family="monospace" text-anchor="start" dominant-baseline="middle">TXN</text>
<line x1="30" y1="80" x2="50" y2="80" stroke="#ffd60a" stroke-width="1.5" stroke-linecap="round"/>
<text x="55" y="80" fill="#ffd60a" font-size="2" font-family="monospace" text-anchor="start" dominant-baseline="middle">TXP</text>
<line x1="30" y1="100" x2="50" y2="100" stroke="#ffd60a" stroke-width="1.5" stroke-linecap="round"/>
<text x="55" y="100" fill="#ffd60a" font-size="2" font-family="monospace" text-anchor="start" dominant-baseline="middle">RXN</text>
<line x1="30" y1="120" x2="50" y2="120" stroke="#ffd60a" stroke-width="1.5" stroke-linecap="round"/>
<text x="55" y="120" fill="#ffd60a" font-size="2" font-family="monospace" text-anchor="start" dominant-baseline="middle">RXP</text>
<line x1="30" y1="140" x2="50" y2="140" stroke="#ffd60a" stroke-width="1.5" stroke-linecap="round"/>
<text x="55" y="140" fill="#ffd60a" font-size="2" font-family="monospace" text-anchor="start" dominant-baseline="middle">DNC</text>
<line x1="30" y1="160" x2="50" y2="160" stroke="#ffd60a" stroke-width="1.5" stroke-linecap="round"/>
<text x="55" y="160" fill="#ffd60a" font-size="2" font-family="monospace" text-anchor="start" dominant-baseline="middle">EXRES1</text>
<line x1="30" y1="180" x2="50" y2="180" stroke="#ffd60a" stroke-width="1.5" stroke-linecap="round"/>
<text x="55" y="180" fill="#ffd60a" font-size="2" font-family="monospace" text-anchor="start" dominant-baseline="middle">NC</text>
<line x1="30" y1="200" x2="50" y2="200" stroke="#ffd60a" stroke-width="1.5" stroke-linecap="round"/>
<text x="55" y="200" fill="#ffd60a" font-size="2" font-family="monospace" text-anchor="start" dominant-baseline="middle">NC</text>
<line x1="30" y1="220" x2="50" y2="220" stroke="#ffd60a" stroke-width="1.5" stroke-linecap="round"/>
<text x="55" y="220" fill="#ffd60a" font-size="2" font-family="monospace" text-anchor="start" dominant-baseline="middle">VBG</text>
<line x1="30" y1="240" x2="50" y2="240" stroke="#ffd60a" stroke-width="1.5" stroke-linecap="round"/>
<text x="55" y="240" fill="#ffd60a" font-size="2" font-family="monospace" text-anchor="start" dominant-baseline="middle">TOCAP</text>
<line x1="30" y1="260" x2="50" y2="260" stroke="#ffd60a" stroke-width="1.5" stroke-linecap="round"/>
<text x="55" y="260" fill="#ffd60a" font-size="2" font-family="monospace" text-anchor="start" dominant-baseline="middle">1V2O</text>
<line x1="30" y1="280" x2="50" y2="280" stroke="#ffd60a" stroke-width="1.5" stroke-linecap="round"/>
<text x="55" y="280" fill="#ffd60a" font-size="2" font-family="monospace" text-anchor="start" dominant-baseline="middle">SPDLED</text>
<line x1="30" y1="300" x2="50" y2="300" stroke="#ffd60a" stroke-width="1.5" stroke-linecap="round"/>
<text x="55" y="300" fill="#ffd60a" font-size="2" font-family="monospace" text-anchor="start" dominant-baseline="middle">LINKLED</text>
<line x1="30" y1="320" x2="50" y2="320" stroke="#ffd60a" stroke-width="1.5" stroke-linecap="round"/>
<text x="55" y="320" fill="#ffd60a" font-size="2" font-family="monospace" text-anchor="start" dominant-baseline="middle">DUPLED</text>
<line x1="30" y1="340" x2="50" y2="340" stroke="#ffd60a" stroke-width="1.5" stroke-linecap="round"/>
<text x="55" y="340" fill="#ffd60a" font-size="2" font-family="monospace" text-anchor="start" dominant-baseline="middle">ACTLED</text>
<line x1="30" y1="360" x2="50" y2="360" stroke="#ffd60a" stroke-width="1.5" stroke-linecap="round"/>
<text x="55" y="360" fill="#ffd60a" font-size="2" font-family="monospace" text-anchor="start" dominant-baseline="middle">NC</text>
<line x1="30" y1="380" x2="50" y2="380" stroke="#ffd60a" stroke-width="1.5" stroke-linecap="round"/>
<text x="55" y="380" fill="#ffd60a" font-size="2" font-family="monospace" text-anchor="start" dominant-baseline="middle">NC</text>
<line x1="210" y1="60" x2="190" y2="60" stroke="#ffd60a" stroke-width="1.5" stroke-linecap="round"/>
<text x="185" y="60" fill="#ffd60a" font-size="2" font-family="monospace" text-anchor="end" dominant-baseline="middle">RSVD</text>
<line x1="210" y1="80" x2="190" y2="80" stroke="#ffd60a" stroke-width="1.5" stroke-linecap="round"/>
<text x="185" y="80" fill="#ffd60a" font-size="2" font-family="monospace" text-anchor="end" dominant-baseline="middle">XI/CLKIN</text>
<line x1="210" y1="100" x2="190" y2="100" stroke="#ffd60a" stroke-width="1.5" stroke-linecap="round"/>
<text x="185" y="100" fill="#ffd60a" font-size="2" font-family="monospace" text-anchor="end" dominant-baseline="middle">XO</text>
<line x1="210" y1="120" x2="190" y2="120" stroke="#ffd60a" stroke-width="1.5" stroke-linecap="round"/>
<text x="185" y="120" fill="#ffd60a" font-size="2" font-family="monospace" text-anchor="end" dominant-baseline="middle">~{SCS}</text>
<line x1="210" y1="140" x2="190" y2="140" stroke="#ffd60a" stroke-width="1.5" stroke-linecap="round"/>
<text x="185" y="140" fill="#ffd60a" font-size="2" font-family="monospace" text-anchor="end" dominant-baseline="middle">SCLK</text>
<line x1="210" y1="160" x2="190" y2="160" stroke="#ffd60a" stroke-width="1.5" stroke-linecap="round"/>
<text x="185" y="160" fill="#ffd60a" font-size="2" font-family="monospace" text-anchor="end" dominant-baseline="middle">MISO</text>
<line x1="210" y1="180" x2="190" y2="180" stroke="#ffd60a" stroke-width="1.5" stroke-linecap="round"/>
<text x="185" y="180" fill="#ffd60a" font-size="2" font-family="monospace" text-anchor="end" dominant-baseline="middle">MOSI</text>
<line x1="210" y1="200" x2="190" y2="200" stroke="#ffd60a" stroke-width="1.5" stroke-linecap="round"/>
<text x="185" y="200" fill="#ffd60a" font-size="2" font-family="monospace" text-anchor="end" dominant-baseline="middle">~{INT}</text>
<line x1="210" y1="220" x2="190" y2="220" stroke="#ffd60a" stroke-width="1.5" stroke-linecap="round"/>
<text x="185" y="220" fill="#ffd60a" font-size="2" font-family="monospace" text-anchor="end" dominant-baseline="middle">~{RST}</text>
<line x1="210" y1="240" x2="190" y2="240" stroke="#ffd60a" stroke-width="1.5" stroke-linecap="round"/>
<text x="185" y="240" fill="#ffd60a" font-size="2" font-family="monospace" text-anchor="end" dominant-baseline="middle">RSVD</text>
<line x1="210" y1="260" x2="190" y2="260" stroke="#ffd60a" stroke-width="1.5" stroke-linecap="round"/>
<text x="185" y="260" fill="#ffd60a" font-size="2" font-family="monospace" text-anchor="end" dominant-baseline="middle">RSVD</text>
<line x1="210" y1="280" x2="190" y2="280" stroke="#ffd60a" stroke-width="1.5" stroke-linecap="round"/>
<text x="185" y="280" fill="#ffd60a" font-size="2" font-family="monospace" text-anchor="end" dominant-baseline="middle">RSVD</text>
<line x1="210" y1="300" x2="190" y2="300" stroke="#ffd60a" stroke-width="1.5" stroke-linecap="round"/>
<text x="185" y="300" fill="#ffd60a" font-size="2" font-family="monospace" text-anchor="end" dominant-baseline="middle">RSVD</text>
<line x1="210" y1="320" x2="190" y2="320" stroke="#ffd60a" stroke-width="1.5" stroke-linecap="round"/>
<text x="185" y="320" fill="#ffd60a" font-size="2" font-family="monospace" text-anchor="end" dominant-baseline="middle">RSVD</text>
<line x1="210" y1="340" x2="190" y2="340" stroke="#ffd60a" stroke-width="1.5" stroke-linecap="round"/>
<text x="185" y="340" fill="#ffd60a" font-size="2" font-family="monospace" text-anchor="end" dominant-baseline="middle">PMODE2</text>
<line x1="210" y1="360" x2="190" y2="360" stroke="#ffd60a" stroke-width="1.5" stroke-linecap="round"/>
<text x="185" y="360" fill="#ffd60a" font-size="2" font-family="monospace" text-anchor="end" dominant-baseline="middle">PMODE1</text>
<line x1="210" y1="380" x2="190" y2="380" stroke="#ffd60a" stroke-width="1.5" stroke-linecap="round"/>
<text x="185" y="380" fill="#ffd60a" font-size="2" font-family="monospace" text-anchor="end" dominant-baseline="middle">PMODE0</text>
<line x1="60" y1="30" x2="60" y2="50" stroke="#ffd60a" stroke-width="1.5" stroke-linecap="round"/>
<text x="60" y="25" fill="#ffd60a" font-size="2" font-family="monospace" text-anchor="middle" dominant-baseline="middle">AGND</text>
<line x1="80" y1="30" x2="80" y2="50" stroke="#ffd60a" stroke-width="1.5" stroke-linecap="round"/>
<text x="80" y="25" fill="#ffd60a" font-size="2" font-family="monospace" text-anchor="middle" dominant-baseline="middle">AGND</text>
<line x1="100" y1="30" x2="100" y2="50" stroke="#ffd60a" stroke-width="1.5" stroke-linecap="round"/>
<text x="100" y="25" fill="#ffd60a" font-size="2" font-family="monospace" text-anchor="middle" dominant-baseline="middle">AGND</text>
<line x1="120" y1="30" x2="120" y2="50" stroke="#ffd60a" stroke-width="1.5" stroke-linecap="round"/>
<text x="120" y="25" fill="#ffd60a" font-size="2" font-family="monospace" text-anchor="middle" dominant-baseline="middle">AGND</text>
<line x1="140" y1="30" x2="140" y2="50" stroke="#ffd60a" stroke-width="1.5" stroke-linecap="round"/>
<text x="140" y="25" fill="#ffd60a" font-size="2" font-family="monospace" text-anchor="middle" dominant-baseline="middle">AGND</text>
<line x1="160" y1="30" x2="160" y2="50" stroke="#ffd60a" stroke-width="1.5" stroke-linecap="round"/>
<text x="160" y="25" fill="#ffd60a" font-size="2" font-family="monospace" text-anchor="middle" dominant-baseline="middle">GND</text>
<line x1="180" y1="30" x2="180" y2="50" stroke="#ffd60a" stroke-width="1.5" stroke-linecap="round"/>
<text x="180" y="25" fill="#ffd60a" font-size="2" font-family="monospace" text-anchor="middle" dominant-baseline="middle">AGND</text>
<line x1="60" y1="410" x2="60" y2="390" stroke="#ffd60a" stroke-width="1.5" stroke-linecap="round"/>
<text x="60" y="424" fill="#ffd60a" font-size="2" font-family="monospace" text-anchor="middle" dominant-baseline="middle">AVDD</text>
<line x1="80" y1="410" x2="80" y2="390" stroke="#ffd60a" stroke-width="1.5" stroke-linecap="round"/>
<text x="80" y="424" fill="#ffd60a" font-size="2" font-family="monospace" text-anchor="middle" dominant-baseline="middle">AVDD</text>
<line x1="100" y1="410" x2="100" y2="390" stroke="#ffd60a" stroke-width="1.5" stroke-linecap="round"/>
<text x="100" y="424" fill="#ffd60a" font-size="2" font-family="monospace" text-anchor="middle" dominant-baseline="middle">AVDD</text>
<line x1="120" y1="410" x2="120" y2="390" stroke="#ffd60a" stroke-width="1.5" stroke-linecap="round"/>
<text x="120" y="424" fill="#ffd60a" font-size="2" font-family="monospace" text-anchor="middle" dominant-baseline="middle">AVDD</text>
<line x1="140" y1="410" x2="140" y2="390" stroke="#ffd60a" stroke-width="1.5" stroke-linecap="round"/>
<text x="140" y="424" fill="#ffd60a" font-size="2" font-family="monospace" text-anchor="middle" dominant-baseline="middle">AVDD</text>
<line x1="160" y1="410" x2="160" y2="390" stroke="#ffd60a" stroke-width="1.5" stroke-linecap="round"/>
<text x="160" y="424" fill="#ffd60a" font-size="2" font-family="monospace" text-anchor="middle" dominant-baseline="middle">AVDD</text>
<line x1="180" y1="410" x2="180" y2="390" stroke="#ffd60a" stroke-width="1.5" stroke-linecap="round"/>
<text x="180" y="424" fill="#ffd60a" font-size="2" font-family="monospace" text-anchor="middle" dominant-baseline="middle">VDD</text>
</svg>