<svg xmlns="http://www.w3.org/2000/svg" viewBox="0 0 180 660">
<rect x="50" y="50" width="80" height="560" stroke="#ffffff" stroke-width="1.5" fill="rgba(255,255,255,0.04)"/>
<text x="90" y="330" fill="#888" font-size="3" font-family="monospace" text-anchor="middle" dominant-baseline="middle">U</text>
<line x1="30" y1="78" x2="50" y2="78" stroke="#ffd60a" stroke-width="1.5" stroke-linecap="round"/>
<text x="55" y="78" fill="#ffd60a" font-size="2" font-family="monospace" text-anchor="start" dominant-baseline="middle">STEP</text>
<line x1="30" y1="134" x2="50" y2="134" stroke="#ffd60a" stroke-width="1.5" stroke-linecap="round"/>
<text x="55" y="134" fill="#ffd60a" font-size="2" font-family="monospace" text-anchor="start" dominant-baseline="middle">DIRC</text>
<line x1="30" y1="190" x2="50" y2="190" stroke="#ffd60a" stroke-width="1.5" stroke-linecap="round"/>
<text x="55" y="190" fill="#ffd60a" font-size="2" font-family="monospace" text-anchor="start" dominant-baseline="middle">PUMP</text>
<line x1="30" y1="246" x2="50" y2="246" stroke="#ffd60a" stroke-width="1.5" stroke-linecap="round"/>
<text x="55" y="246" fill="#ffd60a" font-size="2" font-family="monospace" text-anchor="start" dominant-baseline="middle">SSO</text>
<line x1="30" y1="302" x2="50" y2="302" stroke="#ffd60a" stroke-width="1.5" stroke-linecap="round"/>
<text x="55" y="302" fill="#ffd60a" font-size="2" font-family="monospace" text-anchor="start" dominant-baseline="middle">HLD</text>
<line x1="30" y1="358" x2="50" y2="358" stroke="#ffd60a" stroke-width="1.5" stroke-linecap="round"/>
<text x="55" y="358" fill="#ffd60a" font-size="2" font-family="monospace" text-anchor="start" dominant-baseline="middle">TG43</text>
<line x1="30" y1="414" x2="50" y2="414" stroke="#ffd60a" stroke-width="1.5" stroke-linecap="round"/>
<text x="55" y="414" fill="#ffd60a" font-size="2" font-family="monospace" text-anchor="start" dominant-baseline="middle">WG</text>
<line x1="30" y1="470" x2="50" y2="470" stroke="#ffd60a" stroke-width="1.5" stroke-linecap="round"/>
<text x="55" y="470" fill="#ffd60a" font-size="2" font-family="monospace" text-anchor="start" dominant-baseline="middle">WD</text>
<line x1="30" y1="526" x2="50" y2="526" stroke="#ffd60a" stroke-width="1.5" stroke-linecap="round"/>
<text x="55" y="526" fill="#ffd60a" font-size="2" font-family="monospace" text-anchor="start" dominant-baseline="middle">DRQ</text>
<line x1="30" y1="582" x2="50" y2="582" stroke="#ffd60a" stroke-width="1.5" stroke-linecap="round"/>
<text x="55" y="582" fill="#ffd60a" font-size="2" font-family="monospace" text-anchor="start" dominant-baseline="middle">INTRQ</text>
<line x1="150" y1="60" x2="130" y2="60" stroke="#ffd60a" stroke-width="1.5" stroke-linecap="round"/>
<text x="125" y="60" fill="#ffd60a" font-size="2" font-family="monospace" text-anchor="end" dominant-baseline="middle">ENP</text>
<line x1="150" y1="80" x2="130" y2="80" stroke="#ffd60a" stroke-width="1.5" stroke-linecap="round"/>
<text x="125" y="80" fill="#ffd60a" font-size="2" font-family="monospace" text-anchor="end" dominant-baseline="middle">~{WE}</text>
<line x1="150" y1="100" x2="130" y2="100" stroke="#ffd60a" stroke-width="1.5" stroke-linecap="round"/>
<text x="125" y="100" fill="#ffd60a" font-size="2" font-family="monospace" text-anchor="end" dominant-baseline="middle">~{CS}</text>
<line x1="150" y1="120" x2="130" y2="120" stroke="#ffd60a" stroke-width="1.5" stroke-linecap="round"/>
<text x="125" y="120" fill="#ffd60a" font-size="2" font-family="monospace" text-anchor="end" dominant-baseline="middle">~{RE}</text>
<line x1="150" y1="140" x2="130" y2="140" stroke="#ffd60a" stroke-width="1.5" stroke-linecap="round"/>
<text x="125" y="140" fill="#ffd60a" font-size="2" font-family="monospace" text-anchor="end" dominant-baseline="middle">A0</text>
<line x1="150" y1="160" x2="130" y2="160" stroke="#ffd60a" stroke-width="1.5" stroke-linecap="round"/>
<text x="125" y="160" fill="#ffd60a" font-size="2" font-family="monospace" text-anchor="end" dominant-baseline="middle">A1</text>
<line x1="150" y1="180" x2="130" y2="180" stroke="#ffd60a" stroke-width="1.5" stroke-linecap="round"/>
<text x="125" y="180" fill="#ffd60a" font-size="2" font-family="monospace" text-anchor="end" dominant-baseline="middle">~{DAL0}</text>
<line x1="150" y1="200" x2="130" y2="200" stroke="#ffd60a" stroke-width="1.5" stroke-linecap="round"/>
<text x="125" y="200" fill="#ffd60a" font-size="2" font-family="monospace" text-anchor="end" dominant-baseline="middle">~{DAL1}</text>
<line x1="150" y1="220" x2="130" y2="220" stroke="#ffd60a" stroke-width="1.5" stroke-linecap="round"/>
<text x="125" y="220" fill="#ffd60a" font-size="2" font-family="monospace" text-anchor="end" dominant-baseline="middle">~{DAL2}</text>
<line x1="150" y1="240" x2="130" y2="240" stroke="#ffd60a" stroke-width="1.5" stroke-linecap="round"/>
<text x="125" y="240" fill="#ffd60a" font-size="2" font-family="monospace" text-anchor="end" dominant-baseline="middle">~{DAL3}</text>
<line x1="150" y1="260" x2="130" y2="260" stroke="#ffd60a" stroke-width="1.5" stroke-linecap="round"/>
<text x="125" y="260" fill="#ffd60a" font-size="2" font-family="monospace" text-anchor="end" dominant-baseline="middle">~{DAL4}</text>
<line x1="150" y1="280" x2="130" y2="280" stroke="#ffd60a" stroke-width="1.5" stroke-linecap="round"/>
<text x="125" y="280" fill="#ffd60a" font-size="2" font-family="monospace" text-anchor="end" dominant-baseline="middle">~{DAL5}</text>
<line x1="150" y1="300" x2="130" y2="300" stroke="#ffd60a" stroke-width="1.5" stroke-linecap="round"/>
<text x="125" y="300" fill="#ffd60a" font-size="2" font-family="monospace" text-anchor="end" dominant-baseline="middle">~{DAL6}</text>
<line x1="150" y1="320" x2="130" y2="320" stroke="#ffd60a" stroke-width="1.5" stroke-linecap="round"/>
<text x="125" y="320" fill="#ffd60a" font-size="2" font-family="monospace" text-anchor="end" dominant-baseline="middle">~{DAL7}</text>
<line x1="150" y1="340" x2="130" y2="340" stroke="#ffd60a" stroke-width="1.5" stroke-linecap="round"/>
<text x="125" y="340" fill="#ffd60a" font-size="2" font-family="monospace" text-anchor="end" dominant-baseline="middle">~{5}/8</text>
<line x1="150" y1="360" x2="130" y2="360" stroke="#ffd60a" stroke-width="1.5" stroke-linecap="round"/>
<text x="125" y="360" fill="#ffd60a" font-size="2" font-family="monospace" text-anchor="end" dominant-baseline="middle">RPW</text>
<line x1="150" y1="380" x2="130" y2="380" stroke="#ffd60a" stroke-width="1.5" stroke-linecap="round"/>
<text x="125" y="380" fill="#ffd60a" font-size="2" font-family="monospace" text-anchor="end" dominant-baseline="middle">~{MR}</text>
<line x1="150" y1="400" x2="130" y2="400" stroke="#ffd60a" stroke-width="1.5" stroke-linecap="round"/>
<text x="125" y="400" fill="#ffd60a" font-size="2" font-family="monospace" text-anchor="end" dominant-baseline="middle">~{TEST}</text>
<line x1="150" y1="420" x2="130" y2="420" stroke="#ffd60a" stroke-width="1.5" stroke-linecap="round"/>
<text x="125" y="420" fill="#ffd60a" font-size="2" font-family="monospace" text-anchor="end" dominant-baseline="middle">CLK</text>
<line x1="150" y1="440" x2="130" y2="440" stroke="#ffd60a" stroke-width="1.5" stroke-linecap="round"/>
<text x="125" y="440" fill="#ffd60a" font-size="2" font-family="monospace" text-anchor="end" dominant-baseline="middle">VCO</text>
<line x1="150" y1="460" x2="130" y2="460" stroke="#ffd60a" stroke-width="1.5" stroke-linecap="round"/>
<text x="125" y="460" fill="#ffd60a" font-size="2" font-family="monospace" text-anchor="end" dominant-baseline="middle">~{RAW_READ}</text>
<line x1="150" y1="480" x2="130" y2="480" stroke="#ffd60a" stroke-width="1.5" stroke-linecap="round"/>
<text x="125" y="480" fill="#ffd60a" font-size="2" font-family="monospace" text-anchor="end" dominant-baseline="middle">READY</text>
<line x1="150" y1="500" x2="130" y2="500" stroke="#ffd60a" stroke-width="1.5" stroke-linecap="round"/>
<text x="125" y="500" fill="#ffd60a" font-size="2" font-family="monospace" text-anchor="end" dominant-baseline="middle">WPW</text>
<line x1="150" y1="520" x2="130" y2="520" stroke="#ffd60a" stroke-width="1.5" stroke-linecap="round"/>
<text x="125" y="520" fill="#ffd60a" font-size="2" font-family="monospace" text-anchor="end" dominant-baseline="middle">~{TR00}</text>
<line x1="150" y1="540" x2="130" y2="540" stroke="#ffd60a" stroke-width="1.5" stroke-linecap="round"/>
<text x="125" y="540" fill="#ffd60a" font-size="2" font-family="monospace" text-anchor="end" dominant-baseline="middle">~{IP}</text>
<line x1="150" y1="560" x2="130" y2="560" stroke="#ffd60a" stroke-width="1.5" stroke-linecap="round"/>
<text x="125" y="560" fill="#ffd60a" font-size="2" font-family="monospace" text-anchor="end" dominant-baseline="middle">~{WPRT}</text>
<line x1="150" y1="580" x2="130" y2="580" stroke="#ffd60a" stroke-width="1.5" stroke-linecap="round"/>
<text x="125" y="580" fill="#ffd60a" font-size="2" font-family="monospace" text-anchor="end" dominant-baseline="middle">~{DDEN}</text>
<line x1="150" y1="600" x2="130" y2="600" stroke="#ffd60a" stroke-width="1.5" stroke-linecap="round"/>
<text x="125" y="600" fill="#ffd60a" font-size="2" font-family="monospace" text-anchor="end" dominant-baseline="middle">HLT</text>
<line x1="90" y1="30" x2="90" y2="50" stroke="#ffd60a" stroke-width="1.5" stroke-linecap="round"/>
<text x="90" y="25" fill="#ffd60a" font-size="2" font-family="monospace" text-anchor="middle" dominant-baseline="middle">VSS</text>
<line x1="90" y1="630" x2="90" y2="610" stroke="#ffd60a" stroke-width="1.5" stroke-linecap="round"/>
<text x="90" y="644" fill="#ffd60a" font-size="2" font-family="monospace" text-anchor="middle" dominant-baseline="middle">VCC</text>
</svg>