<svg xmlns="http://www.w3.org/2000/svg" viewBox="0 0 23.240000000000002 15.620000000000001">
<line x1="6.540000000000001" y1="5.2700000000000005" x2="16.700000000000003" y2="5.2700000000000005" stroke="#ffffff" stroke-width="0.3" stroke-linecap="round" fill="none"/>
<line x1="6.540000000000001" y1="10.350000000000001" x2="16.700000000000003" y2="10.350000000000001" stroke="#ffffff" stroke-width="0.3" stroke-linecap="round" fill="none"/>
<rect x="7.556000000000001" y="9.461" width="6.35" height="3.302" stroke="#ffffff" stroke-width="0.3" fill="none"/>
<circle cx="7.556000000000001" cy="7.8100000000000005" r="0.127" stroke="#ffffff" stroke-width="0.3" fill="none"/>
<line x1="7.556000000000001" y1="7.8100000000000005" x2="6.540000000000001" y2="7.8100000000000005" stroke="#ffffff" stroke-width="0.3" stroke-linecap="round" fill="none"/>
<line x1="7.556000000000001" y1="7.8100000000000005" x2="13.906" y2="7.8100000000000005" stroke="#ffffff" stroke-width="0.3" stroke-linecap="round" fill="none"/>
<polyline points="8.191,6.7940000000000005 8.191,5.524000000000001 9.461000000000002,6.159000000000001 8.191,6.7940000000000005" stroke="#ffffff" stroke-width="0.3" stroke-linejoin="round" stroke-linecap="round" fill="none"/>
<polyline points="8.191,8.826 8.191,10.096 9.461000000000002,9.461 8.191,8.826" stroke="#ffffff" stroke-width="0.3" stroke-linejoin="round" stroke-linecap="round" fill="none"/>
<line x1="9.461000000000002" y1="5.524000000000001" x2="9.461000000000002" y2="6.7940000000000005" stroke="#ffffff" stroke-width="0.3" stroke-linecap="round" fill="none"/>
<line x1="9.461000000000002" y1="8.826" x2="9.461000000000002" y2="10.096" stroke="#ffffff" stroke-width="0.3" stroke-linecap="round" fill="none"/>
<circle cx="10.731000000000002" cy="5.2700000000000005" r="0.127" stroke="#ffffff" stroke-width="0.3" fill="none"/>
<circle cx="10.731000000000002" cy="6.159000000000001" r="0.127" stroke="#ffffff" stroke-width="0.3" fill="none"/>
<line x1="10.731000000000002" y1="6.159000000000001" x2="10.731000000000002" y2="5.2700000000000005" stroke="#ffffff" stroke-width="0.3" stroke-linecap="round" fill="none"/>
<circle cx="10.731000000000002" cy="9.461" r="0.127" stroke="#ffffff" stroke-width="0.3" fill="none"/>
<line x1="10.731000000000002" y1="9.461" x2="10.731000000000002" y2="10.223" stroke="#ffffff" stroke-width="0.3" stroke-linecap="round" fill="none"/>
<circle cx="10.731000000000002" cy="10.350000000000001" r="0.127" stroke="#ffffff" stroke-width="0.3" fill="none"/>
<line x1="11.112000000000002" y1="8.445" x2="11.112000000000002" y2="8.445" stroke="#ffffff" stroke-width="0.3" stroke-linecap="round" fill="none"/>
<polyline points="11.620000000000001,7.175000000000001 11.366000000000001,7.429 11.366000000000001,8.191 11.112000000000002,8.445" stroke="#ffffff" stroke-width="0.3" stroke-linejoin="round" stroke-linecap="round" fill="none"/>
<polyline points="12.001000000000001,6.7940000000000005 12.001000000000001,5.524000000000001 13.271,6.159000000000001 12.001000000000001,6.7940000000000005" stroke="#ffffff" stroke-width="0.3" stroke-linejoin="round" stroke-linecap="round" fill="none"/>
<polyline points="12.001000000000001,8.826 12.001000000000001,10.096 13.271,9.461 12.001000000000001,8.826" stroke="#ffffff" stroke-width="0.3" stroke-linejoin="round" stroke-linecap="round" fill="none"/>
<line x1="13.271" y1="5.524000000000001" x2="13.271" y2="6.7940000000000005" stroke="#ffffff" stroke-width="0.3" stroke-linecap="round" fill="none"/>
<line x1="13.271" y1="8.826" x2="13.271" y2="10.096" stroke="#ffffff" stroke-width="0.3" stroke-linecap="round" fill="none"/>
<line x1="13.906" y1="7.8100000000000005" x2="16.700000000000003" y2="7.8100000000000005" stroke="#ffffff" stroke-width="0.3" stroke-linecap="round" fill="none"/>
<circle cx="13.906" cy="7.8100000000000005" r="0.127" stroke="#ffffff" stroke-width="0.3" fill="none"/>
<rect x="6.540000000000001" y="11.620000000000001" width="10.16" height="7.62" stroke="#ffffff" stroke-width="0.3" fill="rgba(255,255,255,0.06)"/>
<polyline points="10.096,7.175000000000001 10.096,8.445 11.366000000000001,7.8100000000000005 10.096,7.175000000000001" stroke="#ffffff" stroke-width="0.3" stroke-linejoin="round" stroke-linecap="round" fill="none"/>
<line x1="14.795000000000002" y1="7.175000000000001" x2="14.795000000000002" y2="8.445" stroke="#ffffff" stroke-width="0.3" stroke-linecap="round" fill="none"/>
<polyline points="16.065,7.175000000000001 16.065,8.445 14.795000000000002,7.8100000000000005 16.065,7.175000000000001" stroke="#ffffff" stroke-width="0.3" stroke-linejoin="round" stroke-linecap="round" fill="none"/>
<line x1="4.000000000000001" y1="5.2700000000000005" x2="6.540000000000001" y2="5.2700000000000005" stroke="#ffd60a" stroke-width="0.332" stroke-linecap="round"/>
<line x1="4.000000000000001" y1="7.8100000000000005" x2="6.540000000000001" y2="7.8100000000000005" stroke="#ffd60a" stroke-width="0.332" stroke-linecap="round"/>
<line x1="4.000000000000001" y1="10.350000000000001" x2="6.540000000000001" y2="10.350000000000001" stroke="#ffd60a" stroke-width="0.332" stroke-linecap="round"/>
<line x1="19.240000000000002" y1="10.350000000000001" x2="16.700000000000003" y2="10.35" stroke="#ffd60a" stroke-width="0.332" stroke-linecap="round"/>
<line x1="19.240000000000002" y1="7.8100000000000005" x2="16.700000000000003" y2="7.8100000000000005" stroke="#ffd60a" stroke-width="0.332" stroke-linecap="round"/>
<line x1="19.240000000000002" y1="5.2700000000000005" x2="16.700000000000003" y2="5.27" stroke="#ffd60a" stroke-width="0.332" stroke-linecap="round"/>
</svg>