<svg xmlns="http://www.w3.org/2000/svg" viewBox="0 0 320 1320">
<rect x="50" y="50" width="220" height="1220" stroke="#ffffff" stroke-width="1.5" fill="rgba(255,255,255,0.04)"/>
<text x="160" y="660" fill="#888" font-size="3" font-family="monospace" text-anchor="middle" dominant-baseline="middle">U</text>
<line x1="30" y1="60" x2="50" y2="60" stroke="#ffd60a" stroke-width="1.5" stroke-linecap="round"/>
<text x="55" y="60" fill="#ffd60a" font-size="2" font-family="monospace" text-anchor="start" dominant-baseline="middle">P53</text>
<line x1="30" y1="80" x2="50" y2="80" stroke="#ffd60a" stroke-width="1.5" stroke-linecap="round"/>
<text x="55" y="80" fill="#ffd60a" font-size="2" font-family="monospace" text-anchor="start" dominant-baseline="middle">P54</text>
<line x1="30" y1="100" x2="50" y2="100" stroke="#ffd60a" stroke-width="1.5" stroke-linecap="round"/>
<text x="55" y="100" fill="#ffd60a" font-size="2" font-family="monospace" text-anchor="start" dominant-baseline="middle">P56</text>
<line x1="30" y1="120" x2="50" y2="120" stroke="#ffd60a" stroke-width="1.5" stroke-linecap="round"/>
<text x="55" y="120" fill="#ffd60a" font-size="2" font-family="monospace" text-anchor="start" dominant-baseline="middle">P57</text>
<line x1="30" y1="140" x2="50" y2="140" stroke="#ffd60a" stroke-width="1.5" stroke-linecap="round"/>
<text x="55" y="140" fill="#ffd60a" font-size="2" font-family="monospace" text-anchor="start" dominant-baseline="middle">P58</text>
<line x1="30" y1="160" x2="50" y2="160" stroke="#ffd60a" stroke-width="1.5" stroke-linecap="round"/>
<text x="55" y="160" fill="#ffd60a" font-size="2" font-family="monospace" text-anchor="start" dominant-baseline="middle">P59</text>
<line x1="30" y1="180" x2="50" y2="180" stroke="#ffd60a" stroke-width="1.5" stroke-linecap="round"/>
<text x="55" y="180" fill="#ffd60a" font-size="2" font-family="monospace" text-anchor="start" dominant-baseline="middle">P60</text>
<line x1="30" y1="200" x2="50" y2="200" stroke="#ffd60a" stroke-width="1.5" stroke-linecap="round"/>
<text x="55" y="200" fill="#ffd60a" font-size="2" font-family="monospace" text-anchor="start" dominant-baseline="middle">P61</text>
<line x1="30" y1="219.99999999999997" x2="50" y2="219.99999999999997" stroke="#ffd60a" stroke-width="1.5" stroke-linecap="round"/>
<text x="55" y="219.99999999999997" fill="#ffd60a" font-size="2" font-family="monospace" text-anchor="start" dominant-baseline="middle">P64</text>
<line x1="30" y1="240" x2="50" y2="240" stroke="#ffd60a" stroke-width="1.5" stroke-linecap="round"/>
<text x="55" y="240" fill="#ffd60a" font-size="2" font-family="monospace" text-anchor="start" dominant-baseline="middle">P66</text>
<line x1="30" y1="260" x2="50" y2="260" stroke="#ffd60a" stroke-width="1.5" stroke-linecap="round"/>
<text x="55" y="260" fill="#ffd60a" font-size="2" font-family="monospace" text-anchor="start" dominant-baseline="middle">P68</text>
<line x1="30" y1="280" x2="50" y2="280" stroke="#ffd60a" stroke-width="1.5" stroke-linecap="round"/>
<text x="55" y="280" fill="#ffd60a" font-size="2" font-family="monospace" text-anchor="start" dominant-baseline="middle">P69</text>
<line x1="30" y1="300" x2="50" y2="300" stroke="#ffd60a" stroke-width="1.5" stroke-linecap="round"/>
<text x="55" y="300" fill="#ffd60a" font-size="2" font-family="monospace" text-anchor="start" dominant-baseline="middle">P70</text>
<line x1="30" y1="320" x2="50" y2="320" stroke="#ffd60a" stroke-width="1.5" stroke-linecap="round"/>
<text x="55" y="320" fill="#ffd60a" font-size="2" font-family="monospace" text-anchor="start" dominant-baseline="middle">P71</text>
<line x1="30" y1="340" x2="50" y2="340" stroke="#ffd60a" stroke-width="1.5" stroke-linecap="round"/>
<text x="55" y="340" fill="#ffd60a" font-size="2" font-family="monospace" text-anchor="start" dominant-baseline="middle">P74</text>
<line x1="30" y1="360" x2="50" y2="360" stroke="#ffd60a" stroke-width="1.5" stroke-linecap="round"/>
<text x="55" y="360" fill="#ffd60a" font-size="2" font-family="monospace" text-anchor="start" dominant-baseline="middle">P75</text>
<line x1="30" y1="380" x2="50" y2="380" stroke="#ffd60a" stroke-width="1.5" stroke-linecap="round"/>
<text x="55" y="380" fill="#ffd60a" font-size="2" font-family="monospace" text-anchor="start" dominant-baseline="middle">P76</text>
<line x1="30" y1="400" x2="50" y2="400" stroke="#ffd60a" stroke-width="1.5" stroke-linecap="round"/>
<text x="55" y="400" fill="#ffd60a" font-size="2" font-family="monospace" text-anchor="start" dominant-baseline="middle">P77</text>
<line x1="30" y1="420" x2="50" y2="420" stroke="#ffd60a" stroke-width="1.5" stroke-linecap="round"/>
<text x="55" y="420" fill="#ffd60a" font-size="2" font-family="monospace" text-anchor="start" dominant-baseline="middle">P78</text>
<line x1="30" y1="440" x2="50" y2="440" stroke="#ffd60a" stroke-width="1.5" stroke-linecap="round"/>
<text x="55" y="440" fill="#ffd60a" font-size="2" font-family="monospace" text-anchor="start" dominant-baseline="middle">P79</text>
<line x1="30" y1="460" x2="50" y2="460" stroke="#ffd60a" stroke-width="1.5" stroke-linecap="round"/>
<text x="55" y="460" fill="#ffd60a" font-size="2" font-family="monospace" text-anchor="start" dominant-baseline="middle">P80</text>
<line x1="30" y1="480" x2="50" y2="480" stroke="#ffd60a" stroke-width="1.5" stroke-linecap="round"/>
<text x="55" y="480" fill="#ffd60a" font-size="2" font-family="monospace" text-anchor="start" dominant-baseline="middle">P81</text>
<line x1="30" y1="500" x2="50" y2="500" stroke="#ffd60a" stroke-width="1.5" stroke-linecap="round"/>
<text x="55" y="500" fill="#ffd60a" font-size="2" font-family="monospace" text-anchor="start" dominant-baseline="middle">P82</text>
<line x1="30" y1="520" x2="50" y2="520" stroke="#ffd60a" stroke-width="1.5" stroke-linecap="round"/>
<text x="55" y="520" fill="#ffd60a" font-size="2" font-family="monospace" text-anchor="start" dominant-baseline="middle">P83</text>
<line x1="30" y1="540" x2="50" y2="540" stroke="#ffd60a" stroke-width="1.5" stroke-linecap="round"/>
<text x="55" y="540" fill="#ffd60a" font-size="2" font-family="monospace" text-anchor="start" dominant-baseline="middle">P85</text>
<line x1="30" y1="560" x2="50" y2="560" stroke="#ffd60a" stroke-width="1.5" stroke-linecap="round"/>
<text x="55" y="560" fill="#ffd60a" font-size="2" font-family="monospace" text-anchor="start" dominant-baseline="middle">P86</text>
<line x1="30" y1="580" x2="50" y2="580" stroke="#ffd60a" stroke-width="1.5" stroke-linecap="round"/>
<text x="55" y="580" fill="#ffd60a" font-size="2" font-family="monospace" text-anchor="start" dominant-baseline="middle">P87</text>
<line x1="30" y1="600" x2="50" y2="600" stroke="#ffd60a" stroke-width="1.5" stroke-linecap="round"/>
<text x="55" y="600" fill="#ffd60a" font-size="2" font-family="monospace" text-anchor="start" dominant-baseline="middle">P88</text>
<line x1="30" y1="620" x2="50" y2="620" stroke="#ffd60a" stroke-width="1.5" stroke-linecap="round"/>
<text x="55" y="620" fill="#ffd60a" font-size="2" font-family="monospace" text-anchor="start" dominant-baseline="middle">P91</text>
<line x1="30" y1="640" x2="50" y2="640" stroke="#ffd60a" stroke-width="1.5" stroke-linecap="round"/>
<text x="55" y="640" fill="#ffd60a" font-size="2" font-family="monospace" text-anchor="start" dominant-baseline="middle">P92</text>
<line x1="30" y1="660" x2="50" y2="660" stroke="#ffd60a" stroke-width="1.5" stroke-linecap="round"/>
<text x="55" y="660" fill="#ffd60a" font-size="2" font-family="monospace" text-anchor="start" dominant-baseline="middle">P94</text>
<line x1="30" y1="680" x2="50" y2="680" stroke="#ffd60a" stroke-width="1.5" stroke-linecap="round"/>
<text x="55" y="680" fill="#ffd60a" font-size="2" font-family="monospace" text-anchor="start" dominant-baseline="middle">P95</text>
<line x1="30" y1="700" x2="50" y2="700" stroke="#ffd60a" stroke-width="1.5" stroke-linecap="round"/>
<text x="55" y="700" fill="#ffd60a" font-size="2" font-family="monospace" text-anchor="start" dominant-baseline="middle">P96</text>
<line x1="30" y1="720.0000000000001" x2="50" y2="720.0000000000001" stroke="#ffd60a" stroke-width="1.5" stroke-linecap="round"/>
<text x="55" y="720.0000000000001" fill="#ffd60a" font-size="2" font-family="monospace" text-anchor="start" dominant-baseline="middle">P97</text>
<line x1="30" y1="740" x2="50" y2="740" stroke="#ffd60a" stroke-width="1.5" stroke-linecap="round"/>
<text x="55" y="740" fill="#ffd60a" font-size="2" font-family="monospace" text-anchor="start" dominant-baseline="middle">P98</text>
<line x1="30" y1="760" x2="50" y2="760" stroke="#ffd60a" stroke-width="1.5" stroke-linecap="round"/>
<text x="55" y="760" fill="#ffd60a" font-size="2" font-family="monospace" text-anchor="start" dominant-baseline="middle">P100</text>
<line x1="30" y1="780" x2="50" y2="780" stroke="#ffd60a" stroke-width="1.5" stroke-linecap="round"/>
<text x="55" y="780" fill="#ffd60a" font-size="2" font-family="monospace" text-anchor="start" dominant-baseline="middle">P101</text>
<line x1="30" y1="800" x2="50" y2="800" stroke="#ffd60a" stroke-width="1.5" stroke-linecap="round"/>
<text x="55" y="800" fill="#ffd60a" font-size="2" font-family="monospace" text-anchor="start" dominant-baseline="middle">P102</text>
<line x1="30" y1="820" x2="50" y2="820" stroke="#ffd60a" stroke-width="1.5" stroke-linecap="round"/>
<text x="55" y="820" fill="#ffd60a" font-size="2" font-family="monospace" text-anchor="start" dominant-baseline="middle">P103</text>
<line x1="30" y1="840.0000000000001" x2="50" y2="840.0000000000001" stroke="#ffd60a" stroke-width="1.5" stroke-linecap="round"/>
<text x="55" y="840.0000000000001" fill="#ffd60a" font-size="2" font-family="monospace" text-anchor="start" dominant-baseline="middle">P104</text>
<line x1="30" y1="860" x2="50" y2="860" stroke="#ffd60a" stroke-width="1.5" stroke-linecap="round"/>
<text x="55" y="860" fill="#ffd60a" font-size="2" font-family="monospace" text-anchor="start" dominant-baseline="middle">P105</text>
<line x1="30" y1="880" x2="50" y2="880" stroke="#ffd60a" stroke-width="1.5" stroke-linecap="round"/>
<text x="55" y="880" fill="#ffd60a" font-size="2" font-family="monospace" text-anchor="start" dominant-baseline="middle">P106</text>
<line x1="30" y1="900" x2="50" y2="900" stroke="#ffd60a" stroke-width="1.5" stroke-linecap="round"/>
<text x="55" y="900" fill="#ffd60a" font-size="2" font-family="monospace" text-anchor="start" dominant-baseline="middle">P107</text>
<line x1="30" y1="920" x2="50" y2="920" stroke="#ffd60a" stroke-width="1.5" stroke-linecap="round"/>
<text x="55" y="920" fill="#ffd60a" font-size="2" font-family="monospace" text-anchor="start" dominant-baseline="middle">P110</text>
<line x1="30" y1="940" x2="50" y2="940" stroke="#ffd60a" stroke-width="1.5" stroke-linecap="round"/>
<text x="55" y="940" fill="#ffd60a" font-size="2" font-family="monospace" text-anchor="start" dominant-baseline="middle">P111</text>
<line x1="30" y1="960.0000000000001" x2="50" y2="960.0000000000001" stroke="#ffd60a" stroke-width="1.5" stroke-linecap="round"/>
<text x="55" y="960.0000000000001" fill="#ffd60a" font-size="2" font-family="monospace" text-anchor="start" dominant-baseline="middle">P112</text>
<line x1="30" y1="980" x2="50" y2="980" stroke="#ffd60a" stroke-width="1.5" stroke-linecap="round"/>
<text x="55" y="980" fill="#ffd60a" font-size="2" font-family="monospace" text-anchor="start" dominant-baseline="middle">P113</text>
<line x1="30" y1="1000" x2="50" y2="1000" stroke="#ffd60a" stroke-width="1.5" stroke-linecap="round"/>
<text x="55" y="1000" fill="#ffd60a" font-size="2" font-family="monospace" text-anchor="start" dominant-baseline="middle">P114</text>
<line x1="30" y1="1020" x2="50" y2="1020" stroke="#ffd60a" stroke-width="1.5" stroke-linecap="round"/>
<text x="55" y="1020" fill="#ffd60a" font-size="2" font-family="monospace" text-anchor="start" dominant-baseline="middle">P115</text>
<line x1="30" y1="1040" x2="50" y2="1040" stroke="#ffd60a" stroke-width="1.5" stroke-linecap="round"/>
<text x="55" y="1040" fill="#ffd60a" font-size="2" font-family="monospace" text-anchor="start" dominant-baseline="middle">P116</text>
<line x1="30" y1="1060" x2="50" y2="1060" stroke="#ffd60a" stroke-width="1.5" stroke-linecap="round"/>
<text x="55" y="1060" fill="#ffd60a" font-size="2" font-family="monospace" text-anchor="start" dominant-baseline="middle">P117</text>
<line x1="30" y1="1080" x2="50" y2="1080" stroke="#ffd60a" stroke-width="1.5" stroke-linecap="round"/>
<text x="55" y="1080" fill="#ffd60a" font-size="2" font-family="monospace" text-anchor="start" dominant-baseline="middle">P118</text>
<line x1="30" y1="1100" x2="50" y2="1100" stroke="#ffd60a" stroke-width="1.5" stroke-linecap="round"/>
<text x="55" y="1100" fill="#ffd60a" font-size="2" font-family="monospace" text-anchor="start" dominant-baseline="middle">P119</text>
<line x1="30" y1="1120" x2="50" y2="1120" stroke="#ffd60a" stroke-width="1.5" stroke-linecap="round"/>
<text x="55" y="1120" fill="#ffd60a" font-size="2" font-family="monospace" text-anchor="start" dominant-baseline="middle">P120</text>
<line x1="30" y1="1140" x2="50" y2="1140" stroke="#ffd60a" stroke-width="1.5" stroke-linecap="round"/>
<text x="55" y="1140" fill="#ffd60a" font-size="2" font-family="monospace" text-anchor="start" dominant-baseline="middle">P121</text>
<line x1="30" y1="1160" x2="50" y2="1160" stroke="#ffd60a" stroke-width="1.5" stroke-linecap="round"/>
<text x="55" y="1160" fill="#ffd60a" font-size="2" font-family="monospace" text-anchor="start" dominant-baseline="middle">P124</text>
<line x1="30" y1="1180" x2="50" y2="1180" stroke="#ffd60a" stroke-width="1.5" stroke-linecap="round"/>
<text x="55" y="1180" fill="#ffd60a" font-size="2" font-family="monospace" text-anchor="start" dominant-baseline="middle">P125</text>
<line x1="30" y1="1200" x2="50" y2="1200" stroke="#ffd60a" stroke-width="1.5" stroke-linecap="round"/>
<text x="55" y="1200" fill="#ffd60a" font-size="2" font-family="monospace" text-anchor="start" dominant-baseline="middle">P126</text>
<line x1="30" y1="1220" x2="50" y2="1220" stroke="#ffd60a" stroke-width="1.5" stroke-linecap="round"/>
<text x="55" y="1220" fill="#ffd60a" font-size="2" font-family="monospace" text-anchor="start" dominant-baseline="middle">P128</text>
<line x1="30" y1="1240" x2="50" y2="1240" stroke="#ffd60a" stroke-width="1.5" stroke-linecap="round"/>
<text x="55" y="1240" fill="#ffd60a" font-size="2" font-family="monospace" text-anchor="start" dominant-baseline="middle">P129</text>
<line x1="30" y1="1260" x2="50" y2="1260" stroke="#ffd60a" stroke-width="1.5" stroke-linecap="round"/>
<text x="55" y="1260" fill="#ffd60a" font-size="2" font-family="monospace" text-anchor="start" dominant-baseline="middle">P130</text>
<line x1="290" y1="60" x2="270" y2="60" stroke="#ffd60a" stroke-width="1.5" stroke-linecap="round"/>
<text x="265" y="60" fill="#ffd60a" font-size="2" font-family="monospace" text-anchor="end" dominant-baseline="middle">GTS2</text>
<line x1="290" y1="80" x2="270" y2="80" stroke="#ffd60a" stroke-width="1.5" stroke-linecap="round"/>
<text x="265" y="80" fill="#ffd60a" font-size="2" font-family="monospace" text-anchor="end" dominant-baseline="middle">GTS3</text>
<line x1="290" y1="100" x2="270" y2="100" stroke="#ffd60a" stroke-width="1.5" stroke-linecap="round"/>
<text x="265" y="100" fill="#ffd60a" font-size="2" font-family="monospace" text-anchor="end" dominant-baseline="middle">P4</text>
<line x1="290" y1="120" x2="270" y2="120" stroke="#ffd60a" stroke-width="1.5" stroke-linecap="round"/>
<text x="265" y="120" fill="#ffd60a" font-size="2" font-family="monospace" text-anchor="end" dominant-baseline="middle">GTS0</text>
<line x1="290" y1="140" x2="270" y2="140" stroke="#ffd60a" stroke-width="1.5" stroke-linecap="round"/>
<text x="265" y="140" fill="#ffd60a" font-size="2" font-family="monospace" text-anchor="end" dominant-baseline="middle">GTS1</text>
<line x1="290" y1="160" x2="270" y2="160" stroke="#ffd60a" stroke-width="1.5" stroke-linecap="round"/>
<text x="265" y="160" fill="#ffd60a" font-size="2" font-family="monospace" text-anchor="end" dominant-baseline="middle">P7</text>
<line x1="290" y1="180" x2="270" y2="180" stroke="#ffd60a" stroke-width="1.5" stroke-linecap="round"/>
<text x="265" y="180" fill="#ffd60a" font-size="2" font-family="monospace" text-anchor="end" dominant-baseline="middle">P9</text>
<line x1="290" y1="200" x2="270" y2="200" stroke="#ffd60a" stroke-width="1.5" stroke-linecap="round"/>
<text x="265" y="200" fill="#ffd60a" font-size="2" font-family="monospace" text-anchor="end" dominant-baseline="middle">P10</text>
<line x1="290" y1="219.99999999999997" x2="270" y2="219.99999999999997" stroke="#ffd60a" stroke-width="1.5" stroke-linecap="round"/>
<text x="265" y="219.99999999999997" fill="#ffd60a" font-size="2" font-family="monospace" text-anchor="end" dominant-baseline="middle">P11</text>
<line x1="290" y1="240" x2="270" y2="240" stroke="#ffd60a" stroke-width="1.5" stroke-linecap="round"/>
<text x="265" y="240" fill="#ffd60a" font-size="2" font-family="monospace" text-anchor="end" dominant-baseline="middle">P12</text>
<line x1="290" y1="260" x2="270" y2="260" stroke="#ffd60a" stroke-width="1.5" stroke-linecap="round"/>
<text x="265" y="260" fill="#ffd60a" font-size="2" font-family="monospace" text-anchor="end" dominant-baseline="middle">P13</text>
<line x1="290" y1="280" x2="270" y2="280" stroke="#ffd60a" stroke-width="1.5" stroke-linecap="round"/>
<text x="265" y="280" fill="#ffd60a" font-size="2" font-family="monospace" text-anchor="end" dominant-baseline="middle">P14</text>
<line x1="290" y1="300" x2="270" y2="300" stroke="#ffd60a" stroke-width="1.5" stroke-linecap="round"/>
<text x="265" y="300" fill="#ffd60a" font-size="2" font-family="monospace" text-anchor="end" dominant-baseline="middle">P15</text>
<line x1="290" y1="320" x2="270" y2="320" stroke="#ffd60a" stroke-width="1.5" stroke-linecap="round"/>
<text x="265" y="320" fill="#ffd60a" font-size="2" font-family="monospace" text-anchor="end" dominant-baseline="middle">P16</text>
<line x1="290" y1="340" x2="270" y2="340" stroke="#ffd60a" stroke-width="1.5" stroke-linecap="round"/>
<text x="265" y="340" fill="#ffd60a" font-size="2" font-family="monospace" text-anchor="end" dominant-baseline="middle">P17</text>
<line x1="290" y1="360" x2="270" y2="360" stroke="#ffd60a" stroke-width="1.5" stroke-linecap="round"/>
<text x="265" y="360" fill="#ffd60a" font-size="2" font-family="monospace" text-anchor="end" dominant-baseline="middle">P18</text>
<line x1="290" y1="380" x2="270" y2="380" stroke="#ffd60a" stroke-width="1.5" stroke-linecap="round"/>
<text x="265" y="380" fill="#ffd60a" font-size="2" font-family="monospace" text-anchor="end" dominant-baseline="middle">P19</text>
<line x1="290" y1="400" x2="270" y2="400" stroke="#ffd60a" stroke-width="1.5" stroke-linecap="round"/>
<text x="265" y="400" fill="#ffd60a" font-size="2" font-family="monospace" text-anchor="end" dominant-baseline="middle">P20</text>
<line x1="290" y1="420" x2="270" y2="420" stroke="#ffd60a" stroke-width="1.5" stroke-linecap="round"/>
<text x="265" y="420" fill="#ffd60a" font-size="2" font-family="monospace" text-anchor="end" dominant-baseline="middle">P21</text>
<line x1="290" y1="440" x2="270" y2="440" stroke="#ffd60a" stroke-width="1.5" stroke-linecap="round"/>
<text x="265" y="440" fill="#ffd60a" font-size="2" font-family="monospace" text-anchor="end" dominant-baseline="middle">P22</text>
<line x1="290" y1="460" x2="270" y2="460" stroke="#ffd60a" stroke-width="1.5" stroke-linecap="round"/>
<text x="265" y="460" fill="#ffd60a" font-size="2" font-family="monospace" text-anchor="end" dominant-baseline="middle">P23</text>
<line x1="290" y1="480" x2="270" y2="480" stroke="#ffd60a" stroke-width="1.5" stroke-linecap="round"/>
<text x="265" y="480" fill="#ffd60a" font-size="2" font-family="monospace" text-anchor="end" dominant-baseline="middle">P24</text>
<line x1="290" y1="500" x2="270" y2="500" stroke="#ffd60a" stroke-width="1.5" stroke-linecap="round"/>
<text x="265" y="500" fill="#ffd60a" font-size="2" font-family="monospace" text-anchor="end" dominant-baseline="middle">P25</text>
<line x1="290" y1="520" x2="270" y2="520" stroke="#ffd60a" stroke-width="1.5" stroke-linecap="round"/>
<text x="265" y="520" fill="#ffd60a" font-size="2" font-family="monospace" text-anchor="end" dominant-baseline="middle">P26</text>
<line x1="290" y1="540" x2="270" y2="540" stroke="#ffd60a" stroke-width="1.5" stroke-linecap="round"/>
<text x="265" y="540" fill="#ffd60a" font-size="2" font-family="monospace" text-anchor="end" dominant-baseline="middle">P28</text>
<line x1="290" y1="560" x2="270" y2="560" stroke="#ffd60a" stroke-width="1.5" stroke-linecap="round"/>
<text x="265" y="560" fill="#ffd60a" font-size="2" font-family="monospace" text-anchor="end" dominant-baseline="middle">GCK0</text>
<line x1="290" y1="580" x2="270" y2="580" stroke="#ffd60a" stroke-width="1.5" stroke-linecap="round"/>
<text x="265" y="580" fill="#ffd60a" font-size="2" font-family="monospace" text-anchor="end" dominant-baseline="middle">P31</text>
<line x1="290" y1="600" x2="270" y2="600" stroke="#ffd60a" stroke-width="1.5" stroke-linecap="round"/>
<text x="265" y="600" fill="#ffd60a" font-size="2" font-family="monospace" text-anchor="end" dominant-baseline="middle">GCK1</text>
<line x1="290" y1="620" x2="270" y2="620" stroke="#ffd60a" stroke-width="1.5" stroke-linecap="round"/>
<text x="265" y="620" fill="#ffd60a" font-size="2" font-family="monospace" text-anchor="end" dominant-baseline="middle">P33</text>
<line x1="290" y1="640" x2="270" y2="640" stroke="#ffd60a" stroke-width="1.5" stroke-linecap="round"/>
<text x="265" y="640" fill="#ffd60a" font-size="2" font-family="monospace" text-anchor="end" dominant-baseline="middle">P34</text>
<line x1="290" y1="660" x2="270" y2="660" stroke="#ffd60a" stroke-width="1.5" stroke-linecap="round"/>
<text x="265" y="660" fill="#ffd60a" font-size="2" font-family="monospace" text-anchor="end" dominant-baseline="middle">CDRST</text>
<line x1="290" y1="680" x2="270" y2="680" stroke="#ffd60a" stroke-width="1.5" stroke-linecap="round"/>
<text x="265" y="680" fill="#ffd60a" font-size="2" font-family="monospace" text-anchor="end" dominant-baseline="middle">GCK2</text>
<line x1="290" y1="700" x2="270" y2="700" stroke="#ffd60a" stroke-width="1.5" stroke-linecap="round"/>
<text x="265" y="700" fill="#ffd60a" font-size="2" font-family="monospace" text-anchor="end" dominant-baseline="middle">DGE</text>
<line x1="290" y1="720.0000000000001" x2="270" y2="720.0000000000001" stroke="#ffd60a" stroke-width="1.5" stroke-linecap="round"/>
<text x="265" y="720.0000000000001" fill="#ffd60a" font-size="2" font-family="monospace" text-anchor="end" dominant-baseline="middle">P40</text>
<line x1="290" y1="740" x2="270" y2="740" stroke="#ffd60a" stroke-width="1.5" stroke-linecap="round"/>
<text x="265" y="740" fill="#ffd60a" font-size="2" font-family="monospace" text-anchor="end" dominant-baseline="middle">P41</text>
<line x1="290" y1="760" x2="270" y2="760" stroke="#ffd60a" stroke-width="1.5" stroke-linecap="round"/>
<text x="265" y="760" fill="#ffd60a" font-size="2" font-family="monospace" text-anchor="end" dominant-baseline="middle">P42</text>
<line x1="290" y1="780" x2="270" y2="780" stroke="#ffd60a" stroke-width="1.5" stroke-linecap="round"/>
<text x="265" y="780" fill="#ffd60a" font-size="2" font-family="monospace" text-anchor="end" dominant-baseline="middle">P43</text>
<line x1="290" y1="800" x2="270" y2="800" stroke="#ffd60a" stroke-width="1.5" stroke-linecap="round"/>
<text x="265" y="800" fill="#ffd60a" font-size="2" font-family="monospace" text-anchor="end" dominant-baseline="middle">P44</text>
<line x1="290" y1="820" x2="270" y2="820" stroke="#ffd60a" stroke-width="1.5" stroke-linecap="round"/>
<text x="265" y="820" fill="#ffd60a" font-size="2" font-family="monospace" text-anchor="end" dominant-baseline="middle">P45</text>
<line x1="290" y1="840.0000000000001" x2="270" y2="840.0000000000001" stroke="#ffd60a" stroke-width="1.5" stroke-linecap="round"/>
<text x="265" y="840.0000000000001" fill="#ffd60a" font-size="2" font-family="monospace" text-anchor="end" dominant-baseline="middle">P46</text>
<line x1="290" y1="860" x2="270" y2="860" stroke="#ffd60a" stroke-width="1.5" stroke-linecap="round"/>
<text x="265" y="860" fill="#ffd60a" font-size="2" font-family="monospace" text-anchor="end" dominant-baseline="middle">P48</text>
<line x1="290" y1="880" x2="270" y2="880" stroke="#ffd60a" stroke-width="1.5" stroke-linecap="round"/>
<text x="265" y="880" fill="#ffd60a" font-size="2" font-family="monospace" text-anchor="end" dominant-baseline="middle">P49</text>
<line x1="290" y1="900" x2="270" y2="900" stroke="#ffd60a" stroke-width="1.5" stroke-linecap="round"/>
<text x="265" y="900" fill="#ffd60a" font-size="2" font-family="monospace" text-anchor="end" dominant-baseline="middle">P50</text>
<line x1="290" y1="920" x2="270" y2="920" stroke="#ffd60a" stroke-width="1.5" stroke-linecap="round"/>
<text x="265" y="920" fill="#ffd60a" font-size="2" font-family="monospace" text-anchor="end" dominant-baseline="middle">P51</text>
<line x1="290" y1="940" x2="270" y2="940" stroke="#ffd60a" stroke-width="1.5" stroke-linecap="round"/>
<text x="265" y="940" fill="#ffd60a" font-size="2" font-family="monospace" text-anchor="end" dominant-baseline="middle">P52</text>
<line x1="290" y1="960.0000000000001" x2="270" y2="960.0000000000001" stroke="#ffd60a" stroke-width="1.5" stroke-linecap="round"/>
<text x="265" y="960.0000000000001" fill="#ffd60a" font-size="2" font-family="monospace" text-anchor="end" dominant-baseline="middle">TDI</text>
<line x1="290" y1="980" x2="270" y2="980" stroke="#ffd60a" stroke-width="1.5" stroke-linecap="round"/>
<text x="265" y="980" fill="#ffd60a" font-size="2" font-family="monospace" text-anchor="end" dominant-baseline="middle">TMS</text>
<line x1="290" y1="1000" x2="270" y2="1000" stroke="#ffd60a" stroke-width="1.5" stroke-linecap="round"/>
<text x="265" y="1000" fill="#ffd60a" font-size="2" font-family="monospace" text-anchor="end" dominant-baseline="middle">TCK</text>
<line x1="290" y1="1020" x2="270" y2="1020" stroke="#ffd60a" stroke-width="1.5" stroke-linecap="round"/>
<text x="265" y="1020" fill="#ffd60a" font-size="2" font-family="monospace" text-anchor="end" dominant-baseline="middle">TDO</text>
<line x1="290" y1="1040" x2="270" y2="1040" stroke="#ffd60a" stroke-width="1.5" stroke-linecap="round"/>
<text x="265" y="1040" fill="#ffd60a" font-size="2" font-family="monospace" text-anchor="end" dominant-baseline="middle">P131</text>
<line x1="290" y1="1060" x2="270" y2="1060" stroke="#ffd60a" stroke-width="1.5" stroke-linecap="round"/>
<text x="265" y="1060" fill="#ffd60a" font-size="2" font-family="monospace" text-anchor="end" dominant-baseline="middle">P132</text>
<line x1="290" y1="1080" x2="270" y2="1080" stroke="#ffd60a" stroke-width="1.5" stroke-linecap="round"/>
<text x="265" y="1080" fill="#ffd60a" font-size="2" font-family="monospace" text-anchor="end" dominant-baseline="middle">P133</text>
<line x1="290" y1="1100" x2="270" y2="1100" stroke="#ffd60a" stroke-width="1.5" stroke-linecap="round"/>
<text x="265" y="1100" fill="#ffd60a" font-size="2" font-family="monospace" text-anchor="end" dominant-baseline="middle">P134</text>
<line x1="290" y1="1120" x2="270" y2="1120" stroke="#ffd60a" stroke-width="1.5" stroke-linecap="round"/>
<text x="265" y="1120" fill="#ffd60a" font-size="2" font-family="monospace" text-anchor="end" dominant-baseline="middle">P135</text>
<line x1="290" y1="1140" x2="270" y2="1140" stroke="#ffd60a" stroke-width="1.5" stroke-linecap="round"/>
<text x="265" y="1140" fill="#ffd60a" font-size="2" font-family="monospace" text-anchor="end" dominant-baseline="middle">P136</text>
<line x1="290" y1="1160" x2="270" y2="1160" stroke="#ffd60a" stroke-width="1.5" stroke-linecap="round"/>
<text x="265" y="1160" fill="#ffd60a" font-size="2" font-family="monospace" text-anchor="end" dominant-baseline="middle">P137</text>
<line x1="290" y1="1180" x2="270" y2="1180" stroke="#ffd60a" stroke-width="1.5" stroke-linecap="round"/>
<text x="265" y="1180" fill="#ffd60a" font-size="2" font-family="monospace" text-anchor="end" dominant-baseline="middle">P138</text>
<line x1="290" y1="1200" x2="270" y2="1200" stroke="#ffd60a" stroke-width="1.5" stroke-linecap="round"/>
<text x="265" y="1200" fill="#ffd60a" font-size="2" font-family="monospace" text-anchor="end" dominant-baseline="middle">P139</text>
<line x1="290" y1="1220" x2="270" y2="1220" stroke="#ffd60a" stroke-width="1.5" stroke-linecap="round"/>
<text x="265" y="1220" fill="#ffd60a" font-size="2" font-family="monospace" text-anchor="end" dominant-baseline="middle">P140</text>
<line x1="290" y1="1240" x2="270" y2="1240" stroke="#ffd60a" stroke-width="1.5" stroke-linecap="round"/>
<text x="265" y="1240" fill="#ffd60a" font-size="2" font-family="monospace" text-anchor="end" dominant-baseline="middle">P142</text>
<line x1="290" y1="1260" x2="270" y2="1260" stroke="#ffd60a" stroke-width="1.5" stroke-linecap="round"/>
<text x="265" y="1260" fill="#ffd60a" font-size="2" font-family="monospace" text-anchor="end" dominant-baseline="middle">GSR</text>
<line x1="60" y1="30" x2="60" y2="50" stroke="#ffd60a" stroke-width="1.5" stroke-linecap="round"/>
<text x="60" y="25" fill="#ffd60a" font-size="2" font-family="monospace" text-anchor="middle" dominant-baseline="middle">GND</text>
<line x1="80" y1="30" x2="80" y2="50" stroke="#ffd60a" stroke-width="1.5" stroke-linecap="round"/>
<text x="80" y="25" fill="#ffd60a" font-size="2" font-family="monospace" text-anchor="middle" dominant-baseline="middle">GND</text>
<line x1="100" y1="30" x2="100" y2="50" stroke="#ffd60a" stroke-width="1.5" stroke-linecap="round"/>
<text x="100" y="25" fill="#ffd60a" font-size="2" font-family="monospace" text-anchor="middle" dominant-baseline="middle">GND</text>
<line x1="120" y1="30" x2="120" y2="50" stroke="#ffd60a" stroke-width="1.5" stroke-linecap="round"/>
<text x="120" y="25" fill="#ffd60a" font-size="2" font-family="monospace" text-anchor="middle" dominant-baseline="middle">GND</text>
<line x1="140" y1="30" x2="140" y2="50" stroke="#ffd60a" stroke-width="1.5" stroke-linecap="round"/>
<text x="140" y="25" fill="#ffd60a" font-size="2" font-family="monospace" text-anchor="middle" dominant-baseline="middle">GND</text>
<line x1="160" y1="30" x2="160" y2="50" stroke="#ffd60a" stroke-width="1.5" stroke-linecap="round"/>
<text x="160" y="25" fill="#ffd60a" font-size="2" font-family="monospace" text-anchor="middle" dominant-baseline="middle">GND</text>
<line x1="180" y1="30" x2="180" y2="50" stroke="#ffd60a" stroke-width="1.5" stroke-linecap="round"/>
<text x="180" y="25" fill="#ffd60a" font-size="2" font-family="monospace" text-anchor="middle" dominant-baseline="middle">GND</text>
<line x1="200" y1="30" x2="200" y2="50" stroke="#ffd60a" stroke-width="1.5" stroke-linecap="round"/>
<text x="200" y="25" fill="#ffd60a" font-size="2" font-family="monospace" text-anchor="middle" dominant-baseline="middle">GND</text>
<line x1="220" y1="30" x2="220" y2="50" stroke="#ffd60a" stroke-width="1.5" stroke-linecap="round"/>
<text x="220" y="25" fill="#ffd60a" font-size="2" font-family="monospace" text-anchor="middle" dominant-baseline="middle">GND</text>
<line x1="240" y1="30" x2="240" y2="50" stroke="#ffd60a" stroke-width="1.5" stroke-linecap="round"/>
<text x="240" y="25" fill="#ffd60a" font-size="2" font-family="monospace" text-anchor="middle" dominant-baseline="middle">GND</text>
<line x1="260" y1="30" x2="260" y2="50" stroke="#ffd60a" stroke-width="1.5" stroke-linecap="round"/>
<text x="260" y="25" fill="#ffd60a" font-size="2" font-family="monospace" text-anchor="middle" dominant-baseline="middle">GND</text>
<line x1="60" y1="1290" x2="60" y2="1270" stroke="#ffd60a" stroke-width="1.5" stroke-linecap="round"/>
<text x="60" y="1304" fill="#ffd60a" font-size="2" font-family="monospace" text-anchor="middle" dominant-baseline="middle">VCC</text>
<line x1="80" y1="1290" x2="80" y2="1270" stroke="#ffd60a" stroke-width="1.5" stroke-linecap="round"/>
<text x="80" y="1304" fill="#ffd60a" font-size="2" font-family="monospace" text-anchor="middle" dominant-baseline="middle">VCCAUX</text>
<line x1="100" y1="1290" x2="100" y2="1270" stroke="#ffd60a" stroke-width="1.5" stroke-linecap="round"/>
<text x="100" y="1304" fill="#ffd60a" font-size="2" font-family="monospace" text-anchor="middle" dominant-baseline="middle">VCCIO1</text>
<line x1="120" y1="1290" x2="120" y2="1270" stroke="#ffd60a" stroke-width="1.5" stroke-linecap="round"/>
<text x="120" y="1304" fill="#ffd60a" font-size="2" font-family="monospace" text-anchor="middle" dominant-baseline="middle">VCC</text>
<line x1="140" y1="1290" x2="140" y2="1270" stroke="#ffd60a" stroke-width="1.5" stroke-linecap="round"/>
<text x="140" y="1304" fill="#ffd60a" font-size="2" font-family="monospace" text-anchor="middle" dominant-baseline="middle">VCCIO1</text>
<line x1="160" y1="1290" x2="160" y2="1270" stroke="#ffd60a" stroke-width="1.5" stroke-linecap="round"/>
<text x="160" y="1304" fill="#ffd60a" font-size="2" font-family="monospace" text-anchor="middle" dominant-baseline="middle">VCCIO1</text>
<line x1="180" y1="1290" x2="180" y2="1270" stroke="#ffd60a" stroke-width="1.5" stroke-linecap="round"/>
<text x="180" y="1304" fill="#ffd60a" font-size="2" font-family="monospace" text-anchor="middle" dominant-baseline="middle">VCC</text>
<line x1="200" y1="1290" x2="200" y2="1270" stroke="#ffd60a" stroke-width="1.5" stroke-linecap="round"/>
<text x="200" y="1304" fill="#ffd60a" font-size="2" font-family="monospace" text-anchor="middle" dominant-baseline="middle">VCCIO1</text>
<line x1="220" y1="1290" x2="220" y2="1270" stroke="#ffd60a" stroke-width="1.5" stroke-linecap="round"/>
<text x="220" y="1304" fill="#ffd60a" font-size="2" font-family="monospace" text-anchor="middle" dominant-baseline="middle">VCCIO2</text>
<line x1="240" y1="1290" x2="240" y2="1270" stroke="#ffd60a" stroke-width="1.5" stroke-linecap="round"/>
<text x="240" y="1304" fill="#ffd60a" font-size="2" font-family="monospace" text-anchor="middle" dominant-baseline="middle">VCCIO2</text>
<line x1="260" y1="1290" x2="260" y2="1270" stroke="#ffd60a" stroke-width="1.5" stroke-linecap="round"/>
<text x="260" y="1304" fill="#ffd60a" font-size="2" font-family="monospace" text-anchor="middle" dominant-baseline="middle">VCCIO2</text>
</svg>