<svg xmlns="http://www.w3.org/2000/svg" viewBox="0 0 220 980">
<rect x="50" y="50" width="120" height="880" stroke="#ffffff" stroke-width="1.5" fill="rgba(255,255,255,0.04)"/>
<text x="110" y="490" fill="#888" font-size="3" font-family="monospace" text-anchor="middle" dominant-baseline="middle">U</text>
<line x1="30" y1="60" x2="50" y2="60" stroke="#ffd60a" stroke-width="1.5" stroke-linecap="round"/>
<text x="55" y="60" fill="#ffd60a" font-size="2" font-family="monospace" text-anchor="start" dominant-baseline="middle">P40</text>
<line x1="30" y1="80" x2="50" y2="80" stroke="#ffd60a" stroke-width="1.5" stroke-linecap="round"/>
<text x="55" y="80" fill="#ffd60a" font-size="2" font-family="monospace" text-anchor="start" dominant-baseline="middle">P41</text>
<line x1="30" y1="100" x2="50" y2="100" stroke="#ffd60a" stroke-width="1.5" stroke-linecap="round"/>
<text x="55" y="100" fill="#ffd60a" font-size="2" font-family="monospace" text-anchor="start" dominant-baseline="middle">P42</text>
<line x1="30" y1="120" x2="50" y2="120" stroke="#ffd60a" stroke-width="1.5" stroke-linecap="round"/>
<text x="55" y="120" fill="#ffd60a" font-size="2" font-family="monospace" text-anchor="start" dominant-baseline="middle">P43</text>
<line x1="30" y1="140" x2="50" y2="140" stroke="#ffd60a" stroke-width="1.5" stroke-linecap="round"/>
<text x="55" y="140" fill="#ffd60a" font-size="2" font-family="monospace" text-anchor="start" dominant-baseline="middle">P44</text>
<line x1="30" y1="160" x2="50" y2="160" stroke="#ffd60a" stroke-width="1.5" stroke-linecap="round"/>
<text x="55" y="160" fill="#ffd60a" font-size="2" font-family="monospace" text-anchor="start" dominant-baseline="middle">P45</text>
<line x1="30" y1="180" x2="50" y2="180" stroke="#ffd60a" stroke-width="1.5" stroke-linecap="round"/>
<text x="55" y="180" fill="#ffd60a" font-size="2" font-family="monospace" text-anchor="start" dominant-baseline="middle">P46</text>
<line x1="30" y1="200" x2="50" y2="200" stroke="#ffd60a" stroke-width="1.5" stroke-linecap="round"/>
<text x="55" y="200" fill="#ffd60a" font-size="2" font-family="monospace" text-anchor="start" dominant-baseline="middle">P47</text>
<line x1="30" y1="220" x2="50" y2="220" stroke="#ffd60a" stroke-width="1.5" stroke-linecap="round"/>
<text x="55" y="220" fill="#ffd60a" font-size="2" font-family="monospace" text-anchor="start" dominant-baseline="middle">P48</text>
<line x1="30" y1="240" x2="50" y2="240" stroke="#ffd60a" stroke-width="1.5" stroke-linecap="round"/>
<text x="55" y="240" fill="#ffd60a" font-size="2" font-family="monospace" text-anchor="start" dominant-baseline="middle">P55</text>
<line x1="30" y1="260" x2="50" y2="260" stroke="#ffd60a" stroke-width="1.5" stroke-linecap="round"/>
<text x="55" y="260" fill="#ffd60a" font-size="2" font-family="monospace" text-anchor="start" dominant-baseline="middle">P57</text>
<line x1="30" y1="280" x2="50" y2="280" stroke="#ffd60a" stroke-width="1.5" stroke-linecap="round"/>
<text x="55" y="280" fill="#ffd60a" font-size="2" font-family="monospace" text-anchor="start" dominant-baseline="middle">P58</text>
<line x1="30" y1="300" x2="50" y2="300" stroke="#ffd60a" stroke-width="1.5" stroke-linecap="round"/>
<text x="55" y="300" fill="#ffd60a" font-size="2" font-family="monospace" text-anchor="start" dominant-baseline="middle">P59</text>
<line x1="30" y1="320" x2="50" y2="320" stroke="#ffd60a" stroke-width="1.5" stroke-linecap="round"/>
<text x="55" y="320" fill="#ffd60a" font-size="2" font-family="monospace" text-anchor="start" dominant-baseline="middle">P60</text>
<line x1="30" y1="340" x2="50" y2="340" stroke="#ffd60a" stroke-width="1.5" stroke-linecap="round"/>
<text x="55" y="340" fill="#ffd60a" font-size="2" font-family="monospace" text-anchor="start" dominant-baseline="middle">P61</text>
<line x1="30" y1="360" x2="50" y2="360" stroke="#ffd60a" stroke-width="1.5" stroke-linecap="round"/>
<text x="55" y="360" fill="#ffd60a" font-size="2" font-family="monospace" text-anchor="start" dominant-baseline="middle">P/INIT</text>
<line x1="30" y1="380" x2="50" y2="380" stroke="#ffd60a" stroke-width="1.5" stroke-linecap="round"/>
<text x="55" y="380" fill="#ffd60a" font-size="2" font-family="monospace" text-anchor="start" dominant-baseline="middle">P64</text>
<line x1="30" y1="400" x2="50" y2="400" stroke="#ffd60a" stroke-width="1.5" stroke-linecap="round"/>
<text x="55" y="400" fill="#ffd60a" font-size="2" font-family="monospace" text-anchor="start" dominant-baseline="middle">P65</text>
<line x1="30" y1="420" x2="50" y2="420" stroke="#ffd60a" stroke-width="1.5" stroke-linecap="round"/>
<text x="55" y="420" fill="#ffd60a" font-size="2" font-family="monospace" text-anchor="start" dominant-baseline="middle">P66</text>
<line x1="30" y1="440" x2="50" y2="440" stroke="#ffd60a" stroke-width="1.5" stroke-linecap="round"/>
<text x="55" y="440" fill="#ffd60a" font-size="2" font-family="monospace" text-anchor="start" dominant-baseline="middle">P67</text>
<line x1="30" y1="460" x2="50" y2="460" stroke="#ffd60a" stroke-width="1.5" stroke-linecap="round"/>
<text x="55" y="460" fill="#ffd60a" font-size="2" font-family="monospace" text-anchor="start" dominant-baseline="middle">P68</text>
<line x1="30" y1="480" x2="50" y2="480" stroke="#ffd60a" stroke-width="1.5" stroke-linecap="round"/>
<text x="55" y="480" fill="#ffd60a" font-size="2" font-family="monospace" text-anchor="start" dominant-baseline="middle">P69</text>
<line x1="30" y1="500" x2="50" y2="500" stroke="#ffd60a" stroke-width="1.5" stroke-linecap="round"/>
<text x="55" y="500" fill="#ffd60a" font-size="2" font-family="monospace" text-anchor="start" dominant-baseline="middle">P70</text>
<line x1="30" y1="520" x2="50" y2="520" stroke="#ffd60a" stroke-width="1.5" stroke-linecap="round"/>
<text x="55" y="520" fill="#ffd60a" font-size="2" font-family="monospace" text-anchor="start" dominant-baseline="middle">P71</text>
<line x1="30" y1="540" x2="50" y2="540" stroke="#ffd60a" stroke-width="1.5" stroke-linecap="round"/>
<text x="55" y="540" fill="#ffd60a" font-size="2" font-family="monospace" text-anchor="start" dominant-baseline="middle">P72</text>
<line x1="30" y1="560" x2="50" y2="560" stroke="#ffd60a" stroke-width="1.5" stroke-linecap="round"/>
<text x="55" y="560" fill="#ffd60a" font-size="2" font-family="monospace" text-anchor="start" dominant-baseline="middle">P/XI</text>
<line x1="30" y1="580" x2="50" y2="580" stroke="#ffd60a" stroke-width="1.5" stroke-linecap="round"/>
<text x="55" y="580" fill="#ffd60a" font-size="2" font-family="monospace" text-anchor="start" dominant-baseline="middle">P78</text>
<line x1="30" y1="600" x2="50" y2="600" stroke="#ffd60a" stroke-width="1.5" stroke-linecap="round"/>
<text x="55" y="600" fill="#ffd60a" font-size="2" font-family="monospace" text-anchor="start" dominant-baseline="middle">P/XO</text>
<line x1="30" y1="620" x2="50" y2="620" stroke="#ffd60a" stroke-width="1.5" stroke-linecap="round"/>
<text x="55" y="620" fill="#ffd60a" font-size="2" font-family="monospace" text-anchor="start" dominant-baseline="middle">P80</text>
<line x1="30" y1="640" x2="50" y2="640" stroke="#ffd60a" stroke-width="1.5" stroke-linecap="round"/>
<text x="55" y="640" fill="#ffd60a" font-size="2" font-family="monospace" text-anchor="start" dominant-baseline="middle">P81</text>
<line x1="30" y1="660" x2="50" y2="660" stroke="#ffd60a" stroke-width="1.5" stroke-linecap="round"/>
<text x="55" y="660" fill="#ffd60a" font-size="2" font-family="monospace" text-anchor="start" dominant-baseline="middle">P82</text>
<line x1="30" y1="680" x2="50" y2="680" stroke="#ffd60a" stroke-width="1.5" stroke-linecap="round"/>
<text x="55" y="680" fill="#ffd60a" font-size="2" font-family="monospace" text-anchor="start" dominant-baseline="middle">P83</text>
<line x1="30" y1="700" x2="50" y2="700" stroke="#ffd60a" stroke-width="1.5" stroke-linecap="round"/>
<text x="55" y="700" fill="#ffd60a" font-size="2" font-family="monospace" text-anchor="start" dominant-baseline="middle">P84</text>
<line x1="30" y1="720" x2="50" y2="720" stroke="#ffd60a" stroke-width="1.5" stroke-linecap="round"/>
<text x="55" y="720" fill="#ffd60a" font-size="2" font-family="monospace" text-anchor="start" dominant-baseline="middle">P85</text>
<line x1="30" y1="740" x2="50" y2="740" stroke="#ffd60a" stroke-width="1.5" stroke-linecap="round"/>
<text x="55" y="740" fill="#ffd60a" font-size="2" font-family="monospace" text-anchor="start" dominant-baseline="middle">P86</text>
<line x1="30" y1="760" x2="50" y2="760" stroke="#ffd60a" stroke-width="1.5" stroke-linecap="round"/>
<text x="55" y="760" fill="#ffd60a" font-size="2" font-family="monospace" text-anchor="start" dominant-baseline="middle">P87</text>
<line x1="30" y1="780" x2="50" y2="780" stroke="#ffd60a" stroke-width="1.5" stroke-linecap="round"/>
<text x="55" y="780" fill="#ffd60a" font-size="2" font-family="monospace" text-anchor="start" dominant-baseline="middle">P98</text>
<line x1="30" y1="800" x2="50" y2="800" stroke="#ffd60a" stroke-width="1.5" stroke-linecap="round"/>
<text x="55" y="800" fill="#ffd60a" font-size="2" font-family="monospace" text-anchor="start" dominant-baseline="middle">P90</text>
<line x1="30" y1="820" x2="50" y2="820" stroke="#ffd60a" stroke-width="1.5" stroke-linecap="round"/>
<text x="55" y="820" fill="#ffd60a" font-size="2" font-family="monospace" text-anchor="start" dominant-baseline="middle">P91</text>
<line x1="30" y1="840" x2="50" y2="840" stroke="#ffd60a" stroke-width="1.5" stroke-linecap="round"/>
<text x="55" y="840" fill="#ffd60a" font-size="2" font-family="monospace" text-anchor="start" dominant-baseline="middle">P92</text>
<line x1="30" y1="860" x2="50" y2="860" stroke="#ffd60a" stroke-width="1.5" stroke-linecap="round"/>
<text x="55" y="860" fill="#ffd60a" font-size="2" font-family="monospace" text-anchor="start" dominant-baseline="middle">P93</text>
<line x1="30" y1="880" x2="50" y2="880" stroke="#ffd60a" stroke-width="1.5" stroke-linecap="round"/>
<text x="55" y="880" fill="#ffd60a" font-size="2" font-family="monospace" text-anchor="start" dominant-baseline="middle">P94</text>
<line x1="30" y1="900" x2="50" y2="900" stroke="#ffd60a" stroke-width="1.5" stroke-linecap="round"/>
<text x="55" y="900" fill="#ffd60a" font-size="2" font-family="monospace" text-anchor="start" dominant-baseline="middle">P95</text>
<line x1="30" y1="920" x2="50" y2="920" stroke="#ffd60a" stroke-width="1.5" stroke-linecap="round"/>
<text x="55" y="920" fill="#ffd60a" font-size="2" font-family="monospace" text-anchor="start" dominant-baseline="middle">P/RDY</text>
<line x1="190" y1="60" x2="170" y2="60" stroke="#ffd60a" stroke-width="1.5" stroke-linecap="round"/>
<text x="165" y="60" fill="#ffd60a" font-size="2" font-family="monospace" text-anchor="end" dominant-baseline="middle">P2</text>
<line x1="190" y1="80" x2="170" y2="80" stroke="#ffd60a" stroke-width="1.5" stroke-linecap="round"/>
<text x="165" y="80" fill="#ffd60a" font-size="2" font-family="monospace" text-anchor="end" dominant-baseline="middle">P3</text>
<line x1="190" y1="100" x2="170" y2="100" stroke="#ffd60a" stroke-width="1.5" stroke-linecap="round"/>
<text x="165" y="100" fill="#ffd60a" font-size="2" font-family="monospace" text-anchor="end" dominant-baseline="middle">P4</text>
<line x1="190" y1="120" x2="170" y2="120" stroke="#ffd60a" stroke-width="1.5" stroke-linecap="round"/>
<text x="165" y="120" fill="#ffd60a" font-size="2" font-family="monospace" text-anchor="end" dominant-baseline="middle">P5</text>
<line x1="190" y1="140" x2="170" y2="140" stroke="#ffd60a" stroke-width="1.5" stroke-linecap="round"/>
<text x="165" y="140" fill="#ffd60a" font-size="2" font-family="monospace" text-anchor="end" dominant-baseline="middle">P6</text>
<line x1="190" y1="160" x2="170" y2="160" stroke="#ffd60a" stroke-width="1.5" stroke-linecap="round"/>
<text x="165" y="160" fill="#ffd60a" font-size="2" font-family="monospace" text-anchor="end" dominant-baseline="middle">P7</text>
<line x1="190" y1="180" x2="170" y2="180" stroke="#ffd60a" stroke-width="1.5" stroke-linecap="round"/>
<text x="165" y="180" fill="#ffd60a" font-size="2" font-family="monospace" text-anchor="end" dominant-baseline="middle">P8</text>
<line x1="190" y1="200" x2="170" y2="200" stroke="#ffd60a" stroke-width="1.5" stroke-linecap="round"/>
<text x="165" y="200" fill="#ffd60a" font-size="2" font-family="monospace" text-anchor="end" dominant-baseline="middle">P9</text>
<line x1="190" y1="220" x2="170" y2="220" stroke="#ffd60a" stroke-width="1.5" stroke-linecap="round"/>
<text x="165" y="220" fill="#ffd60a" font-size="2" font-family="monospace" text-anchor="end" dominant-baseline="middle">P10</text>
<line x1="190" y1="240" x2="170" y2="240" stroke="#ffd60a" stroke-width="1.5" stroke-linecap="round"/>
<text x="165" y="240" fill="#ffd60a" font-size="2" font-family="monospace" text-anchor="end" dominant-baseline="middle">P11</text>
<line x1="190" y1="260" x2="170" y2="260" stroke="#ffd60a" stroke-width="1.5" stroke-linecap="round"/>
<text x="165" y="260" fill="#ffd60a" font-size="2" font-family="monospace" text-anchor="end" dominant-baseline="middle">P12</text>
<line x1="190" y1="280" x2="170" y2="280" stroke="#ffd60a" stroke-width="1.5" stroke-linecap="round"/>
<text x="165" y="280" fill="#ffd60a" font-size="2" font-family="monospace" text-anchor="end" dominant-baseline="middle">P14</text>
<line x1="190" y1="300" x2="170" y2="300" stroke="#ffd60a" stroke-width="1.5" stroke-linecap="round"/>
<text x="165" y="300" fill="#ffd60a" font-size="2" font-family="monospace" text-anchor="end" dominant-baseline="middle">P15</text>
<line x1="190" y1="320" x2="170" y2="320" stroke="#ffd60a" stroke-width="1.5" stroke-linecap="round"/>
<text x="165" y="320" fill="#ffd60a" font-size="2" font-family="monospace" text-anchor="end" dominant-baseline="middle">P16</text>
<line x1="190" y1="340" x2="170" y2="340" stroke="#ffd60a" stroke-width="1.5" stroke-linecap="round"/>
<text x="165" y="340" fill="#ffd60a" font-size="2" font-family="monospace" text-anchor="end" dominant-baseline="middle">P17</text>
<line x1="190" y1="360" x2="170" y2="360" stroke="#ffd60a" stroke-width="1.5" stroke-linecap="round"/>
<text x="165" y="360" fill="#ffd60a" font-size="2" font-family="monospace" text-anchor="end" dominant-baseline="middle">P18</text>
<line x1="190" y1="380" x2="170" y2="380" stroke="#ffd60a" stroke-width="1.5" stroke-linecap="round"/>
<text x="165" y="380" fill="#ffd60a" font-size="2" font-family="monospace" text-anchor="end" dominant-baseline="middle">P19</text>
<line x1="190" y1="400" x2="170" y2="400" stroke="#ffd60a" stroke-width="1.5" stroke-linecap="round"/>
<text x="165" y="400" fill="#ffd60a" font-size="2" font-family="monospace" text-anchor="end" dominant-baseline="middle">P20</text>
<line x1="190" y1="420" x2="170" y2="420" stroke="#ffd60a" stroke-width="1.5" stroke-linecap="round"/>
<text x="165" y="420" fill="#ffd60a" font-size="2" font-family="monospace" text-anchor="end" dominant-baseline="middle">P21</text>
<line x1="190" y1="440" x2="170" y2="440" stroke="#ffd60a" stroke-width="1.5" stroke-linecap="round"/>
<text x="165" y="440" fill="#ffd60a" font-size="2" font-family="monospace" text-anchor="end" dominant-baseline="middle">P22</text>
<line x1="190" y1="460" x2="170" y2="460" stroke="#ffd60a" stroke-width="1.5" stroke-linecap="round"/>
<text x="165" y="460" fill="#ffd60a" font-size="2" font-family="monospace" text-anchor="end" dominant-baseline="middle">P23</text>
<line x1="190" y1="480" x2="170" y2="480" stroke="#ffd60a" stroke-width="1.5" stroke-linecap="round"/>
<text x="165" y="480" fill="#ffd60a" font-size="2" font-family="monospace" text-anchor="end" dominant-baseline="middle">~{PWRDWN}</text>
<line x1="190" y1="500" x2="170" y2="500" stroke="#ffd60a" stroke-width="1.5" stroke-linecap="round"/>
<text x="165" y="500" fill="#ffd60a" font-size="2" font-family="monospace" text-anchor="end" dominant-baseline="middle">P/TCLKIN</text>
<line x1="190" y1="520" x2="170" y2="520" stroke="#ffd60a" stroke-width="1.5" stroke-linecap="round"/>
<text x="165" y="520" fill="#ffd60a" font-size="2" font-family="monospace" text-anchor="end" dominant-baseline="middle">P28</text>
<line x1="190" y1="540" x2="170" y2="540" stroke="#ffd60a" stroke-width="1.5" stroke-linecap="round"/>
<text x="165" y="540" fill="#ffd60a" font-size="2" font-family="monospace" text-anchor="end" dominant-baseline="middle">P29</text>
<line x1="190" y1="560" x2="170" y2="560" stroke="#ffd60a" stroke-width="1.5" stroke-linecap="round"/>
<text x="165" y="560" fill="#ffd60a" font-size="2" font-family="monospace" text-anchor="end" dominant-baseline="middle">P30</text>
<line x1="190" y1="580" x2="170" y2="580" stroke="#ffd60a" stroke-width="1.5" stroke-linecap="round"/>
<text x="165" y="580" fill="#ffd60a" font-size="2" font-family="monospace" text-anchor="end" dominant-baseline="middle">P31</text>
<line x1="190" y1="600" x2="170" y2="600" stroke="#ffd60a" stroke-width="1.5" stroke-linecap="round"/>
<text x="165" y="600" fill="#ffd60a" font-size="2" font-family="monospace" text-anchor="end" dominant-baseline="middle">P32</text>
<line x1="190" y1="620" x2="170" y2="620" stroke="#ffd60a" stroke-width="1.5" stroke-linecap="round"/>
<text x="165" y="620" fill="#ffd60a" font-size="2" font-family="monospace" text-anchor="end" dominant-baseline="middle">P33</text>
<line x1="190" y1="640" x2="170" y2="640" stroke="#ffd60a" stroke-width="1.5" stroke-linecap="round"/>
<text x="165" y="640" fill="#ffd60a" font-size="2" font-family="monospace" text-anchor="end" dominant-baseline="middle">P34</text>
<line x1="190" y1="660" x2="170" y2="660" stroke="#ffd60a" stroke-width="1.5" stroke-linecap="round"/>
<text x="165" y="660" fill="#ffd60a" font-size="2" font-family="monospace" text-anchor="end" dominant-baseline="middle">P35</text>
<line x1="190" y1="680" x2="170" y2="680" stroke="#ffd60a" stroke-width="1.5" stroke-linecap="round"/>
<text x="165" y="680" fill="#ffd60a" font-size="2" font-family="monospace" text-anchor="end" dominant-baseline="middle">P36</text>
<line x1="190" y1="700" x2="170" y2="700" stroke="#ffd60a" stroke-width="1.5" stroke-linecap="round"/>
<text x="165" y="700" fill="#ffd60a" font-size="2" font-family="monospace" text-anchor="end" dominant-baseline="middle">P37</text>
<line x1="190" y1="720" x2="170" y2="720" stroke="#ffd60a" stroke-width="1.5" stroke-linecap="round"/>
<text x="165" y="720" fill="#ffd60a" font-size="2" font-family="monospace" text-anchor="end" dominant-baseline="middle">P39</text>
<line x1="190" y1="740" x2="170" y2="740" stroke="#ffd60a" stroke-width="1.5" stroke-linecap="round"/>
<text x="165" y="740" fill="#ffd60a" font-size="2" font-family="monospace" text-anchor="end" dominant-baseline="middle">M1</text>
<line x1="190" y1="760" x2="170" y2="760" stroke="#ffd60a" stroke-width="1.5" stroke-linecap="round"/>
<text x="165" y="760" fill="#ffd60a" font-size="2" font-family="monospace" text-anchor="end" dominant-baseline="middle">M0</text>
<line x1="190" y1="780" x2="170" y2="780" stroke="#ffd60a" stroke-width="1.5" stroke-linecap="round"/>
<text x="165" y="780" fill="#ffd60a" font-size="2" font-family="monospace" text-anchor="end" dominant-baseline="middle">M2</text>
<line x1="190" y1="800" x2="170" y2="800" stroke="#ffd60a" stroke-width="1.5" stroke-linecap="round"/>
<text x="165" y="800" fill="#ffd60a" font-size="2" font-family="monospace" text-anchor="end" dominant-baseline="middle">P/HDC</text>
<line x1="190" y1="820" x2="170" y2="820" stroke="#ffd60a" stroke-width="1.5" stroke-linecap="round"/>
<text x="165" y="820" fill="#ffd60a" font-size="2" font-family="monospace" text-anchor="end" dominant-baseline="middle">P/LDC</text>
<line x1="190" y1="840" x2="170" y2="840" stroke="#ffd60a" stroke-width="1.5" stroke-linecap="round"/>
<text x="165" y="840" fill="#ffd60a" font-size="2" font-family="monospace" text-anchor="end" dominant-baseline="middle">~{RESET}</text>
<line x1="190" y1="860" x2="170" y2="860" stroke="#ffd60a" stroke-width="1.5" stroke-linecap="round"/>
<text x="165" y="860" fill="#ffd60a" font-size="2" font-family="monospace" text-anchor="end" dominant-baseline="middle">DONE/PG</text>
<line x1="190" y1="880" x2="170" y2="880" stroke="#ffd60a" stroke-width="1.5" stroke-linecap="round"/>
<text x="165" y="880" fill="#ffd60a" font-size="2" font-family="monospace" text-anchor="end" dominant-baseline="middle">P/DIN</text>
<line x1="190" y1="900" x2="170" y2="900" stroke="#ffd60a" stroke-width="1.5" stroke-linecap="round"/>
<text x="165" y="900" fill="#ffd60a" font-size="2" font-family="monospace" text-anchor="end" dominant-baseline="middle">P/DOUT</text>
<line x1="190" y1="920" x2="170" y2="920" stroke="#ffd60a" stroke-width="1.5" stroke-linecap="round"/>
<text x="165" y="920" fill="#ffd60a" font-size="2" font-family="monospace" text-anchor="end" dominant-baseline="middle">CLK</text>
<line x1="60" y1="30" x2="60" y2="50" stroke="#ffd60a" stroke-width="1.5" stroke-linecap="round"/>
<text x="60" y="25" fill="#ffd60a" font-size="2" font-family="monospace" text-anchor="middle" dominant-baseline="middle">GND</text>
<line x1="80" y1="30" x2="80" y2="50" stroke="#ffd60a" stroke-width="1.5" stroke-linecap="round"/>
<text x="80" y="25" fill="#ffd60a" font-size="2" font-family="monospace" text-anchor="middle" dominant-baseline="middle">GND</text>
<line x1="100" y1="30" x2="100" y2="50" stroke="#ffd60a" stroke-width="1.5" stroke-linecap="round"/>
<text x="100" y="25" fill="#ffd60a" font-size="2" font-family="monospace" text-anchor="middle" dominant-baseline="middle">GND</text>
<line x1="120" y1="30" x2="120" y2="50" stroke="#ffd60a" stroke-width="1.5" stroke-linecap="round"/>
<text x="120" y="25" fill="#ffd60a" font-size="2" font-family="monospace" text-anchor="middle" dominant-baseline="middle">GND</text>
<line x1="140" y1="30" x2="140" y2="50" stroke="#ffd60a" stroke-width="1.5" stroke-linecap="round"/>
<text x="140" y="25" fill="#ffd60a" font-size="2" font-family="monospace" text-anchor="middle" dominant-baseline="middle">GND</text>
<line x1="160" y1="30" x2="160" y2="50" stroke="#ffd60a" stroke-width="1.5" stroke-linecap="round"/>
<text x="160" y="25" fill="#ffd60a" font-size="2" font-family="monospace" text-anchor="middle" dominant-baseline="middle">GND</text>
<line x1="60" y1="950" x2="60" y2="930" stroke="#ffd60a" stroke-width="1.5" stroke-linecap="round"/>
<text x="60" y="964" fill="#ffd60a" font-size="2" font-family="monospace" text-anchor="middle" dominant-baseline="middle">VCC</text>
<line x1="80" y1="950" x2="80" y2="930" stroke="#ffd60a" stroke-width="1.5" stroke-linecap="round"/>
<text x="80" y="964" fill="#ffd60a" font-size="2" font-family="monospace" text-anchor="middle" dominant-baseline="middle">VCC</text>
<line x1="100" y1="950" x2="100" y2="930" stroke="#ffd60a" stroke-width="1.5" stroke-linecap="round"/>
<text x="100" y="964" fill="#ffd60a" font-size="2" font-family="monospace" text-anchor="middle" dominant-baseline="middle">VCC</text>
<line x1="120" y1="950" x2="120" y2="930" stroke="#ffd60a" stroke-width="1.5" stroke-linecap="round"/>
<text x="120" y="964" fill="#ffd60a" font-size="2" font-family="monospace" text-anchor="middle" dominant-baseline="middle">VCC</text>
<line x1="140" y1="950" x2="140" y2="930" stroke="#ffd60a" stroke-width="1.5" stroke-linecap="round"/>
<text x="140" y="964" fill="#ffd60a" font-size="2" font-family="monospace" text-anchor="middle" dominant-baseline="middle">VCC</text>
<line x1="160" y1="950" x2="160" y2="930" stroke="#ffd60a" stroke-width="1.5" stroke-linecap="round"/>
<text x="160" y="964" fill="#ffd60a" font-size="2" font-family="monospace" text-anchor="middle" dominant-baseline="middle">VCC</text>
</svg>