<svg xmlns="http://www.w3.org/2000/svg" viewBox="0 0 25.78 28.32">
<polyline points="5.270000000000001,10.985 6.540000000000001,10.985 6.540000000000001,10.985" stroke="#ffffff" stroke-width="0.3" stroke-linejoin="round" stroke-linecap="round" fill="none"/>
<polyline points="5.270000000000001,12.255 6.540000000000001,12.255 6.540000000000001,12.255" stroke="#ffffff" stroke-width="0.3" stroke-linejoin="round" stroke-linecap="round" fill="none"/>
<polyline points="5.270000000000001,13.525 6.540000000000001,13.525 6.540000000000001,13.525" stroke="#ffffff" stroke-width="0.3" stroke-linejoin="round" stroke-linecap="round" fill="none"/>
<polyline points="5.270000000000001,14.795 6.540000000000001,14.795 6.540000000000001,14.795" stroke="#ffffff" stroke-width="0.3" stroke-linejoin="round" stroke-linecap="round" fill="none"/>
<polyline points="5.270000000000001,16.065 6.540000000000001,16.065 6.540000000000001,16.065" stroke="#ffffff" stroke-width="0.3" stroke-linejoin="round" stroke-linecap="round" fill="none"/>
<polyline points="5.270000000000001,18.605 5.270000000000001,7.175 15.430000000000001,7.175 15.430000000000001,9.715 16.700000000000003,9.715 16.700000000000003,10.985 17.97,10.985 17.97,14.795 16.700000000000003,14.795 16.700000000000003,16.065 15.430000000000001,16.065 15.430000000000001,18.605 5.270000000000001,18.605 5.270000000000001,18.605" stroke="#ffffff" stroke-width="0.3" stroke-linejoin="round" stroke-linecap="round" fill="none"/>
<polyline points="6.540000000000001,9.715 5.270000000000001,9.715 5.270000000000001,9.715" stroke="#ffffff" stroke-width="0.3" stroke-linejoin="round" stroke-linecap="round" fill="none"/>
<rect x="4.000000000000001" y="21.78" width="15.24" height="17.78" stroke="#ffffff" stroke-width="0.3" fill="rgba(255,255,255,0.06)"/>
<line x1="21.78" y1="14.16" x2="19.240000000000002" y2="14.16" stroke="#ffd60a" stroke-width="0.4045714285714286" stroke-linecap="round"/>
<line x1="21.78" y1="11.620000000000001" x2="19.240000000000002" y2="11.62" stroke="#ffd60a" stroke-width="0.4045714285714286" stroke-linecap="round"/>
<line x1="11.620000000000001" y1="24.32" x2="11.620000000000001" y2="21.78" stroke="#ffd60a" stroke-width="0.4045714285714286" stroke-linecap="round"/>
</svg>