<svg xmlns="http://www.w3.org/2000/svg" viewBox="0 0 35.94 28.32">
<path d="M 11.620000000000001 9.08 A 8.131852974186309 8.131852974186309 0 0 1 11.620000000000001 19.240000000000002" stroke="#ffffff" stroke-width="0.3" fill="none"/>
<line x1="11.620000000000001" y1="11.620000000000001" x2="12.890000000000002" y2="11.620000000000001" stroke="#ffffff" stroke-width="0.3" stroke-linecap="round" fill="none"/>
<line x1="11.620000000000001" y1="16.7" x2="12.890000000000002" y2="16.7" stroke="#ffffff" stroke-width="0.3" stroke-linecap="round" fill="none"/>
<path d="M 24.32 14.16 A 7.359298208032399 7.359298208032399 0 0 1 19.240000000000002 19.240000000000002" stroke="#ffffff" stroke-width="0.3" fill="none"/>
<path d="M 19.240000000000002 9.08 A 7.125308912029932 7.125308912029932 0 0 1 24.32 14.16" stroke="#ffffff" stroke-width="0.3" fill="none"/>
<line x1="19.240000000000002" y1="9.08" x2="11.620000000000001" y2="9.08" stroke="#ffffff" stroke-width="0.3" stroke-linecap="round" fill="none"/>
<line x1="19.240000000000002" y1="19.240000000000002" x2="11.620000000000001" y2="19.240000000000002" stroke="#ffffff" stroke-width="0.3" stroke-linecap="round" fill="none"/>
<line x1="4.000000000000002" y1="11.620000000000001" x2="11.620000000000001" y2="11.620000000000001" stroke="#ffd60a" stroke-width="0.5134285714285713" stroke-linecap="round"/>
<line x1="4.000000000000002" y1="16.7" x2="11.620000000000001" y2="16.7" stroke="#ffd60a" stroke-width="0.5134285714285713" stroke-linecap="round"/>
<line x1="19.240000000000002" y1="24.32" x2="19.240000000000002" y2="19.240000000000002" stroke="#ffd60a" stroke-width="0.5134285714285713" stroke-linecap="round"/>
<text x="19.240000000000002" y="16.240000000000002" fill="#ffd60a" font-size="1" font-family="monospace" text-anchor="middle" dominant-baseline="middle">GND</text>
<line x1="31.94" y1="14.16" x2="24.32" y2="14.159999999999998" stroke="#ffd60a" stroke-width="0.5134285714285713" stroke-linecap="round"/>
<line x1="19.240000000000002" y1="4" x2="19.240000000000002" y2="9.08" stroke="#ffd60a" stroke-width="0.5134285714285713" stroke-linecap="round"/>
<text x="19.240000000000002" y="12.08" fill="#ffd60a" font-size="1" font-family="monospace" text-anchor="middle" dominant-baseline="middle">VCC</text>
</svg>