<svg xmlns="http://www.w3.org/2000/svg" viewBox="0 0 420 620">
<rect x="50" y="50" width="320" height="520" stroke="#ffffff" stroke-width="1.5" fill="rgba(255,255,255,0.04)"/>
<text x="210" y="310" fill="#888" font-size="3" font-family="monospace" text-anchor="middle" dominant-baseline="middle">U</text>
<line x1="30" y1="60" x2="50" y2="60" stroke="#ffd60a" stroke-width="1.5" stroke-linecap="round"/>
<text x="55" y="60" fill="#ffd60a" font-size="2" font-family="monospace" text-anchor="start" dominant-baseline="middle">NC</text>
<line x1="30" y1="80" x2="50" y2="80" stroke="#ffd60a" stroke-width="1.5" stroke-linecap="round"/>
<text x="55" y="80" fill="#ffd60a" font-size="2" font-family="monospace" text-anchor="start" dominant-baseline="middle">NC</text>
<line x1="30" y1="100" x2="50" y2="100" stroke="#ffd60a" stroke-width="1.5" stroke-linecap="round"/>
<text x="55" y="100" fill="#ffd60a" font-size="2" font-family="monospace" text-anchor="start" dominant-baseline="middle">NC</text>
<line x1="30" y1="120" x2="50" y2="120" stroke="#ffd60a" stroke-width="1.5" stroke-linecap="round"/>
<text x="55" y="120" fill="#ffd60a" font-size="2" font-family="monospace" text-anchor="start" dominant-baseline="middle">NC</text>
<line x1="30" y1="140" x2="50" y2="140" stroke="#ffd60a" stroke-width="1.5" stroke-linecap="round"/>
<text x="55" y="140" fill="#ffd60a" font-size="2" font-family="monospace" text-anchor="start" dominant-baseline="middle">NC</text>
<line x1="30" y1="160" x2="50" y2="160" stroke="#ffd60a" stroke-width="1.5" stroke-linecap="round"/>
<text x="55" y="160" fill="#ffd60a" font-size="2" font-family="monospace" text-anchor="start" dominant-baseline="middle">NC</text>
<line x1="30" y1="180" x2="50" y2="180" stroke="#ffd60a" stroke-width="1.5" stroke-linecap="round"/>
<text x="55" y="180" fill="#ffd60a" font-size="2" font-family="monospace" text-anchor="start" dominant-baseline="middle">GPIO3</text>
<line x1="30" y1="200" x2="50" y2="200" stroke="#ffd60a" stroke-width="1.5" stroke-linecap="round"/>
<text x="55" y="200" fill="#ffd60a" font-size="2" font-family="monospace" text-anchor="start" dominant-baseline="middle">GPIO4</text>
<line x1="30" y1="220" x2="50" y2="220" stroke="#ffd60a" stroke-width="1.5" stroke-linecap="round"/>
<text x="55" y="220" fill="#ffd60a" font-size="2" font-family="monospace" text-anchor="start" dominant-baseline="middle">GPIO5</text>
<line x1="30" y1="240" x2="50" y2="240" stroke="#ffd60a" stroke-width="1.5" stroke-linecap="round"/>
<text x="55" y="240" fill="#ffd60a" font-size="2" font-family="monospace" text-anchor="start" dominant-baseline="middle">RXP_1</text>
<line x1="30" y1="260" x2="50" y2="260" stroke="#ffd60a" stroke-width="1.5" stroke-linecap="round"/>
<text x="55" y="260" fill="#ffd60a" font-size="2" font-family="monospace" text-anchor="start" dominant-baseline="middle">RXN_1</text>
<line x1="30" y1="280" x2="50" y2="280" stroke="#ffd60a" stroke-width="1.5" stroke-linecap="round"/>
<text x="55" y="280" fill="#ffd60a" font-size="2" font-family="monospace" text-anchor="start" dominant-baseline="middle">TXN_1</text>
<line x1="30" y1="300" x2="50" y2="300" stroke="#ffd60a" stroke-width="1.5" stroke-linecap="round"/>
<text x="55" y="300" fill="#ffd60a" font-size="2" font-family="monospace" text-anchor="start" dominant-baseline="middle">TXP_1</text>
<line x1="30" y1="320" x2="50" y2="320" stroke="#ffd60a" stroke-width="1.5" stroke-linecap="round"/>
<text x="55" y="320" fill="#ffd60a" font-size="2" font-family="monospace" text-anchor="start" dominant-baseline="middle">RXP_0</text>
<line x1="30" y1="340" x2="50" y2="340" stroke="#ffd60a" stroke-width="1.5" stroke-linecap="round"/>
<text x="55" y="340" fill="#ffd60a" font-size="2" font-family="monospace" text-anchor="start" dominant-baseline="middle">RXN_0</text>
<line x1="30" y1="360" x2="50" y2="360" stroke="#ffd60a" stroke-width="1.5" stroke-linecap="round"/>
<text x="55" y="360" fill="#ffd60a" font-size="2" font-family="monospace" text-anchor="start" dominant-baseline="middle">TXN_0</text>
<line x1="30" y1="380" x2="50" y2="380" stroke="#ffd60a" stroke-width="1.5" stroke-linecap="round"/>
<text x="55" y="380" fill="#ffd60a" font-size="2" font-family="monospace" text-anchor="start" dominant-baseline="middle">TXP_0</text>
<line x1="30" y1="400" x2="50" y2="400" stroke="#ffd60a" stroke-width="1.5" stroke-linecap="round"/>
<text x="55" y="400" fill="#ffd60a" font-size="2" font-family="monospace" text-anchor="start" dominant-baseline="middle">VCONT_10</text>
<line x1="30" y1="420" x2="50" y2="420" stroke="#ffd60a" stroke-width="1.5" stroke-linecap="round"/>
<text x="55" y="420" fill="#ffd60a" font-size="2" font-family="monospace" text-anchor="start" dominant-baseline="middle">SPI_DO</text>
<line x1="30" y1="440" x2="50" y2="440" stroke="#ffd60a" stroke-width="1.5" stroke-linecap="round"/>
<text x="55" y="440" fill="#ffd60a" font-size="2" font-family="monospace" text-anchor="start" dominant-baseline="middle">SPI_CS</text>
<line x1="30" y1="460" x2="50" y2="460" stroke="#ffd60a" stroke-width="1.5" stroke-linecap="round"/>
<text x="55" y="460" fill="#ffd60a" font-size="2" font-family="monospace" text-anchor="start" dominant-baseline="middle">SPI_DI</text>
<line x1="30" y1="480" x2="50" y2="480" stroke="#ffd60a" stroke-width="1.5" stroke-linecap="round"/>
<text x="55" y="480" fill="#ffd60a" font-size="2" font-family="monospace" text-anchor="start" dominant-baseline="middle">SPI_CLK</text>
<line x1="30" y1="500" x2="50" y2="500" stroke="#ffd60a" stroke-width="1.5" stroke-linecap="round"/>
<text x="55" y="500" fill="#ffd60a" font-size="2" font-family="monospace" text-anchor="start" dominant-baseline="middle">GPIO0</text>
<line x1="30" y1="520" x2="50" y2="520" stroke="#ffd60a" stroke-width="1.5" stroke-linecap="round"/>
<text x="55" y="520" fill="#ffd60a" font-size="2" font-family="monospace" text-anchor="start" dominant-baseline="middle">NC</text>
<line x1="30" y1="540" x2="50" y2="540" stroke="#ffd60a" stroke-width="1.5" stroke-linecap="round"/>
<text x="55" y="540" fill="#ffd60a" font-size="2" font-family="monospace" text-anchor="start" dominant-baseline="middle">GPIO1</text>
<line x1="30" y1="560" x2="50" y2="560" stroke="#ffd60a" stroke-width="1.5" stroke-linecap="round"/>
<text x="55" y="560" fill="#ffd60a" font-size="2" font-family="monospace" text-anchor="start" dominant-baseline="middle">GPIO2</text>
<line x1="390" y1="60.4" x2="370" y2="60.4" stroke="#ffd60a" stroke-width="1.5" stroke-linecap="round"/>
<text x="365" y="60.4" fill="#ffd60a" font-size="2" font-family="monospace" text-anchor="end" dominant-baseline="middle">NC</text>
<line x1="390" y1="81.2" x2="370" y2="81.2" stroke="#ffd60a" stroke-width="1.5" stroke-linecap="round"/>
<text x="365" y="81.2" fill="#ffd60a" font-size="2" font-family="monospace" text-anchor="end" dominant-baseline="middle">NC</text>
<line x1="390" y1="102" x2="370" y2="102" stroke="#ffd60a" stroke-width="1.5" stroke-linecap="round"/>
<text x="365" y="102" fill="#ffd60a" font-size="2" font-family="monospace" text-anchor="end" dominant-baseline="middle">NC</text>
<line x1="390" y1="122.80000000000001" x2="370" y2="122.80000000000001" stroke="#ffd60a" stroke-width="1.5" stroke-linecap="round"/>
<text x="365" y="122.80000000000001" fill="#ffd60a" font-size="2" font-family="monospace" text-anchor="end" dominant-baseline="middle">NC</text>
<line x1="390" y1="143.6" x2="370" y2="143.6" stroke="#ffd60a" stroke-width="1.5" stroke-linecap="round"/>
<text x="365" y="143.6" fill="#ffd60a" font-size="2" font-family="monospace" text-anchor="end" dominant-baseline="middle">NC</text>
<line x1="390" y1="164.4" x2="370" y2="164.4" stroke="#ffd60a" stroke-width="1.5" stroke-linecap="round"/>
<text x="365" y="164.4" fill="#ffd60a" font-size="2" font-family="monospace" text-anchor="end" dominant-baseline="middle">NC</text>
<line x1="390" y1="185.20000000000002" x2="370" y2="185.20000000000002" stroke="#ffd60a" stroke-width="1.5" stroke-linecap="round"/>
<text x="365" y="185.20000000000002" fill="#ffd60a" font-size="2" font-family="monospace" text-anchor="end" dominant-baseline="middle">TESTMODE</text>
<line x1="390" y1="206" x2="370" y2="206" stroke="#ffd60a" stroke-width="1.5" stroke-linecap="round"/>
<text x="365" y="206" fill="#ffd60a" font-size="2" font-family="monospace" text-anchor="end" dominant-baseline="middle">TP</text>
<line x1="390" y1="226.8" x2="370" y2="226.8" stroke="#ffd60a" stroke-width="1.5" stroke-linecap="round"/>
<text x="365" y="226.8" fill="#ffd60a" font-size="2" font-family="monospace" text-anchor="end" dominant-baseline="middle">XTLIN_OSC</text>
<line x1="390" y1="247.6" x2="370" y2="247.6" stroke="#ffd60a" stroke-width="1.5" stroke-linecap="round"/>
<text x="365" y="247.6" fill="#ffd60a" font-size="2" font-family="monospace" text-anchor="end" dominant-baseline="middle">XTLOUT</text>
<line x1="390" y1="268.4" x2="370" y2="268.4" stroke="#ffd60a" stroke-width="1.5" stroke-linecap="round"/>
<text x="365" y="268.4" fill="#ffd60a" font-size="2" font-family="monospace" text-anchor="end" dominant-baseline="middle">ISET</text>
<line x1="390" y1="289.20000000000005" x2="370" y2="289.20000000000005" stroke="#ffd60a" stroke-width="1.5" stroke-linecap="round"/>
<text x="365" y="289.20000000000005" fill="#ffd60a" font-size="2" font-family="monospace" text-anchor="end" dominant-baseline="middle">PTXN</text>
<line x1="390" y1="310" x2="370" y2="310" stroke="#ffd60a" stroke-width="1.5" stroke-linecap="round"/>
<text x="365" y="310" fill="#ffd60a" font-size="2" font-family="monospace" text-anchor="end" dominant-baseline="middle">PTXP</text>
<line x1="390" y1="330.8" x2="370" y2="330.8" stroke="#ffd60a" stroke-width="1.5" stroke-linecap="round"/>
<text x="365" y="330.8" fill="#ffd60a" font-size="2" font-family="monospace" text-anchor="end" dominant-baseline="middle">PRXN</text>
<line x1="390" y1="351.59999999999997" x2="370" y2="351.59999999999997" stroke="#ffd60a" stroke-width="1.5" stroke-linecap="round"/>
<text x="365" y="351.59999999999997" fill="#ffd60a" font-size="2" font-family="monospace" text-anchor="end" dominant-baseline="middle">PRXP</text>
<line x1="390" y1="372.4" x2="370" y2="372.4" stroke="#ffd60a" stroke-width="1.5" stroke-linecap="round"/>
<text x="365" y="372.4" fill="#ffd60a" font-size="2" font-family="monospace" text-anchor="end" dominant-baseline="middle">CLKP</text>
<line x1="390" y1="393.2" x2="370" y2="393.2" stroke="#ffd60a" stroke-width="1.5" stroke-linecap="round"/>
<text x="365" y="393.2" fill="#ffd60a" font-size="2" font-family="monospace" text-anchor="end" dominant-baseline="middle">CLKN</text>
<line x1="390" y1="414" x2="370" y2="414" stroke="#ffd60a" stroke-width="1.5" stroke-linecap="round"/>
<text x="365" y="414" fill="#ffd60a" font-size="2" font-family="monospace" text-anchor="end" dominant-baseline="middle">~{WAKE}</text>
<line x1="390" y1="434.8" x2="370" y2="434.8" stroke="#ffd60a" stroke-width="1.5" stroke-linecap="round"/>
<text x="365" y="434.8" fill="#ffd60a" font-size="2" font-family="monospace" text-anchor="end" dominant-baseline="middle">~{PERST}</text>
<line x1="390" y1="455.6" x2="370" y2="455.6" stroke="#ffd60a" stroke-width="1.5" stroke-linecap="round"/>
<text x="365" y="455.6" fill="#ffd60a" font-size="2" font-family="monospace" text-anchor="end" dominant-baseline="middle">NC</text>
<line x1="390" y1="476.4" x2="370" y2="476.4" stroke="#ffd60a" stroke-width="1.5" stroke-linecap="round"/>
<text x="365" y="476.4" fill="#ffd60a" font-size="2" font-family="monospace" text-anchor="end" dominant-baseline="middle">NC</text>
<line x1="390" y1="497.2" x2="370" y2="497.2" stroke="#ffd60a" stroke-width="1.5" stroke-linecap="round"/>
<text x="365" y="497.2" fill="#ffd60a" font-size="2" font-family="monospace" text-anchor="end" dominant-baseline="middle">NC</text>
<line x1="390" y1="518" x2="370" y2="518" stroke="#ffd60a" stroke-width="1.5" stroke-linecap="round"/>
<text x="365" y="518" fill="#ffd60a" font-size="2" font-family="monospace" text-anchor="end" dominant-baseline="middle">NC</text>
<line x1="390" y1="538.8" x2="370" y2="538.8" stroke="#ffd60a" stroke-width="1.5" stroke-linecap="round"/>
<text x="365" y="538.8" fill="#ffd60a" font-size="2" font-family="monospace" text-anchor="end" dominant-baseline="middle">NC</text>
<line x1="390" y1="559.5999999999999" x2="370" y2="559.5999999999999" stroke="#ffd60a" stroke-width="1.5" stroke-linecap="round"/>
<text x="365" y="559.5999999999999" fill="#ffd60a" font-size="2" font-family="monospace" text-anchor="end" dominant-baseline="middle">NC</text>
<line x1="66" y1="30" x2="66" y2="50" stroke="#ffd60a" stroke-width="1.5" stroke-linecap="round"/>
<text x="66" y="25" fill="#ffd60a" font-size="2" font-family="monospace" text-anchor="middle" dominant-baseline="middle">NC</text>
<line x1="98" y1="30" x2="98" y2="50" stroke="#ffd60a" stroke-width="1.5" stroke-linecap="round"/>
<text x="98" y="25" fill="#ffd60a" font-size="2" font-family="monospace" text-anchor="middle" dominant-baseline="middle">VSS</text>
<line x1="130" y1="30" x2="130" y2="50" stroke="#ffd60a" stroke-width="1.5" stroke-linecap="round"/>
<text x="130" y="25" fill="#ffd60a" font-size="2" font-family="monospace" text-anchor="middle" dominant-baseline="middle">NC</text>
<line x1="162" y1="30" x2="162" y2="50" stroke="#ffd60a" stroke-width="1.5" stroke-linecap="round"/>
<text x="162" y="25" fill="#ffd60a" font-size="2" font-family="monospace" text-anchor="middle" dominant-baseline="middle">NC</text>
<line x1="194" y1="30" x2="194" y2="50" stroke="#ffd60a" stroke-width="1.5" stroke-linecap="round"/>
<text x="194" y="25" fill="#ffd60a" font-size="2" font-family="monospace" text-anchor="middle" dominant-baseline="middle">NC</text>
<line x1="226" y1="30" x2="226" y2="50" stroke="#ffd60a" stroke-width="1.5" stroke-linecap="round"/>
<text x="226" y="25" fill="#ffd60a" font-size="2" font-family="monospace" text-anchor="middle" dominant-baseline="middle">NC</text>
<line x1="258" y1="30" x2="258" y2="50" stroke="#ffd60a" stroke-width="1.5" stroke-linecap="round"/>
<text x="258" y="25" fill="#ffd60a" font-size="2" font-family="monospace" text-anchor="middle" dominant-baseline="middle">NC</text>
<line x1="290" y1="30" x2="290" y2="50" stroke="#ffd60a" stroke-width="1.5" stroke-linecap="round"/>
<text x="290" y="25" fill="#ffd60a" font-size="2" font-family="monospace" text-anchor="middle" dominant-baseline="middle">NC</text>
<line x1="322" y1="30" x2="322" y2="50" stroke="#ffd60a" stroke-width="1.5" stroke-linecap="round"/>
<text x="322" y="25" fill="#ffd60a" font-size="2" font-family="monospace" text-anchor="middle" dominant-baseline="middle">NC</text>
<line x1="354" y1="30" x2="354" y2="50" stroke="#ffd60a" stroke-width="1.5" stroke-linecap="round"/>
<text x="354" y="25" fill="#ffd60a" font-size="2" font-family="monospace" text-anchor="middle" dominant-baseline="middle">VSS</text>
<line x1="60" y1="590" x2="60" y2="570" stroke="#ffd60a" stroke-width="1.5" stroke-linecap="round"/>
<text x="60" y="604" fill="#ffd60a" font-size="2" font-family="monospace" text-anchor="middle" dominant-baseline="middle">VDD</text>
<line x1="80" y1="590" x2="80" y2="570" stroke="#ffd60a" stroke-width="1.5" stroke-linecap="round"/>
<text x="80" y="604" fill="#ffd60a" font-size="2" font-family="monospace" text-anchor="middle" dominant-baseline="middle">VDDIO</text>
<line x1="100" y1="590" x2="100" y2="570" stroke="#ffd60a" stroke-width="1.5" stroke-linecap="round"/>
<text x="100" y="604" fill="#ffd60a" font-size="2" font-family="monospace" text-anchor="middle" dominant-baseline="middle">VDD</text>
<line x1="120" y1="590" x2="120" y2="570" stroke="#ffd60a" stroke-width="1.5" stroke-linecap="round"/>
<text x="120" y="604" fill="#ffd60a" font-size="2" font-family="monospace" text-anchor="middle" dominant-baseline="middle">VDD</text>
<line x1="140" y1="590" x2="140" y2="570" stroke="#ffd60a" stroke-width="1.5" stroke-linecap="round"/>
<text x="140" y="604" fill="#ffd60a" font-size="2" font-family="monospace" text-anchor="middle" dominant-baseline="middle">VAA2_1</text>
<line x1="160" y1="590" x2="160" y2="570" stroke="#ffd60a" stroke-width="1.5" stroke-linecap="round"/>
<text x="160" y="604" fill="#ffd60a" font-size="2" font-family="monospace" text-anchor="middle" dominant-baseline="middle">VAA2_0</text>
<line x1="180" y1="590" x2="180" y2="570" stroke="#ffd60a" stroke-width="1.5" stroke-linecap="round"/>
<text x="180" y="604" fill="#ffd60a" font-size="2" font-family="monospace" text-anchor="middle" dominant-baseline="middle">VAA1</text>
<line x1="200" y1="590" x2="200" y2="570" stroke="#ffd60a" stroke-width="1.5" stroke-linecap="round"/>
<text x="200" y="604" fill="#ffd60a" font-size="2" font-family="monospace" text-anchor="middle" dominant-baseline="middle">AVDDT</text>
<line x1="220" y1="590" x2="220" y2="570" stroke="#ffd60a" stroke-width="1.5" stroke-linecap="round"/>
<text x="220" y="604" fill="#ffd60a" font-size="2" font-family="monospace" text-anchor="middle" dominant-baseline="middle">AVDD</text>
<line x1="240" y1="590" x2="240" y2="570" stroke="#ffd60a" stroke-width="1.5" stroke-linecap="round"/>
<text x="240" y="604" fill="#ffd60a" font-size="2" font-family="monospace" text-anchor="middle" dominant-baseline="middle">VDD</text>
<line x1="260" y1="590" x2="260" y2="570" stroke="#ffd60a" stroke-width="1.5" stroke-linecap="round"/>
<text x="260" y="604" fill="#ffd60a" font-size="2" font-family="monospace" text-anchor="middle" dominant-baseline="middle">VDDIO</text>
<line x1="280" y1="590" x2="280" y2="570" stroke="#ffd60a" stroke-width="1.5" stroke-linecap="round"/>
<text x="280" y="604" fill="#ffd60a" font-size="2" font-family="monospace" text-anchor="middle" dominant-baseline="middle">VDD</text>
<line x1="300" y1="590" x2="300" y2="570" stroke="#ffd60a" stroke-width="1.5" stroke-linecap="round"/>
<text x="300" y="604" fill="#ffd60a" font-size="2" font-family="monospace" text-anchor="middle" dominant-baseline="middle">VDD</text>
<line x1="320" y1="590" x2="320" y2="570" stroke="#ffd60a" stroke-width="1.5" stroke-linecap="round"/>
<text x="320" y="604" fill="#ffd60a" font-size="2" font-family="monospace" text-anchor="middle" dominant-baseline="middle">NC</text>
<line x1="340" y1="590" x2="340" y2="570" stroke="#ffd60a" stroke-width="1.5" stroke-linecap="round"/>
<text x="340" y="604" fill="#ffd60a" font-size="2" font-family="monospace" text-anchor="middle" dominant-baseline="middle">VDDIO</text>
<line x1="360" y1="590" x2="360" y2="570" stroke="#ffd60a" stroke-width="1.5" stroke-linecap="round"/>
<text x="360" y="604" fill="#ffd60a" font-size="2" font-family="monospace" text-anchor="middle" dominant-baseline="middle">NC</text>
</svg>