<svg xmlns="http://www.w3.org/2000/svg" viewBox="0 0 180 360">
<rect x="50" y="50" width="80" height="260" stroke="#ffffff" stroke-width="1.5" fill="rgba(255,255,255,0.04)"/>
<text x="90" y="180" fill="#888" font-size="3" font-family="monospace" text-anchor="middle" dominant-baseline="middle">U</text>
<line x1="30" y1="60" x2="50" y2="60" stroke="#ffd60a" stroke-width="1.5" stroke-linecap="round"/>
<text x="55" y="60" fill="#ffd60a" font-size="2" font-family="monospace" text-anchor="start" dominant-baseline="middle">B</text>
<line x1="30" y1="80" x2="50" y2="80" stroke="#ffd60a" stroke-width="1.5" stroke-linecap="round"/>
<text x="55" y="80" fill="#ffd60a" font-size="2" font-family="monospace" text-anchor="start" dominant-baseline="middle">EU</text>
<line x1="30" y1="100" x2="50" y2="100" stroke="#ffd60a" stroke-width="1.5" stroke-linecap="round"/>
<text x="55" y="100" fill="#ffd60a" font-size="2" font-family="monospace" text-anchor="start" dominant-baseline="middle">EV</text>
<line x1="30" y1="120" x2="50" y2="120" stroke="#ffd60a" stroke-width="1.5" stroke-linecap="round"/>
<text x="55" y="120" fill="#ffd60a" font-size="2" font-family="monospace" text-anchor="start" dominant-baseline="middle">EW</text>
<line x1="30" y1="140" x2="50" y2="140" stroke="#ffd60a" stroke-width="1.5" stroke-linecap="round"/>
<text x="55" y="140" fill="#ffd60a" font-size="2" font-family="monospace" text-anchor="start" dominant-baseline="middle">N</text>
<line x1="30" y1="160" x2="50" y2="160" stroke="#ffd60a" stroke-width="1.5" stroke-linecap="round"/>
<text x="55" y="160" fill="#ffd60a" font-size="2" font-family="monospace" text-anchor="start" dominant-baseline="middle">NB</text>
<line x1="30" y1="180" x2="50" y2="180" stroke="#ffd60a" stroke-width="1.5" stroke-linecap="round"/>
<text x="55" y="180" fill="#ffd60a" font-size="2" font-family="monospace" text-anchor="start" dominant-baseline="middle">P</text>
<line x1="30" y1="200" x2="50" y2="200" stroke="#ffd60a" stroke-width="1.5" stroke-linecap="round"/>
<text x="55" y="200" fill="#ffd60a" font-size="2" font-family="monospace" text-anchor="start" dominant-baseline="middle">P1</text>
<line x1="30" y1="220" x2="50" y2="220" stroke="#ffd60a" stroke-width="1.5" stroke-linecap="round"/>
<text x="55" y="220" fill="#ffd60a" font-size="2" font-family="monospace" text-anchor="start" dominant-baseline="middle">T1</text>
<line x1="30" y1="240" x2="50" y2="240" stroke="#ffd60a" stroke-width="1.5" stroke-linecap="round"/>
<text x="55" y="240" fill="#ffd60a" font-size="2" font-family="monospace" text-anchor="start" dominant-baseline="middle">T2</text>
<line x1="30" y1="260" x2="50" y2="260" stroke="#ffd60a" stroke-width="1.5" stroke-linecap="round"/>
<text x="55" y="260" fill="#ffd60a" font-size="2" font-family="monospace" text-anchor="start" dominant-baseline="middle">U</text>
<line x1="30" y1="280" x2="50" y2="280" stroke="#ffd60a" stroke-width="1.5" stroke-linecap="round"/>
<text x="55" y="280" fill="#ffd60a" font-size="2" font-family="monospace" text-anchor="start" dominant-baseline="middle">V</text>
<line x1="30" y1="300" x2="50" y2="300" stroke="#ffd60a" stroke-width="1.5" stroke-linecap="round"/>
<text x="55" y="300" fill="#ffd60a" font-size="2" font-family="monospace" text-anchor="start" dominant-baseline="middle">W</text>
<line x1="150" y1="63" x2="130" y2="63" stroke="#ffd60a" stroke-width="1.5" stroke-linecap="round"/>
<text x="125" y="63" fill="#ffd60a" font-size="2" font-family="monospace" text-anchor="end" dominant-baseline="middle">G1</text>
<line x1="150" y1="89" x2="130" y2="89" stroke="#ffd60a" stroke-width="1.5" stroke-linecap="round"/>
<text x="125" y="89" fill="#ffd60a" font-size="2" font-family="monospace" text-anchor="end" dominant-baseline="middle">G2</text>
<line x1="150" y1="115" x2="130" y2="115" stroke="#ffd60a" stroke-width="1.5" stroke-linecap="round"/>
<text x="125" y="115" fill="#ffd60a" font-size="2" font-family="monospace" text-anchor="end" dominant-baseline="middle">G3</text>
<line x1="150" y1="141" x2="130" y2="141" stroke="#ffd60a" stroke-width="1.5" stroke-linecap="round"/>
<text x="125" y="141" fill="#ffd60a" font-size="2" font-family="monospace" text-anchor="end" dominant-baseline="middle">G4</text>
<line x1="150" y1="167" x2="130" y2="167" stroke="#ffd60a" stroke-width="1.5" stroke-linecap="round"/>
<text x="125" y="167" fill="#ffd60a" font-size="2" font-family="monospace" text-anchor="end" dominant-baseline="middle">G5</text>
<line x1="150" y1="193" x2="130" y2="193" stroke="#ffd60a" stroke-width="1.5" stroke-linecap="round"/>
<text x="125" y="193" fill="#ffd60a" font-size="2" font-family="monospace" text-anchor="end" dominant-baseline="middle">G6</text>
<line x1="150" y1="219" x2="130" y2="219" stroke="#ffd60a" stroke-width="1.5" stroke-linecap="round"/>
<text x="125" y="219" fill="#ffd60a" font-size="2" font-family="monospace" text-anchor="end" dominant-baseline="middle">GB</text>
<line x1="150" y1="245" x2="130" y2="245" stroke="#ffd60a" stroke-width="1.5" stroke-linecap="round"/>
<text x="125" y="245" fill="#ffd60a" font-size="2" font-family="monospace" text-anchor="end" dominant-baseline="middle">L1</text>
<line x1="150" y1="271" x2="130" y2="271" stroke="#ffd60a" stroke-width="1.5" stroke-linecap="round"/>
<text x="125" y="271" fill="#ffd60a" font-size="2" font-family="monospace" text-anchor="end" dominant-baseline="middle">L2</text>
<line x1="150" y1="297" x2="130" y2="297" stroke="#ffd60a" stroke-width="1.5" stroke-linecap="round"/>
<text x="125" y="297" fill="#ffd60a" font-size="2" font-family="monospace" text-anchor="end" dominant-baseline="middle">L3</text>
</svg>