<svg xmlns="http://www.w3.org/2000/svg" viewBox="0 0 22.43 29.240000000000002">
<rect x="4" y="22.240000000000002" width="11.43" height="15.24" stroke="#ffffff" stroke-width="0.3" fill="rgba(255,255,255,0.06)"/>
<line x1="5.651" y1="14.239" x2="5.396999999999999" y2="14.493" stroke="#ffffff" stroke-width="0.3" stroke-linecap="round" fill="none"/>
<line x1="5.651" y1="14.239" x2="5.904999999999999" y2="14.493" stroke="#ffffff" stroke-width="0.3" stroke-linecap="round" fill="none"/>
<polyline points="6.8956,13.7818 7.479799999999999,14.366000000000001 7.7338,14.112000000000002 7.1495999999999995,13.527800000000001 6.8956,13.7818" stroke="#ffffff" stroke-width="0.3" stroke-linejoin="round" stroke-linecap="round" fill="#ffffff"/>
<path d="M 9.715 14.239 A 2.032 2.032 0 0 1 5.651 14.239" stroke="#ffffff" stroke-width="0.3" fill="none"/>
<line x1="9.715" y1="14.239" x2="9.461" y2="14.493" stroke="#ffffff" stroke-width="0.3" stroke-linecap="round" fill="none"/>
<line x1="9.715" y1="14.239" x2="9.969" y2="14.493" stroke="#ffffff" stroke-width="0.3" stroke-linecap="round" fill="none"/>
<circle cx="7.683" cy="14.239" r="1.524" stroke="#ffffff" stroke-width="0.3" fill="none"/>
<polyline points="7.7338,14.112000000000002 8.419599999999999,14.7978 8.1656,15.051800000000002 7.479799999999999,14.366000000000001" stroke="#ffffff" stroke-width="0.3" stroke-linejoin="round" stroke-linecap="round" fill="none"/>
<line x1="7.81" y1="4.460000000000001" x2="7.809999999999999" y2="7.000000000000001" stroke="#ffd60a" stroke-width="0.41771428571428576" stroke-linecap="round"/>
<text x="7.81" y="4" fill="#ffd60a" font-size="1" font-family="monospace" text-anchor="middle" dominant-baseline="middle">V_{CC}</text>
<line x1="7.81" y1="24.78" x2="7.81" y2="22.240000000000002" stroke="#ffd60a" stroke-width="0.41771428571428576" stroke-linecap="round"/>
<text x="7.81" y="25.240000000000002" fill="#ffd60a" font-size="1" font-family="monospace" text-anchor="middle" dominant-baseline="middle">GND</text>
<line x1="17.97" y1="14.620000000000001" x2="15.43" y2="14.620000000000001" stroke="#ffd60a" stroke-width="0.41771428571428576" stroke-linecap="round"/>
<text x="18.43" y="14.620000000000001" fill="#ffd60a" font-size="1" font-family="monospace" text-anchor="end" dominant-baseline="middle">V_{OUT}</text>
</svg>