<svg xmlns="http://www.w3.org/2000/svg" viewBox="0 0 200 680">
<rect x="50" y="50" width="100" height="580" stroke="#ffffff" stroke-width="1.5" fill="rgba(255,255,255,0.04)"/>
<text x="100" y="340" fill="#888" font-size="3" font-family="monospace" text-anchor="middle" dominant-baseline="middle">U</text>
<line x1="30" y1="60" x2="50" y2="60" stroke="#ffd60a" stroke-width="1.5" stroke-linecap="round"/>
<text x="55" y="60" fill="#ffd60a" font-size="2" font-family="monospace" text-anchor="start" dominant-baseline="middle">IO10</text>
<line x1="30" y1="80" x2="50" y2="80" stroke="#ffd60a" stroke-width="1.5" stroke-linecap="round"/>
<text x="55" y="80" fill="#ffd60a" font-size="2" font-family="monospace" text-anchor="start" dominant-baseline="middle">IO11</text>
<line x1="30" y1="100" x2="50" y2="100" stroke="#ffd60a" stroke-width="1.5" stroke-linecap="round"/>
<text x="55" y="100" fill="#ffd60a" font-size="2" font-family="monospace" text-anchor="start" dominant-baseline="middle">IO12</text>
<line x1="30" y1="120" x2="50" y2="120" stroke="#ffd60a" stroke-width="1.5" stroke-linecap="round"/>
<text x="55" y="120" fill="#ffd60a" font-size="2" font-family="monospace" text-anchor="start" dominant-baseline="middle">IO13</text>
<line x1="30" y1="140" x2="50" y2="140" stroke="#ffd60a" stroke-width="1.5" stroke-linecap="round"/>
<text x="55" y="140" fill="#ffd60a" font-size="2" font-family="monospace" text-anchor="start" dominant-baseline="middle">IO16</text>
<line x1="30" y1="160" x2="50" y2="160" stroke="#ffd60a" stroke-width="1.5" stroke-linecap="round"/>
<text x="55" y="160" fill="#ffd60a" font-size="2" font-family="monospace" text-anchor="start" dominant-baseline="middle">IO17</text>
<line x1="30" y1="180" x2="50" y2="180" stroke="#ffd60a" stroke-width="1.5" stroke-linecap="round"/>
<text x="55" y="180" fill="#ffd60a" font-size="2" font-family="monospace" text-anchor="start" dominant-baseline="middle">IO18</text>
<line x1="30" y1="200" x2="50" y2="200" stroke="#ffd60a" stroke-width="1.5" stroke-linecap="round"/>
<text x="55" y="200" fill="#ffd60a" font-size="2" font-family="monospace" text-anchor="start" dominant-baseline="middle">IO19</text>
<line x1="30" y1="219.99999999999997" x2="50" y2="219.99999999999997" stroke="#ffd60a" stroke-width="1.5" stroke-linecap="round"/>
<text x="55" y="219.99999999999997" fill="#ffd60a" font-size="2" font-family="monospace" text-anchor="start" dominant-baseline="middle">IO20</text>
<line x1="30" y1="240" x2="50" y2="240" stroke="#ffd60a" stroke-width="1.5" stroke-linecap="round"/>
<text x="55" y="240" fill="#ffd60a" font-size="2" font-family="monospace" text-anchor="start" dominant-baseline="middle">IO22</text>
<line x1="30" y1="260" x2="50" y2="260" stroke="#ffd60a" stroke-width="1.5" stroke-linecap="round"/>
<text x="55" y="260" fill="#ffd60a" font-size="2" font-family="monospace" text-anchor="start" dominant-baseline="middle">IO23</text>
<line x1="30" y1="280" x2="50" y2="280" stroke="#ffd60a" stroke-width="1.5" stroke-linecap="round"/>
<text x="55" y="280" fill="#ffd60a" font-size="2" font-family="monospace" text-anchor="start" dominant-baseline="middle">IO24</text>
<line x1="30" y1="300" x2="50" y2="300" stroke="#ffd60a" stroke-width="1.5" stroke-linecap="round"/>
<text x="55" y="300" fill="#ffd60a" font-size="2" font-family="monospace" text-anchor="start" dominant-baseline="middle">IO26</text>
<line x1="30" y1="320" x2="50" y2="320" stroke="#ffd60a" stroke-width="1.5" stroke-linecap="round"/>
<text x="55" y="320" fill="#ffd60a" font-size="2" font-family="monospace" text-anchor="start" dominant-baseline="middle">IO27</text>
<line x1="30" y1="340" x2="50" y2="340" stroke="#ffd60a" stroke-width="1.5" stroke-linecap="round"/>
<text x="55" y="340" fill="#ffd60a" font-size="2" font-family="monospace" text-anchor="start" dominant-baseline="middle">IO28</text>
<line x1="30" y1="360" x2="50" y2="360" stroke="#ffd60a" stroke-width="1.5" stroke-linecap="round"/>
<text x="55" y="360" fill="#ffd60a" font-size="2" font-family="monospace" text-anchor="start" dominant-baseline="middle">IO29</text>
<line x1="30" y1="380" x2="50" y2="380" stroke="#ffd60a" stroke-width="1.5" stroke-linecap="round"/>
<text x="55" y="380" fill="#ffd60a" font-size="2" font-family="monospace" text-anchor="start" dominant-baseline="middle">IO30</text>
<line x1="30" y1="400" x2="50" y2="400" stroke="#ffd60a" stroke-width="1.5" stroke-linecap="round"/>
<text x="55" y="400" fill="#ffd60a" font-size="2" font-family="monospace" text-anchor="start" dominant-baseline="middle">IO31</text>
<line x1="30" y1="420.00000000000006" x2="50" y2="420.00000000000006" stroke="#ffd60a" stroke-width="1.5" stroke-linecap="round"/>
<text x="55" y="420.00000000000006" fill="#ffd60a" font-size="2" font-family="monospace" text-anchor="start" dominant-baseline="middle">IO33</text>
<line x1="30" y1="440" x2="50" y2="440" stroke="#ffd60a" stroke-width="1.5" stroke-linecap="round"/>
<text x="55" y="440" fill="#ffd60a" font-size="2" font-family="monospace" text-anchor="start" dominant-baseline="middle">IO34</text>
<line x1="30" y1="460" x2="50" y2="460" stroke="#ffd60a" stroke-width="1.5" stroke-linecap="round"/>
<text x="55" y="460" fill="#ffd60a" font-size="2" font-family="monospace" text-anchor="start" dominant-baseline="middle">IO35</text>
<line x1="30" y1="480" x2="50" y2="480" stroke="#ffd60a" stroke-width="1.5" stroke-linecap="round"/>
<text x="55" y="480" fill="#ffd60a" font-size="2" font-family="monospace" text-anchor="start" dominant-baseline="middle">IO36</text>
<line x1="30" y1="500" x2="50" y2="500" stroke="#ffd60a" stroke-width="1.5" stroke-linecap="round"/>
<text x="55" y="500" fill="#ffd60a" font-size="2" font-family="monospace" text-anchor="start" dominant-baseline="middle">IO37</text>
<line x1="30" y1="520" x2="50" y2="520" stroke="#ffd60a" stroke-width="1.5" stroke-linecap="round"/>
<text x="55" y="520" fill="#ffd60a" font-size="2" font-family="monospace" text-anchor="start" dominant-baseline="middle">IO39</text>
<line x1="30" y1="540" x2="50" y2="540" stroke="#ffd60a" stroke-width="1.5" stroke-linecap="round"/>
<text x="55" y="540" fill="#ffd60a" font-size="2" font-family="monospace" text-anchor="start" dominant-baseline="middle">IO40</text>
<line x1="30" y1="560" x2="50" y2="560" stroke="#ffd60a" stroke-width="1.5" stroke-linecap="round"/>
<text x="55" y="560" fill="#ffd60a" font-size="2" font-family="monospace" text-anchor="start" dominant-baseline="middle">IO41</text>
<line x1="30" y1="580" x2="50" y2="580" stroke="#ffd60a" stroke-width="1.5" stroke-linecap="round"/>
<text x="55" y="580" fill="#ffd60a" font-size="2" font-family="monospace" text-anchor="start" dominant-baseline="middle">IO42</text>
<line x1="30" y1="600" x2="50" y2="600" stroke="#ffd60a" stroke-width="1.5" stroke-linecap="round"/>
<text x="55" y="600" fill="#ffd60a" font-size="2" font-family="monospace" text-anchor="start" dominant-baseline="middle">IO43</text>
<line x1="30" y1="620" x2="50" y2="620" stroke="#ffd60a" stroke-width="1.5" stroke-linecap="round"/>
<text x="55" y="620" fill="#ffd60a" font-size="2" font-family="monospace" text-anchor="start" dominant-baseline="middle">CLK</text>
<line x1="170" y1="60" x2="150" y2="60" stroke="#ffd60a" stroke-width="1.5" stroke-linecap="round"/>
<text x="145" y="60" fill="#ffd60a" font-size="2" font-family="monospace" text-anchor="end" dominant-baseline="middle">IO1</text>
<line x1="170" y1="80" x2="150" y2="80" stroke="#ffd60a" stroke-width="1.5" stroke-linecap="round"/>
<text x="145" y="80" fill="#ffd60a" font-size="2" font-family="monospace" text-anchor="end" dominant-baseline="middle">IO2</text>
<line x1="170" y1="100" x2="150" y2="100" stroke="#ffd60a" stroke-width="1.5" stroke-linecap="round"/>
<text x="145" y="100" fill="#ffd60a" font-size="2" font-family="monospace" text-anchor="end" dominant-baseline="middle">IO3</text>
<line x1="170" y1="120" x2="150" y2="120" stroke="#ffd60a" stroke-width="1.5" stroke-linecap="round"/>
<text x="145" y="120" fill="#ffd60a" font-size="2" font-family="monospace" text-anchor="end" dominant-baseline="middle">IO5</text>
<line x1="170" y1="140" x2="150" y2="140" stroke="#ffd60a" stroke-width="1.5" stroke-linecap="round"/>
<text x="145" y="140" fill="#ffd60a" font-size="2" font-family="monospace" text-anchor="end" dominant-baseline="middle">IO6</text>
<line x1="170" y1="160" x2="150" y2="160" stroke="#ffd60a" stroke-width="1.5" stroke-linecap="round"/>
<text x="145" y="160" fill="#ffd60a" font-size="2" font-family="monospace" text-anchor="end" dominant-baseline="middle">IO7</text>
<line x1="170" y1="180" x2="150" y2="180" stroke="#ffd60a" stroke-width="1.5" stroke-linecap="round"/>
<text x="145" y="180" fill="#ffd60a" font-size="2" font-family="monospace" text-anchor="end" dominant-baseline="middle">IO8</text>
<line x1="170" y1="200" x2="150" y2="200" stroke="#ffd60a" stroke-width="1.5" stroke-linecap="round"/>
<text x="145" y="200" fill="#ffd60a" font-size="2" font-family="monospace" text-anchor="end" dominant-baseline="middle">IO9</text>
<line x1="170" y1="219.99999999999997" x2="150" y2="219.99999999999997" stroke="#ffd60a" stroke-width="1.5" stroke-linecap="round"/>
<text x="145" y="219.99999999999997" fill="#ffd60a" font-size="2" font-family="monospace" text-anchor="end" dominant-baseline="middle">IO44</text>
<line x1="170" y1="240" x2="150" y2="240" stroke="#ffd60a" stroke-width="1.5" stroke-linecap="round"/>
<text x="145" y="240" fill="#ffd60a" font-size="2" font-family="monospace" text-anchor="end" dominant-baseline="middle">IO45</text>
<line x1="170" y1="260" x2="150" y2="260" stroke="#ffd60a" stroke-width="1.5" stroke-linecap="round"/>
<text x="145" y="260" fill="#ffd60a" font-size="2" font-family="monospace" text-anchor="end" dominant-baseline="middle">IO46</text>
<line x1="170" y1="280" x2="150" y2="280" stroke="#ffd60a" stroke-width="1.5" stroke-linecap="round"/>
<text x="145" y="280" fill="#ffd60a" font-size="2" font-family="monospace" text-anchor="end" dominant-baseline="middle">IO47</text>
<line x1="170" y1="300" x2="150" y2="300" stroke="#ffd60a" stroke-width="1.5" stroke-linecap="round"/>
<text x="145" y="300" fill="#ffd60a" font-size="2" font-family="monospace" text-anchor="end" dominant-baseline="middle">IO48</text>
<line x1="170" y1="320" x2="150" y2="320" stroke="#ffd60a" stroke-width="1.5" stroke-linecap="round"/>
<text x="145" y="320" fill="#ffd60a" font-size="2" font-family="monospace" text-anchor="end" dominant-baseline="middle">IO50</text>
<line x1="170" y1="340" x2="150" y2="340" stroke="#ffd60a" stroke-width="1.5" stroke-linecap="round"/>
<text x="145" y="340" fill="#ffd60a" font-size="2" font-family="monospace" text-anchor="end" dominant-baseline="middle">IO51</text>
<line x1="170" y1="360" x2="150" y2="360" stroke="#ffd60a" stroke-width="1.5" stroke-linecap="round"/>
<text x="145" y="360" fill="#ffd60a" font-size="2" font-family="monospace" text-anchor="end" dominant-baseline="middle">IO53</text>
<line x1="170" y1="380" x2="150" y2="380" stroke="#ffd60a" stroke-width="1.5" stroke-linecap="round"/>
<text x="145" y="380" fill="#ffd60a" font-size="2" font-family="monospace" text-anchor="end" dominant-baseline="middle">MODE</text>
<line x1="170" y1="400" x2="150" y2="400" stroke="#ffd60a" stroke-width="1.5" stroke-linecap="round"/>
<text x="145" y="400" fill="#ffd60a" font-size="2" font-family="monospace" text-anchor="end" dominant-baseline="middle">SDI</text>
<line x1="170" y1="420.00000000000006" x2="150" y2="420.00000000000006" stroke="#ffd60a" stroke-width="1.5" stroke-linecap="round"/>
<text x="145" y="420.00000000000006" fill="#ffd60a" font-size="2" font-family="monospace" text-anchor="end" dominant-baseline="middle">DCLK</text>
<line x1="170" y1="440" x2="150" y2="440" stroke="#ffd60a" stroke-width="1.5" stroke-linecap="round"/>
<text x="145" y="440" fill="#ffd60a" font-size="2" font-family="monospace" text-anchor="end" dominant-baseline="middle">PRA</text>
<line x1="170" y1="460" x2="150" y2="460" stroke="#ffd60a" stroke-width="1.5" stroke-linecap="round"/>
<text x="145" y="460" fill="#ffd60a" font-size="2" font-family="monospace" text-anchor="end" dominant-baseline="middle">PRB</text>
<line x1="170" y1="480" x2="150" y2="480" stroke="#ffd60a" stroke-width="1.5" stroke-linecap="round"/>
<text x="145" y="480" fill="#ffd60a" font-size="2" font-family="monospace" text-anchor="end" dominant-baseline="middle">IO60</text>
<line x1="170" y1="500" x2="150" y2="500" stroke="#ffd60a" stroke-width="1.5" stroke-linecap="round"/>
<text x="145" y="500" fill="#ffd60a" font-size="2" font-family="monospace" text-anchor="end" dominant-baseline="middle">IO61</text>
<line x1="170" y1="520" x2="150" y2="520" stroke="#ffd60a" stroke-width="1.5" stroke-linecap="round"/>
<text x="145" y="520" fill="#ffd60a" font-size="2" font-family="monospace" text-anchor="end" dominant-baseline="middle">IO62</text>
<line x1="170" y1="540" x2="150" y2="540" stroke="#ffd60a" stroke-width="1.5" stroke-linecap="round"/>
<text x="145" y="540" fill="#ffd60a" font-size="2" font-family="monospace" text-anchor="end" dominant-baseline="middle">IO63</text>
<line x1="170" y1="560" x2="150" y2="560" stroke="#ffd60a" stroke-width="1.5" stroke-linecap="round"/>
<text x="145" y="560" fill="#ffd60a" font-size="2" font-family="monospace" text-anchor="end" dominant-baseline="middle">IO64</text>
<line x1="170" y1="580" x2="150" y2="580" stroke="#ffd60a" stroke-width="1.5" stroke-linecap="round"/>
<text x="145" y="580" fill="#ffd60a" font-size="2" font-family="monospace" text-anchor="end" dominant-baseline="middle">IO65</text>
<line x1="170" y1="600" x2="150" y2="600" stroke="#ffd60a" stroke-width="1.5" stroke-linecap="round"/>
<text x="145" y="600" fill="#ffd60a" font-size="2" font-family="monospace" text-anchor="end" dominant-baseline="middle">IO67</text>
<line x1="170" y1="620" x2="150" y2="620" stroke="#ffd60a" stroke-width="1.5" stroke-linecap="round"/>
<text x="145" y="620" fill="#ffd60a" font-size="2" font-family="monospace" text-anchor="end" dominant-baseline="middle">IO68</text>
<line x1="60" y1="30" x2="60" y2="50" stroke="#ffd60a" stroke-width="1.5" stroke-linecap="round"/>
<text x="60" y="25" fill="#ffd60a" font-size="2" font-family="monospace" text-anchor="middle" dominant-baseline="middle">GND</text>
<line x1="80" y1="30" x2="80" y2="50" stroke="#ffd60a" stroke-width="1.5" stroke-linecap="round"/>
<text x="80" y="25" fill="#ffd60a" font-size="2" font-family="monospace" text-anchor="middle" dominant-baseline="middle">GND</text>
<line x1="100" y1="30" x2="100" y2="50" stroke="#ffd60a" stroke-width="1.5" stroke-linecap="round"/>
<text x="100" y="25" fill="#ffd60a" font-size="2" font-family="monospace" text-anchor="middle" dominant-baseline="middle">GND</text>
<line x1="120" y1="30" x2="120" y2="50" stroke="#ffd60a" stroke-width="1.5" stroke-linecap="round"/>
<text x="120" y="25" fill="#ffd60a" font-size="2" font-family="monospace" text-anchor="middle" dominant-baseline="middle">GND</text>
<line x1="140" y1="30" x2="140" y2="50" stroke="#ffd60a" stroke-width="1.5" stroke-linecap="round"/>
<text x="140" y="25" fill="#ffd60a" font-size="2" font-family="monospace" text-anchor="middle" dominant-baseline="middle">GND</text>
<line x1="60" y1="650" x2="60" y2="630" stroke="#ffd60a" stroke-width="1.5" stroke-linecap="round"/>
<text x="60" y="664" fill="#ffd60a" font-size="2" font-family="monospace" text-anchor="middle" dominant-baseline="middle">VCC</text>
<line x1="80" y1="650" x2="80" y2="630" stroke="#ffd60a" stroke-width="1.5" stroke-linecap="round"/>
<text x="80" y="664" fill="#ffd60a" font-size="2" font-family="monospace" text-anchor="middle" dominant-baseline="middle">VCC</text>
<line x1="100" y1="650" x2="100" y2="630" stroke="#ffd60a" stroke-width="1.5" stroke-linecap="round"/>
<text x="100" y="664" fill="#ffd60a" font-size="2" font-family="monospace" text-anchor="middle" dominant-baseline="middle">VCC</text>
<line x1="120" y1="650" x2="120" y2="630" stroke="#ffd60a" stroke-width="1.5" stroke-linecap="round"/>
<text x="120" y="664" fill="#ffd60a" font-size="2" font-family="monospace" text-anchor="middle" dominant-baseline="middle">VCC</text>
<line x1="140" y1="650" x2="140" y2="630" stroke="#ffd60a" stroke-width="1.5" stroke-linecap="round"/>
<text x="140" y="664" fill="#ffd60a" font-size="2" font-family="monospace" text-anchor="middle" dominant-baseline="middle">VCC</text>
</svg>