<svg xmlns="http://www.w3.org/2000/svg" viewBox="0 0 200 520">
<rect x="50" y="50" width="100" height="420" stroke="#ffffff" stroke-width="1.5" fill="rgba(255,255,255,0.04)"/>
<text x="100" y="260" fill="#888" font-size="3" font-family="monospace" text-anchor="middle" dominant-baseline="middle">U</text>
<line x1="30" y1="65" x2="50" y2="65" stroke="#ffd60a" stroke-width="1.5" stroke-linecap="round"/>
<text x="55" y="65" fill="#ffd60a" font-size="2" font-family="monospace" text-anchor="start" dominant-baseline="middle">IO17</text>
<line x1="30" y1="95" x2="50" y2="95" stroke="#ffd60a" stroke-width="1.5" stroke-linecap="round"/>
<text x="55" y="95" fill="#ffd60a" font-size="2" font-family="monospace" text-anchor="start" dominant-baseline="middle">IO18</text>
<line x1="30" y1="125" x2="50" y2="125" stroke="#ffd60a" stroke-width="1.5" stroke-linecap="round"/>
<text x="55" y="125" fill="#ffd60a" font-size="2" font-family="monospace" text-anchor="start" dominant-baseline="middle">IO19</text>
<line x1="30" y1="155" x2="50" y2="155" stroke="#ffd60a" stroke-width="1.5" stroke-linecap="round"/>
<text x="55" y="155" fill="#ffd60a" font-size="2" font-family="monospace" text-anchor="start" dominant-baseline="middle">IO20</text>
<line x1="30" y1="185" x2="50" y2="185" stroke="#ffd60a" stroke-width="1.5" stroke-linecap="round"/>
<text x="55" y="185" fill="#ffd60a" font-size="2" font-family="monospace" text-anchor="start" dominant-baseline="middle">IO22</text>
<line x1="30" y1="215" x2="50" y2="215" stroke="#ffd60a" stroke-width="1.5" stroke-linecap="round"/>
<text x="55" y="215" fill="#ffd60a" font-size="2" font-family="monospace" text-anchor="start" dominant-baseline="middle">IO23</text>
<line x1="30" y1="245" x2="50" y2="245" stroke="#ffd60a" stroke-width="1.5" stroke-linecap="round"/>
<text x="55" y="245" fill="#ffd60a" font-size="2" font-family="monospace" text-anchor="start" dominant-baseline="middle">IO24</text>
<line x1="30" y1="275" x2="50" y2="275" stroke="#ffd60a" stroke-width="1.5" stroke-linecap="round"/>
<text x="55" y="275" fill="#ffd60a" font-size="2" font-family="monospace" text-anchor="start" dominant-baseline="middle">IO26</text>
<line x1="30" y1="305" x2="50" y2="305" stroke="#ffd60a" stroke-width="1.5" stroke-linecap="round"/>
<text x="55" y="305" fill="#ffd60a" font-size="2" font-family="monospace" text-anchor="start" dominant-baseline="middle">IO27</text>
<line x1="30" y1="335" x2="50" y2="335" stroke="#ffd60a" stroke-width="1.5" stroke-linecap="round"/>
<text x="55" y="335" fill="#ffd60a" font-size="2" font-family="monospace" text-anchor="start" dominant-baseline="middle">IO28</text>
<line x1="30" y1="365" x2="50" y2="365" stroke="#ffd60a" stroke-width="1.5" stroke-linecap="round"/>
<text x="55" y="365" fill="#ffd60a" font-size="2" font-family="monospace" text-anchor="start" dominant-baseline="middle">IO29</text>
<line x1="30" y1="395" x2="50" y2="395" stroke="#ffd60a" stroke-width="1.5" stroke-linecap="round"/>
<text x="55" y="395" fill="#ffd60a" font-size="2" font-family="monospace" text-anchor="start" dominant-baseline="middle">IO30</text>
<line x1="30" y1="425" x2="50" y2="425" stroke="#ffd60a" stroke-width="1.5" stroke-linecap="round"/>
<text x="55" y="425" fill="#ffd60a" font-size="2" font-family="monospace" text-anchor="start" dominant-baseline="middle">IO31</text>
<line x1="30" y1="455" x2="50" y2="455" stroke="#ffd60a" stroke-width="1.5" stroke-linecap="round"/>
<text x="55" y="455" fill="#ffd60a" font-size="2" font-family="monospace" text-anchor="start" dominant-baseline="middle">IO-CLK</text>
<line x1="170" y1="60" x2="150" y2="60" stroke="#ffd60a" stroke-width="1.5" stroke-linecap="round"/>
<text x="145" y="60" fill="#ffd60a" font-size="2" font-family="monospace" text-anchor="end" dominant-baseline="middle">IO1</text>
<line x1="170" y1="80" x2="150" y2="80" stroke="#ffd60a" stroke-width="1.5" stroke-linecap="round"/>
<text x="145" y="80" fill="#ffd60a" font-size="2" font-family="monospace" text-anchor="end" dominant-baseline="middle">IO2</text>
<line x1="170" y1="100" x2="150" y2="100" stroke="#ffd60a" stroke-width="1.5" stroke-linecap="round"/>
<text x="145" y="100" fill="#ffd60a" font-size="2" font-family="monospace" text-anchor="end" dominant-baseline="middle">IO4</text>
<line x1="170" y1="120" x2="150" y2="120" stroke="#ffd60a" stroke-width="1.5" stroke-linecap="round"/>
<text x="145" y="120" fill="#ffd60a" font-size="2" font-family="monospace" text-anchor="end" dominant-baseline="middle">IO5</text>
<line x1="170" y1="140" x2="150" y2="140" stroke="#ffd60a" stroke-width="1.5" stroke-linecap="round"/>
<text x="145" y="140" fill="#ffd60a" font-size="2" font-family="monospace" text-anchor="end" dominant-baseline="middle">IO6</text>
<line x1="170" y1="160" x2="150" y2="160" stroke="#ffd60a" stroke-width="1.5" stroke-linecap="round"/>
<text x="145" y="160" fill="#ffd60a" font-size="2" font-family="monospace" text-anchor="end" dominant-baseline="middle">IO7</text>
<line x1="170" y1="180" x2="150" y2="180" stroke="#ffd60a" stroke-width="1.5" stroke-linecap="round"/>
<text x="145" y="180" fill="#ffd60a" font-size="2" font-family="monospace" text-anchor="end" dominant-baseline="middle">IO8</text>
<line x1="170" y1="200" x2="150" y2="200" stroke="#ffd60a" stroke-width="1.5" stroke-linecap="round"/>
<text x="145" y="200" fill="#ffd60a" font-size="2" font-family="monospace" text-anchor="end" dominant-baseline="middle">IO9</text>
<line x1="170" y1="220" x2="150" y2="220" stroke="#ffd60a" stroke-width="1.5" stroke-linecap="round"/>
<text x="145" y="220" fill="#ffd60a" font-size="2" font-family="monospace" text-anchor="end" dominant-baseline="middle">IO11</text>
<line x1="170" y1="240" x2="150" y2="240" stroke="#ffd60a" stroke-width="1.5" stroke-linecap="round"/>
<text x="145" y="240" fill="#ffd60a" font-size="2" font-family="monospace" text-anchor="end" dominant-baseline="middle">IO12</text>
<line x1="170" y1="260" x2="150" y2="260" stroke="#ffd60a" stroke-width="1.5" stroke-linecap="round"/>
<text x="145" y="260" fill="#ffd60a" font-size="2" font-family="monospace" text-anchor="end" dominant-baseline="middle">IO13</text>
<line x1="170" y1="280" x2="150" y2="280" stroke="#ffd60a" stroke-width="1.5" stroke-linecap="round"/>
<text x="145" y="280" fill="#ffd60a" font-size="2" font-family="monospace" text-anchor="end" dominant-baseline="middle">IO15</text>
<line x1="170" y1="300" x2="150" y2="300" stroke="#ffd60a" stroke-width="1.5" stroke-linecap="round"/>
<text x="145" y="300" fill="#ffd60a" font-size="2" font-family="monospace" text-anchor="end" dominant-baseline="middle">MODE</text>
<line x1="170" y1="320" x2="150" y2="320" stroke="#ffd60a" stroke-width="1.5" stroke-linecap="round"/>
<text x="145" y="320" fill="#ffd60a" font-size="2" font-family="monospace" text-anchor="end" dominant-baseline="middle">SDI-IO36</text>
<line x1="170" y1="340" x2="150" y2="340" stroke="#ffd60a" stroke-width="1.5" stroke-linecap="round"/>
<text x="145" y="340" fill="#ffd60a" font-size="2" font-family="monospace" text-anchor="end" dominant-baseline="middle">DCLK-IO37</text>
<line x1="170" y1="360" x2="150" y2="360" stroke="#ffd60a" stroke-width="1.5" stroke-linecap="round"/>
<text x="145" y="360" fill="#ffd60a" font-size="2" font-family="monospace" text-anchor="end" dominant-baseline="middle">PRA-IO38</text>
<line x1="170" y1="380" x2="150" y2="380" stroke="#ffd60a" stroke-width="1.5" stroke-linecap="round"/>
<text x="145" y="380" fill="#ffd60a" font-size="2" font-family="monospace" text-anchor="end" dominant-baseline="middle">PRB-IO39</text>
<line x1="170" y1="400" x2="150" y2="400" stroke="#ffd60a" stroke-width="1.5" stroke-linecap="round"/>
<text x="145" y="400" fill="#ffd60a" font-size="2" font-family="monospace" text-anchor="end" dominant-baseline="middle">IO40</text>
<line x1="170" y1="420" x2="150" y2="420" stroke="#ffd60a" stroke-width="1.5" stroke-linecap="round"/>
<text x="145" y="420" fill="#ffd60a" font-size="2" font-family="monospace" text-anchor="end" dominant-baseline="middle">IO41</text>
<line x1="170" y1="440" x2="150" y2="440" stroke="#ffd60a" stroke-width="1.5" stroke-linecap="round"/>
<text x="145" y="440" fill="#ffd60a" font-size="2" font-family="monospace" text-anchor="end" dominant-baseline="middle">IO42</text>
<line x1="170" y1="460" x2="150" y2="460" stroke="#ffd60a" stroke-width="1.5" stroke-linecap="round"/>
<text x="145" y="460" fill="#ffd60a" font-size="2" font-family="monospace" text-anchor="end" dominant-baseline="middle">IO44</text>
<line x1="62.5" y1="30" x2="62.5" y2="50" stroke="#ffd60a" stroke-width="1.5" stroke-linecap="round"/>
<text x="62.5" y="25" fill="#ffd60a" font-size="2" font-family="monospace" text-anchor="middle" dominant-baseline="middle">GND</text>
<line x1="87.5" y1="30" x2="87.5" y2="50" stroke="#ffd60a" stroke-width="1.5" stroke-linecap="round"/>
<text x="87.5" y="25" fill="#ffd60a" font-size="2" font-family="monospace" text-anchor="middle" dominant-baseline="middle">GND</text>
<line x1="112.5" y1="30" x2="112.5" y2="50" stroke="#ffd60a" stroke-width="1.5" stroke-linecap="round"/>
<text x="112.5" y="25" fill="#ffd60a" font-size="2" font-family="monospace" text-anchor="middle" dominant-baseline="middle">GND</text>
<line x1="137.5" y1="30" x2="137.5" y2="50" stroke="#ffd60a" stroke-width="1.5" stroke-linecap="round"/>
<text x="137.5" y="25" fill="#ffd60a" font-size="2" font-family="monospace" text-anchor="middle" dominant-baseline="middle">GND</text>
<line x1="60" y1="490" x2="60" y2="470" stroke="#ffd60a" stroke-width="1.5" stroke-linecap="round"/>
<text x="60" y="504" fill="#ffd60a" font-size="2" font-family="monospace" text-anchor="middle" dominant-baseline="middle">VCC</text>
<line x1="80" y1="490" x2="80" y2="470" stroke="#ffd60a" stroke-width="1.5" stroke-linecap="round"/>
<text x="80" y="504" fill="#ffd60a" font-size="2" font-family="monospace" text-anchor="middle" dominant-baseline="middle">VCC</text>
<line x1="100" y1="490" x2="100" y2="470" stroke="#ffd60a" stroke-width="1.5" stroke-linecap="round"/>
<text x="100" y="504" fill="#ffd60a" font-size="2" font-family="monospace" text-anchor="middle" dominant-baseline="middle">VCC</text>
<line x1="120" y1="490" x2="120" y2="470" stroke="#ffd60a" stroke-width="1.5" stroke-linecap="round"/>
<text x="120" y="504" fill="#ffd60a" font-size="2" font-family="monospace" text-anchor="middle" dominant-baseline="middle">VCC</text>
<line x1="140" y1="490" x2="140" y2="470" stroke="#ffd60a" stroke-width="1.5" stroke-linecap="round"/>
<text x="140" y="504" fill="#ffd60a" font-size="2" font-family="monospace" text-anchor="middle" dominant-baseline="middle">VCC</text>
</svg>