<svg xmlns="http://www.w3.org/2000/svg" viewBox="0 0 180 380">
<rect x="50" y="50" width="80" height="280" stroke="#ffffff" stroke-width="1.5" fill="rgba(255,255,255,0.04)"/>
<text x="90" y="190" fill="#888" font-size="3" font-family="monospace" text-anchor="middle" dominant-baseline="middle">U</text>
<line x1="30" y1="64" x2="50" y2="64" stroke="#ffd60a" stroke-width="1.5" stroke-linecap="round"/>
<text x="55" y="64" fill="#ffd60a" font-size="2" font-family="monospace" text-anchor="start" dominant-baseline="middle">ZEROR</text>
<line x1="30" y1="92" x2="50" y2="92" stroke="#ffd60a" stroke-width="1.5" stroke-linecap="round"/>
<text x="55" y="92" fill="#ffd60a" font-size="2" font-family="monospace" text-anchor="start" dominant-baseline="middle">IREF</text>
<line x1="30" y1="120" x2="50" y2="120" stroke="#ffd60a" stroke-width="1.5" stroke-linecap="round"/>
<text x="55" y="120" fill="#ffd60a" font-size="2" font-family="monospace" text-anchor="start" dominant-baseline="middle">OUTL+</text>
<line x1="30" y1="148" x2="50" y2="148" stroke="#ffd60a" stroke-width="1.5" stroke-linecap="round"/>
<text x="55" y="148" fill="#ffd60a" font-size="2" font-family="monospace" text-anchor="start" dominant-baseline="middle">OUTL-</text>
<line x1="30" y1="176" x2="50" y2="176" stroke="#ffd60a" stroke-width="1.5" stroke-linecap="round"/>
<text x="55" y="176" fill="#ffd60a" font-size="2" font-family="monospace" text-anchor="start" dominant-baseline="middle">FILTR</text>
<line x1="30" y1="204" x2="50" y2="204" stroke="#ffd60a" stroke-width="1.5" stroke-linecap="round"/>
<text x="55" y="204" fill="#ffd60a" font-size="2" font-family="monospace" text-anchor="start" dominant-baseline="middle">FCR</text>
<line x1="30" y1="232" x2="50" y2="232" stroke="#ffd60a" stroke-width="1.5" stroke-linecap="round"/>
<text x="55" y="232" fill="#ffd60a" font-size="2" font-family="monospace" text-anchor="start" dominant-baseline="middle">OUTR-</text>
<line x1="30" y1="260" x2="50" y2="260" stroke="#ffd60a" stroke-width="1.5" stroke-linecap="round"/>
<text x="55" y="260" fill="#ffd60a" font-size="2" font-family="monospace" text-anchor="start" dominant-baseline="middle">OUTR+</text>
<line x1="30" y1="288" x2="50" y2="288" stroke="#ffd60a" stroke-width="1.5" stroke-linecap="round"/>
<text x="55" y="288" fill="#ffd60a" font-size="2" font-family="monospace" text-anchor="start" dominant-baseline="middle">FILTB</text>
<line x1="30" y1="316" x2="50" y2="316" stroke="#ffd60a" stroke-width="1.5" stroke-linecap="round"/>
<text x="55" y="316" fill="#ffd60a" font-size="2" font-family="monospace" text-anchor="start" dominant-baseline="middle">ZEROL</text>
<line x1="150" y1="60" x2="130" y2="60" stroke="#ffd60a" stroke-width="1.5" stroke-linecap="round"/>
<text x="125" y="60" fill="#ffd60a" font-size="2" font-family="monospace" text-anchor="end" dominant-baseline="middle">MCLK</text>
<line x1="150" y1="80" x2="130" y2="80" stroke="#ffd60a" stroke-width="1.5" stroke-linecap="round"/>
<text x="125" y="80" fill="#ffd60a" font-size="2" font-family="monospace" text-anchor="end" dominant-baseline="middle">CLATCH</text>
<line x1="150" y1="100" x2="130" y2="100" stroke="#ffd60a" stroke-width="1.5" stroke-linecap="round"/>
<text x="125" y="100" fill="#ffd60a" font-size="2" font-family="monospace" text-anchor="end" dominant-baseline="middle">CCLK</text>
<line x1="150" y1="120" x2="130" y2="120" stroke="#ffd60a" stroke-width="1.5" stroke-linecap="round"/>
<text x="125" y="120" fill="#ffd60a" font-size="2" font-family="monospace" text-anchor="end" dominant-baseline="middle">CDATA</text>
<line x1="150" y1="140" x2="130" y2="140" stroke="#ffd60a" stroke-width="1.5" stroke-linecap="round"/>
<text x="125" y="140" fill="#ffd60a" font-size="2" font-family="monospace" text-anchor="end" dominant-baseline="middle">INT4X</text>
<line x1="150" y1="160" x2="130" y2="160" stroke="#ffd60a" stroke-width="1.5" stroke-linecap="round"/>
<text x="125" y="160" fill="#ffd60a" font-size="2" font-family="monospace" text-anchor="end" dominant-baseline="middle">INT2X</text>
<line x1="150" y1="180" x2="130" y2="180" stroke="#ffd60a" stroke-width="1.5" stroke-linecap="round"/>
<text x="125" y="180" fill="#ffd60a" font-size="2" font-family="monospace" text-anchor="end" dominant-baseline="middle">DEEMP</text>
<line x1="150" y1="200" x2="130" y2="200" stroke="#ffd60a" stroke-width="1.5" stroke-linecap="round"/>
<text x="125" y="200" fill="#ffd60a" font-size="2" font-family="monospace" text-anchor="end" dominant-baseline="middle">IDPM1</text>
<line x1="150" y1="220" x2="130" y2="220" stroke="#ffd60a" stroke-width="1.5" stroke-linecap="round"/>
<text x="125" y="220" fill="#ffd60a" font-size="2" font-family="monospace" text-anchor="end" dominant-baseline="middle">IDPM0</text>
<line x1="150" y1="240" x2="130" y2="240" stroke="#ffd60a" stroke-width="1.5" stroke-linecap="round"/>
<text x="125" y="240" fill="#ffd60a" font-size="2" font-family="monospace" text-anchor="end" dominant-baseline="middle">MUTE</text>
<line x1="150" y1="260" x2="130" y2="260" stroke="#ffd60a" stroke-width="1.5" stroke-linecap="round"/>
<text x="125" y="260" fill="#ffd60a" font-size="2" font-family="monospace" text-anchor="end" dominant-baseline="middle">~{RST}</text>
<line x1="150" y1="280" x2="130" y2="280" stroke="#ffd60a" stroke-width="1.5" stroke-linecap="round"/>
<text x="125" y="280" fill="#ffd60a" font-size="2" font-family="monospace" text-anchor="end" dominant-baseline="middle">L/~{R}CLK</text>
<line x1="150" y1="300" x2="130" y2="300" stroke="#ffd60a" stroke-width="1.5" stroke-linecap="round"/>
<text x="125" y="300" fill="#ffd60a" font-size="2" font-family="monospace" text-anchor="end" dominant-baseline="middle">BCLK</text>
<line x1="150" y1="320" x2="130" y2="320" stroke="#ffd60a" stroke-width="1.5" stroke-linecap="round"/>
<text x="125" y="320" fill="#ffd60a" font-size="2" font-family="monospace" text-anchor="end" dominant-baseline="middle">SDATA</text>
<line x1="70" y1="30" x2="70" y2="50" stroke="#ffd60a" stroke-width="1.5" stroke-linecap="round"/>
<text x="70" y="25" fill="#ffd60a" font-size="2" font-family="monospace" text-anchor="middle" dominant-baseline="middle">DGND</text>
<line x1="110" y1="30" x2="110" y2="50" stroke="#ffd60a" stroke-width="1.5" stroke-linecap="round"/>
<text x="110" y="25" fill="#ffd60a" font-size="2" font-family="monospace" text-anchor="middle" dominant-baseline="middle">AGND</text>
<line x1="70" y1="350" x2="70" y2="330" stroke="#ffd60a" stroke-width="1.5" stroke-linecap="round"/>
<text x="70" y="364" fill="#ffd60a" font-size="2" font-family="monospace" text-anchor="middle" dominant-baseline="middle">AVDD</text>
<line x1="110" y1="350" x2="110" y2="330" stroke="#ffd60a" stroke-width="1.5" stroke-linecap="round"/>
<text x="110" y="364" fill="#ffd60a" font-size="2" font-family="monospace" text-anchor="middle" dominant-baseline="middle">DVDD</text>
</svg>