<svg xmlns="http://www.w3.org/2000/svg" viewBox="0 0 380 360">
<rect x="50" y="50" width="280" height="260" stroke="#ffffff" stroke-width="1.5" fill="rgba(255,255,255,0.04)"/>
<text x="190" y="180" fill="#888" font-size="3" font-family="monospace" text-anchor="middle" dominant-baseline="middle">U</text>
<line x1="30" y1="60" x2="50" y2="60" stroke="#ffd60a" stroke-width="1.5" stroke-linecap="round"/>
<text x="55" y="60" fill="#ffd60a" font-size="2" font-family="monospace" text-anchor="start" dominant-baseline="middle">~{PD}/~{RST}</text>
<line x1="30" y1="80" x2="50" y2="80" stroke="#ffd60a" stroke-width="1.5" stroke-linecap="round"/>
<text x="55" y="80" fill="#ffd60a" font-size="2" font-family="monospace" text-anchor="start" dominant-baseline="middle">MCLKIN</text>
<line x1="30" y1="100" x2="50" y2="100" stroke="#ffd60a" stroke-width="1.5" stroke-linecap="round"/>
<text x="55" y="100" fill="#ffd60a" font-size="2" font-family="monospace" text-anchor="start" dominant-baseline="middle">NC</text>
<line x1="30" y1="120" x2="50" y2="120" stroke="#ffd60a" stroke-width="1.5" stroke-linecap="round"/>
<text x="55" y="120" fill="#ffd60a" font-size="2" font-family="monospace" text-anchor="start" dominant-baseline="middle">SA_MODE</text>
<line x1="30" y1="140" x2="50" y2="140" stroke="#ffd60a" stroke-width="1.5" stroke-linecap="round"/>
<text x="55" y="140" fill="#ffd60a" font-size="2" font-family="monospace" text-anchor="start" dominant-baseline="middle">DVDD</text>
<line x1="30" y1="160" x2="50" y2="160" stroke="#ffd60a" stroke-width="1.5" stroke-linecap="round"/>
<text x="55" y="160" fill="#ffd60a" font-size="2" font-family="monospace" text-anchor="start" dominant-baseline="middle">SDATAOUT1</text>
<line x1="30" y1="180" x2="50" y2="180" stroke="#ffd60a" stroke-width="1.5" stroke-linecap="round"/>
<text x="55" y="180" fill="#ffd60a" font-size="2" font-family="monospace" text-anchor="start" dominant-baseline="middle">SDATAOUT2</text>
<line x1="30" y1="200" x2="50" y2="200" stroke="#ffd60a" stroke-width="1.5" stroke-linecap="round"/>
<text x="55" y="200" fill="#ffd60a" font-size="2" font-family="monospace" text-anchor="start" dominant-baseline="middle">LRCLK</text>
<line x1="30" y1="220" x2="50" y2="220" stroke="#ffd60a" stroke-width="1.5" stroke-linecap="round"/>
<text x="55" y="220" fill="#ffd60a" font-size="2" font-family="monospace" text-anchor="start" dominant-baseline="middle">BCLK</text>
<line x1="30" y1="240" x2="50" y2="240" stroke="#ffd60a" stroke-width="1.5" stroke-linecap="round"/>
<text x="55" y="240" fill="#ffd60a" font-size="2" font-family="monospace" text-anchor="start" dominant-baseline="middle">SDA</text>
<line x1="30" y1="260" x2="50" y2="260" stroke="#ffd60a" stroke-width="1.5" stroke-linecap="round"/>
<text x="55" y="260" fill="#ffd60a" font-size="2" font-family="monospace" text-anchor="start" dominant-baseline="middle">SCL</text>
<line x1="30" y1="280" x2="50" y2="280" stroke="#ffd60a" stroke-width="1.5" stroke-linecap="round"/>
<text x="55" y="280" fill="#ffd60a" font-size="2" font-family="monospace" text-anchor="start" dominant-baseline="middle">ADDR0</text>
<line x1="30" y1="300" x2="50" y2="300" stroke="#ffd60a" stroke-width="1.5" stroke-linecap="round"/>
<text x="55" y="300" fill="#ffd60a" font-size="2" font-family="monospace" text-anchor="start" dominant-baseline="middle">ADDR1</text>
<line x1="350" y1="63" x2="330" y2="63" stroke="#ffd60a" stroke-width="1.5" stroke-linecap="round"/>
<text x="325" y="63" fill="#ffd60a" font-size="2" font-family="monospace" text-anchor="end" dominant-baseline="middle">VREF</text>
<line x1="350" y1="89" x2="330" y2="89" stroke="#ffd60a" stroke-width="1.5" stroke-linecap="round"/>
<text x="325" y="89" fill="#ffd60a" font-size="2" font-family="monospace" text-anchor="end" dominant-baseline="middle">PLL_FILT</text>
<line x1="350" y1="115" x2="330" y2="115" stroke="#ffd60a" stroke-width="1.5" stroke-linecap="round"/>
<text x="325" y="115" fill="#ffd60a" font-size="2" font-family="monospace" text-anchor="end" dominant-baseline="middle">AIN1N</text>
<line x1="350" y1="141" x2="330" y2="141" stroke="#ffd60a" stroke-width="1.5" stroke-linecap="round"/>
<text x="325" y="141" fill="#ffd60a" font-size="2" font-family="monospace" text-anchor="end" dominant-baseline="middle">AIN1P</text>
<line x1="350" y1="167" x2="330" y2="167" stroke="#ffd60a" stroke-width="1.5" stroke-linecap="round"/>
<text x="325" y="167" fill="#ffd60a" font-size="2" font-family="monospace" text-anchor="end" dominant-baseline="middle">AIN2N</text>
<line x1="350" y1="193" x2="330" y2="193" stroke="#ffd60a" stroke-width="1.5" stroke-linecap="round"/>
<text x="325" y="193" fill="#ffd60a" font-size="2" font-family="monospace" text-anchor="end" dominant-baseline="middle">AIN2P</text>
<line x1="350" y1="219" x2="330" y2="219" stroke="#ffd60a" stroke-width="1.5" stroke-linecap="round"/>
<text x="325" y="219" fill="#ffd60a" font-size="2" font-family="monospace" text-anchor="end" dominant-baseline="middle">AIN3N</text>
<line x1="350" y1="245" x2="330" y2="245" stroke="#ffd60a" stroke-width="1.5" stroke-linecap="round"/>
<text x="325" y="245" fill="#ffd60a" font-size="2" font-family="monospace" text-anchor="end" dominant-baseline="middle">AIN3P</text>
<line x1="350" y1="271" x2="330" y2="271" stroke="#ffd60a" stroke-width="1.5" stroke-linecap="round"/>
<text x="325" y="271" fill="#ffd60a" font-size="2" font-family="monospace" text-anchor="end" dominant-baseline="middle">AIN4N</text>
<line x1="350" y1="297" x2="330" y2="297" stroke="#ffd60a" stroke-width="1.5" stroke-linecap="round"/>
<text x="325" y="297" fill="#ffd60a" font-size="2" font-family="monospace" text-anchor="end" dominant-baseline="middle">AIN4P</text>
<line x1="60" y1="30" x2="60" y2="50" stroke="#ffd60a" stroke-width="1.5" stroke-linecap="round"/>
<text x="60" y="25" fill="#ffd60a" font-size="2" font-family="monospace" text-anchor="middle" dominant-baseline="middle">AGND</text>
<line x1="80" y1="30" x2="80" y2="50" stroke="#ffd60a" stroke-width="1.5" stroke-linecap="round"/>
<text x="80" y="25" fill="#ffd60a" font-size="2" font-family="monospace" text-anchor="middle" dominant-baseline="middle">AGND</text>
<line x1="100" y1="30" x2="100" y2="50" stroke="#ffd60a" stroke-width="1.5" stroke-linecap="round"/>
<text x="100" y="25" fill="#ffd60a" font-size="2" font-family="monospace" text-anchor="middle" dominant-baseline="middle">DGND</text>
<line x1="120" y1="30" x2="120" y2="50" stroke="#ffd60a" stroke-width="1.5" stroke-linecap="round"/>
<text x="120" y="25" fill="#ffd60a" font-size="2" font-family="monospace" text-anchor="middle" dominant-baseline="middle">AGND</text>
<line x1="140" y1="30" x2="140" y2="50" stroke="#ffd60a" stroke-width="1.5" stroke-linecap="round"/>
<text x="140" y="25" fill="#ffd60a" font-size="2" font-family="monospace" text-anchor="middle" dominant-baseline="middle">AGND</text>
<line x1="160" y1="30" x2="160" y2="50" stroke="#ffd60a" stroke-width="1.5" stroke-linecap="round"/>
<text x="160" y="25" fill="#ffd60a" font-size="2" font-family="monospace" text-anchor="middle" dominant-baseline="middle">NC</text>
<line x1="180" y1="30" x2="180" y2="50" stroke="#ffd60a" stroke-width="1.5" stroke-linecap="round"/>
<text x="180" y="25" fill="#ffd60a" font-size="2" font-family="monospace" text-anchor="middle" dominant-baseline="middle">NC</text>
<line x1="200" y1="30" x2="200" y2="50" stroke="#ffd60a" stroke-width="1.5" stroke-linecap="round"/>
<text x="200" y="25" fill="#ffd60a" font-size="2" font-family="monospace" text-anchor="middle" dominant-baseline="middle">NC</text>
<line x1="220" y1="30" x2="220" y2="50" stroke="#ffd60a" stroke-width="1.5" stroke-linecap="round"/>
<text x="220" y="25" fill="#ffd60a" font-size="2" font-family="monospace" text-anchor="middle" dominant-baseline="middle">NC</text>
<line x1="240" y1="30" x2="240" y2="50" stroke="#ffd60a" stroke-width="1.5" stroke-linecap="round"/>
<text x="240" y="25" fill="#ffd60a" font-size="2" font-family="monospace" text-anchor="middle" dominant-baseline="middle">NC</text>
<line x1="260" y1="30" x2="260" y2="50" stroke="#ffd60a" stroke-width="1.5" stroke-linecap="round"/>
<text x="260" y="25" fill="#ffd60a" font-size="2" font-family="monospace" text-anchor="middle" dominant-baseline="middle">AGND</text>
<line x1="280" y1="30" x2="280" y2="50" stroke="#ffd60a" stroke-width="1.5" stroke-linecap="round"/>
<text x="280" y="25" fill="#ffd60a" font-size="2" font-family="monospace" text-anchor="middle" dominant-baseline="middle">AGND</text>
<line x1="300" y1="30" x2="300" y2="50" stroke="#ffd60a" stroke-width="1.5" stroke-linecap="round"/>
<text x="300" y="25" fill="#ffd60a" font-size="2" font-family="monospace" text-anchor="middle" dominant-baseline="middle">NC</text>
<line x1="320" y1="30" x2="320" y2="50" stroke="#ffd60a" stroke-width="1.5" stroke-linecap="round"/>
<text x="320" y="25" fill="#ffd60a" font-size="2" font-family="monospace" text-anchor="middle" dominant-baseline="middle">EP</text>
<line x1="85" y1="330" x2="85" y2="310" stroke="#ffd60a" stroke-width="1.5" stroke-linecap="round"/>
<text x="85" y="344" fill="#ffd60a" font-size="2" font-family="monospace" text-anchor="middle" dominant-baseline="middle">AVDD</text>
<line x1="155" y1="330" x2="155" y2="310" stroke="#ffd60a" stroke-width="1.5" stroke-linecap="round"/>
<text x="155" y="344" fill="#ffd60a" font-size="2" font-family="monospace" text-anchor="middle" dominant-baseline="middle">IOVDD</text>
<line x1="225" y1="330" x2="225" y2="310" stroke="#ffd60a" stroke-width="1.5" stroke-linecap="round"/>
<text x="225" y="344" fill="#ffd60a" font-size="2" font-family="monospace" text-anchor="middle" dominant-baseline="middle">AVDD</text>
<line x1="295" y1="330" x2="295" y2="310" stroke="#ffd60a" stroke-width="1.5" stroke-linecap="round"/>
<text x="295" y="344" fill="#ffd60a" font-size="2" font-family="monospace" text-anchor="middle" dominant-baseline="middle">AVDD</text>
</svg>