<svg xmlns="http://www.w3.org/2000/svg" viewBox="0 0 220 240">
<rect x="50" y="50" width="120" height="140" stroke="#ffffff" stroke-width="1.5" fill="rgba(255,255,255,0.04)"/>
<text x="110" y="120" fill="#888" font-size="3" font-family="monospace" text-anchor="middle" dominant-baseline="middle">U</text>
<line x1="30" y1="60" x2="50" y2="60" stroke="#ffd60a" stroke-width="1.5" stroke-linecap="round"/>
<text x="55" y="60" fill="#ffd60a" font-size="2" font-family="monospace" text-anchor="start" dominant-baseline="middle">VSEL</text>
<line x1="30" y1="80" x2="50" y2="80" stroke="#ffd60a" stroke-width="1.5" stroke-linecap="round"/>
<text x="55" y="80" fill="#ffd60a" font-size="2" font-family="monospace" text-anchor="start" dominant-baseline="middle">NC</text>
<line x1="30" y1="100" x2="50" y2="100" stroke="#ffd60a" stroke-width="1.5" stroke-linecap="round"/>
<text x="55" y="100" fill="#ffd60a" font-size="2" font-family="monospace" text-anchor="start" dominant-baseline="middle">VE2</text>
<line x1="30" y1="120" x2="50" y2="120" stroke="#ffd60a" stroke-width="1.5" stroke-linecap="round"/>
<text x="55" y="120" fill="#ffd60a" font-size="2" font-family="monospace" text-anchor="start" dominant-baseline="middle">VID</text>
<line x1="30" y1="140" x2="50" y2="140" stroke="#ffd60a" stroke-width="1.5" stroke-linecap="round"/>
<text x="55" y="140" fill="#ffd60a" font-size="2" font-family="monospace" text-anchor="start" dominant-baseline="middle">VOC</text>
<line x1="30" y1="160" x2="50" y2="160" stroke="#ffd60a" stroke-width="1.5" stroke-linecap="round"/>
<text x="55" y="160" fill="#ffd60a" font-size="2" font-family="monospace" text-anchor="start" dominant-baseline="middle">VOB</text>
<line x1="30" y1="180" x2="50" y2="180" stroke="#ffd60a" stroke-width="1.5" stroke-linecap="round"/>
<text x="55" y="180" fill="#ffd60a" font-size="2" font-family="monospace" text-anchor="start" dominant-baseline="middle">VOA</text>
<line x1="190" y1="60" x2="170" y2="60" stroke="#ffd60a" stroke-width="1.5" stroke-linecap="round"/>
<text x="165" y="60" fill="#ffd60a" font-size="2" font-family="monospace" text-anchor="end" dominant-baseline="middle">VIA</text>
<line x1="190" y1="80" x2="170" y2="80" stroke="#ffd60a" stroke-width="1.5" stroke-linecap="round"/>
<text x="165" y="80" fill="#ffd60a" font-size="2" font-family="monospace" text-anchor="end" dominant-baseline="middle">VIB</text>
<line x1="190" y1="100" x2="170" y2="100" stroke="#ffd60a" stroke-width="1.5" stroke-linecap="round"/>
<text x="165" y="100" fill="#ffd60a" font-size="2" font-family="monospace" text-anchor="end" dominant-baseline="middle">VIC</text>
<line x1="190" y1="120" x2="170" y2="120" stroke="#ffd60a" stroke-width="1.5" stroke-linecap="round"/>
<text x="165" y="120" fill="#ffd60a" font-size="2" font-family="monospace" text-anchor="end" dominant-baseline="middle">VOD</text>
<line x1="190" y1="140" x2="170" y2="140" stroke="#ffd60a" stroke-width="1.5" stroke-linecap="round"/>
<text x="165" y="140" fill="#ffd60a" font-size="2" font-family="monospace" text-anchor="end" dominant-baseline="middle">VE1</text>
<line x1="190" y1="160" x2="170" y2="160" stroke="#ffd60a" stroke-width="1.5" stroke-linecap="round"/>
<text x="165" y="160" fill="#ffd60a" font-size="2" font-family="monospace" text-anchor="end" dominant-baseline="middle">NC</text>
<line x1="190" y1="180" x2="170" y2="180" stroke="#ffd60a" stroke-width="1.5" stroke-linecap="round"/>
<text x="165" y="180" fill="#ffd60a" font-size="2" font-family="monospace" text-anchor="end" dominant-baseline="middle">PDIS</text>
<line x1="60" y1="30" x2="60" y2="50" stroke="#ffd60a" stroke-width="1.5" stroke-linecap="round"/>
<text x="60" y="25" fill="#ffd60a" font-size="2" font-family="monospace" text-anchor="middle" dominant-baseline="middle">GND1</text>
<line x1="80" y1="30" x2="80" y2="50" stroke="#ffd60a" stroke-width="1.5" stroke-linecap="round"/>
<text x="80" y="25" fill="#ffd60a" font-size="2" font-family="monospace" text-anchor="middle" dominant-baseline="middle">GND1</text>
<line x1="100" y1="30" x2="100" y2="50" stroke="#ffd60a" stroke-width="1.5" stroke-linecap="round"/>
<text x="100" y="25" fill="#ffd60a" font-size="2" font-family="monospace" text-anchor="middle" dominant-baseline="middle">GND1</text>
<line x1="120" y1="30" x2="120" y2="50" stroke="#ffd60a" stroke-width="1.5" stroke-linecap="round"/>
<text x="120" y="25" fill="#ffd60a" font-size="2" font-family="monospace" text-anchor="middle" dominant-baseline="middle">GNDISO</text>
<line x1="140" y1="30" x2="140" y2="50" stroke="#ffd60a" stroke-width="1.5" stroke-linecap="round"/>
<text x="140" y="25" fill="#ffd60a" font-size="2" font-family="monospace" text-anchor="middle" dominant-baseline="middle">GNDISO</text>
<line x1="160" y1="30" x2="160" y2="50" stroke="#ffd60a" stroke-width="1.5" stroke-linecap="round"/>
<text x="160" y="25" fill="#ffd60a" font-size="2" font-family="monospace" text-anchor="middle" dominant-baseline="middle">GNDISO</text>
<line x1="65" y1="210" x2="65" y2="190" stroke="#ffd60a" stroke-width="1.5" stroke-linecap="round"/>
<text x="65" y="224" fill="#ffd60a" font-size="2" font-family="monospace" text-anchor="middle" dominant-baseline="middle">VDD1</text>
<line x1="95" y1="210" x2="95" y2="190" stroke="#ffd60a" stroke-width="1.5" stroke-linecap="round"/>
<text x="95" y="224" fill="#ffd60a" font-size="2" font-family="monospace" text-anchor="middle" dominant-baseline="middle">VDDP</text>
<line x1="125" y1="210" x2="125" y2="190" stroke="#ffd60a" stroke-width="1.5" stroke-linecap="round"/>
<text x="125" y="224" fill="#ffd60a" font-size="2" font-family="monospace" text-anchor="middle" dominant-baseline="middle">VISO</text>
<line x1="155" y1="210" x2="155" y2="190" stroke="#ffd60a" stroke-width="1.5" stroke-linecap="round"/>
<text x="155" y="224" fill="#ffd60a" font-size="2" font-family="monospace" text-anchor="middle" dominant-baseline="middle">VDD2</text>
</svg>