<svg xmlns="http://www.w3.org/2000/svg" viewBox="0 0 19.08 27.05">
<line x1="6.999999999999999" y1="19.240000000000002" x2="10.809999999999999" y2="19.240000000000002" stroke="#ffffff" stroke-width="0.3" stroke-linecap="round" fill="none"/>
<line x1="8.27" y1="7.8100000000000005" x2="8.27" y2="10.35" stroke="#ffffff" stroke-width="0.3" stroke-linecap="round" fill="none"/>
<line x1="8.27" y1="12.89" x2="8.27" y2="15.43" stroke="#ffffff" stroke-width="0.3" stroke-linecap="round" fill="none"/>
<line x1="8.27" y1="17.97" x2="8.27" y2="20.509999999999998" stroke="#ffffff" stroke-width="0.3" stroke-linecap="round" fill="none"/>
<polyline points="8.524,7.8100000000000005 10.047999999999998,6.2860000000000005 9.286,6.2860000000000005 10.047999999999998,6.2860000000000005 10.047999999999998,7.048" stroke="#ffffff" stroke-width="0.3" stroke-linejoin="round" stroke-linecap="round" fill="none"/>
<polyline points="8.524,12.89 10.047999999999998,11.366 9.286,11.366 10.047999999999998,11.366 10.047999999999998,12.128" stroke="#ffffff" stroke-width="0.3" stroke-linejoin="round" stroke-linecap="round" fill="none"/>
<polyline points="8.524,17.97 10.047999999999998,16.446 9.286,16.446 10.047999999999998,16.446 10.047999999999998,17.208" stroke="#ffffff" stroke-width="0.3" stroke-linejoin="round" stroke-linecap="round" fill="none"/>
<polyline points="9.54,7.8100000000000005 11.064,6.2860000000000005 10.302,6.2860000000000005 11.064,6.2860000000000005 11.064,7.048" stroke="#ffffff" stroke-width="0.3" stroke-linejoin="round" stroke-linecap="round" fill="none"/>
<polyline points="9.54,12.89 11.064,11.366 10.302,11.366 11.064,11.366 11.064,12.128" stroke="#ffffff" stroke-width="0.3" stroke-linejoin="round" stroke-linecap="round" fill="none"/>
<polyline points="9.54,17.97 11.064,16.446 10.302,16.446 11.064,16.446 11.064,17.208" stroke="#ffffff" stroke-width="0.3" stroke-linejoin="round" stroke-linecap="round" fill="none"/>
<polyline points="10.809999999999999,7.8100000000000005 10.809999999999999,10.35 8.27,9.08 10.809999999999999,7.8100000000000005" stroke="#ffffff" stroke-width="0.3" stroke-linejoin="round" stroke-linecap="round" fill="none"/>
<rect x="10.809999999999999" y="7.8100000000000005" width="0" height="0" stroke="#ffffff" stroke-width="0.3" fill="none"/>
<line x1="10.809999999999999" y1="9.08" x2="6.999999999999999" y2="9.08" stroke="#ffffff" stroke-width="0.3" stroke-linecap="round" fill="none"/>
<polyline points="10.809999999999999,12.89 10.809999999999999,15.43 8.27,14.16 10.809999999999999,12.89" stroke="#ffffff" stroke-width="0.3" stroke-linejoin="round" stroke-linecap="round" fill="none"/>
<polyline points="10.809999999999999,17.97 10.809999999999999,20.509999999999998 8.27,19.240000000000002 10.809999999999999,17.97" stroke="#ffffff" stroke-width="0.3" stroke-linejoin="round" stroke-linecap="round" fill="none"/>
<polyline points="10.809999999999999,19.240000000000002 11.572,19.240000000000002 11.572,9.08 10.809999999999999,9.08" stroke="#ffffff" stroke-width="0.3" stroke-linejoin="round" stroke-linecap="round" fill="none"/>
<circle cx="11.572" cy="14.16" r="0.254" stroke="#ffffff" stroke-width="0.3" fill="#ffffff"/>
<line x1="12.079999999999998" y1="14.16" x2="6.999999999999999" y2="14.16" stroke="#ffffff" stroke-width="0.3" stroke-linecap="round" fill="none"/>
<rect x="6.999999999999999" y="23.05" width="5.08" height="19.05" stroke="#ffffff" stroke-width="0.3" fill="rgba(255,255,255,0.06)"/>
<line x1="4.459999999999999" y1="9.08" x2="6.999999999999999" y2="9.08" stroke="#ffd60a" stroke-width="0.38642857142857145" stroke-linecap="round"/>
<text x="3.999999999999999" y="9.08" fill="#ffd60a" font-size="1" font-family="monospace" text-anchor="start" dominant-baseline="middle">RK</text>
<line x1="4.459999999999999" y1="14.16" x2="6.999999999999999" y2="14.16" stroke="#ffd60a" stroke-width="0.38642857142857145" stroke-linecap="round"/>
<text x="3.999999999999999" y="14.16" fill="#ffd60a" font-size="1" font-family="monospace" text-anchor="start" dominant-baseline="middle">GK</text>
<line x1="4.459999999999999" y1="19.240000000000002" x2="6.999999999999999" y2="19.240000000000002" stroke="#ffd60a" stroke-width="0.38642857142857145" stroke-linecap="round"/>
<text x="3.999999999999999" y="19.240000000000002" fill="#ffd60a" font-size="1" font-family="monospace" text-anchor="start" dominant-baseline="middle">BK</text>
<line x1="14.62" y1="14.16" x2="12.079999999999998" y2="14.16" stroke="#ffd60a" stroke-width="0.38642857142857145" stroke-linecap="round"/>
<text x="15.079999999999998" y="14.16" fill="#ffd60a" font-size="1" font-family="monospace" text-anchor="end" dominant-baseline="middle">A</text>
</svg>