<svg xmlns="http://www.w3.org/2000/svg" viewBox="0 0 180 540">
<rect x="50" y="50" width="80" height="440" stroke="#ffffff" stroke-width="1.5" fill="rgba(255,255,255,0.04)"/>
<text x="90" y="270" fill="#888" font-size="3" font-family="monospace" text-anchor="middle" dominant-baseline="middle">U</text>
<line x1="30" y1="60" x2="50" y2="60" stroke="#ffd60a" stroke-width="1.5" stroke-linecap="round"/>
<text x="55" y="60" fill="#ffd60a" font-size="2" font-family="monospace" text-anchor="start" dominant-baseline="middle">NC</text>
<line x1="30" y1="80" x2="50" y2="80" stroke="#ffd60a" stroke-width="1.5" stroke-linecap="round"/>
<text x="55" y="80" fill="#ffd60a" font-size="2" font-family="monospace" text-anchor="start" dominant-baseline="middle">NC</text>
<line x1="30" y1="100" x2="50" y2="100" stroke="#ffd60a" stroke-width="1.5" stroke-linecap="round"/>
<text x="55" y="100" fill="#ffd60a" font-size="2" font-family="monospace" text-anchor="start" dominant-baseline="middle">NC</text>
<line x1="30" y1="120" x2="50" y2="120" stroke="#ffd60a" stroke-width="1.5" stroke-linecap="round"/>
<text x="55" y="120" fill="#ffd60a" font-size="2" font-family="monospace" text-anchor="start" dominant-baseline="middle">P2.0/A8</text>
<line x1="30" y1="140" x2="50" y2="140" stroke="#ffd60a" stroke-width="1.5" stroke-linecap="round"/>
<text x="55" y="140" fill="#ffd60a" font-size="2" font-family="monospace" text-anchor="start" dominant-baseline="middle">P2.1/A9</text>
<line x1="30" y1="160" x2="50" y2="160" stroke="#ffd60a" stroke-width="1.5" stroke-linecap="round"/>
<text x="55" y="160" fill="#ffd60a" font-size="2" font-family="monospace" text-anchor="start" dominant-baseline="middle">P2.2/A10</text>
<line x1="30" y1="180" x2="50" y2="180" stroke="#ffd60a" stroke-width="1.5" stroke-linecap="round"/>
<text x="55" y="180" fill="#ffd60a" font-size="2" font-family="monospace" text-anchor="start" dominant-baseline="middle">P2.3/A11</text>
<line x1="30" y1="200" x2="50" y2="200" stroke="#ffd60a" stroke-width="1.5" stroke-linecap="round"/>
<text x="55" y="200" fill="#ffd60a" font-size="2" font-family="monospace" text-anchor="start" dominant-baseline="middle">P2.4/A12</text>
<line x1="30" y1="220" x2="50" y2="220" stroke="#ffd60a" stroke-width="1.5" stroke-linecap="round"/>
<text x="55" y="220" fill="#ffd60a" font-size="2" font-family="monospace" text-anchor="start" dominant-baseline="middle">P2.5/A13</text>
<line x1="30" y1="240" x2="50" y2="240" stroke="#ffd60a" stroke-width="1.5" stroke-linecap="round"/>
<text x="55" y="240" fill="#ffd60a" font-size="2" font-family="monospace" text-anchor="start" dominant-baseline="middle">P2.6/A14</text>
<line x1="30" y1="260" x2="50" y2="260" stroke="#ffd60a" stroke-width="1.5" stroke-linecap="round"/>
<text x="55" y="260" fill="#ffd60a" font-size="2" font-family="monospace" text-anchor="start" dominant-baseline="middle">P2.7/A15</text>
<line x1="30" y1="280" x2="50" y2="280" stroke="#ffd60a" stroke-width="1.5" stroke-linecap="round"/>
<text x="55" y="280" fill="#ffd60a" font-size="2" font-family="monospace" text-anchor="start" dominant-baseline="middle">~{PSEN}</text>
<line x1="30" y1="300" x2="50" y2="300" stroke="#ffd60a" stroke-width="1.5" stroke-linecap="round"/>
<text x="55" y="300" fill="#ffd60a" font-size="2" font-family="monospace" text-anchor="start" dominant-baseline="middle">ALE</text>
<line x1="30" y1="320" x2="50" y2="320" stroke="#ffd60a" stroke-width="1.5" stroke-linecap="round"/>
<text x="55" y="320" fill="#ffd60a" font-size="2" font-family="monospace" text-anchor="start" dominant-baseline="middle">NC</text>
<line x1="30" y1="340" x2="50" y2="340" stroke="#ffd60a" stroke-width="1.5" stroke-linecap="round"/>
<text x="55" y="340" fill="#ffd60a" font-size="2" font-family="monospace" text-anchor="start" dominant-baseline="middle">P0.7/AD7</text>
<line x1="30" y1="360" x2="50" y2="360" stroke="#ffd60a" stroke-width="1.5" stroke-linecap="round"/>
<text x="55" y="360" fill="#ffd60a" font-size="2" font-family="monospace" text-anchor="start" dominant-baseline="middle">P0.6/AD6</text>
<line x1="30" y1="380" x2="50" y2="380" stroke="#ffd60a" stroke-width="1.5" stroke-linecap="round"/>
<text x="55" y="380" fill="#ffd60a" font-size="2" font-family="monospace" text-anchor="start" dominant-baseline="middle">P0.5/AD5</text>
<line x1="30" y1="400" x2="50" y2="400" stroke="#ffd60a" stroke-width="1.5" stroke-linecap="round"/>
<text x="55" y="400" fill="#ffd60a" font-size="2" font-family="monospace" text-anchor="start" dominant-baseline="middle">P0.4/AD4</text>
<line x1="30" y1="420" x2="50" y2="420" stroke="#ffd60a" stroke-width="1.5" stroke-linecap="round"/>
<text x="55" y="420" fill="#ffd60a" font-size="2" font-family="monospace" text-anchor="start" dominant-baseline="middle">P0.3/AD3</text>
<line x1="30" y1="440" x2="50" y2="440" stroke="#ffd60a" stroke-width="1.5" stroke-linecap="round"/>
<text x="55" y="440" fill="#ffd60a" font-size="2" font-family="monospace" text-anchor="start" dominant-baseline="middle">P0.2/AD2</text>
<line x1="30" y1="460" x2="50" y2="460" stroke="#ffd60a" stroke-width="1.5" stroke-linecap="round"/>
<text x="55" y="460" fill="#ffd60a" font-size="2" font-family="monospace" text-anchor="start" dominant-baseline="middle">P0.1/AD1</text>
<line x1="30" y1="480" x2="50" y2="480" stroke="#ffd60a" stroke-width="1.5" stroke-linecap="round"/>
<text x="55" y="480" fill="#ffd60a" font-size="2" font-family="monospace" text-anchor="start" dominant-baseline="middle">P0.0/AD0</text>
<line x1="150" y1="61" x2="130" y2="61" stroke="#ffd60a" stroke-width="1.5" stroke-linecap="round"/>
<text x="125" y="61" fill="#ffd60a" font-size="2" font-family="monospace" text-anchor="end" dominant-baseline="middle">P1.2</text>
<line x1="150" y1="83" x2="130" y2="83" stroke="#ffd60a" stroke-width="1.5" stroke-linecap="round"/>
<text x="125" y="83" fill="#ffd60a" font-size="2" font-family="monospace" text-anchor="end" dominant-baseline="middle">P1.0</text>
<line x1="150" y1="105" x2="130" y2="105" stroke="#ffd60a" stroke-width="1.5" stroke-linecap="round"/>
<text x="125" y="105" fill="#ffd60a" font-size="2" font-family="monospace" text-anchor="end" dominant-baseline="middle">P1.1</text>
<line x1="150" y1="127" x2="130" y2="127" stroke="#ffd60a" stroke-width="1.5" stroke-linecap="round"/>
<text x="125" y="127" fill="#ffd60a" font-size="2" font-family="monospace" text-anchor="end" dominant-baseline="middle">P1.3</text>
<line x1="150" y1="149" x2="130" y2="149" stroke="#ffd60a" stroke-width="1.5" stroke-linecap="round"/>
<text x="125" y="149" fill="#ffd60a" font-size="2" font-family="monospace" text-anchor="end" dominant-baseline="middle">P1.4</text>
<line x1="150" y1="171" x2="130" y2="171" stroke="#ffd60a" stroke-width="1.5" stroke-linecap="round"/>
<text x="125" y="171" fill="#ffd60a" font-size="2" font-family="monospace" text-anchor="end" dominant-baseline="middle">P1.5</text>
<line x1="150" y1="193" x2="130" y2="193" stroke="#ffd60a" stroke-width="1.5" stroke-linecap="round"/>
<text x="125" y="193" fill="#ffd60a" font-size="2" font-family="monospace" text-anchor="end" dominant-baseline="middle">P1.6</text>
<line x1="150" y1="215" x2="130" y2="215" stroke="#ffd60a" stroke-width="1.5" stroke-linecap="round"/>
<text x="125" y="215" fill="#ffd60a" font-size="2" font-family="monospace" text-anchor="end" dominant-baseline="middle">P1.7/SCK</text>
<line x1="150" y1="237" x2="130" y2="237" stroke="#ffd60a" stroke-width="1.5" stroke-linecap="round"/>
<text x="125" y="237" fill="#ffd60a" font-size="2" font-family="monospace" text-anchor="end" dominant-baseline="middle">RST</text>
<line x1="150" y1="259" x2="130" y2="259" stroke="#ffd60a" stroke-width="1.5" stroke-linecap="round"/>
<text x="125" y="259" fill="#ffd60a" font-size="2" font-family="monospace" text-anchor="end" dominant-baseline="middle">P3.0</text>
<line x1="150" y1="281" x2="130" y2="281" stroke="#ffd60a" stroke-width="1.5" stroke-linecap="round"/>
<text x="125" y="281" fill="#ffd60a" font-size="2" font-family="monospace" text-anchor="end" dominant-baseline="middle">P3.1</text>
<line x1="150" y1="303" x2="130" y2="303" stroke="#ffd60a" stroke-width="1.5" stroke-linecap="round"/>
<text x="125" y="303" fill="#ffd60a" font-size="2" font-family="monospace" text-anchor="end" dominant-baseline="middle">P3.2</text>
<line x1="150" y1="325" x2="130" y2="325" stroke="#ffd60a" stroke-width="1.5" stroke-linecap="round"/>
<text x="125" y="325" fill="#ffd60a" font-size="2" font-family="monospace" text-anchor="end" dominant-baseline="middle">P3.3</text>
<line x1="150" y1="347" x2="130" y2="347" stroke="#ffd60a" stroke-width="1.5" stroke-linecap="round"/>
<text x="125" y="347" fill="#ffd60a" font-size="2" font-family="monospace" text-anchor="end" dominant-baseline="middle">P3.4</text>
<line x1="150" y1="369" x2="130" y2="369" stroke="#ffd60a" stroke-width="1.5" stroke-linecap="round"/>
<text x="125" y="369" fill="#ffd60a" font-size="2" font-family="monospace" text-anchor="end" dominant-baseline="middle">P3.5</text>
<line x1="150" y1="391" x2="130" y2="391" stroke="#ffd60a" stroke-width="1.5" stroke-linecap="round"/>
<text x="125" y="391" fill="#ffd60a" font-size="2" font-family="monospace" text-anchor="end" dominant-baseline="middle">P3.6</text>
<line x1="150" y1="413" x2="130" y2="413" stroke="#ffd60a" stroke-width="1.5" stroke-linecap="round"/>
<text x="125" y="413" fill="#ffd60a" font-size="2" font-family="monospace" text-anchor="end" dominant-baseline="middle">P3.7</text>
<line x1="150" y1="435" x2="130" y2="435" stroke="#ffd60a" stroke-width="1.5" stroke-linecap="round"/>
<text x="125" y="435" fill="#ffd60a" font-size="2" font-family="monospace" text-anchor="end" dominant-baseline="middle">XTAL2</text>
<line x1="150" y1="457" x2="130" y2="457" stroke="#ffd60a" stroke-width="1.5" stroke-linecap="round"/>
<text x="125" y="457" fill="#ffd60a" font-size="2" font-family="monospace" text-anchor="end" dominant-baseline="middle">XTAL1</text>
<line x1="150" y1="479" x2="130" y2="479" stroke="#ffd60a" stroke-width="1.5" stroke-linecap="round"/>
<text x="125" y="479" fill="#ffd60a" font-size="2" font-family="monospace" text-anchor="end" dominant-baseline="middle">~{EA}/V_{pp}</text>
<line x1="90" y1="30" x2="90" y2="50" stroke="#ffd60a" stroke-width="1.5" stroke-linecap="round"/>
<text x="90" y="25" fill="#ffd60a" font-size="2" font-family="monospace" text-anchor="middle" dominant-baseline="middle">GND</text>
<line x1="90" y1="510" x2="90" y2="490" stroke="#ffd60a" stroke-width="1.5" stroke-linecap="round"/>
<text x="90" y="524" fill="#ffd60a" font-size="2" font-family="monospace" text-anchor="middle" dominant-baseline="middle">V_{cc}</text>
</svg>