<svg xmlns="http://www.w3.org/2000/svg" viewBox="0 0 400 920">
<rect x="50" y="50" width="300" height="820" stroke="#ffffff" stroke-width="1.5" fill="rgba(255,255,255,0.04)"/>
<text x="200" y="460" fill="#888" font-size="3" font-family="monospace" text-anchor="middle" dominant-baseline="middle">U</text>
<line x1="30" y1="60.25" x2="50" y2="60.25" stroke="#ffd60a" stroke-width="1.5" stroke-linecap="round"/>
<text x="55" y="60.25" fill="#ffd60a" font-size="2" font-family="monospace" text-anchor="start" dominant-baseline="middle">PE0</text>
<line x1="30" y1="80.75" x2="50" y2="80.75" stroke="#ffd60a" stroke-width="1.5" stroke-linecap="round"/>
<text x="55" y="80.75" fill="#ffd60a" font-size="2" font-family="monospace" text-anchor="start" dominant-baseline="middle">PE1</text>
<line x1="30" y1="101.25" x2="50" y2="101.25" stroke="#ffd60a" stroke-width="1.5" stroke-linecap="round"/>
<text x="55" y="101.25" fill="#ffd60a" font-size="2" font-family="monospace" text-anchor="start" dominant-baseline="middle">PE2</text>
<line x1="30" y1="121.75" x2="50" y2="121.75" stroke="#ffd60a" stroke-width="1.5" stroke-linecap="round"/>
<text x="55" y="121.75" fill="#ffd60a" font-size="2" font-family="monospace" text-anchor="start" dominant-baseline="middle">PE3</text>
<line x1="30" y1="142.25" x2="50" y2="142.25" stroke="#ffd60a" stroke-width="1.5" stroke-linecap="round"/>
<text x="55" y="142.25" fill="#ffd60a" font-size="2" font-family="monospace" text-anchor="start" dominant-baseline="middle">PE4</text>
<line x1="30" y1="162.75" x2="50" y2="162.75" stroke="#ffd60a" stroke-width="1.5" stroke-linecap="round"/>
<text x="55" y="162.75" fill="#ffd60a" font-size="2" font-family="monospace" text-anchor="start" dominant-baseline="middle">PE5</text>
<line x1="30" y1="183.25" x2="50" y2="183.25" stroke="#ffd60a" stroke-width="1.5" stroke-linecap="round"/>
<text x="55" y="183.25" fill="#ffd60a" font-size="2" font-family="monospace" text-anchor="start" dominant-baseline="middle">PE6</text>
<line x1="30" y1="203.75" x2="50" y2="203.75" stroke="#ffd60a" stroke-width="1.5" stroke-linecap="round"/>
<text x="55" y="203.75" fill="#ffd60a" font-size="2" font-family="monospace" text-anchor="start" dominant-baseline="middle">PE7</text>
<line x1="30" y1="224.25" x2="50" y2="224.25" stroke="#ffd60a" stroke-width="1.5" stroke-linecap="round"/>
<text x="55" y="224.25" fill="#ffd60a" font-size="2" font-family="monospace" text-anchor="start" dominant-baseline="middle">PB0</text>
<line x1="30" y1="244.75" x2="50" y2="244.75" stroke="#ffd60a" stroke-width="1.5" stroke-linecap="round"/>
<text x="55" y="244.75" fill="#ffd60a" font-size="2" font-family="monospace" text-anchor="start" dominant-baseline="middle">PB1</text>
<line x1="30" y1="265.25" x2="50" y2="265.25" stroke="#ffd60a" stroke-width="1.5" stroke-linecap="round"/>
<text x="55" y="265.25" fill="#ffd60a" font-size="2" font-family="monospace" text-anchor="start" dominant-baseline="middle">PB2</text>
<line x1="30" y1="285.75" x2="50" y2="285.75" stroke="#ffd60a" stroke-width="1.5" stroke-linecap="round"/>
<text x="55" y="285.75" fill="#ffd60a" font-size="2" font-family="monospace" text-anchor="start" dominant-baseline="middle">PB3</text>
<line x1="30" y1="306.25" x2="50" y2="306.25" stroke="#ffd60a" stroke-width="1.5" stroke-linecap="round"/>
<text x="55" y="306.25" fill="#ffd60a" font-size="2" font-family="monospace" text-anchor="start" dominant-baseline="middle">PB4</text>
<line x1="30" y1="326.75" x2="50" y2="326.75" stroke="#ffd60a" stroke-width="1.5" stroke-linecap="round"/>
<text x="55" y="326.75" fill="#ffd60a" font-size="2" font-family="monospace" text-anchor="start" dominant-baseline="middle">PB5</text>
<line x1="30" y1="347.25" x2="50" y2="347.25" stroke="#ffd60a" stroke-width="1.5" stroke-linecap="round"/>
<text x="55" y="347.25" fill="#ffd60a" font-size="2" font-family="monospace" text-anchor="start" dominant-baseline="middle">PB6</text>
<line x1="30" y1="367.75" x2="50" y2="367.75" stroke="#ffd60a" stroke-width="1.5" stroke-linecap="round"/>
<text x="55" y="367.75" fill="#ffd60a" font-size="2" font-family="monospace" text-anchor="start" dominant-baseline="middle">PB7</text>
<line x1="30" y1="388.25" x2="50" y2="388.25" stroke="#ffd60a" stroke-width="1.5" stroke-linecap="round"/>
<text x="55" y="388.25" fill="#ffd60a" font-size="2" font-family="monospace" text-anchor="start" dominant-baseline="middle">PD0</text>
<line x1="30" y1="408.75" x2="50" y2="408.75" stroke="#ffd60a" stroke-width="1.5" stroke-linecap="round"/>
<text x="55" y="408.75" fill="#ffd60a" font-size="2" font-family="monospace" text-anchor="start" dominant-baseline="middle">PD1</text>
<line x1="30" y1="429.25" x2="50" y2="429.25" stroke="#ffd60a" stroke-width="1.5" stroke-linecap="round"/>
<text x="55" y="429.25" fill="#ffd60a" font-size="2" font-family="monospace" text-anchor="start" dominant-baseline="middle">PD2</text>
<line x1="30" y1="449.75" x2="50" y2="449.75" stroke="#ffd60a" stroke-width="1.5" stroke-linecap="round"/>
<text x="55" y="449.75" fill="#ffd60a" font-size="2" font-family="monospace" text-anchor="start" dominant-baseline="middle">PD3</text>
<line x1="30" y1="470.24999999999994" x2="50" y2="470.24999999999994" stroke="#ffd60a" stroke-width="1.5" stroke-linecap="round"/>
<text x="55" y="470.24999999999994" fill="#ffd60a" font-size="2" font-family="monospace" text-anchor="start" dominant-baseline="middle">PD4</text>
<line x1="30" y1="490.75" x2="50" y2="490.75" stroke="#ffd60a" stroke-width="1.5" stroke-linecap="round"/>
<text x="55" y="490.75" fill="#ffd60a" font-size="2" font-family="monospace" text-anchor="start" dominant-baseline="middle">PD5</text>
<line x1="30" y1="511.25" x2="50" y2="511.25" stroke="#ffd60a" stroke-width="1.5" stroke-linecap="round"/>
<text x="55" y="511.25" fill="#ffd60a" font-size="2" font-family="monospace" text-anchor="start" dominant-baseline="middle">PD6</text>
<line x1="30" y1="531.75" x2="50" y2="531.75" stroke="#ffd60a" stroke-width="1.5" stroke-linecap="round"/>
<text x="55" y="531.75" fill="#ffd60a" font-size="2" font-family="monospace" text-anchor="start" dominant-baseline="middle">PD7</text>
<line x1="30" y1="552.25" x2="50" y2="552.25" stroke="#ffd60a" stroke-width="1.5" stroke-linecap="round"/>
<text x="55" y="552.25" fill="#ffd60a" font-size="2" font-family="monospace" text-anchor="start" dominant-baseline="middle">PC0</text>
<line x1="30" y1="572.75" x2="50" y2="572.75" stroke="#ffd60a" stroke-width="1.5" stroke-linecap="round"/>
<text x="55" y="572.75" fill="#ffd60a" font-size="2" font-family="monospace" text-anchor="start" dominant-baseline="middle">PC1</text>
<line x1="30" y1="593.25" x2="50" y2="593.25" stroke="#ffd60a" stroke-width="1.5" stroke-linecap="round"/>
<text x="55" y="593.25" fill="#ffd60a" font-size="2" font-family="monospace" text-anchor="start" dominant-baseline="middle">PC2</text>
<line x1="30" y1="613.75" x2="50" y2="613.75" stroke="#ffd60a" stroke-width="1.5" stroke-linecap="round"/>
<text x="55" y="613.75" fill="#ffd60a" font-size="2" font-family="monospace" text-anchor="start" dominant-baseline="middle">PC3</text>
<line x1="30" y1="634.25" x2="50" y2="634.25" stroke="#ffd60a" stroke-width="1.5" stroke-linecap="round"/>
<text x="55" y="634.25" fill="#ffd60a" font-size="2" font-family="monospace" text-anchor="start" dominant-baseline="middle">PC4</text>
<line x1="30" y1="654.75" x2="50" y2="654.75" stroke="#ffd60a" stroke-width="1.5" stroke-linecap="round"/>
<text x="55" y="654.75" fill="#ffd60a" font-size="2" font-family="monospace" text-anchor="start" dominant-baseline="middle">PC5</text>
<line x1="30" y1="675.25" x2="50" y2="675.25" stroke="#ffd60a" stroke-width="1.5" stroke-linecap="round"/>
<text x="55" y="675.25" fill="#ffd60a" font-size="2" font-family="monospace" text-anchor="start" dominant-baseline="middle">PC6</text>
<line x1="30" y1="695.75" x2="50" y2="695.75" stroke="#ffd60a" stroke-width="1.5" stroke-linecap="round"/>
<text x="55" y="695.75" fill="#ffd60a" font-size="2" font-family="monospace" text-anchor="start" dominant-baseline="middle">PC7</text>
<line x1="30" y1="716.25" x2="50" y2="716.25" stroke="#ffd60a" stroke-width="1.5" stroke-linecap="round"/>
<text x="55" y="716.25" fill="#ffd60a" font-size="2" font-family="monospace" text-anchor="start" dominant-baseline="middle">PA7</text>
<line x1="30" y1="736.75" x2="50" y2="736.75" stroke="#ffd60a" stroke-width="1.5" stroke-linecap="round"/>
<text x="55" y="736.75" fill="#ffd60a" font-size="2" font-family="monospace" text-anchor="start" dominant-baseline="middle">PA6</text>
<line x1="30" y1="757.25" x2="50" y2="757.25" stroke="#ffd60a" stroke-width="1.5" stroke-linecap="round"/>
<text x="55" y="757.25" fill="#ffd60a" font-size="2" font-family="monospace" text-anchor="start" dominant-baseline="middle">PA5</text>
<line x1="30" y1="777.75" x2="50" y2="777.75" stroke="#ffd60a" stroke-width="1.5" stroke-linecap="round"/>
<text x="55" y="777.75" fill="#ffd60a" font-size="2" font-family="monospace" text-anchor="start" dominant-baseline="middle">PA4</text>
<line x1="30" y1="798.25" x2="50" y2="798.25" stroke="#ffd60a" stroke-width="1.5" stroke-linecap="round"/>
<text x="55" y="798.25" fill="#ffd60a" font-size="2" font-family="monospace" text-anchor="start" dominant-baseline="middle">PA3</text>
<line x1="30" y1="818.75" x2="50" y2="818.75" stroke="#ffd60a" stroke-width="1.5" stroke-linecap="round"/>
<text x="55" y="818.75" fill="#ffd60a" font-size="2" font-family="monospace" text-anchor="start" dominant-baseline="middle">PA2</text>
<line x1="30" y1="839.25" x2="50" y2="839.25" stroke="#ffd60a" stroke-width="1.5" stroke-linecap="round"/>
<text x="55" y="839.25" fill="#ffd60a" font-size="2" font-family="monospace" text-anchor="start" dominant-baseline="middle">PA1</text>
<line x1="30" y1="859.75" x2="50" y2="859.75" stroke="#ffd60a" stroke-width="1.5" stroke-linecap="round"/>
<text x="55" y="859.75" fill="#ffd60a" font-size="2" font-family="monospace" text-anchor="start" dominant-baseline="middle">PA0</text>
<line x1="370" y1="60" x2="350" y2="60" stroke="#ffd60a" stroke-width="1.5" stroke-linecap="round"/>
<text x="345" y="60" fill="#ffd60a" font-size="2" font-family="monospace" text-anchor="end" dominant-baseline="middle">LCDCAP</text>
<line x1="370" y1="80" x2="350" y2="80" stroke="#ffd60a" stroke-width="1.5" stroke-linecap="round"/>
<text x="345" y="80" fill="#ffd60a" font-size="2" font-family="monospace" text-anchor="end" dominant-baseline="middle">NC</text>
<line x1="370" y1="100" x2="350" y2="100" stroke="#ffd60a" stroke-width="1.5" stroke-linecap="round"/>
<text x="345" y="100" fill="#ffd60a" font-size="2" font-family="monospace" text-anchor="end" dominant-baseline="middle">PJ0</text>
<line x1="370" y1="120" x2="350" y2="120" stroke="#ffd60a" stroke-width="1.5" stroke-linecap="round"/>
<text x="345" y="120" fill="#ffd60a" font-size="2" font-family="monospace" text-anchor="end" dominant-baseline="middle">PJ1</text>
<line x1="370" y1="140" x2="350" y2="140" stroke="#ffd60a" stroke-width="1.5" stroke-linecap="round"/>
<text x="345" y="140" fill="#ffd60a" font-size="2" font-family="monospace" text-anchor="end" dominant-baseline="middle">NC</text>
<line x1="370" y1="160" x2="350" y2="160" stroke="#ffd60a" stroke-width="1.5" stroke-linecap="round"/>
<text x="345" y="160" fill="#ffd60a" font-size="2" font-family="monospace" text-anchor="end" dominant-baseline="middle">NC</text>
<line x1="370" y1="180" x2="350" y2="180" stroke="#ffd60a" stroke-width="1.5" stroke-linecap="round"/>
<text x="345" y="180" fill="#ffd60a" font-size="2" font-family="monospace" text-anchor="end" dominant-baseline="middle">NC</text>
<line x1="370" y1="200" x2="350" y2="200" stroke="#ffd60a" stroke-width="1.5" stroke-linecap="round"/>
<text x="345" y="200" fill="#ffd60a" font-size="2" font-family="monospace" text-anchor="end" dominant-baseline="middle">NC</text>
<line x1="370" y1="220" x2="350" y2="220" stroke="#ffd60a" stroke-width="1.5" stroke-linecap="round"/>
<text x="345" y="220" fill="#ffd60a" font-size="2" font-family="monospace" text-anchor="end" dominant-baseline="middle">NC</text>
<line x1="370" y1="240" x2="350" y2="240" stroke="#ffd60a" stroke-width="1.5" stroke-linecap="round"/>
<text x="345" y="240" fill="#ffd60a" font-size="2" font-family="monospace" text-anchor="end" dominant-baseline="middle">PG3</text>
<line x1="370" y1="260" x2="350" y2="260" stroke="#ffd60a" stroke-width="1.5" stroke-linecap="round"/>
<text x="345" y="260" fill="#ffd60a" font-size="2" font-family="monospace" text-anchor="end" dominant-baseline="middle">PG4</text>
<line x1="370" y1="280" x2="350" y2="280" stroke="#ffd60a" stroke-width="1.5" stroke-linecap="round"/>
<text x="345" y="280" fill="#ffd60a" font-size="2" font-family="monospace" text-anchor="end" dominant-baseline="middle">PG5/~{RESET}</text>
<line x1="370" y1="300" x2="350" y2="300" stroke="#ffd60a" stroke-width="1.5" stroke-linecap="round"/>
<text x="345" y="300" fill="#ffd60a" font-size="2" font-family="monospace" text-anchor="end" dominant-baseline="middle">XTAL2</text>
<line x1="370" y1="320" x2="350" y2="320" stroke="#ffd60a" stroke-width="1.5" stroke-linecap="round"/>
<text x="345" y="320" fill="#ffd60a" font-size="2" font-family="monospace" text-anchor="end" dominant-baseline="middle">XTAL1</text>
<line x1="370" y1="340" x2="350" y2="340" stroke="#ffd60a" stroke-width="1.5" stroke-linecap="round"/>
<text x="345" y="340" fill="#ffd60a" font-size="2" font-family="monospace" text-anchor="end" dominant-baseline="middle">NC</text>
<line x1="370" y1="360" x2="350" y2="360" stroke="#ffd60a" stroke-width="1.5" stroke-linecap="round"/>
<text x="345" y="360" fill="#ffd60a" font-size="2" font-family="monospace" text-anchor="end" dominant-baseline="middle">NC</text>
<line x1="370" y1="380" x2="350" y2="380" stroke="#ffd60a" stroke-width="1.5" stroke-linecap="round"/>
<text x="345" y="380" fill="#ffd60a" font-size="2" font-family="monospace" text-anchor="end" dominant-baseline="middle">PJ2</text>
<line x1="370" y1="400" x2="350" y2="400" stroke="#ffd60a" stroke-width="1.5" stroke-linecap="round"/>
<text x="345" y="400" fill="#ffd60a" font-size="2" font-family="monospace" text-anchor="end" dominant-baseline="middle">PJ3</text>
<line x1="370" y1="420" x2="350" y2="420" stroke="#ffd60a" stroke-width="1.5" stroke-linecap="round"/>
<text x="345" y="420" fill="#ffd60a" font-size="2" font-family="monospace" text-anchor="end" dominant-baseline="middle">PJ4</text>
<line x1="370" y1="440" x2="350" y2="440" stroke="#ffd60a" stroke-width="1.5" stroke-linecap="round"/>
<text x="345" y="440" fill="#ffd60a" font-size="2" font-family="monospace" text-anchor="end" dominant-baseline="middle">PJ5</text>
<line x1="370" y1="460" x2="350" y2="460" stroke="#ffd60a" stroke-width="1.5" stroke-linecap="round"/>
<text x="345" y="460" fill="#ffd60a" font-size="2" font-family="monospace" text-anchor="end" dominant-baseline="middle">PJ6</text>
<line x1="370" y1="480" x2="350" y2="480" stroke="#ffd60a" stroke-width="1.5" stroke-linecap="round"/>
<text x="345" y="480" fill="#ffd60a" font-size="2" font-family="monospace" text-anchor="end" dominant-baseline="middle">PG0</text>
<line x1="370" y1="500.00000000000006" x2="350" y2="500.00000000000006" stroke="#ffd60a" stroke-width="1.5" stroke-linecap="round"/>
<text x="345" y="500.00000000000006" fill="#ffd60a" font-size="2" font-family="monospace" text-anchor="end" dominant-baseline="middle">PG1</text>
<line x1="370" y1="520" x2="350" y2="520" stroke="#ffd60a" stroke-width="1.5" stroke-linecap="round"/>
<text x="345" y="520" fill="#ffd60a" font-size="2" font-family="monospace" text-anchor="end" dominant-baseline="middle">PH0</text>
<line x1="370" y1="540" x2="350" y2="540" stroke="#ffd60a" stroke-width="1.5" stroke-linecap="round"/>
<text x="345" y="540" fill="#ffd60a" font-size="2" font-family="monospace" text-anchor="end" dominant-baseline="middle">PH1</text>
<line x1="370" y1="560" x2="350" y2="560" stroke="#ffd60a" stroke-width="1.5" stroke-linecap="round"/>
<text x="345" y="560" fill="#ffd60a" font-size="2" font-family="monospace" text-anchor="end" dominant-baseline="middle">PH2</text>
<line x1="370" y1="580" x2="350" y2="580" stroke="#ffd60a" stroke-width="1.5" stroke-linecap="round"/>
<text x="345" y="580" fill="#ffd60a" font-size="2" font-family="monospace" text-anchor="end" dominant-baseline="middle">PH3</text>
<line x1="370" y1="600" x2="350" y2="600" stroke="#ffd60a" stroke-width="1.5" stroke-linecap="round"/>
<text x="345" y="600" fill="#ffd60a" font-size="2" font-family="monospace" text-anchor="end" dominant-baseline="middle">PG2</text>
<line x1="370" y1="620" x2="350" y2="620" stroke="#ffd60a" stroke-width="1.5" stroke-linecap="round"/>
<text x="345" y="620" fill="#ffd60a" font-size="2" font-family="monospace" text-anchor="end" dominant-baseline="middle">PH4</text>
<line x1="370" y1="640" x2="350" y2="640" stroke="#ffd60a" stroke-width="1.5" stroke-linecap="round"/>
<text x="345" y="640" fill="#ffd60a" font-size="2" font-family="monospace" text-anchor="end" dominant-baseline="middle">PH5</text>
<line x1="370" y1="660" x2="350" y2="660" stroke="#ffd60a" stroke-width="1.5" stroke-linecap="round"/>
<text x="345" y="660" fill="#ffd60a" font-size="2" font-family="monospace" text-anchor="end" dominant-baseline="middle">PH6</text>
<line x1="370" y1="680" x2="350" y2="680" stroke="#ffd60a" stroke-width="1.5" stroke-linecap="round"/>
<text x="345" y="680" fill="#ffd60a" font-size="2" font-family="monospace" text-anchor="end" dominant-baseline="middle">PH7</text>
<line x1="370" y1="700" x2="350" y2="700" stroke="#ffd60a" stroke-width="1.5" stroke-linecap="round"/>
<text x="345" y="700" fill="#ffd60a" font-size="2" font-family="monospace" text-anchor="end" dominant-baseline="middle">PF7</text>
<line x1="370" y1="720" x2="350" y2="720" stroke="#ffd60a" stroke-width="1.5" stroke-linecap="round"/>
<text x="345" y="720" fill="#ffd60a" font-size="2" font-family="monospace" text-anchor="end" dominant-baseline="middle">PF6</text>
<line x1="370" y1="740" x2="350" y2="740" stroke="#ffd60a" stroke-width="1.5" stroke-linecap="round"/>
<text x="345" y="740" fill="#ffd60a" font-size="2" font-family="monospace" text-anchor="end" dominant-baseline="middle">PF5</text>
<line x1="370" y1="760" x2="350" y2="760" stroke="#ffd60a" stroke-width="1.5" stroke-linecap="round"/>
<text x="345" y="760" fill="#ffd60a" font-size="2" font-family="monospace" text-anchor="end" dominant-baseline="middle">PF4</text>
<line x1="370" y1="780" x2="350" y2="780" stroke="#ffd60a" stroke-width="1.5" stroke-linecap="round"/>
<text x="345" y="780" fill="#ffd60a" font-size="2" font-family="monospace" text-anchor="end" dominant-baseline="middle">PF3</text>
<line x1="370" y1="800" x2="350" y2="800" stroke="#ffd60a" stroke-width="1.5" stroke-linecap="round"/>
<text x="345" y="800" fill="#ffd60a" font-size="2" font-family="monospace" text-anchor="end" dominant-baseline="middle">PF2</text>
<line x1="370" y1="820" x2="350" y2="820" stroke="#ffd60a" stroke-width="1.5" stroke-linecap="round"/>
<text x="345" y="820" fill="#ffd60a" font-size="2" font-family="monospace" text-anchor="end" dominant-baseline="middle">PF1</text>
<line x1="370" y1="840" x2="350" y2="840" stroke="#ffd60a" stroke-width="1.5" stroke-linecap="round"/>
<text x="345" y="840" fill="#ffd60a" font-size="2" font-family="monospace" text-anchor="end" dominant-baseline="middle">PF0</text>
<line x1="370" y1="860" x2="350" y2="860" stroke="#ffd60a" stroke-width="1.5" stroke-linecap="round"/>
<text x="345" y="860" fill="#ffd60a" font-size="2" font-family="monospace" text-anchor="end" dominant-baseline="middle">AREF</text>
<line x1="60" y1="30" x2="60" y2="50" stroke="#ffd60a" stroke-width="1.5" stroke-linecap="round"/>
<text x="60" y="25" fill="#ffd60a" font-size="2" font-family="monospace" text-anchor="middle" dominant-baseline="middle">GND</text>
<line x1="80" y1="30" x2="80" y2="50" stroke="#ffd60a" stroke-width="1.5" stroke-linecap="round"/>
<text x="80" y="25" fill="#ffd60a" font-size="2" font-family="monospace" text-anchor="middle" dominant-baseline="middle">GND</text>
<line x1="100" y1="30" x2="100" y2="50" stroke="#ffd60a" stroke-width="1.5" stroke-linecap="round"/>
<text x="100" y="25" fill="#ffd60a" font-size="2" font-family="monospace" text-anchor="middle" dominant-baseline="middle">NC</text>
<line x1="120" y1="30" x2="120" y2="50" stroke="#ffd60a" stroke-width="1.5" stroke-linecap="round"/>
<text x="120" y="25" fill="#ffd60a" font-size="2" font-family="monospace" text-anchor="middle" dominant-baseline="middle">NC</text>
<line x1="140" y1="30" x2="140" y2="50" stroke="#ffd60a" stroke-width="1.5" stroke-linecap="round"/>
<text x="140" y="25" fill="#ffd60a" font-size="2" font-family="monospace" text-anchor="middle" dominant-baseline="middle">NC</text>
<line x1="160" y1="30" x2="160" y2="50" stroke="#ffd60a" stroke-width="1.5" stroke-linecap="round"/>
<text x="160" y="25" fill="#ffd60a" font-size="2" font-family="monospace" text-anchor="middle" dominant-baseline="middle">NC</text>
<line x1="180" y1="30" x2="180" y2="50" stroke="#ffd60a" stroke-width="1.5" stroke-linecap="round"/>
<text x="180" y="25" fill="#ffd60a" font-size="2" font-family="monospace" text-anchor="middle" dominant-baseline="middle">NC</text>
<line x1="200" y1="30" x2="200" y2="50" stroke="#ffd60a" stroke-width="1.5" stroke-linecap="round"/>
<text x="200" y="25" fill="#ffd60a" font-size="2" font-family="monospace" text-anchor="middle" dominant-baseline="middle">NC</text>
<line x1="220" y1="30" x2="220" y2="50" stroke="#ffd60a" stroke-width="1.5" stroke-linecap="round"/>
<text x="220" y="25" fill="#ffd60a" font-size="2" font-family="monospace" text-anchor="middle" dominant-baseline="middle">NC</text>
<line x1="240" y1="30" x2="240" y2="50" stroke="#ffd60a" stroke-width="1.5" stroke-linecap="round"/>
<text x="240" y="25" fill="#ffd60a" font-size="2" font-family="monospace" text-anchor="middle" dominant-baseline="middle">GND</text>
<line x1="260" y1="30" x2="260" y2="50" stroke="#ffd60a" stroke-width="1.5" stroke-linecap="round"/>
<text x="260" y="25" fill="#ffd60a" font-size="2" font-family="monospace" text-anchor="middle" dominant-baseline="middle">NC</text>
<line x1="280" y1="30" x2="280" y2="50" stroke="#ffd60a" stroke-width="1.5" stroke-linecap="round"/>
<text x="280" y="25" fill="#ffd60a" font-size="2" font-family="monospace" text-anchor="middle" dominant-baseline="middle">NC</text>
<line x1="300" y1="30" x2="300" y2="50" stroke="#ffd60a" stroke-width="1.5" stroke-linecap="round"/>
<text x="300" y="25" fill="#ffd60a" font-size="2" font-family="monospace" text-anchor="middle" dominant-baseline="middle">NC</text>
<line x1="320" y1="30" x2="320" y2="50" stroke="#ffd60a" stroke-width="1.5" stroke-linecap="round"/>
<text x="320" y="25" fill="#ffd60a" font-size="2" font-family="monospace" text-anchor="middle" dominant-baseline="middle">NC</text>
<line x1="340" y1="30" x2="340" y2="50" stroke="#ffd60a" stroke-width="1.5" stroke-linecap="round"/>
<text x="340" y="25" fill="#ffd60a" font-size="2" font-family="monospace" text-anchor="middle" dominant-baseline="middle">AGND</text>
<line x1="87.5" y1="890" x2="87.5" y2="870" stroke="#ffd60a" stroke-width="1.5" stroke-linecap="round"/>
<text x="87.5" y="904" fill="#ffd60a" font-size="2" font-family="monospace" text-anchor="middle" dominant-baseline="middle">VCC</text>
<line x1="162.5" y1="890" x2="162.5" y2="870" stroke="#ffd60a" stroke-width="1.5" stroke-linecap="round"/>
<text x="162.5" y="904" fill="#ffd60a" font-size="2" font-family="monospace" text-anchor="middle" dominant-baseline="middle">VCC</text>
<line x1="237.5" y1="890" x2="237.5" y2="870" stroke="#ffd60a" stroke-width="1.5" stroke-linecap="round"/>
<text x="237.5" y="904" fill="#ffd60a" font-size="2" font-family="monospace" text-anchor="middle" dominant-baseline="middle">VCC</text>
<line x1="312.5" y1="890" x2="312.5" y2="870" stroke="#ffd60a" stroke-width="1.5" stroke-linecap="round"/>
<text x="312.5" y="904" fill="#ffd60a" font-size="2" font-family="monospace" text-anchor="middle" dominant-baseline="middle">AVCC</text>
</svg>