<svg xmlns="http://www.w3.org/2000/svg" viewBox="0 0 23.240000000000002 14.35">
<polyline points="7.175000000000001,4 7.175000000000001,6.540000000000001 9.080000000000002,5.2700000000000005 7.175000000000001,4" stroke="#ffffff" stroke-width="0.3" stroke-linejoin="round" stroke-linecap="round" fill="none"/>
<line x1="7.8100000000000005" y1="5.2700000000000005" x2="10.350000000000001" y2="5.2700000000000005" stroke="#ffffff" stroke-width="0.3" stroke-linecap="round" fill="none"/>
<line x1="8.445" y1="6.540000000000001" x2="8.445" y2="6.2860000000000005" stroke="#ffffff" stroke-width="0.3" stroke-linecap="round" fill="none"/>
<line x1="9.080000000000002" y1="4" x2="9.715000000000002" y2="4" stroke="#ffffff" stroke-width="0.3" stroke-linecap="round" fill="none"/>
<line x1="9.080000000000002" y1="6.540000000000001" x2="8.445" y2="6.540000000000001" stroke="#ffffff" stroke-width="0.3" stroke-linecap="round" fill="none"/>
<line x1="9.080000000000002" y1="6.540000000000001" x2="9.080000000000002" y2="4" stroke="#ffffff" stroke-width="0.3" stroke-linecap="round" fill="none"/>
<line x1="9.715000000000002" y1="4" x2="9.715000000000002" y2="4.2540000000000004" stroke="#ffffff" stroke-width="0.3" stroke-linecap="round" fill="none"/>
<line x1="9.715000000000002" y1="5.2700000000000005" x2="13.525" y2="5.2700000000000005" stroke="#ffffff" stroke-width="0.3" stroke-linecap="round" fill="none"/>
<circle cx="11.620000000000001" cy="5.2700000000000005" r="0.254" stroke="#ffffff" stroke-width="0.3" fill="#ffffff"/>
<line x1="12.89" y1="5.2700000000000005" x2="15.430000000000001" y2="5.2700000000000005" stroke="#ffffff" stroke-width="0.3" stroke-linecap="round" fill="none"/>
<polyline points="13.525,4 13.525,6.540000000000001 15.430000000000001,5.2700000000000005 13.525,4" stroke="#ffffff" stroke-width="0.3" stroke-linejoin="round" stroke-linecap="round" fill="none"/>
<line x1="14.795000000000002" y1="6.540000000000001" x2="14.795000000000002" y2="6.2860000000000005" stroke="#ffffff" stroke-width="0.3" stroke-linecap="round" fill="none"/>
<line x1="15.430000000000001" y1="4" x2="16.065" y2="4" stroke="#ffffff" stroke-width="0.3" stroke-linecap="round" fill="none"/>
<line x1="15.430000000000001" y1="6.540000000000001" x2="14.795000000000002" y2="6.540000000000001" stroke="#ffffff" stroke-width="0.3" stroke-linecap="round" fill="none"/>
<line x1="15.430000000000001" y1="6.540000000000001" x2="15.430000000000001" y2="4" stroke="#ffffff" stroke-width="0.3" stroke-linecap="round" fill="none"/>
<line x1="16.065" y1="4" x2="16.065" y2="4.2540000000000004" stroke="#ffffff" stroke-width="0.3" stroke-linecap="round" fill="none"/>
<line x1="4.000000000000001" y1="5.2700000000000005" x2="7.8100000000000005" y2="5.2700000000000005" stroke="#ffd60a" stroke-width="0.332" stroke-linecap="round"/>
<line x1="19.240000000000002" y1="5.2700000000000005" x2="15.430000000000001" y2="5.27" stroke="#ffd60a" stroke-width="0.332" stroke-linecap="round"/>
<line x1="11.620000000000001" y1="10.350000000000001" x2="11.620000000000001" y2="5.2700000000000005" stroke="#ffd60a" stroke-width="0.332" stroke-linecap="round"/>
</svg>