<svg xmlns="http://www.w3.org/2000/svg" viewBox="0 0 620 260">
<rect x="50" y="50" width="520" height="160" stroke="#ffffff" stroke-width="1.5" fill="rgba(255,255,255,0.04)"/>
<text x="310" y="130" fill="#888" font-size="3" font-family="monospace" text-anchor="middle" dominant-baseline="middle">U</text>
<line x1="30" y1="66" x2="50" y2="66" stroke="#ffd60a" stroke-width="1.5" stroke-linecap="round"/>
<text x="55" y="66" fill="#ffd60a" font-size="2" font-family="monospace" text-anchor="start" dominant-baseline="middle">USIM_VDD</text>
<line x1="30" y1="98" x2="50" y2="98" stroke="#ffd60a" stroke-width="1.5" stroke-linecap="round"/>
<text x="55" y="98" fill="#ffd60a" font-size="2" font-family="monospace" text-anchor="start" dominant-baseline="middle">USIM_RST</text>
<line x1="30" y1="130" x2="50" y2="130" stroke="#ffd60a" stroke-width="1.5" stroke-linecap="round"/>
<text x="55" y="130" fill="#ffd60a" font-size="2" font-family="monospace" text-anchor="start" dominant-baseline="middle">USIM_DATA</text>
<line x1="30" y1="162" x2="50" y2="162" stroke="#ffd60a" stroke-width="1.5" stroke-linecap="round"/>
<text x="55" y="162" fill="#ffd60a" font-size="2" font-family="monospace" text-anchor="start" dominant-baseline="middle">USIM_CLK</text>
<line x1="30" y1="194" x2="50" y2="194" stroke="#ffd60a" stroke-width="1.5" stroke-linecap="round"/>
<text x="55" y="194" fill="#ffd60a" font-size="2" font-family="monospace" text-anchor="start" dominant-baseline="middle">RF_ANT</text>
<line x1="590" y1="60" x2="570" y2="60" stroke="#ffd60a" stroke-width="1.5" stroke-linecap="round"/>
<text x="565" y="60" fill="#ffd60a" font-size="2" font-family="monospace" text-anchor="end" dominant-baseline="middle">RESET</text>
<line x1="590" y1="80" x2="570" y2="80" stroke="#ffd60a" stroke-width="1.5" stroke-linecap="round"/>
<text x="565" y="80" fill="#ffd60a" font-size="2" font-family="monospace" text-anchor="end" dominant-baseline="middle">NETLIGHT</text>
<line x1="590" y1="100" x2="570" y2="100" stroke="#ffd60a" stroke-width="1.5" stroke-linecap="round"/>
<text x="565" y="100" fill="#ffd60a" font-size="2" font-family="monospace" text-anchor="end" dominant-baseline="middle">DBG_RXD</text>
<line x1="590" y1="120" x2="570" y2="120" stroke="#ffd60a" stroke-width="1.5" stroke-linecap="round"/>
<text x="565" y="120" fill="#ffd60a" font-size="2" font-family="monospace" text-anchor="end" dominant-baseline="middle">DBG_TXD</text>
<line x1="590" y1="140" x2="570" y2="140" stroke="#ffd60a" stroke-width="1.5" stroke-linecap="round"/>
<text x="565" y="140" fill="#ffd60a" font-size="2" font-family="monospace" text-anchor="end" dominant-baseline="middle">ADC</text>
<line x1="590" y1="160" x2="570" y2="160" stroke="#ffd60a" stroke-width="1.5" stroke-linecap="round"/>
<text x="565" y="160" fill="#ffd60a" font-size="2" font-family="monospace" text-anchor="end" dominant-baseline="middle">RXD</text>
<line x1="590" y1="180" x2="570" y2="180" stroke="#ffd60a" stroke-width="1.5" stroke-linecap="round"/>
<text x="565" y="180" fill="#ffd60a" font-size="2" font-family="monospace" text-anchor="end" dominant-baseline="middle">TXD</text>
<line x1="590" y1="200" x2="570" y2="200" stroke="#ffd60a" stroke-width="1.5" stroke-linecap="round"/>
<text x="565" y="200" fill="#ffd60a" font-size="2" font-family="monospace" text-anchor="end" dominant-baseline="middle">RI</text>
<line x1="60" y1="30" x2="60" y2="50" stroke="#ffd60a" stroke-width="1.5" stroke-linecap="round"/>
<text x="60" y="25" fill="#ffd60a" font-size="2" font-family="monospace" text-anchor="middle" dominant-baseline="middle">GND</text>
<line x1="80" y1="30" x2="80" y2="50" stroke="#ffd60a" stroke-width="1.5" stroke-linecap="round"/>
<text x="80" y="25" fill="#ffd60a" font-size="2" font-family="monospace" text-anchor="middle" dominant-baseline="middle">USIM_GND</text>
<line x1="100" y1="30" x2="100" y2="50" stroke="#ffd60a" stroke-width="1.5" stroke-linecap="round"/>
<text x="100" y="25" fill="#ffd60a" font-size="2" font-family="monospace" text-anchor="middle" dominant-baseline="middle">GND</text>
<line x1="120" y1="30" x2="120" y2="50" stroke="#ffd60a" stroke-width="1.5" stroke-linecap="round"/>
<text x="120" y="25" fill="#ffd60a" font-size="2" font-family="monospace" text-anchor="middle" dominant-baseline="middle">GND</text>
<line x1="140" y1="30" x2="140" y2="50" stroke="#ffd60a" stroke-width="1.5" stroke-linecap="round"/>
<text x="140" y="25" fill="#ffd60a" font-size="2" font-family="monospace" text-anchor="middle" dominant-baseline="middle">GND</text>
<line x1="160" y1="30" x2="160" y2="50" stroke="#ffd60a" stroke-width="1.5" stroke-linecap="round"/>
<text x="160" y="25" fill="#ffd60a" font-size="2" font-family="monospace" text-anchor="middle" dominant-baseline="middle">GND</text>
<line x1="180" y1="30" x2="180" y2="50" stroke="#ffd60a" stroke-width="1.5" stroke-linecap="round"/>
<text x="180" y="25" fill="#ffd60a" font-size="2" font-family="monospace" text-anchor="middle" dominant-baseline="middle">GND</text>
<line x1="200" y1="30" x2="200" y2="50" stroke="#ffd60a" stroke-width="1.5" stroke-linecap="round"/>
<text x="200" y="25" fill="#ffd60a" font-size="2" font-family="monospace" text-anchor="middle" dominant-baseline="middle">GND</text>
<line x1="220" y1="30" x2="220" y2="50" stroke="#ffd60a" stroke-width="1.5" stroke-linecap="round"/>
<text x="220" y="25" fill="#ffd60a" font-size="2" font-family="monospace" text-anchor="middle" dominant-baseline="middle">GND</text>
<line x1="240" y1="30" x2="240" y2="50" stroke="#ffd60a" stroke-width="1.5" stroke-linecap="round"/>
<text x="240" y="25" fill="#ffd60a" font-size="2" font-family="monospace" text-anchor="middle" dominant-baseline="middle">GND</text>
<line x1="260" y1="30" x2="260" y2="50" stroke="#ffd60a" stroke-width="1.5" stroke-linecap="round"/>
<text x="260" y="25" fill="#ffd60a" font-size="2" font-family="monospace" text-anchor="middle" dominant-baseline="middle">GND</text>
<line x1="280" y1="30" x2="280" y2="50" stroke="#ffd60a" stroke-width="1.5" stroke-linecap="round"/>
<text x="280" y="25" fill="#ffd60a" font-size="2" font-family="monospace" text-anchor="middle" dominant-baseline="middle">GND</text>
<line x1="300" y1="30" x2="300" y2="50" stroke="#ffd60a" stroke-width="1.5" stroke-linecap="round"/>
<text x="300" y="25" fill="#ffd60a" font-size="2" font-family="monospace" text-anchor="middle" dominant-baseline="middle">GND</text>
<line x1="320" y1="30" x2="320" y2="50" stroke="#ffd60a" stroke-width="1.5" stroke-linecap="round"/>
<text x="320" y="25" fill="#ffd60a" font-size="2" font-family="monospace" text-anchor="middle" dominant-baseline="middle">GND</text>
<line x1="340" y1="30" x2="340" y2="50" stroke="#ffd60a" stroke-width="1.5" stroke-linecap="round"/>
<text x="340" y="25" fill="#ffd60a" font-size="2" font-family="monospace" text-anchor="middle" dominant-baseline="middle">GND</text>
<line x1="360" y1="30" x2="360" y2="50" stroke="#ffd60a" stroke-width="1.5" stroke-linecap="round"/>
<text x="360" y="25" fill="#ffd60a" font-size="2" font-family="monospace" text-anchor="middle" dominant-baseline="middle">GND</text>
<line x1="380" y1="30" x2="380" y2="50" stroke="#ffd60a" stroke-width="1.5" stroke-linecap="round"/>
<text x="380" y="25" fill="#ffd60a" font-size="2" font-family="monospace" text-anchor="middle" dominant-baseline="middle">GND</text>
<line x1="400" y1="30" x2="400" y2="50" stroke="#ffd60a" stroke-width="1.5" stroke-linecap="round"/>
<text x="400" y="25" fill="#ffd60a" font-size="2" font-family="monospace" text-anchor="middle" dominant-baseline="middle">GND</text>
<line x1="420" y1="30" x2="420" y2="50" stroke="#ffd60a" stroke-width="1.5" stroke-linecap="round"/>
<text x="420" y="25" fill="#ffd60a" font-size="2" font-family="monospace" text-anchor="middle" dominant-baseline="middle">GND</text>
<line x1="440" y1="30" x2="440" y2="50" stroke="#ffd60a" stroke-width="1.5" stroke-linecap="round"/>
<text x="440" y="25" fill="#ffd60a" font-size="2" font-family="monospace" text-anchor="middle" dominant-baseline="middle">GND</text>
<line x1="460" y1="30" x2="460" y2="50" stroke="#ffd60a" stroke-width="1.5" stroke-linecap="round"/>
<text x="460" y="25" fill="#ffd60a" font-size="2" font-family="monospace" text-anchor="middle" dominant-baseline="middle">GND</text>
<line x1="480" y1="30" x2="480" y2="50" stroke="#ffd60a" stroke-width="1.5" stroke-linecap="round"/>
<text x="480" y="25" fill="#ffd60a" font-size="2" font-family="monospace" text-anchor="middle" dominant-baseline="middle">GND</text>
<line x1="500" y1="30" x2="500" y2="50" stroke="#ffd60a" stroke-width="1.5" stroke-linecap="round"/>
<text x="500" y="25" fill="#ffd60a" font-size="2" font-family="monospace" text-anchor="middle" dominant-baseline="middle">GND</text>
<line x1="520" y1="30" x2="520" y2="50" stroke="#ffd60a" stroke-width="1.5" stroke-linecap="round"/>
<text x="520" y="25" fill="#ffd60a" font-size="2" font-family="monospace" text-anchor="middle" dominant-baseline="middle">GND</text>
<line x1="540" y1="30" x2="540" y2="50" stroke="#ffd60a" stroke-width="1.5" stroke-linecap="round"/>
<text x="540" y="25" fill="#ffd60a" font-size="2" font-family="monospace" text-anchor="middle" dominant-baseline="middle">GND</text>
<line x1="560" y1="30" x2="560" y2="50" stroke="#ffd60a" stroke-width="1.5" stroke-linecap="round"/>
<text x="560" y="25" fill="#ffd60a" font-size="2" font-family="monospace" text-anchor="middle" dominant-baseline="middle">GND</text>
<line x1="136.66666666666666" y1="230" x2="136.66666666666666" y2="210" stroke="#ffd60a" stroke-width="1.5" stroke-linecap="round"/>
<text x="136.66666666666666" y="244" fill="#ffd60a" font-size="2" font-family="monospace" text-anchor="middle" dominant-baseline="middle">VDD_EXT</text>
<line x1="310" y1="230" x2="310" y2="210" stroke="#ffd60a" stroke-width="1.5" stroke-linecap="round"/>
<text x="310" y="244" fill="#ffd60a" font-size="2" font-family="monospace" text-anchor="middle" dominant-baseline="middle">VBAT</text>
<line x1="483.33333333333337" y1="230" x2="483.33333333333337" y2="210" stroke="#ffd60a" stroke-width="1.5" stroke-linecap="round"/>
<text x="483.33333333333337" y="244" fill="#ffd60a" font-size="2" font-family="monospace" text-anchor="middle" dominant-baseline="middle">VBAT</text>
</svg>