<svg xmlns="http://www.w3.org/2000/svg" viewBox="0 0 34.32 34.32">
<rect x="7" y="27.32" width="20.32" height="20.32" stroke="#ffffff" stroke-width="0.3" fill="rgba(255,255,255,0.06)"/>
<polyline points="12.842,18.684 12.842,20.716 14.620000000000001,19.7 12.842,18.684" stroke="#ffffff" stroke-width="0.3" stroke-linejoin="round" stroke-linecap="round" fill="none"/>
<line x1="12.842" y1="19.7" x2="12.334" y2="19.7" stroke="#ffffff" stroke-width="0.3" stroke-linecap="round" fill="none"/>
<circle cx="13.35" cy="14.620000000000001" r="0.254" stroke="#ffffff" stroke-width="0.3" fill="#ffffff"/>
<line x1="13.35" y1="14.620000000000001" x2="11.572" y2="14.620000000000001" stroke="#ffffff" stroke-width="0.3" stroke-linecap="round" fill="none"/>
<polyline points="14.366,17.16 13.35,17.16 13.35,12.08 14.366,12.08" stroke="#ffffff" stroke-width="0.3" stroke-linejoin="round" stroke-linecap="round" fill="none"/>
<circle cx="14.874" cy="19.7" r="0.254" stroke="#ffffff" stroke-width="0.3" fill="none"/>
<line x1="15.89" y1="12.08" x2="15.89" y2="12.842" stroke="#ffffff" stroke-width="0.3" stroke-linecap="round" fill="none"/>
<line x1="15.89" y1="13.35" x2="15.89" y2="14.112" stroke="#ffffff" stroke-width="0.3" stroke-linecap="round" fill="none"/>
<line x1="15.89" y1="14.620000000000001" x2="15.89" y2="15.382" stroke="#ffffff" stroke-width="0.3" stroke-linecap="round" fill="none"/>
<line x1="15.89" y1="15.89" x2="15.89" y2="16.652" stroke="#ffffff" stroke-width="0.3" stroke-linecap="round" fill="none"/>
<line x1="15.89" y1="18.43" x2="15.89" y2="17.668" stroke="#ffffff" stroke-width="0.3" stroke-linecap="round" fill="none"/>
<line x1="15.89" y1="19.7" x2="15.128" y2="19.7" stroke="#ffffff" stroke-width="0.3" stroke-linecap="round" fill="none"/>
<line x1="15.89" y1="19.7" x2="15.89" y2="18.938" stroke="#ffffff" stroke-width="0.3" stroke-linecap="round" fill="none"/>
<line x1="17.414" y1="12.08" x2="22.748" y2="12.08" stroke="#ffffff" stroke-width="0.3" stroke-linecap="round" fill="none"/>
<line x1="17.414" y1="17.16" x2="22.748" y2="17.16" stroke="#ffffff" stroke-width="0.3" stroke-linecap="round" fill="none"/>
<circle cx="14.620000000000001" cy="12.08" r="0.254" stroke="#ffffff" stroke-width="0.3" fill="none"/>
<circle cx="14.620000000000001" cy="17.16" r="0.254" stroke="#ffffff" stroke-width="0.3" fill="none"/>
<line x1="14.874" y1="12.08" x2="16.906" y2="11.318000000000001" stroke="#ffffff" stroke-width="0.3" stroke-linecap="round" fill="none"/>
<line x1="14.874" y1="17.16" x2="17.287" y2="16.779" stroke="#ffffff" stroke-width="0.3" stroke-linecap="round" fill="none"/>
<circle cx="17.16" cy="12.08" r="0.254" stroke="#ffffff" stroke-width="0.3" fill="none"/>
<circle cx="17.16" cy="17.16" r="0.254" stroke="#ffffff" stroke-width="0.3" fill="none"/>
<line x1="29.86" y1="12.08" x2="27.32" y2="12.08" stroke="#ffd60a" stroke-width="0.49028571428571427" stroke-linecap="round"/>
<text x="30.32" y="12.08" fill="#ffd60a" font-size="1" font-family="monospace" text-anchor="end" dominant-baseline="middle">RF2</text>
<line x1="17.16" y1="29.86" x2="17.16" y2="27.32" stroke="#ffd60a" stroke-width="0.49028571428571427" stroke-linecap="round"/>
<text x="17.16" y="30.32" fill="#ffd60a" font-size="1" font-family="monospace" text-anchor="middle" dominant-baseline="middle">GND</text>
<line x1="29.86" y1="17.16" x2="27.32" y2="17.16" stroke="#ffd60a" stroke-width="0.49028571428571427" stroke-linecap="round"/>
<text x="30.32" y="17.16" fill="#ffd60a" font-size="1" font-family="monospace" text-anchor="end" dominant-baseline="middle">RF1</text>
<line x1="17.16" y1="4.460000000000001" x2="17.16" y2="7" stroke="#ffd60a" stroke-width="0.49028571428571427" stroke-linecap="round"/>
<text x="17.16" y="4" fill="#ffd60a" font-size="1" font-family="monospace" text-anchor="middle" dominant-baseline="middle">VDD</text>
<line x1="4.460000000000001" y1="14.620000000000001" x2="7" y2="14.620000000000001" stroke="#ffd60a" stroke-width="0.49028571428571427" stroke-linecap="round"/>
<text x="4" y="14.620000000000001" fill="#ffd60a" font-size="1" font-family="monospace" text-anchor="start" dominant-baseline="middle">RFIN</text>
<line x1="4.460000000000001" y1="19.7" x2="7" y2="19.7" stroke="#ffd60a" stroke-width="0.49028571428571427" stroke-linecap="round"/>
<text x="4" y="19.7" fill="#ffd60a" font-size="1" font-family="monospace" text-anchor="start" dominant-baseline="middle">CTRL</text>
</svg>