<svg xmlns="http://www.w3.org/2000/svg" viewBox="0 0 31.32 24.16">
<polyline points="19.826999999999998,12.08 19.826999999999998,8.27 24.78,8.27" stroke="#ffffff" stroke-width="0.3" stroke-linejoin="round" stroke-linecap="round" fill="none"/>
<line x1="24.78" y1="9.413" x2="24.78" y2="7" stroke="#ffffff" stroke-width="0.3" stroke-linecap="round" fill="none"/>
<line x1="24.78" y1="14.747" x2="24.78" y2="17.16" stroke="#ffffff" stroke-width="0.3" stroke-linecap="round" fill="none"/>
<rect x="7.7620000000000005" y="12.588000000000001" width="2.159" height="1.016" stroke="#ffffff" stroke-width="0.3" fill="none"/>
<line x1="7.7620000000000005" y1="12.08" x2="7" y2="12.08" stroke="#ffffff" stroke-width="0.3" stroke-linecap="round" fill="none"/>
<line x1="9.921" y1="12.08" x2="11.953" y2="12.08" stroke="#ffffff" stroke-width="0.3" stroke-linecap="round" fill="none"/>
<polyline points="10.937000000000001,12.08 10.937000000000001,8.27 19.826999999999998,8.27" stroke="#ffffff" stroke-width="0.3" stroke-linejoin="round" stroke-linecap="round" fill="none"/>
<line x1="15.382" y1="8.27" x2="15.382" y2="10.302" stroke="#ffffff" stroke-width="0.3" stroke-linecap="round" fill="none"/>
<rect x="7" y="17.16" width="20.32" height="10.16" stroke="#ffffff" stroke-width="0.3" fill="rgba(255,255,255,0.06)"/>
<polyline points="10.429,9.032 10.556000000000001,9.159 11.318000000000001,9.159 11.445,9.286" stroke="#ffffff" stroke-width="0.3" stroke-linejoin="round" stroke-linecap="round" fill="none"/>
<polyline points="10.937000000000001,9.159 10.556000000000001,9.794 11.318000000000001,9.794 10.937000000000001,9.159" stroke="#ffffff" stroke-width="0.3" stroke-linejoin="round" stroke-linecap="round" fill="none"/>
<circle cx="10.937000000000001" cy="12.08" r="0.2794" stroke="#ffffff" stroke-width="0.3" fill="#ffffff"/>
<rect x="11.953" y="13.858" width="6.731" height="3.556" stroke="#ffffff" stroke-width="0.3" fill="none"/>
<circle cx="15.382" cy="8.27" r="0.2794" stroke="#ffffff" stroke-width="0.3" fill="#ffffff"/>
<polyline points="19.319,9.032 19.446,9.159 20.208,9.159 20.335,9.286" stroke="#ffffff" stroke-width="0.3" stroke-linejoin="round" stroke-linecap="round" fill="none"/>
<circle cx="19.826999999999998" cy="8.27" r="0.2794" stroke="#ffffff" stroke-width="0.3" fill="#ffffff"/>
<polyline points="19.826999999999998,9.159 19.446,9.794 20.208,9.794 19.826999999999998,9.159" stroke="#ffffff" stroke-width="0.3" stroke-linejoin="round" stroke-linecap="round" fill="none"/>
<polyline points="19.826999999999998,11.191 20.208,10.556000000000001 19.446,10.556000000000001 19.826999999999998,11.191" stroke="#ffffff" stroke-width="0.3" stroke-linejoin="round" stroke-linecap="round" fill="none"/>
<line x1="19.826999999999998" y1="12.08" x2="18.684" y2="12.08" stroke="#ffffff" stroke-width="0.3" stroke-linecap="round" fill="none"/>
<line x1="19.826999999999998" y1="12.08" x2="22.494" y2="12.08" stroke="#ffffff" stroke-width="0.3" stroke-linecap="round" fill="none"/>
<circle cx="19.826999999999998" cy="12.08" r="0.2794" stroke="#ffffff" stroke-width="0.3" fill="#ffffff"/>
<line x1="20.208" y1="11.191" x2="19.446" y2="11.191" stroke="#ffffff" stroke-width="0.3" stroke-linecap="round" fill="none"/>
<line x1="22.494" y1="10.175" x2="22.494" y2="13.985" stroke="#ffffff" stroke-width="0.3" stroke-linecap="round" fill="none"/>
<line x1="23.002" y1="9.794" x2="23.002" y2="10.81" stroke="#ffffff" stroke-width="0.3" stroke-linecap="round" fill="none"/>
<line x1="23.002" y1="10.302" x2="24.78" y2="10.302" stroke="#ffffff" stroke-width="0.3" stroke-linecap="round" fill="none"/>
<line x1="23.002" y1="11.572" x2="23.002" y2="12.588000000000001" stroke="#ffffff" stroke-width="0.3" stroke-linecap="round" fill="none"/>
<line x1="23.002" y1="12.08" x2="24.78" y2="12.08" stroke="#ffffff" stroke-width="0.3" stroke-linecap="round" fill="none"/>
<line x1="23.002" y1="13.35" x2="23.002" y2="14.366" stroke="#ffffff" stroke-width="0.3" stroke-linecap="round" fill="none"/>
<line x1="23.002" y1="13.858" x2="24.78" y2="13.858" stroke="#ffffff" stroke-width="0.3" stroke-linecap="round" fill="none"/>
<polyline points="23.256,12.08 24.272,11.699 24.272,12.461 23.256,12.08" stroke="#ffffff" stroke-width="0.3" stroke-linejoin="round" stroke-linecap="round" fill="#ffffff"/>
<circle cx="23.891" cy="12.08" r="2.8194" stroke="#ffffff" stroke-width="0.3" fill="none"/>
<circle cx="24.78" cy="8.27" r="0.2794" stroke="#ffffff" stroke-width="0.3" fill="#ffffff"/>
<line x1="24.78" y1="9.413" x2="24.78" y2="10.302" stroke="#ffffff" stroke-width="0.3" stroke-linecap="round" fill="none"/>
<circle cx="24.78" cy="10.302" r="0.2794" stroke="#ffffff" stroke-width="0.3" fill="#ffffff"/>
<line x1="24.78" y1="13.858" x2="24.78" y2="12.08" stroke="#ffffff" stroke-width="0.3" stroke-linecap="round" fill="none"/>
<line x1="24.78" y1="13.858" x2="24.78" y2="14.747" stroke="#ffffff" stroke-width="0.3" stroke-linecap="round" fill="none"/>
<polyline points="24.78,13.858 25.542,13.858 25.542,10.302 24.78,10.302" stroke="#ffffff" stroke-width="0.3" stroke-linejoin="round" stroke-linecap="round" fill="none"/>
<circle cx="24.78" cy="13.858" r="0.2794" stroke="#ffffff" stroke-width="0.3" fill="#ffffff"/>
<polyline points="25.542,11.699 25.161,12.334 25.923000000000002,12.334 25.542,11.699" stroke="#ffffff" stroke-width="0.3" stroke-linejoin="round" stroke-linecap="round" fill="none"/>
<line x1="25.923000000000002" y1="11.699" x2="25.161" y2="11.699" stroke="#ffffff" stroke-width="0.3" stroke-linecap="round" fill="none"/>
<line x1="4.460000000000001" y1="12.08" x2="7" y2="12.08" stroke="#ffd60a" stroke-width="0.44742857142857145" stroke-linecap="round"/>
<text x="4" y="12.08" fill="#ffd60a" font-size="1" font-family="monospace" text-anchor="start" dominant-baseline="middle">IN</text>
<line x1="24.78" y1="4.46" x2="24.78" y2="7" stroke="#ffd60a" stroke-width="0.44742857142857145" stroke-linecap="round"/>
<text x="24.78" y="4" fill="#ffd60a" font-size="1" font-family="monospace" text-anchor="middle" dominant-baseline="middle">V_{bb}</text>
<line x1="24.78" y1="19.7" x2="24.78" y2="17.16" stroke="#ffd60a" stroke-width="0.44742857142857145" stroke-linecap="round"/>
<text x="24.78" y="20.16" fill="#ffd60a" font-size="1" font-family="monospace" text-anchor="middle" dominant-baseline="middle">OUT</text>
<line x1="24.78" y1="4.46" x2="24.78" y2="7" stroke="#ffd60a" stroke-width="0.44742857142857145" stroke-linecap="round"/>
<text x="24.78" y="4" fill="#ffd60a" font-size="1" font-family="monospace" text-anchor="middle" dominant-baseline="middle">V_{bb}</text>
</svg>