<svg xmlns="http://www.w3.org/2000/svg" viewBox="0 0 16.255 23.240000000000002">
<line x1="5.27" y1="11.620000000000001" x2="6.7940000000000005" y2="11.620000000000001" stroke="#ffffff" stroke-width="0.3" stroke-linecap="round" fill="none"/>
<line x1="6.54" y1="15.430000000000001" x2="4" y2="7.8100000000000005" stroke="#ffffff" stroke-width="0.3" stroke-linecap="round" fill="none"/>
<line x1="7.302" y1="11.620000000000001" x2="8.572" y2="11.620000000000001" stroke="#ffffff" stroke-width="0.3" stroke-linecap="round" fill="none"/>
<line x1="9.08" y1="11.620000000000001" x2="10.35" y2="11.620000000000001" stroke="#ffffff" stroke-width="0.3" stroke-linecap="round" fill="none"/>
<line x1="11.620000000000001" y1="15.430000000000001" x2="9.08" y2="7.8100000000000005" stroke="#ffffff" stroke-width="0.3" stroke-linecap="round" fill="none"/>
<line x1="11.620000000000001" y1="16.700000000000003" x2="11.620000000000001" y2="15.430000000000001" stroke="#ffffff" stroke-width="0.3" stroke-linecap="round" fill="none"/>
<line x1="5.905" y1="7.175000000000001" x2="7.175" y2="8.445" stroke="#ffffff" stroke-width="0.3" stroke-linecap="round" fill="none"/>
<line x1="6.54" y1="6.540000000000001" x2="6.54" y2="7.8100000000000005" stroke="#ffffff" stroke-width="0.3" stroke-linecap="round" fill="none"/>
<line x1="6.54" y1="15.430000000000001" x2="6.54" y2="16.700000000000003" stroke="#ffffff" stroke-width="0.3" stroke-linecap="round" fill="none"/>
<line x1="7.175" y1="7.175000000000001" x2="5.905" y2="8.445" stroke="#ffffff" stroke-width="0.3" stroke-linecap="round" fill="none"/>
<line x1="10.985" y1="7.175000000000001" x2="12.254999999999999" y2="8.445" stroke="#ffffff" stroke-width="0.3" stroke-linecap="round" fill="none"/>
<line x1="11.620000000000001" y1="6.540000000000001" x2="11.620000000000001" y2="7.8100000000000005" stroke="#ffffff" stroke-width="0.3" stroke-linecap="round" fill="none"/>
<line x1="12.254999999999999" y1="7.175000000000001" x2="10.985" y2="8.445" stroke="#ffffff" stroke-width="0.3" stroke-linecap="round" fill="none"/>
<line x1="6.54" y1="4.000000000000001" x2="6.539999999999999" y2="6.540000000000001" stroke="#ffd60a" stroke-width="0.332" stroke-linecap="round"/>
<line x1="6.54" y1="19.240000000000002" x2="6.54" y2="16.700000000000003" stroke="#ffd60a" stroke-width="0.332" stroke-linecap="round"/>
<line x1="11.620000000000001" y1="4.000000000000001" x2="11.62" y2="6.540000000000001" stroke="#ffd60a" stroke-width="0.332" stroke-linecap="round"/>
<line x1="11.620000000000001" y1="19.240000000000002" x2="11.620000000000001" y2="16.700000000000003" stroke="#ffd60a" stroke-width="0.332" stroke-linecap="round"/>
</svg>