<svg xmlns="http://www.w3.org/2000/svg" viewBox="0 0 21.335 23.240000000000002">
<line x1="5.270000000000001" y1="11.620000000000001" x2="6.794000000000001" y2="11.620000000000001" stroke="#ffffff" stroke-width="0.3" stroke-linecap="round" fill="none"/>
<line x1="5.905000000000001" y1="7.175000000000001" x2="7.175000000000001" y2="8.445" stroke="#ffffff" stroke-width="0.3" stroke-linecap="round" fill="none"/>
<line x1="6.540000000000001" y1="6.540000000000001" x2="6.540000000000001" y2="7.8100000000000005" stroke="#ffffff" stroke-width="0.3" stroke-linecap="round" fill="none"/>
<line x1="6.540000000000001" y1="15.430000000000001" x2="4.000000000000001" y2="7.8100000000000005" stroke="#ffffff" stroke-width="0.3" stroke-linecap="round" fill="none"/>
<line x1="6.540000000000001" y1="16.700000000000003" x2="6.540000000000001" y2="15.430000000000001" stroke="#ffffff" stroke-width="0.3" stroke-linecap="round" fill="none"/>
<line x1="7.175000000000001" y1="7.175000000000001" x2="5.905000000000001" y2="8.445" stroke="#ffffff" stroke-width="0.3" stroke-linecap="round" fill="none"/>
<polyline points="7.302000000000001,11.620000000000001 8.826,11.620000000000001 8.572000000000001,11.620000000000001" stroke="#ffffff" stroke-width="0.3" stroke-linejoin="round" stroke-linecap="round" fill="none"/>
<line x1="9.334000000000001" y1="11.620000000000001" x2="11.112000000000002" y2="11.620000000000001" stroke="#ffffff" stroke-width="0.3" stroke-linecap="round" fill="none"/>
<polyline points="10.985000000000001,7.175000000000001 11.620000000000001,7.8100000000000005 12.255,8.445" stroke="#ffffff" stroke-width="0.3" stroke-linejoin="round" stroke-linecap="round" fill="none"/>
<line x1="11.620000000000001" y1="6.540000000000001" x2="11.620000000000001" y2="7.8100000000000005" stroke="#ffffff" stroke-width="0.3" stroke-linecap="round" fill="none"/>
<line x1="11.620000000000001" y1="11.620000000000001" x2="13.144000000000002" y2="11.620000000000001" stroke="#ffffff" stroke-width="0.3" stroke-linecap="round" fill="none"/>
<line x1="11.620000000000001" y1="15.430000000000001" x2="9.080000000000002" y2="7.8100000000000005" stroke="#ffffff" stroke-width="0.3" stroke-linecap="round" fill="none"/>
<line x1="11.620000000000001" y1="16.700000000000003" x2="11.620000000000001" y2="15.430000000000001" stroke="#ffffff" stroke-width="0.3" stroke-linecap="round" fill="none"/>
<line x1="12.255" y1="7.175000000000001" x2="10.985000000000001" y2="8.445" stroke="#ffffff" stroke-width="0.3" stroke-linecap="round" fill="none"/>
<line x1="13.652000000000001" y1="11.620000000000001" x2="15.430000000000001" y2="11.620000000000001" stroke="#ffffff" stroke-width="0.3" stroke-linecap="round" fill="none"/>
<line x1="16.065" y1="7.175000000000001" x2="17.335" y2="8.445" stroke="#ffffff" stroke-width="0.3" stroke-linecap="round" fill="none"/>
<line x1="16.700000000000003" y1="6.540000000000001" x2="16.700000000000003" y2="7.8100000000000005" stroke="#ffffff" stroke-width="0.3" stroke-linecap="round" fill="none"/>
<line x1="16.700000000000003" y1="15.430000000000001" x2="14.16" y2="7.8100000000000005" stroke="#ffffff" stroke-width="0.3" stroke-linecap="round" fill="none"/>
<line x1="16.700000000000003" y1="16.700000000000003" x2="16.700000000000003" y2="15.430000000000001" stroke="#ffffff" stroke-width="0.3" stroke-linecap="round" fill="none"/>
<line x1="17.335" y1="7.175000000000001" x2="16.065" y2="8.445" stroke="#ffffff" stroke-width="0.3" stroke-linecap="round" fill="none"/>
<line x1="6.540000000000001" y1="4.000000000000001" x2="6.54" y2="6.540000000000001" stroke="#ffd60a" stroke-width="0.332" stroke-linecap="round"/>
<line x1="6.540000000000001" y1="19.240000000000002" x2="6.540000000000001" y2="16.700000000000003" stroke="#ffd60a" stroke-width="0.332" stroke-linecap="round"/>
<line x1="11.620000000000001" y1="4.000000000000001" x2="11.620000000000001" y2="6.540000000000001" stroke="#ffd60a" stroke-width="0.332" stroke-linecap="round"/>
<line x1="11.620000000000001" y1="19.240000000000002" x2="11.620000000000001" y2="16.700000000000003" stroke="#ffd60a" stroke-width="0.332" stroke-linecap="round"/>
<line x1="16.700000000000003" y1="4.000000000000001" x2="16.7" y2="6.540000000000001" stroke="#ffd60a" stroke-width="0.332" stroke-linecap="round"/>
<line x1="16.700000000000003" y1="19.240000000000002" x2="16.700000000000003" y2="16.700000000000003" stroke="#ffd60a" stroke-width="0.332" stroke-linecap="round"/>
</svg>