<svg xmlns="http://www.w3.org/2000/svg" viewBox="0 0 21.5994 23.240000000000002">
<path d="M 11.62 7.8100000000000005 A 8.519579919946631 8.519579919946631 0 0 1 11.62 15.430000000000001" stroke="#ffffff" stroke-width="0.3" fill="none"/>
<line x1="7.429" y1="11.620000000000001" x2="8.445" y2="11.620000000000001" stroke="#ffffff" stroke-width="0.3" stroke-linecap="round" fill="none"/>
<line x1="8.953" y1="11.620000000000001" x2="9.969" y2="11.620000000000001" stroke="#ffffff" stroke-width="0.3" stroke-linecap="round" fill="none"/>
<circle cx="9.715" cy="7.175000000000001" r="0.635" stroke="#ffffff" stroke-width="0.3" fill="none"/>
<circle cx="9.715" cy="16.065" r="0.635" stroke="#ffffff" stroke-width="0.3" fill="none"/>
<line x1="10.477" y1="11.620000000000001" x2="11.493" y2="11.620000000000001" stroke="#ffffff" stroke-width="0.3" stroke-linecap="round" fill="none"/>
<line x1="12.001" y1="11.620000000000001" x2="13.017" y2="11.620000000000001" stroke="#ffffff" stroke-width="0.3" stroke-linecap="round" fill="none"/>
<line x1="13.525" y1="11.620000000000001" x2="14.541" y2="11.620000000000001" stroke="#ffffff" stroke-width="0.3" stroke-linecap="round" fill="none"/>
<line x1="15.049" y1="11.620000000000001" x2="16.064999999999998" y2="11.620000000000001" stroke="#ffffff" stroke-width="0.3" stroke-linecap="round" fill="none"/>
<line x1="16.573" y1="11.620000000000001" x2="17.589" y2="11.620000000000001" stroke="#ffffff" stroke-width="0.3" stroke-linecap="round" fill="none"/>
<path d="M 6.54 7.8100000000000005 A 8.519579919946631 8.519579919946631 0 0 1 6.54 15.430000000000001" stroke="#ffffff" stroke-width="0.3" fill="none"/>
<circle cx="4.635" cy="7.175000000000001" r="0.635" stroke="#ffffff" stroke-width="0.3" fill="none"/>
<circle cx="4.635" cy="16.065" r="0.635" stroke="#ffffff" stroke-width="0.3" fill="none"/>
<path d="M 16.7 7.8100000000000005 A 8.519579919946635 8.519579919946635 0 0 1 16.7 15.430000000000001" stroke="#ffffff" stroke-width="0.3" fill="none"/>
<circle cx="14.795" cy="7.175000000000001" r="0.635" stroke="#ffffff" stroke-width="0.3" fill="none"/>
<circle cx="14.795" cy="16.065" r="0.635" stroke="#ffffff" stroke-width="0.3" fill="none"/>
<line x1="4.635" y1="4.000000000000001" x2="4.634999999999999" y2="6.540000000000001" stroke="#ffd60a" stroke-width="0.332" stroke-linecap="round"/>
<line x1="4.635" y1="19.240000000000002" x2="4.635" y2="16.700000000000003" stroke="#ffd60a" stroke-width="0.332" stroke-linecap="round"/>
<line x1="9.715" y1="4.000000000000001" x2="9.715" y2="6.540000000000001" stroke="#ffd60a" stroke-width="0.332" stroke-linecap="round"/>
<line x1="9.715" y1="19.240000000000002" x2="9.715" y2="16.700000000000003" stroke="#ffd60a" stroke-width="0.332" stroke-linecap="round"/>
<line x1="14.795" y1="4.000000000000001" x2="14.794999999999998" y2="6.540000000000001" stroke="#ffd60a" stroke-width="0.332" stroke-linecap="round"/>
<line x1="14.795" y1="19.240000000000002" x2="14.795" y2="16.700000000000003" stroke="#ffd60a" stroke-width="0.332" stroke-linecap="round"/>
</svg>