<svg xmlns="http://www.w3.org/2000/svg" viewBox="0 0 19.08 15.318">
<circle cx="7.507999999999999" cy="7.048" r="0.508" stroke="#ffffff" stroke-width="0.3" fill="none"/>
<line x1="9.54" y1="5.7780000000000005" x2="9.54" y2="4" stroke="#ffffff" stroke-width="0.3" stroke-linecap="round" fill="none"/>
<polyline points="10.047999999999998,4.508 12.588,4.508 12.588,8.191 6.491999999999999,8.191 6.491999999999999,4.508 9.032,4.508" stroke="#ffffff" stroke-width="0.3" stroke-linejoin="round" stroke-linecap="round" fill="none"/>
<polyline points="10.047999999999998,4.508 12.588,4.508 12.588,8.191 6.491999999999999,8.191 6.491999999999999,4.508 9.032,4.508" stroke="#ffffff" stroke-width="0.3" stroke-linejoin="round" stroke-linecap="round" fill="none"/>
<circle cx="11.572" cy="7.048" r="0.508" stroke="#ffffff" stroke-width="0.3" fill="none"/>
<line x1="12.079999999999998" y1="5.7780000000000005" x2="6.999999999999999" y2="5.7780000000000005" stroke="#ffffff" stroke-width="0.3" stroke-linecap="round" fill="none"/>
<rect x="6.491999999999999" y="8.318" width="6.096" height="3.81" stroke="#ffffff" stroke-width="0.3" fill="rgba(255,255,255,0.06)"/>
<line x1="4.459999999999999" y1="7.048" x2="6.999999999999999" y2="7.048" stroke="#ffd60a" stroke-width="0.2725714285714285" stroke-linecap="round"/>
<text x="3.999999999999999" y="7.048" fill="#ffd60a" font-size="1" font-family="monospace" text-anchor="start" dominant-baseline="middle">1</text>
<line x1="14.62" y1="7.048" x2="12.079999999999998" y2="7.048" stroke="#ffd60a" stroke-width="0.2725714285714285" stroke-linecap="round"/>
<text x="15.079999999999998" y="7.048" fill="#ffd60a" font-size="1" font-family="monospace" text-anchor="end" dominant-baseline="middle">2</text>
<line x1="9.54" y1="10.858" x2="9.54" y2="8.318" stroke="#ffd60a" stroke-width="0.2725714285714285" stroke-linecap="round"/>
<text x="9.54" y="11.318" fill="#ffd60a" font-size="1" font-family="monospace" text-anchor="middle" dominant-baseline="middle">B</text>
</svg>