<svg xmlns="http://www.w3.org/2000/svg" viewBox="0 0 19.08 18.366">
<polyline points="6.999999999999999,5.27 6.999999999999999,4 12.079999999999998,4 12.079999999999998,5.27" stroke="#ffffff" stroke-width="0.3" stroke-linejoin="round" stroke-linecap="round" fill="none"/>
<line x1="6.999999999999999" y1="7.556" x2="7.507999999999999" y2="7.556" stroke="#ffffff" stroke-width="0.3" stroke-linecap="round" fill="none"/>
<polyline points="6.999999999999999,9.842 6.999999999999999,11.112 12.079999999999998,11.112 12.079999999999998,9.842" stroke="#ffffff" stroke-width="0.3" stroke-linejoin="round" stroke-linecap="round" fill="none"/>
<line x1="7.507999999999999" y1="8.826" x2="7.507999999999999" y2="6.286" stroke="#ffffff" stroke-width="0.508" stroke-linecap="round" fill="none"/>
<rect x="8.396999999999998" y="10.096" width="2.286" height="5.08" stroke="#ffffff" stroke-width="0.3048" fill="none"/>
<line x1="9.54" y1="11.366" x2="9.54" y2="11.112" stroke="#ffffff" stroke-width="0.3" stroke-linecap="round" fill="none"/>
<line x1="11.572" y1="7.556" x2="12.079999999999998" y2="7.556" stroke="#ffffff" stroke-width="0.3" stroke-linecap="round" fill="none"/>
<line x1="11.572" y1="8.826" x2="11.572" y2="6.286" stroke="#ffffff" stroke-width="0.508" stroke-linecap="round" fill="none"/>
<line x1="5.729999999999999" y1="7.556" x2="6.999999999999999" y2="7.556" stroke="#ffd60a" stroke-width="0.2725714285714285" stroke-linecap="round"/>
<text x="3.999999999999999" y="7.556" fill="#ffd60a" font-size="1" font-family="monospace" text-anchor="start" dominant-baseline="middle">1</text>
<line x1="9.54" y1="12.636" x2="9.54" y2="11.366" stroke="#ffd60a" stroke-width="0.2725714285714285" stroke-linecap="round"/>
<text x="9.54" y="14.366" fill="#ffd60a" font-size="1" font-family="monospace" text-anchor="middle" dominant-baseline="middle">G</text>
<line x1="13.35" y1="7.556" x2="12.079999999999998" y2="7.556" stroke="#ffd60a" stroke-width="0.2725714285714285" stroke-linecap="round"/>
<text x="15.079999999999998" y="7.556" fill="#ffd60a" font-size="1" font-family="monospace" text-anchor="end" dominant-baseline="middle">3</text>
<line x1="9.54" y1="12.636" x2="9.54" y2="11.366" stroke="#ffd60a" stroke-width="0.2725714285714285" stroke-linecap="round"/>
<text x="9.54" y="14.366" fill="#ffd60a" font-size="1" font-family="monospace" text-anchor="middle" dominant-baseline="middle">G</text>
</svg>