<svg xmlns="http://www.w3.org/2000/svg" viewBox="0 0 260 400">
<rect x="50" y="50" width="160" height="300" stroke="#ffffff" stroke-width="1.5" fill="rgba(255,255,255,0.04)"/>
<text x="130" y="200" fill="#888" font-size="3" font-family="monospace" text-anchor="middle" dominant-baseline="middle">U</text>
<line x1="30" y1="60" x2="50" y2="60" stroke="#ffd60a" stroke-width="1.5" stroke-linecap="round"/>
<text x="55" y="60" fill="#ffd60a" font-size="2" font-family="monospace" text-anchor="start" dominant-baseline="middle">NC</text>
<line x1="30" y1="80" x2="50" y2="80" stroke="#ffd60a" stroke-width="1.5" stroke-linecap="round"/>
<text x="55" y="80" fill="#ffd60a" font-size="2" font-family="monospace" text-anchor="start" dominant-baseline="middle">NC</text>
<line x1="30" y1="100" x2="50" y2="100" stroke="#ffd60a" stroke-width="1.5" stroke-linecap="round"/>
<text x="55" y="100" fill="#ffd60a" font-size="2" font-family="monospace" text-anchor="start" dominant-baseline="middle">~{CE}</text>
<line x1="30" y1="120" x2="50" y2="120" stroke="#ffd60a" stroke-width="1.5" stroke-linecap="round"/>
<text x="55" y="120" fill="#ffd60a" font-size="2" font-family="monospace" text-anchor="start" dominant-baseline="middle">DQ0</text>
<line x1="30" y1="140" x2="50" y2="140" stroke="#ffd60a" stroke-width="1.5" stroke-linecap="round"/>
<text x="55" y="140" fill="#ffd60a" font-size="2" font-family="monospace" text-anchor="start" dominant-baseline="middle">DQ1</text>
<line x1="30" y1="160" x2="50" y2="160" stroke="#ffd60a" stroke-width="1.5" stroke-linecap="round"/>
<text x="55" y="160" fill="#ffd60a" font-size="2" font-family="monospace" text-anchor="start" dominant-baseline="middle">DQ2</text>
<line x1="30" y1="180" x2="50" y2="180" stroke="#ffd60a" stroke-width="1.5" stroke-linecap="round"/>
<text x="55" y="180" fill="#ffd60a" font-size="2" font-family="monospace" text-anchor="start" dominant-baseline="middle">DQ3</text>
<line x1="30" y1="200" x2="50" y2="200" stroke="#ffd60a" stroke-width="1.5" stroke-linecap="round"/>
<text x="55" y="200" fill="#ffd60a" font-size="2" font-family="monospace" text-anchor="start" dominant-baseline="middle">~{WE}</text>
<line x1="30" y1="220" x2="50" y2="220" stroke="#ffd60a" stroke-width="1.5" stroke-linecap="round"/>
<text x="55" y="220" fill="#ffd60a" font-size="2" font-family="monospace" text-anchor="start" dominant-baseline="middle">DQ4</text>
<line x1="30" y1="240" x2="50" y2="240" stroke="#ffd60a" stroke-width="1.5" stroke-linecap="round"/>
<text x="55" y="240" fill="#ffd60a" font-size="2" font-family="monospace" text-anchor="start" dominant-baseline="middle">DQ5</text>
<line x1="30" y1="260" x2="50" y2="260" stroke="#ffd60a" stroke-width="1.5" stroke-linecap="round"/>
<text x="55" y="260" fill="#ffd60a" font-size="2" font-family="monospace" text-anchor="start" dominant-baseline="middle">DQ6</text>
<line x1="30" y1="280" x2="50" y2="280" stroke="#ffd60a" stroke-width="1.5" stroke-linecap="round"/>
<text x="55" y="280" fill="#ffd60a" font-size="2" font-family="monospace" text-anchor="start" dominant-baseline="middle">DQ7</text>
<line x1="30" y1="300" x2="50" y2="300" stroke="#ffd60a" stroke-width="1.5" stroke-linecap="round"/>
<text x="55" y="300" fill="#ffd60a" font-size="2" font-family="monospace" text-anchor="start" dominant-baseline="middle">~{OE}</text>
<line x1="30" y1="320" x2="50" y2="320" stroke="#ffd60a" stroke-width="1.5" stroke-linecap="round"/>
<text x="55" y="320" fill="#ffd60a" font-size="2" font-family="monospace" text-anchor="start" dominant-baseline="middle">NC</text>
<line x1="30" y1="340" x2="50" y2="340" stroke="#ffd60a" stroke-width="1.5" stroke-linecap="round"/>
<text x="55" y="340" fill="#ffd60a" font-size="2" font-family="monospace" text-anchor="start" dominant-baseline="middle">~{HSB}</text>
<line x1="230" y1="60" x2="210" y2="60" stroke="#ffd60a" stroke-width="1.5" stroke-linecap="round"/>
<text x="205" y="60" fill="#ffd60a" font-size="2" font-family="monospace" text-anchor="end" dominant-baseline="middle">A0</text>
<line x1="230" y1="80" x2="210" y2="80" stroke="#ffd60a" stroke-width="1.5" stroke-linecap="round"/>
<text x="205" y="80" fill="#ffd60a" font-size="2" font-family="monospace" text-anchor="end" dominant-baseline="middle">A1</text>
<line x1="230" y1="100" x2="210" y2="100" stroke="#ffd60a" stroke-width="1.5" stroke-linecap="round"/>
<text x="205" y="100" fill="#ffd60a" font-size="2" font-family="monospace" text-anchor="end" dominant-baseline="middle">A2</text>
<line x1="230" y1="120" x2="210" y2="120" stroke="#ffd60a" stroke-width="1.5" stroke-linecap="round"/>
<text x="205" y="120" fill="#ffd60a" font-size="2" font-family="monospace" text-anchor="end" dominant-baseline="middle">A3</text>
<line x1="230" y1="140" x2="210" y2="140" stroke="#ffd60a" stroke-width="1.5" stroke-linecap="round"/>
<text x="205" y="140" fill="#ffd60a" font-size="2" font-family="monospace" text-anchor="end" dominant-baseline="middle">A4</text>
<line x1="230" y1="160" x2="210" y2="160" stroke="#ffd60a" stroke-width="1.5" stroke-linecap="round"/>
<text x="205" y="160" fill="#ffd60a" font-size="2" font-family="monospace" text-anchor="end" dominant-baseline="middle">A5</text>
<line x1="230" y1="180" x2="210" y2="180" stroke="#ffd60a" stroke-width="1.5" stroke-linecap="round"/>
<text x="205" y="180" fill="#ffd60a" font-size="2" font-family="monospace" text-anchor="end" dominant-baseline="middle">A6</text>
<line x1="230" y1="200" x2="210" y2="200" stroke="#ffd60a" stroke-width="1.5" stroke-linecap="round"/>
<text x="205" y="200" fill="#ffd60a" font-size="2" font-family="monospace" text-anchor="end" dominant-baseline="middle">A7</text>
<line x1="230" y1="220" x2="210" y2="220" stroke="#ffd60a" stroke-width="1.5" stroke-linecap="round"/>
<text x="205" y="220" fill="#ffd60a" font-size="2" font-family="monospace" text-anchor="end" dominant-baseline="middle">A8</text>
<line x1="230" y1="240" x2="210" y2="240" stroke="#ffd60a" stroke-width="1.5" stroke-linecap="round"/>
<text x="205" y="240" fill="#ffd60a" font-size="2" font-family="monospace" text-anchor="end" dominant-baseline="middle">A9</text>
<line x1="230" y1="260" x2="210" y2="260" stroke="#ffd60a" stroke-width="1.5" stroke-linecap="round"/>
<text x="205" y="260" fill="#ffd60a" font-size="2" font-family="monospace" text-anchor="end" dominant-baseline="middle">A10</text>
<line x1="230" y1="280" x2="210" y2="280" stroke="#ffd60a" stroke-width="1.5" stroke-linecap="round"/>
<text x="205" y="280" fill="#ffd60a" font-size="2" font-family="monospace" text-anchor="end" dominant-baseline="middle">A11</text>
<line x1="230" y1="300" x2="210" y2="300" stroke="#ffd60a" stroke-width="1.5" stroke-linecap="round"/>
<text x="205" y="300" fill="#ffd60a" font-size="2" font-family="monospace" text-anchor="end" dominant-baseline="middle">A12</text>
<line x1="230" y1="320" x2="210" y2="320" stroke="#ffd60a" stroke-width="1.5" stroke-linecap="round"/>
<text x="205" y="320" fill="#ffd60a" font-size="2" font-family="monospace" text-anchor="end" dominant-baseline="middle">A13</text>
<line x1="230" y1="340" x2="210" y2="340" stroke="#ffd60a" stroke-width="1.5" stroke-linecap="round"/>
<text x="205" y="340" fill="#ffd60a" font-size="2" font-family="monospace" text-anchor="end" dominant-baseline="middle">A14</text>
<line x1="60" y1="30" x2="60" y2="50" stroke="#ffd60a" stroke-width="1.5" stroke-linecap="round"/>
<text x="60" y="25" fill="#ffd60a" font-size="2" font-family="monospace" text-anchor="middle" dominant-baseline="middle">VSS</text>
<line x1="80" y1="30" x2="80" y2="50" stroke="#ffd60a" stroke-width="1.5" stroke-linecap="round"/>
<text x="80" y="25" fill="#ffd60a" font-size="2" font-family="monospace" text-anchor="middle" dominant-baseline="middle">VSS</text>
<line x1="100" y1="30" x2="100" y2="50" stroke="#ffd60a" stroke-width="1.5" stroke-linecap="round"/>
<text x="100" y="25" fill="#ffd60a" font-size="2" font-family="monospace" text-anchor="middle" dominant-baseline="middle">NC</text>
<line x1="120" y1="30" x2="120" y2="50" stroke="#ffd60a" stroke-width="1.5" stroke-linecap="round"/>
<text x="120" y="25" fill="#ffd60a" font-size="2" font-family="monospace" text-anchor="middle" dominant-baseline="middle">NC</text>
<line x1="140" y1="30" x2="140" y2="50" stroke="#ffd60a" stroke-width="1.5" stroke-linecap="round"/>
<text x="140" y="25" fill="#ffd60a" font-size="2" font-family="monospace" text-anchor="middle" dominant-baseline="middle">NC</text>
<line x1="160" y1="30" x2="160" y2="50" stroke="#ffd60a" stroke-width="1.5" stroke-linecap="round"/>
<text x="160" y="25" fill="#ffd60a" font-size="2" font-family="monospace" text-anchor="middle" dominant-baseline="middle">NC</text>
<line x1="180" y1="30" x2="180" y2="50" stroke="#ffd60a" stroke-width="1.5" stroke-linecap="round"/>
<text x="180" y="25" fill="#ffd60a" font-size="2" font-family="monospace" text-anchor="middle" dominant-baseline="middle">NC</text>
<line x1="200" y1="30" x2="200" y2="50" stroke="#ffd60a" stroke-width="1.5" stroke-linecap="round"/>
<text x="200" y="25" fill="#ffd60a" font-size="2" font-family="monospace" text-anchor="middle" dominant-baseline="middle">NC</text>
<line x1="63.33333333333333" y1="370" x2="63.33333333333333" y2="350" stroke="#ffd60a" stroke-width="1.5" stroke-linecap="round"/>
<text x="63.33333333333333" y="384" fill="#ffd60a" font-size="2" font-family="monospace" text-anchor="middle" dominant-baseline="middle">VCC</text>
<line x1="90" y1="370" x2="90" y2="350" stroke="#ffd60a" stroke-width="1.5" stroke-linecap="round"/>
<text x="90" y="384" fill="#ffd60a" font-size="2" font-family="monospace" text-anchor="middle" dominant-baseline="middle">VCC</text>
<line x1="116.66666666666667" y1="370" x2="116.66666666666667" y2="350" stroke="#ffd60a" stroke-width="1.5" stroke-linecap="round"/>
<text x="116.66666666666667" y="384" fill="#ffd60a" font-size="2" font-family="monospace" text-anchor="middle" dominant-baseline="middle">VCAP</text>
<line x1="143.33333333333334" y1="370" x2="143.33333333333334" y2="350" stroke="#ffd60a" stroke-width="1.5" stroke-linecap="round"/>
<text x="143.33333333333334" y="384" fill="#ffd60a" font-size="2" font-family="monospace" text-anchor="middle" dominant-baseline="middle">NC</text>
<line x1="170" y1="370" x2="170" y2="350" stroke="#ffd60a" stroke-width="1.5" stroke-linecap="round"/>
<text x="170" y="384" fill="#ffd60a" font-size="2" font-family="monospace" text-anchor="middle" dominant-baseline="middle">NC</text>
<line x1="196.66666666666666" y1="370" x2="196.66666666666666" y2="350" stroke="#ffd60a" stroke-width="1.5" stroke-linecap="round"/>
<text x="196.66666666666666" y="384" fill="#ffd60a" font-size="2" font-family="monospace" text-anchor="middle" dominant-baseline="middle">NC</text>
</svg>