<svg xmlns="http://www.w3.org/2000/svg" viewBox="0 0 400 480">
<rect x="50" y="50" width="300" height="380" stroke="#ffffff" stroke-width="1.5" fill="rgba(255,255,255,0.04)"/>
<text x="200" y="240" fill="#888" font-size="3" font-family="monospace" text-anchor="middle" dominant-baseline="middle">U</text>
<line x1="30" y1="73.75" x2="50" y2="73.75" stroke="#ffd60a" stroke-width="1.5" stroke-linecap="round"/>
<text x="55" y="73.75" fill="#ffd60a" font-size="2" font-family="monospace" text-anchor="start" dominant-baseline="middle">OUT1</text>
<line x1="30" y1="121.25" x2="50" y2="121.25" stroke="#ffd60a" stroke-width="1.5" stroke-linecap="round"/>
<text x="55" y="121.25" fill="#ffd60a" font-size="2" font-family="monospace" text-anchor="start" dominant-baseline="middle">~{DIS1}</text>
<line x1="30" y1="168.75" x2="50" y2="168.75" stroke="#ffd60a" stroke-width="1.5" stroke-linecap="round"/>
<text x="55" y="168.75" fill="#ffd60a" font-size="2" font-family="monospace" text-anchor="start" dominant-baseline="middle">~{DIS2}</text>
<line x1="30" y1="216.25" x2="50" y2="216.25" stroke="#ffd60a" stroke-width="1.5" stroke-linecap="round"/>
<text x="55" y="216.25" fill="#ffd60a" font-size="2" font-family="monospace" text-anchor="start" dominant-baseline="middle">~{DIS3}</text>
<line x1="30" y1="263.75" x2="50" y2="263.75" stroke="#ffd60a" stroke-width="1.5" stroke-linecap="round"/>
<text x="55" y="263.75" fill="#ffd60a" font-size="2" font-family="monospace" text-anchor="start" dominant-baseline="middle">~{DIS4}</text>
<line x1="30" y1="311.25" x2="50" y2="311.25" stroke="#ffd60a" stroke-width="1.5" stroke-linecap="round"/>
<text x="55" y="311.25" fill="#ffd60a" font-size="2" font-family="monospace" text-anchor="start" dominant-baseline="middle">OUT4</text>
<line x1="30" y1="358.75" x2="50" y2="358.75" stroke="#ffd60a" stroke-width="1.5" stroke-linecap="round"/>
<text x="55" y="358.75" fill="#ffd60a" font-size="2" font-family="monospace" text-anchor="start" dominant-baseline="middle">OUT3</text>
<line x1="30" y1="406.25" x2="50" y2="406.25" stroke="#ffd60a" stroke-width="1.5" stroke-linecap="round"/>
<text x="55" y="406.25" fill="#ffd60a" font-size="2" font-family="monospace" text-anchor="start" dominant-baseline="middle">OUT2</text>
<line x1="370" y1="60" x2="350" y2="60" stroke="#ffd60a" stroke-width="1.5" stroke-linecap="round"/>
<text x="345" y="60" fill="#ffd60a" font-size="2" font-family="monospace" text-anchor="end" dominant-baseline="middle">IN1</text>
<line x1="370" y1="80" x2="350" y2="80" stroke="#ffd60a" stroke-width="1.5" stroke-linecap="round"/>
<text x="345" y="80" fill="#ffd60a" font-size="2" font-family="monospace" text-anchor="end" dominant-baseline="middle">IN2</text>
<line x1="370" y1="100" x2="350" y2="100" stroke="#ffd60a" stroke-width="1.5" stroke-linecap="round"/>
<text x="345" y="100" fill="#ffd60a" font-size="2" font-family="monospace" text-anchor="end" dominant-baseline="middle">IN3</text>
<line x1="370" y1="120" x2="350" y2="120" stroke="#ffd60a" stroke-width="1.5" stroke-linecap="round"/>
<text x="345" y="120" fill="#ffd60a" font-size="2" font-family="monospace" text-anchor="end" dominant-baseline="middle">IN4</text>
<line x1="370" y1="140" x2="350" y2="140" stroke="#ffd60a" stroke-width="1.5" stroke-linecap="round"/>
<text x="345" y="140" fill="#ffd60a" font-size="2" font-family="monospace" text-anchor="end" dominant-baseline="middle">IN5</text>
<line x1="370" y1="160" x2="350" y2="160" stroke="#ffd60a" stroke-width="1.5" stroke-linecap="round"/>
<text x="345" y="160" fill="#ffd60a" font-size="2" font-family="monospace" text-anchor="end" dominant-baseline="middle">IN6</text>
<line x1="370" y1="180" x2="350" y2="180" stroke="#ffd60a" stroke-width="1.5" stroke-linecap="round"/>
<text x="345" y="180" fill="#ffd60a" font-size="2" font-family="monospace" text-anchor="end" dominant-baseline="middle">IN7</text>
<line x1="370" y1="200" x2="350" y2="200" stroke="#ffd60a" stroke-width="1.5" stroke-linecap="round"/>
<text x="345" y="200" fill="#ffd60a" font-size="2" font-family="monospace" text-anchor="end" dominant-baseline="middle">IN8</text>
<line x1="370" y1="220" x2="350" y2="220" stroke="#ffd60a" stroke-width="1.5" stroke-linecap="round"/>
<text x="345" y="220" fill="#ffd60a" font-size="2" font-family="monospace" text-anchor="end" dominant-baseline="middle">B0</text>
<line x1="370" y1="240" x2="350" y2="240" stroke="#ffd60a" stroke-width="1.5" stroke-linecap="round"/>
<text x="345" y="240" fill="#ffd60a" font-size="2" font-family="monospace" text-anchor="end" dominant-baseline="middle">B1</text>
<line x1="370" y1="260" x2="350" y2="260" stroke="#ffd60a" stroke-width="1.5" stroke-linecap="round"/>
<text x="345" y="260" fill="#ffd60a" font-size="2" font-family="monospace" text-anchor="end" dominant-baseline="middle">~{I}/O</text>
<line x1="370" y1="280" x2="350" y2="280" stroke="#ffd60a" stroke-width="1.5" stroke-linecap="round"/>
<text x="345" y="280" fill="#ffd60a" font-size="2" font-family="monospace" text-anchor="end" dominant-baseline="middle">~{CS}</text>
<line x1="370" y1="300" x2="350" y2="300" stroke="#ffd60a" stroke-width="1.5" stroke-linecap="round"/>
<text x="345" y="300" fill="#ffd60a" font-size="2" font-family="monospace" text-anchor="end" dominant-baseline="middle">A0</text>
<line x1="370" y1="320" x2="350" y2="320" stroke="#ffd60a" stroke-width="1.5" stroke-linecap="round"/>
<text x="345" y="320" fill="#ffd60a" font-size="2" font-family="monospace" text-anchor="end" dominant-baseline="middle">A1</text>
<line x1="370" y1="340" x2="350" y2="340" stroke="#ffd60a" stroke-width="1.5" stroke-linecap="round"/>
<text x="345" y="340" fill="#ffd60a" font-size="2" font-family="monospace" text-anchor="end" dominant-baseline="middle">A2</text>
<line x1="370" y1="360" x2="350" y2="360" stroke="#ffd60a" stroke-width="1.5" stroke-linecap="round"/>
<text x="345" y="360" fill="#ffd60a" font-size="2" font-family="monospace" text-anchor="end" dominant-baseline="middle">A3</text>
<line x1="370" y1="380" x2="350" y2="380" stroke="#ffd60a" stroke-width="1.5" stroke-linecap="round"/>
<text x="345" y="380" fill="#ffd60a" font-size="2" font-family="monospace" text-anchor="end" dominant-baseline="middle">~{WR}</text>
<line x1="370" y1="400" x2="350" y2="400" stroke="#ffd60a" stroke-width="1.5" stroke-linecap="round"/>
<text x="345" y="400" fill="#ffd60a" font-size="2" font-family="monospace" text-anchor="end" dominant-baseline="middle">~{SALVO}</text>
<line x1="370" y1="420" x2="350" y2="420" stroke="#ffd60a" stroke-width="1.5" stroke-linecap="round"/>
<text x="345" y="420" fill="#ffd60a" font-size="2" font-family="monospace" text-anchor="end" dominant-baseline="middle">~{RS}</text>
<line x1="60" y1="30" x2="60" y2="50" stroke="#ffd60a" stroke-width="1.5" stroke-linecap="round"/>
<text x="60" y="25" fill="#ffd60a" font-size="2" font-family="monospace" text-anchor="middle" dominant-baseline="middle">GNDA</text>
<line x1="80" y1="30" x2="80" y2="50" stroke="#ffd60a" stroke-width="1.5" stroke-linecap="round"/>
<text x="80" y="25" fill="#ffd60a" font-size="2" font-family="monospace" text-anchor="middle" dominant-baseline="middle">GNDA</text>
<line x1="100" y1="30" x2="100" y2="50" stroke="#ffd60a" stroke-width="1.5" stroke-linecap="round"/>
<text x="100" y="25" fill="#ffd60a" font-size="2" font-family="monospace" text-anchor="middle" dominant-baseline="middle">GNDA</text>
<line x1="120" y1="30" x2="120" y2="50" stroke="#ffd60a" stroke-width="1.5" stroke-linecap="round"/>
<text x="120" y="25" fill="#ffd60a" font-size="2" font-family="monospace" text-anchor="middle" dominant-baseline="middle">GNDA</text>
<line x1="140" y1="30" x2="140" y2="50" stroke="#ffd60a" stroke-width="1.5" stroke-linecap="round"/>
<text x="140" y="25" fill="#ffd60a" font-size="2" font-family="monospace" text-anchor="middle" dominant-baseline="middle">GNDA</text>
<line x1="160" y1="30" x2="160" y2="50" stroke="#ffd60a" stroke-width="1.5" stroke-linecap="round"/>
<text x="160" y="25" fill="#ffd60a" font-size="2" font-family="monospace" text-anchor="middle" dominant-baseline="middle">GNDA</text>
<line x1="180" y1="30" x2="180" y2="50" stroke="#ffd60a" stroke-width="1.5" stroke-linecap="round"/>
<text x="180" y="25" fill="#ffd60a" font-size="2" font-family="monospace" text-anchor="middle" dominant-baseline="middle">GNDA</text>
<line x1="200" y1="30" x2="200" y2="50" stroke="#ffd60a" stroke-width="1.5" stroke-linecap="round"/>
<text x="200" y="25" fill="#ffd60a" font-size="2" font-family="monospace" text-anchor="middle" dominant-baseline="middle">GNDA</text>
<line x1="220" y1="30" x2="220" y2="50" stroke="#ffd60a" stroke-width="1.5" stroke-linecap="round"/>
<text x="220" y="25" fill="#ffd60a" font-size="2" font-family="monospace" text-anchor="middle" dominant-baseline="middle">GNDA</text>
<line x1="240" y1="30" x2="240" y2="50" stroke="#ffd60a" stroke-width="1.5" stroke-linecap="round"/>
<text x="240" y="25" fill="#ffd60a" font-size="2" font-family="monospace" text-anchor="middle" dominant-baseline="middle">GNDA</text>
<line x1="260" y1="30" x2="260" y2="50" stroke="#ffd60a" stroke-width="1.5" stroke-linecap="round"/>
<text x="260" y="25" fill="#ffd60a" font-size="2" font-family="monospace" text-anchor="middle" dominant-baseline="middle">GNDA</text>
<line x1="280" y1="30" x2="280" y2="50" stroke="#ffd60a" stroke-width="1.5" stroke-linecap="round"/>
<text x="280" y="25" fill="#ffd60a" font-size="2" font-family="monospace" text-anchor="middle" dominant-baseline="middle">V-</text>
<line x1="300" y1="30" x2="300" y2="50" stroke="#ffd60a" stroke-width="1.5" stroke-linecap="round"/>
<text x="300" y="25" fill="#ffd60a" font-size="2" font-family="monospace" text-anchor="middle" dominant-baseline="middle">GND</text>
<line x1="320" y1="30" x2="320" y2="50" stroke="#ffd60a" stroke-width="1.5" stroke-linecap="round"/>
<text x="320" y="25" fill="#ffd60a" font-size="2" font-family="monospace" text-anchor="middle" dominant-baseline="middle">GNDA</text>
<line x1="340" y1="30" x2="340" y2="50" stroke="#ffd60a" stroke-width="1.5" stroke-linecap="round"/>
<text x="340" y="25" fill="#ffd60a" font-size="2" font-family="monospace" text-anchor="middle" dominant-baseline="middle">GNDA</text>
<line x1="125" y1="450" x2="125" y2="430" stroke="#ffd60a" stroke-width="1.5" stroke-linecap="round"/>
<text x="125" y="464" fill="#ffd60a" font-size="2" font-family="monospace" text-anchor="middle" dominant-baseline="middle">V+</text>
<line x1="275" y1="450" x2="275" y2="430" stroke="#ffd60a" stroke-width="1.5" stroke-linecap="round"/>
<text x="275" y="464" fill="#ffd60a" font-size="2" font-family="monospace" text-anchor="middle" dominant-baseline="middle">VCC</text>
</svg>