<svg xmlns="http://www.w3.org/2000/svg" viewBox="0 0 19.08 29.240000000000002">
<line x1="9.794" y1="9.540000000000001" x2="7" y2="9.540000000000001" stroke="#ffffff" stroke-width="0.3" stroke-linecap="round" fill="none"/>
<line x1="9.794" y1="11.445" x2="9.794" y2="7.635000000000001" stroke="#ffffff" stroke-width="0.3" stroke-linecap="round" fill="none"/>
<polyline points="10.302,7.762000000000001 12.842,7.762000000000001 12.842,11.318000000000001 10.302,11.318000000000001" stroke="#ffffff" stroke-width="0.3" stroke-linejoin="round" stroke-linecap="round" fill="none"/>
<line x1="10.302" y1="8.270000000000001" x2="10.302" y2="7.254000000000001" stroke="#ffffff" stroke-width="0.3" stroke-linecap="round" fill="none"/>
<line x1="10.302" y1="10.048000000000002" x2="10.302" y2="9.032" stroke="#ffffff" stroke-width="0.3" stroke-linecap="round" fill="none"/>
<line x1="10.302" y1="11.826" x2="10.302" y2="10.81" stroke="#ffffff" stroke-width="0.3" stroke-linecap="round" fill="none"/>
<polyline points="10.556000000000001,9.540000000000001 11.572,9.921000000000001 11.572,9.159 10.556000000000001,9.540000000000001" stroke="#ffffff" stroke-width="0.3" stroke-linejoin="round" stroke-linecap="round" fill="#ffffff"/>
<circle cx="11.191" cy="9.540000000000001" r="2.794" stroke="#ffffff" stroke-width="0.3" fill="none"/>
<polyline points="12.08,7.000000000000001 12.08,9.540000000000001 10.302,9.540000000000001" stroke="#ffffff" stroke-width="0.3" stroke-linejoin="round" stroke-linecap="round" fill="none"/>
<circle cx="12.08" cy="7.762000000000001" r="0.254" stroke="#ffffff" stroke-width="0.3" fill="#ffffff"/>
<circle cx="12.08" cy="11.318000000000001" r="0.254" stroke="#ffffff" stroke-width="0.3" fill="#ffffff"/>
<line x1="12.08" y1="17.922" x2="12.08" y2="11.318000000000001" stroke="#ffffff" stroke-width="0.3" stroke-linecap="round" fill="none"/>
<polyline points="12.334,10.048000000000002 12.461,9.921000000000001 13.223,9.921000000000001 13.35,9.794" stroke="#ffffff" stroke-width="0.3" stroke-linejoin="round" stroke-linecap="round" fill="none"/>
<polyline points="12.842,9.921000000000001 12.461,9.286000000000001 13.223,9.286000000000001 12.842,9.921000000000001" stroke="#ffffff" stroke-width="0.3" stroke-linejoin="round" stroke-linecap="round" fill="none"/>
<line x1="9.794" y1="17.795" x2="9.794" y2="21.605" stroke="#ffffff" stroke-width="0.3" stroke-linecap="round" fill="none"/>
<line x1="9.794" y1="19.700000000000003" x2="7" y2="19.700000000000003" stroke="#ffffff" stroke-width="0.3" stroke-linecap="round" fill="none"/>
<line x1="10.302" y1="17.414" x2="10.302" y2="18.43" stroke="#ffffff" stroke-width="0.3" stroke-linecap="round" fill="none"/>
<line x1="10.302" y1="19.192" x2="10.302" y2="20.208000000000002" stroke="#ffffff" stroke-width="0.3" stroke-linecap="round" fill="none"/>
<line x1="10.302" y1="20.97" x2="10.302" y2="21.986" stroke="#ffffff" stroke-width="0.3" stroke-linecap="round" fill="none"/>
<polyline points="10.302,21.478 12.842,21.478 12.842,17.922 10.302,17.922" stroke="#ffffff" stroke-width="0.3" stroke-linejoin="round" stroke-linecap="round" fill="none"/>
<polyline points="10.556000000000001,19.700000000000003 11.572,19.319000000000003 11.572,20.081000000000003 10.556000000000001,19.700000000000003" stroke="#ffffff" stroke-width="0.3" stroke-linejoin="round" stroke-linecap="round" fill="#ffffff"/>
<circle cx="11.191" cy="19.700000000000003" r="2.794" stroke="#ffffff" stroke-width="0.3" fill="none"/>
<circle cx="12.08" cy="14.620000000000001" r="0.254" stroke="#ffffff" stroke-width="0.3" fill="#ffffff"/>
<circle cx="12.08" cy="17.922" r="0.254" stroke="#ffffff" stroke-width="0.3" fill="#ffffff"/>
<circle cx="12.08" cy="21.478" r="0.254" stroke="#ffffff" stroke-width="0.3" fill="#ffffff"/>
<polyline points="12.08,22.240000000000002 12.08,19.700000000000003 10.302,19.700000000000003" stroke="#ffffff" stroke-width="0.3" stroke-linejoin="round" stroke-linecap="round" fill="none"/>
<polyline points="12.334,19.192 12.461,19.319000000000003 13.223,19.319000000000003 13.35,19.446" stroke="#ffffff" stroke-width="0.3" stroke-linejoin="round" stroke-linecap="round" fill="none"/>
<polyline points="12.842,19.319000000000003 12.461,19.954 13.223,19.954 12.842,19.319000000000003" stroke="#ffffff" stroke-width="0.3" stroke-linejoin="round" stroke-linecap="round" fill="none"/>
<line x1="12.08" y1="4.460000000000001" x2="12.08" y2="7.000000000000001" stroke="#ffd60a" stroke-width="0.41771428571428576" stroke-linecap="round"/>
<text x="12.08" y="4" fill="#ffd60a" font-size="1" font-family="monospace" text-anchor="middle" dominant-baseline="middle">D1</text>
<line x1="14.620000000000001" y1="14.620000000000001" x2="12.08" y2="14.620000000000001" stroke="#ffd60a" stroke-width="0.41771428571428576" stroke-linecap="round"/>
<text x="15.08" y="14.620000000000001" fill="#ffd60a" font-size="1" font-family="monospace" text-anchor="end" dominant-baseline="middle">S1/D2</text>
<line x1="12.08" y1="24.78" x2="12.08" y2="22.240000000000002" stroke="#ffd60a" stroke-width="0.41771428571428576" stroke-linecap="round"/>
<text x="12.08" y="25.240000000000002" fill="#ffd60a" font-size="1" font-family="monospace" text-anchor="middle" dominant-baseline="middle">S2</text>
<line x1="4.46" y1="19.700000000000003" x2="7" y2="19.700000000000003" stroke="#ffd60a" stroke-width="0.41771428571428576" stroke-linecap="round"/>
<text x="4" y="19.700000000000003" fill="#ffd60a" font-size="1" font-family="monospace" text-anchor="start" dominant-baseline="middle">G2</text>
<line x1="14.620000000000001" y1="14.620000000000001" x2="12.08" y2="14.620000000000001" stroke="#ffd60a" stroke-width="0.41771428571428576" stroke-linecap="round"/>
<text x="15.08" y="14.620000000000001" fill="#ffd60a" font-size="1" font-family="monospace" text-anchor="end" dominant-baseline="middle">S1/D2</text>
<line x1="4.46" y1="9.540000000000001" x2="7" y2="9.540000000000001" stroke="#ffd60a" stroke-width="0.41771428571428576" stroke-linecap="round"/>
<text x="4" y="9.540000000000001" fill="#ffd60a" font-size="1" font-family="monospace" text-anchor="start" dominant-baseline="middle">G1</text>
</svg>