<svg xmlns="http://www.w3.org/2000/svg" viewBox="0 0 200 460">
<rect x="50" y="50" width="100" height="360" stroke="#ffffff" stroke-width="1.5" fill="rgba(255,255,255,0.04)"/>
<text x="100" y="230" fill="#888" font-size="3" font-family="monospace" text-anchor="middle" dominant-baseline="middle">U</text>
<line x1="30" y1="61.25" x2="50" y2="61.25" stroke="#ffd60a" stroke-width="1.5" stroke-linecap="round"/>
<text x="55" y="61.25" fill="#ffd60a" font-size="2" font-family="monospace" text-anchor="start" dominant-baseline="middle">UHP</text>
<line x1="30" y1="83.75" x2="50" y2="83.75" stroke="#ffd60a" stroke-width="1.5" stroke-linecap="round"/>
<text x="55" y="83.75" fill="#ffd60a" font-size="2" font-family="monospace" text-anchor="start" dominant-baseline="middle">UHN</text>
<line x1="30" y1="106.25" x2="50" y2="106.25" stroke="#ffd60a" stroke-width="1.5" stroke-linecap="round"/>
<text x="55" y="106.25" fill="#ffd60a" font-size="2" font-family="monospace" text-anchor="start" dominant-baseline="middle">VHP</text>
<line x1="30" y1="128.75" x2="50" y2="128.75" stroke="#ffd60a" stroke-width="1.5" stroke-linecap="round"/>
<text x="55" y="128.75" fill="#ffd60a" font-size="2" font-family="monospace" text-anchor="start" dominant-baseline="middle">VHN</text>
<line x1="30" y1="151.25" x2="50" y2="151.25" stroke="#ffd60a" stroke-width="1.5" stroke-linecap="round"/>
<text x="55" y="151.25" fill="#ffd60a" font-size="2" font-family="monospace" text-anchor="start" dominant-baseline="middle">WHP</text>
<line x1="30" y1="173.75" x2="50" y2="173.75" stroke="#ffd60a" stroke-width="1.5" stroke-linecap="round"/>
<text x="55" y="173.75" fill="#ffd60a" font-size="2" font-family="monospace" text-anchor="start" dominant-baseline="middle">WHN</text>
<line x1="30" y1="196.25" x2="50" y2="196.25" stroke="#ffd60a" stroke-width="1.5" stroke-linecap="round"/>
<text x="55" y="196.25" fill="#ffd60a" font-size="2" font-family="monospace" text-anchor="start" dominant-baseline="middle">ISEN</text>
<line x1="30" y1="218.75" x2="50" y2="218.75" stroke="#ffd60a" stroke-width="1.5" stroke-linecap="round"/>
<text x="55" y="218.75" fill="#ffd60a" font-size="2" font-family="monospace" text-anchor="start" dominant-baseline="middle">UHSG</text>
<line x1="30" y1="241.25" x2="50" y2="241.25" stroke="#ffd60a" stroke-width="1.5" stroke-linecap="round"/>
<text x="55" y="241.25" fill="#ffd60a" font-size="2" font-family="monospace" text-anchor="start" dominant-baseline="middle">U</text>
<line x1="30" y1="263.75" x2="50" y2="263.75" stroke="#ffd60a" stroke-width="1.5" stroke-linecap="round"/>
<text x="55" y="263.75" fill="#ffd60a" font-size="2" font-family="monospace" text-anchor="start" dominant-baseline="middle">ULSG</text>
<line x1="30" y1="286.25" x2="50" y2="286.25" stroke="#ffd60a" stroke-width="1.5" stroke-linecap="round"/>
<text x="55" y="286.25" fill="#ffd60a" font-size="2" font-family="monospace" text-anchor="start" dominant-baseline="middle">VHSG</text>
<line x1="30" y1="308.75" x2="50" y2="308.75" stroke="#ffd60a" stroke-width="1.5" stroke-linecap="round"/>
<text x="55" y="308.75" fill="#ffd60a" font-size="2" font-family="monospace" text-anchor="start" dominant-baseline="middle">V</text>
<line x1="30" y1="331.25" x2="50" y2="331.25" stroke="#ffd60a" stroke-width="1.5" stroke-linecap="round"/>
<text x="55" y="331.25" fill="#ffd60a" font-size="2" font-family="monospace" text-anchor="start" dominant-baseline="middle">VLSG</text>
<line x1="30" y1="353.75" x2="50" y2="353.75" stroke="#ffd60a" stroke-width="1.5" stroke-linecap="round"/>
<text x="55" y="353.75" fill="#ffd60a" font-size="2" font-family="monospace" text-anchor="start" dominant-baseline="middle">WHSG</text>
<line x1="30" y1="376.25" x2="50" y2="376.25" stroke="#ffd60a" stroke-width="1.5" stroke-linecap="round"/>
<text x="55" y="376.25" fill="#ffd60a" font-size="2" font-family="monospace" text-anchor="start" dominant-baseline="middle">W</text>
<line x1="30" y1="398.75" x2="50" y2="398.75" stroke="#ffd60a" stroke-width="1.5" stroke-linecap="round"/>
<text x="55" y="398.75" fill="#ffd60a" font-size="2" font-family="monospace" text-anchor="start" dominant-baseline="middle">WLSG</text>
<line x1="170" y1="60" x2="150" y2="60" stroke="#ffd60a" stroke-width="1.5" stroke-linecap="round"/>
<text x="145" y="60" fill="#ffd60a" font-size="2" font-family="monospace" text-anchor="end" dominant-baseline="middle">FGFB</text>
<line x1="170" y1="80" x2="150" y2="80" stroke="#ffd60a" stroke-width="1.5" stroke-linecap="round"/>
<text x="145" y="80" fill="#ffd60a" font-size="2" font-family="monospace" text-anchor="end" dominant-baseline="middle">FGINN_TACH</text>
<line x1="170" y1="100" x2="150" y2="100" stroke="#ffd60a" stroke-width="1.5" stroke-linecap="round"/>
<text x="145" y="100" fill="#ffd60a" font-size="2" font-family="monospace" text-anchor="end" dominant-baseline="middle">FGINP</text>
<line x1="170" y1="120" x2="150" y2="120" stroke="#ffd60a" stroke-width="1.5" stroke-linecap="round"/>
<text x="145" y="120" fill="#ffd60a" font-size="2" font-family="monospace" text-anchor="end" dominant-baseline="middle">SCLK</text>
<line x1="170" y1="140" x2="150" y2="140" stroke="#ffd60a" stroke-width="1.5" stroke-linecap="round"/>
<text x="145" y="140" fill="#ffd60a" font-size="2" font-family="monospace" text-anchor="end" dominant-baseline="middle">SCS</text>
<line x1="170" y1="160" x2="150" y2="160" stroke="#ffd60a" stroke-width="1.5" stroke-linecap="round"/>
<text x="145" y="160" fill="#ffd60a" font-size="2" font-family="monospace" text-anchor="end" dominant-baseline="middle">SMODE</text>
<line x1="170" y1="180" x2="150" y2="180" stroke="#ffd60a" stroke-width="1.5" stroke-linecap="round"/>
<text x="145" y="180" fill="#ffd60a" font-size="2" font-family="monospace" text-anchor="end" dominant-baseline="middle">SDATAI</text>
<line x1="170" y1="200" x2="150" y2="200" stroke="#ffd60a" stroke-width="1.5" stroke-linecap="round"/>
<text x="145" y="200" fill="#ffd60a" font-size="2" font-family="monospace" text-anchor="end" dominant-baseline="middle">SDATAO</text>
<line x1="170" y1="220" x2="150" y2="220" stroke="#ffd60a" stroke-width="1.5" stroke-linecap="round"/>
<text x="145" y="220" fill="#ffd60a" font-size="2" font-family="monospace" text-anchor="end" dominant-baseline="middle">FGOUT</text>
<line x1="170" y1="240" x2="150" y2="240" stroke="#ffd60a" stroke-width="1.5" stroke-linecap="round"/>
<text x="145" y="240" fill="#ffd60a" font-size="2" font-family="monospace" text-anchor="end" dominant-baseline="middle">~{FAULTn}</text>
<line x1="170" y1="260" x2="150" y2="260" stroke="#ffd60a" stroke-width="1.5" stroke-linecap="round"/>
<text x="145" y="260" fill="#ffd60a" font-size="2" font-family="monospace" text-anchor="end" dominant-baseline="middle">~{LOCKn}</text>
<line x1="170" y1="280" x2="150" y2="280" stroke="#ffd60a" stroke-width="1.5" stroke-linecap="round"/>
<text x="145" y="280" fill="#ffd60a" font-size="2" font-family="monospace" text-anchor="end" dominant-baseline="middle">CLKIN</text>
<line x1="170" y1="300" x2="150" y2="300" stroke="#ffd60a" stroke-width="1.5" stroke-linecap="round"/>
<text x="145" y="300" fill="#ffd60a" font-size="2" font-family="monospace" text-anchor="end" dominant-baseline="middle">BRAKE</text>
<line x1="170" y1="320" x2="150" y2="320" stroke="#ffd60a" stroke-width="1.5" stroke-linecap="round"/>
<text x="145" y="320" fill="#ffd60a" font-size="2" font-family="monospace" text-anchor="end" dominant-baseline="middle">DIR</text>
<line x1="170" y1="340" x2="150" y2="340" stroke="#ffd60a" stroke-width="1.5" stroke-linecap="round"/>
<text x="145" y="340" fill="#ffd60a" font-size="2" font-family="monospace" text-anchor="end" dominant-baseline="middle">ENABLE</text>
<line x1="170" y1="360" x2="150" y2="360" stroke="#ffd60a" stroke-width="1.5" stroke-linecap="round"/>
<text x="145" y="360" fill="#ffd60a" font-size="2" font-family="monospace" text-anchor="end" dominant-baseline="middle">RESET</text>
<line x1="170" y1="380" x2="150" y2="380" stroke="#ffd60a" stroke-width="1.5" stroke-linecap="round"/>
<text x="145" y="380" fill="#ffd60a" font-size="2" font-family="monospace" text-anchor="end" dominant-baseline="middle">CP2</text>
<line x1="170" y1="400" x2="150" y2="400" stroke="#ffd60a" stroke-width="1.5" stroke-linecap="round"/>
<text x="145" y="400" fill="#ffd60a" font-size="2" font-family="monospace" text-anchor="end" dominant-baseline="middle">CP1</text>
<line x1="75" y1="30" x2="75" y2="50" stroke="#ffd60a" stroke-width="1.5" stroke-linecap="round"/>
<text x="75" y="25" fill="#ffd60a" font-size="2" font-family="monospace" text-anchor="middle" dominant-baseline="middle">GND</text>
<line x1="125" y1="30" x2="125" y2="50" stroke="#ffd60a" stroke-width="1.5" stroke-linecap="round"/>
<text x="125" y="25" fill="#ffd60a" font-size="2" font-family="monospace" text-anchor="middle" dominant-baseline="middle">GND</text>
<line x1="60" y1="430" x2="60" y2="410" stroke="#ffd60a" stroke-width="1.5" stroke-linecap="round"/>
<text x="60" y="444" fill="#ffd60a" font-size="2" font-family="monospace" text-anchor="middle" dominant-baseline="middle">VSW</text>
<line x1="80" y1="430" x2="80" y2="410" stroke="#ffd60a" stroke-width="1.5" stroke-linecap="round"/>
<text x="80" y="444" fill="#ffd60a" font-size="2" font-family="monospace" text-anchor="middle" dominant-baseline="middle">VREG</text>
<line x1="100" y1="430" x2="100" y2="410" stroke="#ffd60a" stroke-width="1.5" stroke-linecap="round"/>
<text x="100" y="444" fill="#ffd60a" font-size="2" font-family="monospace" text-anchor="middle" dominant-baseline="middle">VINT</text>
<line x1="120" y1="430" x2="120" y2="410" stroke="#ffd60a" stroke-width="1.5" stroke-linecap="round"/>
<text x="120" y="444" fill="#ffd60a" font-size="2" font-family="monospace" text-anchor="middle" dominant-baseline="middle">VM</text>
<line x1="140" y1="430" x2="140" y2="410" stroke="#ffd60a" stroke-width="1.5" stroke-linecap="round"/>
<text x="140" y="444" fill="#ffd60a" font-size="2" font-family="monospace" text-anchor="middle" dominant-baseline="middle">VCP</text>
</svg>