<svg xmlns="http://www.w3.org/2000/svg" viewBox="0 0 300 900">
<rect x="50" y="50" width="200" height="800" stroke="#ffffff" stroke-width="1.5" fill="rgba(255,255,255,0.04)"/>
<text x="150" y="450" fill="#888" font-size="3" font-family="monospace" text-anchor="middle" dominant-baseline="middle">U</text>
<line x1="30" y1="60" x2="50" y2="60" stroke="#ffd60a" stroke-width="1.5" stroke-linecap="round"/>
<text x="55" y="60" fill="#ffd60a" font-size="2" font-family="monospace" text-anchor="start" dominant-baseline="middle">IO2_A1</text>
<line x1="30" y1="80" x2="50" y2="80" stroke="#ffd60a" stroke-width="1.5" stroke-linecap="round"/>
<text x="55" y="80" fill="#ffd60a" font-size="2" font-family="monospace" text-anchor="start" dominant-baseline="middle">IO2_A2</text>
<line x1="30" y1="100" x2="50" y2="100" stroke="#ffd60a" stroke-width="1.5" stroke-linecap="round"/>
<text x="55" y="100" fill="#ffd60a" font-size="2" font-family="monospace" text-anchor="start" dominant-baseline="middle">IO2_A3</text>
<line x1="30" y1="120" x2="50" y2="120" stroke="#ffd60a" stroke-width="1.5" stroke-linecap="round"/>
<text x="55" y="120" fill="#ffd60a" font-size="2" font-family="monospace" text-anchor="start" dominant-baseline="middle">IO2_A4</text>
<line x1="30" y1="140" x2="50" y2="140" stroke="#ffd60a" stroke-width="1.5" stroke-linecap="round"/>
<text x="55" y="140" fill="#ffd60a" font-size="2" font-family="monospace" text-anchor="start" dominant-baseline="middle">IO2_A5</text>
<line x1="30" y1="160" x2="50" y2="160" stroke="#ffd60a" stroke-width="1.5" stroke-linecap="round"/>
<text x="55" y="160" fill="#ffd60a" font-size="2" font-family="monospace" text-anchor="start" dominant-baseline="middle">IO2_A6</text>
<line x1="30" y1="180" x2="50" y2="180" stroke="#ffd60a" stroke-width="1.5" stroke-linecap="round"/>
<text x="55" y="180" fill="#ffd60a" font-size="2" font-family="monospace" text-anchor="start" dominant-baseline="middle">IO2_A7</text>
<line x1="30" y1="200" x2="50" y2="200" stroke="#ffd60a" stroke-width="1.5" stroke-linecap="round"/>
<text x="55" y="200" fill="#ffd60a" font-size="2" font-family="monospace" text-anchor="start" dominant-baseline="middle">IO2_A8</text>
<line x1="30" y1="220" x2="50" y2="220" stroke="#ffd60a" stroke-width="1.5" stroke-linecap="round"/>
<text x="55" y="220" fill="#ffd60a" font-size="2" font-family="monospace" text-anchor="start" dominant-baseline="middle">IO2_A9</text>
<line x1="30" y1="240" x2="50" y2="240" stroke="#ffd60a" stroke-width="1.5" stroke-linecap="round"/>
<text x="55" y="240" fill="#ffd60a" font-size="2" font-family="monospace" text-anchor="start" dominant-baseline="middle">IO2_A10</text>
<line x1="30" y1="260" x2="50" y2="260" stroke="#ffd60a" stroke-width="1.5" stroke-linecap="round"/>
<text x="55" y="260" fill="#ffd60a" font-size="2" font-family="monospace" text-anchor="start" dominant-baseline="middle">IO2_B2</text>
<line x1="30" y1="280" x2="50" y2="280" stroke="#ffd60a" stroke-width="1.5" stroke-linecap="round"/>
<text x="55" y="280" fill="#ffd60a" font-size="2" font-family="monospace" text-anchor="start" dominant-baseline="middle">IO2_B3</text>
<line x1="30" y1="300" x2="50" y2="300" stroke="#ffd60a" stroke-width="1.5" stroke-linecap="round"/>
<text x="55" y="300" fill="#ffd60a" font-size="2" font-family="monospace" text-anchor="start" dominant-baseline="middle">IO2_B4</text>
<line x1="30" y1="320" x2="50" y2="320" stroke="#ffd60a" stroke-width="1.5" stroke-linecap="round"/>
<text x="55" y="320" fill="#ffd60a" font-size="2" font-family="monospace" text-anchor="start" dominant-baseline="middle">IO2_B5</text>
<line x1="30" y1="340" x2="50" y2="340" stroke="#ffd60a" stroke-width="1.5" stroke-linecap="round"/>
<text x="55" y="340" fill="#ffd60a" font-size="2" font-family="monospace" text-anchor="start" dominant-baseline="middle">IO2_B6</text>
<line x1="30" y1="360" x2="50" y2="360" stroke="#ffd60a" stroke-width="1.5" stroke-linecap="round"/>
<text x="55" y="360" fill="#ffd60a" font-size="2" font-family="monospace" text-anchor="start" dominant-baseline="middle">IO2_B7</text>
<line x1="30" y1="380" x2="50" y2="380" stroke="#ffd60a" stroke-width="1.5" stroke-linecap="round"/>
<text x="55" y="380" fill="#ffd60a" font-size="2" font-family="monospace" text-anchor="start" dominant-baseline="middle">IO2_B8</text>
<line x1="30" y1="400" x2="50" y2="400" stroke="#ffd60a" stroke-width="1.5" stroke-linecap="round"/>
<text x="55" y="400" fill="#ffd60a" font-size="2" font-family="monospace" text-anchor="start" dominant-baseline="middle">IO2_B9</text>
<line x1="30" y1="420" x2="50" y2="420" stroke="#ffd60a" stroke-width="1.5" stroke-linecap="round"/>
<text x="55" y="420" fill="#ffd60a" font-size="2" font-family="monospace" text-anchor="start" dominant-baseline="middle">IO2_B10</text>
<line x1="30" y1="440" x2="50" y2="440" stroke="#ffd60a" stroke-width="1.5" stroke-linecap="round"/>
<text x="55" y="440" fill="#ffd60a" font-size="2" font-family="monospace" text-anchor="start" dominant-baseline="middle">IO2_C3</text>
<line x1="30" y1="459.99999999999994" x2="50" y2="459.99999999999994" stroke="#ffd60a" stroke-width="1.5" stroke-linecap="round"/>
<text x="55" y="459.99999999999994" fill="#ffd60a" font-size="2" font-family="monospace" text-anchor="start" dominant-baseline="middle">IO2_C4</text>
<line x1="30" y1="480" x2="50" y2="480" stroke="#ffd60a" stroke-width="1.5" stroke-linecap="round"/>
<text x="55" y="480" fill="#ffd60a" font-size="2" font-family="monospace" text-anchor="start" dominant-baseline="middle">IO2_C7</text>
<line x1="30" y1="500" x2="50" y2="500" stroke="#ffd60a" stroke-width="1.5" stroke-linecap="round"/>
<text x="55" y="500" fill="#ffd60a" font-size="2" font-family="monospace" text-anchor="start" dominant-baseline="middle">IO2_C8</text>
<line x1="30" y1="520" x2="50" y2="520" stroke="#ffd60a" stroke-width="1.5" stroke-linecap="round"/>
<text x="55" y="520" fill="#ffd60a" font-size="2" font-family="monospace" text-anchor="start" dominant-baseline="middle">IO2_C9</text>
<line x1="30" y1="540" x2="50" y2="540" stroke="#ffd60a" stroke-width="1.5" stroke-linecap="round"/>
<text x="55" y="540" fill="#ffd60a" font-size="2" font-family="monospace" text-anchor="start" dominant-baseline="middle">IO2_C10</text>
<line x1="30" y1="560" x2="50" y2="560" stroke="#ffd60a" stroke-width="1.5" stroke-linecap="round"/>
<text x="55" y="560" fill="#ffd60a" font-size="2" font-family="monospace" text-anchor="start" dominant-baseline="middle">IO2_D8</text>
<line x1="30" y1="580" x2="50" y2="580" stroke="#ffd60a" stroke-width="1.5" stroke-linecap="round"/>
<text x="55" y="580" fill="#ffd60a" font-size="2" font-family="monospace" text-anchor="start" dominant-baseline="middle">IO2_D9</text>
<line x1="30" y1="600" x2="50" y2="600" stroke="#ffd60a" stroke-width="1.5" stroke-linecap="round"/>
<text x="55" y="600" fill="#ffd60a" font-size="2" font-family="monospace" text-anchor="start" dominant-baseline="middle">IO2_D10</text>
<line x1="30" y1="620" x2="50" y2="620" stroke="#ffd60a" stroke-width="1.5" stroke-linecap="round"/>
<text x="55" y="620" fill="#ffd60a" font-size="2" font-family="monospace" text-anchor="start" dominant-baseline="middle">IO2_E8</text>
<line x1="30" y1="640" x2="50" y2="640" stroke="#ffd60a" stroke-width="1.5" stroke-linecap="round"/>
<text x="55" y="640" fill="#ffd60a" font-size="2" font-family="monospace" text-anchor="start" dominant-baseline="middle">IO2_E9</text>
<line x1="30" y1="660" x2="50" y2="660" stroke="#ffd60a" stroke-width="1.5" stroke-linecap="round"/>
<text x="55" y="660" fill="#ffd60a" font-size="2" font-family="monospace" text-anchor="start" dominant-baseline="middle">IO2_E10/GCLK3</text>
<line x1="30" y1="680" x2="50" y2="680" stroke="#ffd60a" stroke-width="1.5" stroke-linecap="round"/>
<text x="55" y="680" fill="#ffd60a" font-size="2" font-family="monospace" text-anchor="start" dominant-baseline="middle">IO2_F8/GCLK2</text>
<line x1="30" y1="700" x2="50" y2="700" stroke="#ffd60a" stroke-width="1.5" stroke-linecap="round"/>
<text x="55" y="700" fill="#ffd60a" font-size="2" font-family="monospace" text-anchor="start" dominant-baseline="middle">IO2_F9</text>
<line x1="30" y1="720" x2="50" y2="720" stroke="#ffd60a" stroke-width="1.5" stroke-linecap="round"/>
<text x="55" y="720" fill="#ffd60a" font-size="2" font-family="monospace" text-anchor="start" dominant-baseline="middle">IO2_F10</text>
<line x1="30" y1="740" x2="50" y2="740" stroke="#ffd60a" stroke-width="1.5" stroke-linecap="round"/>
<text x="55" y="740" fill="#ffd60a" font-size="2" font-family="monospace" text-anchor="start" dominant-baseline="middle">IO2_G8</text>
<line x1="30" y1="760" x2="50" y2="760" stroke="#ffd60a" stroke-width="1.5" stroke-linecap="round"/>
<text x="55" y="760" fill="#ffd60a" font-size="2" font-family="monospace" text-anchor="start" dominant-baseline="middle">IO2_G9</text>
<line x1="30" y1="780" x2="50" y2="780" stroke="#ffd60a" stroke-width="1.5" stroke-linecap="round"/>
<text x="55" y="780" fill="#ffd60a" font-size="2" font-family="monospace" text-anchor="start" dominant-baseline="middle">IO2_G10</text>
<line x1="30" y1="800" x2="50" y2="800" stroke="#ffd60a" stroke-width="1.5" stroke-linecap="round"/>
<text x="55" y="800" fill="#ffd60a" font-size="2" font-family="monospace" text-anchor="start" dominant-baseline="middle">IO2_H9</text>
<line x1="30" y1="820" x2="50" y2="820" stroke="#ffd60a" stroke-width="1.5" stroke-linecap="round"/>
<text x="55" y="820" fill="#ffd60a" font-size="2" font-family="monospace" text-anchor="start" dominant-baseline="middle">IO2_H10</text>
<line x1="30" y1="840" x2="50" y2="840" stroke="#ffd60a" stroke-width="1.5" stroke-linecap="round"/>
<text x="55" y="840" fill="#ffd60a" font-size="2" font-family="monospace" text-anchor="start" dominant-baseline="middle">IO2_J10</text>
<line x1="270" y1="60" x2="250" y2="60" stroke="#ffd60a" stroke-width="1.5" stroke-linecap="round"/>
<text x="245" y="60" fill="#ffd60a" font-size="2" font-family="monospace" text-anchor="end" dominant-baseline="middle">IO1_B1</text>
<line x1="270" y1="80" x2="250" y2="80" stroke="#ffd60a" stroke-width="1.5" stroke-linecap="round"/>
<text x="245" y="80" fill="#ffd60a" font-size="2" font-family="monospace" text-anchor="end" dominant-baseline="middle">IO1_C1</text>
<line x1="270" y1="100" x2="250" y2="100" stroke="#ffd60a" stroke-width="1.5" stroke-linecap="round"/>
<text x="245" y="100" fill="#ffd60a" font-size="2" font-family="monospace" text-anchor="end" dominant-baseline="middle">IO1_C2</text>
<line x1="270" y1="120" x2="250" y2="120" stroke="#ffd60a" stroke-width="1.5" stroke-linecap="round"/>
<text x="245" y="120" fill="#ffd60a" font-size="2" font-family="monospace" text-anchor="end" dominant-baseline="middle">IO1_D1</text>
<line x1="270" y1="140" x2="250" y2="140" stroke="#ffd60a" stroke-width="1.5" stroke-linecap="round"/>
<text x="245" y="140" fill="#ffd60a" font-size="2" font-family="monospace" text-anchor="end" dominant-baseline="middle">IO1_D2</text>
<line x1="270" y1="160" x2="250" y2="160" stroke="#ffd60a" stroke-width="1.5" stroke-linecap="round"/>
<text x="245" y="160" fill="#ffd60a" font-size="2" font-family="monospace" text-anchor="end" dominant-baseline="middle">IO1_D3</text>
<line x1="270" y1="180" x2="250" y2="180" stroke="#ffd60a" stroke-width="1.5" stroke-linecap="round"/>
<text x="245" y="180" fill="#ffd60a" font-size="2" font-family="monospace" text-anchor="end" dominant-baseline="middle">IO1_E1/GCLK1</text>
<line x1="270" y1="200" x2="250" y2="200" stroke="#ffd60a" stroke-width="1.5" stroke-linecap="round"/>
<text x="245" y="200" fill="#ffd60a" font-size="2" font-family="monospace" text-anchor="end" dominant-baseline="middle">IO1_E2/GCLK0</text>
<line x1="270" y1="220" x2="250" y2="220" stroke="#ffd60a" stroke-width="1.5" stroke-linecap="round"/>
<text x="245" y="220" fill="#ffd60a" font-size="2" font-family="monospace" text-anchor="end" dominant-baseline="middle">IO1_E3</text>
<line x1="270" y1="240" x2="250" y2="240" stroke="#ffd60a" stroke-width="1.5" stroke-linecap="round"/>
<text x="245" y="240" fill="#ffd60a" font-size="2" font-family="monospace" text-anchor="end" dominant-baseline="middle">IO1_F1</text>
<line x1="270" y1="260" x2="250" y2="260" stroke="#ffd60a" stroke-width="1.5" stroke-linecap="round"/>
<text x="245" y="260" fill="#ffd60a" font-size="2" font-family="monospace" text-anchor="end" dominant-baseline="middle">IO1_F2</text>
<line x1="270" y1="280" x2="250" y2="280" stroke="#ffd60a" stroke-width="1.5" stroke-linecap="round"/>
<text x="245" y="280" fill="#ffd60a" font-size="2" font-family="monospace" text-anchor="end" dominant-baseline="middle">IO1_F3</text>
<line x1="270" y1="300" x2="250" y2="300" stroke="#ffd60a" stroke-width="1.5" stroke-linecap="round"/>
<text x="245" y="300" fill="#ffd60a" font-size="2" font-family="monospace" text-anchor="end" dominant-baseline="middle">IO1_G1</text>
<line x1="270" y1="320" x2="250" y2="320" stroke="#ffd60a" stroke-width="1.5" stroke-linecap="round"/>
<text x="245" y="320" fill="#ffd60a" font-size="2" font-family="monospace" text-anchor="end" dominant-baseline="middle">IO1_G2</text>
<line x1="270" y1="340" x2="250" y2="340" stroke="#ffd60a" stroke-width="1.5" stroke-linecap="round"/>
<text x="245" y="340" fill="#ffd60a" font-size="2" font-family="monospace" text-anchor="end" dominant-baseline="middle">IO1_G3</text>
<line x1="270" y1="360" x2="250" y2="360" stroke="#ffd60a" stroke-width="1.5" stroke-linecap="round"/>
<text x="245" y="360" fill="#ffd60a" font-size="2" font-family="monospace" text-anchor="end" dominant-baseline="middle">IO1_H1</text>
<line x1="270" y1="380" x2="250" y2="380" stroke="#ffd60a" stroke-width="1.5" stroke-linecap="round"/>
<text x="245" y="380" fill="#ffd60a" font-size="2" font-family="monospace" text-anchor="end" dominant-baseline="middle">TDI</text>
<line x1="270" y1="400" x2="250" y2="400" stroke="#ffd60a" stroke-width="1.5" stroke-linecap="round"/>
<text x="245" y="400" fill="#ffd60a" font-size="2" font-family="monospace" text-anchor="end" dominant-baseline="middle">TCK</text>
<line x1="270" y1="420" x2="250" y2="420" stroke="#ffd60a" stroke-width="1.5" stroke-linecap="round"/>
<text x="245" y="420" fill="#ffd60a" font-size="2" font-family="monospace" text-anchor="end" dominant-baseline="middle">IO1_H4</text>
<line x1="270" y1="440" x2="250" y2="440" stroke="#ffd60a" stroke-width="1.5" stroke-linecap="round"/>
<text x="245" y="440" fill="#ffd60a" font-size="2" font-family="monospace" text-anchor="end" dominant-baseline="middle">IO1_H7</text>
<line x1="270" y1="459.99999999999994" x2="250" y2="459.99999999999994" stroke="#ffd60a" stroke-width="1.5" stroke-linecap="round"/>
<text x="245" y="459.99999999999994" fill="#ffd60a" font-size="2" font-family="monospace" text-anchor="end" dominant-baseline="middle">IO1_H8</text>
<line x1="270" y1="480" x2="250" y2="480" stroke="#ffd60a" stroke-width="1.5" stroke-linecap="round"/>
<text x="245" y="480" fill="#ffd60a" font-size="2" font-family="monospace" text-anchor="end" dominant-baseline="middle">TMS</text>
<line x1="270" y1="500" x2="250" y2="500" stroke="#ffd60a" stroke-width="1.5" stroke-linecap="round"/>
<text x="245" y="500" fill="#ffd60a" font-size="2" font-family="monospace" text-anchor="end" dominant-baseline="middle">TDO</text>
<line x1="270" y1="520" x2="250" y2="520" stroke="#ffd60a" stroke-width="1.5" stroke-linecap="round"/>
<text x="245" y="520" fill="#ffd60a" font-size="2" font-family="monospace" text-anchor="end" dominant-baseline="middle">IO1_J3</text>
<line x1="270" y1="540" x2="250" y2="540" stroke="#ffd60a" stroke-width="1.5" stroke-linecap="round"/>
<text x="245" y="540" fill="#ffd60a" font-size="2" font-family="monospace" text-anchor="end" dominant-baseline="middle">IO1_J4</text>
<line x1="270" y1="560" x2="250" y2="560" stroke="#ffd60a" stroke-width="1.5" stroke-linecap="round"/>
<text x="245" y="560" fill="#ffd60a" font-size="2" font-family="monospace" text-anchor="end" dominant-baseline="middle">IO1_J5</text>
<line x1="270" y1="580" x2="250" y2="580" stroke="#ffd60a" stroke-width="1.5" stroke-linecap="round"/>
<text x="245" y="580" fill="#ffd60a" font-size="2" font-family="monospace" text-anchor="end" dominant-baseline="middle">IO1_J6</text>
<line x1="270" y1="600" x2="250" y2="600" stroke="#ffd60a" stroke-width="1.5" stroke-linecap="round"/>
<text x="245" y="600" fill="#ffd60a" font-size="2" font-family="monospace" text-anchor="end" dominant-baseline="middle">IO1_J7/DEV_OE</text>
<line x1="270" y1="620" x2="250" y2="620" stroke="#ffd60a" stroke-width="1.5" stroke-linecap="round"/>
<text x="245" y="620" fill="#ffd60a" font-size="2" font-family="monospace" text-anchor="end" dominant-baseline="middle">IO1_J8</text>
<line x1="270" y1="640" x2="250" y2="640" stroke="#ffd60a" stroke-width="1.5" stroke-linecap="round"/>
<text x="245" y="640" fill="#ffd60a" font-size="2" font-family="monospace" text-anchor="end" dominant-baseline="middle">IO1_J9</text>
<line x1="270" y1="660" x2="250" y2="660" stroke="#ffd60a" stroke-width="1.5" stroke-linecap="round"/>
<text x="245" y="660" fill="#ffd60a" font-size="2" font-family="monospace" text-anchor="end" dominant-baseline="middle">IO1_K1</text>
<line x1="270" y1="680" x2="250" y2="680" stroke="#ffd60a" stroke-width="1.5" stroke-linecap="round"/>
<text x="245" y="680" fill="#ffd60a" font-size="2" font-family="monospace" text-anchor="end" dominant-baseline="middle">IO1_K2</text>
<line x1="270" y1="700" x2="250" y2="700" stroke="#ffd60a" stroke-width="1.5" stroke-linecap="round"/>
<text x="245" y="700" fill="#ffd60a" font-size="2" font-family="monospace" text-anchor="end" dominant-baseline="middle">IO1_K3</text>
<line x1="270" y1="720" x2="250" y2="720" stroke="#ffd60a" stroke-width="1.5" stroke-linecap="round"/>
<text x="245" y="720" fill="#ffd60a" font-size="2" font-family="monospace" text-anchor="end" dominant-baseline="middle">IO1_K4</text>
<line x1="270" y1="740" x2="250" y2="740" stroke="#ffd60a" stroke-width="1.5" stroke-linecap="round"/>
<text x="245" y="740" fill="#ffd60a" font-size="2" font-family="monospace" text-anchor="end" dominant-baseline="middle">IO1_K5</text>
<line x1="270" y1="760" x2="250" y2="760" stroke="#ffd60a" stroke-width="1.5" stroke-linecap="round"/>
<text x="245" y="760" fill="#ffd60a" font-size="2" font-family="monospace" text-anchor="end" dominant-baseline="middle">IO1_K6</text>
<line x1="270" y1="780" x2="250" y2="780" stroke="#ffd60a" stroke-width="1.5" stroke-linecap="round"/>
<text x="245" y="780" fill="#ffd60a" font-size="2" font-family="monospace" text-anchor="end" dominant-baseline="middle">IO1_K7</text>
<line x1="270" y1="800" x2="250" y2="800" stroke="#ffd60a" stroke-width="1.5" stroke-linecap="round"/>
<text x="245" y="800" fill="#ffd60a" font-size="2" font-family="monospace" text-anchor="end" dominant-baseline="middle">IO1_K8</text>
<line x1="270" y1="820" x2="250" y2="820" stroke="#ffd60a" stroke-width="1.5" stroke-linecap="round"/>
<text x="245" y="820" fill="#ffd60a" font-size="2" font-family="monospace" text-anchor="end" dominant-baseline="middle">IO1_K9/DEV_CLRn</text>
<line x1="270" y1="840" x2="250" y2="840" stroke="#ffd60a" stroke-width="1.5" stroke-linecap="round"/>
<text x="245" y="840" fill="#ffd60a" font-size="2" font-family="monospace" text-anchor="end" dominant-baseline="middle">IO1_K10</text>
<line x1="60" y1="30" x2="60" y2="50" stroke="#ffd60a" stroke-width="1.5" stroke-linecap="round"/>
<text x="60" y="25" fill="#ffd60a" font-size="2" font-family="monospace" text-anchor="middle" dominant-baseline="middle">GNDINT</text>
<line x1="80" y1="30" x2="80" y2="50" stroke="#ffd60a" stroke-width="1.5" stroke-linecap="round"/>
<text x="80" y="25" fill="#ffd60a" font-size="2" font-family="monospace" text-anchor="middle" dominant-baseline="middle">GNDIO</text>
<line x1="100" y1="30" x2="100" y2="50" stroke="#ffd60a" stroke-width="1.5" stroke-linecap="round"/>
<text x="100" y="25" fill="#ffd60a" font-size="2" font-family="monospace" text-anchor="middle" dominant-baseline="middle">GNDIO</text>
<line x1="120" y1="30" x2="120" y2="50" stroke="#ffd60a" stroke-width="1.5" stroke-linecap="round"/>
<text x="120" y="25" fill="#ffd60a" font-size="2" font-family="monospace" text-anchor="middle" dominant-baseline="middle">GNDIO</text>
<line x1="140" y1="30" x2="140" y2="50" stroke="#ffd60a" stroke-width="1.5" stroke-linecap="round"/>
<text x="140" y="25" fill="#ffd60a" font-size="2" font-family="monospace" text-anchor="middle" dominant-baseline="middle">GNDINT</text>
<line x1="160" y1="30" x2="160" y2="50" stroke="#ffd60a" stroke-width="1.5" stroke-linecap="round"/>
<text x="160" y="25" fill="#ffd60a" font-size="2" font-family="monospace" text-anchor="middle" dominant-baseline="middle">GNDINT</text>
<line x1="180" y1="30" x2="180" y2="50" stroke="#ffd60a" stroke-width="1.5" stroke-linecap="round"/>
<text x="180" y="25" fill="#ffd60a" font-size="2" font-family="monospace" text-anchor="middle" dominant-baseline="middle">GNDIO</text>
<line x1="200" y1="30" x2="200" y2="50" stroke="#ffd60a" stroke-width="1.5" stroke-linecap="round"/>
<text x="200" y="25" fill="#ffd60a" font-size="2" font-family="monospace" text-anchor="middle" dominant-baseline="middle">GNDIO</text>
<line x1="220" y1="30" x2="220" y2="50" stroke="#ffd60a" stroke-width="1.5" stroke-linecap="round"/>
<text x="220" y="25" fill="#ffd60a" font-size="2" font-family="monospace" text-anchor="middle" dominant-baseline="middle">GNDIO</text>
<line x1="240" y1="30" x2="240" y2="50" stroke="#ffd60a" stroke-width="1.5" stroke-linecap="round"/>
<text x="240" y="25" fill="#ffd60a" font-size="2" font-family="monospace" text-anchor="middle" dominant-baseline="middle">GNDINT</text>
<line x1="60" y1="870" x2="60" y2="850" stroke="#ffd60a" stroke-width="1.5" stroke-linecap="round"/>
<text x="60" y="884" fill="#ffd60a" font-size="2" font-family="monospace" text-anchor="middle" dominant-baseline="middle">VCCINT</text>
<line x1="80" y1="870" x2="80" y2="850" stroke="#ffd60a" stroke-width="1.5" stroke-linecap="round"/>
<text x="80" y="884" fill="#ffd60a" font-size="2" font-family="monospace" text-anchor="middle" dominant-baseline="middle">VCCIO2</text>
<line x1="100" y1="870" x2="100" y2="850" stroke="#ffd60a" stroke-width="1.5" stroke-linecap="round"/>
<text x="100" y="884" fill="#ffd60a" font-size="2" font-family="monospace" text-anchor="middle" dominant-baseline="middle">VCCIO2</text>
<line x1="120" y1="870" x2="120" y2="850" stroke="#ffd60a" stroke-width="1.5" stroke-linecap="round"/>
<text x="120" y="884" fill="#ffd60a" font-size="2" font-family="monospace" text-anchor="middle" dominant-baseline="middle">VCCIO1</text>
<line x1="140" y1="870" x2="140" y2="850" stroke="#ffd60a" stroke-width="1.5" stroke-linecap="round"/>
<text x="140" y="884" fill="#ffd60a" font-size="2" font-family="monospace" text-anchor="middle" dominant-baseline="middle">VCCINT</text>
<line x1="160" y1="870" x2="160" y2="850" stroke="#ffd60a" stroke-width="1.5" stroke-linecap="round"/>
<text x="160" y="884" fill="#ffd60a" font-size="2" font-family="monospace" text-anchor="middle" dominant-baseline="middle">VCCINT</text>
<line x1="180" y1="870" x2="180" y2="850" stroke="#ffd60a" stroke-width="1.5" stroke-linecap="round"/>
<text x="180" y="884" fill="#ffd60a" font-size="2" font-family="monospace" text-anchor="middle" dominant-baseline="middle">VCCIO2</text>
<line x1="200" y1="870" x2="200" y2="850" stroke="#ffd60a" stroke-width="1.5" stroke-linecap="round"/>
<text x="200" y="884" fill="#ffd60a" font-size="2" font-family="monospace" text-anchor="middle" dominant-baseline="middle">VCCIO1</text>
<line x1="220" y1="870" x2="220" y2="850" stroke="#ffd60a" stroke-width="1.5" stroke-linecap="round"/>
<text x="220" y="884" fill="#ffd60a" font-size="2" font-family="monospace" text-anchor="middle" dominant-baseline="middle">VCCIO1</text>
<line x1="240" y1="870" x2="240" y2="850" stroke="#ffd60a" stroke-width="1.5" stroke-linecap="round"/>
<text x="240" y="884" fill="#ffd60a" font-size="2" font-family="monospace" text-anchor="middle" dominant-baseline="middle">VCCINT</text>
</svg>