<svg xmlns="http://www.w3.org/2000/svg" viewBox="0 0 23.240000000000002 24.16">
<rect x="4.000000000000001" y="17.16" width="15.24" height="10.16" stroke="#ffffff" stroke-width="0.3" fill="rgba(255,255,255,0.06)"/>
<polyline points="5.905000000000001,9.54 7.175000000000001,9.54 7.175000000000001,9.794" stroke="#ffffff" stroke-width="0.3" stroke-linejoin="round" stroke-linecap="round" fill="none"/>
<polyline points="5.905000000000001,13.096 5.905000000000001,13.35 7.175000000000001,13.35" stroke="#ffffff" stroke-width="0.3" stroke-linejoin="round" stroke-linecap="round" fill="none"/>
<line x1="6.540000000000001" y1="7" x2="6.540000000000001" y2="9.54" stroke="#ffffff" stroke-width="0.3" stroke-linecap="round" fill="none"/>
<line x1="6.540000000000001" y1="9.54" x2="6.540000000000001" y2="13.35" stroke="#ffffff" stroke-width="0.3" stroke-linecap="round" fill="none"/>
<polyline points="6.540000000000001,9.54 7.175000000000001,10.81 5.905000000000001,10.81 6.540000000000001,9.54" stroke="#ffffff" stroke-width="0.3" stroke-linejoin="round" stroke-linecap="round" fill="none"/>
<polyline points="6.540000000000001,13.35 5.905000000000001,12.08 7.175000000000001,12.08 6.540000000000001,13.35" stroke="#ffffff" stroke-width="0.3" stroke-linejoin="round" stroke-linecap="round" fill="none"/>
<line x1="6.540000000000001" y1="14.620000000000001" x2="6.540000000000001" y2="13.35" stroke="#ffffff" stroke-width="0.3" stroke-linecap="round" fill="none"/>
<line x1="6.540000000000001" y1="14.620000000000001" x2="16.700000000000003" y2="14.620000000000001" stroke="#ffffff" stroke-width="0.3" stroke-linecap="round" fill="none"/>
<polyline points="8.445,9.54 9.715000000000002,9.54 9.715000000000002,9.794" stroke="#ffffff" stroke-width="0.3" stroke-linejoin="round" stroke-linecap="round" fill="none"/>
<polyline points="8.445,13.096 8.445,13.35 9.715000000000002,13.35" stroke="#ffffff" stroke-width="0.3" stroke-linejoin="round" stroke-linecap="round" fill="none"/>
<line x1="9.080000000000002" y1="7" x2="9.080000000000002" y2="9.54" stroke="#ffffff" stroke-width="0.3" stroke-linecap="round" fill="none"/>
<line x1="9.080000000000002" y1="9.54" x2="9.080000000000002" y2="13.35" stroke="#ffffff" stroke-width="0.3" stroke-linecap="round" fill="none"/>
<polyline points="9.080000000000002,9.54 9.715000000000002,10.81 8.445,10.81 9.080000000000002,9.54" stroke="#ffffff" stroke-width="0.3" stroke-linejoin="round" stroke-linecap="round" fill="none"/>
<polyline points="9.080000000000002,13.35 8.445,12.08 9.715000000000002,12.08 9.080000000000002,13.35" stroke="#ffffff" stroke-width="0.3" stroke-linejoin="round" stroke-linecap="round" fill="none"/>
<circle cx="9.080000000000002" cy="14.620000000000001" r="0.254" stroke="#ffffff" stroke-width="0.3" fill="#ffffff"/>
<line x1="9.080000000000002" y1="14.620000000000001" x2="9.080000000000002" y2="13.35" stroke="#ffffff" stroke-width="0.3" stroke-linecap="round" fill="none"/>
<line x1="11.620000000000001" y1="14.620000000000001" x2="11.620000000000001" y2="17.16" stroke="#ffffff" stroke-width="0.3" stroke-linecap="round" fill="none"/>
<circle cx="11.620000000000001" cy="14.620000000000001" r="0.254" stroke="#ffffff" stroke-width="0.3" fill="#ffffff"/>
<polyline points="13.525,9.54 14.795000000000002,9.54 14.795000000000002,9.794" stroke="#ffffff" stroke-width="0.3" stroke-linejoin="round" stroke-linecap="round" fill="none"/>
<polyline points="13.525,13.096 13.525,13.35 14.795000000000002,13.35" stroke="#ffffff" stroke-width="0.3" stroke-linejoin="round" stroke-linecap="round" fill="none"/>
<line x1="14.16" y1="7" x2="14.16" y2="9.54" stroke="#ffffff" stroke-width="0.3" stroke-linecap="round" fill="none"/>
<line x1="14.16" y1="9.54" x2="14.16" y2="13.35" stroke="#ffffff" stroke-width="0.3" stroke-linecap="round" fill="none"/>
<polyline points="14.16,9.54 14.795000000000002,10.81 13.525,10.81 14.16,9.54" stroke="#ffffff" stroke-width="0.3" stroke-linejoin="round" stroke-linecap="round" fill="none"/>
<polyline points="14.16,13.35 13.525,12.08 14.795000000000002,12.08 14.16,13.35" stroke="#ffffff" stroke-width="0.3" stroke-linejoin="round" stroke-linecap="round" fill="none"/>
<line x1="14.16" y1="14.620000000000001" x2="14.16" y2="13.35" stroke="#ffffff" stroke-width="0.3" stroke-linecap="round" fill="none"/>
<circle cx="14.16" cy="14.620000000000001" r="0.254" stroke="#ffffff" stroke-width="0.3" fill="#ffffff"/>
<polyline points="16.065,9.54 17.335,9.54 17.335,9.794" stroke="#ffffff" stroke-width="0.3" stroke-linejoin="round" stroke-linecap="round" fill="none"/>
<polyline points="16.065,13.096 16.065,13.35 17.335,13.35" stroke="#ffffff" stroke-width="0.3" stroke-linejoin="round" stroke-linecap="round" fill="none"/>
<line x1="16.700000000000003" y1="7" x2="16.700000000000003" y2="9.54" stroke="#ffffff" stroke-width="0.3" stroke-linecap="round" fill="none"/>
<line x1="16.700000000000003" y1="9.54" x2="16.700000000000003" y2="13.35" stroke="#ffffff" stroke-width="0.3" stroke-linecap="round" fill="none"/>
<polyline points="16.700000000000003,9.54 17.335,10.81 16.065,10.81 16.700000000000003,9.54" stroke="#ffffff" stroke-width="0.3" stroke-linejoin="round" stroke-linecap="round" fill="none"/>
<polyline points="16.700000000000003,13.35 16.065,12.08 17.335,12.08 16.700000000000003,13.35" stroke="#ffffff" stroke-width="0.3" stroke-linejoin="round" stroke-linecap="round" fill="none"/>
<line x1="16.700000000000003" y1="14.620000000000001" x2="16.700000000000003" y2="13.35" stroke="#ffffff" stroke-width="0.3" stroke-linecap="round" fill="none"/>
<line x1="11.620000000000001" y1="19.7" x2="11.620000000000001" y2="17.16" stroke="#ffd60a" stroke-width="0.34514285714285714" stroke-linecap="round"/>
<text x="11.620000000000001" y="20.16" fill="#ffd60a" font-size="1" font-family="monospace" text-anchor="middle" dominant-baseline="middle">COM</text>
<line x1="6.540000000000001" y1="4.46" x2="6.54" y2="7" stroke="#ffd60a" stroke-width="0.34514285714285714" stroke-linecap="round"/>
<text x="6.540000000000001" y="4" fill="#ffd60a" font-size="1" font-family="monospace" text-anchor="middle" dominant-baseline="middle">TVS1</text>
<line x1="9.080000000000002" y1="4.46" x2="9.08" y2="7" stroke="#ffd60a" stroke-width="0.34514285714285714" stroke-linecap="round"/>
<text x="9.080000000000002" y="4" fill="#ffd60a" font-size="1" font-family="monospace" text-anchor="middle" dominant-baseline="middle">TVS2</text>
<line x1="14.16" y1="4.46" x2="14.16" y2="7" stroke="#ffd60a" stroke-width="0.34514285714285714" stroke-linecap="round"/>
<text x="14.16" y="4" fill="#ffd60a" font-size="1" font-family="monospace" text-anchor="middle" dominant-baseline="middle">TVS3</text>
<line x1="11.620000000000001" y1="19.7" x2="11.620000000000001" y2="17.16" stroke="#ffd60a" stroke-width="0.34514285714285714" stroke-linecap="round"/>
<text x="11.620000000000001" y="20.16" fill="#ffd60a" font-size="1" font-family="monospace" text-anchor="middle" dominant-baseline="middle">COM</text>
<line x1="16.700000000000003" y1="4.46" x2="16.7" y2="7" stroke="#ffd60a" stroke-width="0.34514285714285714" stroke-linecap="round"/>
<text x="16.700000000000003" y="4" fill="#ffd60a" font-size="1" font-family="monospace" text-anchor="middle" dominant-baseline="middle">TVS4</text>
</svg>