<svg xmlns="http://www.w3.org/2000/svg" viewBox="0 0 23.240000000000002 19.08">
<rect x="4.000000000000001" y="12.079999999999998" width="15.24" height="5.08" stroke="#ffffff" stroke-width="0.3" fill="rgba(255,255,255,0.06)"/>
<polyline points="5.905000000000001,8.905 7.175000000000001,8.905 7.175000000000001,9.158999999999999" stroke="#ffffff" stroke-width="0.3" stroke-linejoin="round" stroke-linecap="round" fill="none"/>
<polyline points="5.905000000000001,10.174999999999999 7.175000000000001,10.174999999999999 6.540000000000001,8.905 5.905000000000001,10.174999999999999" stroke="#ffffff" stroke-width="0.3" stroke-linejoin="round" stroke-linecap="round" fill="none"/>
<polyline points="6.540000000000001,6.999999999999999 6.540000000000001,11.444999999999999 16.700000000000003,11.444999999999999 16.700000000000003,6.999999999999999" stroke="#ffffff" stroke-width="0.3" stroke-linejoin="round" stroke-linecap="round" fill="none"/>
<polyline points="8.445,8.905 9.715000000000002,8.905 9.715000000000002,9.158999999999999" stroke="#ffffff" stroke-width="0.3" stroke-linejoin="round" stroke-linecap="round" fill="none"/>
<polyline points="8.445,10.174999999999999 9.715000000000002,10.174999999999999 9.080000000000002,8.905 8.445,10.174999999999999" stroke="#ffffff" stroke-width="0.3" stroke-linejoin="round" stroke-linecap="round" fill="none"/>
<line x1="9.080000000000002" y1="6.999999999999999" x2="9.080000000000002" y2="11.444999999999999" stroke="#ffffff" stroke-width="0.3" stroke-linecap="round" fill="none"/>
<circle cx="9.080000000000002" cy="11.444999999999999" r="0.127" stroke="#ffffff" stroke-width="0.3" fill="none"/>
<polyline points="10.985000000000001,8.905 12.255,8.905 12.255,9.158999999999999" stroke="#ffffff" stroke-width="0.3" stroke-linejoin="round" stroke-linecap="round" fill="none"/>
<polyline points="10.985000000000001,10.174999999999999 12.255,10.174999999999999 11.620000000000001,8.905 10.985000000000001,10.174999999999999" stroke="#ffffff" stroke-width="0.3" stroke-linejoin="round" stroke-linecap="round" fill="none"/>
<line x1="11.620000000000001" y1="6.999999999999999" x2="11.620000000000001" y2="12.079999999999998" stroke="#ffffff" stroke-width="0.3" stroke-linecap="round" fill="none"/>
<circle cx="11.620000000000001" cy="11.444999999999999" r="0.127" stroke="#ffffff" stroke-width="0.3" fill="none"/>
<polyline points="13.525,8.905 14.795000000000002,8.905 14.795000000000002,9.158999999999999" stroke="#ffffff" stroke-width="0.3" stroke-linejoin="round" stroke-linecap="round" fill="none"/>
<polyline points="13.525,10.174999999999999 14.795000000000002,10.174999999999999 14.16,8.905 13.525,10.174999999999999" stroke="#ffffff" stroke-width="0.3" stroke-linejoin="round" stroke-linecap="round" fill="none"/>
<line x1="14.16" y1="6.999999999999999" x2="14.16" y2="11.444999999999999" stroke="#ffffff" stroke-width="0.3" stroke-linecap="round" fill="none"/>
<circle cx="14.16" cy="11.444999999999999" r="0.127" stroke="#ffffff" stroke-width="0.3" fill="none"/>
<polyline points="16.065,8.905 17.335,8.905 17.335,9.158999999999999" stroke="#ffffff" stroke-width="0.3" stroke-linejoin="round" stroke-linecap="round" fill="none"/>
<polyline points="16.065,10.174999999999999 17.335,10.174999999999999 16.700000000000003,8.905 16.065,10.174999999999999" stroke="#ffffff" stroke-width="0.3" stroke-linejoin="round" stroke-linecap="round" fill="none"/>
<line x1="11.620000000000001" y1="14.62" x2="11.620000000000001" y2="12.079999999999998" stroke="#ffd60a" stroke-width="0.332" stroke-linecap="round"/>
<text x="11.620000000000001" y="15.079999999999998" fill="#ffd60a" font-size="1" font-family="monospace" text-anchor="middle" dominant-baseline="middle">GND</text>
<line x1="6.540000000000001" y1="4.459999999999999" x2="6.54" y2="6.999999999999999" stroke="#ffd60a" stroke-width="0.332" stroke-linecap="round"/>
<text x="6.540000000000001" y="3.999999999999999" fill="#ffd60a" font-size="1" font-family="monospace" text-anchor="middle" dominant-baseline="middle">IO1</text>
<line x1="9.080000000000002" y1="4.459999999999999" x2="9.08" y2="6.999999999999999" stroke="#ffd60a" stroke-width="0.332" stroke-linecap="round"/>
<text x="9.080000000000002" y="3.999999999999999" fill="#ffd60a" font-size="1" font-family="monospace" text-anchor="middle" dominant-baseline="middle">IO2</text>
<line x1="11.620000000000001" y1="4.459999999999999" x2="11.620000000000001" y2="6.999999999999999" stroke="#ffd60a" stroke-width="0.332" stroke-linecap="round"/>
<text x="11.620000000000001" y="3.999999999999999" fill="#ffd60a" font-size="1" font-family="monospace" text-anchor="middle" dominant-baseline="middle">IO3</text>
<line x1="14.16" y1="4.459999999999999" x2="14.16" y2="6.999999999999999" stroke="#ffd60a" stroke-width="0.332" stroke-linecap="round"/>
<text x="14.16" y="3.999999999999999" fill="#ffd60a" font-size="1" font-family="monospace" text-anchor="middle" dominant-baseline="middle">IO4</text>
<line x1="16.700000000000003" y1="4.459999999999999" x2="16.7" y2="6.999999999999999" stroke="#ffd60a" stroke-width="0.332" stroke-linecap="round"/>
<text x="16.700000000000003" y="3.999999999999999" fill="#ffd60a" font-size="1" font-family="monospace" text-anchor="middle" dominant-baseline="middle">IO5</text>
</svg>