<svg xmlns="http://www.w3.org/2000/svg" viewBox="0 0 19.43 19.08">
<rect x="4" y="12.079999999999998" width="11.43" height="5.08" stroke="#ffffff" stroke-width="0.3" fill="rgba(255,255,255,0.06)"/>
<polyline points="5.143000000000001,8.524 5.143000000000001,8.27 6.667,8.27" stroke="#ffffff" stroke-width="0.3" stroke-linejoin="round" stroke-linecap="round" fill="none"/>
<line x1="5.905" y1="6.999999999999999" x2="5.905" y2="8.27" stroke="#ffffff" stroke-width="0.3" stroke-linecap="round" fill="none"/>
<polyline points="5.905,8.27 5.905,10.809999999999999 10.985,10.809999999999999 10.985,8.27" stroke="#ffffff" stroke-width="0.3" stroke-linejoin="round" stroke-linecap="round" fill="none"/>
<polyline points="5.905,8.27 6.54,9.54 5.2700000000000005,9.54 5.905,8.27" stroke="#ffffff" stroke-width="0.3" stroke-linejoin="round" stroke-linecap="round" fill="none"/>
<line x1="8.445" y1="6.999999999999999" x2="8.445" y2="8.27" stroke="#ffffff" stroke-width="0.3" stroke-linecap="round" fill="none"/>
<line x1="8.445" y1="10.809999999999999" x2="8.445" y2="8.27" stroke="#ffffff" stroke-width="0.3" stroke-linecap="round" fill="none"/>
<line x1="8.445" y1="10.809999999999999" x2="8.445" y2="12.079999999999998" stroke="#ffffff" stroke-width="0.3" stroke-linecap="round" fill="none"/>
<circle cx="8.445" cy="10.809999999999999" r="0.254" stroke="#ffffff" stroke-width="0.3" fill="#ffffff"/>
<polyline points="9.08,9.54 7.8100000000000005,9.54 8.445,8.27 9.08,9.54" stroke="#ffffff" stroke-width="0.3" stroke-linejoin="round" stroke-linecap="round" fill="none"/>
<polyline points="9.207,8.27 7.683,8.27 7.683,8.524" stroke="#ffffff" stroke-width="0.3" stroke-linejoin="round" stroke-linecap="round" fill="none"/>
<polyline points="10.223,8.524 10.223,8.27 11.620000000000001,8.27 11.747,8.27" stroke="#ffffff" stroke-width="0.3" stroke-linejoin="round" stroke-linecap="round" fill="none"/>
<line x1="10.985" y1="6.999999999999999" x2="10.985" y2="8.27" stroke="#ffffff" stroke-width="0.3" stroke-linecap="round" fill="none"/>
<polyline points="10.985,8.27 10.35,9.54 11.620000000000001,9.54 10.985,8.27" stroke="#ffffff" stroke-width="0.3" stroke-linejoin="round" stroke-linecap="round" fill="none"/>
<circle cx="10.985" cy="10.809999999999999" r="0.254" stroke="#ffffff" stroke-width="0.3" fill="#ffffff"/>
<polyline points="12.763,8.524 12.763,8.27 14.16,8.27 14.286999999999999,8.27" stroke="#ffffff" stroke-width="0.3" stroke-linejoin="round" stroke-linecap="round" fill="none"/>
<line x1="13.525" y1="6.999999999999999" x2="13.525" y2="8.27" stroke="#ffffff" stroke-width="0.3" stroke-linecap="round" fill="none"/>
<polyline points="13.525,8.27 13.525,10.809999999999999 10.985,10.809999999999999" stroke="#ffffff" stroke-width="0.3" stroke-linejoin="round" stroke-linecap="round" fill="none"/>
<polyline points="13.525,8.27 12.89,9.54 14.16,9.54 13.525,8.27" stroke="#ffffff" stroke-width="0.3" stroke-linejoin="round" stroke-linecap="round" fill="none"/>
<line x1="8.445" y1="14.62" x2="8.445" y2="12.079999999999998" stroke="#ffd60a" stroke-width="0.2775714285714286" stroke-linecap="round"/>
<text x="8.445" y="15.079999999999998" fill="#ffd60a" font-size="1" font-family="monospace" text-anchor="middle" dominant-baseline="middle">A</text>
<line x1="5.905" y1="4.459999999999999" x2="5.904999999999999" y2="6.999999999999999" stroke="#ffd60a" stroke-width="0.2775714285714286" stroke-linecap="round"/>
<text x="5.905" y="3.999999999999999" fill="#ffd60a" font-size="1" font-family="monospace" text-anchor="middle" dominant-baseline="middle">K</text>
<line x1="8.445" y1="4.459999999999999" x2="8.445" y2="6.999999999999999" stroke="#ffd60a" stroke-width="0.2775714285714286" stroke-linecap="round"/>
<text x="8.445" y="3.999999999999999" fill="#ffd60a" font-size="1" font-family="monospace" text-anchor="middle" dominant-baseline="middle">K</text>
<line x1="10.985" y1="4.459999999999999" x2="10.985" y2="6.999999999999999" stroke="#ffd60a" stroke-width="0.2775714285714286" stroke-linecap="round"/>
<text x="10.985" y="3.999999999999999" fill="#ffd60a" font-size="1" font-family="monospace" text-anchor="middle" dominant-baseline="middle">K</text>
<line x1="13.525" y1="4.459999999999999" x2="13.524999999999999" y2="6.999999999999999" stroke="#ffd60a" stroke-width="0.2775714285714286" stroke-linecap="round"/>
<text x="13.525" y="3.999999999999999" fill="#ffd60a" font-size="1" font-family="monospace" text-anchor="middle" dominant-baseline="middle">K</text>
</svg>