<svg xmlns="http://www.w3.org/2000/svg" viewBox="0 0 260 420">
<rect x="50" y="50" width="160" height="320" stroke="#ffffff" stroke-width="1.5" fill="rgba(255,255,255,0.04)"/>
<text x="130" y="210" fill="#888" font-size="3" font-family="monospace" text-anchor="middle" dominant-baseline="middle">U</text>
<line x1="30" y1="60" x2="50" y2="60" stroke="#ffd60a" stroke-width="1.5" stroke-linecap="round"/>
<text x="55" y="60" fill="#ffd60a" font-size="2" font-family="monospace" text-anchor="start" dominant-baseline="middle">MTMS</text>
<line x1="30" y1="80" x2="50" y2="80" stroke="#ffd60a" stroke-width="1.5" stroke-linecap="round"/>
<text x="55" y="80" fill="#ffd60a" font-size="2" font-family="monospace" text-anchor="start" dominant-baseline="middle">MTDI</text>
<line x1="30" y1="100" x2="50" y2="100" stroke="#ffd60a" stroke-width="1.5" stroke-linecap="round"/>
<text x="55" y="100" fill="#ffd60a" font-size="2" font-family="monospace" text-anchor="start" dominant-baseline="middle">MTCK</text>
<line x1="30" y1="120" x2="50" y2="120" stroke="#ffd60a" stroke-width="1.5" stroke-linecap="round"/>
<text x="55" y="120" fill="#ffd60a" font-size="2" font-family="monospace" text-anchor="start" dominant-baseline="middle">MTDO</text>
<line x1="30" y1="140" x2="50" y2="140" stroke="#ffd60a" stroke-width="1.5" stroke-linecap="round"/>
<text x="55" y="140" fill="#ffd60a" font-size="2" font-family="monospace" text-anchor="start" dominant-baseline="middle">GPIO2</text>
<line x1="30" y1="160" x2="50" y2="160" stroke="#ffd60a" stroke-width="1.5" stroke-linecap="round"/>
<text x="55" y="160" fill="#ffd60a" font-size="2" font-family="monospace" text-anchor="start" dominant-baseline="middle">GPIO0</text>
<line x1="30" y1="180" x2="50" y2="180" stroke="#ffd60a" stroke-width="1.5" stroke-linecap="round"/>
<text x="55" y="180" fill="#ffd60a" font-size="2" font-family="monospace" text-anchor="start" dominant-baseline="middle">GPIO4</text>
<line x1="30" y1="200" x2="50" y2="200" stroke="#ffd60a" stroke-width="1.5" stroke-linecap="round"/>
<text x="55" y="200" fill="#ffd60a" font-size="2" font-family="monospace" text-anchor="start" dominant-baseline="middle">SDIO_DATA_2</text>
<line x1="30" y1="220" x2="50" y2="220" stroke="#ffd60a" stroke-width="1.5" stroke-linecap="round"/>
<text x="55" y="220" fill="#ffd60a" font-size="2" font-family="monospace" text-anchor="start" dominant-baseline="middle">SDIO_DATA_3</text>
<line x1="30" y1="240" x2="50" y2="240" stroke="#ffd60a" stroke-width="1.5" stroke-linecap="round"/>
<text x="55" y="240" fill="#ffd60a" font-size="2" font-family="monospace" text-anchor="start" dominant-baseline="middle">SDIO_CMD</text>
<line x1="30" y1="260" x2="50" y2="260" stroke="#ffd60a" stroke-width="1.5" stroke-linecap="round"/>
<text x="55" y="260" fill="#ffd60a" font-size="2" font-family="monospace" text-anchor="start" dominant-baseline="middle">SDIO_CLK</text>
<line x1="30" y1="280" x2="50" y2="280" stroke="#ffd60a" stroke-width="1.5" stroke-linecap="round"/>
<text x="55" y="280" fill="#ffd60a" font-size="2" font-family="monospace" text-anchor="start" dominant-baseline="middle">SDIO_DATA_0</text>
<line x1="30" y1="300" x2="50" y2="300" stroke="#ffd60a" stroke-width="1.5" stroke-linecap="round"/>
<text x="55" y="300" fill="#ffd60a" font-size="2" font-family="monospace" text-anchor="start" dominant-baseline="middle">SDIO_DATA_1</text>
<line x1="30" y1="320" x2="50" y2="320" stroke="#ffd60a" stroke-width="1.5" stroke-linecap="round"/>
<text x="55" y="320" fill="#ffd60a" font-size="2" font-family="monospace" text-anchor="start" dominant-baseline="middle">GPIO5</text>
<line x1="30" y1="340" x2="50" y2="340" stroke="#ffd60a" stroke-width="1.5" stroke-linecap="round"/>
<text x="55" y="340" fill="#ffd60a" font-size="2" font-family="monospace" text-anchor="start" dominant-baseline="middle">U0RXD</text>
<line x1="30" y1="360" x2="50" y2="360" stroke="#ffd60a" stroke-width="1.5" stroke-linecap="round"/>
<text x="55" y="360" fill="#ffd60a" font-size="2" font-family="monospace" text-anchor="start" dominant-baseline="middle">U0TXD</text>
<line x1="230" y1="70" x2="210" y2="70" stroke="#ffd60a" stroke-width="1.5" stroke-linecap="round"/>
<text x="205" y="70" fill="#ffd60a" font-size="2" font-family="monospace" text-anchor="end" dominant-baseline="middle">LNA</text>
<line x1="230" y1="110" x2="210" y2="110" stroke="#ffd60a" stroke-width="1.5" stroke-linecap="round"/>
<text x="205" y="110" fill="#ffd60a" font-size="2" font-family="monospace" text-anchor="end" dominant-baseline="middle">TOUT</text>
<line x1="230" y1="150" x2="210" y2="150" stroke="#ffd60a" stroke-width="1.5" stroke-linecap="round"/>
<text x="205" y="150" fill="#ffd60a" font-size="2" font-family="monospace" text-anchor="end" dominant-baseline="middle">CHIP_PU</text>
<line x1="230" y1="190" x2="210" y2="190" stroke="#ffd60a" stroke-width="1.5" stroke-linecap="round"/>
<text x="205" y="190" fill="#ffd60a" font-size="2" font-family="monospace" text-anchor="end" dominant-baseline="middle">XPD_DCDC</text>
<line x1="230" y1="230" x2="210" y2="230" stroke="#ffd60a" stroke-width="1.5" stroke-linecap="round"/>
<text x="205" y="230" fill="#ffd60a" font-size="2" font-family="monospace" text-anchor="end" dominant-baseline="middle">XTAL_OUT</text>
<line x1="230" y1="270" x2="210" y2="270" stroke="#ffd60a" stroke-width="1.5" stroke-linecap="round"/>
<text x="205" y="270" fill="#ffd60a" font-size="2" font-family="monospace" text-anchor="end" dominant-baseline="middle">XTAL_IN</text>
<line x1="230" y1="310" x2="210" y2="310" stroke="#ffd60a" stroke-width="1.5" stroke-linecap="round"/>
<text x="205" y="310" fill="#ffd60a" font-size="2" font-family="monospace" text-anchor="end" dominant-baseline="middle">RES12K</text>
<line x1="230" y1="350" x2="210" y2="350" stroke="#ffd60a" stroke-width="1.5" stroke-linecap="round"/>
<text x="205" y="350" fill="#ffd60a" font-size="2" font-family="monospace" text-anchor="end" dominant-baseline="middle">~{EXT_RSTB}</text>
<line x1="130" y1="30" x2="130" y2="50" stroke="#ffd60a" stroke-width="1.5" stroke-linecap="round"/>
<text x="130" y="25" fill="#ffd60a" font-size="2" font-family="monospace" text-anchor="middle" dominant-baseline="middle">GND</text>
<line x1="60" y1="390" x2="60" y2="370" stroke="#ffd60a" stroke-width="1.5" stroke-linecap="round"/>
<text x="60" y="404" fill="#ffd60a" font-size="2" font-family="monospace" text-anchor="middle" dominant-baseline="middle">VDDA</text>
<line x1="80" y1="390" x2="80" y2="370" stroke="#ffd60a" stroke-width="1.5" stroke-linecap="round"/>
<text x="80" y="404" fill="#ffd60a" font-size="2" font-family="monospace" text-anchor="middle" dominant-baseline="middle">VDD3P3</text>
<line x1="100" y1="390" x2="100" y2="370" stroke="#ffd60a" stroke-width="1.5" stroke-linecap="round"/>
<text x="100" y="404" fill="#ffd60a" font-size="2" font-family="monospace" text-anchor="middle" dominant-baseline="middle">VDD3P3</text>
<line x1="120" y1="390" x2="120" y2="370" stroke="#ffd60a" stroke-width="1.5" stroke-linecap="round"/>
<text x="120" y="404" fill="#ffd60a" font-size="2" font-family="monospace" text-anchor="middle" dominant-baseline="middle">VDD_RTC</text>
<line x1="140" y1="390" x2="140" y2="370" stroke="#ffd60a" stroke-width="1.5" stroke-linecap="round"/>
<text x="140" y="404" fill="#ffd60a" font-size="2" font-family="monospace" text-anchor="middle" dominant-baseline="middle">VDDPST</text>
<line x1="160" y1="390" x2="160" y2="370" stroke="#ffd60a" stroke-width="1.5" stroke-linecap="round"/>
<text x="160" y="404" fill="#ffd60a" font-size="2" font-family="monospace" text-anchor="middle" dominant-baseline="middle">VDDPST</text>
<line x1="180" y1="390" x2="180" y2="370" stroke="#ffd60a" stroke-width="1.5" stroke-linecap="round"/>
<text x="180" y="404" fill="#ffd60a" font-size="2" font-family="monospace" text-anchor="middle" dominant-baseline="middle">VDDD</text>
<line x1="200" y1="390" x2="200" y2="370" stroke="#ffd60a" stroke-width="1.5" stroke-linecap="round"/>
<text x="200" y="404" fill="#ffd60a" font-size="2" font-family="monospace" text-anchor="middle" dominant-baseline="middle">VDDA</text>
</svg>