<svg xmlns="http://www.w3.org/2000/svg" viewBox="0 0 23.700000000000003 23.240000000000002">
<path d="M 9.08 10.985000000000001 A 0.8980874524714828 0.8980874524714828 0 0 1 9.08 12.255" stroke="#ffffff" stroke-width="0.3" fill="none"/>
<line x1="8.445" y1="10.350000000000001" x2="8.445" y2="8.445" stroke="#ffffff" stroke-width="0.3" stroke-linecap="round" fill="none"/>
<line x1="8.445" y1="12.89" x2="8.445" y2="14.795000000000002" stroke="#ffffff" stroke-width="0.3" stroke-linecap="round" fill="none"/>
<line x1="9.08" y1="12.255" x2="8.445" y2="12.89" stroke="#ffffff" stroke-width="0.3" stroke-linecap="round" fill="none"/>
<path d="M 8.445 8.445 A 2.0080677348871085 2.0080677348871085 0 0 1 12.254999999999999 8.445" stroke="#ffffff" stroke-width="0.3" fill="none"/>
<path d="M 12.254999999999999 14.795000000000002 A 2.0080677348871085 2.0080677348871085 0 0 1 8.445 14.795000000000002" stroke="#ffffff" stroke-width="0.3" fill="none"/>
<line x1="11.62" y1="10.985000000000001" x2="12.254999999999999" y2="10.350000000000001" stroke="#ffffff" stroke-width="0.3" stroke-linecap="round" fill="none"/>
<line x1="11.62" y1="12.255" x2="12.254999999999999" y2="12.89" stroke="#ffffff" stroke-width="0.3" stroke-linecap="round" fill="none"/>
<line x1="12.254999999999999" y1="10.350000000000001" x2="12.254999999999999" y2="8.445" stroke="#ffffff" stroke-width="0.3" stroke-linecap="round" fill="none"/>
<path d="M 11.62 12.255 A 0.8980874524714828 0.8980874524714828 0 0 1 11.62 10.985000000000001" stroke="#ffffff" stroke-width="0.3" fill="none"/>
<line x1="12.254999999999999" y1="12.89" x2="12.254999999999999" y2="14.795000000000002" stroke="#ffffff" stroke-width="0.3" stroke-linecap="round" fill="none"/>
<polyline points="4,4.000000000000001 16.7,4.000000000000001 16.7,19.240000000000002 4,19.240000000000002 4,4.000000000000001" stroke="#ffffff" stroke-width="0.3" stroke-linejoin="round" stroke-linecap="round" fill="rgba(255,255,255,0.06)"/>
<line x1="9.08" y1="10.985000000000001" x2="8.445" y2="10.350000000000001" stroke="#ffffff" stroke-width="0.3" stroke-linecap="round" fill="none"/>
<circle cx="10.35" cy="9.080000000000002" r="0.898" stroke="#ffffff" stroke-width="0.3" fill="#ffffff"/>
<circle cx="10.35" cy="14.16" r="0.898" stroke="#ffffff" stroke-width="0.3" fill="#ffffff"/>
<line x1="19.240000000000002" y1="6.540000000000001" x2="16.7" y2="6.540000000000001" stroke="#ffd60a" stroke-width="0.33857142857142863" stroke-linecap="round"/>
<text x="19.700000000000003" y="6.540000000000001" fill="#ffd60a" font-size="1" font-family="monospace" text-anchor="end" dominant-baseline="middle">L</text>
<line x1="19.240000000000002" y1="16.700000000000003" x2="16.7" y2="16.700000000000003" stroke="#ffd60a" stroke-width="0.33857142857142863" stroke-linecap="round"/>
<text x="19.700000000000003" y="16.700000000000003" fill="#ffd60a" font-size="1" font-family="monospace" text-anchor="end" dominant-baseline="middle">N</text>
</svg>