<svg xmlns="http://www.w3.org/2000/svg" viewBox="0 0 31.487900000000003 23.240000000000002">
<path d="M 4.802899999999999 12.128 A 1.9708585502553058 1.9708585502553058 0 0 1 4.802899999999999 8.953" stroke="#ffffff" stroke-width="0.3" fill="none"/>
<rect x="8.9939" y="17.462" width="6.223" height="2.9210000000000003" stroke="#ffffff" stroke-width="0.3" fill="none"/>
<rect x="15.5979" y="18.732" width="0.762" height="0.25399999999999956" stroke="#ffffff" stroke-width="0.3" fill="#ffffff"/>
<line x1="15.9789" y1="17.97" x2="15.9789" y2="18.478" stroke="#ffffff" stroke-width="0.3" stroke-linecap="round" fill="none"/>
<polyline points="16.3599,13.524999999999999 16.994899999999998,14.16 16.994899999999998,17.97" stroke="#ffffff" stroke-width="0.3" stroke-linejoin="round" stroke-linecap="round" fill="none"/>
<line x1="16.994899999999998" y1="5.27" x2="15.216899999999999" y2="5.27" stroke="#ffffff" stroke-width="0.3" stroke-linecap="round" fill="none"/>
<polyline points="18.3919,16.192 19.026899999999998,16.826999999999998 19.026899999999998,17.97" stroke="#ffffff" stroke-width="0.3" stroke-linejoin="round" stroke-linecap="round" fill="none"/>
<line x1="19.5349" y1="17.97" x2="15.9789" y2="17.97" stroke="#ffffff" stroke-width="0.3" stroke-linecap="round" fill="none"/>
<line x1="6.326899999999998" y1="9.969" x2="5.437899999999999" y2="9.08" stroke="#ffffff" stroke-width="0.3" stroke-linecap="round" fill="none"/>
<line x1="6.326899999999998" y1="9.969" x2="5.818899999999999" y2="9.969" stroke="#ffffff" stroke-width="0.3" stroke-linecap="round" fill="none"/>
<line x1="6.326899999999998" y1="9.969" x2="6.326899999999998" y2="9.461" stroke="#ffffff" stroke-width="0.3" stroke-linecap="round" fill="none"/>
<line x1="6.453899999999999" y1="10.985" x2="5.564899999999998" y2="10.096" stroke="#ffffff" stroke-width="0.3" stroke-linecap="round" fill="none"/>
<line x1="6.453899999999999" y1="10.985" x2="5.945899999999998" y2="10.985" stroke="#ffffff" stroke-width="0.3" stroke-linecap="round" fill="none"/>
<line x1="6.453899999999999" y1="10.985" x2="6.453899999999999" y2="10.477" stroke="#ffffff" stroke-width="0.3" stroke-linecap="round" fill="none"/>
<polyline points="6.707899999999999,9.715 8.358899999999998,9.715 7.469899999999999,11.366 6.707899999999999,9.715" stroke="#ffffff" stroke-width="0.3" stroke-linejoin="round" stroke-linecap="round" fill="#ffffff"/>
<line x1="6.707899999999999" y1="11.366" x2="8.358899999999998" y2="11.366" stroke="#ffffff" stroke-width="0.3" stroke-linecap="round" fill="none"/>
<rect x="8.9939" y="14.16" width="6.223" height="9.398" stroke="#ffffff" stroke-width="0.3" fill="none"/>
<polyline points="8.9939,8.953 7.469899999999999,8.953 7.469899999999999,12.128 8.9939,12.128" stroke="#ffffff" stroke-width="0.3" stroke-linejoin="round" stroke-linecap="round" fill="none"/>
<line x1="16.3599" y1="12.254999999999999" x2="16.3599" y2="14.16" stroke="#ffffff" stroke-width="0.3" stroke-linecap="round" fill="none"/>
<polyline points="16.3599,12.89 16.994899999999998,12.254999999999999 16.994899999999998,10.35 19.6619,10.35" stroke="#ffffff" stroke-width="0.3" stroke-linejoin="round" stroke-linecap="round" fill="none"/>
<line x1="16.3599" y1="13.270999999999999" x2="15.216899999999999" y2="13.270999999999999" stroke="#ffffff" stroke-width="0.3" stroke-linecap="round" fill="none"/>
<line x1="16.4869" y1="13.905999999999999" x2="16.613899999999997" y2="13.905999999999999" stroke="#ffffff" stroke-width="0.3" stroke-linecap="round" fill="none"/>
<line x1="16.7409" y1="13.905999999999999" x2="16.613899999999997" y2="13.905999999999999" stroke="#ffffff" stroke-width="0.3" stroke-linecap="round" fill="none"/>
<line x1="16.7409" y1="13.905999999999999" x2="16.7409" y2="13.652" stroke="#ffffff" stroke-width="0.3" stroke-linecap="round" fill="none"/>
<polyline points="16.994899999999998,5.904999999999999 16.994899999999998,5.27 21.058899999999998,5.27" stroke="#ffffff" stroke-width="0.3" stroke-linejoin="round" stroke-linecap="round" fill="none"/>
<line x1="16.994899999999998" y1="10.35" x2="16.994899999999998" y2="9.08" stroke="#ffffff" stroke-width="0.3" stroke-linecap="round" fill="none"/>
<rect x="16.3599" y="9.08" width="1.27" height="3.1750000000000003" stroke="#ffffff" stroke-width="0.3" fill="none"/>
<line x1="18.3919" y1="14.922" x2="18.3919" y2="16.826999999999998" stroke="#ffffff" stroke-width="0.3" stroke-linecap="round" fill="none"/>
<polyline points="18.3919,15.556999999999999 19.026899999999998,14.922 19.026899999999998,13.017 19.6619,13.017" stroke="#ffffff" stroke-width="0.3" stroke-linejoin="round" stroke-linecap="round" fill="none"/>
<line x1="18.3919" y1="15.937999999999999" x2="15.216899999999999" y2="15.937999999999999" stroke="#ffffff" stroke-width="0.3" stroke-linecap="round" fill="none"/>
<line x1="18.5189" y1="16.573" x2="18.645899999999997" y2="16.573" stroke="#ffffff" stroke-width="0.3" stroke-linecap="round" fill="none"/>
<line x1="18.7729" y1="16.573" x2="18.645899999999997" y2="16.573" stroke="#ffffff" stroke-width="0.3" stroke-linecap="round" fill="none"/>
<line x1="18.7729" y1="16.573" x2="18.7729" y2="16.319" stroke="#ffffff" stroke-width="0.3" stroke-linecap="round" fill="none"/>
<rect x="4.802899999999999" y="19.240000000000002" width="19.685" height="15.24" stroke="#ffffff" stroke-width="0.3" fill="rgba(255,255,255,0.06)"/>
<line x1="27.0279" y1="5.27" x2="24.4879" y2="5.27" stroke="#ffd60a" stroke-width="0.4498271428571429" stroke-linecap="round"/>
<text x="27.4879" y="5.27" fill="#ffd60a" font-size="1" font-family="monospace" text-anchor="end" dominant-baseline="middle">Vs</text>
<line x1="27.0279" y1="10.35" x2="24.4879" y2="10.35" stroke="#ffd60a" stroke-width="0.4498271428571429" stroke-linecap="round"/>
<text x="27.4879" y="10.35" fill="#ffd60a" font-size="1" font-family="monospace" text-anchor="end" dominant-baseline="middle">OUT</text>
<line x1="27.0279" y1="17.97" x2="24.4879" y2="17.97" stroke="#ffd60a" stroke-width="0.4498271428571429" stroke-linecap="round"/>
<text x="27.4879" y="17.97" fill="#ffd60a" font-size="1" font-family="monospace" text-anchor="end" dominant-baseline="middle">GND</text>
<line x1="27.0279" y1="12.89" x2="24.4879" y2="12.889999999999999" stroke="#ffd60a" stroke-width="0.4498271428571429" stroke-linecap="round"/>
<text x="27.4879" y="12.89" fill="#ffd60a" font-size="1" font-family="monospace" text-anchor="end" dominant-baseline="middle">GLo</text>
</svg>