<svg xmlns="http://www.w3.org/2000/svg" viewBox="0 0 260 220">
<rect x="50" y="50" width="160" height="120" stroke="#ffffff" stroke-width="1.5" fill="rgba(255,255,255,0.04)"/>
<text x="130" y="110" fill="#888" font-size="3" font-family="monospace" text-anchor="middle" dominant-baseline="middle">U</text>
<line x1="30" y1="65" x2="50" y2="65" stroke="#ffd60a" stroke-width="1.5" stroke-linecap="round"/>
<text x="55" y="65" fill="#ffd60a" font-size="2" font-family="monospace" text-anchor="start" dominant-baseline="middle">OUT4</text>
<line x1="30" y1="95" x2="50" y2="95" stroke="#ffd60a" stroke-width="1.5" stroke-linecap="round"/>
<text x="55" y="95" fill="#ffd60a" font-size="2" font-family="monospace" text-anchor="start" dominant-baseline="middle">OUT3</text>
<line x1="30" y1="125" x2="50" y2="125" stroke="#ffd60a" stroke-width="1.5" stroke-linecap="round"/>
<text x="55" y="125" fill="#ffd60a" font-size="2" font-family="monospace" text-anchor="start" dominant-baseline="middle">OUT2</text>
<line x1="30" y1="155" x2="50" y2="155" stroke="#ffd60a" stroke-width="1.5" stroke-linecap="round"/>
<text x="55" y="155" fill="#ffd60a" font-size="2" font-family="monospace" text-anchor="start" dominant-baseline="middle">OUT1</text>
<line x1="230" y1="60" x2="210" y2="60" stroke="#ffd60a" stroke-width="1.5" stroke-linecap="round"/>
<text x="205" y="60" fill="#ffd60a" font-size="2" font-family="monospace" text-anchor="end" dominant-baseline="middle">IN1</text>
<line x1="230" y1="80" x2="210" y2="80" stroke="#ffd60a" stroke-width="1.5" stroke-linecap="round"/>
<text x="205" y="80" fill="#ffd60a" font-size="2" font-family="monospace" text-anchor="end" dominant-baseline="middle">ST1/2</text>
<line x1="230" y1="100" x2="210" y2="100" stroke="#ffd60a" stroke-width="1.5" stroke-linecap="round"/>
<text x="205" y="100" fill="#ffd60a" font-size="2" font-family="monospace" text-anchor="end" dominant-baseline="middle">IN2</text>
<line x1="230" y1="120" x2="210" y2="120" stroke="#ffd60a" stroke-width="1.5" stroke-linecap="round"/>
<text x="205" y="120" fill="#ffd60a" font-size="2" font-family="monospace" text-anchor="end" dominant-baseline="middle">IN3</text>
<line x1="230" y1="140" x2="210" y2="140" stroke="#ffd60a" stroke-width="1.5" stroke-linecap="round"/>
<text x="205" y="140" fill="#ffd60a" font-size="2" font-family="monospace" text-anchor="end" dominant-baseline="middle">ST3/4</text>
<line x1="230" y1="160" x2="210" y2="160" stroke="#ffd60a" stroke-width="1.5" stroke-linecap="round"/>
<text x="205" y="160" fill="#ffd60a" font-size="2" font-family="monospace" text-anchor="end" dominant-baseline="middle">IN4</text>
<line x1="90" y1="30" x2="90" y2="50" stroke="#ffd60a" stroke-width="1.5" stroke-linecap="round"/>
<text x="90" y="25" fill="#ffd60a" font-size="2" font-family="monospace" text-anchor="middle" dominant-baseline="middle">GND1/2</text>
<line x1="170" y1="30" x2="170" y2="50" stroke="#ffd60a" stroke-width="1.5" stroke-linecap="round"/>
<text x="170" y="25" fill="#ffd60a" font-size="2" font-family="monospace" text-anchor="middle" dominant-baseline="middle">GND3/4</text>
<line x1="60" y1="190" x2="60" y2="170" stroke="#ffd60a" stroke-width="1.5" stroke-linecap="round"/>
<text x="60" y="204" fill="#ffd60a" font-size="2" font-family="monospace" text-anchor="middle" dominant-baseline="middle">VBB</text>
<line x1="80" y1="190" x2="80" y2="170" stroke="#ffd60a" stroke-width="1.5" stroke-linecap="round"/>
<text x="80" y="204" fill="#ffd60a" font-size="2" font-family="monospace" text-anchor="middle" dominant-baseline="middle">VBB</text>
<line x1="100" y1="190" x2="100" y2="170" stroke="#ffd60a" stroke-width="1.5" stroke-linecap="round"/>
<text x="100" y="204" fill="#ffd60a" font-size="2" font-family="monospace" text-anchor="middle" dominant-baseline="middle">VBB</text>
<line x1="120" y1="190" x2="120" y2="170" stroke="#ffd60a" stroke-width="1.5" stroke-linecap="round"/>
<text x="120" y="204" fill="#ffd60a" font-size="2" font-family="monospace" text-anchor="middle" dominant-baseline="middle">VBB</text>
<line x1="140" y1="190" x2="140" y2="170" stroke="#ffd60a" stroke-width="1.5" stroke-linecap="round"/>
<text x="140" y="204" fill="#ffd60a" font-size="2" font-family="monospace" text-anchor="middle" dominant-baseline="middle">VBB</text>
<line x1="160" y1="190" x2="160" y2="170" stroke="#ffd60a" stroke-width="1.5" stroke-linecap="round"/>
<text x="160" y="204" fill="#ffd60a" font-size="2" font-family="monospace" text-anchor="middle" dominant-baseline="middle">VBB</text>
<line x1="180" y1="190" x2="180" y2="170" stroke="#ffd60a" stroke-width="1.5" stroke-linecap="round"/>
<text x="180" y="204" fill="#ffd60a" font-size="2" font-family="monospace" text-anchor="middle" dominant-baseline="middle">VBB</text>
<line x1="200" y1="190" x2="200" y2="170" stroke="#ffd60a" stroke-width="1.5" stroke-linecap="round"/>
<text x="200" y="204" fill="#ffd60a" font-size="2" font-family="monospace" text-anchor="middle" dominant-baseline="middle">VBB</text>
</svg>