<svg xmlns="http://www.w3.org/2000/svg" viewBox="0 0 440 560">
<rect x="50" y="50" width="340" height="460" stroke="#ffffff" stroke-width="1.5" fill="rgba(255,255,255,0.04)"/>
<text x="220" y="280" fill="#888" font-size="3" font-family="monospace" text-anchor="middle" dominant-baseline="middle">U</text>
<line x1="30" y1="60" x2="50" y2="60" stroke="#ffd60a" stroke-width="1.5" stroke-linecap="round"/>
<text x="55" y="60" fill="#ffd60a" font-size="2" font-family="monospace" text-anchor="start" dominant-baseline="middle">TXRX1P_B</text>
<line x1="30" y1="80" x2="50" y2="80" stroke="#ffd60a" stroke-width="1.5" stroke-linecap="round"/>
<text x="55" y="80" fill="#ffd60a" font-size="2" font-family="monospace" text-anchor="start" dominant-baseline="middle">TXRX1M_B</text>
<line x1="30" y1="100" x2="50" y2="100" stroke="#ffd60a" stroke-width="1.5" stroke-linecap="round"/>
<text x="55" y="100" fill="#ffd60a" font-size="2" font-family="monospace" text-anchor="start" dominant-baseline="middle">TXRX1P_C</text>
<line x1="30" y1="120" x2="50" y2="120" stroke="#ffd60a" stroke-width="1.5" stroke-linecap="round"/>
<text x="55" y="120" fill="#ffd60a" font-size="2" font-family="monospace" text-anchor="start" dominant-baseline="middle">TXRX1M_C</text>
<line x1="30" y1="140" x2="50" y2="140" stroke="#ffd60a" stroke-width="1.5" stroke-linecap="round"/>
<text x="55" y="140" fill="#ffd60a" font-size="2" font-family="monospace" text-anchor="start" dominant-baseline="middle">TXRX1P_D</text>
<line x1="30" y1="160" x2="50" y2="160" stroke="#ffd60a" stroke-width="1.5" stroke-linecap="round"/>
<text x="55" y="160" fill="#ffd60a" font-size="2" font-family="monospace" text-anchor="start" dominant-baseline="middle">TXRX1M_D</text>
<line x1="30" y1="180" x2="50" y2="180" stroke="#ffd60a" stroke-width="1.5" stroke-linecap="round"/>
<text x="55" y="180" fill="#ffd60a" font-size="2" font-family="monospace" text-anchor="start" dominant-baseline="middle">TXRX2P_A</text>
<line x1="30" y1="200" x2="50" y2="200" stroke="#ffd60a" stroke-width="1.5" stroke-linecap="round"/>
<text x="55" y="200" fill="#ffd60a" font-size="2" font-family="monospace" text-anchor="start" dominant-baseline="middle">TXRX2M_A</text>
<line x1="30" y1="220" x2="50" y2="220" stroke="#ffd60a" stroke-width="1.5" stroke-linecap="round"/>
<text x="55" y="220" fill="#ffd60a" font-size="2" font-family="monospace" text-anchor="start" dominant-baseline="middle">TXRX2P_B</text>
<line x1="30" y1="240" x2="50" y2="240" stroke="#ffd60a" stroke-width="1.5" stroke-linecap="round"/>
<text x="55" y="240" fill="#ffd60a" font-size="2" font-family="monospace" text-anchor="start" dominant-baseline="middle">TXRX2M_B</text>
<line x1="30" y1="260" x2="50" y2="260" stroke="#ffd60a" stroke-width="1.5" stroke-linecap="round"/>
<text x="55" y="260" fill="#ffd60a" font-size="2" font-family="monospace" text-anchor="start" dominant-baseline="middle">TXRX2P_C</text>
<line x1="30" y1="280" x2="50" y2="280" stroke="#ffd60a" stroke-width="1.5" stroke-linecap="round"/>
<text x="55" y="280" fill="#ffd60a" font-size="2" font-family="monospace" text-anchor="start" dominant-baseline="middle">TXRX2M_C</text>
<line x1="30" y1="300" x2="50" y2="300" stroke="#ffd60a" stroke-width="1.5" stroke-linecap="round"/>
<text x="55" y="300" fill="#ffd60a" font-size="2" font-family="monospace" text-anchor="start" dominant-baseline="middle">TXRX2P_D</text>
<line x1="30" y1="320" x2="50" y2="320" stroke="#ffd60a" stroke-width="1.5" stroke-linecap="round"/>
<text x="55" y="320" fill="#ffd60a" font-size="2" font-family="monospace" text-anchor="start" dominant-baseline="middle">TXRX2M_D</text>
<line x1="30" y1="340" x2="50" y2="340" stroke="#ffd60a" stroke-width="1.5" stroke-linecap="round"/>
<text x="55" y="340" fill="#ffd60a" font-size="2" font-family="monospace" text-anchor="start" dominant-baseline="middle">NC</text>
<line x1="30" y1="360" x2="50" y2="360" stroke="#ffd60a" stroke-width="1.5" stroke-linecap="round"/>
<text x="55" y="360" fill="#ffd60a" font-size="2" font-family="monospace" text-anchor="start" dominant-baseline="middle">NC</text>
<line x1="30" y1="380" x2="50" y2="380" stroke="#ffd60a" stroke-width="1.5" stroke-linecap="round"/>
<text x="55" y="380" fill="#ffd60a" font-size="2" font-family="monospace" text-anchor="start" dominant-baseline="middle">LED2_0</text>
<line x1="30" y1="400" x2="50" y2="400" stroke="#ffd60a" stroke-width="1.5" stroke-linecap="round"/>
<text x="55" y="400" fill="#ffd60a" font-size="2" font-family="monospace" text-anchor="start" dominant-baseline="middle">LED2_1</text>
<line x1="30" y1="420" x2="50" y2="420" stroke="#ffd60a" stroke-width="1.5" stroke-linecap="round"/>
<text x="55" y="420" fill="#ffd60a" font-size="2" font-family="monospace" text-anchor="start" dominant-baseline="middle">LED1_0</text>
<line x1="30" y1="440" x2="50" y2="440" stroke="#ffd60a" stroke-width="1.5" stroke-linecap="round"/>
<text x="55" y="440" fill="#ffd60a" font-size="2" font-family="monospace" text-anchor="start" dominant-baseline="middle">LED1_1</text>
<line x1="30" y1="460" x2="50" y2="460" stroke="#ffd60a" stroke-width="1.5" stroke-linecap="round"/>
<text x="55" y="460" fill="#ffd60a" font-size="2" font-family="monospace" text-anchor="start" dominant-baseline="middle">ISET</text>
<line x1="30" y1="480" x2="50" y2="480" stroke="#ffd60a" stroke-width="1.5" stroke-linecap="round"/>
<text x="55" y="480" fill="#ffd60a" font-size="2" font-family="monospace" text-anchor="start" dominant-baseline="middle">TXRX1P_A</text>
<line x1="30" y1="500" x2="50" y2="500" stroke="#ffd60a" stroke-width="1.5" stroke-linecap="round"/>
<text x="55" y="500" fill="#ffd60a" font-size="2" font-family="monospace" text-anchor="start" dominant-baseline="middle">TXRX1M_A</text>
<line x1="410" y1="60" x2="390" y2="60" stroke="#ffd60a" stroke-width="1.5" stroke-linecap="round"/>
<text x="385" y="60" fill="#ffd60a" font-size="2" font-family="monospace" text-anchor="end" dominant-baseline="middle">RXD3</text>
<line x1="410" y1="80" x2="390" y2="80" stroke="#ffd60a" stroke-width="1.5" stroke-linecap="round"/>
<text x="385" y="80" fill="#ffd60a" font-size="2" font-family="monospace" text-anchor="end" dominant-baseline="middle">RXD2</text>
<line x1="410" y1="100" x2="390" y2="100" stroke="#ffd60a" stroke-width="1.5" stroke-linecap="round"/>
<text x="385" y="100" fill="#ffd60a" font-size="2" font-family="monospace" text-anchor="end" dominant-baseline="middle">RXD1</text>
<line x1="410" y1="120" x2="390" y2="120" stroke="#ffd60a" stroke-width="1.5" stroke-linecap="round"/>
<text x="385" y="120" fill="#ffd60a" font-size="2" font-family="monospace" text-anchor="end" dominant-baseline="middle">RXD0</text>
<line x1="410" y1="140" x2="390" y2="140" stroke="#ffd60a" stroke-width="1.5" stroke-linecap="round"/>
<text x="385" y="140" fill="#ffd60a" font-size="2" font-family="monospace" text-anchor="end" dominant-baseline="middle">RX_CLK/REFCLKO</text>
<line x1="410" y1="160" x2="390" y2="160" stroke="#ffd60a" stroke-width="1.5" stroke-linecap="round"/>
<text x="385" y="160" fill="#ffd60a" font-size="2" font-family="monospace" text-anchor="end" dominant-baseline="middle">RX_DV/CRS_DV/RX_CTL</text>
<line x1="410" y1="180" x2="390" y2="180" stroke="#ffd60a" stroke-width="1.5" stroke-linecap="round"/>
<text x="385" y="180" fill="#ffd60a" font-size="2" font-family="monospace" text-anchor="end" dominant-baseline="middle">RX_ER</text>
<line x1="410" y1="200" x2="390" y2="200" stroke="#ffd60a" stroke-width="1.5" stroke-linecap="round"/>
<text x="385" y="200" fill="#ffd60a" font-size="2" font-family="monospace" text-anchor="end" dominant-baseline="middle">TXD3</text>
<line x1="410" y1="220" x2="390" y2="220" stroke="#ffd60a" stroke-width="1.5" stroke-linecap="round"/>
<text x="385" y="220" fill="#ffd60a" font-size="2" font-family="monospace" text-anchor="end" dominant-baseline="middle">TXD2</text>
<line x1="410" y1="240" x2="390" y2="240" stroke="#ffd60a" stroke-width="1.5" stroke-linecap="round"/>
<text x="385" y="240" fill="#ffd60a" font-size="2" font-family="monospace" text-anchor="end" dominant-baseline="middle">TXD1</text>
<line x1="410" y1="260" x2="390" y2="260" stroke="#ffd60a" stroke-width="1.5" stroke-linecap="round"/>
<text x="385" y="260" fill="#ffd60a" font-size="2" font-family="monospace" text-anchor="end" dominant-baseline="middle">TXD0</text>
<line x1="410" y1="280" x2="390" y2="280" stroke="#ffd60a" stroke-width="1.5" stroke-linecap="round"/>
<text x="385" y="280" fill="#ffd60a" font-size="2" font-family="monospace" text-anchor="end" dominant-baseline="middle">TX_CLK/REFCLKI</text>
<line x1="410" y1="300" x2="390" y2="300" stroke="#ffd60a" stroke-width="1.5" stroke-linecap="round"/>
<text x="385" y="300" fill="#ffd60a" font-size="2" font-family="monospace" text-anchor="end" dominant-baseline="middle">TX_EN/TX_CTL</text>
<line x1="410" y1="320" x2="390" y2="320" stroke="#ffd60a" stroke-width="1.5" stroke-linecap="round"/>
<text x="385" y="320" fill="#ffd60a" font-size="2" font-family="monospace" text-anchor="end" dominant-baseline="middle">TX_ER</text>
<line x1="410" y1="340" x2="390" y2="340" stroke="#ffd60a" stroke-width="1.5" stroke-linecap="round"/>
<text x="385" y="340" fill="#ffd60a" font-size="2" font-family="monospace" text-anchor="end" dominant-baseline="middle">~{PME}</text>
<line x1="410" y1="360" x2="390" y2="360" stroke="#ffd60a" stroke-width="1.5" stroke-linecap="round"/>
<text x="385" y="360" fill="#ffd60a" font-size="2" font-family="monospace" text-anchor="end" dominant-baseline="middle">~{INTRP}</text>
<line x1="410" y1="380" x2="390" y2="380" stroke="#ffd60a" stroke-width="1.5" stroke-linecap="round"/>
<text x="385" y="380" fill="#ffd60a" font-size="2" font-family="monospace" text-anchor="end" dominant-baseline="middle">~{RESET}</text>
<line x1="410" y1="400" x2="390" y2="400" stroke="#ffd60a" stroke-width="1.5" stroke-linecap="round"/>
<text x="385" y="400" fill="#ffd60a" font-size="2" font-family="monospace" text-anchor="end" dominant-baseline="middle">SDO</text>
<line x1="410" y1="420" x2="390" y2="420" stroke="#ffd60a" stroke-width="1.5" stroke-linecap="round"/>
<text x="385" y="420" fill="#ffd60a" font-size="2" font-family="monospace" text-anchor="end" dominant-baseline="middle">SDI/SDA/MDIO</text>
<line x1="410" y1="440" x2="390" y2="440" stroke="#ffd60a" stroke-width="1.5" stroke-linecap="round"/>
<text x="385" y="440" fill="#ffd60a" font-size="2" font-family="monospace" text-anchor="end" dominant-baseline="middle">~{SCS}</text>
<line x1="410" y1="460" x2="390" y2="460" stroke="#ffd60a" stroke-width="1.5" stroke-linecap="round"/>
<text x="385" y="460" fill="#ffd60a" font-size="2" font-family="monospace" text-anchor="end" dominant-baseline="middle">SCL/MDC</text>
<line x1="410" y1="480" x2="390" y2="480" stroke="#ffd60a" stroke-width="1.5" stroke-linecap="round"/>
<text x="385" y="480" fill="#ffd60a" font-size="2" font-family="monospace" text-anchor="end" dominant-baseline="middle">XO</text>
<line x1="410" y1="500" x2="390" y2="500" stroke="#ffd60a" stroke-width="1.5" stroke-linecap="round"/>
<text x="385" y="500" fill="#ffd60a" font-size="2" font-family="monospace" text-anchor="end" dominant-baseline="middle">XI</text>
<line x1="135" y1="30" x2="135" y2="50" stroke="#ffd60a" stroke-width="1.5" stroke-linecap="round"/>
<text x="135" y="25" fill="#ffd60a" font-size="2" font-family="monospace" text-anchor="middle" dominant-baseline="middle">GND</text>
<line x1="305" y1="30" x2="305" y2="50" stroke="#ffd60a" stroke-width="1.5" stroke-linecap="round"/>
<text x="305" y="25" fill="#ffd60a" font-size="2" font-family="monospace" text-anchor="middle" dominant-baseline="middle">GND</text>
<line x1="60" y1="530" x2="60" y2="510" stroke="#ffd60a" stroke-width="1.5" stroke-linecap="round"/>
<text x="60" y="544" fill="#ffd60a" font-size="2" font-family="monospace" text-anchor="middle" dominant-baseline="middle">AVDDL</text>
<line x1="80" y1="530" x2="80" y2="510" stroke="#ffd60a" stroke-width="1.5" stroke-linecap="round"/>
<text x="80" y="544" fill="#ffd60a" font-size="2" font-family="monospace" text-anchor="middle" dominant-baseline="middle">AVDDH</text>
<line x1="100" y1="530" x2="100" y2="510" stroke="#ffd60a" stroke-width="1.5" stroke-linecap="round"/>
<text x="100" y="544" fill="#ffd60a" font-size="2" font-family="monospace" text-anchor="middle" dominant-baseline="middle">AVDDL</text>
<line x1="120" y1="530" x2="120" y2="510" stroke="#ffd60a" stroke-width="1.5" stroke-linecap="round"/>
<text x="120" y="544" fill="#ffd60a" font-size="2" font-family="monospace" text-anchor="middle" dominant-baseline="middle">AVDDL</text>
<line x1="140" y1="530" x2="140" y2="510" stroke="#ffd60a" stroke-width="1.5" stroke-linecap="round"/>
<text x="140" y="544" fill="#ffd60a" font-size="2" font-family="monospace" text-anchor="middle" dominant-baseline="middle">AVDDH</text>
<line x1="160" y1="530" x2="160" y2="510" stroke="#ffd60a" stroke-width="1.5" stroke-linecap="round"/>
<text x="160" y="544" fill="#ffd60a" font-size="2" font-family="monospace" text-anchor="middle" dominant-baseline="middle">DVDDL</text>
<line x1="180" y1="530" x2="180" y2="510" stroke="#ffd60a" stroke-width="1.5" stroke-linecap="round"/>
<text x="180" y="544" fill="#ffd60a" font-size="2" font-family="monospace" text-anchor="middle" dominant-baseline="middle">VDDIO</text>
<line x1="200" y1="530" x2="200" y2="510" stroke="#ffd60a" stroke-width="1.5" stroke-linecap="round"/>
<text x="200" y="544" fill="#ffd60a" font-size="2" font-family="monospace" text-anchor="middle" dominant-baseline="middle">DVDDL</text>
<line x1="220" y1="530" x2="220" y2="510" stroke="#ffd60a" stroke-width="1.5" stroke-linecap="round"/>
<text x="220" y="544" fill="#ffd60a" font-size="2" font-family="monospace" text-anchor="middle" dominant-baseline="middle">DVDDL</text>
<line x1="240" y1="530" x2="240" y2="510" stroke="#ffd60a" stroke-width="1.5" stroke-linecap="round"/>
<text x="240" y="544" fill="#ffd60a" font-size="2" font-family="monospace" text-anchor="middle" dominant-baseline="middle">VDDIO</text>
<line x1="260" y1="530" x2="260" y2="510" stroke="#ffd60a" stroke-width="1.5" stroke-linecap="round"/>
<text x="260" y="544" fill="#ffd60a" font-size="2" font-family="monospace" text-anchor="middle" dominant-baseline="middle">DVDDL</text>
<line x1="280" y1="530" x2="280" y2="510" stroke="#ffd60a" stroke-width="1.5" stroke-linecap="round"/>
<text x="280" y="544" fill="#ffd60a" font-size="2" font-family="monospace" text-anchor="middle" dominant-baseline="middle">DVDDL</text>
<line x1="300" y1="530" x2="300" y2="510" stroke="#ffd60a" stroke-width="1.5" stroke-linecap="round"/>
<text x="300" y="544" fill="#ffd60a" font-size="2" font-family="monospace" text-anchor="middle" dominant-baseline="middle">VDDIO</text>
<line x1="320" y1="530" x2="320" y2="510" stroke="#ffd60a" stroke-width="1.5" stroke-linecap="round"/>
<text x="320" y="544" fill="#ffd60a" font-size="2" font-family="monospace" text-anchor="middle" dominant-baseline="middle">DVDDL</text>
<line x1="340" y1="530" x2="340" y2="510" stroke="#ffd60a" stroke-width="1.5" stroke-linecap="round"/>
<text x="340" y="544" fill="#ffd60a" font-size="2" font-family="monospace" text-anchor="middle" dominant-baseline="middle">AVDDL</text>
<line x1="360" y1="530" x2="360" y2="510" stroke="#ffd60a" stroke-width="1.5" stroke-linecap="round"/>
<text x="360" y="544" fill="#ffd60a" font-size="2" font-family="monospace" text-anchor="middle" dominant-baseline="middle">AVDDH</text>
<line x1="380" y1="530" x2="380" y2="510" stroke="#ffd60a" stroke-width="1.5" stroke-linecap="round"/>
<text x="380" y="544" fill="#ffd60a" font-size="2" font-family="monospace" text-anchor="middle" dominant-baseline="middle">AVDDL</text>
</svg>