<svg xmlns="http://www.w3.org/2000/svg" viewBox="0 0 18.064 11.048">
<line x1="7.381" y1="5.27" x2="7.635" y2="5.27" stroke="#ffffff" stroke-width="0.3" stroke-linecap="round" fill="none"/>
<path d="M 8.016 4.254 A 0.5080047844998026 0.5080047844998026 0 0 1 7 4.254" stroke="#ffffff" stroke-width="0.3" fill="none"/>
<circle cx="7.508" cy="4.254" r="0.254" stroke="#ffffff" stroke-width="0.3" fill="#ffffff"/>
<circle cx="7.508" cy="6.7940000000000005" r="0.254" stroke="#ffffff" stroke-width="0.3" fill="#ffffff"/>
<path d="M 7 6.7940000000000005 A 0.5080047844998021 0.5080047844998021 0 0 1 8.016 6.7940000000000005" stroke="#ffffff" stroke-width="0.3" fill="none"/>
<line x1="7.635" y1="5.7780000000000005" x2="7.381" y2="5.7780000000000005" stroke="#ffffff" stroke-width="0.3" stroke-linecap="round" fill="none"/>
<line x1="7.889" y1="5.27" x2="8.143" y2="5.27" stroke="#ffffff" stroke-width="0.3" stroke-linecap="round" fill="none"/>
<line x1="8.143" y1="5.7780000000000005" x2="7.889" y2="5.7780000000000005" stroke="#ffffff" stroke-width="0.3" stroke-linecap="round" fill="none"/>
<line x1="8.397" y1="5.27" x2="8.651" y2="5.27" stroke="#ffffff" stroke-width="0.3" stroke-linecap="round" fill="none"/>
<path d="M 9.032 4.254 A 0.5080047844998024 0.5080047844998024 0 0 1 8.016 4.254" stroke="#ffffff" stroke-width="0.3" fill="none"/>
<path d="M 8.016 6.7940000000000005 A 0.5080047844998024 0.5080047844998024 0 0 1 9.032 6.7940000000000005" stroke="#ffffff" stroke-width="0.3" fill="none"/>
<line x1="8.651" y1="5.7780000000000005" x2="8.397" y2="5.7780000000000005" stroke="#ffffff" stroke-width="0.3" stroke-linecap="round" fill="none"/>
<line x1="8.905" y1="5.27" x2="9.159" y2="5.27" stroke="#ffffff" stroke-width="0.3" stroke-linecap="round" fill="none"/>
<line x1="9.159" y1="5.7780000000000005" x2="8.905" y2="5.7780000000000005" stroke="#ffffff" stroke-width="0.3" stroke-linecap="round" fill="none"/>
<line x1="9.413" y1="5.27" x2="9.667" y2="5.27" stroke="#ffffff" stroke-width="0.3" stroke-linecap="round" fill="none"/>
<path d="M 10.048 4.254 A 0.5080047844998024 0.5080047844998024 0 0 1 9.032 4.254" stroke="#ffffff" stroke-width="0.3" fill="none"/>
<path d="M 9.032 6.7940000000000005 A 0.5080047844998024 0.5080047844998024 0 0 1 10.048 6.7940000000000005" stroke="#ffffff" stroke-width="0.3" fill="none"/>
<line x1="9.667" y1="5.7780000000000005" x2="9.413" y2="5.7780000000000005" stroke="#ffffff" stroke-width="0.3" stroke-linecap="round" fill="none"/>
<line x1="9.921" y1="5.27" x2="10.175" y2="5.27" stroke="#ffffff" stroke-width="0.3" stroke-linecap="round" fill="none"/>
<line x1="10.175" y1="5.7780000000000005" x2="9.921" y2="5.7780000000000005" stroke="#ffffff" stroke-width="0.3" stroke-linecap="round" fill="none"/>
<line x1="10.429" y1="5.27" x2="10.683" y2="5.27" stroke="#ffffff" stroke-width="0.3" stroke-linecap="round" fill="none"/>
<path d="M 11.064 4.254 A 0.5080047844998021 0.5080047844998021 0 0 1 10.048 4.254" stroke="#ffffff" stroke-width="0.3" fill="none"/>
<path d="M 10.048 6.7940000000000005 A 0.5080047844998026 0.5080047844998026 0 0 1 11.064 6.7940000000000005" stroke="#ffffff" stroke-width="0.3" fill="none"/>
<line x1="10.683" y1="5.7780000000000005" x2="10.429" y2="5.7780000000000005" stroke="#ffffff" stroke-width="0.3" stroke-linecap="round" fill="none"/>
<line x1="6.492" y1="4.254" x2="7" y2="4.254" stroke="#ffd60a" stroke-width="0.2580571428571429" stroke-linecap="round"/>
<text x="4" y="4.254" fill="#ffd60a" font-size="1" font-family="monospace" text-anchor="start" dominant-baseline="middle">1</text>
<line x1="6.492" y1="6.7940000000000005" x2="7" y2="6.7940000000000005" stroke="#ffd60a" stroke-width="0.2580571428571429" stroke-linecap="round"/>
<text x="4" y="6.7940000000000005" fill="#ffd60a" font-size="1" font-family="monospace" text-anchor="start" dominant-baseline="middle">2</text>
<line x1="11.572" y1="4.254" x2="11.064" y2="4.254" stroke="#ffd60a" stroke-width="0.2580571428571429" stroke-linecap="round"/>
<text x="14.064" y="4.2540000000000004" fill="#ffd60a" font-size="1" font-family="monospace" text-anchor="end" dominant-baseline="middle">3</text>
<line x1="11.572" y1="6.7940000000000005" x2="11.064" y2="6.7940000000000005" stroke="#ffd60a" stroke-width="0.2580571428571429" stroke-linecap="round"/>
<text x="14.064" y="6.7940000000000005" fill="#ffd60a" font-size="1" font-family="monospace" text-anchor="end" dominant-baseline="middle">4</text>
</svg>