<svg xmlns="http://www.w3.org/2000/svg" viewBox="0 0 9.016 13.08">
<path d="M 4 4.508 A 0.5080047844998024 0.5080047844998024 0 0 1 4 5.524" stroke="#ffffff" stroke-width="0.3" fill="none"/>
<path d="M 4 5.524 A 0.5080047844998024 0.5080047844998024 0 0 1 4 6.54" stroke="#ffffff" stroke-width="0.3" fill="none"/>
<path d="M 4 6.54 A 0.5080047844998024 0.5080047844998024 0 0 1 4 7.556" stroke="#ffffff" stroke-width="0.3" fill="none"/>
<path d="M 4 7.556 A 0.5080047844998024 0.5080047844998024 0 0 1 4 8.572" stroke="#ffffff" stroke-width="0.3" fill="none"/>
<line x1="4.7620000000000005" y1="4.889" x2="4.7620000000000005" y2="4.635" stroke="#ffffff" stroke-width="0.3" stroke-linecap="round" fill="none"/>
<line x1="4.7620000000000005" y1="5.397" x2="4.7620000000000005" y2="5.143" stroke="#ffffff" stroke-width="0.3" stroke-linecap="round" fill="none"/>
<line x1="4.7620000000000005" y1="5.905" x2="4.7620000000000005" y2="5.651" stroke="#ffffff" stroke-width="0.3" stroke-linecap="round" fill="none"/>
<line x1="4.7620000000000005" y1="6.413" x2="4.7620000000000005" y2="6.159" stroke="#ffffff" stroke-width="0.3" stroke-linecap="round" fill="none"/>
<line x1="4.7620000000000005" y1="6.921" x2="4.7620000000000005" y2="6.667" stroke="#ffffff" stroke-width="0.3" stroke-linecap="round" fill="none"/>
<line x1="4.7620000000000005" y1="7.429" x2="4.7620000000000005" y2="7.175" stroke="#ffffff" stroke-width="0.3" stroke-linecap="round" fill="none"/>
<line x1="4.7620000000000005" y1="7.937" x2="4.7620000000000005" y2="7.683" stroke="#ffffff" stroke-width="0.3" stroke-linecap="round" fill="none"/>
<line x1="4.7620000000000005" y1="8.445" x2="4.7620000000000005" y2="8.191" stroke="#ffffff" stroke-width="0.3" stroke-linecap="round" fill="none"/>
<line x1="5.016" y1="4.635" x2="5.016" y2="4.889" stroke="#ffffff" stroke-width="0.3" stroke-linecap="round" fill="none"/>
<line x1="5.016" y1="5.143" x2="5.016" y2="5.397" stroke="#ffffff" stroke-width="0.3" stroke-linecap="round" fill="none"/>
<line x1="5.016" y1="5.651" x2="5.016" y2="5.905" stroke="#ffffff" stroke-width="0.3" stroke-linecap="round" fill="none"/>
<line x1="5.016" y1="6.159" x2="5.016" y2="6.413" stroke="#ffffff" stroke-width="0.3" stroke-linecap="round" fill="none"/>
<line x1="5.016" y1="6.667" x2="5.016" y2="6.921" stroke="#ffffff" stroke-width="0.3" stroke-linecap="round" fill="none"/>
<line x1="5.016" y1="7.175" x2="5.016" y2="7.429" stroke="#ffffff" stroke-width="0.3" stroke-linecap="round" fill="none"/>
<line x1="5.016" y1="7.683" x2="5.016" y2="7.937" stroke="#ffffff" stroke-width="0.3" stroke-linecap="round" fill="none"/>
<line x1="5.016" y1="8.191" x2="5.016" y2="8.445" stroke="#ffffff" stroke-width="0.3" stroke-linecap="round" fill="none"/>
<line x1="4" y1="4" x2="4" y2="4.508" stroke="#ffd60a" stroke-width="0.18685714285714286" stroke-linecap="round"/>
<line x1="4" y1="9.08" x2="4" y2="8.572" stroke="#ffd60a" stroke-width="0.18685714285714286" stroke-linecap="round"/>
</svg>