<svg xmlns="http://www.w3.org/2000/svg" viewBox="0 0 420 660">
<rect x="50" y="50" width="320" height="560" stroke="#ffffff" stroke-width="1.5" fill="rgba(255,255,255,0.04)"/>
<text x="210" y="330" fill="#888" font-size="3" font-family="monospace" text-anchor="middle" dominant-baseline="middle">U</text>
<line x1="30" y1="60" x2="50" y2="60" stroke="#ffd60a" stroke-width="1.5" stroke-linecap="round"/>
<text x="55" y="60" fill="#ffd60a" font-size="2" font-family="monospace" text-anchor="start" dominant-baseline="middle">~{FDX_LED}/GPIO0</text>
<line x1="30" y1="80" x2="50" y2="80" stroke="#ffd60a" stroke-width="1.5" stroke-linecap="round"/>
<text x="55" y="80" fill="#ffd60a" font-size="2" font-family="monospace" text-anchor="start" dominant-baseline="middle">~{LNKA_LED}/GPIO1</text>
<line x1="30" y1="100" x2="50" y2="100" stroke="#ffd60a" stroke-width="1.5" stroke-linecap="round"/>
<text x="55" y="100" fill="#ffd60a" font-size="2" font-family="monospace" text-anchor="start" dominant-baseline="middle">~{SPD_LED}/GPIO2</text>
<line x1="30" y1="120" x2="50" y2="120" stroke="#ffd60a" stroke-width="1.5" stroke-linecap="round"/>
<text x="55" y="120" fill="#ffd60a" font-size="2" font-family="monospace" text-anchor="start" dominant-baseline="middle">EECLK</text>
<line x1="30" y1="140" x2="50" y2="140" stroke="#ffd60a" stroke-width="1.5" stroke-linecap="round"/>
<text x="55" y="140" fill="#ffd60a" font-size="2" font-family="monospace" text-anchor="start" dominant-baseline="middle">EECS</text>
<line x1="30" y1="160" x2="50" y2="160" stroke="#ffd60a" stroke-width="1.5" stroke-linecap="round"/>
<text x="55" y="160" fill="#ffd60a" font-size="2" font-family="monospace" text-anchor="start" dominant-baseline="middle">EEDO</text>
<line x1="30" y1="180" x2="50" y2="180" stroke="#ffd60a" stroke-width="1.5" stroke-linecap="round"/>
<text x="55" y="180" fill="#ffd60a" font-size="2" font-family="monospace" text-anchor="start" dominant-baseline="middle">EEDI</text>
<line x1="30" y1="200" x2="50" y2="200" stroke="#ffd60a" stroke-width="1.5" stroke-linecap="round"/>
<text x="55" y="200" fill="#ffd60a" font-size="2" font-family="monospace" text-anchor="start" dominant-baseline="middle">GPIO3</text>
<line x1="30" y1="220" x2="50" y2="220" stroke="#ffd60a" stroke-width="1.5" stroke-linecap="round"/>
<text x="55" y="220" fill="#ffd60a" font-size="2" font-family="monospace" text-anchor="start" dominant-baseline="middle">GPIO4</text>
<line x1="30" y1="240" x2="50" y2="240" stroke="#ffd60a" stroke-width="1.5" stroke-linecap="round"/>
<text x="55" y="240" fill="#ffd60a" font-size="2" font-family="monospace" text-anchor="start" dominant-baseline="middle">GPIO5</text>
<line x1="30" y1="260" x2="50" y2="260" stroke="#ffd60a" stroke-width="1.5" stroke-linecap="round"/>
<text x="55" y="260" fill="#ffd60a" font-size="2" font-family="monospace" text-anchor="start" dominant-baseline="middle">GPIO6</text>
<line x1="30" y1="280" x2="50" y2="280" stroke="#ffd60a" stroke-width="1.5" stroke-linecap="round"/>
<text x="55" y="280" fill="#ffd60a" font-size="2" font-family="monospace" text-anchor="start" dominant-baseline="middle">GPIO7</text>
<line x1="30" y1="300" x2="50" y2="300" stroke="#ffd60a" stroke-width="1.5" stroke-linecap="round"/>
<text x="55" y="300" fill="#ffd60a" font-size="2" font-family="monospace" text-anchor="start" dominant-baseline="middle">USBDM2</text>
<line x1="30" y1="320" x2="50" y2="320" stroke="#ffd60a" stroke-width="1.5" stroke-linecap="round"/>
<text x="55" y="320" fill="#ffd60a" font-size="2" font-family="monospace" text-anchor="start" dominant-baseline="middle">USBDP2</text>
<line x1="30" y1="340" x2="50" y2="340" stroke="#ffd60a" stroke-width="1.5" stroke-linecap="round"/>
<text x="55" y="340" fill="#ffd60a" font-size="2" font-family="monospace" text-anchor="start" dominant-baseline="middle">USBDM3</text>
<line x1="30" y1="360" x2="50" y2="360" stroke="#ffd60a" stroke-width="1.5" stroke-linecap="round"/>
<text x="55" y="360" fill="#ffd60a" font-size="2" font-family="monospace" text-anchor="start" dominant-baseline="middle">USBDP3</text>
<line x1="30" y1="380" x2="50" y2="380" stroke="#ffd60a" stroke-width="1.5" stroke-linecap="round"/>
<text x="55" y="380" fill="#ffd60a" font-size="2" font-family="monospace" text-anchor="start" dominant-baseline="middle">NC</text>
<line x1="30" y1="400" x2="50" y2="400" stroke="#ffd60a" stroke-width="1.5" stroke-linecap="round"/>
<text x="55" y="400" fill="#ffd60a" font-size="2" font-family="monospace" text-anchor="start" dominant-baseline="middle">NC</text>
<line x1="30" y1="420" x2="50" y2="420" stroke="#ffd60a" stroke-width="1.5" stroke-linecap="round"/>
<text x="55" y="420" fill="#ffd60a" font-size="2" font-family="monospace" text-anchor="start" dominant-baseline="middle">NC</text>
<line x1="30" y1="440" x2="50" y2="440" stroke="#ffd60a" stroke-width="1.5" stroke-linecap="round"/>
<text x="55" y="440" fill="#ffd60a" font-size="2" font-family="monospace" text-anchor="start" dominant-baseline="middle">NC</text>
<line x1="30" y1="460" x2="50" y2="460" stroke="#ffd60a" stroke-width="1.5" stroke-linecap="round"/>
<text x="55" y="460" fill="#ffd60a" font-size="2" font-family="monospace" text-anchor="start" dominant-baseline="middle">PRTCTL2</text>
<line x1="30" y1="480" x2="50" y2="480" stroke="#ffd60a" stroke-width="1.5" stroke-linecap="round"/>
<text x="55" y="480" fill="#ffd60a" font-size="2" font-family="monospace" text-anchor="start" dominant-baseline="middle">PRTCTL3</text>
<line x1="30" y1="500" x2="50" y2="500" stroke="#ffd60a" stroke-width="1.5" stroke-linecap="round"/>
<text x="55" y="500" fill="#ffd60a" font-size="2" font-family="monospace" text-anchor="start" dominant-baseline="middle">NC</text>
<line x1="30" y1="520" x2="50" y2="520" stroke="#ffd60a" stroke-width="1.5" stroke-linecap="round"/>
<text x="55" y="520" fill="#ffd60a" font-size="2" font-family="monospace" text-anchor="start" dominant-baseline="middle">NC</text>
<line x1="30" y1="540" x2="50" y2="540" stroke="#ffd60a" stroke-width="1.5" stroke-linecap="round"/>
<text x="55" y="540" fill="#ffd60a" font-size="2" font-family="monospace" text-anchor="start" dominant-baseline="middle">RXP</text>
<line x1="30" y1="560" x2="50" y2="560" stroke="#ffd60a" stroke-width="1.5" stroke-linecap="round"/>
<text x="55" y="560" fill="#ffd60a" font-size="2" font-family="monospace" text-anchor="start" dominant-baseline="middle">RXN</text>
<line x1="30" y1="580" x2="50" y2="580" stroke="#ffd60a" stroke-width="1.5" stroke-linecap="round"/>
<text x="55" y="580" fill="#ffd60a" font-size="2" font-family="monospace" text-anchor="start" dominant-baseline="middle">TXP</text>
<line x1="30" y1="600" x2="50" y2="600" stroke="#ffd60a" stroke-width="1.5" stroke-linecap="round"/>
<text x="55" y="600" fill="#ffd60a" font-size="2" font-family="monospace" text-anchor="start" dominant-baseline="middle">TXN</text>
<line x1="390" y1="64" x2="370" y2="64" stroke="#ffd60a" stroke-width="1.5" stroke-linecap="round"/>
<text x="365" y="64" fill="#ffd60a" font-size="2" font-family="monospace" text-anchor="end" dominant-baseline="middle">~{RESET}</text>
<line x1="390" y1="92" x2="370" y2="92" stroke="#ffd60a" stroke-width="1.5" stroke-linecap="round"/>
<text x="365" y="92" fill="#ffd60a" font-size="2" font-family="monospace" text-anchor="end" dominant-baseline="middle">TEST1</text>
<line x1="390" y1="120" x2="370" y2="120" stroke="#ffd60a" stroke-width="1.5" stroke-linecap="round"/>
<text x="365" y="120" fill="#ffd60a" font-size="2" font-family="monospace" text-anchor="end" dominant-baseline="middle">~{TRST}</text>
<line x1="390" y1="148" x2="370" y2="148" stroke="#ffd60a" stroke-width="1.5" stroke-linecap="round"/>
<text x="365" y="148" fill="#ffd60a" font-size="2" font-family="monospace" text-anchor="end" dominant-baseline="middle">TMS</text>
<line x1="390" y1="176" x2="370" y2="176" stroke="#ffd60a" stroke-width="1.5" stroke-linecap="round"/>
<text x="365" y="176" fill="#ffd60a" font-size="2" font-family="monospace" text-anchor="end" dominant-baseline="middle">TDI</text>
<line x1="390" y1="204" x2="370" y2="204" stroke="#ffd60a" stroke-width="1.5" stroke-linecap="round"/>
<text x="365" y="204" fill="#ffd60a" font-size="2" font-family="monospace" text-anchor="end" dominant-baseline="middle">TDO</text>
<line x1="390" y1="232" x2="370" y2="232" stroke="#ffd60a" stroke-width="1.5" stroke-linecap="round"/>
<text x="365" y="232" fill="#ffd60a" font-size="2" font-family="monospace" text-anchor="end" dominant-baseline="middle">TCK</text>
<line x1="390" y1="260" x2="370" y2="260" stroke="#ffd60a" stroke-width="1.5" stroke-linecap="round"/>
<text x="365" y="260" fill="#ffd60a" font-size="2" font-family="monospace" text-anchor="end" dominant-baseline="middle">TEST2</text>
<line x1="390" y1="288" x2="370" y2="288" stroke="#ffd60a" stroke-width="1.5" stroke-linecap="round"/>
<text x="365" y="288" fill="#ffd60a" font-size="2" font-family="monospace" text-anchor="end" dominant-baseline="middle">TEST3</text>
<line x1="390" y1="316" x2="370" y2="316" stroke="#ffd60a" stroke-width="1.5" stroke-linecap="round"/>
<text x="365" y="316" fill="#ffd60a" font-size="2" font-family="monospace" text-anchor="end" dominant-baseline="middle">CLK24_EN</text>
<line x1="390" y1="344" x2="370" y2="344" stroke="#ffd60a" stroke-width="1.5" stroke-linecap="round"/>
<text x="365" y="344" fill="#ffd60a" font-size="2" font-family="monospace" text-anchor="end" dominant-baseline="middle">CLK24_OUT</text>
<line x1="390" y1="372" x2="370" y2="372" stroke="#ffd60a" stroke-width="1.5" stroke-linecap="round"/>
<text x="365" y="372" fill="#ffd60a" font-size="2" font-family="monospace" text-anchor="end" dominant-baseline="middle">TEST4</text>
<line x1="390" y1="400" x2="370" y2="400" stroke="#ffd60a" stroke-width="1.5" stroke-linecap="round"/>
<text x="365" y="400" fill="#ffd60a" font-size="2" font-family="monospace" text-anchor="end" dominant-baseline="middle">XO</text>
<line x1="390" y1="428" x2="370" y2="428" stroke="#ffd60a" stroke-width="1.5" stroke-linecap="round"/>
<text x="365" y="428" fill="#ffd60a" font-size="2" font-family="monospace" text-anchor="end" dominant-baseline="middle">XI</text>
<line x1="390" y1="456" x2="370" y2="456" stroke="#ffd60a" stroke-width="1.5" stroke-linecap="round"/>
<text x="365" y="456" fill="#ffd60a" font-size="2" font-family="monospace" text-anchor="end" dominant-baseline="middle">VBUS_DET</text>
<line x1="390" y1="484" x2="370" y2="484" stroke="#ffd60a" stroke-width="1.5" stroke-linecap="round"/>
<text x="365" y="484" fill="#ffd60a" font-size="2" font-family="monospace" text-anchor="end" dominant-baseline="middle">AUTOMDIX_EN</text>
<line x1="390" y1="512" x2="370" y2="512" stroke="#ffd60a" stroke-width="1.5" stroke-linecap="round"/>
<text x="365" y="512" fill="#ffd60a" font-size="2" font-family="monospace" text-anchor="end" dominant-baseline="middle">EXRES</text>
<line x1="390" y1="540" x2="370" y2="540" stroke="#ffd60a" stroke-width="1.5" stroke-linecap="round"/>
<text x="365" y="540" fill="#ffd60a" font-size="2" font-family="monospace" text-anchor="end" dominant-baseline="middle">USBDM0</text>
<line x1="390" y1="568" x2="370" y2="568" stroke="#ffd60a" stroke-width="1.5" stroke-linecap="round"/>
<text x="365" y="568" fill="#ffd60a" font-size="2" font-family="monospace" text-anchor="end" dominant-baseline="middle">USBDP0</text>
<line x1="390" y1="596" x2="370" y2="596" stroke="#ffd60a" stroke-width="1.5" stroke-linecap="round"/>
<text x="365" y="596" fill="#ffd60a" font-size="2" font-family="monospace" text-anchor="end" dominant-baseline="middle">USBRBIAS</text>
<line x1="210" y1="30" x2="210" y2="50" stroke="#ffd60a" stroke-width="1.5" stroke-linecap="round"/>
<text x="210" y="25" fill="#ffd60a" font-size="2" font-family="monospace" text-anchor="middle" dominant-baseline="middle">GND</text>
<line x1="60" y1="630" x2="60" y2="610" stroke="#ffd60a" stroke-width="1.5" stroke-linecap="round"/>
<text x="60" y="644" fill="#ffd60a" font-size="2" font-family="monospace" text-anchor="middle" dominant-baseline="middle">VDD33A</text>
<line x1="80" y1="630" x2="80" y2="610" stroke="#ffd60a" stroke-width="1.5" stroke-linecap="round"/>
<text x="80" y="644" fill="#ffd60a" font-size="2" font-family="monospace" text-anchor="middle" dominant-baseline="middle">VDD33A</text>
<line x1="100" y1="630" x2="100" y2="610" stroke="#ffd60a" stroke-width="1.5" stroke-linecap="round"/>
<text x="100" y="644" fill="#ffd60a" font-size="2" font-family="monospace" text-anchor="middle" dominant-baseline="middle">VDD18CORE</text>
<line x1="120" y1="630" x2="120" y2="610" stroke="#ffd60a" stroke-width="1.5" stroke-linecap="round"/>
<text x="120" y="644" fill="#ffd60a" font-size="2" font-family="monospace" text-anchor="middle" dominant-baseline="middle">VDD33IO</text>
<line x1="140" y1="630" x2="140" y2="610" stroke="#ffd60a" stroke-width="1.5" stroke-linecap="round"/>
<text x="140" y="644" fill="#ffd60a" font-size="2" font-family="monospace" text-anchor="middle" dominant-baseline="middle">VDD33IO</text>
<line x1="160" y1="630" x2="160" y2="610" stroke="#ffd60a" stroke-width="1.5" stroke-linecap="round"/>
<text x="160" y="644" fill="#ffd60a" font-size="2" font-family="monospace" text-anchor="middle" dominant-baseline="middle">VDD33IO</text>
<line x1="180" y1="630" x2="180" y2="610" stroke="#ffd60a" stroke-width="1.5" stroke-linecap="round"/>
<text x="180" y="644" fill="#ffd60a" font-size="2" font-family="monospace" text-anchor="middle" dominant-baseline="middle">VDD18CORE</text>
<line x1="200" y1="630" x2="200" y2="610" stroke="#ffd60a" stroke-width="1.5" stroke-linecap="round"/>
<text x="200" y="644" fill="#ffd60a" font-size="2" font-family="monospace" text-anchor="middle" dominant-baseline="middle">VDD33IO</text>
<line x1="220" y1="630" x2="220" y2="610" stroke="#ffd60a" stroke-width="1.5" stroke-linecap="round"/>
<text x="220" y="644" fill="#ffd60a" font-size="2" font-family="monospace" text-anchor="middle" dominant-baseline="middle">VDD33IO</text>
<line x1="240" y1="630" x2="240" y2="610" stroke="#ffd60a" stroke-width="1.5" stroke-linecap="round"/>
<text x="240" y="644" fill="#ffd60a" font-size="2" font-family="monospace" text-anchor="middle" dominant-baseline="middle">VDD18ETHPLL</text>
<line x1="260" y1="630" x2="260" y2="610" stroke="#ffd60a" stroke-width="1.5" stroke-linecap="round"/>
<text x="260" y="644" fill="#ffd60a" font-size="2" font-family="monospace" text-anchor="middle" dominant-baseline="middle">VDD33A</text>
<line x1="280" y1="630" x2="280" y2="610" stroke="#ffd60a" stroke-width="1.5" stroke-linecap="round"/>
<text x="280" y="644" fill="#ffd60a" font-size="2" font-family="monospace" text-anchor="middle" dominant-baseline="middle">VDD33A</text>
<line x1="300" y1="630" x2="300" y2="610" stroke="#ffd60a" stroke-width="1.5" stroke-linecap="round"/>
<text x="300" y="644" fill="#ffd60a" font-size="2" font-family="monospace" text-anchor="middle" dominant-baseline="middle">VDD33A</text>
<line x1="320" y1="630" x2="320" y2="610" stroke="#ffd60a" stroke-width="1.5" stroke-linecap="round"/>
<text x="320" y="644" fill="#ffd60a" font-size="2" font-family="monospace" text-anchor="middle" dominant-baseline="middle">VDD33A</text>
<line x1="340" y1="630" x2="340" y2="610" stroke="#ffd60a" stroke-width="1.5" stroke-linecap="round"/>
<text x="340" y="644" fill="#ffd60a" font-size="2" font-family="monospace" text-anchor="middle" dominant-baseline="middle">VDD18USBPLL</text>
<line x1="360" y1="630" x2="360" y2="610" stroke="#ffd60a" stroke-width="1.5" stroke-linecap="round"/>
<text x="360" y="644" fill="#ffd60a" font-size="2" font-family="monospace" text-anchor="middle" dominant-baseline="middle">VDD33A</text>
</svg>