<svg xmlns="http://www.w3.org/2000/svg" viewBox="0 0 16.54 16.461">
<polyline points="6.2379999999999995,7.428999999999999 6.2379999999999995,8.953 10.302,8.953 10.302,7.428999999999999" stroke="#ffffff" stroke-width="0.3" stroke-linejoin="round" stroke-linecap="round" fill="none"/>
<line x1="7" y1="6.920999999999999" x2="9.54" y2="6.920999999999999" stroke="#ffffff" stroke-width="0.3" stroke-linecap="round" fill="none"/>
<line x1="7" y1="8.190999999999999" x2="7" y2="5.651" stroke="#ffffff" stroke-width="0.3" stroke-linecap="round" fill="none"/>
<polyline points="7.380999999999999,5.523999999999999 8.905,3.9999999999999996 8.142999999999999,3.9999999999999996 8.905,3.9999999999999996 8.905,4.762" stroke="#ffffff" stroke-width="0.3" stroke-linejoin="round" stroke-linecap="round" fill="none"/>
<line x1="8.27" y1="9.460999999999999" x2="8.27" y2="8.953" stroke="#ffffff" stroke-width="0.3" stroke-linecap="round" fill="none"/>
<polyline points="8.651,5.523999999999999 10.174999999999999,3.9999999999999996 9.413,3.9999999999999996 10.174999999999999,3.9999999999999996 10.174999999999999,4.762" stroke="#ffffff" stroke-width="0.3" stroke-linejoin="round" stroke-linecap="round" fill="none"/>
<polyline points="9.54,8.190999999999999 9.54,5.651 7,6.920999999999999 9.54,8.190999999999999" stroke="#ffffff" stroke-width="0.3" stroke-linejoin="round" stroke-linecap="round" fill="none"/>
<line x1="4.459999999999999" y1="6.920999999999999" x2="7" y2="6.920999999999999" stroke="#ffd60a" stroke-width="0.23628571428571427" stroke-linecap="round"/>
<text x="4" y="6.920999999999999" fill="#ffd60a" font-size="1" font-family="monospace" text-anchor="start" dominant-baseline="middle">K</text>
<line x1="12.08" y1="6.920999999999999" x2="9.54" y2="6.920999999999999" stroke="#ffd60a" stroke-width="0.23628571428571427" stroke-linecap="round"/>
<text x="12.54" y="6.920999999999999" fill="#ffd60a" font-size="1" font-family="monospace" text-anchor="end" dominant-baseline="middle">A</text>
<line x1="8.27" y1="12.001" x2="8.27" y2="9.460999999999999" stroke="#ffd60a" stroke-width="0.23628571428571427" stroke-linecap="round"/>
<text x="8.27" y="12.460999999999999" fill="#ffd60a" font-size="1" font-family="monospace" text-anchor="middle" dominant-baseline="middle">PAD</text>
</svg>