<svg xmlns="http://www.w3.org/2000/svg" viewBox="0 0 26.700000000000003 16.461">
<circle cx="6.492000000000002" cy="6.920999999999999" r="0.254" stroke="#ffffff" stroke-width="0.3" fill="#ffffff"/>
<polyline points="6.492000000000002,6.920999999999999 6.492000000000002,9.969 20.208000000000002,9.969 20.208000000000002,6.920999999999999" stroke="#ffffff" stroke-width="0.3" stroke-linejoin="round" stroke-linecap="round" fill="none"/>
<line x1="7.000000000000002" y1="6.920999999999999" x2="19.700000000000003" y2="6.920999999999999" stroke="#ffffff" stroke-width="0.3" stroke-linecap="round" fill="none"/>
<line x1="7.127000000000002" y1="8.190999999999999" x2="7.127000000000002" y2="5.651" stroke="#ffffff" stroke-width="0.3" stroke-linecap="round" fill="none"/>
<polyline points="7.508000000000002,5.523999999999999 9.032000000000002,3.9999999999999996 8.270000000000001,3.9999999999999996 9.032000000000002,3.9999999999999996 9.032000000000002,4.762" stroke="#ffffff" stroke-width="0.3" stroke-linejoin="round" stroke-linecap="round" fill="none"/>
<polyline points="8.778000000000002,5.523999999999999 10.302000000000001,3.9999999999999996 9.540000000000001,3.9999999999999996 10.302000000000001,3.9999999999999996 10.302000000000001,4.762" stroke="#ffffff" stroke-width="0.3" stroke-linejoin="round" stroke-linecap="round" fill="none"/>
<polyline points="9.286000000000001,10.731 9.286000000000001,9.206999999999999 10.810000000000002,9.969 9.286000000000001,10.731 9.286000000000001,10.477" stroke="#ffffff" stroke-width="0.3" stroke-linejoin="round" stroke-linecap="round" fill="none"/>
<polyline points="9.667000000000002,8.190999999999999 9.667000000000002,5.651 7.127000000000002,6.920999999999999 9.667000000000002,8.190999999999999" stroke="#ffffff" stroke-width="0.3" stroke-linejoin="round" stroke-linecap="round" fill="none"/>
<line x1="10.175" y1="8.190999999999999" x2="10.175" y2="5.651" stroke="#ffffff" stroke-width="0.3" stroke-linecap="round" fill="none"/>
<polyline points="10.556000000000001,5.523999999999999 12.080000000000002,3.9999999999999996 11.318000000000001,3.9999999999999996 12.080000000000002,3.9999999999999996 12.080000000000002,4.762" stroke="#ffffff" stroke-width="0.3" stroke-linejoin="round" stroke-linecap="round" fill="none"/>
<polyline points="11.064000000000002,10.985 10.810000000000002,10.731 10.810000000000002,9.206999999999999 10.556000000000001,8.953" stroke="#ffffff" stroke-width="0.3" stroke-linejoin="round" stroke-linecap="round" fill="none"/>
<polyline points="11.826,5.523999999999999 13.350000000000001,3.9999999999999996 12.588000000000001,3.9999999999999996 13.350000000000001,3.9999999999999996 13.350000000000001,4.762" stroke="#ffffff" stroke-width="0.3" stroke-linejoin="round" stroke-linecap="round" fill="none"/>
<polyline points="12.715000000000002,8.190999999999999 12.715000000000002,5.651 10.175,6.920999999999999 12.715000000000002,8.190999999999999" stroke="#ffffff" stroke-width="0.3" stroke-linejoin="round" stroke-linecap="round" fill="none"/>
<line x1="13.350000000000001" y1="6.920999999999999" x2="13.350000000000001" y2="11.492999999999999" stroke="#ffffff" stroke-width="0.3" stroke-linecap="round" fill="none"/>
<circle cx="13.350000000000001" cy="6.920999999999999" r="0.3556" stroke="#ffffff" stroke-width="0.3" fill="#ffffff"/>
<circle cx="13.350000000000001" cy="9.969" r="0.3556" stroke="#ffffff" stroke-width="0.3" fill="#ffffff"/>
<line x1="13.350000000000001" y1="10.731" x2="13.350000000000001" y2="11.492999999999999" stroke="#ffffff" stroke-width="0.3" stroke-linecap="round" fill="none"/>
<line x1="14.112000000000002" y1="8.190999999999999" x2="14.112000000000002" y2="5.651" stroke="#ffffff" stroke-width="0.3" stroke-linecap="round" fill="none"/>
<polyline points="14.493000000000002,5.523999999999999 16.017000000000003,3.9999999999999996 15.255,3.9999999999999996 16.017000000000003,3.9999999999999996 16.017000000000003,4.762" stroke="#ffffff" stroke-width="0.3" stroke-linejoin="round" stroke-linecap="round" fill="none"/>
<polyline points="15.763000000000002,5.523999999999999 17.287000000000003,3.9999999999999996 16.525000000000002,3.9999999999999996 17.287000000000003,3.9999999999999996 17.287000000000003,4.762" stroke="#ffffff" stroke-width="0.3" stroke-linejoin="round" stroke-linecap="round" fill="none"/>
<polyline points="15.89,10.731 15.89,9.206999999999999 17.414,9.969 15.89,10.731 15.89,10.477" stroke="#ffffff" stroke-width="0.3" stroke-linejoin="round" stroke-linecap="round" fill="none"/>
<polyline points="16.652,8.190999999999999 16.652,5.651 14.112000000000002,6.920999999999999 16.652,8.190999999999999" stroke="#ffffff" stroke-width="0.3" stroke-linejoin="round" stroke-linecap="round" fill="none"/>
<line x1="17.033" y1="8.190999999999999" x2="17.033" y2="5.651" stroke="#ffffff" stroke-width="0.3" stroke-linecap="round" fill="none"/>
<polyline points="17.414,5.523999999999999 18.938000000000002,3.9999999999999996 18.176000000000002,3.9999999999999996 18.938000000000002,3.9999999999999996 18.938000000000002,4.762" stroke="#ffffff" stroke-width="0.3" stroke-linejoin="round" stroke-linecap="round" fill="none"/>
<polyline points="17.668,10.985 17.414,10.731 17.414,9.206999999999999 17.16,8.953" stroke="#ffffff" stroke-width="0.3" stroke-linejoin="round" stroke-linecap="round" fill="none"/>
<polyline points="18.684,5.523999999999999 20.208000000000002,3.9999999999999996 19.446,3.9999999999999996 20.208000000000002,3.9999999999999996 20.208000000000002,4.762" stroke="#ffffff" stroke-width="0.3" stroke-linejoin="round" stroke-linecap="round" fill="none"/>
<polyline points="19.573,8.190999999999999 19.573,5.651 17.033,6.920999999999999 19.573,8.190999999999999" stroke="#ffffff" stroke-width="0.3" stroke-linejoin="round" stroke-linecap="round" fill="none"/>
<circle cx="20.208000000000002" cy="6.920999999999999" r="0.254" stroke="#ffffff" stroke-width="0.3" fill="#ffffff"/>
<line x1="4.460000000000001" y1="6.920999999999999" x2="7.000000000000001" y2="6.920999999999999" stroke="#ffd60a" stroke-width="0.38142857142857145" stroke-linecap="round"/>
<text x="4" y="6.920999999999999" fill="#ffd60a" font-size="1" font-family="monospace" text-anchor="start" dominant-baseline="middle">K</text>
<line x1="22.240000000000002" y1="6.920999999999999" x2="19.700000000000003" y2="6.920999999999999" stroke="#ffd60a" stroke-width="0.38142857142857145" stroke-linecap="round"/>
<text x="22.700000000000003" y="6.920999999999999" fill="#ffd60a" font-size="1" font-family="monospace" text-anchor="end" dominant-baseline="middle">A</text>
<line x1="13.350000000000001" y1="12.001" x2="13.350000000000001" y2="9.460999999999999" stroke="#ffd60a" stroke-width="0.38142857142857145" stroke-linecap="round"/>
<text x="13.350000000000001" y="12.460999999999999" fill="#ffd60a" font-size="1" font-family="monospace" text-anchor="middle" dominant-baseline="middle">PAD</text>
</svg>