<svg xmlns="http://www.w3.org/2000/svg" viewBox="0 0 23.240000000000002 20.7">
<line x1="6.032000000000001" y1="10.5786" x2="17.1826" y2="10.5786" stroke="#ffffff" stroke-width="0.3" stroke-linecap="round" fill="none"/>
<line x1="6.540000000000001" y1="14.16" x2="7.8100000000000005" y2="14.16" stroke="#ffffff" stroke-width="0.3" stroke-linecap="round" fill="none"/>
<line x1="7.8100000000000005" y1="6.539999999999999" x2="6.540000000000001" y2="6.539999999999999" stroke="#ffffff" stroke-width="0.3" stroke-linecap="round" fill="none"/>
<line x1="7.8100000000000005" y1="6.539999999999999" x2="8.318000000000001" y2="7.048" stroke="#ffffff" stroke-width="0.3" stroke-linecap="round" fill="none"/>
<line x1="7.8100000000000005" y1="14.16" x2="8.318000000000001" y2="13.652" stroke="#ffffff" stroke-width="0.3" stroke-linecap="round" fill="none"/>
<circle cx="9.080000000000002" cy="7.81" r="1.016" stroke="#ffffff" stroke-width="0.3" fill="none"/>
<circle cx="9.080000000000002" cy="12.89" r="1.016" stroke="#ffffff" stroke-width="0.3" fill="none"/>
<circle cx="11.620000000000001" cy="10.35" r="6.35" stroke="#ffffff" stroke-width="0.3" fill="rgba(255,255,255,0.06)"/>
<path d="M 11.620000000000001 16.1666 A 5.588043338109816 5.588043338109816 0 0 1 6.032000000000001 10.5786" stroke="#ffffff" stroke-width="0.3" fill="none"/>
<path d="M 17.208000000000002 10.5786 A 5.588043338109816 5.588043338109816 0 0 1 11.620000000000001 16.1666" stroke="#ffffff" stroke-width="0.3" fill="none"/>
<circle cx="14.16" cy="7.81" r="1.016" stroke="#ffffff" stroke-width="0.3" fill="none"/>
<circle cx="14.16" cy="12.89" r="1.016" stroke="#ffffff" stroke-width="0.3" fill="none"/>
<line x1="15.430000000000001" y1="6.539999999999999" x2="14.922" y2="7.048" stroke="#ffffff" stroke-width="0.3" stroke-linecap="round" fill="none"/>
<line x1="15.430000000000001" y1="14.16" x2="14.922" y2="13.652" stroke="#ffffff" stroke-width="0.3" stroke-linecap="round" fill="none"/>
<line x1="16.700000000000003" y1="6.539999999999999" x2="15.430000000000001" y2="6.539999999999999" stroke="#ffffff" stroke-width="0.3" stroke-linecap="round" fill="none"/>
<line x1="16.700000000000003" y1="14.16" x2="15.430000000000001" y2="14.16" stroke="#ffffff" stroke-width="0.3" stroke-linecap="round" fill="none"/>
<line x1="19.240000000000002" y1="6.539999999999999" x2="16.700000000000003" y2="6.539999999999999" stroke="#ffd60a" stroke-width="0.332" stroke-linecap="round"/>
<line x1="4.000000000000001" y1="6.539999999999999" x2="6.540000000000001" y2="6.539999999999999" stroke="#ffd60a" stroke-width="0.332" stroke-linecap="round"/>
<line x1="4.000000000000001" y1="14.16" x2="6.540000000000001" y2="14.16" stroke="#ffd60a" stroke-width="0.332" stroke-linecap="round"/>
<line x1="19.240000000000002" y1="14.16" x2="16.700000000000003" y2="14.16" stroke="#ffd60a" stroke-width="0.332" stroke-linecap="round"/>
</svg>