<svg xmlns="http://www.w3.org/2000/svg" viewBox="0 0 39.4 29.240000000000002">
<polyline points="7,22.240000000000002 32.4,22.240000000000002 32.4,7.000000000000001 12.079999999999998,7.000000000000001 12.079999999999998,17.16 9.54,17.16 9.54,7.000000000000001 7,7.000000000000001 7,22.240000000000002" stroke="#ffffff" stroke-width="0.3" stroke-linejoin="round" stroke-linecap="round" fill="rgba(255,255,255,0.06)"/>
<polyline points="7.7874,13.350000000000001 9.0574,13.350000000000001 8.4224,14.620000000000001 7.7874,13.350000000000001" stroke="#ffffff" stroke-width="0.3" stroke-linejoin="round" stroke-linecap="round" fill="none"/>
<line x1="7.7874" y1="14.620000000000001" x2="9.0574" y2="14.620000000000001" stroke="#ffffff" stroke-width="0.3" stroke-linecap="round" fill="none"/>
<line x1="8.4224" y1="18.43" x2="8.4224" y2="11.445" stroke="#ffffff" stroke-width="0.3" stroke-linecap="round" fill="none"/>
<polyline points="10.352799999999998,13.477 11.8768,13.477 11.4704,13.273800000000001" stroke="#ffffff" stroke-width="0.3" stroke-linejoin="round" stroke-linecap="round" fill="none"/>
<polyline points="10.352799999999998,14.747000000000002 11.8768,14.747000000000002 11.4704,14.543800000000001" stroke="#ffffff" stroke-width="0.3" stroke-linejoin="round" stroke-linecap="round" fill="none"/>
<polyline points="11.4704,13.273800000000001 11.4704,13.680200000000001 11.8768,13.477" stroke="#ffffff" stroke-width="0.3" stroke-linejoin="round" stroke-linecap="round" fill="none"/>
<polyline points="11.4704,14.543800000000001 11.4704,14.9502 11.8768,14.747000000000002" stroke="#ffffff" stroke-width="0.3" stroke-linejoin="round" stroke-linecap="round" fill="none"/>
<line x1="12.715" y1="13.477" x2="13.985" y2="13.477" stroke="#ffffff" stroke-width="0.3" stroke-linecap="round" fill="none"/>
<polyline points="12.715,14.747000000000002 13.985,14.747000000000002 13.35,13.477 12.715,14.747000000000002" stroke="#ffffff" stroke-width="0.3" stroke-linejoin="round" stroke-linecap="round" fill="none"/>
<polyline points="13.35,13.477 13.35,12.842 15.254999999999999,12.842" stroke="#ffffff" stroke-width="0.3" stroke-linejoin="round" stroke-linecap="round" fill="none"/>
<polyline points="13.35,14.747000000000002 13.35,15.382000000000001 15.254999999999999,15.382000000000001" stroke="#ffffff" stroke-width="0.3" stroke-linejoin="round" stroke-linecap="round" fill="none"/>
<polyline points="15.254999999999999,12.207 15.254999999999999,16.017 18.43,14.112000000000002 15.254999999999999,12.207" stroke="#ffffff" stroke-width="0.3" stroke-linejoin="round" stroke-linecap="round" fill="none"/>
<line x1="16.779" y1="12.334000000000001" x2="20.97" y2="12.334000000000001" stroke="#ffffff" stroke-width="0.3" stroke-linecap="round" fill="none"/>
<line x1="16.779" y1="13.096" x2="16.779" y2="12.334000000000001" stroke="#ffffff" stroke-width="0.3" stroke-linecap="round" fill="none"/>
<line x1="18.43" y1="14.112000000000002" x2="19.7" y2="14.112000000000002" stroke="#ffffff" stroke-width="0.3" stroke-linecap="round" fill="none"/>
<line x1="19.598399999999998" y1="17.134600000000002" x2="19.598399999999998" y2="16.7028" stroke="#ffffff" stroke-width="0.3" stroke-linecap="round" fill="none"/>
<line x1="19.7" y1="12.842" x2="22.24" y2="12.842" stroke="#ffffff" stroke-width="0.3" stroke-linecap="round" fill="none"/>
<polyline points="19.7,12.842 19.7,15.382000000000001 22.24,15.382000000000001" stroke="#ffffff" stroke-width="0.3" stroke-linejoin="round" stroke-linecap="round" fill="none"/>
<line x1="19.7254" y1="12.308600000000002" x2="19.7254" y2="11.9022" stroke="#ffffff" stroke-width="0.3" stroke-linecap="round" fill="none"/>
<polyline points="20.335,14.747000000000002 21.605,14.747000000000002 21.605,13.477 22.24,13.477" stroke="#ffffff" stroke-width="0.3" stroke-linejoin="round" stroke-linecap="round" fill="none"/>
<line x1="20.97" y1="12.6896" x2="20.97" y2="12.334000000000001" stroke="#ffffff" stroke-width="0.3" stroke-linecap="round" fill="none"/>
<polyline points="20.97,15.382000000000001 20.97,16.652 24.78,16.652 24.78,14.747000000000002" stroke="#ffffff" stroke-width="0.3" stroke-linejoin="round" stroke-linecap="round" fill="none"/>
<polyline points="20.97,16.652 16.779,16.652 16.779,15.128" stroke="#ffffff" stroke-width="0.3" stroke-linejoin="round" stroke-linecap="round" fill="none"/>
<polyline points="21.605,13.477 20.97,13.477 20.97,14.747000000000002" stroke="#ffffff" stroke-width="0.3" stroke-linejoin="round" stroke-linecap="round" fill="none"/>
<path d="M 22.24 12.842 A 1.4199057268441855 1.4199057268441855 0 0 1 22.24 15.382000000000001" stroke="#ffffff" stroke-width="0.3" fill="none"/>
<line x1="22.875" y1="14.112000000000002" x2="24.145" y2="14.112000000000002" stroke="#ffffff" stroke-width="0.3" stroke-linecap="round" fill="none"/>
<line x1="24.145" y1="13.477" x2="24.145" y2="14.747000000000002" stroke="#ffffff" stroke-width="0.3" stroke-linecap="round" fill="none"/>
<line x1="24.145" y1="14.112000000000002" x2="24.78" y2="13.477" stroke="#ffffff" stroke-width="0.3" stroke-linecap="round" fill="none"/>
<line x1="24.145" y1="14.112000000000002" x2="24.78" y2="14.747000000000002" stroke="#ffffff" stroke-width="0.3" stroke-linecap="round" fill="none"/>
<polyline points="24.78,13.477 24.78,11.953000000000001 26.049999999999997,11.953000000000001" stroke="#ffffff" stroke-width="0.3" stroke-linejoin="round" stroke-linecap="round" fill="none"/>
<polyline points="24.78,14.747000000000002 24.526,14.696200000000001 24.7292,14.493 24.78,14.747000000000002" stroke="#ffffff" stroke-width="0.3" stroke-linejoin="round" stroke-linecap="round" fill="none"/>
<line x1="19.7" y1="4.460000000000001" x2="19.7" y2="7.000000000000001" stroke="#ffd60a" stroke-width="0.5628571428571428" stroke-linecap="round"/>
<text x="19.7" y="4" fill="#ffd60a" font-size="1" font-family="monospace" text-anchor="middle" dominant-baseline="middle">VCC</text>
<line x1="34.94" y1="12.080000000000002" x2="32.4" y2="12.08" stroke="#ffd60a" stroke-width="0.5628571428571428" stroke-linecap="round"/>
<text x="35.4" y="12.080000000000002" fill="#ffd60a" font-size="1" font-family="monospace" text-anchor="end" dominant-baseline="middle">VOUT</text>
<line x1="19.7" y1="24.78" x2="19.7" y2="22.240000000000002" stroke="#ffd60a" stroke-width="0.5628571428571428" stroke-linecap="round"/>
<text x="19.7" y="25.240000000000002" fill="#ffd60a" font-size="1" font-family="monospace" text-anchor="middle" dominant-baseline="middle">GND</text>
<line x1="4.459999999999999" y1="9.540000000000001" x2="7" y2="9.540000000000001" stroke="#ffd60a" stroke-width="0.5628571428571428" stroke-linecap="round"/>
<text x="4" y="9.540000000000001" fill="#ffd60a" font-size="1" font-family="monospace" text-anchor="start" dominant-baseline="middle">A</text>
<line x1="4.459999999999999" y1="19.700000000000003" x2="7" y2="19.700000000000003" stroke="#ffd60a" stroke-width="0.5628571428571428" stroke-linecap="round"/>
<text x="4" y="19.700000000000003" fill="#ffd60a" font-size="1" font-family="monospace" text-anchor="start" dominant-baseline="middle">K</text>
</svg>