<svg xmlns="http://www.w3.org/2000/svg" viewBox="0 0 460 740">
<rect x="50" y="50" width="360" height="640" stroke="#ffffff" stroke-width="1.5" fill="rgba(255,255,255,0.04)"/>
<text x="230" y="370" fill="#888" font-size="3" font-family="monospace" text-anchor="middle" dominant-baseline="middle">U</text>
<line x1="30" y1="60" x2="50" y2="60" stroke="#ffd60a" stroke-width="1.5" stroke-linecap="round"/>
<text x="55" y="60" fill="#ffd60a" font-size="2" font-family="monospace" text-anchor="start" dominant-baseline="middle">XTALPPHY</text>
<line x1="30" y1="80" x2="50" y2="80" stroke="#ffd60a" stroke-width="1.5" stroke-linecap="round"/>
<text x="55" y="80" fill="#ffd60a" font-size="2" font-family="monospace" text-anchor="start" dominant-baseline="middle">XTALNPHY</text>
<line x1="30" y1="100" x2="50" y2="100" stroke="#ffd60a" stroke-width="1.5" stroke-linecap="round"/>
<text x="55" y="100" fill="#ffd60a" font-size="2" font-family="monospace" text-anchor="start" dominant-baseline="middle">CCP4/PC7</text>
<line x1="30" y1="120" x2="50" y2="120" stroke="#ffd60a" stroke-width="1.5" stroke-linecap="round"/>
<text x="55" y="120" fill="#ffd60a" font-size="2" font-family="monospace" text-anchor="start" dominant-baseline="middle">CCP3/PC6</text>
<line x1="30" y1="140" x2="50" y2="140" stroke="#ffd60a" stroke-width="1.5" stroke-linecap="round"/>
<text x="55" y="140" fill="#ffd60a" font-size="2" font-family="monospace" text-anchor="start" dominant-baseline="middle">C1+/C0O/PC5</text>
<line x1="30" y1="160" x2="50" y2="160" stroke="#ffd60a" stroke-width="1.5" stroke-linecap="round"/>
<text x="55" y="160" fill="#ffd60a" font-size="2" font-family="monospace" text-anchor="start" dominant-baseline="middle">CCP5/PC4</text>
<line x1="30" y1="180" x2="50" y2="180" stroke="#ffd60a" stroke-width="1.5" stroke-linecap="round"/>
<text x="55" y="180" fill="#ffd60a" font-size="2" font-family="monospace" text-anchor="start" dominant-baseline="middle">U0RX/PA0</text>
<line x1="30" y1="200" x2="50" y2="200" stroke="#ffd60a" stroke-width="1.5" stroke-linecap="round"/>
<text x="55" y="200" fill="#ffd60a" font-size="2" font-family="monospace" text-anchor="start" dominant-baseline="middle">U0TX/PA1</text>
<line x1="30" y1="220" x2="50" y2="220" stroke="#ffd60a" stroke-width="1.5" stroke-linecap="round"/>
<text x="55" y="220" fill="#ffd60a" font-size="2" font-family="monospace" text-anchor="start" dominant-baseline="middle">SSI0CLK/PA2</text>
<line x1="30" y1="240" x2="50" y2="240" stroke="#ffd60a" stroke-width="1.5" stroke-linecap="round"/>
<text x="55" y="240" fill="#ffd60a" font-size="2" font-family="monospace" text-anchor="start" dominant-baseline="middle">SSI0FSS/PA3</text>
<line x1="30" y1="260" x2="50" y2="260" stroke="#ffd60a" stroke-width="1.5" stroke-linecap="round"/>
<text x="55" y="260" fill="#ffd60a" font-size="2" font-family="monospace" text-anchor="start" dominant-baseline="middle">SSI0RX/PA4</text>
<line x1="30" y1="280" x2="50" y2="280" stroke="#ffd60a" stroke-width="1.5" stroke-linecap="round"/>
<text x="55" y="280" fill="#ffd60a" font-size="2" font-family="monospace" text-anchor="start" dominant-baseline="middle">SSI0TX/PA5</text>
<line x1="30" y1="300" x2="50" y2="300" stroke="#ffd60a" stroke-width="1.5" stroke-linecap="round"/>
<text x="55" y="300" fill="#ffd60a" font-size="2" font-family="monospace" text-anchor="start" dominant-baseline="middle">I2C1SCL/PA6</text>
<line x1="30" y1="320" x2="50" y2="320" stroke="#ffd60a" stroke-width="1.5" stroke-linecap="round"/>
<text x="55" y="320" fill="#ffd60a" font-size="2" font-family="monospace" text-anchor="start" dominant-baseline="middle">I2C1SDA/PA7</text>
<line x1="30" y1="340" x2="50" y2="340" stroke="#ffd60a" stroke-width="1.5" stroke-linecap="round"/>
<text x="55" y="340" fill="#ffd60a" font-size="2" font-family="monospace" text-anchor="start" dominant-baseline="middle">RXIN</text>
<line x1="30" y1="360" x2="50" y2="360" stroke="#ffd60a" stroke-width="1.5" stroke-linecap="round"/>
<text x="55" y="360" fill="#ffd60a" font-size="2" font-family="monospace" text-anchor="start" dominant-baseline="middle">RXIP</text>
<line x1="30" y1="380" x2="50" y2="380" stroke="#ffd60a" stroke-width="1.5" stroke-linecap="round"/>
<text x="55" y="380" fill="#ffd60a" font-size="2" font-family="monospace" text-anchor="start" dominant-baseline="middle">ERBIAS</text>
<line x1="30" y1="400" x2="50" y2="400" stroke="#ffd60a" stroke-width="1.5" stroke-linecap="round"/>
<text x="55" y="400" fill="#ffd60a" font-size="2" font-family="monospace" text-anchor="start" dominant-baseline="middle">TXOP</text>
<line x1="30" y1="420" x2="50" y2="420" stroke="#ffd60a" stroke-width="1.5" stroke-linecap="round"/>
<text x="55" y="420" fill="#ffd60a" font-size="2" font-family="monospace" text-anchor="start" dominant-baseline="middle">TXON</text>
<line x1="30" y1="440" x2="50" y2="440" stroke="#ffd60a" stroke-width="1.5" stroke-linecap="round"/>
<text x="55" y="440" fill="#ffd60a" font-size="2" font-family="monospace" text-anchor="start" dominant-baseline="middle">MDIO</text>
<line x1="30" y1="460" x2="50" y2="460" stroke="#ffd60a" stroke-width="1.5" stroke-linecap="round"/>
<text x="55" y="460" fill="#ffd60a" font-size="2" font-family="monospace" text-anchor="start" dominant-baseline="middle">CCP0/PB0</text>
<line x1="30" y1="480" x2="50" y2="480" stroke="#ffd60a" stroke-width="1.5" stroke-linecap="round"/>
<text x="55" y="480" fill="#ffd60a" font-size="2" font-family="monospace" text-anchor="start" dominant-baseline="middle">CCP2/PB1</text>
<line x1="30" y1="500" x2="50" y2="500" stroke="#ffd60a" stroke-width="1.5" stroke-linecap="round"/>
<text x="55" y="500" fill="#ffd60a" font-size="2" font-family="monospace" text-anchor="start" dominant-baseline="middle">I2C0SCL/PB2</text>
<line x1="30" y1="520" x2="50" y2="520" stroke="#ffd60a" stroke-width="1.5" stroke-linecap="round"/>
<text x="55" y="520" fill="#ffd60a" font-size="2" font-family="monospace" text-anchor="start" dominant-baseline="middle">I2C0SDA/PB3</text>
<line x1="30" y1="540" x2="50" y2="540" stroke="#ffd60a" stroke-width="1.5" stroke-linecap="round"/>
<text x="55" y="540" fill="#ffd60a" font-size="2" font-family="monospace" text-anchor="start" dominant-baseline="middle">SWO/TDO/PC3</text>
<line x1="30" y1="560" x2="50" y2="560" stroke="#ffd60a" stroke-width="1.5" stroke-linecap="round"/>
<text x="55" y="560" fill="#ffd60a" font-size="2" font-family="monospace" text-anchor="start" dominant-baseline="middle">TDI/PC2</text>
<line x1="30" y1="580" x2="50" y2="580" stroke="#ffd60a" stroke-width="1.5" stroke-linecap="round"/>
<text x="55" y="580" fill="#ffd60a" font-size="2" font-family="monospace" text-anchor="start" dominant-baseline="middle">SWDIO/TMS/PC1</text>
<line x1="30" y1="600" x2="50" y2="600" stroke="#ffd60a" stroke-width="1.5" stroke-linecap="round"/>
<text x="55" y="600" fill="#ffd60a" font-size="2" font-family="monospace" text-anchor="start" dominant-baseline="middle">SWCLK/TCK/PC0</text>
<line x1="30" y1="620" x2="50" y2="620" stroke="#ffd60a" stroke-width="1.5" stroke-linecap="round"/>
<text x="55" y="620" fill="#ffd60a" font-size="2" font-family="monospace" text-anchor="start" dominant-baseline="middle">~{TRST}/PB7</text>
<line x1="30" y1="640" x2="50" y2="640" stroke="#ffd60a" stroke-width="1.5" stroke-linecap="round"/>
<text x="55" y="640" fill="#ffd60a" font-size="2" font-family="monospace" text-anchor="start" dominant-baseline="middle">C0+/PB6</text>
<line x1="30" y1="660" x2="50" y2="660" stroke="#ffd60a" stroke-width="1.5" stroke-linecap="round"/>
<text x="55" y="660" fill="#ffd60a" font-size="2" font-family="monospace" text-anchor="start" dominant-baseline="middle">C1-/PB5</text>
<line x1="30" y1="680" x2="50" y2="680" stroke="#ffd60a" stroke-width="1.5" stroke-linecap="round"/>
<text x="55" y="680" fill="#ffd60a" font-size="2" font-family="monospace" text-anchor="start" dominant-baseline="middle">C0-/PB4</text>
<line x1="430" y1="60" x2="410" y2="60" stroke="#ffd60a" stroke-width="1.5" stroke-linecap="round"/>
<text x="405" y="60" fill="#ffd60a" font-size="2" font-family="monospace" text-anchor="end" dominant-baseline="middle">PE7</text>
<line x1="430" y1="80" x2="410" y2="80" stroke="#ffd60a" stroke-width="1.5" stroke-linecap="round"/>
<text x="405" y="80" fill="#ffd60a" font-size="2" font-family="monospace" text-anchor="end" dominant-baseline="middle">PE6/C1O</text>
<line x1="430" y1="100" x2="410" y2="100" stroke="#ffd60a" stroke-width="1.5" stroke-linecap="round"/>
<text x="405" y="100" fill="#ffd60a" font-size="2" font-family="monospace" text-anchor="end" dominant-baseline="middle">PE5</text>
<line x1="430" y1="120" x2="410" y2="120" stroke="#ffd60a" stroke-width="1.5" stroke-linecap="round"/>
<text x="405" y="120" fill="#ffd60a" font-size="2" font-family="monospace" text-anchor="end" dominant-baseline="middle">PE4</text>
<line x1="430" y1="140" x2="410" y2="140" stroke="#ffd60a" stroke-width="1.5" stroke-linecap="round"/>
<text x="405" y="140" fill="#ffd60a" font-size="2" font-family="monospace" text-anchor="end" dominant-baseline="middle">PD0</text>
<line x1="430" y1="160" x2="410" y2="160" stroke="#ffd60a" stroke-width="1.5" stroke-linecap="round"/>
<text x="405" y="160" fill="#ffd60a" font-size="2" font-family="monospace" text-anchor="end" dominant-baseline="middle">PD1</text>
<line x1="430" y1="180" x2="410" y2="180" stroke="#ffd60a" stroke-width="1.5" stroke-linecap="round"/>
<text x="405" y="180" fill="#ffd60a" font-size="2" font-family="monospace" text-anchor="end" dominant-baseline="middle">PD2/U1RX</text>
<line x1="430" y1="200" x2="410" y2="200" stroke="#ffd60a" stroke-width="1.5" stroke-linecap="round"/>
<text x="405" y="200" fill="#ffd60a" font-size="2" font-family="monospace" text-anchor="end" dominant-baseline="middle">PD3/U1TX</text>
<line x1="430" y1="220" x2="410" y2="220" stroke="#ffd60a" stroke-width="1.5" stroke-linecap="round"/>
<text x="405" y="220" fill="#ffd60a" font-size="2" font-family="monospace" text-anchor="end" dominant-baseline="middle">PG1/U2TX</text>
<line x1="430" y1="240" x2="410" y2="240" stroke="#ffd60a" stroke-width="1.5" stroke-linecap="round"/>
<text x="405" y="240" fill="#ffd60a" font-size="2" font-family="monospace" text-anchor="end" dominant-baseline="middle">PG0/U2RX</text>
<line x1="430" y1="260" x2="410" y2="260" stroke="#ffd60a" stroke-width="1.5" stroke-linecap="round"/>
<text x="405" y="260" fill="#ffd60a" font-size="2" font-family="monospace" text-anchor="end" dominant-baseline="middle">PF0</text>
<line x1="430" y1="280" x2="410" y2="280" stroke="#ffd60a" stroke-width="1.5" stroke-linecap="round"/>
<text x="405" y="280" fill="#ffd60a" font-size="2" font-family="monospace" text-anchor="end" dominant-baseline="middle">OSC0</text>
<line x1="430" y1="300" x2="410" y2="300" stroke="#ffd60a" stroke-width="1.5" stroke-linecap="round"/>
<text x="405" y="300" fill="#ffd60a" font-size="2" font-family="monospace" text-anchor="end" dominant-baseline="middle">OSC1</text>
<line x1="430" y1="320" x2="410" y2="320" stroke="#ffd60a" stroke-width="1.5" stroke-linecap="round"/>
<text x="405" y="320" fill="#ffd60a" font-size="2" font-family="monospace" text-anchor="end" dominant-baseline="middle">~{WAKE}</text>
<line x1="430" y1="340" x2="410" y2="340" stroke="#ffd60a" stroke-width="1.5" stroke-linecap="round"/>
<text x="405" y="340" fill="#ffd60a" font-size="2" font-family="monospace" text-anchor="end" dominant-baseline="middle">~{HIB}</text>
<line x1="430" y1="360" x2="410" y2="360" stroke="#ffd60a" stroke-width="1.5" stroke-linecap="round"/>
<text x="405" y="360" fill="#ffd60a" font-size="2" font-family="monospace" text-anchor="end" dominant-baseline="middle">XOSC0</text>
<line x1="430" y1="380" x2="410" y2="380" stroke="#ffd60a" stroke-width="1.5" stroke-linecap="round"/>
<text x="405" y="380" fill="#ffd60a" font-size="2" font-family="monospace" text-anchor="end" dominant-baseline="middle">XOSC1</text>
<line x1="430" y1="400" x2="410" y2="400" stroke="#ffd60a" stroke-width="1.5" stroke-linecap="round"/>
<text x="405" y="400" fill="#ffd60a" font-size="2" font-family="monospace" text-anchor="end" dominant-baseline="middle">VBAT</text>
<line x1="430" y1="420" x2="410" y2="420" stroke="#ffd60a" stroke-width="1.5" stroke-linecap="round"/>
<text x="405" y="420" fill="#ffd60a" font-size="2" font-family="monospace" text-anchor="end" dominant-baseline="middle">PF3/LED0</text>
<line x1="430" y1="440" x2="410" y2="440" stroke="#ffd60a" stroke-width="1.5" stroke-linecap="round"/>
<text x="405" y="440" fill="#ffd60a" font-size="2" font-family="monospace" text-anchor="end" dominant-baseline="middle">PF2/LED1</text>
<line x1="430" y1="460" x2="410" y2="460" stroke="#ffd60a" stroke-width="1.5" stroke-linecap="round"/>
<text x="405" y="460" fill="#ffd60a" font-size="2" font-family="monospace" text-anchor="end" dominant-baseline="middle">PF1</text>
<line x1="430" y1="480" x2="410" y2="480" stroke="#ffd60a" stroke-width="1.5" stroke-linecap="round"/>
<text x="405" y="480" fill="#ffd60a" font-size="2" font-family="monospace" text-anchor="end" dominant-baseline="middle">~{RST}</text>
<line x1="430" y1="500" x2="410" y2="500" stroke="#ffd60a" stroke-width="1.5" stroke-linecap="round"/>
<text x="405" y="500" fill="#ffd60a" font-size="2" font-family="monospace" text-anchor="end" dominant-baseline="middle">CMOD0</text>
<line x1="430" y1="520" x2="410" y2="520" stroke="#ffd60a" stroke-width="1.5" stroke-linecap="round"/>
<text x="405" y="520" fill="#ffd60a" font-size="2" font-family="monospace" text-anchor="end" dominant-baseline="middle">PE0/SSI1CLK</text>
<line x1="430" y1="540" x2="410" y2="540" stroke="#ffd60a" stroke-width="1.5" stroke-linecap="round"/>
<text x="405" y="540" fill="#ffd60a" font-size="2" font-family="monospace" text-anchor="end" dominant-baseline="middle">PE1/SSI1FSS</text>
<line x1="430" y1="560" x2="410" y2="560" stroke="#ffd60a" stroke-width="1.5" stroke-linecap="round"/>
<text x="405" y="560" fill="#ffd60a" font-size="2" font-family="monospace" text-anchor="end" dominant-baseline="middle">PE2/SSI1RX</text>
<line x1="430" y1="580" x2="410" y2="580" stroke="#ffd60a" stroke-width="1.5" stroke-linecap="round"/>
<text x="405" y="580" fill="#ffd60a" font-size="2" font-family="monospace" text-anchor="end" dominant-baseline="middle">PE3/SSI1TX</text>
<line x1="430" y1="600" x2="410" y2="600" stroke="#ffd60a" stroke-width="1.5" stroke-linecap="round"/>
<text x="405" y="600" fill="#ffd60a" font-size="2" font-family="monospace" text-anchor="end" dominant-baseline="middle">CMOD1</text>
<line x1="430" y1="620" x2="410" y2="620" stroke="#ffd60a" stroke-width="1.5" stroke-linecap="round"/>
<text x="405" y="620" fill="#ffd60a" font-size="2" font-family="monospace" text-anchor="end" dominant-baseline="middle">PD4</text>
<line x1="430" y1="640" x2="410" y2="640" stroke="#ffd60a" stroke-width="1.5" stroke-linecap="round"/>
<text x="405" y="640" fill="#ffd60a" font-size="2" font-family="monospace" text-anchor="end" dominant-baseline="middle">PD5</text>
<line x1="430" y1="660" x2="410" y2="660" stroke="#ffd60a" stroke-width="1.5" stroke-linecap="round"/>
<text x="405" y="660" fill="#ffd60a" font-size="2" font-family="monospace" text-anchor="end" dominant-baseline="middle">PD6</text>
<line x1="430" y1="680" x2="410" y2="680" stroke="#ffd60a" stroke-width="1.5" stroke-linecap="round"/>
<text x="405" y="680" fill="#ffd60a" font-size="2" font-family="monospace" text-anchor="end" dominant-baseline="middle">PD7/CCP1</text>
<line x1="60" y1="30" x2="60" y2="50" stroke="#ffd60a" stroke-width="1.5" stroke-linecap="round"/>
<text x="60" y="25" fill="#ffd60a" font-size="2" font-family="monospace" text-anchor="middle" dominant-baseline="middle">GNDA</text>
<line x1="80" y1="30" x2="80" y2="50" stroke="#ffd60a" stroke-width="1.5" stroke-linecap="round"/>
<text x="80" y="25" fill="#ffd60a" font-size="2" font-family="monospace" text-anchor="middle" dominant-baseline="middle">GND</text>
<line x1="100" y1="30" x2="100" y2="50" stroke="#ffd60a" stroke-width="1.5" stroke-linecap="round"/>
<text x="100" y="25" fill="#ffd60a" font-size="2" font-family="monospace" text-anchor="middle" dominant-baseline="middle">GND</text>
<line x1="120" y1="30" x2="120" y2="50" stroke="#ffd60a" stroke-width="1.5" stroke-linecap="round"/>
<text x="120" y="25" fill="#ffd60a" font-size="2" font-family="monospace" text-anchor="middle" dominant-baseline="middle">GND</text>
<line x1="140" y1="30" x2="140" y2="50" stroke="#ffd60a" stroke-width="1.5" stroke-linecap="round"/>
<text x="140" y="25" fill="#ffd60a" font-size="2" font-family="monospace" text-anchor="middle" dominant-baseline="middle">GND</text>
<line x1="160" y1="30" x2="160" y2="50" stroke="#ffd60a" stroke-width="1.5" stroke-linecap="round"/>
<text x="160" y="25" fill="#ffd60a" font-size="2" font-family="monospace" text-anchor="middle" dominant-baseline="middle">GND</text>
<line x1="180" y1="30" x2="180" y2="50" stroke="#ffd60a" stroke-width="1.5" stroke-linecap="round"/>
<text x="180" y="25" fill="#ffd60a" font-size="2" font-family="monospace" text-anchor="middle" dominant-baseline="middle">GNDPHY</text>
<line x1="200" y1="30" x2="200" y2="50" stroke="#ffd60a" stroke-width="1.5" stroke-linecap="round"/>
<text x="200" y="25" fill="#ffd60a" font-size="2" font-family="monospace" text-anchor="middle" dominant-baseline="middle">GND</text>
<line x1="220" y1="30" x2="220" y2="50" stroke="#ffd60a" stroke-width="1.5" stroke-linecap="round"/>
<text x="220" y="25" fill="#ffd60a" font-size="2" font-family="monospace" text-anchor="middle" dominant-baseline="middle">GND</text>
<line x1="240" y1="30" x2="240" y2="50" stroke="#ffd60a" stroke-width="1.5" stroke-linecap="round"/>
<text x="240" y="25" fill="#ffd60a" font-size="2" font-family="monospace" text-anchor="middle" dominant-baseline="middle">GND</text>
<line x1="260" y1="30" x2="260" y2="50" stroke="#ffd60a" stroke-width="1.5" stroke-linecap="round"/>
<text x="260" y="25" fill="#ffd60a" font-size="2" font-family="monospace" text-anchor="middle" dominant-baseline="middle">GND</text>
<line x1="280" y1="30" x2="280" y2="50" stroke="#ffd60a" stroke-width="1.5" stroke-linecap="round"/>
<text x="280" y="25" fill="#ffd60a" font-size="2" font-family="monospace" text-anchor="middle" dominant-baseline="middle">GND</text>
<line x1="300" y1="30" x2="300" y2="50" stroke="#ffd60a" stroke-width="1.5" stroke-linecap="round"/>
<text x="300" y="25" fill="#ffd60a" font-size="2" font-family="monospace" text-anchor="middle" dominant-baseline="middle">GND</text>
<line x1="320" y1="30" x2="320" y2="50" stroke="#ffd60a" stroke-width="1.5" stroke-linecap="round"/>
<text x="320" y="25" fill="#ffd60a" font-size="2" font-family="monospace" text-anchor="middle" dominant-baseline="middle">GNDPHY</text>
<line x1="340" y1="30" x2="340" y2="50" stroke="#ffd60a" stroke-width="1.5" stroke-linecap="round"/>
<text x="340" y="25" fill="#ffd60a" font-size="2" font-family="monospace" text-anchor="middle" dominant-baseline="middle">GNDPHY</text>
<line x1="360" y1="30" x2="360" y2="50" stroke="#ffd60a" stroke-width="1.5" stroke-linecap="round"/>
<text x="360" y="25" fill="#ffd60a" font-size="2" font-family="monospace" text-anchor="middle" dominant-baseline="middle">GND</text>
<line x1="380" y1="30" x2="380" y2="50" stroke="#ffd60a" stroke-width="1.5" stroke-linecap="round"/>
<text x="380" y="25" fill="#ffd60a" font-size="2" font-family="monospace" text-anchor="middle" dominant-baseline="middle">GND</text>
<line x1="400" y1="30" x2="400" y2="50" stroke="#ffd60a" stroke-width="1.5" stroke-linecap="round"/>
<text x="400" y="25" fill="#ffd60a" font-size="2" font-family="monospace" text-anchor="middle" dominant-baseline="middle">GNDA</text>
<line x1="60" y1="710" x2="60" y2="690" stroke="#ffd60a" stroke-width="1.5" stroke-linecap="round"/>
<text x="60" y="724" fill="#ffd60a" font-size="2" font-family="monospace" text-anchor="middle" dominant-baseline="middle">VDDA</text>
<line x1="80" y1="710" x2="80" y2="690" stroke="#ffd60a" stroke-width="1.5" stroke-linecap="round"/>
<text x="80" y="724" fill="#ffd60a" font-size="2" font-family="monospace" text-anchor="middle" dominant-baseline="middle">LDO</text>
<line x1="100" y1="710" x2="100" y2="690" stroke="#ffd60a" stroke-width="1.5" stroke-linecap="round"/>
<text x="100" y="724" fill="#ffd60a" font-size="2" font-family="monospace" text-anchor="middle" dominant-baseline="middle">VDD</text>
<line x1="120" y1="710" x2="120" y2="690" stroke="#ffd60a" stroke-width="1.5" stroke-linecap="round"/>
<text x="120" y="724" fill="#ffd60a" font-size="2" font-family="monospace" text-anchor="middle" dominant-baseline="middle">VDD25</text>
<line x1="140" y1="710" x2="140" y2="690" stroke="#ffd60a" stroke-width="1.5" stroke-linecap="round"/>
<text x="140" y="724" fill="#ffd60a" font-size="2" font-family="monospace" text-anchor="middle" dominant-baseline="middle">VDD</text>
<line x1="160" y1="710" x2="160" y2="690" stroke="#ffd60a" stroke-width="1.5" stroke-linecap="round"/>
<text x="160" y="724" fill="#ffd60a" font-size="2" font-family="monospace" text-anchor="middle" dominant-baseline="middle">VDD</text>
<line x1="180" y1="710" x2="180" y2="690" stroke="#ffd60a" stroke-width="1.5" stroke-linecap="round"/>
<text x="180" y="724" fill="#ffd60a" font-size="2" font-family="monospace" text-anchor="middle" dominant-baseline="middle">VCCPHY</text>
<line x1="200" y1="710" x2="200" y2="690" stroke="#ffd60a" stroke-width="1.5" stroke-linecap="round"/>
<text x="200" y="724" fill="#ffd60a" font-size="2" font-family="monospace" text-anchor="middle" dominant-baseline="middle">VDD25</text>
<line x1="220" y1="710" x2="220" y2="690" stroke="#ffd60a" stroke-width="1.5" stroke-linecap="round"/>
<text x="220" y="724" fill="#ffd60a" font-size="2" font-family="monospace" text-anchor="middle" dominant-baseline="middle">VDD</text>
<line x1="240" y1="710" x2="240" y2="690" stroke="#ffd60a" stroke-width="1.5" stroke-linecap="round"/>
<text x="240" y="724" fill="#ffd60a" font-size="2" font-family="monospace" text-anchor="middle" dominant-baseline="middle">VDD</text>
<line x1="260" y1="710" x2="260" y2="690" stroke="#ffd60a" stroke-width="1.5" stroke-linecap="round"/>
<text x="260" y="724" fill="#ffd60a" font-size="2" font-family="monospace" text-anchor="middle" dominant-baseline="middle">VDD25</text>
<line x1="280" y1="710" x2="280" y2="690" stroke="#ffd60a" stroke-width="1.5" stroke-linecap="round"/>
<text x="280" y="724" fill="#ffd60a" font-size="2" font-family="monospace" text-anchor="middle" dominant-baseline="middle">VDD</text>
<line x1="300" y1="710" x2="300" y2="690" stroke="#ffd60a" stroke-width="1.5" stroke-linecap="round"/>
<text x="300" y="724" fill="#ffd60a" font-size="2" font-family="monospace" text-anchor="middle" dominant-baseline="middle">VDD</text>
<line x1="320" y1="710" x2="320" y2="690" stroke="#ffd60a" stroke-width="1.5" stroke-linecap="round"/>
<text x="320" y="724" fill="#ffd60a" font-size="2" font-family="monospace" text-anchor="middle" dominant-baseline="middle">VCCPHY</text>
<line x1="340" y1="710" x2="340" y2="690" stroke="#ffd60a" stroke-width="1.5" stroke-linecap="round"/>
<text x="340" y="724" fill="#ffd60a" font-size="2" font-family="monospace" text-anchor="middle" dominant-baseline="middle">VCCPHY</text>
<line x1="360" y1="710" x2="360" y2="690" stroke="#ffd60a" stroke-width="1.5" stroke-linecap="round"/>
<text x="360" y="724" fill="#ffd60a" font-size="2" font-family="monospace" text-anchor="middle" dominant-baseline="middle">VDD25</text>
<line x1="380" y1="710" x2="380" y2="690" stroke="#ffd60a" stroke-width="1.5" stroke-linecap="round"/>
<text x="380" y="724" fill="#ffd60a" font-size="2" font-family="monospace" text-anchor="middle" dominant-baseline="middle">VDD</text>
<line x1="400" y1="710" x2="400" y2="690" stroke="#ffd60a" stroke-width="1.5" stroke-linecap="round"/>
<text x="400" y="724" fill="#ffd60a" font-size="2" font-family="monospace" text-anchor="middle" dominant-baseline="middle">VDDA</text>
</svg>