<svg xmlns="http://www.w3.org/2000/svg" viewBox="0 0 19.1252 17.9568">
<polyline points="12.9154,13.956800000000001 12.8646,13.9314 12.7376,13.8552 12.5598,13.728200000000001 12.331199999999999,13.575800000000001 12.102599999999999,13.4234 11.9248,13.3218 11.797799999999999,13.2202 11.747,13.1948 11.721599999999999,13.2202 11.62,13.271 11.4676,13.3472 11.366,13.398 11.238999999999999,13.4488 11.1628,13.4488 11.1628,13.4488 11.112,13.3472 11.0358,13.144 10.9088,12.9154 10.8072,12.636000000000001 10.6802,12.3312 10.5278,12.0264 10.4262,11.7216 10.299199999999999,11.4422 10.222999999999999,11.239 10.1722,11.0866 10.146799999999999,11.0104 10.146799999999999,11.0104 10.222999999999999,10.9342 10.35,10.858 10.604,10.6294 10.858,10.2992 11.0104,9.9436 11.0866,9.5372 11.0358,9.1562 10.8834,8.800600000000001 10.6294,8.4704 10.3246,8.241800000000001 9.969,8.089400000000001 9.5626,8.0386 9.1816,8.064 8.826,8.2164 8.4958,8.4704 8.343399999999999,8.6228 8.1656,8.953000000000001 8.038599999999999,9.3086 8.038599999999999,9.3848 8.064,9.7912 8.1656,10.1468 8.3688,10.477 8.6482,10.756400000000001 8.699,10.7818 8.826,10.8834 8.9276,10.9596 8.9784,11.0104 8.4958,12.2042 8.419599999999999,12.4074 8.267199999999999,12.7376 8.1656,13.017 8.064,13.2456 7.9878,13.398 7.9624,13.4488 7.9624,13.4488 7.9116,13.4488 7.8354,13.4234 7.6575999999999995,13.3472 7.555999999999999,13.2964 7.429,13.2202 7.3528,13.1948 7.302,13.2202 7.2004,13.2964 7.0226,13.4234 6.794,13.575800000000001 6.5908,13.7028 6.413,13.8298 6.2606,13.9314 6.2097999999999995,13.956800000000001 6.1844,13.956800000000001 6.1335999999999995,13.9314 6.032,13.8298 5.8542,13.6774 5.6256,13.4488 5.600199999999999,13.4234 5.396999999999999,13.2202 5.2446,13.0678 5.143,12.9408 5.1175999999999995,12.89 5.1175999999999995,12.89 5.143,12.8392 5.2446,12.6868 5.3462,12.509 5.4986,12.2804 5.904999999999999,11.696200000000001 5.676399999999999,11.1628 5.6256,10.985 5.524,10.7818 5.473199999999999,10.6548 5.4478,10.5786 5.3716,10.5532 5.2446,10.527800000000001 5.016,10.477 4.762,10.4262 4.508,10.4008 4.3048,10.35 4.127,10.3246 4.0508,10.2992 4.0508,10.2992 4.025399999999999,10.2484 4.025399999999999,10.1722 4.025399999999999,10.045200000000001 4,9.842 4,9.5372 4,9.4864 4.025399999999999,9.207 4.025399999999999,8.9784 4.025399999999999,8.8514 4.025399999999999,8.7752 4.025399999999999,8.7752 4.1015999999999995,8.7752 4.254,8.724400000000001 4.4826,8.699 4.7366,8.648200000000001 4.762,8.6228 5.016,8.572000000000001 5.2446,8.5466 5.396999999999999,8.495800000000001 5.473199999999999,8.4704 5.473199999999999,8.4704 5.524,8.3688 5.600199999999999,8.191 5.7018,7.9878 5.778,7.7846 5.8542,7.6068 5.904999999999999,7.454400000000001 5.9304,7.403600000000001 5.9304,7.403600000000001 5.8796,7.327400000000001 5.8034,7.2004 5.676399999999999,7.022600000000001 5.4986,6.7940000000000005 5.4986,6.7686 5.3462,6.540000000000001 5.2192,6.3622000000000005 5.143,6.235200000000001 5.1175999999999995,6.159000000000001 5.1175999999999995,6.159000000000001 5.1684,6.1082 5.27,5.9812 5.4478,5.8034 5.6256,5.6002 5.7018,5.5494 5.904999999999999,5.3208 6.0573999999999995,5.1938 6.159,5.1176 6.2097999999999995,5.0922 6.2097999999999995,5.0922 6.2606,5.143000000000001 6.413,5.2446 6.5908,5.371600000000001 6.8194,5.524 6.844799999999999,5.524 7.0733999999999995,5.676400000000001 7.2512,5.8034 7.3782,5.905 7.429,5.930400000000001 7.4544,5.930400000000001 7.5306,5.905 7.708399999999999,5.8542000000000005 7.8862,5.7780000000000005 8.0894,5.676400000000001 8.2926,5.6002 8.419599999999999,5.5494 8.4958,5.498600000000001 8.4958,5.498600000000001 8.5212,5.4224000000000006 8.5466,5.2700000000000005 8.5974,5.0414 8.6482,4.7620000000000005 8.6736,4.711200000000001 8.7244,4.4572 8.7498,4.2286 8.7752,4.0762 8.8006,4.0254 8.8514,4 8.9784,4 9.1562,4 9.4102,4 9.6388,4 9.8928,4 10.096,4 10.2484,4.0254 10.299199999999999,4.0254 10.299199999999999,4.0254 10.3246,4.1016 10.375399999999999,4.279400000000001 10.4008,4.508 10.477,4.787400000000001 10.477,4.8382000000000005 10.5278,5.0922 10.5786,5.3208 10.604,5.4732 10.6294,5.524 10.6294,5.524 10.7564,5.574800000000001 10.9342,5.651 11.1374,5.752600000000001 11.6454,5.9558 12.2804,5.524 12.331199999999999,5.4732 12.5598,5.3208 12.7376,5.1938 12.8646,5.1176 12.9408,5.0922 12.9408,5.0922 12.9916,5.143000000000001 13.1186,5.2700000000000005 13.2964,5.4224000000000006 13.4742,5.6256 13.6266,5.7780000000000005 13.8044,5.9558 13.905999999999999,6.0574 13.982199999999999,6.1336 13.982199999999999,6.1844 13.982199999999999,6.2098 13.9568,6.2860000000000005 13.8552,6.413 13.728200000000001,6.616200000000001 13.575800000000001,6.8194 13.4488,7.022600000000001 13.3218,7.2258000000000004 13.2202,7.3782000000000005 13.1948,7.454400000000001 13.1948,7.479800000000001 13.2456,7.6068 13.3218,7.7846 13.423399999999999,8.013200000000001 13.6266,8.495800000000001 13.9568,8.572000000000001 14.16,8.5974 14.4394,8.648200000000001 14.6934,8.699 15.0998,8.7752 15.1252,10.2738 15.049,10.2992 14.9982,10.2992 14.8458,10.35 14.6172,10.3754 14.363199999999999,10.4262 14.16,10.477 13.9314,10.527800000000001 13.779,10.5532 13.7028,10.5532 13.677399999999999,10.5786 13.6266,10.680200000000001 13.5504,10.858 13.4742,11.0612 13.3726,11.2644 13.2964,11.467600000000001 13.2456,11.620000000000001 13.2202,11.696200000000001 13.2456,11.747 13.3472,11.874 13.4488,12.077200000000001 13.601199999999999,12.2804 13.753599999999999,12.509 13.8806,12.6868 13.9568,12.8138 14.0076,12.89 13.982199999999999,12.9408 13.905999999999999,13.0424 13.728200000000001,13.1948 13.4996,13.4488 13.4488,13.4742 13.2456,13.6774 13.0932,13.8298 12.9662,13.9314 12.9154,13.956800000000001" stroke="#ffffff" stroke-width="0.3" stroke-linejoin="round" stroke-linecap="round" fill="#ffffff"/>
</svg>