<svg xmlns="http://www.w3.org/2000/svg" viewBox="0 0 260 340">
<rect x="50" y="50" width="160" height="240" stroke="#ffffff" stroke-width="1.5" fill="rgba(255,255,255,0.04)"/>
<text x="130" y="170" fill="#888" font-size="3" font-family="monospace" text-anchor="middle" dominant-baseline="middle">U</text>
<line x1="30" y1="60" x2="50" y2="60" stroke="#ffd60a" stroke-width="1.5" stroke-linecap="round"/>
<text x="55" y="60" fill="#ffd60a" font-size="2" font-family="monospace" text-anchor="start" dominant-baseline="middle">INTVCC</text>
<line x1="30" y1="80" x2="50" y2="80" stroke="#ffd60a" stroke-width="1.5" stroke-linecap="round"/>
<text x="55" y="80" fill="#ffd60a" font-size="2" font-family="monospace" text-anchor="start" dominant-baseline="middle">IMON_IN</text>
<line x1="30" y1="100" x2="50" y2="100" stroke="#ffd60a" stroke-width="1.5" stroke-linecap="round"/>
<text x="55" y="100" fill="#ffd60a" font-size="2" font-family="monospace" text-anchor="start" dominant-baseline="middle">LDO33</text>
<line x1="30" y1="120" x2="50" y2="120" stroke="#ffd60a" stroke-width="1.5" stroke-linecap="round"/>
<text x="55" y="120" fill="#ffd60a" font-size="2" font-family="monospace" text-anchor="start" dominant-baseline="middle">FBOUT</text>
<line x1="30" y1="140" x2="50" y2="140" stroke="#ffd60a" stroke-width="1.5" stroke-linecap="round"/>
<text x="55" y="140" fill="#ffd60a" font-size="2" font-family="monospace" text-anchor="start" dominant-baseline="middle">IMON_OUT</text>
<line x1="30" y1="160" x2="50" y2="160" stroke="#ffd60a" stroke-width="1.5" stroke-linecap="round"/>
<text x="55" y="160" fill="#ffd60a" font-size="2" font-family="monospace" text-anchor="start" dominant-baseline="middle">VC</text>
<line x1="30" y1="180" x2="50" y2="180" stroke="#ffd60a" stroke-width="1.5" stroke-linecap="round"/>
<text x="55" y="180" fill="#ffd60a" font-size="2" font-family="monospace" text-anchor="start" dominant-baseline="middle">CLKOUT</text>
<line x1="30" y1="200" x2="50" y2="200" stroke="#ffd60a" stroke-width="1.5" stroke-linecap="round"/>
<text x="55" y="200" fill="#ffd60a" font-size="2" font-family="monospace" text-anchor="start" dominant-baseline="middle">GATEVCC</text>
<line x1="30" y1="220" x2="50" y2="220" stroke="#ffd60a" stroke-width="1.5" stroke-linecap="round"/>
<text x="55" y="220" fill="#ffd60a" font-size="2" font-family="monospace" text-anchor="start" dominant-baseline="middle">TG2</text>
<line x1="30" y1="240" x2="50" y2="240" stroke="#ffd60a" stroke-width="1.5" stroke-linecap="round"/>
<text x="55" y="240" fill="#ffd60a" font-size="2" font-family="monospace" text-anchor="start" dominant-baseline="middle">EXTVCC</text>
<line x1="30" y1="260" x2="50" y2="260" stroke="#ffd60a" stroke-width="1.5" stroke-linecap="round"/>
<text x="55" y="260" fill="#ffd60a" font-size="2" font-family="monospace" text-anchor="start" dominant-baseline="middle">CSNOUT</text>
<line x1="30" y1="280" x2="50" y2="280" stroke="#ffd60a" stroke-width="1.5" stroke-linecap="round"/>
<text x="55" y="280" fill="#ffd60a" font-size="2" font-family="monospace" text-anchor="start" dominant-baseline="middle">CSPOUT</text>
<line x1="230" y1="62" x2="210" y2="62" stroke="#ffd60a" stroke-width="1.5" stroke-linecap="round"/>
<text x="205" y="62" fill="#ffd60a" font-size="2" font-family="monospace" text-anchor="end" dominant-baseline="middle">MODE</text>
<line x1="230" y1="86" x2="210" y2="86" stroke="#ffd60a" stroke-width="1.5" stroke-linecap="round"/>
<text x="205" y="86" fill="#ffd60a" font-size="2" font-family="monospace" text-anchor="end" dominant-baseline="middle">~{SHDN}</text>
<line x1="230" y1="110" x2="210" y2="110" stroke="#ffd60a" stroke-width="1.5" stroke-linecap="round"/>
<text x="205" y="110" fill="#ffd60a" font-size="2" font-family="monospace" text-anchor="end" dominant-baseline="middle">FBIN</text>
<line x1="230" y1="134" x2="210" y2="134" stroke="#ffd60a" stroke-width="1.5" stroke-linecap="round"/>
<text x="205" y="134" fill="#ffd60a" font-size="2" font-family="monospace" text-anchor="end" dominant-baseline="middle">SS</text>
<line x1="230" y1="158" x2="210" y2="158" stroke="#ffd60a" stroke-width="1.5" stroke-linecap="round"/>
<text x="205" y="158" fill="#ffd60a" font-size="2" font-family="monospace" text-anchor="end" dominant-baseline="middle">SYNC</text>
<line x1="230" y1="182" x2="210" y2="182" stroke="#ffd60a" stroke-width="1.5" stroke-linecap="round"/>
<text x="205" y="182" fill="#ffd60a" font-size="2" font-family="monospace" text-anchor="end" dominant-baseline="middle">RT</text>
<line x1="230" y1="206" x2="210" y2="206" stroke="#ffd60a" stroke-width="1.5" stroke-linecap="round"/>
<text x="205" y="206" fill="#ffd60a" font-size="2" font-family="monospace" text-anchor="end" dominant-baseline="middle">TG1</text>
<line x1="230" y1="230" x2="210" y2="230" stroke="#ffd60a" stroke-width="1.5" stroke-linecap="round"/>
<text x="205" y="230" fill="#ffd60a" font-size="2" font-family="monospace" text-anchor="end" dominant-baseline="middle">CSNIN</text>
<line x1="230" y1="254" x2="210" y2="254" stroke="#ffd60a" stroke-width="1.5" stroke-linecap="round"/>
<text x="205" y="254" fill="#ffd60a" font-size="2" font-family="monospace" text-anchor="end" dominant-baseline="middle">CSPIN</text>
<line x1="230" y1="278" x2="210" y2="278" stroke="#ffd60a" stroke-width="1.5" stroke-linecap="round"/>
<text x="205" y="278" fill="#ffd60a" font-size="2" font-family="monospace" text-anchor="end" dominant-baseline="middle">VIN</text>
<line x1="90" y1="30" x2="90" y2="50" stroke="#ffd60a" stroke-width="1.5" stroke-linecap="round"/>
<text x="90" y="25" fill="#ffd60a" font-size="2" font-family="monospace" text-anchor="middle" dominant-baseline="middle">GND</text>
<line x1="170" y1="30" x2="170" y2="50" stroke="#ffd60a" stroke-width="1.5" stroke-linecap="round"/>
<text x="170" y="25" fill="#ffd60a" font-size="2" font-family="monospace" text-anchor="middle" dominant-baseline="middle">GND</text>
<line x1="60" y1="310" x2="60" y2="290" stroke="#ffd60a" stroke-width="1.5" stroke-linecap="round"/>
<text x="60" y="324" fill="#ffd60a" font-size="2" font-family="monospace" text-anchor="middle" dominant-baseline="middle">CSN</text>
<line x1="80" y1="310" x2="80" y2="290" stroke="#ffd60a" stroke-width="1.5" stroke-linecap="round"/>
<text x="80" y="324" fill="#ffd60a" font-size="2" font-family="monospace" text-anchor="middle" dominant-baseline="middle">CSP</text>
<line x1="100" y1="310" x2="100" y2="290" stroke="#ffd60a" stroke-width="1.5" stroke-linecap="round"/>
<text x="100" y="324" fill="#ffd60a" font-size="2" font-family="monospace" text-anchor="middle" dominant-baseline="middle">BG1</text>
<line x1="120" y1="310" x2="120" y2="290" stroke="#ffd60a" stroke-width="1.5" stroke-linecap="round"/>
<text x="120" y="324" fill="#ffd60a" font-size="2" font-family="monospace" text-anchor="middle" dominant-baseline="middle">BG2</text>
<line x1="140" y1="310" x2="140" y2="290" stroke="#ffd60a" stroke-width="1.5" stroke-linecap="round"/>
<text x="140" y="324" fill="#ffd60a" font-size="2" font-family="monospace" text-anchor="middle" dominant-baseline="middle">BOOST2</text>
<line x1="160" y1="310" x2="160" y2="290" stroke="#ffd60a" stroke-width="1.5" stroke-linecap="round"/>
<text x="160" y="324" fill="#ffd60a" font-size="2" font-family="monospace" text-anchor="middle" dominant-baseline="middle">SW2</text>
<line x1="180" y1="310" x2="180" y2="290" stroke="#ffd60a" stroke-width="1.5" stroke-linecap="round"/>
<text x="180" y="324" fill="#ffd60a" font-size="2" font-family="monospace" text-anchor="middle" dominant-baseline="middle">SW1</text>
<line x1="200" y1="310" x2="200" y2="290" stroke="#ffd60a" stroke-width="1.5" stroke-linecap="round"/>
<text x="200" y="324" fill="#ffd60a" font-size="2" font-family="monospace" text-anchor="middle" dominant-baseline="middle">BOOST1</text>
</svg>