<svg xmlns="http://www.w3.org/2000/svg" viewBox="0 0 240 280">
<rect x="50" y="50" width="140" height="180" stroke="#ffffff" stroke-width="1.5" fill="rgba(255,255,255,0.04)"/>
<text x="120" y="140" fill="#888" font-size="3" font-family="monospace" text-anchor="middle" dominant-baseline="middle">U</text>
<line x1="30" y1="65" x2="50" y2="65" stroke="#ffd60a" stroke-width="1.5" stroke-linecap="round"/>
<text x="55" y="65" fill="#ffd60a" font-size="2" font-family="monospace" text-anchor="start" dominant-baseline="middle">VREF</text>
<line x1="30" y1="95" x2="50" y2="95" stroke="#ffd60a" stroke-width="1.5" stroke-linecap="round"/>
<text x="55" y="95" fill="#ffd60a" font-size="2" font-family="monospace" text-anchor="start" dominant-baseline="middle">REFCOMP</text>
<line x1="30" y1="125" x2="50" y2="125" stroke="#ffd60a" stroke-width="1.5" stroke-linecap="round"/>
<text x="55" y="125" fill="#ffd60a" font-size="2" font-family="monospace" text-anchor="start" dominant-baseline="middle">AD0</text>
<line x1="30" y1="155" x2="50" y2="155" stroke="#ffd60a" stroke-width="1.5" stroke-linecap="round"/>
<text x="55" y="155" fill="#ffd60a" font-size="2" font-family="monospace" text-anchor="start" dominant-baseline="middle">AD1</text>
<line x1="30" y1="185" x2="50" y2="185" stroke="#ffd60a" stroke-width="1.5" stroke-linecap="round"/>
<text x="55" y="185" fill="#ffd60a" font-size="2" font-family="monospace" text-anchor="start" dominant-baseline="middle">SCL</text>
<line x1="30" y1="215" x2="50" y2="215" stroke="#ffd60a" stroke-width="1.5" stroke-linecap="round"/>
<text x="55" y="215" fill="#ffd60a" font-size="2" font-family="monospace" text-anchor="start" dominant-baseline="middle">SDA</text>
<line x1="210" y1="60" x2="190" y2="60" stroke="#ffd60a" stroke-width="1.5" stroke-linecap="round"/>
<text x="185" y="60" fill="#ffd60a" font-size="2" font-family="monospace" text-anchor="end" dominant-baseline="middle">CH5</text>
<line x1="210" y1="80" x2="190" y2="80" stroke="#ffd60a" stroke-width="1.5" stroke-linecap="round"/>
<text x="185" y="80" fill="#ffd60a" font-size="2" font-family="monospace" text-anchor="end" dominant-baseline="middle">CH3</text>
<line x1="210" y1="100" x2="190" y2="100" stroke="#ffd60a" stroke-width="1.5" stroke-linecap="round"/>
<text x="185" y="100" fill="#ffd60a" font-size="2" font-family="monospace" text-anchor="end" dominant-baseline="middle">CH4</text>
<line x1="210" y1="120" x2="190" y2="120" stroke="#ffd60a" stroke-width="1.5" stroke-linecap="round"/>
<text x="185" y="120" fill="#ffd60a" font-size="2" font-family="monospace" text-anchor="end" dominant-baseline="middle">CH6</text>
<line x1="210" y1="140" x2="190" y2="140" stroke="#ffd60a" stroke-width="1.5" stroke-linecap="round"/>
<text x="185" y="140" fill="#ffd60a" font-size="2" font-family="monospace" text-anchor="end" dominant-baseline="middle">CH7</text>
<line x1="210" y1="160" x2="190" y2="160" stroke="#ffd60a" stroke-width="1.5" stroke-linecap="round"/>
<text x="185" y="160" fill="#ffd60a" font-size="2" font-family="monospace" text-anchor="end" dominant-baseline="middle">COM</text>
<line x1="210" y1="180" x2="190" y2="180" stroke="#ffd60a" stroke-width="1.5" stroke-linecap="round"/>
<text x="185" y="180" fill="#ffd60a" font-size="2" font-family="monospace" text-anchor="end" dominant-baseline="middle">CH0</text>
<line x1="210" y1="200" x2="190" y2="200" stroke="#ffd60a" stroke-width="1.5" stroke-linecap="round"/>
<text x="185" y="200" fill="#ffd60a" font-size="2" font-family="monospace" text-anchor="end" dominant-baseline="middle">CH1</text>
<line x1="210" y1="220" x2="190" y2="220" stroke="#ffd60a" stroke-width="1.5" stroke-linecap="round"/>
<text x="185" y="220" fill="#ffd60a" font-size="2" font-family="monospace" text-anchor="end" dominant-baseline="middle">CH2</text>
<line x1="60" y1="30" x2="60" y2="50" stroke="#ffd60a" stroke-width="1.5" stroke-linecap="round"/>
<text x="60" y="25" fill="#ffd60a" font-size="2" font-family="monospace" text-anchor="middle" dominant-baseline="middle">GND</text>
<line x1="80" y1="30" x2="80" y2="50" stroke="#ffd60a" stroke-width="1.5" stroke-linecap="round"/>
<text x="80" y="25" fill="#ffd60a" font-size="2" font-family="monospace" text-anchor="middle" dominant-baseline="middle">GND</text>
<line x1="100" y1="30" x2="100" y2="50" stroke="#ffd60a" stroke-width="1.5" stroke-linecap="round"/>
<text x="100" y="25" fill="#ffd60a" font-size="2" font-family="monospace" text-anchor="middle" dominant-baseline="middle">GND</text>
<line x1="120" y1="30" x2="120" y2="50" stroke="#ffd60a" stroke-width="1.5" stroke-linecap="round"/>
<text x="120" y="25" fill="#ffd60a" font-size="2" font-family="monospace" text-anchor="middle" dominant-baseline="middle">GND</text>
<line x1="140" y1="30" x2="140" y2="50" stroke="#ffd60a" stroke-width="1.5" stroke-linecap="round"/>
<text x="140" y="25" fill="#ffd60a" font-size="2" font-family="monospace" text-anchor="middle" dominant-baseline="middle">GND</text>
<line x1="160" y1="30" x2="160" y2="50" stroke="#ffd60a" stroke-width="1.5" stroke-linecap="round"/>
<text x="160" y="25" fill="#ffd60a" font-size="2" font-family="monospace" text-anchor="middle" dominant-baseline="middle">GND</text>
<line x1="180" y1="30" x2="180" y2="50" stroke="#ffd60a" stroke-width="1.5" stroke-linecap="round"/>
<text x="180" y="25" fill="#ffd60a" font-size="2" font-family="monospace" text-anchor="middle" dominant-baseline="middle">GND</text>
<line x1="73.33333333333333" y1="250" x2="73.33333333333333" y2="230" stroke="#ffd60a" stroke-width="1.5" stroke-linecap="round"/>
<text x="73.33333333333333" y="264" fill="#ffd60a" font-size="2" font-family="monospace" text-anchor="middle" dominant-baseline="middle">VDD</text>
<line x1="120" y1="250" x2="120" y2="230" stroke="#ffd60a" stroke-width="1.5" stroke-linecap="round"/>
<text x="120" y="264" fill="#ffd60a" font-size="2" font-family="monospace" text-anchor="middle" dominant-baseline="middle">VDD</text>
<line x1="166.66666666666669" y1="250" x2="166.66666666666669" y2="230" stroke="#ffd60a" stroke-width="1.5" stroke-linecap="round"/>
<text x="166.66666666666669" y="264" fill="#ffd60a" font-size="2" font-family="monospace" text-anchor="middle" dominant-baseline="middle">VDD</text>
</svg>