<svg xmlns="http://www.w3.org/2000/svg" viewBox="0 0 28.32 15.620000000000001">
<polyline points="15.938,8.064 15.938,10.350000000000001 16.192,10.350000000000001" stroke="#ffffff" stroke-width="0.3" stroke-linejoin="round" stroke-linecap="round" fill="none"/>
<rect x="16.192" y="10.604000000000001" width="1.27" height="0.508" stroke="#ffffff" stroke-width="0.3" fill="none"/>
<line x1="18.224" y1="10.350000000000001" x2="17.462" y2="10.350000000000001" stroke="#ffffff" stroke-width="0.3" stroke-linecap="round" fill="none"/>
<rect x="6.54" y="11.620000000000001" width="15.24" height="7.62" stroke="#ffffff" stroke-width="0.3" fill="rgba(255,255,255,0.06)"/>
<polyline points="6.54,5.2700000000000005 10.985,5.2700000000000005 10.985,7.175000000000001" stroke="#ffffff" stroke-width="0.3" stroke-linejoin="round" stroke-linecap="round" fill="none"/>
<line x1="10.35" y1="8.445" x2="11.620000000000001" y2="8.445" stroke="#ffffff" stroke-width="0.3" stroke-linecap="round" fill="none"/>
<polyline points="10.985,6.921 10.985,10.350000000000001 6.54,10.350000000000001" stroke="#ffffff" stroke-width="0.3" stroke-linejoin="round" stroke-linecap="round" fill="none"/>
<polyline points="10.985,8.445 10.35,7.175000000000001 11.620000000000001,7.175000000000001 10.985,8.445" stroke="#ffffff" stroke-width="0.3" stroke-linejoin="round" stroke-linecap="round" fill="none"/>
<polyline points="12.382,6.7940000000000005 13.652000000000001,6.7940000000000005 13.271,6.921 13.271,6.667000000000001 13.652000000000001,6.7940000000000005" stroke="#ffffff" stroke-width="0.3" stroke-linejoin="round" stroke-linecap="round" fill="none"/>
<polyline points="12.382,7.8100000000000005 13.652000000000001,7.8100000000000005 13.271,7.937 13.271,7.683000000000001 13.652000000000001,7.8100000000000005" stroke="#ffffff" stroke-width="0.3" stroke-linejoin="round" stroke-linecap="round" fill="none"/>
<line x1="14.668" y1="5.651000000000001" x2="14.668" y2="7.683000000000001" stroke="#ffffff" stroke-width="0.3556" stroke-linecap="round" fill="none"/>
<line x1="14.668" y1="6.540000000000001" x2="15.938" y2="5.2700000000000005" stroke="#ffffff" stroke-width="0.3" stroke-linecap="round" fill="none"/>
<line x1="14.668" y1="6.7940000000000005" x2="15.938" y2="8.064" stroke="#ffffff" stroke-width="0.3" stroke-linecap="round" fill="none"/>
<polyline points="15.684000000000001,7.8100000000000005 15.43,7.3020000000000005 15.176,7.556000000000001 15.684000000000001,7.8100000000000005" stroke="#ffffff" stroke-width="0.3" stroke-linejoin="round" stroke-linecap="round" fill="none"/>
<line x1="15.938" y1="5.2700000000000005" x2="21.78" y2="5.2700000000000005" stroke="#ffffff" stroke-width="0.3" stroke-linecap="round" fill="none"/>
<circle cx="15.938" cy="8.191" r="0.127" stroke="#ffffff" stroke-width="0.3" fill="none"/>
<line x1="16.954" y1="7.175000000000001" x2="16.954" y2="9.207" stroke="#ffffff" stroke-width="0.3556" stroke-linecap="round" fill="none"/>
<line x1="16.954" y1="8.064" x2="18.224" y2="6.7940000000000005" stroke="#ffffff" stroke-width="0.3" stroke-linecap="round" fill="none"/>
<line x1="16.954" y1="8.191" x2="15.938" y2="8.191" stroke="#ffffff" stroke-width="0.3" stroke-linecap="round" fill="none"/>
<line x1="16.954" y1="8.318000000000001" x2="18.224" y2="9.588000000000001" stroke="#ffffff" stroke-width="0.3" stroke-linecap="round" fill="none"/>
<polyline points="17.97,9.334 17.716,8.826 17.462,9.08 17.97,9.334" stroke="#ffffff" stroke-width="0.3" stroke-linejoin="round" stroke-linecap="round" fill="none"/>
<circle cx="18.224" cy="5.2700000000000005" r="0.127" stroke="#ffffff" stroke-width="0.3" fill="none"/>
<line x1="18.224" y1="6.7940000000000005" x2="18.224" y2="5.2700000000000005" stroke="#ffffff" stroke-width="0.3" stroke-linecap="round" fill="none"/>
<line x1="18.224" y1="9.588000000000001" x2="18.224" y2="10.350000000000001" stroke="#ffffff" stroke-width="0.3" stroke-linecap="round" fill="none"/>
<line x1="18.224" y1="10.350000000000001" x2="21.78" y2="10.350000000000001" stroke="#ffffff" stroke-width="0.3" stroke-linecap="round" fill="none"/>
<circle cx="18.224" cy="10.350000000000001" r="0.127" stroke="#ffffff" stroke-width="0.3" fill="none"/>
<line x1="18.605" y1="7.175000000000001" x2="19.875" y2="7.175000000000001" stroke="#ffffff" stroke-width="0.3" stroke-linecap="round" fill="none"/>
<circle cx="19.240000000000002" cy="5.2700000000000005" r="0.127" stroke="#ffffff" stroke-width="0.3" fill="none"/>
<line x1="19.240000000000002" y1="7.048" x2="19.240000000000002" y2="10.350000000000001" stroke="#ffffff" stroke-width="0.3" stroke-linecap="round" fill="none"/>
<line x1="19.240000000000002" y1="7.175000000000001" x2="19.240000000000002" y2="5.2700000000000005" stroke="#ffffff" stroke-width="0.3" stroke-linecap="round" fill="none"/>
<polyline points="19.240000000000002,7.175000000000001 18.605,8.445 19.875,8.445 19.240000000000002,7.175000000000001" stroke="#ffffff" stroke-width="0.3" stroke-linejoin="round" stroke-linecap="round" fill="none"/>
<circle cx="19.240000000000002" cy="10.350000000000001" r="0.127" stroke="#ffffff" stroke-width="0.3" fill="none"/>
<line x1="4" y1="5.2700000000000005" x2="6.54" y2="5.2700000000000005" stroke="#ffd60a" stroke-width="0.4045714285714286" stroke-linecap="round"/>
<line x1="4" y1="10.350000000000001" x2="6.54" y2="10.350000000000001" stroke="#ffd60a" stroke-width="0.4045714285714286" stroke-linecap="round"/>
<line x1="24.32" y1="10.350000000000001" x2="21.78" y2="10.35" stroke="#ffd60a" stroke-width="0.4045714285714286" stroke-linecap="round"/>
<line x1="24.32" y1="5.2700000000000005" x2="21.78" y2="5.27" stroke="#ffd60a" stroke-width="0.4045714285714286" stroke-linecap="round"/>
</svg>