<svg xmlns="http://www.w3.org/2000/svg" viewBox="0 0 220 240">
<rect x="50" y="50" width="120" height="140" stroke="#ffffff" stroke-width="1.5" fill="rgba(255,255,255,0.04)"/>
<text x="110" y="120" fill="#888" font-size="3" font-family="monospace" text-anchor="middle" dominant-baseline="middle">U</text>
<line x1="30" y1="64" x2="50" y2="64" stroke="#ffd60a" stroke-width="1.5" stroke-linecap="round"/>
<text x="55" y="64" fill="#ffd60a" font-size="2" font-family="monospace" text-anchor="start" dominant-baseline="middle">OUT1</text>
<line x1="30" y1="92" x2="50" y2="92" stroke="#ffd60a" stroke-width="1.5" stroke-linecap="round"/>
<text x="55" y="92" fill="#ffd60a" font-size="2" font-family="monospace" text-anchor="start" dominant-baseline="middle">OUT2</text>
<line x1="30" y1="120" x2="50" y2="120" stroke="#ffd60a" stroke-width="1.5" stroke-linecap="round"/>
<text x="55" y="120" fill="#ffd60a" font-size="2" font-family="monospace" text-anchor="start" dominant-baseline="middle">OUT3</text>
<line x1="30" y1="148" x2="50" y2="148" stroke="#ffd60a" stroke-width="1.5" stroke-linecap="round"/>
<text x="55" y="148" fill="#ffd60a" font-size="2" font-family="monospace" text-anchor="start" dominant-baseline="middle">OUT4</text>
<line x1="30" y1="176" x2="50" y2="176" stroke="#ffd60a" stroke-width="1.5" stroke-linecap="round"/>
<text x="55" y="176" fill="#ffd60a" font-size="2" font-family="monospace" text-anchor="start" dominant-baseline="middle">REV</text>
<line x1="190" y1="60" x2="170" y2="60" stroke="#ffd60a" stroke-width="1.5" stroke-linecap="round"/>
<text x="165" y="60" fill="#ffd60a" font-size="2" font-family="monospace" text-anchor="end" dominant-baseline="middle">INRUSH</text>
<line x1="190" y1="80" x2="170" y2="80" stroke="#ffd60a" stroke-width="1.5" stroke-linecap="round"/>
<text x="165" y="80" fill="#ffd60a" font-size="2" font-family="monospace" text-anchor="end" dominant-baseline="middle">RCLIM</text>
<line x1="190" y1="100" x2="170" y2="100" stroke="#ffd60a" stroke-width="1.5" stroke-linecap="round"/>
<text x="165" y="100" fill="#ffd60a" font-size="2" font-family="monospace" text-anchor="end" dominant-baseline="middle">~{FAULT}</text>
<line x1="190" y1="120" x2="170" y2="120" stroke="#ffd60a" stroke-width="1.5" stroke-linecap="round"/>
<text x="165" y="120" fill="#ffd60a" font-size="2" font-family="monospace" text-anchor="end" dominant-baseline="middle">IN4</text>
<line x1="190" y1="140" x2="170" y2="140" stroke="#ffd60a" stroke-width="1.5" stroke-linecap="round"/>
<text x="165" y="140" fill="#ffd60a" font-size="2" font-family="monospace" text-anchor="end" dominant-baseline="middle">IN3</text>
<line x1="190" y1="160" x2="170" y2="160" stroke="#ffd60a" stroke-width="1.5" stroke-linecap="round"/>
<text x="165" y="160" fill="#ffd60a" font-size="2" font-family="monospace" text-anchor="end" dominant-baseline="middle">IN2</text>
<line x1="190" y1="180" x2="170" y2="180" stroke="#ffd60a" stroke-width="1.5" stroke-linecap="round"/>
<text x="165" y="180" fill="#ffd60a" font-size="2" font-family="monospace" text-anchor="end" dominant-baseline="middle">IN1</text>
<line x1="60" y1="30" x2="60" y2="50" stroke="#ffd60a" stroke-width="1.5" stroke-linecap="round"/>
<text x="60" y="25" fill="#ffd60a" font-size="2" font-family="monospace" text-anchor="middle" dominant-baseline="middle">GND</text>
<line x1="80" y1="30" x2="80" y2="50" stroke="#ffd60a" stroke-width="1.5" stroke-linecap="round"/>
<text x="80" y="25" fill="#ffd60a" font-size="2" font-family="monospace" text-anchor="middle" dominant-baseline="middle">GND</text>
<line x1="100" y1="30" x2="100" y2="50" stroke="#ffd60a" stroke-width="1.5" stroke-linecap="round"/>
<text x="100" y="25" fill="#ffd60a" font-size="2" font-family="monospace" text-anchor="middle" dominant-baseline="middle">GND</text>
<line x1="120" y1="30" x2="120" y2="50" stroke="#ffd60a" stroke-width="1.5" stroke-linecap="round"/>
<text x="120" y="25" fill="#ffd60a" font-size="2" font-family="monospace" text-anchor="middle" dominant-baseline="middle">GND</text>
<line x1="140" y1="30" x2="140" y2="50" stroke="#ffd60a" stroke-width="1.5" stroke-linecap="round"/>
<text x="140" y="25" fill="#ffd60a" font-size="2" font-family="monospace" text-anchor="middle" dominant-baseline="middle">GND</text>
<line x1="160" y1="30" x2="160" y2="50" stroke="#ffd60a" stroke-width="1.5" stroke-linecap="round"/>
<text x="160" y="25" fill="#ffd60a" font-size="2" font-family="monospace" text-anchor="middle" dominant-baseline="middle">GND</text>
<line x1="70" y1="210" x2="70" y2="190" stroke="#ffd60a" stroke-width="1.5" stroke-linecap="round"/>
<text x="70" y="224" fill="#ffd60a" font-size="2" font-family="monospace" text-anchor="middle" dominant-baseline="middle">VL</text>
<line x1="110" y1="210" x2="110" y2="190" stroke="#ffd60a" stroke-width="1.5" stroke-linecap="round"/>
<text x="110" y="224" fill="#ffd60a" font-size="2" font-family="monospace" text-anchor="middle" dominant-baseline="middle">V5</text>
<line x1="150" y1="210" x2="150" y2="190" stroke="#ffd60a" stroke-width="1.5" stroke-linecap="round"/>
<text x="150" y="224" fill="#ffd60a" font-size="2" font-family="monospace" text-anchor="middle" dominant-baseline="middle">VDD</text>
</svg>