<svg xmlns="http://www.w3.org/2000/svg" viewBox="0 0 200 320">
<rect x="50" y="50" width="100" height="220" stroke="#ffffff" stroke-width="1.5" fill="rgba(255,255,255,0.04)"/>
<text x="100" y="160" fill="#888" font-size="3" font-family="monospace" text-anchor="middle" dominant-baseline="middle">U</text>
<line x1="30" y1="60" x2="50" y2="60" stroke="#ffd60a" stroke-width="1.5" stroke-linecap="round"/>
<text x="55" y="60" fill="#ffd60a" font-size="2" font-family="monospace" text-anchor="start" dominant-baseline="middle">RXCAN</text>
<line x1="30" y1="80" x2="50" y2="80" stroke="#ffd60a" stroke-width="1.5" stroke-linecap="round"/>
<text x="55" y="80" fill="#ffd60a" font-size="2" font-family="monospace" text-anchor="start" dominant-baseline="middle">CLKO</text>
<line x1="30" y1="100" x2="50" y2="100" stroke="#ffd60a" stroke-width="1.5" stroke-linecap="round"/>
<text x="55" y="100" fill="#ffd60a" font-size="2" font-family="monospace" text-anchor="start" dominant-baseline="middle">NC</text>
<line x1="30" y1="120" x2="50" y2="120" stroke="#ffd60a" stroke-width="1.5" stroke-linecap="round"/>
<text x="55" y="120" fill="#ffd60a" font-size="2" font-family="monospace" text-anchor="start" dominant-baseline="middle">RXD</text>
<line x1="30" y1="140" x2="50" y2="140" stroke="#ffd60a" stroke-width="1.5" stroke-linecap="round"/>
<text x="55" y="140" fill="#ffd60a" font-size="2" font-family="monospace" text-anchor="start" dominant-baseline="middle">NC</text>
<line x1="30" y1="160" x2="50" y2="160" stroke="#ffd60a" stroke-width="1.5" stroke-linecap="round"/>
<text x="55" y="160" fill="#ffd60a" font-size="2" font-family="monospace" text-anchor="start" dominant-baseline="middle">NC</text>
<line x1="30" y1="180" x2="50" y2="180" stroke="#ffd60a" stroke-width="1.5" stroke-linecap="round"/>
<text x="55" y="180" fill="#ffd60a" font-size="2" font-family="monospace" text-anchor="start" dominant-baseline="middle">CANL</text>
<line x1="30" y1="200" x2="50" y2="200" stroke="#ffd60a" stroke-width="1.5" stroke-linecap="round"/>
<text x="55" y="200" fill="#ffd60a" font-size="2" font-family="monospace" text-anchor="start" dominant-baseline="middle">CANH</text>
<line x1="30" y1="220" x2="50" y2="220" stroke="#ffd60a" stroke-width="1.5" stroke-linecap="round"/>
<text x="55" y="220" fill="#ffd60a" font-size="2" font-family="monospace" text-anchor="start" dominant-baseline="middle">NC</text>
<line x1="30" y1="240" x2="50" y2="240" stroke="#ffd60a" stroke-width="1.5" stroke-linecap="round"/>
<text x="55" y="240" fill="#ffd60a" font-size="2" font-family="monospace" text-anchor="start" dominant-baseline="middle">TXD</text>
<line x1="30" y1="260" x2="50" y2="260" stroke="#ffd60a" stroke-width="1.5" stroke-linecap="round"/>
<text x="55" y="260" fill="#ffd60a" font-size="2" font-family="monospace" text-anchor="start" dominant-baseline="middle">TXCAN</text>
<line x1="170" y1="61" x2="150" y2="61" stroke="#ffd60a" stroke-width="1.5" stroke-linecap="round"/>
<text x="145" y="61" fill="#ffd60a" font-size="2" font-family="monospace" text-anchor="end" dominant-baseline="middle">~{INT}</text>
<line x1="170" y1="83" x2="150" y2="83" stroke="#ffd60a" stroke-width="1.5" stroke-linecap="round"/>
<text x="145" y="83" fill="#ffd60a" font-size="2" font-family="monospace" text-anchor="end" dominant-baseline="middle">OSC2</text>
<line x1="170" y1="105" x2="150" y2="105" stroke="#ffd60a" stroke-width="1.5" stroke-linecap="round"/>
<text x="145" y="105" fill="#ffd60a" font-size="2" font-family="monospace" text-anchor="end" dominant-baseline="middle">OSC1</text>
<line x1="170" y1="127" x2="150" y2="127" stroke="#ffd60a" stroke-width="1.5" stroke-linecap="round"/>
<text x="145" y="127" fill="#ffd60a" font-size="2" font-family="monospace" text-anchor="end" dominant-baseline="middle">~{INT1}</text>
<line x1="170" y1="149" x2="150" y2="149" stroke="#ffd60a" stroke-width="1.5" stroke-linecap="round"/>
<text x="145" y="149" fill="#ffd60a" font-size="2" font-family="monospace" text-anchor="end" dominant-baseline="middle">~{INT0}</text>
<line x1="170" y1="171" x2="150" y2="171" stroke="#ffd60a" stroke-width="1.5" stroke-linecap="round"/>
<text x="145" y="171" fill="#ffd60a" font-size="2" font-family="monospace" text-anchor="end" dominant-baseline="middle">STBY</text>
<line x1="170" y1="193" x2="150" y2="193" stroke="#ffd60a" stroke-width="1.5" stroke-linecap="round"/>
<text x="145" y="193" fill="#ffd60a" font-size="2" font-family="monospace" text-anchor="end" dominant-baseline="middle">SCK</text>
<line x1="170" y1="215" x2="150" y2="215" stroke="#ffd60a" stroke-width="1.5" stroke-linecap="round"/>
<text x="145" y="215" fill="#ffd60a" font-size="2" font-family="monospace" text-anchor="end" dominant-baseline="middle">SDI</text>
<line x1="170" y1="237" x2="150" y2="237" stroke="#ffd60a" stroke-width="1.5" stroke-linecap="round"/>
<text x="145" y="237" fill="#ffd60a" font-size="2" font-family="monospace" text-anchor="end" dominant-baseline="middle">SDO</text>
<line x1="170" y1="259" x2="150" y2="259" stroke="#ffd60a" stroke-width="1.5" stroke-linecap="round"/>
<text x="145" y="259" fill="#ffd60a" font-size="2" font-family="monospace" text-anchor="end" dominant-baseline="middle">~{CS}</text>
<line x1="75" y1="30" x2="75" y2="50" stroke="#ffd60a" stroke-width="1.5" stroke-linecap="round"/>
<text x="75" y="25" fill="#ffd60a" font-size="2" font-family="monospace" text-anchor="middle" dominant-baseline="middle">VSS</text>
<line x1="125" y1="30" x2="125" y2="50" stroke="#ffd60a" stroke-width="1.5" stroke-linecap="round"/>
<text x="125" y="25" fill="#ffd60a" font-size="2" font-family="monospace" text-anchor="middle" dominant-baseline="middle">GND</text>
<line x1="60" y1="290" x2="60" y2="270" stroke="#ffd60a" stroke-width="1.5" stroke-linecap="round"/>
<text x="60" y="304" fill="#ffd60a" font-size="2" font-family="monospace" text-anchor="middle" dominant-baseline="middle">VCC</text>
<line x1="80" y1="290" x2="80" y2="270" stroke="#ffd60a" stroke-width="1.5" stroke-linecap="round"/>
<text x="80" y="304" fill="#ffd60a" font-size="2" font-family="monospace" text-anchor="middle" dominant-baseline="middle">VIO</text>
<line x1="100" y1="290" x2="100" y2="270" stroke="#ffd60a" stroke-width="1.5" stroke-linecap="round"/>
<text x="100" y="304" fill="#ffd60a" font-size="2" font-family="monospace" text-anchor="middle" dominant-baseline="middle">NC</text>
<line x1="120" y1="290" x2="120" y2="270" stroke="#ffd60a" stroke-width="1.5" stroke-linecap="round"/>
<text x="120" y="304" fill="#ffd60a" font-size="2" font-family="monospace" text-anchor="middle" dominant-baseline="middle">VDD</text>
<line x1="140" y1="290" x2="140" y2="270" stroke="#ffd60a" stroke-width="1.5" stroke-linecap="round"/>
<text x="140" y="304" fill="#ffd60a" font-size="2" font-family="monospace" text-anchor="middle" dominant-baseline="middle">NC</text>
</svg>