<svg xmlns="http://www.w3.org/2000/svg" viewBox="0 0 23.240000000000002 20.7">
<polyline points="7.302000000000001,14.16 8.572000000000001,14.16 8.572000000000001,15.684000000000001" stroke="#ffffff" stroke-width="0.3" stroke-linejoin="round" stroke-linecap="round" fill="none"/>
<line x1="7.8100000000000005" y1="11.620000000000001" x2="6.540000000000001" y2="11.620000000000001" stroke="#ffffff" stroke-width="0.3" stroke-linecap="round" fill="none"/>
<circle cx="8.318000000000001" cy="11.620000000000001" r="0.508" stroke="#ffffff" stroke-width="0.3" fill="none"/>
<polyline points="10.604000000000001,6.540000000000001 10.604000000000001,7.556000000000001 12.636000000000001,7.556000000000001 12.636000000000001,6.540000000000001" stroke="#ffffff" stroke-width="0.3" stroke-linejoin="round" stroke-linecap="round" fill="none"/>
<rect x="10.858" y="14.668000000000001" width="1.524" height="2.54" stroke="#ffffff" stroke-width="0.3" fill="#ffffff"/>
<line x1="11.620000000000001" y1="7.8100000000000005" x2="11.620000000000001" y2="6.540000000000001" stroke="#ffffff" stroke-width="0.3" stroke-linecap="round" fill="none"/>
<circle cx="11.620000000000001" cy="8.318000000000001" r="0.508" stroke="#ffffff" stroke-width="0.3" fill="none"/>
<path d="M 14.668000000000001 15.684000000000001 A 5.080000000000003 5.080000000000003 0 0 1 8.572000000000001 15.684000000000001" stroke="#ffffff" stroke-width="0.3" fill="none"/>
<path d="M 12.636000000000001 6.540000000000001 A 5.048410979431975 5.048410979431975 0 0 1 15.938 14.16" stroke="#ffffff" stroke-width="0.3" fill="none"/>
<path d="M 7.302000000000001 14.16 A 5.1082592777503235 5.1082592777503235 0 0 1 10.604000000000001 6.540000000000001" stroke="#ffffff" stroke-width="0.3" fill="none"/>
<circle cx="14.922" cy="11.620000000000001" r="0.508" stroke="#ffffff" stroke-width="0.3" fill="none"/>
<polyline points="15.938,14.16 14.668000000000001,14.16 14.668000000000001,15.684000000000001" stroke="#ffffff" stroke-width="0.3" stroke-linejoin="round" stroke-linecap="round" fill="none"/>
<line x1="16.700000000000003" y1="11.620000000000001" x2="15.430000000000001" y2="11.620000000000001" stroke="#ffffff" stroke-width="0.3" stroke-linecap="round" fill="none"/>
<line x1="19.240000000000002" y1="11.620000000000001" x2="16.700000000000003" y2="11.620000000000001" stroke="#ffd60a" stroke-width="0.332" stroke-linecap="round"/>
<line x1="4.000000000000001" y1="11.620000000000001" x2="6.540000000000001" y2="11.620000000000001" stroke="#ffd60a" stroke-width="0.332" stroke-linecap="round"/>
<line x1="11.620000000000001" y1="4.000000000000001" x2="11.620000000000001" y2="6.540000000000001" stroke="#ffd60a" stroke-width="0.332" stroke-linecap="round"/>
</svg>