<svg xmlns="http://www.w3.org/2000/svg" viewBox="0 0 180 640">
<rect x="50" y="50" width="80" height="540" stroke="#ffffff" stroke-width="1.5" fill="rgba(255,255,255,0.04)"/>
<text x="90" y="320" fill="#888" font-size="3" font-family="monospace" text-anchor="middle" dominant-baseline="middle">U</text>
<line x1="30" y1="60" x2="50" y2="60" stroke="#ffd60a" stroke-width="1.5" stroke-linecap="round"/>
<text x="55" y="60" fill="#ffd60a" font-size="2" font-family="monospace" text-anchor="start" dominant-baseline="middle">PTD1</text>
<line x1="30" y1="80" x2="50" y2="80" stroke="#ffd60a" stroke-width="1.5" stroke-linecap="round"/>
<text x="55" y="80" fill="#ffd60a" font-size="2" font-family="monospace" text-anchor="start" dominant-baseline="middle">PTD0</text>
<line x1="30" y1="100" x2="50" y2="100" stroke="#ffd60a" stroke-width="1.5" stroke-linecap="round"/>
<text x="55" y="100" fill="#ffd60a" font-size="2" font-family="monospace" text-anchor="start" dominant-baseline="middle">PTB5</text>
<line x1="30" y1="120" x2="50" y2="120" stroke="#ffd60a" stroke-width="1.5" stroke-linecap="round"/>
<text x="55" y="120" fill="#ffd60a" font-size="2" font-family="monospace" text-anchor="start" dominant-baseline="middle">PTB4</text>
<line x1="30" y1="140" x2="50" y2="140" stroke="#ffd60a" stroke-width="1.5" stroke-linecap="round"/>
<text x="55" y="140" fill="#ffd60a" font-size="2" font-family="monospace" text-anchor="start" dominant-baseline="middle">PTC3</text>
<line x1="30" y1="160" x2="50" y2="160" stroke="#ffd60a" stroke-width="1.5" stroke-linecap="round"/>
<text x="55" y="160" fill="#ffd60a" font-size="2" font-family="monospace" text-anchor="start" dominant-baseline="middle">PTC2</text>
<line x1="30" y1="180" x2="50" y2="180" stroke="#ffd60a" stroke-width="1.5" stroke-linecap="round"/>
<text x="55" y="180" fill="#ffd60a" font-size="2" font-family="monospace" text-anchor="start" dominant-baseline="middle">PTD7</text>
<line x1="30" y1="200" x2="50" y2="200" stroke="#ffd60a" stroke-width="1.5" stroke-linecap="round"/>
<text x="55" y="200" fill="#ffd60a" font-size="2" font-family="monospace" text-anchor="start" dominant-baseline="middle">PTD6</text>
<line x1="30" y1="220" x2="50" y2="220" stroke="#ffd60a" stroke-width="1.5" stroke-linecap="round"/>
<text x="55" y="220" fill="#ffd60a" font-size="2" font-family="monospace" text-anchor="start" dominant-baseline="middle">PTD5</text>
<line x1="30" y1="240" x2="50" y2="240" stroke="#ffd60a" stroke-width="1.5" stroke-linecap="round"/>
<text x="55" y="240" fill="#ffd60a" font-size="2" font-family="monospace" text-anchor="start" dominant-baseline="middle">PTC1</text>
<line x1="30" y1="260" x2="50" y2="260" stroke="#ffd60a" stroke-width="1.5" stroke-linecap="round"/>
<text x="55" y="260" fill="#ffd60a" font-size="2" font-family="monospace" text-anchor="start" dominant-baseline="middle">PTC0</text>
<line x1="30" y1="280" x2="50" y2="280" stroke="#ffd60a" stroke-width="1.5" stroke-linecap="round"/>
<text x="55" y="280" fill="#ffd60a" font-size="2" font-family="monospace" text-anchor="start" dominant-baseline="middle">PTB3</text>
<line x1="30" y1="300" x2="50" y2="300" stroke="#ffd60a" stroke-width="1.5" stroke-linecap="round"/>
<text x="55" y="300" fill="#ffd60a" font-size="2" font-family="monospace" text-anchor="start" dominant-baseline="middle">PTB2</text>
<line x1="30" y1="320" x2="50" y2="320" stroke="#ffd60a" stroke-width="1.5" stroke-linecap="round"/>
<text x="55" y="320" fill="#ffd60a" font-size="2" font-family="monospace" text-anchor="start" dominant-baseline="middle">PTB1</text>
<line x1="30" y1="340.00000000000006" x2="50" y2="340.00000000000006" stroke="#ffd60a" stroke-width="1.5" stroke-linecap="round"/>
<text x="55" y="340.00000000000006" fill="#ffd60a" font-size="2" font-family="monospace" text-anchor="start" dominant-baseline="middle">PTB0</text>
<line x1="30" y1="360" x2="50" y2="360" stroke="#ffd60a" stroke-width="1.5" stroke-linecap="round"/>
<text x="55" y="360" fill="#ffd60a" font-size="2" font-family="monospace" text-anchor="start" dominant-baseline="middle">PTA7</text>
<line x1="30" y1="380" x2="50" y2="380" stroke="#ffd60a" stroke-width="1.5" stroke-linecap="round"/>
<text x="55" y="380" fill="#ffd60a" font-size="2" font-family="monospace" text-anchor="start" dominant-baseline="middle">PTA6</text>
<line x1="30" y1="400" x2="50" y2="400" stroke="#ffd60a" stroke-width="1.5" stroke-linecap="round"/>
<text x="55" y="400" fill="#ffd60a" font-size="2" font-family="monospace" text-anchor="start" dominant-baseline="middle">PTD4</text>
<line x1="30" y1="420" x2="50" y2="420" stroke="#ffd60a" stroke-width="1.5" stroke-linecap="round"/>
<text x="55" y="420" fill="#ffd60a" font-size="2" font-family="monospace" text-anchor="start" dominant-baseline="middle">PTD3</text>
<line x1="30" y1="440" x2="50" y2="440" stroke="#ffd60a" stroke-width="1.5" stroke-linecap="round"/>
<text x="55" y="440" fill="#ffd60a" font-size="2" font-family="monospace" text-anchor="start" dominant-baseline="middle">PTD2</text>
<line x1="30" y1="460" x2="50" y2="460" stroke="#ffd60a" stroke-width="1.5" stroke-linecap="round"/>
<text x="55" y="460" fill="#ffd60a" font-size="2" font-family="monospace" text-anchor="start" dominant-baseline="middle">PTA3</text>
<line x1="30" y1="480" x2="50" y2="480" stroke="#ffd60a" stroke-width="1.5" stroke-linecap="round"/>
<text x="55" y="480" fill="#ffd60a" font-size="2" font-family="monospace" text-anchor="start" dominant-baseline="middle">PTA2</text>
<line x1="30" y1="500" x2="50" y2="500" stroke="#ffd60a" stroke-width="1.5" stroke-linecap="round"/>
<text x="55" y="500" fill="#ffd60a" font-size="2" font-family="monospace" text-anchor="start" dominant-baseline="middle">PTA1</text>
<line x1="30" y1="520" x2="50" y2="520" stroke="#ffd60a" stroke-width="1.5" stroke-linecap="round"/>
<text x="55" y="520" fill="#ffd60a" font-size="2" font-family="monospace" text-anchor="start" dominant-baseline="middle">PTA0</text>
<line x1="30" y1="540" x2="50" y2="540" stroke="#ffd60a" stroke-width="1.5" stroke-linecap="round"/>
<text x="55" y="540" fill="#ffd60a" font-size="2" font-family="monospace" text-anchor="start" dominant-baseline="middle">PTC7</text>
<line x1="30" y1="560" x2="50" y2="560" stroke="#ffd60a" stroke-width="1.5" stroke-linecap="round"/>
<text x="55" y="560" fill="#ffd60a" font-size="2" font-family="monospace" text-anchor="start" dominant-baseline="middle">PTC6</text>
<line x1="30" y1="580" x2="50" y2="580" stroke="#ffd60a" stroke-width="1.5" stroke-linecap="round"/>
<text x="55" y="580" fill="#ffd60a" font-size="2" font-family="monospace" text-anchor="start" dominant-baseline="middle">PTC5</text>
<line x1="150" y1="77" x2="130" y2="77" stroke="#ffd60a" stroke-width="1.5" stroke-linecap="round"/>
<text x="125" y="77" fill="#ffd60a" font-size="2" font-family="monospace" text-anchor="end" dominant-baseline="middle">PTE7</text>
<line x1="150" y1="131" x2="130" y2="131" stroke="#ffd60a" stroke-width="1.5" stroke-linecap="round"/>
<text x="125" y="131" fill="#ffd60a" font-size="2" font-family="monospace" text-anchor="end" dominant-baseline="middle">PTH2</text>
<line x1="150" y1="185" x2="130" y2="185" stroke="#ffd60a" stroke-width="1.5" stroke-linecap="round"/>
<text x="125" y="185" fill="#ffd60a" font-size="2" font-family="monospace" text-anchor="end" dominant-baseline="middle">PTB7</text>
<line x1="150" y1="239" x2="130" y2="239" stroke="#ffd60a" stroke-width="1.5" stroke-linecap="round"/>
<text x="125" y="239" fill="#ffd60a" font-size="2" font-family="monospace" text-anchor="end" dominant-baseline="middle">PTB6</text>
<line x1="150" y1="293" x2="130" y2="293" stroke="#ffd60a" stroke-width="1.5" stroke-linecap="round"/>
<text x="125" y="293" fill="#ffd60a" font-size="2" font-family="monospace" text-anchor="end" dominant-baseline="middle">PTE2</text>
<line x1="150" y1="347" x2="130" y2="347" stroke="#ffd60a" stroke-width="1.5" stroke-linecap="round"/>
<text x="125" y="347" fill="#ffd60a" font-size="2" font-family="monospace" text-anchor="end" dominant-baseline="middle">PTE1</text>
<line x1="150" y1="401" x2="130" y2="401" stroke="#ffd60a" stroke-width="1.5" stroke-linecap="round"/>
<text x="125" y="401" fill="#ffd60a" font-size="2" font-family="monospace" text-anchor="end" dominant-baseline="middle">PTE0</text>
<line x1="150" y1="455" x2="130" y2="455" stroke="#ffd60a" stroke-width="1.5" stroke-linecap="round"/>
<text x="125" y="455" fill="#ffd60a" font-size="2" font-family="monospace" text-anchor="end" dominant-baseline="middle">PTC4</text>
<line x1="150" y1="509" x2="130" y2="509" stroke="#ffd60a" stroke-width="1.5" stroke-linecap="round"/>
<text x="125" y="509" fill="#ffd60a" font-size="2" font-family="monospace" text-anchor="end" dominant-baseline="middle">PTA5</text>
<line x1="150" y1="563" x2="130" y2="563" stroke="#ffd60a" stroke-width="1.5" stroke-linecap="round"/>
<text x="125" y="563" fill="#ffd60a" font-size="2" font-family="monospace" text-anchor="end" dominant-baseline="middle">PTA4</text>
<line x1="60" y1="30" x2="60" y2="50" stroke="#ffd60a" stroke-width="1.5" stroke-linecap="round"/>
<text x="60" y="25" fill="#ffd60a" font-size="2" font-family="monospace" text-anchor="middle" dominant-baseline="middle">VREFL</text>
<line x1="80" y1="30" x2="80" y2="50" stroke="#ffd60a" stroke-width="1.5" stroke-linecap="round"/>
<text x="80" y="25" fill="#ffd60a" font-size="2" font-family="monospace" text-anchor="middle" dominant-baseline="middle">VSS/VSSA</text>
<line x1="100" y1="30" x2="100" y2="50" stroke="#ffd60a" stroke-width="1.5" stroke-linecap="round"/>
<text x="100" y="25" fill="#ffd60a" font-size="2" font-family="monospace" text-anchor="middle" dominant-baseline="middle">VSS</text>
<line x1="120" y1="30" x2="120" y2="50" stroke="#ffd60a" stroke-width="1.5" stroke-linecap="round"/>
<text x="120" y="25" fill="#ffd60a" font-size="2" font-family="monospace" text-anchor="middle" dominant-baseline="middle">VSS</text>
<line x1="63.33333333333333" y1="610" x2="63.33333333333333" y2="590" stroke="#ffd60a" stroke-width="1.5" stroke-linecap="round"/>
<text x="63.33333333333333" y="624" fill="#ffd60a" font-size="2" font-family="monospace" text-anchor="middle" dominant-baseline="middle">VDD</text>
<line x1="90" y1="610" x2="90" y2="590" stroke="#ffd60a" stroke-width="1.5" stroke-linecap="round"/>
<text x="90" y="624" fill="#ffd60a" font-size="2" font-family="monospace" text-anchor="middle" dominant-baseline="middle">VDDA/VREFH</text>
<line x1="116.66666666666667" y1="610" x2="116.66666666666667" y2="590" stroke="#ffd60a" stroke-width="1.5" stroke-linecap="round"/>
<text x="116.66666666666667" y="624" fill="#ffd60a" font-size="2" font-family="monospace" text-anchor="middle" dominant-baseline="middle">VDD</text>
</svg>