<svg xmlns="http://www.w3.org/2000/svg" viewBox="0 0 34.32 28.32">
<rect x="7" y="24.32" width="20.32" height="20.32" stroke="#ffffff" stroke-width="0.3" fill="rgba(255,255,255,0.06)"/>
<line x1="11.826" y1="14.795" x2="14.366" y2="14.795" stroke="#ffffff" stroke-width="0.3" stroke-linecap="round" fill="none"/>
<path d="M 13.096 13.525 A 0.7157396238651091 0.7157396238651091 0 0 1 11.826 13.525" stroke="#ffffff" stroke-width="0.3" fill="none"/>
<path d="M 13.096 13.525 A 0.7277778613648588 0.7277778613648588 0 0 1 14.366 13.525" stroke="#ffffff" stroke-width="0.3" fill="none"/>
<line x1="17.16" y1="4" x2="17.16" y2="5.27" stroke="#ffffff" stroke-width="0.3" stroke-linecap="round" fill="none"/>
<line x1="17.16" y1="6.54" x2="17.16" y2="7.8100000000000005" stroke="#ffffff" stroke-width="0.3" stroke-linecap="round" fill="none"/>
<line x1="17.16" y1="9.08" x2="17.16" y2="10.35" stroke="#ffffff" stroke-width="0.3" stroke-linecap="round" fill="none"/>
<line x1="17.16" y1="11.620000000000001" x2="17.16" y2="12.89" stroke="#ffffff" stroke-width="0.3" stroke-linecap="round" fill="none"/>
<line x1="17.16" y1="14.16" x2="17.16" y2="15.43" stroke="#ffffff" stroke-width="0.3" stroke-linecap="round" fill="none"/>
<line x1="17.16" y1="16.7" x2="17.16" y2="17.97" stroke="#ffffff" stroke-width="0.3" stroke-linecap="round" fill="none"/>
<line x1="17.16" y1="19.240000000000002" x2="17.16" y2="20.509999999999998" stroke="#ffffff" stroke-width="0.3" stroke-linecap="round" fill="none"/>
<line x1="17.16" y1="21.78" x2="17.16" y2="23.05" stroke="#ffffff" stroke-width="0.3" stroke-linecap="round" fill="none"/>
<line x1="19.954" y1="13.525" x2="20.462" y2="13.525" stroke="#ffffff" stroke-width="0.3" stroke-linecap="round" fill="none"/>
<line x1="19.954" y1="14.795" x2="22.494" y2="14.795" stroke="#ffffff" stroke-width="0.3" stroke-linecap="round" fill="none"/>
<line x1="20.97" y1="13.525" x2="21.478" y2="13.525" stroke="#ffffff" stroke-width="0.3" stroke-linecap="round" fill="none"/>
<line x1="21.986" y1="13.525" x2="22.494" y2="13.525" stroke="#ffffff" stroke-width="0.3" stroke-linecap="round" fill="none"/>
<line x1="4.460000000000001" y1="21.78" x2="7" y2="21.78" stroke="#ffd60a" stroke-width="0.49028571428571427" stroke-linecap="round"/>
<text x="4" y="21.78" fill="#ffd60a" font-size="1" font-family="monospace" text-anchor="start" dominant-baseline="middle">AC(N)</text>
<line x1="4.460000000000001" y1="6.54" x2="7" y2="6.54" stroke="#ffd60a" stroke-width="0.49028571428571427" stroke-linecap="round"/>
<text x="4" y="6.54" fill="#ffd60a" font-size="1" font-family="monospace" text-anchor="start" dominant-baseline="middle">AC(L)</text>
<line x1="4.460000000000001" y1="9.08" x2="7" y2="9.08" stroke="#ffd60a" stroke-width="0.49028571428571427" stroke-linecap="round"/>
<text x="4" y="9.08" fill="#ffd60a" font-size="1" font-family="monospace" text-anchor="start" dominant-baseline="middle">+V(CAP)</text>
<line x1="4.460000000000001" y1="19.240000000000002" x2="7" y2="19.240000000000002" stroke="#ffd60a" stroke-width="0.49028571428571427" stroke-linecap="round"/>
<text x="4" y="19.240000000000002" fill="#ffd60a" font-size="1" font-family="monospace" text-anchor="start" dominant-baseline="middle">-V(CAP)</text>
<line x1="29.86" y1="21.78" x2="27.32" y2="21.78" stroke="#ffd60a" stroke-width="0.49028571428571427" stroke-linecap="round"/>
<text x="30.32" y="21.78" fill="#ffd60a" font-size="1" font-family="monospace" text-anchor="end" dominant-baseline="middle">-Vo</text>
<line x1="29.86" y1="6.54" x2="27.32" y2="6.54" stroke="#ffd60a" stroke-width="0.49028571428571427" stroke-linecap="round"/>
<text x="30.32" y="6.54" fill="#ffd60a" font-size="1" font-family="monospace" text-anchor="end" dominant-baseline="middle">+Vo</text>
</svg>