<svg xmlns="http://www.w3.org/2000/svg" viewBox="0 0 21.62 12.318">
<line x1="8.016" y1="4.254" x2="9.54" y2="5.7780000000000005" stroke="#ffffff" stroke-width="0.3" stroke-linecap="round" fill="none"/>
<line x1="8.016" y1="4.7620000000000005" x2="9.54" y2="5.27" stroke="#ffffff" stroke-width="0.3" stroke-linecap="round" fill="none"/>
<line x1="8.016" y1="5.27" x2="9.54" y2="4.7620000000000005" stroke="#ffffff" stroke-width="0.3" stroke-linecap="round" fill="none"/>
<line x1="8.016" y1="5.7780000000000005" x2="9.54" y2="4.254" stroke="#ffffff" stroke-width="0.3" stroke-linecap="round" fill="none"/>
<line x1="8.524000000000001" y1="4.254" x2="9.032" y2="5.7780000000000005" stroke="#ffffff" stroke-width="0.3" stroke-linecap="round" fill="none"/>
<line x1="8.778" y1="5.016" x2="8.778" y2="4" stroke="#ffffff" stroke-width="0.3" stroke-linecap="round" fill="none"/>
<line x1="8.778" y1="5.016" x2="8.778" y2="6.032" stroke="#ffffff" stroke-width="0.3" stroke-linecap="round" fill="none"/>
<line x1="9.032" y1="4.254" x2="8.524000000000001" y2="5.7780000000000005" stroke="#ffffff" stroke-width="0.3" stroke-linecap="round" fill="none"/>
<line x1="10.302" y1="5.016" x2="7.7620000000000005" y2="5.016" stroke="#ffffff" stroke-width="0.3" stroke-linecap="round" fill="none"/>
<line x1="10.556000000000001" y1="5.7780000000000005" x2="10.556000000000001" y2="8.318" stroke="#ffffff" stroke-width="0.3" stroke-linecap="round" fill="none"/>
<polyline points="11.826,5.524 11.318,4.508 11.6083,4.6141000000000005 11.318,4.508 11.2315,4.8179" stroke="#ffffff" stroke-width="0.3" stroke-linejoin="round" stroke-linecap="round" fill="none"/>
<polyline points="12.6242,5.1361 12.1162,4.1201 12.4065,4.2262 12.1162,4.1201 12.0297,4.43" stroke="#ffffff" stroke-width="0.3" stroke-linejoin="round" stroke-linecap="round" fill="none"/>
<line x1="14.620000000000001" y1="7.048" x2="7" y2="7.048" stroke="#ffffff" stroke-width="0.3" stroke-linecap="round" fill="none"/>
<polyline points="13.096,8.318 13.096,5.7780000000000005 10.556000000000001,7.048 13.096,8.318" stroke="#ffffff" stroke-width="0.3" stroke-linejoin="round" stroke-linecap="round" fill="none"/>
<polyline points="13.1582,4.8718 11.318,5.7780000000000005 11.318,5.7780000000000005" stroke="#ffffff" stroke-width="0.3" stroke-linejoin="round" stroke-linecap="round" fill="none"/>
<line x1="17.16" y1="7.048" x2="14.620000000000001" y2="7.048" stroke="#ffd60a" stroke-width="0.3088571428571429" stroke-linecap="round"/>
<text x="17.62" y="7.048" fill="#ffd60a" font-size="1" font-family="monospace" text-anchor="end" dominant-baseline="middle">A</text>
<line x1="10.81" y1="7.048" x2="13.35" y2="7.048" stroke="#ffd60a" stroke-width="0.3088571428571429" stroke-linecap="round"/>
<text x="16.35" y="7.048" fill="#ffd60a" font-size="1" font-family="monospace" text-anchor="start" dominant-baseline="middle">NC</text>
<line x1="4.46" y1="7.048" x2="7" y2="7.048" stroke="#ffd60a" stroke-width="0.3088571428571429" stroke-linecap="round"/>
<text x="4" y="7.048" fill="#ffd60a" font-size="1" font-family="monospace" text-anchor="start" dominant-baseline="middle">C</text>
</svg>