<svg xmlns="http://www.w3.org/2000/svg" viewBox="0 0 15.8994 19.08">
<polyline points="4,6.364999999999999 5.905,8.27 5.905,7.634999999999999" stroke="#ffffff" stroke-width="0.3" stroke-linejoin="round" stroke-linecap="round" fill="none"/>
<polyline points="4.635000000000001,5.094999999999999 6.540000000000001,6.999999999999999 6.540000000000001,6.364999999999999" stroke="#ffffff" stroke-width="0.3" stroke-linejoin="round" stroke-linecap="round" fill="none"/>
<line x1="5.905" y1="8.27" x2="5.2700000000000005" y2="8.27" stroke="#ffffff" stroke-width="0.3" stroke-linecap="round" fill="none"/>
<line x1="6.540000000000001" y1="6.999999999999999" x2="5.905" y2="6.999999999999999" stroke="#ffffff" stroke-width="0.3" stroke-linecap="round" fill="none"/>
<polyline points="8.445,7.634999999999999 8.445,11.444999999999999 8.445,11.444999999999999" stroke="#ffffff" stroke-width="0.508" stroke-linejoin="round" stroke-linecap="round" fill="none"/>
<line x1="8.445" y1="8.905" x2="10.350000000000001" y2="6.999999999999999" stroke="#ffffff" stroke-width="0.3" stroke-linecap="round" fill="none"/>
<polyline points="8.445,10.174999999999999 10.350000000000001,12.079999999999998 10.350000000000001,12.079999999999998" stroke="#ffffff" stroke-width="0.3" stroke-linejoin="round" stroke-linecap="round" fill="none"/>
<circle cx="9.08" cy="9.54" r="2.8194" stroke="#ffffff" stroke-width="0.3" fill="none"/>
<polyline points="9.08,11.318 9.588000000000001,10.809999999999999 10.096,11.825999999999999 9.08,11.318 9.08,11.318" stroke="#ffffff" stroke-width="0.3" stroke-linejoin="round" stroke-linecap="round" fill="#ffffff"/>
<line x1="10.350000000000001" y1="14.62" x2="10.350000000000001" y2="12.079999999999998" stroke="#ffd60a" stroke-width="0.2725714285714285" stroke-linecap="round"/>
<text x="10.350000000000001" y="15.079999999999998" fill="#ffd60a" font-size="1" font-family="monospace" text-anchor="middle" dominant-baseline="middle">E</text>
<line x1="10.350000000000001" y1="4.459999999999999" x2="10.35" y2="6.999999999999999" stroke="#ffd60a" stroke-width="0.2725714285714285" stroke-linecap="round"/>
<text x="10.350000000000001" y="3.999999999999999" fill="#ffd60a" font-size="1" font-family="monospace" text-anchor="middle" dominant-baseline="middle">C</text>
</svg>