<svg xmlns="http://www.w3.org/2000/svg" viewBox="0 0 17.1694 19.08">
<polyline points="5.27,6.364999999999999 7.175,8.27 7.175,7.634999999999999" stroke="#ffffff" stroke-width="0.3" stroke-linejoin="round" stroke-linecap="round" fill="none"/>
<polyline points="5.905,5.094999999999999 7.8100000000000005,6.999999999999999 7.8100000000000005,6.364999999999999" stroke="#ffffff" stroke-width="0.3" stroke-linejoin="round" stroke-linecap="round" fill="none"/>
<line x1="7.175" y1="8.27" x2="6.54" y2="8.27" stroke="#ffffff" stroke-width="0.3" stroke-linecap="round" fill="none"/>
<line x1="7.8100000000000005" y1="6.999999999999999" x2="7.175" y2="6.999999999999999" stroke="#ffffff" stroke-width="0.3" stroke-linecap="round" fill="none"/>
<line x1="9.08" y1="9.54" x2="9.715" y2="9.54" stroke="#ffffff" stroke-width="0.3" stroke-linecap="round" fill="none"/>
<polyline points="9.715,7.634999999999999 9.715,11.444999999999999 9.715,11.444999999999999" stroke="#ffffff" stroke-width="0.508" stroke-linejoin="round" stroke-linecap="round" fill="none"/>
<line x1="9.715" y1="8.905" x2="11.620000000000001" y2="6.999999999999999" stroke="#ffffff" stroke-width="0.3" stroke-linecap="round" fill="none"/>
<polyline points="9.715,10.174999999999999 11.620000000000001,12.079999999999998 11.620000000000001,12.079999999999998" stroke="#ffffff" stroke-width="0.3" stroke-linejoin="round" stroke-linecap="round" fill="none"/>
<circle cx="10.35" cy="9.54" r="2.8194" stroke="#ffffff" stroke-width="0.3" fill="none"/>
<polyline points="10.35,11.318 10.858,10.809999999999999 11.366,11.825999999999999 10.35,11.318 10.35,11.318" stroke="#ffffff" stroke-width="0.3" stroke-linejoin="round" stroke-linecap="round" fill="#ffffff"/>
<line x1="11.620000000000001" y1="4.459999999999999" x2="11.62" y2="6.999999999999999" stroke="#ffd60a" stroke-width="0.2725714285714285" stroke-linecap="round"/>
<text x="11.620000000000001" y="3.999999999999999" fill="#ffd60a" font-size="1" font-family="monospace" text-anchor="middle" dominant-baseline="middle">C</text>
<line x1="4" y1="9.54" x2="9.08" y2="9.54" stroke="#ffd60a" stroke-width="0.2725714285714285" stroke-linecap="round"/>
<text x="12.08" y="9.54" fill="#ffd60a" font-size="1" font-family="monospace" text-anchor="start" dominant-baseline="middle">B</text>
<line x1="11.620000000000001" y1="14.62" x2="11.620000000000001" y2="12.079999999999998" stroke="#ffd60a" stroke-width="0.2725714285714285" stroke-linecap="round"/>
<text x="11.620000000000001" y="15.079999999999998" fill="#ffd60a" font-size="1" font-family="monospace" text-anchor="middle" dominant-baseline="middle">E</text>
</svg>