<svg xmlns="http://www.w3.org/2000/svg" viewBox="0 0 19.08 19.89">
<line x1="6.999999999999999" y1="5.27" x2="9.54" y2="5.27" stroke="#ffffff" stroke-width="0.3" stroke-linecap="round" fill="none"/>
<polyline points="6.999999999999999,6.54 6.999999999999999,4 9.54,5.27 6.999999999999999,6.54" stroke="#ffffff" stroke-width="0.3" stroke-linejoin="round" stroke-linecap="round" fill="none"/>
<polyline points="7.761999999999999,9.334 7.254,9.842 8.27,10.35 7.761999999999999,9.334" stroke="#ffffff" stroke-width="0.3" stroke-linejoin="round" stroke-linecap="round" fill="#ffffff"/>
<line x1="8.905" y1="10.985" x2="6.999999999999999" y2="9.08" stroke="#ffffff" stroke-width="0.3" stroke-linecap="round" fill="none"/>
<line x1="9.54" y1="6.54" x2="9.54" y2="4" stroke="#ffffff" stroke-width="0.3" stroke-linecap="round" fill="none"/>
<circle cx="9.54" cy="10.35" r="2.8194" stroke="#ffffff" stroke-width="0.3" fill="none"/>
<line x1="9.54" y1="14.16" x2="9.54" y2="10.985" stroke="#ffffff" stroke-width="0.3" stroke-linecap="round" fill="none"/>
<line x1="10.174999999999999" y1="10.985" x2="12.079999999999998" y2="9.08" stroke="#ffffff" stroke-width="0.3" stroke-linecap="round" fill="none"/>
<line x1="11.444999999999999" y1="10.985" x2="7.634999999999999" y2="10.985" stroke="#ffffff" stroke-width="0.508" stroke-linecap="round" fill="none"/>
<line x1="12.079999999999998" y1="5.27" x2="9.54" y2="5.27" stroke="#ffffff" stroke-width="0.3" stroke-linecap="round" fill="none"/>
<circle cx="12.079999999999998" cy="5.27" r="0.254" stroke="#ffffff" stroke-width="0.3" fill="#ffffff"/>
<line x1="12.079999999999998" y1="9.08" x2="12.079999999999998" y2="5.27" stroke="#ffffff" stroke-width="0.3" stroke-linecap="round" fill="none"/>
<line x1="4.459999999999999" y1="5.27" x2="6.999999999999999" y2="5.27" stroke="#ffd60a" stroke-width="0.28414285714285714" stroke-linecap="round"/>
<text x="3.999999999999999" y="5.27" fill="#ffd60a" font-size="1" font-family="monospace" text-anchor="start" dominant-baseline="middle">A</text>
<line x1="14.62" y1="5.27" x2="12.079999999999998" y2="5.27" stroke="#ffd60a" stroke-width="0.28414285714285714" stroke-linecap="round"/>
<text x="15.079999999999998" y="5.27" fill="#ffd60a" font-size="1" font-family="monospace" text-anchor="end" dominant-baseline="middle">C</text>
<line x1="4.459999999999999" y1="9.08" x2="6.999999999999999" y2="9.08" stroke="#ffd60a" stroke-width="0.28414285714285714" stroke-linecap="round"/>
<text x="3.999999999999999" y="9.08" fill="#ffd60a" font-size="1" font-family="monospace" text-anchor="start" dominant-baseline="middle">A</text>
<line x1="9.54" y1="15.43" x2="9.54" y2="12.89" stroke="#ffd60a" stroke-width="0.28414285714285714" stroke-linecap="round"/>
<text x="9.54" y="15.89" fill="#ffd60a" font-size="1" font-family="monospace" text-anchor="middle" dominant-baseline="middle">B</text>
</svg>