<svg xmlns="http://www.w3.org/2000/svg" viewBox="0 0 20.7 20.35">
<rect x="4" y="12.715" width="12.7" height="6.35" stroke="#ffffff" stroke-width="0.3" fill="rgba(255,255,255,0.06)"/>
<rect x="4.508" y="12.079999999999998" width="1.524" height="4.064" stroke="#ffffff" stroke-width="0.3" fill="none"/>
<circle cx="5.27" cy="7.254" r="0.254" stroke="#ffffff" stroke-width="0.3" fill="#ffffff"/>
<polyline points="5.27,8.015999999999998 5.27,7.254 7.81,7.254 7.81,8.015999999999998" stroke="#ffffff" stroke-width="0.3" stroke-linejoin="round" stroke-linecap="round" fill="none"/>
<line x1="5.27" y1="12.079999999999998" x2="5.27" y2="13.35" stroke="#ffffff" stroke-width="0.3" stroke-linecap="round" fill="none"/>
<rect x="7.048" y="12.079999999999998" width="1.524" height="4.064" stroke="#ffffff" stroke-width="0.3" fill="none"/>
<circle cx="7.81" cy="7.254" r="0.254" stroke="#ffffff" stroke-width="0.3" fill="#ffffff"/>
<polyline points="7.81,8.015999999999998 7.81,7.254 10.35,7.254 10.35,8.015999999999998" stroke="#ffffff" stroke-width="0.3" stroke-linejoin="round" stroke-linecap="round" fill="none"/>
<line x1="7.81" y1="12.079999999999998" x2="7.81" y2="13.35" stroke="#ffffff" stroke-width="0.3" stroke-linecap="round" fill="none"/>
<rect x="9.588" y="12.079999999999998" width="1.524" height="4.064" stroke="#ffffff" stroke-width="0.3" fill="none"/>
<circle cx="10.35" cy="7.254" r="0.254" stroke="#ffffff" stroke-width="0.3" fill="#ffffff"/>
<polyline points="10.35,8.015999999999998 10.35,7.254 12.89,7.254 12.89,8.015999999999998" stroke="#ffffff" stroke-width="0.3" stroke-linejoin="round" stroke-linecap="round" fill="none"/>
<line x1="10.35" y1="12.079999999999998" x2="10.35" y2="13.35" stroke="#ffffff" stroke-width="0.3" stroke-linecap="round" fill="none"/>
<rect x="12.128" y="12.079999999999998" width="1.524" height="4.064" stroke="#ffffff" stroke-width="0.3" fill="none"/>
<circle cx="12.89" cy="7.254" r="0.254" stroke="#ffffff" stroke-width="0.3" fill="#ffffff"/>
<polyline points="12.89,8.015999999999998 12.89,7.254 15.43,7.254 15.43,8.015999999999998" stroke="#ffffff" stroke-width="0.3" stroke-linejoin="round" stroke-linecap="round" fill="none"/>
<line x1="12.89" y1="12.079999999999998" x2="12.89" y2="13.35" stroke="#ffffff" stroke-width="0.3" stroke-linecap="round" fill="none"/>
<rect x="14.668" y="12.079999999999998" width="1.524" height="4.064" stroke="#ffffff" stroke-width="0.3" fill="none"/>
<line x1="15.43" y1="12.079999999999998" x2="15.43" y2="13.35" stroke="#ffffff" stroke-width="0.3" stroke-linecap="round" fill="none"/>
<line x1="5.27" y1="4.459999999999999" x2="5.269999999999999" y2="6.999999999999999" stroke="#ffd60a" stroke-width="0.2957142857142857" stroke-linecap="round"/>
<text x="5.27" y="3.999999999999999" fill="#ffd60a" font-size="1" font-family="monospace" text-anchor="middle" dominant-baseline="middle">common</text>
<line x1="5.27" y1="14.62" x2="5.27" y2="13.35" stroke="#ffd60a" stroke-width="0.2957142857142857" stroke-linecap="round"/>
<text x="5.27" y="16.35" fill="#ffd60a" font-size="1" font-family="monospace" text-anchor="middle" dominant-baseline="middle">R1</text>
<line x1="7.81" y1="14.62" x2="7.81" y2="13.35" stroke="#ffd60a" stroke-width="0.2957142857142857" stroke-linecap="round"/>
<text x="7.81" y="16.35" fill="#ffd60a" font-size="1" font-family="monospace" text-anchor="middle" dominant-baseline="middle">R2</text>
<line x1="10.35" y1="14.62" x2="10.35" y2="13.35" stroke="#ffd60a" stroke-width="0.2957142857142857" stroke-linecap="round"/>
<text x="10.35" y="16.35" fill="#ffd60a" font-size="1" font-family="monospace" text-anchor="middle" dominant-baseline="middle">R3</text>
<line x1="12.89" y1="14.62" x2="12.89" y2="13.35" stroke="#ffd60a" stroke-width="0.2957142857142857" stroke-linecap="round"/>
<text x="12.89" y="16.35" fill="#ffd60a" font-size="1" font-family="monospace" text-anchor="middle" dominant-baseline="middle">R4</text>
<line x1="15.43" y1="14.62" x2="15.43" y2="13.35" stroke="#ffd60a" stroke-width="0.2957142857142857" stroke-linecap="round"/>
<text x="15.43" y="16.35" fill="#ffd60a" font-size="1" font-family="monospace" text-anchor="middle" dominant-baseline="middle">R5</text>
</svg>