<svg xmlns="http://www.w3.org/2000/svg" viewBox="0 0 18.16 20.35">
<rect x="4" y="12.715" width="10.16" height="6.35" stroke="#ffffff" stroke-width="0.3" fill="rgba(255,255,255,0.06)"/>
<circle cx="5.27" cy="7.254" r="0.254" stroke="#ffffff" stroke-width="0.3" fill="#ffffff"/>
<line x1="5.27" y1="7.254" x2="12.89" y2="7.254" stroke="#ffffff" stroke-width="0.3" stroke-linecap="round" fill="none"/>
<polyline points="5.27,7.254 5.27,8.015999999999998 6.032,8.371599999999999 4.508,9.032 6.032,9.6924 4.508,10.3782 6.032,11.064 4.508,11.7244 5.27,12.079999999999998 5.27,13.35" stroke="#ffffff" stroke-width="0.3" stroke-linejoin="round" stroke-linecap="round" fill="none"/>
<circle cx="7.81" cy="7.254" r="0.254" stroke="#ffffff" stroke-width="0.3" fill="#ffffff"/>
<polyline points="7.81,7.254 7.81,8.015999999999998 8.572,8.371599999999999 7.048,9.032 8.572,9.6924 7.048,10.3782 8.572,11.064 7.048,11.7244 7.81,12.079999999999998 7.81,13.35" stroke="#ffffff" stroke-width="0.3" stroke-linejoin="round" stroke-linecap="round" fill="none"/>
<circle cx="10.35" cy="7.254" r="0.254" stroke="#ffffff" stroke-width="0.3" fill="#ffffff"/>
<polyline points="10.35,7.254 10.35,8.015999999999998 11.112,8.371599999999999 9.588,9.032 11.112,9.6924 9.588,10.3782 11.112,11.064 9.588,11.7244 10.35,12.079999999999998 10.35,13.35" stroke="#ffffff" stroke-width="0.3" stroke-linejoin="round" stroke-linecap="round" fill="none"/>
<polyline points="12.89,7.254 12.89,8.015999999999998 13.652,8.371599999999999 12.128,9.032 13.652,9.6924 12.128,10.3782 13.652,11.064 12.128,11.7244 12.89,12.079999999999998 12.89,13.35" stroke="#ffffff" stroke-width="0.3" stroke-linejoin="round" stroke-linecap="round" fill="none"/>
<line x1="5.27" y1="4.459999999999999" x2="5.269999999999999" y2="6.999999999999999" stroke="#ffd60a" stroke-width="0.29071428571428576" stroke-linecap="round"/>
<text x="5.27" y="3.999999999999999" fill="#ffd60a" font-size="1" font-family="monospace" text-anchor="middle" dominant-baseline="middle">common</text>
<line x1="5.27" y1="14.62" x2="5.27" y2="13.35" stroke="#ffd60a" stroke-width="0.29071428571428576" stroke-linecap="round"/>
<text x="5.27" y="16.35" fill="#ffd60a" font-size="1" font-family="monospace" text-anchor="middle" dominant-baseline="middle">R1</text>
<line x1="7.81" y1="14.62" x2="7.81" y2="13.35" stroke="#ffd60a" stroke-width="0.29071428571428576" stroke-linecap="round"/>
<text x="7.81" y="16.35" fill="#ffd60a" font-size="1" font-family="monospace" text-anchor="middle" dominant-baseline="middle">R2</text>
<line x1="10.35" y1="14.62" x2="10.35" y2="13.35" stroke="#ffd60a" stroke-width="0.29071428571428576" stroke-linecap="round"/>
<text x="10.35" y="16.35" fill="#ffd60a" font-size="1" font-family="monospace" text-anchor="middle" dominant-baseline="middle">R3</text>
<line x1="12.89" y1="14.62" x2="12.89" y2="13.35" stroke="#ffd60a" stroke-width="0.29071428571428576" stroke-linecap="round"/>
<text x="12.89" y="16.35" fill="#ffd60a" font-size="1" font-family="monospace" text-anchor="middle" dominant-baseline="middle">R4</text>
</svg>