<svg xmlns="http://www.w3.org/2000/svg" viewBox="0 0 11.556000000000001 18.16">
<line x1="5.016" y1="6.7940000000000005" x2="5.016" y2="6.54" stroke="#ffffff" stroke-width="0.3" stroke-linecap="round" fill="none"/>
<polyline points="5.016,6.7940000000000005 6.032,7.175 5.016,7.556 4,7.937 5.016,8.318" stroke="#ffffff" stroke-width="0.3" stroke-linejoin="round" stroke-linecap="round" fill="none"/>
<polyline points="5.016,8.318 6.032,8.699 5.016,9.08 4,9.461 5.016,9.842" stroke="#ffffff" stroke-width="0.3" stroke-linejoin="round" stroke-linecap="round" fill="none"/>
<polyline points="5.016,9.842 6.032,10.223 5.016,10.604 4,10.985 5.016,11.366" stroke="#ffffff" stroke-width="0.3" stroke-linejoin="round" stroke-linecap="round" fill="none"/>
<line x1="5.016" y1="11.366" x2="5.016" y2="11.620000000000001" stroke="#ffffff" stroke-width="0.3" stroke-linecap="round" fill="none"/>
<line x1="5.016" y1="11.620000000000001" x2="6.286" y2="11.620000000000001" stroke="#ffffff" stroke-width="0.3" stroke-linecap="round" fill="none"/>
<line x1="6.286" y1="6.54" x2="5.016" y2="6.54" stroke="#ffffff" stroke-width="0.3" stroke-linecap="round" fill="none"/>
<line x1="5.016" y1="4" x2="5.015999999999999" y2="6.54" stroke="#ffd60a" stroke-width="0.25942857142857145" stroke-linecap="round"/>
<line x1="7.556" y1="6.54" x2="6.286" y2="6.54" stroke="#ffd60a" stroke-width="0.25942857142857145" stroke-linecap="round"/>
<line x1="7.556" y1="11.620000000000001" x2="6.286" y2="11.620000000000001" stroke="#ffd60a" stroke-width="0.25942857142857145" stroke-linecap="round"/>
<line x1="5.016" y1="14.16" x2="5.016" y2="11.620000000000001" stroke="#ffd60a" stroke-width="0.25942857142857145" stroke-linecap="round"/>
</svg>