<svg xmlns="http://www.w3.org/2000/svg" viewBox="0 0 240 460">
<rect x="50" y="50" width="140" height="360" stroke="#ffffff" stroke-width="1.5" fill="rgba(255,255,255,0.04)"/>
<text x="120" y="230" fill="#888" font-size="3" font-family="monospace" text-anchor="middle" dominant-baseline="middle">A</text>
<line x1="30" y1="65" x2="50" y2="65" stroke="#ffd60a" stroke-width="1.5" stroke-linecap="round"/>
<text x="55" y="65" fill="#ffd60a" font-size="2" font-family="monospace" text-anchor="start" dominant-baseline="middle">GPIO16</text>
<line x1="30" y1="95" x2="50" y2="95" stroke="#ffd60a" stroke-width="1.5" stroke-linecap="round"/>
<text x="55" y="95" fill="#ffd60a" font-size="2" font-family="monospace" text-anchor="start" dominant-baseline="middle">GPIO17</text>
<line x1="30" y1="125" x2="50" y2="125" stroke="#ffd60a" stroke-width="1.5" stroke-linecap="round"/>
<text x="55" y="125" fill="#ffd60a" font-size="2" font-family="monospace" text-anchor="start" dominant-baseline="middle">GPIO18</text>
<line x1="30" y1="155" x2="50" y2="155" stroke="#ffd60a" stroke-width="1.5" stroke-linecap="round"/>
<text x="55" y="155" fill="#ffd60a" font-size="2" font-family="monospace" text-anchor="start" dominant-baseline="middle">GPIO19</text>
<line x1="30" y1="185" x2="50" y2="185" stroke="#ffd60a" stroke-width="1.5" stroke-linecap="round"/>
<text x="55" y="185" fill="#ffd60a" font-size="2" font-family="monospace" text-anchor="start" dominant-baseline="middle">GPIO20</text>
<line x1="30" y1="215" x2="50" y2="215" stroke="#ffd60a" stroke-width="1.5" stroke-linecap="round"/>
<text x="55" y="215" fill="#ffd60a" font-size="2" font-family="monospace" text-anchor="start" dominant-baseline="middle">GPIO21</text>
<line x1="30" y1="245" x2="50" y2="245" stroke="#ffd60a" stroke-width="1.5" stroke-linecap="round"/>
<text x="55" y="245" fill="#ffd60a" font-size="2" font-family="monospace" text-anchor="start" dominant-baseline="middle">GPIO22</text>
<line x1="30" y1="275" x2="50" y2="275" stroke="#ffd60a" stroke-width="1.5" stroke-linecap="round"/>
<text x="55" y="275" fill="#ffd60a" font-size="2" font-family="monospace" text-anchor="start" dominant-baseline="middle">GPIO26_ADC0</text>
<line x1="30" y1="305" x2="50" y2="305" stroke="#ffd60a" stroke-width="1.5" stroke-linecap="round"/>
<text x="55" y="305" fill="#ffd60a" font-size="2" font-family="monospace" text-anchor="start" dominant-baseline="middle">GPIO27_ADC1</text>
<line x1="30" y1="335" x2="50" y2="335" stroke="#ffd60a" stroke-width="1.5" stroke-linecap="round"/>
<text x="55" y="335" fill="#ffd60a" font-size="2" font-family="monospace" text-anchor="start" dominant-baseline="middle">AGND</text>
<line x1="30" y1="365" x2="50" y2="365" stroke="#ffd60a" stroke-width="1.5" stroke-linecap="round"/>
<text x="55" y="365" fill="#ffd60a" font-size="2" font-family="monospace" text-anchor="start" dominant-baseline="middle">GPIO28_ADC2</text>
<line x1="30" y1="395" x2="50" y2="395" stroke="#ffd60a" stroke-width="1.5" stroke-linecap="round"/>
<text x="55" y="395" fill="#ffd60a" font-size="2" font-family="monospace" text-anchor="start" dominant-baseline="middle">ADC_VREF</text>
<line x1="210" y1="60" x2="190" y2="60" stroke="#ffd60a" stroke-width="1.5" stroke-linecap="round"/>
<text x="185" y="60" fill="#ffd60a" font-size="2" font-family="monospace" text-anchor="end" dominant-baseline="middle">GPIO0</text>
<line x1="210" y1="80" x2="190" y2="80" stroke="#ffd60a" stroke-width="1.5" stroke-linecap="round"/>
<text x="185" y="80" fill="#ffd60a" font-size="2" font-family="monospace" text-anchor="end" dominant-baseline="middle">GPIO1</text>
<line x1="210" y1="100" x2="190" y2="100" stroke="#ffd60a" stroke-width="1.5" stroke-linecap="round"/>
<text x="185" y="100" fill="#ffd60a" font-size="2" font-family="monospace" text-anchor="end" dominant-baseline="middle">GPIO2</text>
<line x1="210" y1="120" x2="190" y2="120" stroke="#ffd60a" stroke-width="1.5" stroke-linecap="round"/>
<text x="185" y="120" fill="#ffd60a" font-size="2" font-family="monospace" text-anchor="end" dominant-baseline="middle">GPIO3</text>
<line x1="210" y1="140" x2="190" y2="140" stroke="#ffd60a" stroke-width="1.5" stroke-linecap="round"/>
<text x="185" y="140" fill="#ffd60a" font-size="2" font-family="monospace" text-anchor="end" dominant-baseline="middle">GPIO4</text>
<line x1="210" y1="160" x2="190" y2="160" stroke="#ffd60a" stroke-width="1.5" stroke-linecap="round"/>
<text x="185" y="160" fill="#ffd60a" font-size="2" font-family="monospace" text-anchor="end" dominant-baseline="middle">GPIO5</text>
<line x1="210" y1="180" x2="190" y2="180" stroke="#ffd60a" stroke-width="1.5" stroke-linecap="round"/>
<text x="185" y="180" fill="#ffd60a" font-size="2" font-family="monospace" text-anchor="end" dominant-baseline="middle">GPIO6</text>
<line x1="210" y1="200" x2="190" y2="200" stroke="#ffd60a" stroke-width="1.5" stroke-linecap="round"/>
<text x="185" y="200" fill="#ffd60a" font-size="2" font-family="monospace" text-anchor="end" dominant-baseline="middle">GPIO7</text>
<line x1="210" y1="220" x2="190" y2="220" stroke="#ffd60a" stroke-width="1.5" stroke-linecap="round"/>
<text x="185" y="220" fill="#ffd60a" font-size="2" font-family="monospace" text-anchor="end" dominant-baseline="middle">GPIO8</text>
<line x1="210" y1="240" x2="190" y2="240" stroke="#ffd60a" stroke-width="1.5" stroke-linecap="round"/>
<text x="185" y="240" fill="#ffd60a" font-size="2" font-family="monospace" text-anchor="end" dominant-baseline="middle">GPIO9</text>
<line x1="210" y1="260" x2="190" y2="260" stroke="#ffd60a" stroke-width="1.5" stroke-linecap="round"/>
<text x="185" y="260" fill="#ffd60a" font-size="2" font-family="monospace" text-anchor="end" dominant-baseline="middle">GPIO10</text>
<line x1="210" y1="280" x2="190" y2="280" stroke="#ffd60a" stroke-width="1.5" stroke-linecap="round"/>
<text x="185" y="280" fill="#ffd60a" font-size="2" font-family="monospace" text-anchor="end" dominant-baseline="middle">GPIO11</text>
<line x1="210" y1="300" x2="190" y2="300" stroke="#ffd60a" stroke-width="1.5" stroke-linecap="round"/>
<text x="185" y="300" fill="#ffd60a" font-size="2" font-family="monospace" text-anchor="end" dominant-baseline="middle">GPIO12</text>
<line x1="210" y1="320" x2="190" y2="320" stroke="#ffd60a" stroke-width="1.5" stroke-linecap="round"/>
<text x="185" y="320" fill="#ffd60a" font-size="2" font-family="monospace" text-anchor="end" dominant-baseline="middle">GPIO13</text>
<line x1="210" y1="340" x2="190" y2="340" stroke="#ffd60a" stroke-width="1.5" stroke-linecap="round"/>
<text x="185" y="340" fill="#ffd60a" font-size="2" font-family="monospace" text-anchor="end" dominant-baseline="middle">GPIO14</text>
<line x1="210" y1="360" x2="190" y2="360" stroke="#ffd60a" stroke-width="1.5" stroke-linecap="round"/>
<text x="185" y="360" fill="#ffd60a" font-size="2" font-family="monospace" text-anchor="end" dominant-baseline="middle">GPIO15</text>
<line x1="210" y1="380" x2="190" y2="380" stroke="#ffd60a" stroke-width="1.5" stroke-linecap="round"/>
<text x="185" y="380" fill="#ffd60a" font-size="2" font-family="monospace" text-anchor="end" dominant-baseline="middle">RUN</text>
<line x1="210" y1="400" x2="190" y2="400" stroke="#ffd60a" stroke-width="1.5" stroke-linecap="round"/>
<text x="185" y="400" fill="#ffd60a" font-size="2" font-family="monospace" text-anchor="end" dominant-baseline="middle">3V3_EN</text>
<line x1="60" y1="30" x2="60" y2="50" stroke="#ffd60a" stroke-width="1.5" stroke-linecap="round"/>
<text x="60" y="25" fill="#ffd60a" font-size="2" font-family="monospace" text-anchor="middle" dominant-baseline="middle">GND</text>
<line x1="80" y1="30" x2="80" y2="50" stroke="#ffd60a" stroke-width="1.5" stroke-linecap="round"/>
<text x="80" y="25" fill="#ffd60a" font-size="2" font-family="monospace" text-anchor="middle" dominant-baseline="middle">GND</text>
<line x1="100" y1="30" x2="100" y2="50" stroke="#ffd60a" stroke-width="1.5" stroke-linecap="round"/>
<text x="100" y="25" fill="#ffd60a" font-size="2" font-family="monospace" text-anchor="middle" dominant-baseline="middle">GND</text>
<line x1="120" y1="30" x2="120" y2="50" stroke="#ffd60a" stroke-width="1.5" stroke-linecap="round"/>
<text x="120" y="25" fill="#ffd60a" font-size="2" font-family="monospace" text-anchor="middle" dominant-baseline="middle">GND</text>
<line x1="140" y1="30" x2="140" y2="50" stroke="#ffd60a" stroke-width="1.5" stroke-linecap="round"/>
<text x="140" y="25" fill="#ffd60a" font-size="2" font-family="monospace" text-anchor="middle" dominant-baseline="middle">GND</text>
<line x1="160" y1="30" x2="160" y2="50" stroke="#ffd60a" stroke-width="1.5" stroke-linecap="round"/>
<text x="160" y="25" fill="#ffd60a" font-size="2" font-family="monospace" text-anchor="middle" dominant-baseline="middle">GND</text>
<line x1="180" y1="30" x2="180" y2="50" stroke="#ffd60a" stroke-width="1.5" stroke-linecap="round"/>
<text x="180" y="25" fill="#ffd60a" font-size="2" font-family="monospace" text-anchor="middle" dominant-baseline="middle">GND</text>
<line x1="73.33333333333333" y1="430" x2="73.33333333333333" y2="410" stroke="#ffd60a" stroke-width="1.5" stroke-linecap="round"/>
<text x="73.33333333333333" y="444" fill="#ffd60a" font-size="2" font-family="monospace" text-anchor="middle" dominant-baseline="middle">3V3</text>
<line x1="120" y1="430" x2="120" y2="410" stroke="#ffd60a" stroke-width="1.5" stroke-linecap="round"/>
<text x="120" y="444" fill="#ffd60a" font-size="2" font-family="monospace" text-anchor="middle" dominant-baseline="middle">VSYS</text>
<line x1="166.66666666666669" y1="430" x2="166.66666666666669" y2="410" stroke="#ffd60a" stroke-width="1.5" stroke-linecap="round"/>
<text x="166.66666666666669" y="444" fill="#ffd60a" font-size="2" font-family="monospace" text-anchor="middle" dominant-baseline="middle">VBUS</text>
</svg>