<svg xmlns="http://www.w3.org/2000/svg" viewBox="0 0 15.112 19.08">
<rect x="4" y="10.302" width="2.032" height="0.254" stroke="#ffffff" stroke-width="0.3" fill="#ffffff"/>
<rect x="4" y="11.064" width="2.032" height="0.254" stroke="#ffffff" stroke-width="0.3" fill="#ffffff"/>
<line x1="5.016" y1="7" x2="5.016" y2="8.27" stroke="#ffffff" stroke-width="0.3" stroke-linecap="round" fill="none"/>
<circle cx="5.016" cy="8.27" r="0.254" stroke="#ffffff" stroke-width="0.3" fill="#ffffff"/>
<line x1="5.016" y1="8.27" x2="6.159" y2="8.27" stroke="#ffffff" stroke-width="0.3" stroke-linecap="round" fill="none"/>
<line x1="5.016" y1="10.048" x2="5.016" y2="8.27" stroke="#ffffff" stroke-width="0.3" stroke-linecap="round" fill="none"/>
<line x1="6.286" y1="9.54" x2="6.286" y2="7" stroke="#ffffff" stroke-width="0.381" stroke-linecap="round" fill="none"/>
<rect x="6.921" y="10.174999999999999" width="1.27" height="3.81" stroke="#ffffff" stroke-width="0.3048" fill="none"/>
<circle cx="7.556" cy="12.08" r="0.254" stroke="#ffffff" stroke-width="0.3" fill="#ffffff"/>
<line x1="8.826" y1="8.27" x2="10.096" y2="8.27" stroke="#ffffff" stroke-width="0.3" stroke-linecap="round" fill="none"/>
<line x1="8.826" y1="9.54" x2="8.826" y2="7" stroke="#ffffff" stroke-width="0.381" stroke-linecap="round" fill="none"/>
<rect x="9.08" y="10.302" width="2.032" height="0.254" stroke="#ffffff" stroke-width="0.3" fill="#ffffff"/>
<rect x="9.08" y="11.064" width="2.032" height="0.254" stroke="#ffffff" stroke-width="0.3" fill="#ffffff"/>
<polyline points="9.969,11.064 9.969,12.08 5.143000000000001,12.08 5.143000000000001,10.937" stroke="#ffffff" stroke-width="0.3" stroke-linejoin="round" stroke-linecap="round" fill="none"/>
<line x1="10.096" y1="7" x2="10.096" y2="8.27" stroke="#ffffff" stroke-width="0.3" stroke-linecap="round" fill="none"/>
<line x1="10.096" y1="8.27" x2="10.096" y2="10.048" stroke="#ffffff" stroke-width="0.3" stroke-linecap="round" fill="none"/>
<circle cx="10.096" cy="8.27" r="0.254" stroke="#ffffff" stroke-width="0.3" fill="#ffffff"/>
<line x1="5.016" y1="5.7299999999999995" x2="5.016" y2="7" stroke="#ffd60a" stroke-width="0.2725714285714285" stroke-linecap="round"/>
<text x="5.016" y="4" fill="#ffd60a" font-size="1" font-family="monospace" text-anchor="middle" dominant-baseline="middle">1</text>
<line x1="7.556" y1="13.35" x2="7.556" y2="12.08" stroke="#ffd60a" stroke-width="0.2725714285714285" stroke-linecap="round"/>
<text x="7.556" y="15.08" fill="#ffd60a" font-size="1" font-family="monospace" text-anchor="middle" dominant-baseline="middle">2</text>
<line x1="10.096" y1="5.7299999999999995" x2="10.096" y2="7" stroke="#ffd60a" stroke-width="0.2725714285714285" stroke-linecap="round"/>
<text x="10.096" y="4" fill="#ffd60a" font-size="1" font-family="monospace" text-anchor="middle" dominant-baseline="middle">3</text>
</svg>