<svg xmlns="http://www.w3.org/2000/svg" viewBox="0 0 24.16 21.16">
<rect x="7" y="14.16" width="10.16" height="10.16" stroke="#ffffff" stroke-width="0.3" fill="rgba(255,255,255,0.06)"/>
<polyline points="7,6.54 8.27,6.54 8.27,7.048" stroke="#ffffff" stroke-width="0.3" stroke-linejoin="round" stroke-linecap="round" fill="none"/>
<polyline points="7,9.08 8.27,9.08 8.27,10.096 8.778,11.112" stroke="#ffffff" stroke-width="0.3" stroke-linejoin="round" stroke-linecap="round" fill="none"/>
<polyline points="7,11.620000000000001 8.27,11.620000000000001 8.27,11.112" stroke="#ffffff" stroke-width="0.3" stroke-linejoin="round" stroke-linecap="round" fill="none"/>
<polyline points="7.7620000000000005,9.08 8.27,9.08 8.27,8.064 8.778,7.048" stroke="#ffffff" stroke-width="0.3" stroke-linejoin="round" stroke-linecap="round" fill="none"/>
<circle cx="8.27" cy="9.08" r="0.254" stroke="#ffffff" stroke-width="0.3" fill="#ffffff"/>
<line x1="11.445" y1="10.858" x2="11.445" y2="7.302" stroke="#ffffff" stroke-width="0.3" stroke-linecap="round" fill="none"/>
<circle cx="11.699" cy="9.08" r="1.905" stroke="#ffffff" stroke-width="0.3" fill="none"/>
<line x1="11.699" y1="10.858" x2="11.699" y2="7.302" stroke="#ffffff" stroke-width="0.3" stroke-linecap="round" fill="none"/>
<path d="M 11.699 11.874 A 2.7305296728971964 2.7305296728971964 0 0 1 11.699 6.413" stroke="#ffffff" stroke-width="0.3" fill="none"/>
<line x1="11.953" y1="7.302" x2="11.953" y2="10.858" stroke="#ffffff" stroke-width="0.3" stroke-linecap="round" fill="none"/>
<polyline points="12.334,6.159000000000001 11.572,6.413 12.207,6.7940000000000005" stroke="#ffffff" stroke-width="0.3" stroke-linejoin="round" stroke-linecap="round" fill="none"/>
<polyline points="12.334,12.128 11.572,11.874 12.207,11.493" stroke="#ffffff" stroke-width="0.3" stroke-linejoin="round" stroke-linecap="round" fill="none"/>
<line x1="15.89" y1="8.064" x2="15.89" y2="10.096" stroke="#ffffff" stroke-width="0.3" stroke-linecap="round" fill="none"/>
<line x1="15.89" y1="9.08" x2="15.509" y2="9.08" stroke="#ffffff" stroke-width="0.3" stroke-linecap="round" fill="none"/>
<circle cx="16.398" cy="8.064" r="0.127" stroke="#ffffff" stroke-width="0.3" fill="none"/>
<circle cx="16.398" cy="10.096" r="0.127" stroke="#ffffff" stroke-width="0.3" fill="none"/>
<polyline points="17.16,6.54 16.398,6.54 16.398,8.064" stroke="#ffffff" stroke-width="0.3" stroke-linejoin="round" stroke-linecap="round" fill="none"/>
<polyline points="17.16,11.620000000000001 16.398,11.620000000000001 16.398,10.096" stroke="#ffffff" stroke-width="0.3" stroke-linejoin="round" stroke-linecap="round" fill="none"/>
<line x1="4.46" y1="6.54" x2="7" y2="6.54" stroke="#ffd60a" stroke-width="0.34514285714285714" stroke-linecap="round"/>
<text x="4" y="6.54" fill="#ffd60a" font-size="1" font-family="monospace" text-anchor="start" dominant-baseline="middle">A</text>
<line x1="4.46" y1="11.620000000000001" x2="7" y2="11.620000000000001" stroke="#ffd60a" stroke-width="0.34514285714285714" stroke-linecap="round"/>
<text x="4" y="11.620000000000001" fill="#ffd60a" font-size="1" font-family="monospace" text-anchor="start" dominant-baseline="middle">B</text>
<line x1="4.46" y1="9.08" x2="7" y2="9.08" stroke="#ffd60a" stroke-width="0.34514285714285714" stroke-linecap="round"/>
<text x="4" y="9.08" fill="#ffd60a" font-size="1" font-family="monospace" text-anchor="start" dominant-baseline="middle">C</text>
<line x1="12.08" y1="16.7" x2="12.08" y2="14.16" stroke="#ffd60a" stroke-width="0.34514285714285714" stroke-linecap="round"/>
<text x="12.08" y="17.16" fill="#ffd60a" font-size="1" font-family="monospace" text-anchor="middle" dominant-baseline="middle">MP</text>
<line x1="19.7" y1="6.54" x2="17.16" y2="6.539999999999999" stroke="#ffd60a" stroke-width="0.34514285714285714" stroke-linecap="round"/>
<text x="20.16" y="6.54" fill="#ffd60a" font-size="1" font-family="monospace" text-anchor="end" dominant-baseline="middle">S1</text>
<line x1="19.7" y1="11.620000000000001" x2="17.16" y2="11.62" stroke="#ffd60a" stroke-width="0.34514285714285714" stroke-linecap="round"/>
<text x="20.16" y="11.620000000000001" fill="#ffd60a" font-size="1" font-family="monospace" text-anchor="end" dominant-baseline="middle">S2</text>
</svg>