<svg xmlns="http://www.w3.org/2000/svg" viewBox="0 0 31.32 29.240000000000002">
<polyline points="20.208,16.144000000000002 18.938,14.874 15.763,14.874 15.763,16.144000000000002 15.763,17.414 19.192,17.414 20.208,16.144000000000002" stroke="#ffffff" stroke-width="0.3" stroke-linejoin="round" stroke-linecap="round" fill="none"/>
<rect x="7" y="22.240000000000002" width="20.32" height="15.24" stroke="#ffffff" stroke-width="0.3" fill="rgba(255,255,255,0.06)"/>
<polyline points="20.9192,9.667000000000002 22.240000000000002,9.667000000000002 22.240000000000002,10.175" stroke="#ffffff" stroke-width="0.3" stroke-linejoin="round" stroke-linecap="round" fill="none"/>
<line x1="22.240000000000002" y1="12.080000000000002" x2="22.240000000000002" y2="10.175" stroke="#ffffff" stroke-width="0.3" stroke-linecap="round" fill="none"/>
<line x1="24.399" y1="13.223" x2="24.399" y2="17.414" stroke="#ffffff" stroke-width="0.3" stroke-linecap="round" fill="none"/>
<line x1="24.399" y1="13.731000000000002" x2="24.653" y2="13.477" stroke="#ffffff" stroke-width="0.3" stroke-linecap="round" fill="none"/>
<line x1="24.399" y1="14.239" x2="24.653" y2="13.985000000000001" stroke="#ffffff" stroke-width="0.3" stroke-linecap="round" fill="none"/>
<line x1="24.399" y1="14.747000000000002" x2="24.653" y2="14.493" stroke="#ffffff" stroke-width="0.3" stroke-linecap="round" fill="none"/>
<line x1="24.399" y1="15.255" x2="24.653" y2="15.001000000000001" stroke="#ffffff" stroke-width="0.3" stroke-linecap="round" fill="none"/>
<line x1="24.399" y1="15.763000000000002" x2="24.653" y2="15.509" stroke="#ffffff" stroke-width="0.3" stroke-linecap="round" fill="none"/>
<line x1="24.399" y1="16.271" x2="24.653" y2="16.017" stroke="#ffffff" stroke-width="0.3" stroke-linecap="round" fill="none"/>
<line x1="24.399" y1="16.779" x2="24.653" y2="16.525000000000002" stroke="#ffffff" stroke-width="0.3" stroke-linecap="round" fill="none"/>
<line x1="24.399" y1="17.287" x2="24.653" y2="17.033" stroke="#ffffff" stroke-width="0.3" stroke-linecap="round" fill="none"/>
<polyline points="21.478,18.938000000000002 21.478,16.144000000000002 20.208,16.144000000000002" stroke="#ffffff" stroke-width="0.3" stroke-linejoin="round" stroke-linecap="round" fill="none"/>
<line x1="21.224" y1="18.938000000000002" x2="21.732" y2="18.938000000000002" stroke="#ffffff" stroke-width="0.3" stroke-linecap="round" fill="none"/>
<line x1="22.240000000000002" y1="16.779" x2="20.716" y2="16.779" stroke="#ffffff" stroke-width="0.3" stroke-linecap="round" fill="none"/>
<polyline points="22.240000000000002,18.43 20.716,18.43 21.478,16.779 22.240000000000002,18.43" stroke="#ffffff" stroke-width="0.3" stroke-linejoin="round" stroke-linecap="round" fill="#ffffff"/>
<polyline points="23.002,10.429000000000002 21.478,10.429000000000002 22.240000000000002,12.080000000000002 23.002,10.429000000000002" stroke="#ffffff" stroke-width="0.3" stroke-linejoin="round" stroke-linecap="round" fill="#ffffff"/>
<line x1="23.002" y1="12.080000000000002" x2="21.478" y2="12.080000000000002" stroke="#ffffff" stroke-width="0.3" stroke-linecap="round" fill="none"/>
<line x1="23.002" y1="18.176000000000002" x2="23.002" y2="17.668" stroke="#ffffff" stroke-width="0.3" stroke-linecap="round" fill="none"/>
<line x1="23.002" y1="18.176000000000002" x2="23.509999999999998" y2="18.176000000000002" stroke="#ffffff" stroke-width="0.3" stroke-linecap="round" fill="none"/>
<line x1="23.002" y1="18.176000000000002" x2="23.891" y2="17.287" stroke="#ffffff" stroke-width="0.3" stroke-linecap="round" fill="none"/>
<line x1="23.0655" y1="13.921500000000002" x2="22.1765" y2="13.0325" stroke="#ffffff" stroke-width="0.3" stroke-linecap="round" fill="none"/>
<line x1="23.0655" y1="13.921500000000002" x2="22.5575" y2="13.921500000000002" stroke="#ffffff" stroke-width="0.3" stroke-linecap="round" fill="none"/>
<line x1="23.0655" y1="13.921500000000002" x2="23.0655" y2="13.4135" stroke="#ffffff" stroke-width="0.3" stroke-linecap="round" fill="none"/>
<line x1="23.129" y1="17.16" x2="23.129" y2="16.652" stroke="#ffffff" stroke-width="0.3" stroke-linecap="round" fill="none"/>
<line x1="23.129" y1="17.16" x2="23.637" y2="17.16" stroke="#ffffff" stroke-width="0.3" stroke-linecap="round" fill="none"/>
<line x1="23.129" y1="17.16" x2="24.018" y2="16.271" stroke="#ffffff" stroke-width="0.3" stroke-linecap="round" fill="none"/>
<line x1="23.891" y1="13.985000000000001" x2="23.002" y2="13.096" stroke="#ffffff" stroke-width="0.3" stroke-linecap="round" fill="none"/>
<line x1="23.891" y1="13.985000000000001" x2="23.383" y2="13.985000000000001" stroke="#ffffff" stroke-width="0.3" stroke-linecap="round" fill="none"/>
<line x1="23.891" y1="13.985000000000001" x2="23.891" y2="13.477" stroke="#ffffff" stroke-width="0.3" stroke-linecap="round" fill="none"/>
<line x1="19.7" y1="4.460000000000001" x2="19.7" y2="7.000000000000001" stroke="#ffd60a" stroke-width="0.44742857142857145" stroke-linecap="round"/>
<text x="19.7" y="4" fill="#ffd60a" font-size="1" font-family="monospace" text-anchor="middle" dominant-baseline="middle">VCSELA</text>
<line x1="4.460000000000001" y1="12.080000000000002" x2="7" y2="12.080000000000002" stroke="#ffd60a" stroke-width="0.44742857142857145" stroke-linecap="round"/>
<text x="4" y="12.080000000000002" fill="#ffd60a" font-size="1" font-family="monospace" text-anchor="start" dominant-baseline="middle">SCL</text>
<line x1="4.460000000000001" y1="9.540000000000001" x2="7" y2="9.540000000000001" stroke="#ffd60a" stroke-width="0.44742857142857145" stroke-linecap="round"/>
<text x="4" y="9.540000000000001" fill="#ffd60a" font-size="1" font-family="monospace" text-anchor="start" dominant-baseline="middle">SDA</text>
<line x1="4.460000000000001" y1="17.16" x2="7" y2="17.16" stroke="#ffd60a" stroke-width="0.44742857142857145" stroke-linecap="round"/>
<text x="4" y="17.16" fill="#ffd60a" font-size="1" font-family="monospace" text-anchor="start" dominant-baseline="middle">INT</text>
<line x1="14.620000000000001" y1="4.460000000000001" x2="14.62" y2="7.000000000000001" stroke="#ffd60a" stroke-width="0.44742857142857145" stroke-linecap="round"/>
<text x="14.620000000000001" y="4" fill="#ffd60a" font-size="1" font-family="monospace" text-anchor="middle" dominant-baseline="middle">VCC</text>
<line x1="17.16" y1="24.78" x2="17.16" y2="22.240000000000002" stroke="#ffd60a" stroke-width="0.44742857142857145" stroke-linecap="round"/>
<text x="17.16" y="25.240000000000002" fill="#ffd60a" font-size="1" font-family="monospace" text-anchor="middle" dominant-baseline="middle">GND</text>
</svg>