<svg xmlns="http://www.w3.org/2000/svg" viewBox="0 0 23.240000000000002 19.43">
<line x1="10.350000000000001" y1="6.540000000000001" x2="10.350000000000001" y2="9.08" stroke="#ffffff" stroke-width="0.3" stroke-linecap="round" fill="none"/>
<line x1="10.350000000000001" y1="7.8100000000000005" x2="7.8100000000000005" y2="7.8100000000000005" stroke="#ffffff" stroke-width="0.3" stroke-linecap="round" fill="none"/>
<polyline points="10.350000000000001,7.8100000000000005 12.89,6.540000000000001 12.89,9.08 10.350000000000001,7.8100000000000005" stroke="#ffffff" stroke-width="0.3" stroke-linejoin="round" stroke-linecap="round" fill="#ffffff"/>
<line x1="10.858" y1="6.032" x2="11.366000000000001" y2="6.032" stroke="#ffffff" stroke-width="0.3" stroke-linecap="round" fill="none"/>
<circle cx="11.620000000000001" cy="7.8100000000000005" r="3.81" stroke="#ffffff" stroke-width="0.3" fill="none"/>
<polyline points="12.382000000000001,4.508000000000001 10.858,6.032 10.858,5.524000000000001" stroke="#ffffff" stroke-width="0.3" stroke-linejoin="round" stroke-linecap="round" fill="none"/>
<polyline points="13.652000000000001,4.508000000000001 12.128,6.032 12.128,5.524000000000001 12.128,6.032 12.636000000000001,6.032" stroke="#ffffff" stroke-width="0.3" stroke-linejoin="round" stroke-linecap="round" fill="none"/>
<line x1="15.430000000000001" y1="7.8100000000000005" x2="12.89" y2="7.8100000000000005" stroke="#ffffff" stroke-width="0.3" stroke-linecap="round" fill="none"/>
<line x1="11.620000000000001" y1="15.43" x2="11.620000000000001" y2="11.620000000000001" stroke="#ffd60a" stroke-width="0.332" stroke-linecap="round"/>
<text x="11.620000000000001" y="8.620000000000001" fill="#ffd60a" font-size="1" font-family="monospace" text-anchor="middle" dominant-baseline="middle">C</text>
<line x1="4.000000000000001" y1="7.8100000000000005" x2="7.8100000000000005" y2="7.8100000000000005" stroke="#ffd60a" stroke-width="0.332" stroke-linecap="round"/>
<text x="10.81" y="7.8100000000000005" fill="#ffd60a" font-size="1" font-family="monospace" text-anchor="start" dominant-baseline="middle">K</text>
<line x1="19.240000000000002" y1="7.8100000000000005" x2="15.430000000000001" y2="7.81" stroke="#ffd60a" stroke-width="0.332" stroke-linecap="round"/>
<text x="12.430000000000001" y="7.81" fill="#ffd60a" font-size="1" font-family="monospace" text-anchor="end" dominant-baseline="middle">A</text>
</svg>