<svg xmlns="http://www.w3.org/2000/svg" viewBox="0 0 26.700000000000003 24.16">
<rect x="7.000000000000001" y="17.16" width="15.24" height="10.16" stroke="#ffffff" stroke-width="0.3" fill="rgba(255,255,255,0.06)"/>
<line x1="17.668" y1="8.905000000000001" x2="17.668" y2="12.08" stroke="#ffffff" stroke-width="0.3" stroke-linecap="round" fill="none"/>
<line x1="17.668" y1="8.905000000000001" x2="18.303" y2="8.905000000000001" stroke="#ffffff" stroke-width="0.3" stroke-linecap="round" fill="none"/>
<line x1="17.668" y1="9.54" x2="18.303" y2="9.54" stroke="#ffffff" stroke-width="0.3" stroke-linecap="round" fill="none"/>
<line x1="17.668" y1="10.175" x2="18.303" y2="10.175" stroke="#ffffff" stroke-width="0.3" stroke-linecap="round" fill="none"/>
<line x1="17.668" y1="10.81" x2="18.303" y2="10.81" stroke="#ffffff" stroke-width="0.3" stroke-linecap="round" fill="none"/>
<line x1="17.668" y1="11.445" x2="18.303" y2="11.445" stroke="#ffffff" stroke-width="0.3" stroke-linecap="round" fill="none"/>
<path d="M 17.668 8.905000000000001 A 0.6350057646686675 0.6350057646686675 0 0 1 18.938000000000002 8.905000000000001" stroke="#ffffff" stroke-width="0.3" fill="none"/>
<circle cx="18.303" cy="14.620000000000001" r="1.27" stroke="#ffffff" stroke-width="0.3" fill="#ffffff"/>
<line x1="18.938000000000002" y1="8.905000000000001" x2="18.938000000000002" y2="12.08" stroke="#ffffff" stroke-width="0.3" stroke-linecap="round" fill="none"/>
<rect x="17.668" y="13.985" width="1.2699999999999996" height="1.905" stroke="#ffffff" stroke-width="0.3" fill="#ffffff"/>
<line x1="4.460000000000001" y1="12.08" x2="7.000000000000001" y2="12.08" stroke="#ffd60a" stroke-width="0.38142857142857145" stroke-linecap="round"/>
<text x="4" y="12.08" fill="#ffd60a" font-size="1" font-family="monospace" text-anchor="start" dominant-baseline="middle">SDA</text>
<line x1="14.620000000000001" y1="19.7" x2="14.620000000000001" y2="17.16" stroke="#ffd60a" stroke-width="0.38142857142857145" stroke-linecap="round"/>
<text x="14.620000000000001" y="20.16" fill="#ffd60a" font-size="1" font-family="monospace" text-anchor="middle" dominant-baseline="middle">GND</text>
<line x1="22.240000000000002" y1="9.54" x2="19.700000000000003" y2="9.54" stroke="#ffd60a" stroke-width="0.38142857142857145" stroke-linecap="round"/>
<text x="22.700000000000003" y="9.54" fill="#ffd60a" font-size="1" font-family="monospace" text-anchor="end" dominant-baseline="middle">NC</text>
<line x1="22.240000000000002" y1="14.620000000000001" x2="19.700000000000003" y2="14.62" stroke="#ffd60a" stroke-width="0.38142857142857145" stroke-linecap="round"/>
<text x="22.700000000000003" y="14.620000000000001" fill="#ffd60a" font-size="1" font-family="monospace" text-anchor="end" dominant-baseline="middle">NC</text>
<line x1="14.620000000000001" y1="4.46" x2="14.620000000000001" y2="7" stroke="#ffd60a" stroke-width="0.38142857142857145" stroke-linecap="round"/>
<text x="14.620000000000001" y="4" fill="#ffd60a" font-size="1" font-family="monospace" text-anchor="middle" dominant-baseline="middle">VDD</text>
<line x1="4.460000000000001" y1="9.54" x2="7.000000000000001" y2="9.54" stroke="#ffd60a" stroke-width="0.38142857142857145" stroke-linecap="round"/>
<text x="4" y="9.54" fill="#ffd60a" font-size="1" font-family="monospace" text-anchor="start" dominant-baseline="middle">SCL</text>
</svg>