<svg xmlns="http://www.w3.org/2000/svg" viewBox="0 0 29.240000000000002 24.16">
<rect x="7.000000000000001" y="17.16" width="15.24" height="10.16" stroke="#ffffff" stroke-width="0.3" fill="rgba(255,255,255,0.06)"/>
<polyline points="15.89,12.842 16.525000000000002,12.842 16.525000000000002,11.445 17.795,11.445 17.795,12.842 19.065,12.842 19.065,11.445 20.335,11.445 20.335,12.842 20.843,12.842" stroke="#ffffff" stroke-width="0.3" stroke-linejoin="round" stroke-linecap="round" fill="none"/>
<line x1="4.460000000000001" y1="12.08" x2="7.000000000000001" y2="12.08" stroke="#ffd60a" stroke-width="0.41771428571428576" stroke-linecap="round"/>
<text x="4" y="12.08" fill="#ffd60a" font-size="1" font-family="monospace" text-anchor="start" dominant-baseline="middle">OE</text>
<line x1="7.000000000000001" y1="9.54" x2="9.540000000000001" y2="9.54" stroke="#ffd60a" stroke-width="0.41771428571428576" stroke-linecap="round"/>
<text x="12.540000000000001" y="9.54" fill="#ffd60a" font-size="1" font-family="monospace" text-anchor="start" dominant-baseline="middle">NC</text>
<line x1="14.620000000000001" y1="19.7" x2="14.620000000000001" y2="17.16" stroke="#ffd60a" stroke-width="0.41771428571428576" stroke-linecap="round"/>
<text x="14.620000000000001" y="20.16" fill="#ffd60a" font-size="1" font-family="monospace" text-anchor="middle" dominant-baseline="middle">GND</text>
<line x1="24.78" y1="9.54" x2="22.240000000000002" y2="9.54" stroke="#ffd60a" stroke-width="0.41771428571428576" stroke-linecap="round"/>
<text x="25.240000000000002" y="9.54" fill="#ffd60a" font-size="1" font-family="monospace" text-anchor="end" dominant-baseline="middle">OUT+</text>
<line x1="24.78" y1="14.620000000000001" x2="22.240000000000002" y2="14.62" stroke="#ffd60a" stroke-width="0.41771428571428576" stroke-linecap="round"/>
<text x="25.240000000000002" y="14.620000000000001" fill="#ffd60a" font-size="1" font-family="monospace" text-anchor="end" dominant-baseline="middle">OUT-</text>
<line x1="14.620000000000001" y1="4.46" x2="14.620000000000001" y2="7" stroke="#ffd60a" stroke-width="0.41771428571428576" stroke-linecap="round"/>
<text x="14.620000000000001" y="4" fill="#ffd60a" font-size="1" font-family="monospace" text-anchor="middle" dominant-baseline="middle">VDD</text>
</svg>