<svg xmlns="http://www.w3.org/2000/svg" viewBox="0 0 180 2100">
<rect x="50" y="50" width="80" height="2000" stroke="#ffffff" stroke-width="1.5" fill="rgba(255,255,255,0.04)"/>
<text x="90" y="1050" fill="#888" font-size="3" font-family="monospace" text-anchor="middle" dominant-baseline="middle">J</text>
<line x1="30" y1="60" x2="50" y2="60" stroke="#ffd60a" stroke-width="1.5" stroke-linecap="round"/>
<text x="55" y="60" fill="#ffd60a" font-size="2" font-family="monospace" text-anchor="start" dominant-baseline="middle">2</text>
<line x1="30" y1="80" x2="50" y2="80" stroke="#ffd60a" stroke-width="1.5" stroke-linecap="round"/>
<text x="55" y="80" fill="#ffd60a" font-size="2" font-family="monospace" text-anchor="start" dominant-baseline="middle">4</text>
<line x1="30" y1="100" x2="50" y2="100" stroke="#ffd60a" stroke-width="1.5" stroke-linecap="round"/>
<text x="55" y="100" fill="#ffd60a" font-size="2" font-family="monospace" text-anchor="start" dominant-baseline="middle">6</text>
<line x1="30" y1="120" x2="50" y2="120" stroke="#ffd60a" stroke-width="1.5" stroke-linecap="round"/>
<text x="55" y="120" fill="#ffd60a" font-size="2" font-family="monospace" text-anchor="start" dominant-baseline="middle">8</text>
<line x1="30" y1="140" x2="50" y2="140" stroke="#ffd60a" stroke-width="1.5" stroke-linecap="round"/>
<text x="55" y="140" fill="#ffd60a" font-size="2" font-family="monospace" text-anchor="start" dominant-baseline="middle">10</text>
<line x1="30" y1="160" x2="50" y2="160" stroke="#ffd60a" stroke-width="1.5" stroke-linecap="round"/>
<text x="55" y="160" fill="#ffd60a" font-size="2" font-family="monospace" text-anchor="start" dominant-baseline="middle">12</text>
<line x1="30" y1="180" x2="50" y2="180" stroke="#ffd60a" stroke-width="1.5" stroke-linecap="round"/>
<text x="55" y="180" fill="#ffd60a" font-size="2" font-family="monospace" text-anchor="start" dominant-baseline="middle">14</text>
<line x1="30" y1="200" x2="50" y2="200" stroke="#ffd60a" stroke-width="1.5" stroke-linecap="round"/>
<text x="55" y="200" fill="#ffd60a" font-size="2" font-family="monospace" text-anchor="start" dominant-baseline="middle">16</text>
<line x1="30" y1="220" x2="50" y2="220" stroke="#ffd60a" stroke-width="1.5" stroke-linecap="round"/>
<text x="55" y="220" fill="#ffd60a" font-size="2" font-family="monospace" text-anchor="start" dominant-baseline="middle">18</text>
<line x1="30" y1="240" x2="50" y2="240" stroke="#ffd60a" stroke-width="1.5" stroke-linecap="round"/>
<text x="55" y="240" fill="#ffd60a" font-size="2" font-family="monospace" text-anchor="start" dominant-baseline="middle">20</text>
<line x1="30" y1="260" x2="50" y2="260" stroke="#ffd60a" stroke-width="1.5" stroke-linecap="round"/>
<text x="55" y="260" fill="#ffd60a" font-size="2" font-family="monospace" text-anchor="start" dominant-baseline="middle">22</text>
<line x1="30" y1="280" x2="50" y2="280" stroke="#ffd60a" stroke-width="1.5" stroke-linecap="round"/>
<text x="55" y="280" fill="#ffd60a" font-size="2" font-family="monospace" text-anchor="start" dominant-baseline="middle">24</text>
<line x1="30" y1="300" x2="50" y2="300" stroke="#ffd60a" stroke-width="1.5" stroke-linecap="round"/>
<text x="55" y="300" fill="#ffd60a" font-size="2" font-family="monospace" text-anchor="start" dominant-baseline="middle">26</text>
<line x1="30" y1="320" x2="50" y2="320" stroke="#ffd60a" stroke-width="1.5" stroke-linecap="round"/>
<text x="55" y="320" fill="#ffd60a" font-size="2" font-family="monospace" text-anchor="start" dominant-baseline="middle">28</text>
<line x1="30" y1="340" x2="50" y2="340" stroke="#ffd60a" stroke-width="1.5" stroke-linecap="round"/>
<text x="55" y="340" fill="#ffd60a" font-size="2" font-family="monospace" text-anchor="start" dominant-baseline="middle">30</text>
<line x1="30" y1="360" x2="50" y2="360" stroke="#ffd60a" stroke-width="1.5" stroke-linecap="round"/>
<text x="55" y="360" fill="#ffd60a" font-size="2" font-family="monospace" text-anchor="start" dominant-baseline="middle">32</text>
<line x1="30" y1="380" x2="50" y2="380" stroke="#ffd60a" stroke-width="1.5" stroke-linecap="round"/>
<text x="55" y="380" fill="#ffd60a" font-size="2" font-family="monospace" text-anchor="start" dominant-baseline="middle">34</text>
<line x1="30" y1="400" x2="50" y2="400" stroke="#ffd60a" stroke-width="1.5" stroke-linecap="round"/>
<text x="55" y="400" fill="#ffd60a" font-size="2" font-family="monospace" text-anchor="start" dominant-baseline="middle">36</text>
<line x1="30" y1="420" x2="50" y2="420" stroke="#ffd60a" stroke-width="1.5" stroke-linecap="round"/>
<text x="55" y="420" fill="#ffd60a" font-size="2" font-family="monospace" text-anchor="start" dominant-baseline="middle">38</text>
<line x1="30" y1="440" x2="50" y2="440" stroke="#ffd60a" stroke-width="1.5" stroke-linecap="round"/>
<text x="55" y="440" fill="#ffd60a" font-size="2" font-family="monospace" text-anchor="start" dominant-baseline="middle">40</text>
<line x1="30" y1="460" x2="50" y2="460" stroke="#ffd60a" stroke-width="1.5" stroke-linecap="round"/>
<text x="55" y="460" fill="#ffd60a" font-size="2" font-family="monospace" text-anchor="start" dominant-baseline="middle">42</text>
<line x1="30" y1="480" x2="50" y2="480" stroke="#ffd60a" stroke-width="1.5" stroke-linecap="round"/>
<text x="55" y="480" fill="#ffd60a" font-size="2" font-family="monospace" text-anchor="start" dominant-baseline="middle">44</text>
<line x1="30" y1="500" x2="50" y2="500" stroke="#ffd60a" stroke-width="1.5" stroke-linecap="round"/>
<text x="55" y="500" fill="#ffd60a" font-size="2" font-family="monospace" text-anchor="start" dominant-baseline="middle">46</text>
<line x1="30" y1="520" x2="50" y2="520" stroke="#ffd60a" stroke-width="1.5" stroke-linecap="round"/>
<text x="55" y="520" fill="#ffd60a" font-size="2" font-family="monospace" text-anchor="start" dominant-baseline="middle">48</text>
<line x1="30" y1="540" x2="50" y2="540" stroke="#ffd60a" stroke-width="1.5" stroke-linecap="round"/>
<text x="55" y="540" fill="#ffd60a" font-size="2" font-family="monospace" text-anchor="start" dominant-baseline="middle">50</text>
<line x1="30" y1="560" x2="50" y2="560" stroke="#ffd60a" stroke-width="1.5" stroke-linecap="round"/>
<text x="55" y="560" fill="#ffd60a" font-size="2" font-family="monospace" text-anchor="start" dominant-baseline="middle">52</text>
<line x1="30" y1="580" x2="50" y2="580" stroke="#ffd60a" stroke-width="1.5" stroke-linecap="round"/>
<text x="55" y="580" fill="#ffd60a" font-size="2" font-family="monospace" text-anchor="start" dominant-baseline="middle">54</text>
<line x1="30" y1="600" x2="50" y2="600" stroke="#ffd60a" stroke-width="1.5" stroke-linecap="round"/>
<text x="55" y="600" fill="#ffd60a" font-size="2" font-family="monospace" text-anchor="start" dominant-baseline="middle">56</text>
<line x1="30" y1="620" x2="50" y2="620" stroke="#ffd60a" stroke-width="1.5" stroke-linecap="round"/>
<text x="55" y="620" fill="#ffd60a" font-size="2" font-family="monospace" text-anchor="start" dominant-baseline="middle">58</text>
<line x1="30" y1="640" x2="50" y2="640" stroke="#ffd60a" stroke-width="1.5" stroke-linecap="round"/>
<text x="55" y="640" fill="#ffd60a" font-size="2" font-family="monospace" text-anchor="start" dominant-baseline="middle">60</text>
<line x1="30" y1="660" x2="50" y2="660" stroke="#ffd60a" stroke-width="1.5" stroke-linecap="round"/>
<text x="55" y="660" fill="#ffd60a" font-size="2" font-family="monospace" text-anchor="start" dominant-baseline="middle">62</text>
<line x1="30" y1="680" x2="50" y2="680" stroke="#ffd60a" stroke-width="1.5" stroke-linecap="round"/>
<text x="55" y="680" fill="#ffd60a" font-size="2" font-family="monospace" text-anchor="start" dominant-baseline="middle">64</text>
<line x1="30" y1="700" x2="50" y2="700" stroke="#ffd60a" stroke-width="1.5" stroke-linecap="round"/>
<text x="55" y="700" fill="#ffd60a" font-size="2" font-family="monospace" text-anchor="start" dominant-baseline="middle">66</text>
<line x1="30" y1="720" x2="50" y2="720" stroke="#ffd60a" stroke-width="1.5" stroke-linecap="round"/>
<text x="55" y="720" fill="#ffd60a" font-size="2" font-family="monospace" text-anchor="start" dominant-baseline="middle">68</text>
<line x1="30" y1="740" x2="50" y2="740" stroke="#ffd60a" stroke-width="1.5" stroke-linecap="round"/>
<text x="55" y="740" fill="#ffd60a" font-size="2" font-family="monospace" text-anchor="start" dominant-baseline="middle">70</text>
<line x1="30" y1="760" x2="50" y2="760" stroke="#ffd60a" stroke-width="1.5" stroke-linecap="round"/>
<text x="55" y="760" fill="#ffd60a" font-size="2" font-family="monospace" text-anchor="start" dominant-baseline="middle">72</text>
<line x1="30" y1="780" x2="50" y2="780" stroke="#ffd60a" stroke-width="1.5" stroke-linecap="round"/>
<text x="55" y="780" fill="#ffd60a" font-size="2" font-family="monospace" text-anchor="start" dominant-baseline="middle">74</text>
<line x1="30" y1="800" x2="50" y2="800" stroke="#ffd60a" stroke-width="1.5" stroke-linecap="round"/>
<text x="55" y="800" fill="#ffd60a" font-size="2" font-family="monospace" text-anchor="start" dominant-baseline="middle">76</text>
<line x1="30" y1="820" x2="50" y2="820" stroke="#ffd60a" stroke-width="1.5" stroke-linecap="round"/>
<text x="55" y="820" fill="#ffd60a" font-size="2" font-family="monospace" text-anchor="start" dominant-baseline="middle">78</text>
<line x1="30" y1="840" x2="50" y2="840" stroke="#ffd60a" stroke-width="1.5" stroke-linecap="round"/>
<text x="55" y="840" fill="#ffd60a" font-size="2" font-family="monospace" text-anchor="start" dominant-baseline="middle">80</text>
<line x1="30" y1="860" x2="50" y2="860" stroke="#ffd60a" stroke-width="1.5" stroke-linecap="round"/>
<text x="55" y="860" fill="#ffd60a" font-size="2" font-family="monospace" text-anchor="start" dominant-baseline="middle">82</text>
<line x1="30" y1="880" x2="50" y2="880" stroke="#ffd60a" stroke-width="1.5" stroke-linecap="round"/>
<text x="55" y="880" fill="#ffd60a" font-size="2" font-family="monospace" text-anchor="start" dominant-baseline="middle">84</text>
<line x1="30" y1="900" x2="50" y2="900" stroke="#ffd60a" stroke-width="1.5" stroke-linecap="round"/>
<text x="55" y="900" fill="#ffd60a" font-size="2" font-family="monospace" text-anchor="start" dominant-baseline="middle">86</text>
<line x1="30" y1="920" x2="50" y2="920" stroke="#ffd60a" stroke-width="1.5" stroke-linecap="round"/>
<text x="55" y="920" fill="#ffd60a" font-size="2" font-family="monospace" text-anchor="start" dominant-baseline="middle">88</text>
<line x1="30" y1="940" x2="50" y2="940" stroke="#ffd60a" stroke-width="1.5" stroke-linecap="round"/>
<text x="55" y="940" fill="#ffd60a" font-size="2" font-family="monospace" text-anchor="start" dominant-baseline="middle">90</text>
<line x1="30" y1="960" x2="50" y2="960" stroke="#ffd60a" stroke-width="1.5" stroke-linecap="round"/>
<text x="55" y="960" fill="#ffd60a" font-size="2" font-family="monospace" text-anchor="start" dominant-baseline="middle">92</text>
<line x1="30" y1="980" x2="50" y2="980" stroke="#ffd60a" stroke-width="1.5" stroke-linecap="round"/>
<text x="55" y="980" fill="#ffd60a" font-size="2" font-family="monospace" text-anchor="start" dominant-baseline="middle">94</text>
<line x1="30" y1="1000" x2="50" y2="1000" stroke="#ffd60a" stroke-width="1.5" stroke-linecap="round"/>
<text x="55" y="1000" fill="#ffd60a" font-size="2" font-family="monospace" text-anchor="start" dominant-baseline="middle">96</text>
<line x1="30" y1="1020" x2="50" y2="1020" stroke="#ffd60a" stroke-width="1.5" stroke-linecap="round"/>
<text x="55" y="1020" fill="#ffd60a" font-size="2" font-family="monospace" text-anchor="start" dominant-baseline="middle">98</text>
<line x1="30" y1="1040" x2="50" y2="1040" stroke="#ffd60a" stroke-width="1.5" stroke-linecap="round"/>
<text x="55" y="1040" fill="#ffd60a" font-size="2" font-family="monospace" text-anchor="start" dominant-baseline="middle">100</text>
<line x1="30" y1="1060" x2="50" y2="1060" stroke="#ffd60a" stroke-width="1.5" stroke-linecap="round"/>
<text x="55" y="1060" fill="#ffd60a" font-size="2" font-family="monospace" text-anchor="start" dominant-baseline="middle">102</text>
<line x1="30" y1="1080" x2="50" y2="1080" stroke="#ffd60a" stroke-width="1.5" stroke-linecap="round"/>
<text x="55" y="1080" fill="#ffd60a" font-size="2" font-family="monospace" text-anchor="start" dominant-baseline="middle">104</text>
<line x1="30" y1="1100" x2="50" y2="1100" stroke="#ffd60a" stroke-width="1.5" stroke-linecap="round"/>
<text x="55" y="1100" fill="#ffd60a" font-size="2" font-family="monospace" text-anchor="start" dominant-baseline="middle">106</text>
<line x1="30" y1="1120" x2="50" y2="1120" stroke="#ffd60a" stroke-width="1.5" stroke-linecap="round"/>
<text x="55" y="1120" fill="#ffd60a" font-size="2" font-family="monospace" text-anchor="start" dominant-baseline="middle">108</text>
<line x1="30" y1="1140" x2="50" y2="1140" stroke="#ffd60a" stroke-width="1.5" stroke-linecap="round"/>
<text x="55" y="1140" fill="#ffd60a" font-size="2" font-family="monospace" text-anchor="start" dominant-baseline="middle">110</text>
<line x1="30" y1="1160" x2="50" y2="1160" stroke="#ffd60a" stroke-width="1.5" stroke-linecap="round"/>
<text x="55" y="1160" fill="#ffd60a" font-size="2" font-family="monospace" text-anchor="start" dominant-baseline="middle">112</text>
<line x1="30" y1="1180" x2="50" y2="1180" stroke="#ffd60a" stroke-width="1.5" stroke-linecap="round"/>
<text x="55" y="1180" fill="#ffd60a" font-size="2" font-family="monospace" text-anchor="start" dominant-baseline="middle">114</text>
<line x1="30" y1="1200" x2="50" y2="1200" stroke="#ffd60a" stroke-width="1.5" stroke-linecap="round"/>
<text x="55" y="1200" fill="#ffd60a" font-size="2" font-family="monospace" text-anchor="start" dominant-baseline="middle">116</text>
<line x1="30" y1="1220" x2="50" y2="1220" stroke="#ffd60a" stroke-width="1.5" stroke-linecap="round"/>
<text x="55" y="1220" fill="#ffd60a" font-size="2" font-family="monospace" text-anchor="start" dominant-baseline="middle">118</text>
<line x1="30" y1="1240" x2="50" y2="1240" stroke="#ffd60a" stroke-width="1.5" stroke-linecap="round"/>
<text x="55" y="1240" fill="#ffd60a" font-size="2" font-family="monospace" text-anchor="start" dominant-baseline="middle">120</text>
<line x1="30" y1="1260" x2="50" y2="1260" stroke="#ffd60a" stroke-width="1.5" stroke-linecap="round"/>
<text x="55" y="1260" fill="#ffd60a" font-size="2" font-family="monospace" text-anchor="start" dominant-baseline="middle">122</text>
<line x1="30" y1="1280" x2="50" y2="1280" stroke="#ffd60a" stroke-width="1.5" stroke-linecap="round"/>
<text x="55" y="1280" fill="#ffd60a" font-size="2" font-family="monospace" text-anchor="start" dominant-baseline="middle">124</text>
<line x1="30" y1="1300" x2="50" y2="1300" stroke="#ffd60a" stroke-width="1.5" stroke-linecap="round"/>
<text x="55" y="1300" fill="#ffd60a" font-size="2" font-family="monospace" text-anchor="start" dominant-baseline="middle">126</text>
<line x1="30" y1="1320" x2="50" y2="1320" stroke="#ffd60a" stroke-width="1.5" stroke-linecap="round"/>
<text x="55" y="1320" fill="#ffd60a" font-size="2" font-family="monospace" text-anchor="start" dominant-baseline="middle">128</text>
<line x1="30" y1="1340" x2="50" y2="1340" stroke="#ffd60a" stroke-width="1.5" stroke-linecap="round"/>
<text x="55" y="1340" fill="#ffd60a" font-size="2" font-family="monospace" text-anchor="start" dominant-baseline="middle">130</text>
<line x1="30" y1="1360" x2="50" y2="1360" stroke="#ffd60a" stroke-width="1.5" stroke-linecap="round"/>
<text x="55" y="1360" fill="#ffd60a" font-size="2" font-family="monospace" text-anchor="start" dominant-baseline="middle">132</text>
<line x1="30" y1="1380" x2="50" y2="1380" stroke="#ffd60a" stroke-width="1.5" stroke-linecap="round"/>
<text x="55" y="1380" fill="#ffd60a" font-size="2" font-family="monospace" text-anchor="start" dominant-baseline="middle">134</text>
<line x1="30" y1="1400" x2="50" y2="1400" stroke="#ffd60a" stroke-width="1.5" stroke-linecap="round"/>
<text x="55" y="1400" fill="#ffd60a" font-size="2" font-family="monospace" text-anchor="start" dominant-baseline="middle">136</text>
<line x1="30" y1="1420" x2="50" y2="1420" stroke="#ffd60a" stroke-width="1.5" stroke-linecap="round"/>
<text x="55" y="1420" fill="#ffd60a" font-size="2" font-family="monospace" text-anchor="start" dominant-baseline="middle">138</text>
<line x1="30" y1="1440" x2="50" y2="1440" stroke="#ffd60a" stroke-width="1.5" stroke-linecap="round"/>
<text x="55" y="1440" fill="#ffd60a" font-size="2" font-family="monospace" text-anchor="start" dominant-baseline="middle">140</text>
<line x1="30" y1="1460" x2="50" y2="1460" stroke="#ffd60a" stroke-width="1.5" stroke-linecap="round"/>
<text x="55" y="1460" fill="#ffd60a" font-size="2" font-family="monospace" text-anchor="start" dominant-baseline="middle">142</text>
<line x1="30" y1="1480" x2="50" y2="1480" stroke="#ffd60a" stroke-width="1.5" stroke-linecap="round"/>
<text x="55" y="1480" fill="#ffd60a" font-size="2" font-family="monospace" text-anchor="start" dominant-baseline="middle">144</text>
<line x1="30" y1="1500" x2="50" y2="1500" stroke="#ffd60a" stroke-width="1.5" stroke-linecap="round"/>
<text x="55" y="1500" fill="#ffd60a" font-size="2" font-family="monospace" text-anchor="start" dominant-baseline="middle">146</text>
<line x1="30" y1="1520" x2="50" y2="1520" stroke="#ffd60a" stroke-width="1.5" stroke-linecap="round"/>
<text x="55" y="1520" fill="#ffd60a" font-size="2" font-family="monospace" text-anchor="start" dominant-baseline="middle">148</text>
<line x1="30" y1="1540" x2="50" y2="1540" stroke="#ffd60a" stroke-width="1.5" stroke-linecap="round"/>
<text x="55" y="1540" fill="#ffd60a" font-size="2" font-family="monospace" text-anchor="start" dominant-baseline="middle">150</text>
<line x1="30" y1="1560" x2="50" y2="1560" stroke="#ffd60a" stroke-width="1.5" stroke-linecap="round"/>
<text x="55" y="1560" fill="#ffd60a" font-size="2" font-family="monospace" text-anchor="start" dominant-baseline="middle">152</text>
<line x1="30" y1="1580" x2="50" y2="1580" stroke="#ffd60a" stroke-width="1.5" stroke-linecap="round"/>
<text x="55" y="1580" fill="#ffd60a" font-size="2" font-family="monospace" text-anchor="start" dominant-baseline="middle">154</text>
<line x1="30" y1="1600" x2="50" y2="1600" stroke="#ffd60a" stroke-width="1.5" stroke-linecap="round"/>
<text x="55" y="1600" fill="#ffd60a" font-size="2" font-family="monospace" text-anchor="start" dominant-baseline="middle">156</text>
<line x1="30" y1="1620" x2="50" y2="1620" stroke="#ffd60a" stroke-width="1.5" stroke-linecap="round"/>
<text x="55" y="1620" fill="#ffd60a" font-size="2" font-family="monospace" text-anchor="start" dominant-baseline="middle">158</text>
<line x1="30" y1="1640" x2="50" y2="1640" stroke="#ffd60a" stroke-width="1.5" stroke-linecap="round"/>
<text x="55" y="1640" fill="#ffd60a" font-size="2" font-family="monospace" text-anchor="start" dominant-baseline="middle">160</text>
<line x1="30" y1="1660" x2="50" y2="1660" stroke="#ffd60a" stroke-width="1.5" stroke-linecap="round"/>
<text x="55" y="1660" fill="#ffd60a" font-size="2" font-family="monospace" text-anchor="start" dominant-baseline="middle">162</text>
<line x1="30" y1="1680" x2="50" y2="1680" stroke="#ffd60a" stroke-width="1.5" stroke-linecap="round"/>
<text x="55" y="1680" fill="#ffd60a" font-size="2" font-family="monospace" text-anchor="start" dominant-baseline="middle">164</text>
<line x1="30" y1="1700" x2="50" y2="1700" stroke="#ffd60a" stroke-width="1.5" stroke-linecap="round"/>
<text x="55" y="1700" fill="#ffd60a" font-size="2" font-family="monospace" text-anchor="start" dominant-baseline="middle">166</text>
<line x1="30" y1="1720" x2="50" y2="1720" stroke="#ffd60a" stroke-width="1.5" stroke-linecap="round"/>
<text x="55" y="1720" fill="#ffd60a" font-size="2" font-family="monospace" text-anchor="start" dominant-baseline="middle">168</text>
<line x1="30" y1="1740" x2="50" y2="1740" stroke="#ffd60a" stroke-width="1.5" stroke-linecap="round"/>
<text x="55" y="1740" fill="#ffd60a" font-size="2" font-family="monospace" text-anchor="start" dominant-baseline="middle">170</text>
<line x1="30" y1="1760" x2="50" y2="1760" stroke="#ffd60a" stroke-width="1.5" stroke-linecap="round"/>
<text x="55" y="1760" fill="#ffd60a" font-size="2" font-family="monospace" text-anchor="start" dominant-baseline="middle">172</text>
<line x1="30" y1="1780" x2="50" y2="1780" stroke="#ffd60a" stroke-width="1.5" stroke-linecap="round"/>
<text x="55" y="1780" fill="#ffd60a" font-size="2" font-family="monospace" text-anchor="start" dominant-baseline="middle">174</text>
<line x1="30" y1="1800" x2="50" y2="1800" stroke="#ffd60a" stroke-width="1.5" stroke-linecap="round"/>
<text x="55" y="1800" fill="#ffd60a" font-size="2" font-family="monospace" text-anchor="start" dominant-baseline="middle">176</text>
<line x1="30" y1="1820" x2="50" y2="1820" stroke="#ffd60a" stroke-width="1.5" stroke-linecap="round"/>
<text x="55" y="1820" fill="#ffd60a" font-size="2" font-family="monospace" text-anchor="start" dominant-baseline="middle">178</text>
<line x1="30" y1="1840" x2="50" y2="1840" stroke="#ffd60a" stroke-width="1.5" stroke-linecap="round"/>
<text x="55" y="1840" fill="#ffd60a" font-size="2" font-family="monospace" text-anchor="start" dominant-baseline="middle">180</text>
<line x1="30" y1="1860" x2="50" y2="1860" stroke="#ffd60a" stroke-width="1.5" stroke-linecap="round"/>
<text x="55" y="1860" fill="#ffd60a" font-size="2" font-family="monospace" text-anchor="start" dominant-baseline="middle">182</text>
<line x1="30" y1="1880" x2="50" y2="1880" stroke="#ffd60a" stroke-width="1.5" stroke-linecap="round"/>
<text x="55" y="1880" fill="#ffd60a" font-size="2" font-family="monospace" text-anchor="start" dominant-baseline="middle">184</text>
<line x1="30" y1="1900" x2="50" y2="1900" stroke="#ffd60a" stroke-width="1.5" stroke-linecap="round"/>
<text x="55" y="1900" fill="#ffd60a" font-size="2" font-family="monospace" text-anchor="start" dominant-baseline="middle">186</text>
<line x1="30" y1="1920" x2="50" y2="1920" stroke="#ffd60a" stroke-width="1.5" stroke-linecap="round"/>
<text x="55" y="1920" fill="#ffd60a" font-size="2" font-family="monospace" text-anchor="start" dominant-baseline="middle">188</text>
<line x1="30" y1="1940" x2="50" y2="1940" stroke="#ffd60a" stroke-width="1.5" stroke-linecap="round"/>
<text x="55" y="1940" fill="#ffd60a" font-size="2" font-family="monospace" text-anchor="start" dominant-baseline="middle">190</text>
<line x1="30" y1="1960" x2="50" y2="1960" stroke="#ffd60a" stroke-width="1.5" stroke-linecap="round"/>
<text x="55" y="1960" fill="#ffd60a" font-size="2" font-family="monospace" text-anchor="start" dominant-baseline="middle">192</text>
<line x1="30" y1="1980" x2="50" y2="1980" stroke="#ffd60a" stroke-width="1.5" stroke-linecap="round"/>
<text x="55" y="1980" fill="#ffd60a" font-size="2" font-family="monospace" text-anchor="start" dominant-baseline="middle">194</text>
<line x1="30" y1="2000" x2="50" y2="2000" stroke="#ffd60a" stroke-width="1.5" stroke-linecap="round"/>
<text x="55" y="2000" fill="#ffd60a" font-size="2" font-family="monospace" text-anchor="start" dominant-baseline="middle">196</text>
<line x1="30" y1="2020" x2="50" y2="2020" stroke="#ffd60a" stroke-width="1.5" stroke-linecap="round"/>
<text x="55" y="2020" fill="#ffd60a" font-size="2" font-family="monospace" text-anchor="start" dominant-baseline="middle">198</text>
<line x1="30" y1="2040" x2="50" y2="2040" stroke="#ffd60a" stroke-width="1.5" stroke-linecap="round"/>
<text x="55" y="2040" fill="#ffd60a" font-size="2" font-family="monospace" text-anchor="start" dominant-baseline="middle">200</text>
<line x1="150" y1="60" x2="130" y2="60" stroke="#ffd60a" stroke-width="1.5" stroke-linecap="round"/>
<text x="125" y="60" fill="#ffd60a" font-size="2" font-family="monospace" text-anchor="end" dominant-baseline="middle">1</text>
<line x1="150" y1="80" x2="130" y2="80" stroke="#ffd60a" stroke-width="1.5" stroke-linecap="round"/>
<text x="125" y="80" fill="#ffd60a" font-size="2" font-family="monospace" text-anchor="end" dominant-baseline="middle">3</text>
<line x1="150" y1="100" x2="130" y2="100" stroke="#ffd60a" stroke-width="1.5" stroke-linecap="round"/>
<text x="125" y="100" fill="#ffd60a" font-size="2" font-family="monospace" text-anchor="end" dominant-baseline="middle">5</text>
<line x1="150" y1="120" x2="130" y2="120" stroke="#ffd60a" stroke-width="1.5" stroke-linecap="round"/>
<text x="125" y="120" fill="#ffd60a" font-size="2" font-family="monospace" text-anchor="end" dominant-baseline="middle">7</text>
<line x1="150" y1="140" x2="130" y2="140" stroke="#ffd60a" stroke-width="1.5" stroke-linecap="round"/>
<text x="125" y="140" fill="#ffd60a" font-size="2" font-family="monospace" text-anchor="end" dominant-baseline="middle">9</text>
<line x1="150" y1="160" x2="130" y2="160" stroke="#ffd60a" stroke-width="1.5" stroke-linecap="round"/>
<text x="125" y="160" fill="#ffd60a" font-size="2" font-family="monospace" text-anchor="end" dominant-baseline="middle">11</text>
<line x1="150" y1="180" x2="130" y2="180" stroke="#ffd60a" stroke-width="1.5" stroke-linecap="round"/>
<text x="125" y="180" fill="#ffd60a" font-size="2" font-family="monospace" text-anchor="end" dominant-baseline="middle">13</text>
<line x1="150" y1="200" x2="130" y2="200" stroke="#ffd60a" stroke-width="1.5" stroke-linecap="round"/>
<text x="125" y="200" fill="#ffd60a" font-size="2" font-family="monospace" text-anchor="end" dominant-baseline="middle">15</text>
<line x1="150" y1="220" x2="130" y2="220" stroke="#ffd60a" stroke-width="1.5" stroke-linecap="round"/>
<text x="125" y="220" fill="#ffd60a" font-size="2" font-family="monospace" text-anchor="end" dominant-baseline="middle">17</text>
<line x1="150" y1="240" x2="130" y2="240" stroke="#ffd60a" stroke-width="1.5" stroke-linecap="round"/>
<text x="125" y="240" fill="#ffd60a" font-size="2" font-family="monospace" text-anchor="end" dominant-baseline="middle">19</text>
<line x1="150" y1="260" x2="130" y2="260" stroke="#ffd60a" stroke-width="1.5" stroke-linecap="round"/>
<text x="125" y="260" fill="#ffd60a" font-size="2" font-family="monospace" text-anchor="end" dominant-baseline="middle">21</text>
<line x1="150" y1="280" x2="130" y2="280" stroke="#ffd60a" stroke-width="1.5" stroke-linecap="round"/>
<text x="125" y="280" fill="#ffd60a" font-size="2" font-family="monospace" text-anchor="end" dominant-baseline="middle">23</text>
<line x1="150" y1="300" x2="130" y2="300" stroke="#ffd60a" stroke-width="1.5" stroke-linecap="round"/>
<text x="125" y="300" fill="#ffd60a" font-size="2" font-family="monospace" text-anchor="end" dominant-baseline="middle">25</text>
<line x1="150" y1="320" x2="130" y2="320" stroke="#ffd60a" stroke-width="1.5" stroke-linecap="round"/>
<text x="125" y="320" fill="#ffd60a" font-size="2" font-family="monospace" text-anchor="end" dominant-baseline="middle">27</text>
<line x1="150" y1="340" x2="130" y2="340" stroke="#ffd60a" stroke-width="1.5" stroke-linecap="round"/>
<text x="125" y="340" fill="#ffd60a" font-size="2" font-family="monospace" text-anchor="end" dominant-baseline="middle">29</text>
<line x1="150" y1="360" x2="130" y2="360" stroke="#ffd60a" stroke-width="1.5" stroke-linecap="round"/>
<text x="125" y="360" fill="#ffd60a" font-size="2" font-family="monospace" text-anchor="end" dominant-baseline="middle">31</text>
<line x1="150" y1="380" x2="130" y2="380" stroke="#ffd60a" stroke-width="1.5" stroke-linecap="round"/>
<text x="125" y="380" fill="#ffd60a" font-size="2" font-family="monospace" text-anchor="end" dominant-baseline="middle">33</text>
<line x1="150" y1="400" x2="130" y2="400" stroke="#ffd60a" stroke-width="1.5" stroke-linecap="round"/>
<text x="125" y="400" fill="#ffd60a" font-size="2" font-family="monospace" text-anchor="end" dominant-baseline="middle">35</text>
<line x1="150" y1="420" x2="130" y2="420" stroke="#ffd60a" stroke-width="1.5" stroke-linecap="round"/>
<text x="125" y="420" fill="#ffd60a" font-size="2" font-family="monospace" text-anchor="end" dominant-baseline="middle">37</text>
<line x1="150" y1="440" x2="130" y2="440" stroke="#ffd60a" stroke-width="1.5" stroke-linecap="round"/>
<text x="125" y="440" fill="#ffd60a" font-size="2" font-family="monospace" text-anchor="end" dominant-baseline="middle">39</text>
<line x1="150" y1="460" x2="130" y2="460" stroke="#ffd60a" stroke-width="1.5" stroke-linecap="round"/>
<text x="125" y="460" fill="#ffd60a" font-size="2" font-family="monospace" text-anchor="end" dominant-baseline="middle">41</text>
<line x1="150" y1="480" x2="130" y2="480" stroke="#ffd60a" stroke-width="1.5" stroke-linecap="round"/>
<text x="125" y="480" fill="#ffd60a" font-size="2" font-family="monospace" text-anchor="end" dominant-baseline="middle">43</text>
<line x1="150" y1="500" x2="130" y2="500" stroke="#ffd60a" stroke-width="1.5" stroke-linecap="round"/>
<text x="125" y="500" fill="#ffd60a" font-size="2" font-family="monospace" text-anchor="end" dominant-baseline="middle">45</text>
<line x1="150" y1="520" x2="130" y2="520" stroke="#ffd60a" stroke-width="1.5" stroke-linecap="round"/>
<text x="125" y="520" fill="#ffd60a" font-size="2" font-family="monospace" text-anchor="end" dominant-baseline="middle">47</text>
<line x1="150" y1="540" x2="130" y2="540" stroke="#ffd60a" stroke-width="1.5" stroke-linecap="round"/>
<text x="125" y="540" fill="#ffd60a" font-size="2" font-family="monospace" text-anchor="end" dominant-baseline="middle">49</text>
<line x1="150" y1="560" x2="130" y2="560" stroke="#ffd60a" stroke-width="1.5" stroke-linecap="round"/>
<text x="125" y="560" fill="#ffd60a" font-size="2" font-family="monospace" text-anchor="end" dominant-baseline="middle">51</text>
<line x1="150" y1="580" x2="130" y2="580" stroke="#ffd60a" stroke-width="1.5" stroke-linecap="round"/>
<text x="125" y="580" fill="#ffd60a" font-size="2" font-family="monospace" text-anchor="end" dominant-baseline="middle">53</text>
<line x1="150" y1="600" x2="130" y2="600" stroke="#ffd60a" stroke-width="1.5" stroke-linecap="round"/>
<text x="125" y="600" fill="#ffd60a" font-size="2" font-family="monospace" text-anchor="end" dominant-baseline="middle">55</text>
<line x1="150" y1="620" x2="130" y2="620" stroke="#ffd60a" stroke-width="1.5" stroke-linecap="round"/>
<text x="125" y="620" fill="#ffd60a" font-size="2" font-family="monospace" text-anchor="end" dominant-baseline="middle">57</text>
<line x1="150" y1="640" x2="130" y2="640" stroke="#ffd60a" stroke-width="1.5" stroke-linecap="round"/>
<text x="125" y="640" fill="#ffd60a" font-size="2" font-family="monospace" text-anchor="end" dominant-baseline="middle">59</text>
<line x1="150" y1="660" x2="130" y2="660" stroke="#ffd60a" stroke-width="1.5" stroke-linecap="round"/>
<text x="125" y="660" fill="#ffd60a" font-size="2" font-family="monospace" text-anchor="end" dominant-baseline="middle">61</text>
<line x1="150" y1="680" x2="130" y2="680" stroke="#ffd60a" stroke-width="1.5" stroke-linecap="round"/>
<text x="125" y="680" fill="#ffd60a" font-size="2" font-family="monospace" text-anchor="end" dominant-baseline="middle">63</text>
<line x1="150" y1="700" x2="130" y2="700" stroke="#ffd60a" stroke-width="1.5" stroke-linecap="round"/>
<text x="125" y="700" fill="#ffd60a" font-size="2" font-family="monospace" text-anchor="end" dominant-baseline="middle">65</text>
<line x1="150" y1="720" x2="130" y2="720" stroke="#ffd60a" stroke-width="1.5" stroke-linecap="round"/>
<text x="125" y="720" fill="#ffd60a" font-size="2" font-family="monospace" text-anchor="end" dominant-baseline="middle">67</text>
<line x1="150" y1="740" x2="130" y2="740" stroke="#ffd60a" stroke-width="1.5" stroke-linecap="round"/>
<text x="125" y="740" fill="#ffd60a" font-size="2" font-family="monospace" text-anchor="end" dominant-baseline="middle">69</text>
<line x1="150" y1="760" x2="130" y2="760" stroke="#ffd60a" stroke-width="1.5" stroke-linecap="round"/>
<text x="125" y="760" fill="#ffd60a" font-size="2" font-family="monospace" text-anchor="end" dominant-baseline="middle">71</text>
<line x1="150" y1="780" x2="130" y2="780" stroke="#ffd60a" stroke-width="1.5" stroke-linecap="round"/>
<text x="125" y="780" fill="#ffd60a" font-size="2" font-family="monospace" text-anchor="end" dominant-baseline="middle">73</text>
<line x1="150" y1="800" x2="130" y2="800" stroke="#ffd60a" stroke-width="1.5" stroke-linecap="round"/>
<text x="125" y="800" fill="#ffd60a" font-size="2" font-family="monospace" text-anchor="end" dominant-baseline="middle">75</text>
<line x1="150" y1="820" x2="130" y2="820" stroke="#ffd60a" stroke-width="1.5" stroke-linecap="round"/>
<text x="125" y="820" fill="#ffd60a" font-size="2" font-family="monospace" text-anchor="end" dominant-baseline="middle">77</text>
<line x1="150" y1="840" x2="130" y2="840" stroke="#ffd60a" stroke-width="1.5" stroke-linecap="round"/>
<text x="125" y="840" fill="#ffd60a" font-size="2" font-family="monospace" text-anchor="end" dominant-baseline="middle">79</text>
<line x1="150" y1="860" x2="130" y2="860" stroke="#ffd60a" stroke-width="1.5" stroke-linecap="round"/>
<text x="125" y="860" fill="#ffd60a" font-size="2" font-family="monospace" text-anchor="end" dominant-baseline="middle">81</text>
<line x1="150" y1="880" x2="130" y2="880" stroke="#ffd60a" stroke-width="1.5" stroke-linecap="round"/>
<text x="125" y="880" fill="#ffd60a" font-size="2" font-family="monospace" text-anchor="end" dominant-baseline="middle">83</text>
<line x1="150" y1="900" x2="130" y2="900" stroke="#ffd60a" stroke-width="1.5" stroke-linecap="round"/>
<text x="125" y="900" fill="#ffd60a" font-size="2" font-family="monospace" text-anchor="end" dominant-baseline="middle">85</text>
<line x1="150" y1="920" x2="130" y2="920" stroke="#ffd60a" stroke-width="1.5" stroke-linecap="round"/>
<text x="125" y="920" fill="#ffd60a" font-size="2" font-family="monospace" text-anchor="end" dominant-baseline="middle">87</text>
<line x1="150" y1="940" x2="130" y2="940" stroke="#ffd60a" stroke-width="1.5" stroke-linecap="round"/>
<text x="125" y="940" fill="#ffd60a" font-size="2" font-family="monospace" text-anchor="end" dominant-baseline="middle">89</text>
<line x1="150" y1="960" x2="130" y2="960" stroke="#ffd60a" stroke-width="1.5" stroke-linecap="round"/>
<text x="125" y="960" fill="#ffd60a" font-size="2" font-family="monospace" text-anchor="end" dominant-baseline="middle">91</text>
<line x1="150" y1="980" x2="130" y2="980" stroke="#ffd60a" stroke-width="1.5" stroke-linecap="round"/>
<text x="125" y="980" fill="#ffd60a" font-size="2" font-family="monospace" text-anchor="end" dominant-baseline="middle">93</text>
<line x1="150" y1="1000" x2="130" y2="1000" stroke="#ffd60a" stroke-width="1.5" stroke-linecap="round"/>
<text x="125" y="1000" fill="#ffd60a" font-size="2" font-family="monospace" text-anchor="end" dominant-baseline="middle">95</text>
<line x1="150" y1="1020" x2="130" y2="1020" stroke="#ffd60a" stroke-width="1.5" stroke-linecap="round"/>
<text x="125" y="1020" fill="#ffd60a" font-size="2" font-family="monospace" text-anchor="end" dominant-baseline="middle">97</text>
<line x1="150" y1="1040" x2="130" y2="1040" stroke="#ffd60a" stroke-width="1.5" stroke-linecap="round"/>
<text x="125" y="1040" fill="#ffd60a" font-size="2" font-family="monospace" text-anchor="end" dominant-baseline="middle">99</text>
<line x1="150" y1="1060" x2="130" y2="1060" stroke="#ffd60a" stroke-width="1.5" stroke-linecap="round"/>
<text x="125" y="1060" fill="#ffd60a" font-size="2" font-family="monospace" text-anchor="end" dominant-baseline="middle">101</text>
<line x1="150" y1="1080" x2="130" y2="1080" stroke="#ffd60a" stroke-width="1.5" stroke-linecap="round"/>
<text x="125" y="1080" fill="#ffd60a" font-size="2" font-family="monospace" text-anchor="end" dominant-baseline="middle">103</text>
<line x1="150" y1="1100" x2="130" y2="1100" stroke="#ffd60a" stroke-width="1.5" stroke-linecap="round"/>
<text x="125" y="1100" fill="#ffd60a" font-size="2" font-family="monospace" text-anchor="end" dominant-baseline="middle">105</text>
<line x1="150" y1="1120" x2="130" y2="1120" stroke="#ffd60a" stroke-width="1.5" stroke-linecap="round"/>
<text x="125" y="1120" fill="#ffd60a" font-size="2" font-family="monospace" text-anchor="end" dominant-baseline="middle">107</text>
<line x1="150" y1="1140" x2="130" y2="1140" stroke="#ffd60a" stroke-width="1.5" stroke-linecap="round"/>
<text x="125" y="1140" fill="#ffd60a" font-size="2" font-family="monospace" text-anchor="end" dominant-baseline="middle">109</text>
<line x1="150" y1="1160" x2="130" y2="1160" stroke="#ffd60a" stroke-width="1.5" stroke-linecap="round"/>
<text x="125" y="1160" fill="#ffd60a" font-size="2" font-family="monospace" text-anchor="end" dominant-baseline="middle">111</text>
<line x1="150" y1="1180" x2="130" y2="1180" stroke="#ffd60a" stroke-width="1.5" stroke-linecap="round"/>
<text x="125" y="1180" fill="#ffd60a" font-size="2" font-family="monospace" text-anchor="end" dominant-baseline="middle">113</text>
<line x1="150" y1="1200" x2="130" y2="1200" stroke="#ffd60a" stroke-width="1.5" stroke-linecap="round"/>
<text x="125" y="1200" fill="#ffd60a" font-size="2" font-family="monospace" text-anchor="end" dominant-baseline="middle">115</text>
<line x1="150" y1="1220" x2="130" y2="1220" stroke="#ffd60a" stroke-width="1.5" stroke-linecap="round"/>
<text x="125" y="1220" fill="#ffd60a" font-size="2" font-family="monospace" text-anchor="end" dominant-baseline="middle">117</text>
<line x1="150" y1="1240" x2="130" y2="1240" stroke="#ffd60a" stroke-width="1.5" stroke-linecap="round"/>
<text x="125" y="1240" fill="#ffd60a" font-size="2" font-family="monospace" text-anchor="end" dominant-baseline="middle">119</text>
<line x1="150" y1="1260" x2="130" y2="1260" stroke="#ffd60a" stroke-width="1.5" stroke-linecap="round"/>
<text x="125" y="1260" fill="#ffd60a" font-size="2" font-family="monospace" text-anchor="end" dominant-baseline="middle">121</text>
<line x1="150" y1="1280" x2="130" y2="1280" stroke="#ffd60a" stroke-width="1.5" stroke-linecap="round"/>
<text x="125" y="1280" fill="#ffd60a" font-size="2" font-family="monospace" text-anchor="end" dominant-baseline="middle">123</text>
<line x1="150" y1="1300" x2="130" y2="1300" stroke="#ffd60a" stroke-width="1.5" stroke-linecap="round"/>
<text x="125" y="1300" fill="#ffd60a" font-size="2" font-family="monospace" text-anchor="end" dominant-baseline="middle">125</text>
<line x1="150" y1="1320" x2="130" y2="1320" stroke="#ffd60a" stroke-width="1.5" stroke-linecap="round"/>
<text x="125" y="1320" fill="#ffd60a" font-size="2" font-family="monospace" text-anchor="end" dominant-baseline="middle">127</text>
<line x1="150" y1="1340" x2="130" y2="1340" stroke="#ffd60a" stroke-width="1.5" stroke-linecap="round"/>
<text x="125" y="1340" fill="#ffd60a" font-size="2" font-family="monospace" text-anchor="end" dominant-baseline="middle">129</text>
<line x1="150" y1="1360" x2="130" y2="1360" stroke="#ffd60a" stroke-width="1.5" stroke-linecap="round"/>
<text x="125" y="1360" fill="#ffd60a" font-size="2" font-family="monospace" text-anchor="end" dominant-baseline="middle">131</text>
<line x1="150" y1="1380" x2="130" y2="1380" stroke="#ffd60a" stroke-width="1.5" stroke-linecap="round"/>
<text x="125" y="1380" fill="#ffd60a" font-size="2" font-family="monospace" text-anchor="end" dominant-baseline="middle">133</text>
<line x1="150" y1="1400" x2="130" y2="1400" stroke="#ffd60a" stroke-width="1.5" stroke-linecap="round"/>
<text x="125" y="1400" fill="#ffd60a" font-size="2" font-family="monospace" text-anchor="end" dominant-baseline="middle">135</text>
<line x1="150" y1="1420" x2="130" y2="1420" stroke="#ffd60a" stroke-width="1.5" stroke-linecap="round"/>
<text x="125" y="1420" fill="#ffd60a" font-size="2" font-family="monospace" text-anchor="end" dominant-baseline="middle">137</text>
<line x1="150" y1="1440" x2="130" y2="1440" stroke="#ffd60a" stroke-width="1.5" stroke-linecap="round"/>
<text x="125" y="1440" fill="#ffd60a" font-size="2" font-family="monospace" text-anchor="end" dominant-baseline="middle">139</text>
<line x1="150" y1="1460" x2="130" y2="1460" stroke="#ffd60a" stroke-width="1.5" stroke-linecap="round"/>
<text x="125" y="1460" fill="#ffd60a" font-size="2" font-family="monospace" text-anchor="end" dominant-baseline="middle">141</text>
<line x1="150" y1="1480" x2="130" y2="1480" stroke="#ffd60a" stroke-width="1.5" stroke-linecap="round"/>
<text x="125" y="1480" fill="#ffd60a" font-size="2" font-family="monospace" text-anchor="end" dominant-baseline="middle">143</text>
<line x1="150" y1="1500" x2="130" y2="1500" stroke="#ffd60a" stroke-width="1.5" stroke-linecap="round"/>
<text x="125" y="1500" fill="#ffd60a" font-size="2" font-family="monospace" text-anchor="end" dominant-baseline="middle">145</text>
<line x1="150" y1="1520" x2="130" y2="1520" stroke="#ffd60a" stroke-width="1.5" stroke-linecap="round"/>
<text x="125" y="1520" fill="#ffd60a" font-size="2" font-family="monospace" text-anchor="end" dominant-baseline="middle">147</text>
<line x1="150" y1="1540" x2="130" y2="1540" stroke="#ffd60a" stroke-width="1.5" stroke-linecap="round"/>
<text x="125" y="1540" fill="#ffd60a" font-size="2" font-family="monospace" text-anchor="end" dominant-baseline="middle">149</text>
<line x1="150" y1="1560" x2="130" y2="1560" stroke="#ffd60a" stroke-width="1.5" stroke-linecap="round"/>
<text x="125" y="1560" fill="#ffd60a" font-size="2" font-family="monospace" text-anchor="end" dominant-baseline="middle">151</text>
<line x1="150" y1="1580" x2="130" y2="1580" stroke="#ffd60a" stroke-width="1.5" stroke-linecap="round"/>
<text x="125" y="1580" fill="#ffd60a" font-size="2" font-family="monospace" text-anchor="end" dominant-baseline="middle">153</text>
<line x1="150" y1="1600" x2="130" y2="1600" stroke="#ffd60a" stroke-width="1.5" stroke-linecap="round"/>
<text x="125" y="1600" fill="#ffd60a" font-size="2" font-family="monospace" text-anchor="end" dominant-baseline="middle">155</text>
<line x1="150" y1="1620" x2="130" y2="1620" stroke="#ffd60a" stroke-width="1.5" stroke-linecap="round"/>
<text x="125" y="1620" fill="#ffd60a" font-size="2" font-family="monospace" text-anchor="end" dominant-baseline="middle">157</text>
<line x1="150" y1="1640" x2="130" y2="1640" stroke="#ffd60a" stroke-width="1.5" stroke-linecap="round"/>
<text x="125" y="1640" fill="#ffd60a" font-size="2" font-family="monospace" text-anchor="end" dominant-baseline="middle">159</text>
<line x1="150" y1="1660" x2="130" y2="1660" stroke="#ffd60a" stroke-width="1.5" stroke-linecap="round"/>
<text x="125" y="1660" fill="#ffd60a" font-size="2" font-family="monospace" text-anchor="end" dominant-baseline="middle">161</text>
<line x1="150" y1="1680" x2="130" y2="1680" stroke="#ffd60a" stroke-width="1.5" stroke-linecap="round"/>
<text x="125" y="1680" fill="#ffd60a" font-size="2" font-family="monospace" text-anchor="end" dominant-baseline="middle">163</text>
<line x1="150" y1="1700" x2="130" y2="1700" stroke="#ffd60a" stroke-width="1.5" stroke-linecap="round"/>
<text x="125" y="1700" fill="#ffd60a" font-size="2" font-family="monospace" text-anchor="end" dominant-baseline="middle">165</text>
<line x1="150" y1="1720" x2="130" y2="1720" stroke="#ffd60a" stroke-width="1.5" stroke-linecap="round"/>
<text x="125" y="1720" fill="#ffd60a" font-size="2" font-family="monospace" text-anchor="end" dominant-baseline="middle">167</text>
<line x1="150" y1="1740" x2="130" y2="1740" stroke="#ffd60a" stroke-width="1.5" stroke-linecap="round"/>
<text x="125" y="1740" fill="#ffd60a" font-size="2" font-family="monospace" text-anchor="end" dominant-baseline="middle">169</text>
<line x1="150" y1="1760" x2="130" y2="1760" stroke="#ffd60a" stroke-width="1.5" stroke-linecap="round"/>
<text x="125" y="1760" fill="#ffd60a" font-size="2" font-family="monospace" text-anchor="end" dominant-baseline="middle">171</text>
<line x1="150" y1="1780" x2="130" y2="1780" stroke="#ffd60a" stroke-width="1.5" stroke-linecap="round"/>
<text x="125" y="1780" fill="#ffd60a" font-size="2" font-family="monospace" text-anchor="end" dominant-baseline="middle">173</text>
<line x1="150" y1="1800" x2="130" y2="1800" stroke="#ffd60a" stroke-width="1.5" stroke-linecap="round"/>
<text x="125" y="1800" fill="#ffd60a" font-size="2" font-family="monospace" text-anchor="end" dominant-baseline="middle">175</text>
<line x1="150" y1="1820" x2="130" y2="1820" stroke="#ffd60a" stroke-width="1.5" stroke-linecap="round"/>
<text x="125" y="1820" fill="#ffd60a" font-size="2" font-family="monospace" text-anchor="end" dominant-baseline="middle">177</text>
<line x1="150" y1="1840" x2="130" y2="1840" stroke="#ffd60a" stroke-width="1.5" stroke-linecap="round"/>
<text x="125" y="1840" fill="#ffd60a" font-size="2" font-family="monospace" text-anchor="end" dominant-baseline="middle">179</text>
<line x1="150" y1="1860" x2="130" y2="1860" stroke="#ffd60a" stroke-width="1.5" stroke-linecap="round"/>
<text x="125" y="1860" fill="#ffd60a" font-size="2" font-family="monospace" text-anchor="end" dominant-baseline="middle">181</text>
<line x1="150" y1="1880" x2="130" y2="1880" stroke="#ffd60a" stroke-width="1.5" stroke-linecap="round"/>
<text x="125" y="1880" fill="#ffd60a" font-size="2" font-family="monospace" text-anchor="end" dominant-baseline="middle">183</text>
<line x1="150" y1="1900" x2="130" y2="1900" stroke="#ffd60a" stroke-width="1.5" stroke-linecap="round"/>
<text x="125" y="1900" fill="#ffd60a" font-size="2" font-family="monospace" text-anchor="end" dominant-baseline="middle">185</text>
<line x1="150" y1="1920" x2="130" y2="1920" stroke="#ffd60a" stroke-width="1.5" stroke-linecap="round"/>
<text x="125" y="1920" fill="#ffd60a" font-size="2" font-family="monospace" text-anchor="end" dominant-baseline="middle">187</text>
<line x1="150" y1="1940" x2="130" y2="1940" stroke="#ffd60a" stroke-width="1.5" stroke-linecap="round"/>
<text x="125" y="1940" fill="#ffd60a" font-size="2" font-family="monospace" text-anchor="end" dominant-baseline="middle">189</text>
<line x1="150" y1="1960" x2="130" y2="1960" stroke="#ffd60a" stroke-width="1.5" stroke-linecap="round"/>
<text x="125" y="1960" fill="#ffd60a" font-size="2" font-family="monospace" text-anchor="end" dominant-baseline="middle">191</text>
<line x1="150" y1="1980" x2="130" y2="1980" stroke="#ffd60a" stroke-width="1.5" stroke-linecap="round"/>
<text x="125" y="1980" fill="#ffd60a" font-size="2" font-family="monospace" text-anchor="end" dominant-baseline="middle">193</text>
<line x1="150" y1="2000" x2="130" y2="2000" stroke="#ffd60a" stroke-width="1.5" stroke-linecap="round"/>
<text x="125" y="2000" fill="#ffd60a" font-size="2" font-family="monospace" text-anchor="end" dominant-baseline="middle">195</text>
<line x1="150" y1="2020" x2="130" y2="2020" stroke="#ffd60a" stroke-width="1.5" stroke-linecap="round"/>
<text x="125" y="2020" fill="#ffd60a" font-size="2" font-family="monospace" text-anchor="end" dominant-baseline="middle">197</text>
<line x1="150" y1="2040" x2="130" y2="2040" stroke="#ffd60a" stroke-width="1.5" stroke-linecap="round"/>
<text x="125" y="2040" fill="#ffd60a" font-size="2" font-family="monospace" text-anchor="end" dominant-baseline="middle">199</text>
</svg>