<svg xmlns="http://www.w3.org/2000/svg" viewBox="0 0 19.08 14.04">
<line x1="6.999999999999999" y1="6.23" x2="7.507999999999999" y2="6.23" stroke="#ffffff" stroke-width="0.3" stroke-linecap="round" fill="none"/>
<line x1="8.524" y1="5.214" x2="8.524" y2="7.246" stroke="#ffffff" stroke-width="0.3" stroke-linecap="round" fill="none"/>
<rect x="8.524" y="6.738" width="0.508" height="1.016" stroke="#ffffff" stroke-width="0.3" fill="#ffffff"/>
<path d="M 8.524 7.246 A 1.0160095689996047 1.0160095689996047 0 0 1 8.524 5.214" stroke="#ffffff" stroke-width="0.3" fill="none"/>
<rect x="9.032" y="7.246" width="1.016" height="2.032" stroke="#ffffff" stroke-width="0.3" fill="#ffffff"/>
<line x1="9.54" y1="7.5" x2="9.54" y2="7.246" stroke="#ffffff" stroke-width="0.3" stroke-linecap="round" fill="none"/>
<rect x="10.047999999999998" y="6.738" width="0.508" height="1.016" stroke="#ffffff" stroke-width="0.3" fill="#ffffff"/>
<path d="M 10.556 5.214 A 1.0160095689996047 1.0160095689996047 0 0 1 10.556 7.246" stroke="#ffffff" stroke-width="0.3" fill="none"/>
<line x1="10.556" y1="5.214" x2="10.556" y2="7.246" stroke="#ffffff" stroke-width="0.3" stroke-linecap="round" fill="none"/>
<line x1="12.079999999999998" y1="6.23" x2="11.572" y2="6.23" stroke="#ffffff" stroke-width="0.3" stroke-linecap="round" fill="none"/>
<line x1="4.459999999999999" y1="6.23" x2="6.999999999999999" y2="6.23" stroke="#ffd60a" stroke-width="0.2725714285714285" stroke-linecap="round"/>
<text x="3.999999999999999" y="6.23" fill="#ffd60a" font-size="1" font-family="monospace" text-anchor="start" dominant-baseline="middle">A</text>
<line x1="9.54" y1="10.040000000000001" x2="9.54" y2="7.5" stroke="#ffd60a" stroke-width="0.2725714285714285" stroke-linecap="round"/>
<text x="9.54" y="4.5" fill="#ffd60a" font-size="1" font-family="monospace" text-anchor="middle" dominant-baseline="middle">C</text>
<line x1="14.62" y1="6.23" x2="12.079999999999998" y2="6.23" stroke="#ffd60a" stroke-width="0.2725714285714285" stroke-linecap="round"/>
<text x="15.079999999999998" y="6.23" fill="#ffd60a" font-size="1" font-family="monospace" text-anchor="end" dominant-baseline="middle">B</text>
</svg>