<svg xmlns="http://www.w3.org/2000/svg" viewBox="0 0 220 480">
<rect x="50" y="50" width="120" height="380" stroke="#ffffff" stroke-width="1.5" fill="rgba(255,255,255,0.04)"/>
<text x="110" y="240" fill="#888" font-size="3" font-family="monospace" text-anchor="middle" dominant-baseline="middle">U</text>
<line x1="30" y1="60" x2="50" y2="60" stroke="#ffd60a" stroke-width="1.5" stroke-linecap="round"/>
<text x="55" y="60" fill="#ffd60a" font-size="2" font-family="monospace" text-anchor="start" dominant-baseline="middle">~{LOCK}</text>
<line x1="30" y1="80" x2="50" y2="80" stroke="#ffd60a" stroke-width="1.5" stroke-linecap="round"/>
<text x="55" y="80" fill="#ffd60a" font-size="2" font-family="monospace" text-anchor="start" dominant-baseline="middle">MUTE</text>
<line x1="30" y1="100" x2="50" y2="100" stroke="#ffd60a" stroke-width="1.5" stroke-linecap="round"/>
<text x="55" y="100" fill="#ffd60a" font-size="2" font-family="monospace" text-anchor="start" dominant-baseline="middle">~{RDY}</text>
<line x1="30" y1="120" x2="50" y2="120" stroke="#ffd60a" stroke-width="1.5" stroke-linecap="round"/>
<text x="55" y="120" fill="#ffd60a" font-size="2" font-family="monospace" text-anchor="start" dominant-baseline="middle">CPM</text>
<line x1="30" y1="140" x2="50" y2="140" stroke="#ffd60a" stroke-width="1.5" stroke-linecap="round"/>
<text x="55" y="140" fill="#ffd60a" font-size="2" font-family="monospace" text-anchor="start" dominant-baseline="middle">~{CS}/A0</text>
<line x1="30" y1="160" x2="50" y2="160" stroke="#ffd60a" stroke-width="1.5" stroke-linecap="round"/>
<text x="55" y="160" fill="#ffd60a" font-size="2" font-family="monospace" text-anchor="start" dominant-baseline="middle">CCLK/SCL</text>
<line x1="30" y1="180" x2="50" y2="180" stroke="#ffd60a" stroke-width="1.5" stroke-linecap="round"/>
<text x="55" y="180" fill="#ffd60a" font-size="2" font-family="monospace" text-anchor="start" dominant-baseline="middle">CDIN/A1</text>
<line x1="30" y1="200" x2="50" y2="200" stroke="#ffd60a" stroke-width="1.5" stroke-linecap="round"/>
<text x="55" y="200" fill="#ffd60a" font-size="2" font-family="monospace" text-anchor="start" dominant-baseline="middle">CDOUT/SDA</text>
<line x1="30" y1="220" x2="50" y2="220" stroke="#ffd60a" stroke-width="1.5" stroke-linecap="round"/>
<text x="55" y="220" fill="#ffd60a" font-size="2" font-family="monospace" text-anchor="start" dominant-baseline="middle">~{INT}</text>
<line x1="30" y1="240" x2="50" y2="240" stroke="#ffd60a" stroke-width="1.5" stroke-linecap="round"/>
<text x="55" y="240" fill="#ffd60a" font-size="2" font-family="monospace" text-anchor="start" dominant-baseline="middle">~{RST}</text>
<line x1="30" y1="260" x2="50" y2="260" stroke="#ffd60a" stroke-width="1.5" stroke-linecap="round"/>
<text x="55" y="260" fill="#ffd60a" font-size="2" font-family="monospace" text-anchor="start" dominant-baseline="middle">GPO1</text>
<line x1="30" y1="280" x2="50" y2="280" stroke="#ffd60a" stroke-width="1.5" stroke-linecap="round"/>
<text x="55" y="280" fill="#ffd60a" font-size="2" font-family="monospace" text-anchor="start" dominant-baseline="middle">GPO2</text>
<line x1="30" y1="300" x2="50" y2="300" stroke="#ffd60a" stroke-width="1.5" stroke-linecap="round"/>
<text x="55" y="300" fill="#ffd60a" font-size="2" font-family="monospace" text-anchor="start" dominant-baseline="middle">GPO3</text>
<line x1="30" y1="320" x2="50" y2="320" stroke="#ffd60a" stroke-width="1.5" stroke-linecap="round"/>
<text x="55" y="320" fill="#ffd60a" font-size="2" font-family="monospace" text-anchor="start" dominant-baseline="middle">GPO4</text>
<line x1="30" y1="340" x2="50" y2="340" stroke="#ffd60a" stroke-width="1.5" stroke-linecap="round"/>
<text x="55" y="340" fill="#ffd60a" font-size="2" font-family="monospace" text-anchor="start" dominant-baseline="middle">TX-</text>
<line x1="30" y1="360" x2="50" y2="360" stroke="#ffd60a" stroke-width="1.5" stroke-linecap="round"/>
<text x="55" y="360" fill="#ffd60a" font-size="2" font-family="monospace" text-anchor="start" dominant-baseline="middle">TX+</text>
<line x1="30" y1="380" x2="50" y2="380" stroke="#ffd60a" stroke-width="1.5" stroke-linecap="round"/>
<text x="55" y="380" fill="#ffd60a" font-size="2" font-family="monospace" text-anchor="start" dominant-baseline="middle">AESOUT</text>
<line x1="30" y1="400" x2="50" y2="400" stroke="#ffd60a" stroke-width="1.5" stroke-linecap="round"/>
<text x="55" y="400" fill="#ffd60a" font-size="2" font-family="monospace" text-anchor="start" dominant-baseline="middle">BLS</text>
<line x1="30" y1="420" x2="50" y2="420" stroke="#ffd60a" stroke-width="1.5" stroke-linecap="round"/>
<text x="55" y="420" fill="#ffd60a" font-size="2" font-family="monospace" text-anchor="start" dominant-baseline="middle">SYNC</text>
<line x1="190" y1="60" x2="170" y2="60" stroke="#ffd60a" stroke-width="1.5" stroke-linecap="round"/>
<text x="165" y="60" fill="#ffd60a" font-size="2" font-family="monospace" text-anchor="end" dominant-baseline="middle">RX1+</text>
<line x1="190" y1="80" x2="170" y2="80" stroke="#ffd60a" stroke-width="1.5" stroke-linecap="round"/>
<text x="165" y="80" fill="#ffd60a" font-size="2" font-family="monospace" text-anchor="end" dominant-baseline="middle">RX1-</text>
<line x1="190" y1="100" x2="170" y2="100" stroke="#ffd60a" stroke-width="1.5" stroke-linecap="round"/>
<text x="165" y="100" fill="#ffd60a" font-size="2" font-family="monospace" text-anchor="end" dominant-baseline="middle">RX2+</text>
<line x1="190" y1="120" x2="170" y2="120" stroke="#ffd60a" stroke-width="1.5" stroke-linecap="round"/>
<text x="165" y="120" fill="#ffd60a" font-size="2" font-family="monospace" text-anchor="end" dominant-baseline="middle">RX2-</text>
<line x1="190" y1="140" x2="170" y2="140" stroke="#ffd60a" stroke-width="1.5" stroke-linecap="round"/>
<text x="165" y="140" fill="#ffd60a" font-size="2" font-family="monospace" text-anchor="end" dominant-baseline="middle">RX3+</text>
<line x1="190" y1="160" x2="170" y2="160" stroke="#ffd60a" stroke-width="1.5" stroke-linecap="round"/>
<text x="165" y="160" fill="#ffd60a" font-size="2" font-family="monospace" text-anchor="end" dominant-baseline="middle">RX3-</text>
<line x1="190" y1="180" x2="170" y2="180" stroke="#ffd60a" stroke-width="1.5" stroke-linecap="round"/>
<text x="165" y="180" fill="#ffd60a" font-size="2" font-family="monospace" text-anchor="end" dominant-baseline="middle">RX4+</text>
<line x1="190" y1="200" x2="170" y2="200" stroke="#ffd60a" stroke-width="1.5" stroke-linecap="round"/>
<text x="165" y="200" fill="#ffd60a" font-size="2" font-family="monospace" text-anchor="end" dominant-baseline="middle">RX4-</text>
<line x1="190" y1="220" x2="170" y2="220" stroke="#ffd60a" stroke-width="1.5" stroke-linecap="round"/>
<text x="165" y="220" fill="#ffd60a" font-size="2" font-family="monospace" text-anchor="end" dominant-baseline="middle">RXCKO</text>
<line x1="190" y1="240" x2="170" y2="240" stroke="#ffd60a" stroke-width="1.5" stroke-linecap="round"/>
<text x="165" y="240" fill="#ffd60a" font-size="2" font-family="monospace" text-anchor="end" dominant-baseline="middle">RXCKI</text>
<line x1="190" y1="260" x2="170" y2="260" stroke="#ffd60a" stroke-width="1.5" stroke-linecap="round"/>
<text x="165" y="260" fill="#ffd60a" font-size="2" font-family="monospace" text-anchor="end" dominant-baseline="middle">MCLK</text>
<line x1="190" y1="280" x2="170" y2="280" stroke="#ffd60a" stroke-width="1.5" stroke-linecap="round"/>
<text x="165" y="280" fill="#ffd60a" font-size="2" font-family="monospace" text-anchor="end" dominant-baseline="middle">BCKA</text>
<line x1="190" y1="300" x2="170" y2="300" stroke="#ffd60a" stroke-width="1.5" stroke-linecap="round"/>
<text x="165" y="300" fill="#ffd60a" font-size="2" font-family="monospace" text-anchor="end" dominant-baseline="middle">LRCKA</text>
<line x1="190" y1="320" x2="170" y2="320" stroke="#ffd60a" stroke-width="1.5" stroke-linecap="round"/>
<text x="165" y="320" fill="#ffd60a" font-size="2" font-family="monospace" text-anchor="end" dominant-baseline="middle">SDINA</text>
<line x1="190" y1="340" x2="170" y2="340" stroke="#ffd60a" stroke-width="1.5" stroke-linecap="round"/>
<text x="165" y="340" fill="#ffd60a" font-size="2" font-family="monospace" text-anchor="end" dominant-baseline="middle">SDOUTA</text>
<line x1="190" y1="360" x2="170" y2="360" stroke="#ffd60a" stroke-width="1.5" stroke-linecap="round"/>
<text x="165" y="360" fill="#ffd60a" font-size="2" font-family="monospace" text-anchor="end" dominant-baseline="middle">SDOUTB</text>
<line x1="190" y1="380" x2="170" y2="380" stroke="#ffd60a" stroke-width="1.5" stroke-linecap="round"/>
<text x="165" y="380" fill="#ffd60a" font-size="2" font-family="monospace" text-anchor="end" dominant-baseline="middle">SDINB</text>
<line x1="190" y1="400" x2="170" y2="400" stroke="#ffd60a" stroke-width="1.5" stroke-linecap="round"/>
<text x="165" y="400" fill="#ffd60a" font-size="2" font-family="monospace" text-anchor="end" dominant-baseline="middle">LRCKB</text>
<line x1="190" y1="420" x2="170" y2="420" stroke="#ffd60a" stroke-width="1.5" stroke-linecap="round"/>
<text x="165" y="420" fill="#ffd60a" font-size="2" font-family="monospace" text-anchor="end" dominant-baseline="middle">BCKB</text>
<line x1="60" y1="30" x2="60" y2="50" stroke="#ffd60a" stroke-width="1.5" stroke-linecap="round"/>
<text x="60" y="25" fill="#ffd60a" font-size="2" font-family="monospace" text-anchor="middle" dominant-baseline="middle">AGND</text>
<line x1="80" y1="30" x2="80" y2="50" stroke="#ffd60a" stroke-width="1.5" stroke-linecap="round"/>
<text x="80" y="25" fill="#ffd60a" font-size="2" font-family="monospace" text-anchor="middle" dominant-baseline="middle">DGND1</text>
<line x1="100" y1="30" x2="100" y2="50" stroke="#ffd60a" stroke-width="1.5" stroke-linecap="round"/>
<text x="100" y="25" fill="#ffd60a" font-size="2" font-family="monospace" text-anchor="middle" dominant-baseline="middle">DGND2</text>
<line x1="120" y1="30" x2="120" y2="50" stroke="#ffd60a" stroke-width="1.5" stroke-linecap="round"/>
<text x="120" y="25" fill="#ffd60a" font-size="2" font-family="monospace" text-anchor="middle" dominant-baseline="middle">NC</text>
<line x1="140" y1="30" x2="140" y2="50" stroke="#ffd60a" stroke-width="1.5" stroke-linecap="round"/>
<text x="140" y="25" fill="#ffd60a" font-size="2" font-family="monospace" text-anchor="middle" dominant-baseline="middle">DGND3</text>
<line x1="160" y1="30" x2="160" y2="50" stroke="#ffd60a" stroke-width="1.5" stroke-linecap="round"/>
<text x="160" y="25" fill="#ffd60a" font-size="2" font-family="monospace" text-anchor="middle" dominant-baseline="middle">BGND</text>
<line x1="65" y1="450" x2="65" y2="430" stroke="#ffd60a" stroke-width="1.5" stroke-linecap="round"/>
<text x="65" y="464" fill="#ffd60a" font-size="2" font-family="monospace" text-anchor="middle" dominant-baseline="middle">VCC</text>
<line x1="95" y1="450" x2="95" y2="430" stroke="#ffd60a" stroke-width="1.5" stroke-linecap="round"/>
<text x="95" y="464" fill="#ffd60a" font-size="2" font-family="monospace" text-anchor="middle" dominant-baseline="middle">VDD18</text>
<line x1="125" y1="450" x2="125" y2="430" stroke="#ffd60a" stroke-width="1.5" stroke-linecap="round"/>
<text x="125" y="464" fill="#ffd60a" font-size="2" font-family="monospace" text-anchor="middle" dominant-baseline="middle">VDD33</text>
<line x1="155" y1="450" x2="155" y2="430" stroke="#ffd60a" stroke-width="1.5" stroke-linecap="round"/>
<text x="155" y="464" fill="#ffd60a" font-size="2" font-family="monospace" text-anchor="middle" dominant-baseline="middle">VIO</text>
</svg>