<svg xmlns="http://www.w3.org/2000/svg" viewBox="0 0 18.8712 19.3312">
<polyline points="10.350000000000001,13.858 10.350000000000001,10.048 11.620000000000001,12.588000000000001 12.89,10.048 12.89,13.858" stroke="#ffffff" stroke-width="0.3" stroke-linejoin="round" stroke-linecap="round" fill="none"/>
<line x1="6.540000000000001" y1="9.54" x2="7.175000000000001" y2="9.54" stroke="#ffffff" stroke-width="0.3" stroke-linecap="round" fill="none"/>
<line x1="6.540000000000001" y1="14.620000000000001" x2="7.175000000000001" y2="14.620000000000001" stroke="#ffffff" stroke-width="0.3" stroke-linecap="round" fill="none"/>
<path d="M 7.175000000000001 9.54 A 0.6350057646686702 0.6350057646686702 0 0 1 7.175000000000001 10.81" stroke="#ffffff" stroke-width="0.3" fill="none"/>
<path d="M 7.175000000000001 10.81 A 0.635005764668669 0.635005764668669 0 0 1 7.175000000000001 12.08" stroke="#ffffff" stroke-width="0.3" fill="none"/>
<path d="M 7.175000000000001 12.08 A 0.635005764668671 0.635005764668671 0 0 1 7.175000000000001 13.35" stroke="#ffffff" stroke-width="0.3" fill="none"/>
<path d="M 7.175000000000001 13.35 A 0.6350057646686698 0.6350057646686698 0 0 1 7.175000000000001 14.620000000000001" stroke="#ffffff" stroke-width="0.3" fill="none"/>
<line x1="7.175000000000001" y1="12.08" x2="6.540000000000001" y2="12.08" stroke="#ffffff" stroke-width="0.3" stroke-linecap="round" fill="none"/>
<line x1="9.080000000000002" y1="7.635" x2="9.080000000000002" y2="7" stroke="#ffffff" stroke-width="0.3" stroke-linecap="round" fill="none"/>
<path d="M 10.350000000000001 7.635 A 0.6350057646686691 0.6350057646686691 0 0 1 9.080000000000002 7.635" stroke="#ffffff" stroke-width="0.3" fill="none"/>
<path d="M 11.620000000000001 7.635 A 0.6350057646686708 0.6350057646686708 0 0 1 10.350000000000001 7.635" stroke="#ffffff" stroke-width="0.3" fill="none"/>
<line x1="11.620000000000001" y1="7.635" x2="11.620000000000001" y2="7" stroke="#ffffff" stroke-width="0.3" stroke-linecap="round" fill="none"/>
<circle cx="11.620000000000001" cy="12.08" r="3.2512" stroke="#ffffff" stroke-width="0.3" fill="none"/>
<path d="M 12.89 7.635 A 0.6350057646686692 0.6350057646686692 0 0 1 11.620000000000001 7.635" stroke="#ffffff" stroke-width="0.3" fill="none"/>
<path d="M 14.16 7.635 A 0.6350057646686709 0.6350057646686709 0 0 1 12.89 7.635" stroke="#ffffff" stroke-width="0.3" fill="none"/>
<line x1="14.16" y1="7.635" x2="14.16" y2="7" stroke="#ffffff" stroke-width="0.3" stroke-linecap="round" fill="none"/>
<line x1="9.080000000000002" y1="4.46" x2="9.08" y2="7" stroke="#ffd60a" stroke-width="0.27615999999999996" stroke-linecap="round"/>
<line x1="11.620000000000001" y1="4.46" x2="11.620000000000001" y2="7" stroke="#ffd60a" stroke-width="0.27615999999999996" stroke-linecap="round"/>
<line x1="14.16" y1="4.46" x2="14.16" y2="7" stroke="#ffd60a" stroke-width="0.27615999999999996" stroke-linecap="round"/>
<text x="14.16" y="4" fill="#ffd60a" font-size="1" font-family="monospace" text-anchor="middle" dominant-baseline="middle">-</text>
<line x1="4.000000000000001" y1="9.54" x2="6.540000000000001" y2="9.54" stroke="#ffd60a" stroke-width="0.27615999999999996" stroke-linecap="round"/>
<line x1="4.000000000000001" y1="12.08" x2="6.540000000000001" y2="12.08" stroke="#ffd60a" stroke-width="0.27615999999999996" stroke-linecap="round"/>
<line x1="4.000000000000001" y1="14.620000000000001" x2="6.540000000000001" y2="14.620000000000001" stroke="#ffd60a" stroke-width="0.27615999999999996" stroke-linecap="round"/>
</svg>