<svg xmlns="http://www.w3.org/2000/svg" viewBox="0 0 240 520">
<rect x="50" y="50" width="140" height="420" stroke="#ffffff" stroke-width="1.5" fill="rgba(255,255,255,0.04)"/>
<text x="120" y="260" fill="#888" font-size="3" font-family="monospace" text-anchor="middle" dominant-baseline="middle">U</text>
<line x1="30" y1="63.125" x2="50" y2="63.125" stroke="#ffd60a" stroke-width="1.5" stroke-linecap="round"/>
<text x="55" y="63.125" fill="#ffd60a" font-size="2" font-family="monospace" text-anchor="start" dominant-baseline="middle">PA0</text>
<line x1="30" y1="89.375" x2="50" y2="89.375" stroke="#ffd60a" stroke-width="1.5" stroke-linecap="round"/>
<text x="55" y="89.375" fill="#ffd60a" font-size="2" font-family="monospace" text-anchor="start" dominant-baseline="middle">PA1</text>
<line x1="30" y1="115.625" x2="50" y2="115.625" stroke="#ffd60a" stroke-width="1.5" stroke-linecap="round"/>
<text x="55" y="115.625" fill="#ffd60a" font-size="2" font-family="monospace" text-anchor="start" dominant-baseline="middle">PA2</text>
<line x1="30" y1="141.875" x2="50" y2="141.875" stroke="#ffd60a" stroke-width="1.5" stroke-linecap="round"/>
<text x="55" y="141.875" fill="#ffd60a" font-size="2" font-family="monospace" text-anchor="start" dominant-baseline="middle">PA3</text>
<line x1="30" y1="168.125" x2="50" y2="168.125" stroke="#ffd60a" stroke-width="1.5" stroke-linecap="round"/>
<text x="55" y="168.125" fill="#ffd60a" font-size="2" font-family="monospace" text-anchor="start" dominant-baseline="middle">PA4</text>
<line x1="30" y1="194.375" x2="50" y2="194.375" stroke="#ffd60a" stroke-width="1.5" stroke-linecap="round"/>
<text x="55" y="194.375" fill="#ffd60a" font-size="2" font-family="monospace" text-anchor="start" dominant-baseline="middle">PA5</text>
<line x1="30" y1="220.625" x2="50" y2="220.625" stroke="#ffd60a" stroke-width="1.5" stroke-linecap="round"/>
<text x="55" y="220.625" fill="#ffd60a" font-size="2" font-family="monospace" text-anchor="start" dominant-baseline="middle">PA6</text>
<line x1="30" y1="246.875" x2="50" y2="246.875" stroke="#ffd60a" stroke-width="1.5" stroke-linecap="round"/>
<text x="55" y="246.875" fill="#ffd60a" font-size="2" font-family="monospace" text-anchor="start" dominant-baseline="middle">PA7</text>
<line x1="30" y1="273.125" x2="50" y2="273.125" stroke="#ffd60a" stroke-width="1.5" stroke-linecap="round"/>
<text x="55" y="273.125" fill="#ffd60a" font-size="2" font-family="monospace" text-anchor="start" dominant-baseline="middle">PA8</text>
<line x1="30" y1="299.375" x2="50" y2="299.375" stroke="#ffd60a" stroke-width="1.5" stroke-linecap="round"/>
<text x="55" y="299.375" fill="#ffd60a" font-size="2" font-family="monospace" text-anchor="start" dominant-baseline="middle">PA9</text>
<line x1="30" y1="325.625" x2="50" y2="325.625" stroke="#ffd60a" stroke-width="1.5" stroke-linecap="round"/>
<text x="55" y="325.625" fill="#ffd60a" font-size="2" font-family="monospace" text-anchor="start" dominant-baseline="middle">PA10</text>
<line x1="30" y1="351.875" x2="50" y2="351.875" stroke="#ffd60a" stroke-width="1.5" stroke-linecap="round"/>
<text x="55" y="351.875" fill="#ffd60a" font-size="2" font-family="monospace" text-anchor="start" dominant-baseline="middle">PA11</text>
<line x1="30" y1="378.125" x2="50" y2="378.125" stroke="#ffd60a" stroke-width="1.5" stroke-linecap="round"/>
<text x="55" y="378.125" fill="#ffd60a" font-size="2" font-family="monospace" text-anchor="start" dominant-baseline="middle">PA12</text>
<line x1="30" y1="404.375" x2="50" y2="404.375" stroke="#ffd60a" stroke-width="1.5" stroke-linecap="round"/>
<text x="55" y="404.375" fill="#ffd60a" font-size="2" font-family="monospace" text-anchor="start" dominant-baseline="middle">PA13</text>
<line x1="30" y1="430.625" x2="50" y2="430.625" stroke="#ffd60a" stroke-width="1.5" stroke-linecap="round"/>
<text x="55" y="430.625" fill="#ffd60a" font-size="2" font-family="monospace" text-anchor="start" dominant-baseline="middle">PA14</text>
<line x1="30" y1="456.875" x2="50" y2="456.875" stroke="#ffd60a" stroke-width="1.5" stroke-linecap="round"/>
<text x="55" y="456.875" fill="#ffd60a" font-size="2" font-family="monospace" text-anchor="start" dominant-baseline="middle">PA15</text>
<line x1="210" y1="60" x2="190" y2="60" stroke="#ffd60a" stroke-width="1.5" stroke-linecap="round"/>
<text x="185" y="60" fill="#ffd60a" font-size="2" font-family="monospace" text-anchor="end" dominant-baseline="middle">PC13</text>
<line x1="210" y1="80" x2="190" y2="80" stroke="#ffd60a" stroke-width="1.5" stroke-linecap="round"/>
<text x="185" y="80" fill="#ffd60a" font-size="2" font-family="monospace" text-anchor="end" dominant-baseline="middle">PC14</text>
<line x1="210" y1="100" x2="190" y2="100" stroke="#ffd60a" stroke-width="1.5" stroke-linecap="round"/>
<text x="185" y="100" fill="#ffd60a" font-size="2" font-family="monospace" text-anchor="end" dominant-baseline="middle">PC15</text>
<line x1="210" y1="120" x2="190" y2="120" stroke="#ffd60a" stroke-width="1.5" stroke-linecap="round"/>
<text x="185" y="120" fill="#ffd60a" font-size="2" font-family="monospace" text-anchor="end" dominant-baseline="middle">PH0</text>
<line x1="210" y1="140" x2="190" y2="140" stroke="#ffd60a" stroke-width="1.5" stroke-linecap="round"/>
<text x="185" y="140" fill="#ffd60a" font-size="2" font-family="monospace" text-anchor="end" dominant-baseline="middle">PH1</text>
<line x1="210" y1="160" x2="190" y2="160" stroke="#ffd60a" stroke-width="1.5" stroke-linecap="round"/>
<text x="185" y="160" fill="#ffd60a" font-size="2" font-family="monospace" text-anchor="end" dominant-baseline="middle">NRST</text>
<line x1="210" y1="180" x2="190" y2="180" stroke="#ffd60a" stroke-width="1.5" stroke-linecap="round"/>
<text x="185" y="180" fill="#ffd60a" font-size="2" font-family="monospace" text-anchor="end" dominant-baseline="middle">PB0</text>
<line x1="210" y1="200" x2="190" y2="200" stroke="#ffd60a" stroke-width="1.5" stroke-linecap="round"/>
<text x="185" y="200" fill="#ffd60a" font-size="2" font-family="monospace" text-anchor="end" dominant-baseline="middle">PB1</text>
<line x1="210" y1="220" x2="190" y2="220" stroke="#ffd60a" stroke-width="1.5" stroke-linecap="round"/>
<text x="185" y="220" fill="#ffd60a" font-size="2" font-family="monospace" text-anchor="end" dominant-baseline="middle">PB2</text>
<line x1="210" y1="240" x2="190" y2="240" stroke="#ffd60a" stroke-width="1.5" stroke-linecap="round"/>
<text x="185" y="240" fill="#ffd60a" font-size="2" font-family="monospace" text-anchor="end" dominant-baseline="middle">PB10</text>
<line x1="210" y1="260" x2="190" y2="260" stroke="#ffd60a" stroke-width="1.5" stroke-linecap="round"/>
<text x="185" y="260" fill="#ffd60a" font-size="2" font-family="monospace" text-anchor="end" dominant-baseline="middle">PB12</text>
<line x1="210" y1="280" x2="190" y2="280" stroke="#ffd60a" stroke-width="1.5" stroke-linecap="round"/>
<text x="185" y="280" fill="#ffd60a" font-size="2" font-family="monospace" text-anchor="end" dominant-baseline="middle">PB13</text>
<line x1="210" y1="300" x2="190" y2="300" stroke="#ffd60a" stroke-width="1.5" stroke-linecap="round"/>
<text x="185" y="300" fill="#ffd60a" font-size="2" font-family="monospace" text-anchor="end" dominant-baseline="middle">PB14</text>
<line x1="210" y1="320" x2="190" y2="320" stroke="#ffd60a" stroke-width="1.5" stroke-linecap="round"/>
<text x="185" y="320" fill="#ffd60a" font-size="2" font-family="monospace" text-anchor="end" dominant-baseline="middle">PB15</text>
<line x1="210" y1="340" x2="190" y2="340" stroke="#ffd60a" stroke-width="1.5" stroke-linecap="round"/>
<text x="185" y="340" fill="#ffd60a" font-size="2" font-family="monospace" text-anchor="end" dominant-baseline="middle">PB3</text>
<line x1="210" y1="360" x2="190" y2="360" stroke="#ffd60a" stroke-width="1.5" stroke-linecap="round"/>
<text x="185" y="360" fill="#ffd60a" font-size="2" font-family="monospace" text-anchor="end" dominant-baseline="middle">PB4</text>
<line x1="210" y1="380" x2="190" y2="380" stroke="#ffd60a" stroke-width="1.5" stroke-linecap="round"/>
<text x="185" y="380" fill="#ffd60a" font-size="2" font-family="monospace" text-anchor="end" dominant-baseline="middle">PB5</text>
<line x1="210" y1="400" x2="190" y2="400" stroke="#ffd60a" stroke-width="1.5" stroke-linecap="round"/>
<text x="185" y="400" fill="#ffd60a" font-size="2" font-family="monospace" text-anchor="end" dominant-baseline="middle">PB6</text>
<line x1="210" y1="420" x2="190" y2="420" stroke="#ffd60a" stroke-width="1.5" stroke-linecap="round"/>
<text x="185" y="420" fill="#ffd60a" font-size="2" font-family="monospace" text-anchor="end" dominant-baseline="middle">PB7</text>
<line x1="210" y1="440" x2="190" y2="440" stroke="#ffd60a" stroke-width="1.5" stroke-linecap="round"/>
<text x="185" y="440" fill="#ffd60a" font-size="2" font-family="monospace" text-anchor="end" dominant-baseline="middle">PH3</text>
<line x1="210" y1="460" x2="190" y2="460" stroke="#ffd60a" stroke-width="1.5" stroke-linecap="round"/>
<text x="185" y="460" fill="#ffd60a" font-size="2" font-family="monospace" text-anchor="end" dominant-baseline="middle">PB8</text>
<line x1="64" y1="30" x2="64" y2="50" stroke="#ffd60a" stroke-width="1.5" stroke-linecap="round"/>
<text x="64" y="25" fill="#ffd60a" font-size="2" font-family="monospace" text-anchor="middle" dominant-baseline="middle">VSSA</text>
<line x1="92" y1="30" x2="92" y2="50" stroke="#ffd60a" stroke-width="1.5" stroke-linecap="round"/>
<text x="92" y="25" fill="#ffd60a" font-size="2" font-family="monospace" text-anchor="middle" dominant-baseline="middle">VSS</text>
<line x1="120" y1="30" x2="120" y2="50" stroke="#ffd60a" stroke-width="1.5" stroke-linecap="round"/>
<text x="120" y="25" fill="#ffd60a" font-size="2" font-family="monospace" text-anchor="middle" dominant-baseline="middle">VSS</text>
<line x1="148" y1="30" x2="148" y2="50" stroke="#ffd60a" stroke-width="1.5" stroke-linecap="round"/>
<text x="148" y="25" fill="#ffd60a" font-size="2" font-family="monospace" text-anchor="middle" dominant-baseline="middle">VSS</text>
<line x1="176" y1="30" x2="176" y2="50" stroke="#ffd60a" stroke-width="1.5" stroke-linecap="round"/>
<text x="176" y="25" fill="#ffd60a" font-size="2" font-family="monospace" text-anchor="middle" dominant-baseline="middle">VSS</text>
<line x1="60" y1="490" x2="60" y2="470" stroke="#ffd60a" stroke-width="1.5" stroke-linecap="round"/>
<text x="60" y="504" fill="#ffd60a" font-size="2" font-family="monospace" text-anchor="middle" dominant-baseline="middle">VBAT</text>
<line x1="80" y1="490" x2="80" y2="470" stroke="#ffd60a" stroke-width="1.5" stroke-linecap="round"/>
<text x="80" y="504" fill="#ffd60a" font-size="2" font-family="monospace" text-anchor="middle" dominant-baseline="middle">VDDA</text>
<line x1="100" y1="490" x2="100" y2="470" stroke="#ffd60a" stroke-width="1.5" stroke-linecap="round"/>
<text x="100" y="504" fill="#ffd60a" font-size="2" font-family="monospace" text-anchor="middle" dominant-baseline="middle">VDD12</text>
<line x1="120" y1="490" x2="120" y2="470" stroke="#ffd60a" stroke-width="1.5" stroke-linecap="round"/>
<text x="120" y="504" fill="#ffd60a" font-size="2" font-family="monospace" text-anchor="middle" dominant-baseline="middle">VDD</text>
<line x1="140" y1="490" x2="140" y2="470" stroke="#ffd60a" stroke-width="1.5" stroke-linecap="round"/>
<text x="140" y="504" fill="#ffd60a" font-size="2" font-family="monospace" text-anchor="middle" dominant-baseline="middle">VDD</text>
<line x1="160" y1="490" x2="160" y2="470" stroke="#ffd60a" stroke-width="1.5" stroke-linecap="round"/>
<text x="160" y="504" fill="#ffd60a" font-size="2" font-family="monospace" text-anchor="middle" dominant-baseline="middle">VDD12</text>
<line x1="180" y1="490" x2="180" y2="470" stroke="#ffd60a" stroke-width="1.5" stroke-linecap="round"/>
<text x="180" y="504" fill="#ffd60a" font-size="2" font-family="monospace" text-anchor="middle" dominant-baseline="middle">VDD</text>
</svg>