<svg xmlns="http://www.w3.org/2000/svg" viewBox="0 0 280 680">
<rect x="50" y="50" width="180" height="580" stroke="#ffffff" stroke-width="1.5" fill="rgba(255,255,255,0.04)"/>
<text x="140" y="340" fill="#888" font-size="3" font-family="monospace" text-anchor="middle" dominant-baseline="middle">U</text>
<line x1="30" y1="60" x2="50" y2="60" stroke="#ffd60a" stroke-width="1.5" stroke-linecap="round"/>
<text x="55" y="60" fill="#ffd60a" font-size="2" font-family="monospace" text-anchor="start" dominant-baseline="middle">PA0</text>
<line x1="30" y1="80" x2="50" y2="80" stroke="#ffd60a" stroke-width="1.5" stroke-linecap="round"/>
<text x="55" y="80" fill="#ffd60a" font-size="2" font-family="monospace" text-anchor="start" dominant-baseline="middle">PA1</text>
<line x1="30" y1="100" x2="50" y2="100" stroke="#ffd60a" stroke-width="1.5" stroke-linecap="round"/>
<text x="55" y="100" fill="#ffd60a" font-size="2" font-family="monospace" text-anchor="start" dominant-baseline="middle">PA2</text>
<line x1="30" y1="120" x2="50" y2="120" stroke="#ffd60a" stroke-width="1.5" stroke-linecap="round"/>
<text x="55" y="120" fill="#ffd60a" font-size="2" font-family="monospace" text-anchor="start" dominant-baseline="middle">PA3</text>
<line x1="30" y1="140" x2="50" y2="140" stroke="#ffd60a" stroke-width="1.5" stroke-linecap="round"/>
<text x="55" y="140" fill="#ffd60a" font-size="2" font-family="monospace" text-anchor="start" dominant-baseline="middle">PA4</text>
<line x1="30" y1="160" x2="50" y2="160" stroke="#ffd60a" stroke-width="1.5" stroke-linecap="round"/>
<text x="55" y="160" fill="#ffd60a" font-size="2" font-family="monospace" text-anchor="start" dominant-baseline="middle">PA5</text>
<line x1="30" y1="180" x2="50" y2="180" stroke="#ffd60a" stroke-width="1.5" stroke-linecap="round"/>
<text x="55" y="180" fill="#ffd60a" font-size="2" font-family="monospace" text-anchor="start" dominant-baseline="middle">PA6</text>
<line x1="30" y1="200" x2="50" y2="200" stroke="#ffd60a" stroke-width="1.5" stroke-linecap="round"/>
<text x="55" y="200" fill="#ffd60a" font-size="2" font-family="monospace" text-anchor="start" dominant-baseline="middle">PA7</text>
<line x1="30" y1="219.99999999999997" x2="50" y2="219.99999999999997" stroke="#ffd60a" stroke-width="1.5" stroke-linecap="round"/>
<text x="55" y="219.99999999999997" fill="#ffd60a" font-size="2" font-family="monospace" text-anchor="start" dominant-baseline="middle">PB0</text>
<line x1="30" y1="240" x2="50" y2="240" stroke="#ffd60a" stroke-width="1.5" stroke-linecap="round"/>
<text x="55" y="240" fill="#ffd60a" font-size="2" font-family="monospace" text-anchor="start" dominant-baseline="middle">PB1</text>
<line x1="30" y1="260" x2="50" y2="260" stroke="#ffd60a" stroke-width="1.5" stroke-linecap="round"/>
<text x="55" y="260" fill="#ffd60a" font-size="2" font-family="monospace" text-anchor="start" dominant-baseline="middle">PB2</text>
<line x1="30" y1="280" x2="50" y2="280" stroke="#ffd60a" stroke-width="1.5" stroke-linecap="round"/>
<text x="55" y="280" fill="#ffd60a" font-size="2" font-family="monospace" text-anchor="start" dominant-baseline="middle">PB10</text>
<line x1="30" y1="300" x2="50" y2="300" stroke="#ffd60a" stroke-width="1.5" stroke-linecap="round"/>
<text x="55" y="300" fill="#ffd60a" font-size="2" font-family="monospace" text-anchor="start" dominant-baseline="middle">PB13</text>
<line x1="30" y1="320" x2="50" y2="320" stroke="#ffd60a" stroke-width="1.5" stroke-linecap="round"/>
<text x="55" y="320" fill="#ffd60a" font-size="2" font-family="monospace" text-anchor="start" dominant-baseline="middle">PB14</text>
<line x1="30" y1="340" x2="50" y2="340" stroke="#ffd60a" stroke-width="1.5" stroke-linecap="round"/>
<text x="55" y="340" fill="#ffd60a" font-size="2" font-family="monospace" text-anchor="start" dominant-baseline="middle">PB15</text>
<line x1="30" y1="360" x2="50" y2="360" stroke="#ffd60a" stroke-width="1.5" stroke-linecap="round"/>
<text x="55" y="360" fill="#ffd60a" font-size="2" font-family="monospace" text-anchor="start" dominant-baseline="middle">PA8</text>
<line x1="30" y1="380" x2="50" y2="380" stroke="#ffd60a" stroke-width="1.5" stroke-linecap="round"/>
<text x="55" y="380" fill="#ffd60a" font-size="2" font-family="monospace" text-anchor="start" dominant-baseline="middle">PA9</text>
<line x1="30" y1="400" x2="50" y2="400" stroke="#ffd60a" stroke-width="1.5" stroke-linecap="round"/>
<text x="55" y="400" fill="#ffd60a" font-size="2" font-family="monospace" text-anchor="start" dominant-baseline="middle">PA10</text>
<line x1="30" y1="420.00000000000006" x2="50" y2="420.00000000000006" stroke="#ffd60a" stroke-width="1.5" stroke-linecap="round"/>
<text x="55" y="420.00000000000006" fill="#ffd60a" font-size="2" font-family="monospace" text-anchor="start" dominant-baseline="middle">PA11</text>
<line x1="30" y1="440" x2="50" y2="440" stroke="#ffd60a" stroke-width="1.5" stroke-linecap="round"/>
<text x="55" y="440" fill="#ffd60a" font-size="2" font-family="monospace" text-anchor="start" dominant-baseline="middle">PA12</text>
<line x1="30" y1="460" x2="50" y2="460" stroke="#ffd60a" stroke-width="1.5" stroke-linecap="round"/>
<text x="55" y="460" fill="#ffd60a" font-size="2" font-family="monospace" text-anchor="start" dominant-baseline="middle">PA13</text>
<line x1="30" y1="480" x2="50" y2="480" stroke="#ffd60a" stroke-width="1.5" stroke-linecap="round"/>
<text x="55" y="480" fill="#ffd60a" font-size="2" font-family="monospace" text-anchor="start" dominant-baseline="middle">PA14</text>
<line x1="30" y1="500" x2="50" y2="500" stroke="#ffd60a" stroke-width="1.5" stroke-linecap="round"/>
<text x="55" y="500" fill="#ffd60a" font-size="2" font-family="monospace" text-anchor="start" dominant-baseline="middle">PA15</text>
<line x1="30" y1="520" x2="50" y2="520" stroke="#ffd60a" stroke-width="1.5" stroke-linecap="round"/>
<text x="55" y="520" fill="#ffd60a" font-size="2" font-family="monospace" text-anchor="start" dominant-baseline="middle">PB3</text>
<line x1="30" y1="540" x2="50" y2="540" stroke="#ffd60a" stroke-width="1.5" stroke-linecap="round"/>
<text x="55" y="540" fill="#ffd60a" font-size="2" font-family="monospace" text-anchor="start" dominant-baseline="middle">PB4</text>
<line x1="30" y1="560" x2="50" y2="560" stroke="#ffd60a" stroke-width="1.5" stroke-linecap="round"/>
<text x="55" y="560" fill="#ffd60a" font-size="2" font-family="monospace" text-anchor="start" dominant-baseline="middle">PB5</text>
<line x1="30" y1="580" x2="50" y2="580" stroke="#ffd60a" stroke-width="1.5" stroke-linecap="round"/>
<text x="55" y="580" fill="#ffd60a" font-size="2" font-family="monospace" text-anchor="start" dominant-baseline="middle">PB6</text>
<line x1="30" y1="600" x2="50" y2="600" stroke="#ffd60a" stroke-width="1.5" stroke-linecap="round"/>
<text x="55" y="600" fill="#ffd60a" font-size="2" font-family="monospace" text-anchor="start" dominant-baseline="middle">PB7</text>
<line x1="30" y1="620" x2="50" y2="620" stroke="#ffd60a" stroke-width="1.5" stroke-linecap="round"/>
<text x="55" y="620" fill="#ffd60a" font-size="2" font-family="monospace" text-anchor="start" dominant-baseline="middle">PB8</text>
<line x1="250" y1="64.5" x2="230" y2="64.5" stroke="#ffd60a" stroke-width="1.5" stroke-linecap="round"/>
<text x="225" y="64.5" fill="#ffd60a" font-size="2" font-family="monospace" text-anchor="end" dominant-baseline="middle">PC13</text>
<line x1="250" y1="93.5" x2="230" y2="93.5" stroke="#ffd60a" stroke-width="1.5" stroke-linecap="round"/>
<text x="225" y="93.5" fill="#ffd60a" font-size="2" font-family="monospace" text-anchor="end" dominant-baseline="middle">PC14</text>
<line x1="250" y1="122.5" x2="230" y2="122.5" stroke="#ffd60a" stroke-width="1.5" stroke-linecap="round"/>
<text x="225" y="122.5" fill="#ffd60a" font-size="2" font-family="monospace" text-anchor="end" dominant-baseline="middle">PC15</text>
<line x1="250" y1="151.5" x2="230" y2="151.5" stroke="#ffd60a" stroke-width="1.5" stroke-linecap="round"/>
<text x="225" y="151.5" fill="#ffd60a" font-size="2" font-family="monospace" text-anchor="end" dominant-baseline="middle">PH0</text>
<line x1="250" y1="180.5" x2="230" y2="180.5" stroke="#ffd60a" stroke-width="1.5" stroke-linecap="round"/>
<text x="225" y="180.5" fill="#ffd60a" font-size="2" font-family="monospace" text-anchor="end" dominant-baseline="middle">PH1</text>
<line x1="250" y1="209.5" x2="230" y2="209.5" stroke="#ffd60a" stroke-width="1.5" stroke-linecap="round"/>
<text x="225" y="209.5" fill="#ffd60a" font-size="2" font-family="monospace" text-anchor="end" dominant-baseline="middle">NRST</text>
<line x1="250" y1="238.5" x2="230" y2="238.5" stroke="#ffd60a" stroke-width="1.5" stroke-linecap="round"/>
<text x="225" y="238.5" fill="#ffd60a" font-size="2" font-family="monospace" text-anchor="end" dominant-baseline="middle">PC0</text>
<line x1="250" y1="267.5" x2="230" y2="267.5" stroke="#ffd60a" stroke-width="1.5" stroke-linecap="round"/>
<text x="225" y="267.5" fill="#ffd60a" font-size="2" font-family="monospace" text-anchor="end" dominant-baseline="middle">PC1</text>
<line x1="250" y1="296.5" x2="230" y2="296.5" stroke="#ffd60a" stroke-width="1.5" stroke-linecap="round"/>
<text x="225" y="296.5" fill="#ffd60a" font-size="2" font-family="monospace" text-anchor="end" dominant-baseline="middle">PC2</text>
<line x1="250" y1="325.5" x2="230" y2="325.5" stroke="#ffd60a" stroke-width="1.5" stroke-linecap="round"/>
<text x="225" y="325.5" fill="#ffd60a" font-size="2" font-family="monospace" text-anchor="end" dominant-baseline="middle">PC3</text>
<line x1="250" y1="354.5" x2="230" y2="354.5" stroke="#ffd60a" stroke-width="1.5" stroke-linecap="round"/>
<text x="225" y="354.5" fill="#ffd60a" font-size="2" font-family="monospace" text-anchor="end" dominant-baseline="middle">VLXSMPS</text>
<line x1="250" y1="383.5" x2="230" y2="383.5" stroke="#ffd60a" stroke-width="1.5" stroke-linecap="round"/>
<text x="225" y="383.5" fill="#ffd60a" font-size="2" font-family="monospace" text-anchor="end" dominant-baseline="middle">PC6</text>
<line x1="250" y1="412.5" x2="230" y2="412.5" stroke="#ffd60a" stroke-width="1.5" stroke-linecap="round"/>
<text x="225" y="412.5" fill="#ffd60a" font-size="2" font-family="monospace" text-anchor="end" dominant-baseline="middle">PC7</text>
<line x1="250" y1="441.5" x2="230" y2="441.5" stroke="#ffd60a" stroke-width="1.5" stroke-linecap="round"/>
<text x="225" y="441.5" fill="#ffd60a" font-size="2" font-family="monospace" text-anchor="end" dominant-baseline="middle">PC8</text>
<line x1="250" y1="470.5" x2="230" y2="470.5" stroke="#ffd60a" stroke-width="1.5" stroke-linecap="round"/>
<text x="225" y="470.5" fill="#ffd60a" font-size="2" font-family="monospace" text-anchor="end" dominant-baseline="middle">PC9</text>
<line x1="250" y1="499.5" x2="230" y2="499.5" stroke="#ffd60a" stroke-width="1.5" stroke-linecap="round"/>
<text x="225" y="499.5" fill="#ffd60a" font-size="2" font-family="monospace" text-anchor="end" dominant-baseline="middle">PC10</text>
<line x1="250" y1="528.5" x2="230" y2="528.5" stroke="#ffd60a" stroke-width="1.5" stroke-linecap="round"/>
<text x="225" y="528.5" fill="#ffd60a" font-size="2" font-family="monospace" text-anchor="end" dominant-baseline="middle">PC11</text>
<line x1="250" y1="557.5" x2="230" y2="557.5" stroke="#ffd60a" stroke-width="1.5" stroke-linecap="round"/>
<text x="225" y="557.5" fill="#ffd60a" font-size="2" font-family="monospace" text-anchor="end" dominant-baseline="middle">PC12</text>
<line x1="250" y1="586.5" x2="230" y2="586.5" stroke="#ffd60a" stroke-width="1.5" stroke-linecap="round"/>
<text x="225" y="586.5" fill="#ffd60a" font-size="2" font-family="monospace" text-anchor="end" dominant-baseline="middle">PD2</text>
<line x1="250" y1="615.5" x2="230" y2="615.5" stroke="#ffd60a" stroke-width="1.5" stroke-linecap="round"/>
<text x="225" y="615.5" fill="#ffd60a" font-size="2" font-family="monospace" text-anchor="end" dominant-baseline="middle">PH3</text>
<line x1="65" y1="30" x2="65" y2="50" stroke="#ffd60a" stroke-width="1.5" stroke-linecap="round"/>
<text x="65" y="25" fill="#ffd60a" font-size="2" font-family="monospace" text-anchor="middle" dominant-baseline="middle">VSSA</text>
<line x1="95" y1="30" x2="95" y2="50" stroke="#ffd60a" stroke-width="1.5" stroke-linecap="round"/>
<text x="95" y="25" fill="#ffd60a" font-size="2" font-family="monospace" text-anchor="middle" dominant-baseline="middle">VSS</text>
<line x1="125" y1="30" x2="125" y2="50" stroke="#ffd60a" stroke-width="1.5" stroke-linecap="round"/>
<text x="125" y="25" fill="#ffd60a" font-size="2" font-family="monospace" text-anchor="middle" dominant-baseline="middle">VSSSMPS</text>
<line x1="155" y1="30" x2="155" y2="50" stroke="#ffd60a" stroke-width="1.5" stroke-linecap="round"/>
<text x="155" y="25" fill="#ffd60a" font-size="2" font-family="monospace" text-anchor="middle" dominant-baseline="middle">VSS</text>
<line x1="185" y1="30" x2="185" y2="50" stroke="#ffd60a" stroke-width="1.5" stroke-linecap="round"/>
<text x="185" y="25" fill="#ffd60a" font-size="2" font-family="monospace" text-anchor="middle" dominant-baseline="middle">VSS</text>
<line x1="215" y1="30" x2="215" y2="50" stroke="#ffd60a" stroke-width="1.5" stroke-linecap="round"/>
<text x="215" y="25" fill="#ffd60a" font-size="2" font-family="monospace" text-anchor="middle" dominant-baseline="middle">VSS</text>
<line x1="60" y1="650" x2="60" y2="630" stroke="#ffd60a" stroke-width="1.5" stroke-linecap="round"/>
<text x="60" y="664" fill="#ffd60a" font-size="2" font-family="monospace" text-anchor="middle" dominant-baseline="middle">VBAT</text>
<line x1="80" y1="650" x2="80" y2="630" stroke="#ffd60a" stroke-width="1.5" stroke-linecap="round"/>
<text x="80" y="664" fill="#ffd60a" font-size="2" font-family="monospace" text-anchor="middle" dominant-baseline="middle">VDDA</text>
<line x1="100" y1="650" x2="100" y2="630" stroke="#ffd60a" stroke-width="1.5" stroke-linecap="round"/>
<text x="100" y="664" fill="#ffd60a" font-size="2" font-family="monospace" text-anchor="middle" dominant-baseline="middle">VDD</text>
<line x1="120" y1="650" x2="120" y2="630" stroke="#ffd60a" stroke-width="1.5" stroke-linecap="round"/>
<text x="120" y="664" fill="#ffd60a" font-size="2" font-family="monospace" text-anchor="middle" dominant-baseline="middle">VDDSMPS</text>
<line x1="140" y1="650" x2="140" y2="630" stroke="#ffd60a" stroke-width="1.5" stroke-linecap="round"/>
<text x="140" y="664" fill="#ffd60a" font-size="2" font-family="monospace" text-anchor="middle" dominant-baseline="middle">VDD11</text>
<line x1="160" y1="650" x2="160" y2="630" stroke="#ffd60a" stroke-width="1.5" stroke-linecap="round"/>
<text x="160" y="664" fill="#ffd60a" font-size="2" font-family="monospace" text-anchor="middle" dominant-baseline="middle">VDD</text>
<line x1="180" y1="650" x2="180" y2="630" stroke="#ffd60a" stroke-width="1.5" stroke-linecap="round"/>
<text x="180" y="664" fill="#ffd60a" font-size="2" font-family="monospace" text-anchor="middle" dominant-baseline="middle">VDDUSB</text>
<line x1="200" y1="650" x2="200" y2="630" stroke="#ffd60a" stroke-width="1.5" stroke-linecap="round"/>
<text x="200" y="664" fill="#ffd60a" font-size="2" font-family="monospace" text-anchor="middle" dominant-baseline="middle">VDD11</text>
<line x1="220" y1="650" x2="220" y2="630" stroke="#ffd60a" stroke-width="1.5" stroke-linecap="round"/>
<text x="220" y="664" fill="#ffd60a" font-size="2" font-family="monospace" text-anchor="middle" dominant-baseline="middle">VDD</text>
</svg>