<svg xmlns="http://www.w3.org/2000/svg" viewBox="0 0 380 1020">
<rect x="50" y="50" width="280" height="920" stroke="#ffffff" stroke-width="1.5" fill="rgba(255,255,255,0.04)"/>
<text x="190" y="510" fill="#888" font-size="3" font-family="monospace" text-anchor="middle" dominant-baseline="middle">U</text>
<line x1="30" y1="60" x2="50" y2="60" stroke="#ffd60a" stroke-width="1.5" stroke-linecap="round"/>
<text x="55" y="60" fill="#ffd60a" font-size="2" font-family="monospace" text-anchor="start" dominant-baseline="middle">PC11</text>
<line x1="30" y1="80" x2="50" y2="80" stroke="#ffd60a" stroke-width="1.5" stroke-linecap="round"/>
<text x="55" y="80" fill="#ffd60a" font-size="2" font-family="monospace" text-anchor="start" dominant-baseline="middle">PB5</text>
<line x1="30" y1="100" x2="50" y2="100" stroke="#ffd60a" stroke-width="1.5" stroke-linecap="round"/>
<text x="55" y="100" fill="#ffd60a" font-size="2" font-family="monospace" text-anchor="start" dominant-baseline="middle">PB9</text>
<line x1="30" y1="120" x2="50" y2="120" stroke="#ffd60a" stroke-width="1.5" stroke-linecap="round"/>
<text x="55" y="120" fill="#ffd60a" font-size="2" font-family="monospace" text-anchor="start" dominant-baseline="middle">PA12</text>
<line x1="30" y1="140" x2="50" y2="140" stroke="#ffd60a" stroke-width="1.5" stroke-linecap="round"/>
<text x="55" y="140" fill="#ffd60a" font-size="2" font-family="monospace" text-anchor="start" dominant-baseline="middle">PC10</text>
<line x1="30" y1="160" x2="50" y2="160" stroke="#ffd60a" stroke-width="1.5" stroke-linecap="round"/>
<text x="55" y="160" fill="#ffd60a" font-size="2" font-family="monospace" text-anchor="start" dominant-baseline="middle">PB7</text>
<line x1="30" y1="180" x2="50" y2="180" stroke="#ffd60a" stroke-width="1.5" stroke-linecap="round"/>
<text x="55" y="180" fill="#ffd60a" font-size="2" font-family="monospace" text-anchor="start" dominant-baseline="middle">PA11</text>
<line x1="30" y1="200" x2="50" y2="200" stroke="#ffd60a" stroke-width="1.5" stroke-linecap="round"/>
<text x="55" y="200" fill="#ffd60a" font-size="2" font-family="monospace" text-anchor="start" dominant-baseline="middle">PA15</text>
<line x1="30" y1="220" x2="50" y2="220" stroke="#ffd60a" stroke-width="1.5" stroke-linecap="round"/>
<text x="55" y="220" fill="#ffd60a" font-size="2" font-family="monospace" text-anchor="start" dominant-baseline="middle">PB4</text>
<line x1="30" y1="240" x2="50" y2="240" stroke="#ffd60a" stroke-width="1.5" stroke-linecap="round"/>
<text x="55" y="240" fill="#ffd60a" font-size="2" font-family="monospace" text-anchor="start" dominant-baseline="middle">PA9</text>
<line x1="30" y1="260" x2="50" y2="260" stroke="#ffd60a" stroke-width="1.5" stroke-linecap="round"/>
<text x="55" y="260" fill="#ffd60a" font-size="2" font-family="monospace" text-anchor="start" dominant-baseline="middle">PA8</text>
<line x1="30" y1="280" x2="50" y2="280" stroke="#ffd60a" stroke-width="1.5" stroke-linecap="round"/>
<text x="55" y="280" fill="#ffd60a" font-size="2" font-family="monospace" text-anchor="start" dominant-baseline="middle">PA13</text>
<line x1="30" y1="300" x2="50" y2="300" stroke="#ffd60a" stroke-width="1.5" stroke-linecap="round"/>
<text x="55" y="300" fill="#ffd60a" font-size="2" font-family="monospace" text-anchor="start" dominant-baseline="middle">PA14</text>
<line x1="30" y1="320" x2="50" y2="320" stroke="#ffd60a" stroke-width="1.5" stroke-linecap="round"/>
<text x="55" y="320" fill="#ffd60a" font-size="2" font-family="monospace" text-anchor="start" dominant-baseline="middle">PC12</text>
<line x1="30" y1="340" x2="50" y2="340" stroke="#ffd60a" stroke-width="1.5" stroke-linecap="round"/>
<text x="55" y="340" fill="#ffd60a" font-size="2" font-family="monospace" text-anchor="start" dominant-baseline="middle">PC13</text>
<line x1="30" y1="360" x2="50" y2="360" stroke="#ffd60a" stroke-width="1.5" stroke-linecap="round"/>
<text x="55" y="360" fill="#ffd60a" font-size="2" font-family="monospace" text-anchor="start" dominant-baseline="middle">PC14</text>
<line x1="30" y1="380" x2="50" y2="380" stroke="#ffd60a" stroke-width="1.5" stroke-linecap="round"/>
<text x="55" y="380" fill="#ffd60a" font-size="2" font-family="monospace" text-anchor="start" dominant-baseline="middle">PC7</text>
<line x1="30" y1="400" x2="50" y2="400" stroke="#ffd60a" stroke-width="1.5" stroke-linecap="round"/>
<text x="55" y="400" fill="#ffd60a" font-size="2" font-family="monospace" text-anchor="start" dominant-baseline="middle">PC8</text>
<line x1="30" y1="420" x2="50" y2="420" stroke="#ffd60a" stroke-width="1.5" stroke-linecap="round"/>
<text x="55" y="420" fill="#ffd60a" font-size="2" font-family="monospace" text-anchor="start" dominant-baseline="middle">PC9</text>
<line x1="30" y1="440" x2="50" y2="440" stroke="#ffd60a" stroke-width="1.5" stroke-linecap="round"/>
<text x="55" y="440" fill="#ffd60a" font-size="2" font-family="monospace" text-anchor="start" dominant-baseline="middle">PA10</text>
<line x1="30" y1="460" x2="50" y2="460" stroke="#ffd60a" stroke-width="1.5" stroke-linecap="round"/>
<text x="55" y="460" fill="#ffd60a" font-size="2" font-family="monospace" text-anchor="start" dominant-baseline="middle">PB6</text>
<line x1="30" y1="480" x2="50" y2="480" stroke="#ffd60a" stroke-width="1.5" stroke-linecap="round"/>
<text x="55" y="480" fill="#ffd60a" font-size="2" font-family="monospace" text-anchor="start" dominant-baseline="middle">PC15</text>
<line x1="30" y1="500" x2="50" y2="500" stroke="#ffd60a" stroke-width="1.5" stroke-linecap="round"/>
<text x="55" y="500" fill="#ffd60a" font-size="2" font-family="monospace" text-anchor="start" dominant-baseline="middle">PC6</text>
<line x1="30" y1="520" x2="50" y2="520" stroke="#ffd60a" stroke-width="1.5" stroke-linecap="round"/>
<text x="55" y="520" fill="#ffd60a" font-size="2" font-family="monospace" text-anchor="start" dominant-baseline="middle">PB3</text>
<line x1="30" y1="540" x2="50" y2="540" stroke="#ffd60a" stroke-width="1.5" stroke-linecap="round"/>
<text x="55" y="540" fill="#ffd60a" font-size="2" font-family="monospace" text-anchor="start" dominant-baseline="middle">PA2</text>
<line x1="30" y1="560" x2="50" y2="560" stroke="#ffd60a" stroke-width="1.5" stroke-linecap="round"/>
<text x="55" y="560" fill="#ffd60a" font-size="2" font-family="monospace" text-anchor="start" dominant-baseline="middle">PC0</text>
<line x1="30" y1="580" x2="50" y2="580" stroke="#ffd60a" stroke-width="1.5" stroke-linecap="round"/>
<text x="55" y="580" fill="#ffd60a" font-size="2" font-family="monospace" text-anchor="start" dominant-baseline="middle">PC5</text>
<line x1="30" y1="600" x2="50" y2="600" stroke="#ffd60a" stroke-width="1.5" stroke-linecap="round"/>
<text x="55" y="600" fill="#ffd60a" font-size="2" font-family="monospace" text-anchor="start" dominant-baseline="middle">PA1</text>
<line x1="30" y1="620" x2="50" y2="620" stroke="#ffd60a" stroke-width="1.5" stroke-linecap="round"/>
<text x="55" y="620" fill="#ffd60a" font-size="2" font-family="monospace" text-anchor="start" dominant-baseline="middle">PC2</text>
<line x1="30" y1="640" x2="50" y2="640" stroke="#ffd60a" stroke-width="1.5" stroke-linecap="round"/>
<text x="55" y="640" fill="#ffd60a" font-size="2" font-family="monospace" text-anchor="start" dominant-baseline="middle">PB2</text>
<line x1="30" y1="660" x2="50" y2="660" stroke="#ffd60a" stroke-width="1.5" stroke-linecap="round"/>
<text x="55" y="660" fill="#ffd60a" font-size="2" font-family="monospace" text-anchor="start" dominant-baseline="middle">PA6</text>
<line x1="30" y1="680" x2="50" y2="680" stroke="#ffd60a" stroke-width="1.5" stroke-linecap="round"/>
<text x="55" y="680" fill="#ffd60a" font-size="2" font-family="monospace" text-anchor="start" dominant-baseline="middle">PA0</text>
<line x1="30" y1="700" x2="50" y2="700" stroke="#ffd60a" stroke-width="1.5" stroke-linecap="round"/>
<text x="55" y="700" fill="#ffd60a" font-size="2" font-family="monospace" text-anchor="start" dominant-baseline="middle">PC3</text>
<line x1="30" y1="720" x2="50" y2="720" stroke="#ffd60a" stroke-width="1.5" stroke-linecap="round"/>
<text x="55" y="720" fill="#ffd60a" font-size="2" font-family="monospace" text-anchor="start" dominant-baseline="middle">PC1</text>
<line x1="30" y1="740" x2="50" y2="740" stroke="#ffd60a" stroke-width="1.5" stroke-linecap="round"/>
<text x="55" y="740" fill="#ffd60a" font-size="2" font-family="monospace" text-anchor="start" dominant-baseline="middle">PB14</text>
<line x1="30" y1="760" x2="50" y2="760" stroke="#ffd60a" stroke-width="1.5" stroke-linecap="round"/>
<text x="55" y="760" fill="#ffd60a" font-size="2" font-family="monospace" text-anchor="start" dominant-baseline="middle">PB13</text>
<line x1="30" y1="780" x2="50" y2="780" stroke="#ffd60a" stroke-width="1.5" stroke-linecap="round"/>
<text x="55" y="780" fill="#ffd60a" font-size="2" font-family="monospace" text-anchor="start" dominant-baseline="middle">PB10</text>
<line x1="30" y1="800" x2="50" y2="800" stroke="#ffd60a" stroke-width="1.5" stroke-linecap="round"/>
<text x="55" y="800" fill="#ffd60a" font-size="2" font-family="monospace" text-anchor="start" dominant-baseline="middle">PB0</text>
<line x1="30" y1="820" x2="50" y2="820" stroke="#ffd60a" stroke-width="1.5" stroke-linecap="round"/>
<text x="55" y="820" fill="#ffd60a" font-size="2" font-family="monospace" text-anchor="start" dominant-baseline="middle">PA5</text>
<line x1="30" y1="840" x2="50" y2="840" stroke="#ffd60a" stroke-width="1.5" stroke-linecap="round"/>
<text x="55" y="840" fill="#ffd60a" font-size="2" font-family="monospace" text-anchor="start" dominant-baseline="middle">PB12</text>
<line x1="30" y1="860" x2="50" y2="860" stroke="#ffd60a" stroke-width="1.5" stroke-linecap="round"/>
<text x="55" y="860" fill="#ffd60a" font-size="2" font-family="monospace" text-anchor="start" dominant-baseline="middle">PC4</text>
<line x1="30" y1="880" x2="50" y2="880" stroke="#ffd60a" stroke-width="1.5" stroke-linecap="round"/>
<text x="55" y="880" fill="#ffd60a" font-size="2" font-family="monospace" text-anchor="start" dominant-baseline="middle">PB11</text>
<line x1="30" y1="900" x2="50" y2="900" stroke="#ffd60a" stroke-width="1.5" stroke-linecap="round"/>
<text x="55" y="900" fill="#ffd60a" font-size="2" font-family="monospace" text-anchor="start" dominant-baseline="middle">PB1</text>
<line x1="30" y1="920" x2="50" y2="920" stroke="#ffd60a" stroke-width="1.5" stroke-linecap="round"/>
<text x="55" y="920" fill="#ffd60a" font-size="2" font-family="monospace" text-anchor="start" dominant-baseline="middle">PA7</text>
<line x1="30" y1="940" x2="50" y2="940" stroke="#ffd60a" stroke-width="1.5" stroke-linecap="round"/>
<text x="55" y="940" fill="#ffd60a" font-size="2" font-family="monospace" text-anchor="start" dominant-baseline="middle">PA4</text>
<line x1="30" y1="960" x2="50" y2="960" stroke="#ffd60a" stroke-width="1.5" stroke-linecap="round"/>
<text x="55" y="960" fill="#ffd60a" font-size="2" font-family="monospace" text-anchor="start" dominant-baseline="middle">PA3</text>
<line x1="350" y1="60" x2="330" y2="60" stroke="#ffd60a" stroke-width="1.5" stroke-linecap="round"/>
<text x="325" y="60" fill="#ffd60a" font-size="2" font-family="monospace" text-anchor="end" dominant-baseline="middle">PD2</text>
<line x1="350" y1="80" x2="330" y2="80" stroke="#ffd60a" stroke-width="1.5" stroke-linecap="round"/>
<text x="325" y="80" fill="#ffd60a" font-size="2" font-family="monospace" text-anchor="end" dominant-baseline="middle">PG10</text>
<line x1="350" y1="100" x2="330" y2="100" stroke="#ffd60a" stroke-width="1.5" stroke-linecap="round"/>
<text x="325" y="100" fill="#ffd60a" font-size="2" font-family="monospace" text-anchor="end" dominant-baseline="middle">PG14</text>
<line x1="350" y1="120" x2="330" y2="120" stroke="#ffd60a" stroke-width="1.5" stroke-linecap="round"/>
<text x="325" y="120" fill="#ffd60a" font-size="2" font-family="monospace" text-anchor="end" dominant-baseline="middle">PD1</text>
<line x1="350" y1="140" x2="330" y2="140" stroke="#ffd60a" stroke-width="1.5" stroke-linecap="round"/>
<text x="325" y="140" fill="#ffd60a" font-size="2" font-family="monospace" text-anchor="end" dominant-baseline="middle">PG11</text>
<line x1="350" y1="160" x2="330" y2="160" stroke="#ffd60a" stroke-width="1.5" stroke-linecap="round"/>
<text x="325" y="160" fill="#ffd60a" font-size="2" font-family="monospace" text-anchor="end" dominant-baseline="middle">PE3</text>
<line x1="350" y1="180" x2="330" y2="180" stroke="#ffd60a" stroke-width="1.5" stroke-linecap="round"/>
<text x="325" y="180" fill="#ffd60a" font-size="2" font-family="monospace" text-anchor="end" dominant-baseline="middle">PE5</text>
<line x1="350" y1="200" x2="330" y2="200" stroke="#ffd60a" stroke-width="1.5" stroke-linecap="round"/>
<text x="325" y="200" fill="#ffd60a" font-size="2" font-family="monospace" text-anchor="end" dominant-baseline="middle">PD0</text>
<line x1="350" y1="220" x2="330" y2="220" stroke="#ffd60a" stroke-width="1.5" stroke-linecap="round"/>
<text x="325" y="220" fill="#ffd60a" font-size="2" font-family="monospace" text-anchor="end" dominant-baseline="middle">PD5</text>
<line x1="350" y1="240" x2="330" y2="240" stroke="#ffd60a" stroke-width="1.5" stroke-linecap="round"/>
<text x="325" y="240" fill="#ffd60a" font-size="2" font-family="monospace" text-anchor="end" dominant-baseline="middle">PG12</text>
<line x1="350" y1="260" x2="330" y2="260" stroke="#ffd60a" stroke-width="1.5" stroke-linecap="round"/>
<text x="325" y="260" fill="#ffd60a" font-size="2" font-family="monospace" text-anchor="end" dominant-baseline="middle">PE2</text>
<line x1="350" y1="280" x2="330" y2="280" stroke="#ffd60a" stroke-width="1.5" stroke-linecap="round"/>
<text x="325" y="280" fill="#ffd60a" font-size="2" font-family="monospace" text-anchor="end" dominant-baseline="middle">PE4</text>
<line x1="350" y1="300" x2="330" y2="300" stroke="#ffd60a" stroke-width="1.5" stroke-linecap="round"/>
<text x="325" y="300" fill="#ffd60a" font-size="2" font-family="monospace" text-anchor="end" dominant-baseline="middle">PD7</text>
<line x1="350" y1="320" x2="330" y2="320" stroke="#ffd60a" stroke-width="1.5" stroke-linecap="round"/>
<text x="325" y="320" fill="#ffd60a" font-size="2" font-family="monospace" text-anchor="end" dominant-baseline="middle">PG13</text>
<line x1="350" y1="340" x2="330" y2="340" stroke="#ffd60a" stroke-width="1.5" stroke-linecap="round"/>
<text x="325" y="340" fill="#ffd60a" font-size="2" font-family="monospace" text-anchor="end" dominant-baseline="middle">PH3</text>
<line x1="350" y1="360" x2="330" y2="360" stroke="#ffd60a" stroke-width="1.5" stroke-linecap="round"/>
<text x="325" y="360" fill="#ffd60a" font-size="2" font-family="monospace" text-anchor="end" dominant-baseline="middle">PE6</text>
<line x1="350" y1="380" x2="330" y2="380" stroke="#ffd60a" stroke-width="1.5" stroke-linecap="round"/>
<text x="325" y="380" fill="#ffd60a" font-size="2" font-family="monospace" text-anchor="end" dominant-baseline="middle">PD4</text>
<line x1="350" y1="400" x2="330" y2="400" stroke="#ffd60a" stroke-width="1.5" stroke-linecap="round"/>
<text x="325" y="400" fill="#ffd60a" font-size="2" font-family="monospace" text-anchor="end" dominant-baseline="middle">PG9</text>
<line x1="350" y1="420" x2="330" y2="420" stroke="#ffd60a" stroke-width="1.5" stroke-linecap="round"/>
<text x="325" y="420" fill="#ffd60a" font-size="2" font-family="monospace" text-anchor="end" dominant-baseline="middle">NRST</text>
<line x1="350" y1="440" x2="330" y2="440" stroke="#ffd60a" stroke-width="1.5" stroke-linecap="round"/>
<text x="325" y="440" fill="#ffd60a" font-size="2" font-family="monospace" text-anchor="end" dominant-baseline="middle">PG8</text>
<line x1="350" y1="460" x2="330" y2="460" stroke="#ffd60a" stroke-width="1.5" stroke-linecap="round"/>
<text x="325" y="460" fill="#ffd60a" font-size="2" font-family="monospace" text-anchor="end" dominant-baseline="middle">PG7</text>
<line x1="350" y1="480" x2="330" y2="480" stroke="#ffd60a" stroke-width="1.5" stroke-linecap="round"/>
<text x="325" y="480" fill="#ffd60a" font-size="2" font-family="monospace" text-anchor="end" dominant-baseline="middle">PD6</text>
<line x1="350" y1="500" x2="330" y2="500" stroke="#ffd60a" stroke-width="1.5" stroke-linecap="round"/>
<text x="325" y="500" fill="#ffd60a" font-size="2" font-family="monospace" text-anchor="end" dominant-baseline="middle">PH0</text>
<line x1="350" y1="520" x2="330" y2="520" stroke="#ffd60a" stroke-width="1.5" stroke-linecap="round"/>
<text x="325" y="520" fill="#ffd60a" font-size="2" font-family="monospace" text-anchor="end" dominant-baseline="middle">PG5</text>
<line x1="350" y1="540" x2="330" y2="540" stroke="#ffd60a" stroke-width="1.5" stroke-linecap="round"/>
<text x="325" y="540" fill="#ffd60a" font-size="2" font-family="monospace" text-anchor="end" dominant-baseline="middle">PG4</text>
<line x1="350" y1="560" x2="330" y2="560" stroke="#ffd60a" stroke-width="1.5" stroke-linecap="round"/>
<text x="325" y="560" fill="#ffd60a" font-size="2" font-family="monospace" text-anchor="end" dominant-baseline="middle">PG3</text>
<line x1="350" y1="580" x2="330" y2="580" stroke="#ffd60a" stroke-width="1.5" stroke-linecap="round"/>
<text x="325" y="580" fill="#ffd60a" font-size="2" font-family="monospace" text-anchor="end" dominant-baseline="middle">PG2</text>
<line x1="350" y1="600" x2="330" y2="600" stroke="#ffd60a" stroke-width="1.5" stroke-linecap="round"/>
<text x="325" y="600" fill="#ffd60a" font-size="2" font-family="monospace" text-anchor="end" dominant-baseline="middle">PG6</text>
<line x1="350" y1="620" x2="330" y2="620" stroke="#ffd60a" stroke-width="1.5" stroke-linecap="round"/>
<text x="325" y="620" fill="#ffd60a" font-size="2" font-family="monospace" text-anchor="end" dominant-baseline="middle">PG1</text>
<line x1="350" y1="640" x2="330" y2="640" stroke="#ffd60a" stroke-width="1.5" stroke-linecap="round"/>
<text x="325" y="640" fill="#ffd60a" font-size="2" font-family="monospace" text-anchor="end" dominant-baseline="middle">PH1</text>
<line x1="350" y1="660" x2="330" y2="660" stroke="#ffd60a" stroke-width="1.5" stroke-linecap="round"/>
<text x="325" y="660" fill="#ffd60a" font-size="2" font-family="monospace" text-anchor="end" dominant-baseline="middle">PD15</text>
<line x1="350" y1="680" x2="330" y2="680" stroke="#ffd60a" stroke-width="1.5" stroke-linecap="round"/>
<text x="325" y="680" fill="#ffd60a" font-size="2" font-family="monospace" text-anchor="end" dominant-baseline="middle">PD14</text>
<line x1="350" y1="700" x2="330" y2="700" stroke="#ffd60a" stroke-width="1.5" stroke-linecap="round"/>
<text x="325" y="700" fill="#ffd60a" font-size="2" font-family="monospace" text-anchor="end" dominant-baseline="middle">PD10</text>
<line x1="350" y1="720" x2="330" y2="720" stroke="#ffd60a" stroke-width="1.5" stroke-linecap="round"/>
<text x="325" y="720" fill="#ffd60a" font-size="2" font-family="monospace" text-anchor="end" dominant-baseline="middle">PD9</text>
<line x1="350" y1="740" x2="330" y2="740" stroke="#ffd60a" stroke-width="1.5" stroke-linecap="round"/>
<text x="325" y="740" fill="#ffd60a" font-size="2" font-family="monospace" text-anchor="end" dominant-baseline="middle">PE13</text>
<line x1="350" y1="760" x2="330" y2="760" stroke="#ffd60a" stroke-width="1.5" stroke-linecap="round"/>
<text x="325" y="760" fill="#ffd60a" font-size="2" font-family="monospace" text-anchor="end" dominant-baseline="middle">PE9</text>
<line x1="350" y1="780" x2="330" y2="780" stroke="#ffd60a" stroke-width="1.5" stroke-linecap="round"/>
<text x="325" y="780" fill="#ffd60a" font-size="2" font-family="monospace" text-anchor="end" dominant-baseline="middle">PD8</text>
<line x1="350" y1="800" x2="330" y2="800" stroke="#ffd60a" stroke-width="1.5" stroke-linecap="round"/>
<text x="325" y="800" fill="#ffd60a" font-size="2" font-family="monospace" text-anchor="end" dominant-baseline="middle">PE12</text>
<line x1="350" y1="820" x2="330" y2="820" stroke="#ffd60a" stroke-width="1.5" stroke-linecap="round"/>
<text x="325" y="820" fill="#ffd60a" font-size="2" font-family="monospace" text-anchor="end" dominant-baseline="middle">PG0</text>
<line x1="350" y1="840" x2="330" y2="840" stroke="#ffd60a" stroke-width="1.5" stroke-linecap="round"/>
<text x="325" y="840" fill="#ffd60a" font-size="2" font-family="monospace" text-anchor="end" dominant-baseline="middle">VREF+</text>
<line x1="350" y1="860" x2="330" y2="860" stroke="#ffd60a" stroke-width="1.5" stroke-linecap="round"/>
<text x="325" y="860" fill="#ffd60a" font-size="2" font-family="monospace" text-anchor="end" dominant-baseline="middle">PE14</text>
<line x1="350" y1="880" x2="330" y2="880" stroke="#ffd60a" stroke-width="1.5" stroke-linecap="round"/>
<text x="325" y="880" fill="#ffd60a" font-size="2" font-family="monospace" text-anchor="end" dominant-baseline="middle">PE10</text>
<line x1="350" y1="900" x2="330" y2="900" stroke="#ffd60a" stroke-width="1.5" stroke-linecap="round"/>
<text x="325" y="900" fill="#ffd60a" font-size="2" font-family="monospace" text-anchor="end" dominant-baseline="middle">PE7</text>
<line x1="350" y1="920" x2="330" y2="920" stroke="#ffd60a" stroke-width="1.5" stroke-linecap="round"/>
<text x="325" y="920" fill="#ffd60a" font-size="2" font-family="monospace" text-anchor="end" dominant-baseline="middle">PE15</text>
<line x1="350" y1="940" x2="330" y2="940" stroke="#ffd60a" stroke-width="1.5" stroke-linecap="round"/>
<text x="325" y="940" fill="#ffd60a" font-size="2" font-family="monospace" text-anchor="end" dominant-baseline="middle">PE11</text>
<line x1="350" y1="960" x2="330" y2="960" stroke="#ffd60a" stroke-width="1.5" stroke-linecap="round"/>
<text x="325" y="960" fill="#ffd60a" font-size="2" font-family="monospace" text-anchor="end" dominant-baseline="middle">PE8</text>
<line x1="65.55555555555556" y1="30" x2="65.55555555555556" y2="50" stroke="#ffd60a" stroke-width="1.5" stroke-linecap="round"/>
<text x="65.55555555555556" y="25" fill="#ffd60a" font-size="2" font-family="monospace" text-anchor="middle" dominant-baseline="middle">VSS</text>
<line x1="96.66666666666666" y1="30" x2="96.66666666666666" y2="50" stroke="#ffd60a" stroke-width="1.5" stroke-linecap="round"/>
<text x="96.66666666666666" y="25" fill="#ffd60a" font-size="2" font-family="monospace" text-anchor="middle" dominant-baseline="middle">VSS</text>
<line x1="127.77777777777779" y1="30" x2="127.77777777777779" y2="50" stroke="#ffd60a" stroke-width="1.5" stroke-linecap="round"/>
<text x="127.77777777777779" y="25" fill="#ffd60a" font-size="2" font-family="monospace" text-anchor="middle" dominant-baseline="middle">VSS</text>
<line x1="158.88888888888889" y1="30" x2="158.88888888888889" y2="50" stroke="#ffd60a" stroke-width="1.5" stroke-linecap="round"/>
<text x="158.88888888888889" y="25" fill="#ffd60a" font-size="2" font-family="monospace" text-anchor="middle" dominant-baseline="middle">VSS</text>
<line x1="190" y1="30" x2="190" y2="50" stroke="#ffd60a" stroke-width="1.5" stroke-linecap="round"/>
<text x="190" y="25" fill="#ffd60a" font-size="2" font-family="monospace" text-anchor="middle" dominant-baseline="middle">VSS</text>
<line x1="221.11111111111111" y1="30" x2="221.11111111111111" y2="50" stroke="#ffd60a" stroke-width="1.5" stroke-linecap="round"/>
<text x="221.11111111111111" y="25" fill="#ffd60a" font-size="2" font-family="monospace" text-anchor="middle" dominant-baseline="middle">VSSA</text>
<line x1="252.22222222222223" y1="30" x2="252.22222222222223" y2="50" stroke="#ffd60a" stroke-width="1.5" stroke-linecap="round"/>
<text x="252.22222222222223" y="25" fill="#ffd60a" font-size="2" font-family="monospace" text-anchor="middle" dominant-baseline="middle">VSS</text>
<line x1="283.33333333333337" y1="30" x2="283.33333333333337" y2="50" stroke="#ffd60a" stroke-width="1.5" stroke-linecap="round"/>
<text x="283.33333333333337" y="25" fill="#ffd60a" font-size="2" font-family="monospace" text-anchor="middle" dominant-baseline="middle">VSS</text>
<line x1="314.44444444444446" y1="30" x2="314.44444444444446" y2="50" stroke="#ffd60a" stroke-width="1.5" stroke-linecap="round"/>
<text x="314.44444444444446" y="25" fill="#ffd60a" font-size="2" font-family="monospace" text-anchor="middle" dominant-baseline="middle">VSS</text>
<line x1="60" y1="990" x2="60" y2="970" stroke="#ffd60a" stroke-width="1.5" stroke-linecap="round"/>
<text x="60" y="1004" fill="#ffd60a" font-size="2" font-family="monospace" text-anchor="middle" dominant-baseline="middle">VDD</text>
<line x1="80" y1="990" x2="80" y2="970" stroke="#ffd60a" stroke-width="1.5" stroke-linecap="round"/>
<text x="80" y="1004" fill="#ffd60a" font-size="2" font-family="monospace" text-anchor="middle" dominant-baseline="middle">VDD</text>
<line x1="100" y1="990" x2="100" y2="970" stroke="#ffd60a" stroke-width="1.5" stroke-linecap="round"/>
<text x="100" y="1004" fill="#ffd60a" font-size="2" font-family="monospace" text-anchor="middle" dominant-baseline="middle">VDD</text>
<line x1="120" y1="990" x2="120" y2="970" stroke="#ffd60a" stroke-width="1.5" stroke-linecap="round"/>
<text x="120" y="1004" fill="#ffd60a" font-size="2" font-family="monospace" text-anchor="middle" dominant-baseline="middle">VDDIO2</text>
<line x1="140" y1="990" x2="140" y2="970" stroke="#ffd60a" stroke-width="1.5" stroke-linecap="round"/>
<text x="140" y="1004" fill="#ffd60a" font-size="2" font-family="monospace" text-anchor="middle" dominant-baseline="middle">VDD12</text>
<line x1="160" y1="990" x2="160" y2="970" stroke="#ffd60a" stroke-width="1.5" stroke-linecap="round"/>
<text x="160" y="1004" fill="#ffd60a" font-size="2" font-family="monospace" text-anchor="middle" dominant-baseline="middle">VDDUSB</text>
<line x1="180" y1="990" x2="180" y2="970" stroke="#ffd60a" stroke-width="1.5" stroke-linecap="round"/>
<text x="180" y="1004" fill="#ffd60a" font-size="2" font-family="monospace" text-anchor="middle" dominant-baseline="middle">VBAT</text>
<line x1="200" y1="990" x2="200" y2="970" stroke="#ffd60a" stroke-width="1.5" stroke-linecap="round"/>
<text x="200" y="1004" fill="#ffd60a" font-size="2" font-family="monospace" text-anchor="middle" dominant-baseline="middle">VDDIO2</text>
<line x1="220" y1="990" x2="220" y2="970" stroke="#ffd60a" stroke-width="1.5" stroke-linecap="round"/>
<text x="220" y="1004" fill="#ffd60a" font-size="2" font-family="monospace" text-anchor="middle" dominant-baseline="middle">VDD</text>
<line x1="240" y1="990" x2="240" y2="970" stroke="#ffd60a" stroke-width="1.5" stroke-linecap="round"/>
<text x="240" y="1004" fill="#ffd60a" font-size="2" font-family="monospace" text-anchor="middle" dominant-baseline="middle">VDD</text>
<line x1="260" y1="990" x2="260" y2="970" stroke="#ffd60a" stroke-width="1.5" stroke-linecap="round"/>
<text x="260" y="1004" fill="#ffd60a" font-size="2" font-family="monospace" text-anchor="middle" dominant-baseline="middle">VDD</text>
<line x1="280" y1="990" x2="280" y2="970" stroke="#ffd60a" stroke-width="1.5" stroke-linecap="round"/>
<text x="280" y="1004" fill="#ffd60a" font-size="2" font-family="monospace" text-anchor="middle" dominant-baseline="middle">VDDA</text>
<line x1="300" y1="990" x2="300" y2="970" stroke="#ffd60a" stroke-width="1.5" stroke-linecap="round"/>
<text x="300" y="1004" fill="#ffd60a" font-size="2" font-family="monospace" text-anchor="middle" dominant-baseline="middle">VDD12</text>
<line x1="320" y1="990" x2="320" y2="970" stroke="#ffd60a" stroke-width="1.5" stroke-linecap="round"/>
<text x="320" y="1004" fill="#ffd60a" font-size="2" font-family="monospace" text-anchor="middle" dominant-baseline="middle">VDD</text>
</svg>