<svg xmlns="http://www.w3.org/2000/svg" viewBox="0 0 200 560">
<rect x="50" y="50" width="100" height="460" stroke="#ffffff" stroke-width="1.5" fill="rgba(255,255,255,0.04)"/>
<text x="100" y="280" fill="#888" font-size="3" font-family="monospace" text-anchor="middle" dominant-baseline="middle">U</text>
<line x1="30" y1="64.375" x2="50" y2="64.375" stroke="#ffd60a" stroke-width="1.5" stroke-linecap="round"/>
<text x="55" y="64.375" fill="#ffd60a" font-size="2" font-family="monospace" text-anchor="start" dominant-baseline="middle">PA0</text>
<line x1="30" y1="93.125" x2="50" y2="93.125" stroke="#ffd60a" stroke-width="1.5" stroke-linecap="round"/>
<text x="55" y="93.125" fill="#ffd60a" font-size="2" font-family="monospace" text-anchor="start" dominant-baseline="middle">PA1</text>
<line x1="30" y1="121.875" x2="50" y2="121.875" stroke="#ffd60a" stroke-width="1.5" stroke-linecap="round"/>
<text x="55" y="121.875" fill="#ffd60a" font-size="2" font-family="monospace" text-anchor="start" dominant-baseline="middle">PA2</text>
<line x1="30" y1="150.625" x2="50" y2="150.625" stroke="#ffd60a" stroke-width="1.5" stroke-linecap="round"/>
<text x="55" y="150.625" fill="#ffd60a" font-size="2" font-family="monospace" text-anchor="start" dominant-baseline="middle">PA3</text>
<line x1="30" y1="179.375" x2="50" y2="179.375" stroke="#ffd60a" stroke-width="1.5" stroke-linecap="round"/>
<text x="55" y="179.375" fill="#ffd60a" font-size="2" font-family="monospace" text-anchor="start" dominant-baseline="middle">PA4</text>
<line x1="30" y1="208.125" x2="50" y2="208.125" stroke="#ffd60a" stroke-width="1.5" stroke-linecap="round"/>
<text x="55" y="208.125" fill="#ffd60a" font-size="2" font-family="monospace" text-anchor="start" dominant-baseline="middle">PA5</text>
<line x1="30" y1="236.875" x2="50" y2="236.875" stroke="#ffd60a" stroke-width="1.5" stroke-linecap="round"/>
<text x="55" y="236.875" fill="#ffd60a" font-size="2" font-family="monospace" text-anchor="start" dominant-baseline="middle">PA6</text>
<line x1="30" y1="265.625" x2="50" y2="265.625" stroke="#ffd60a" stroke-width="1.5" stroke-linecap="round"/>
<text x="55" y="265.625" fill="#ffd60a" font-size="2" font-family="monospace" text-anchor="start" dominant-baseline="middle">PA7</text>
<line x1="30" y1="294.375" x2="50" y2="294.375" stroke="#ffd60a" stroke-width="1.5" stroke-linecap="round"/>
<text x="55" y="294.375" fill="#ffd60a" font-size="2" font-family="monospace" text-anchor="start" dominant-baseline="middle">PA8</text>
<line x1="30" y1="323.125" x2="50" y2="323.125" stroke="#ffd60a" stroke-width="1.5" stroke-linecap="round"/>
<text x="55" y="323.125" fill="#ffd60a" font-size="2" font-family="monospace" text-anchor="start" dominant-baseline="middle">PA9</text>
<line x1="30" y1="351.875" x2="50" y2="351.875" stroke="#ffd60a" stroke-width="1.5" stroke-linecap="round"/>
<text x="55" y="351.875" fill="#ffd60a" font-size="2" font-family="monospace" text-anchor="start" dominant-baseline="middle">PA10</text>
<line x1="30" y1="380.625" x2="50" y2="380.625" stroke="#ffd60a" stroke-width="1.5" stroke-linecap="round"/>
<text x="55" y="380.625" fill="#ffd60a" font-size="2" font-family="monospace" text-anchor="start" dominant-baseline="middle">PA11</text>
<line x1="30" y1="409.375" x2="50" y2="409.375" stroke="#ffd60a" stroke-width="1.5" stroke-linecap="round"/>
<text x="55" y="409.375" fill="#ffd60a" font-size="2" font-family="monospace" text-anchor="start" dominant-baseline="middle">PA12</text>
<line x1="30" y1="438.125" x2="50" y2="438.125" stroke="#ffd60a" stroke-width="1.5" stroke-linecap="round"/>
<text x="55" y="438.125" fill="#ffd60a" font-size="2" font-family="monospace" text-anchor="start" dominant-baseline="middle">PA13</text>
<line x1="30" y1="466.875" x2="50" y2="466.875" stroke="#ffd60a" stroke-width="1.5" stroke-linecap="round"/>
<text x="55" y="466.875" fill="#ffd60a" font-size="2" font-family="monospace" text-anchor="start" dominant-baseline="middle">PA14</text>
<line x1="30" y1="495.625" x2="50" y2="495.625" stroke="#ffd60a" stroke-width="1.5" stroke-linecap="round"/>
<text x="55" y="495.625" fill="#ffd60a" font-size="2" font-family="monospace" text-anchor="start" dominant-baseline="middle">PA15</text>
<line x1="170" y1="60" x2="150" y2="60" stroke="#ffd60a" stroke-width="1.5" stroke-linecap="round"/>
<text x="145" y="60" fill="#ffd60a" font-size="2" font-family="monospace" text-anchor="end" dominant-baseline="middle">PC13</text>
<line x1="170" y1="80" x2="150" y2="80" stroke="#ffd60a" stroke-width="1.5" stroke-linecap="round"/>
<text x="145" y="80" fill="#ffd60a" font-size="2" font-family="monospace" text-anchor="end" dominant-baseline="middle">PC14</text>
<line x1="170" y1="100" x2="150" y2="100" stroke="#ffd60a" stroke-width="1.5" stroke-linecap="round"/>
<text x="145" y="100" fill="#ffd60a" font-size="2" font-family="monospace" text-anchor="end" dominant-baseline="middle">PC15</text>
<line x1="170" y1="120" x2="150" y2="120" stroke="#ffd60a" stroke-width="1.5" stroke-linecap="round"/>
<text x="145" y="120" fill="#ffd60a" font-size="2" font-family="monospace" text-anchor="end" dominant-baseline="middle">PF0</text>
<line x1="170" y1="140" x2="150" y2="140" stroke="#ffd60a" stroke-width="1.5" stroke-linecap="round"/>
<text x="145" y="140" fill="#ffd60a" font-size="2" font-family="monospace" text-anchor="end" dominant-baseline="middle">PF1</text>
<line x1="170" y1="160" x2="150" y2="160" stroke="#ffd60a" stroke-width="1.5" stroke-linecap="round"/>
<text x="145" y="160" fill="#ffd60a" font-size="2" font-family="monospace" text-anchor="end" dominant-baseline="middle">NRST</text>
<line x1="170" y1="180" x2="150" y2="180" stroke="#ffd60a" stroke-width="1.5" stroke-linecap="round"/>
<text x="145" y="180" fill="#ffd60a" font-size="2" font-family="monospace" text-anchor="end" dominant-baseline="middle">PB0</text>
<line x1="170" y1="200" x2="150" y2="200" stroke="#ffd60a" stroke-width="1.5" stroke-linecap="round"/>
<text x="145" y="200" fill="#ffd60a" font-size="2" font-family="monospace" text-anchor="end" dominant-baseline="middle">PB1</text>
<line x1="170" y1="220" x2="150" y2="220" stroke="#ffd60a" stroke-width="1.5" stroke-linecap="round"/>
<text x="145" y="220" fill="#ffd60a" font-size="2" font-family="monospace" text-anchor="end" dominant-baseline="middle">NPOR</text>
<line x1="170" y1="240" x2="150" y2="240" stroke="#ffd60a" stroke-width="1.5" stroke-linecap="round"/>
<text x="145" y="240" fill="#ffd60a" font-size="2" font-family="monospace" text-anchor="end" dominant-baseline="middle">PB10</text>
<line x1="170" y1="260" x2="150" y2="260" stroke="#ffd60a" stroke-width="1.5" stroke-linecap="round"/>
<text x="145" y="260" fill="#ffd60a" font-size="2" font-family="monospace" text-anchor="end" dominant-baseline="middle">PB11</text>
<line x1="170" y1="280" x2="150" y2="280" stroke="#ffd60a" stroke-width="1.5" stroke-linecap="round"/>
<text x="145" y="280" fill="#ffd60a" font-size="2" font-family="monospace" text-anchor="end" dominant-baseline="middle">PB12</text>
<line x1="170" y1="300" x2="150" y2="300" stroke="#ffd60a" stroke-width="1.5" stroke-linecap="round"/>
<text x="145" y="300" fill="#ffd60a" font-size="2" font-family="monospace" text-anchor="end" dominant-baseline="middle">PB13</text>
<line x1="170" y1="320" x2="150" y2="320" stroke="#ffd60a" stroke-width="1.5" stroke-linecap="round"/>
<text x="145" y="320" fill="#ffd60a" font-size="2" font-family="monospace" text-anchor="end" dominant-baseline="middle">PB14</text>
<line x1="170" y1="340" x2="150" y2="340" stroke="#ffd60a" stroke-width="1.5" stroke-linecap="round"/>
<text x="145" y="340" fill="#ffd60a" font-size="2" font-family="monospace" text-anchor="end" dominant-baseline="middle">PB15</text>
<line x1="170" y1="360" x2="150" y2="360" stroke="#ffd60a" stroke-width="1.5" stroke-linecap="round"/>
<text x="145" y="360" fill="#ffd60a" font-size="2" font-family="monospace" text-anchor="end" dominant-baseline="middle">PB3</text>
<line x1="170" y1="380" x2="150" y2="380" stroke="#ffd60a" stroke-width="1.5" stroke-linecap="round"/>
<text x="145" y="380" fill="#ffd60a" font-size="2" font-family="monospace" text-anchor="end" dominant-baseline="middle">PB4</text>
<line x1="170" y1="400" x2="150" y2="400" stroke="#ffd60a" stroke-width="1.5" stroke-linecap="round"/>
<text x="145" y="400" fill="#ffd60a" font-size="2" font-family="monospace" text-anchor="end" dominant-baseline="middle">PB5</text>
<line x1="170" y1="420" x2="150" y2="420" stroke="#ffd60a" stroke-width="1.5" stroke-linecap="round"/>
<text x="145" y="420" fill="#ffd60a" font-size="2" font-family="monospace" text-anchor="end" dominant-baseline="middle">PB6</text>
<line x1="170" y1="440" x2="150" y2="440" stroke="#ffd60a" stroke-width="1.5" stroke-linecap="round"/>
<text x="145" y="440" fill="#ffd60a" font-size="2" font-family="monospace" text-anchor="end" dominant-baseline="middle">PB7</text>
<line x1="170" y1="460" x2="150" y2="460" stroke="#ffd60a" stroke-width="1.5" stroke-linecap="round"/>
<text x="145" y="460" fill="#ffd60a" font-size="2" font-family="monospace" text-anchor="end" dominant-baseline="middle">BOOT0</text>
<line x1="170" y1="480" x2="150" y2="480" stroke="#ffd60a" stroke-width="1.5" stroke-linecap="round"/>
<text x="145" y="480" fill="#ffd60a" font-size="2" font-family="monospace" text-anchor="end" dominant-baseline="middle">PB8</text>
<line x1="170" y1="500" x2="150" y2="500" stroke="#ffd60a" stroke-width="1.5" stroke-linecap="round"/>
<text x="145" y="500" fill="#ffd60a" font-size="2" font-family="monospace" text-anchor="end" dominant-baseline="middle">PB9</text>
<line x1="62.5" y1="30" x2="62.5" y2="50" stroke="#ffd60a" stroke-width="1.5" stroke-linecap="round"/>
<text x="62.5" y="25" fill="#ffd60a" font-size="2" font-family="monospace" text-anchor="middle" dominant-baseline="middle">VSSA</text>
<line x1="87.5" y1="30" x2="87.5" y2="50" stroke="#ffd60a" stroke-width="1.5" stroke-linecap="round"/>
<text x="87.5" y="25" fill="#ffd60a" font-size="2" font-family="monospace" text-anchor="middle" dominant-baseline="middle">VSS</text>
<line x1="112.5" y1="30" x2="112.5" y2="50" stroke="#ffd60a" stroke-width="1.5" stroke-linecap="round"/>
<text x="112.5" y="25" fill="#ffd60a" font-size="2" font-family="monospace" text-anchor="middle" dominant-baseline="middle">VSS</text>
<line x1="137.5" y1="30" x2="137.5" y2="50" stroke="#ffd60a" stroke-width="1.5" stroke-linecap="round"/>
<text x="137.5" y="25" fill="#ffd60a" font-size="2" font-family="monospace" text-anchor="middle" dominant-baseline="middle">VSS</text>
<line x1="60" y1="530" x2="60" y2="510" stroke="#ffd60a" stroke-width="1.5" stroke-linecap="round"/>
<text x="60" y="544" fill="#ffd60a" font-size="2" font-family="monospace" text-anchor="middle" dominant-baseline="middle">VBAT</text>
<line x1="80" y1="530" x2="80" y2="510" stroke="#ffd60a" stroke-width="1.5" stroke-linecap="round"/>
<text x="80" y="544" fill="#ffd60a" font-size="2" font-family="monospace" text-anchor="middle" dominant-baseline="middle">VDDA</text>
<line x1="100" y1="530" x2="100" y2="510" stroke="#ffd60a" stroke-width="1.5" stroke-linecap="round"/>
<text x="100" y="544" fill="#ffd60a" font-size="2" font-family="monospace" text-anchor="middle" dominant-baseline="middle">VDD</text>
<line x1="120" y1="530" x2="120" y2="510" stroke="#ffd60a" stroke-width="1.5" stroke-linecap="round"/>
<text x="120" y="544" fill="#ffd60a" font-size="2" font-family="monospace" text-anchor="middle" dominant-baseline="middle">VDD</text>
<line x1="140" y1="530" x2="140" y2="510" stroke="#ffd60a" stroke-width="1.5" stroke-linecap="round"/>
<text x="140" y="544" fill="#ffd60a" font-size="2" font-family="monospace" text-anchor="middle" dominant-baseline="middle">VDD</text>
</svg>