<svg xmlns="http://www.w3.org/2000/svg" viewBox="0 0 300 500">
<rect x="50" y="50" width="200" height="400" stroke="#ffffff" stroke-width="1.5" fill="rgba(255,255,255,0.04)"/>
<text x="150" y="250" fill="#888" font-size="3" font-family="monospace" text-anchor="middle" dominant-baseline="middle">U</text>
<line x1="30" y1="62.5" x2="50" y2="62.5" stroke="#ffd60a" stroke-width="1.5" stroke-linecap="round"/>
<text x="55" y="62.5" fill="#ffd60a" font-size="2" font-family="monospace" text-anchor="start" dominant-baseline="middle">PA0</text>
<line x1="30" y1="87.5" x2="50" y2="87.5" stroke="#ffd60a" stroke-width="1.5" stroke-linecap="round"/>
<text x="55" y="87.5" fill="#ffd60a" font-size="2" font-family="monospace" text-anchor="start" dominant-baseline="middle">PA1</text>
<line x1="30" y1="112.5" x2="50" y2="112.5" stroke="#ffd60a" stroke-width="1.5" stroke-linecap="round"/>
<text x="55" y="112.5" fill="#ffd60a" font-size="2" font-family="monospace" text-anchor="start" dominant-baseline="middle">PA2</text>
<line x1="30" y1="137.5" x2="50" y2="137.5" stroke="#ffd60a" stroke-width="1.5" stroke-linecap="round"/>
<text x="55" y="137.5" fill="#ffd60a" font-size="2" font-family="monospace" text-anchor="start" dominant-baseline="middle">PA3</text>
<line x1="30" y1="162.5" x2="50" y2="162.5" stroke="#ffd60a" stroke-width="1.5" stroke-linecap="round"/>
<text x="55" y="162.5" fill="#ffd60a" font-size="2" font-family="monospace" text-anchor="start" dominant-baseline="middle">PA4</text>
<line x1="30" y1="187.5" x2="50" y2="187.5" stroke="#ffd60a" stroke-width="1.5" stroke-linecap="round"/>
<text x="55" y="187.5" fill="#ffd60a" font-size="2" font-family="monospace" text-anchor="start" dominant-baseline="middle">PA5</text>
<line x1="30" y1="212.5" x2="50" y2="212.5" stroke="#ffd60a" stroke-width="1.5" stroke-linecap="round"/>
<text x="55" y="212.5" fill="#ffd60a" font-size="2" font-family="monospace" text-anchor="start" dominant-baseline="middle">PA6</text>
<line x1="30" y1="237.5" x2="50" y2="237.5" stroke="#ffd60a" stroke-width="1.5" stroke-linecap="round"/>
<text x="55" y="237.5" fill="#ffd60a" font-size="2" font-family="monospace" text-anchor="start" dominant-baseline="middle">PA7</text>
<line x1="30" y1="262.5" x2="50" y2="262.5" stroke="#ffd60a" stroke-width="1.5" stroke-linecap="round"/>
<text x="55" y="262.5" fill="#ffd60a" font-size="2" font-family="monospace" text-anchor="start" dominant-baseline="middle">PA8</text>
<line x1="30" y1="287.5" x2="50" y2="287.5" stroke="#ffd60a" stroke-width="1.5" stroke-linecap="round"/>
<text x="55" y="287.5" fill="#ffd60a" font-size="2" font-family="monospace" text-anchor="start" dominant-baseline="middle">PA9</text>
<line x1="30" y1="312.5" x2="50" y2="312.5" stroke="#ffd60a" stroke-width="1.5" stroke-linecap="round"/>
<text x="55" y="312.5" fill="#ffd60a" font-size="2" font-family="monospace" text-anchor="start" dominant-baseline="middle">PA10</text>
<line x1="30" y1="337.5" x2="50" y2="337.5" stroke="#ffd60a" stroke-width="1.5" stroke-linecap="round"/>
<text x="55" y="337.5" fill="#ffd60a" font-size="2" font-family="monospace" text-anchor="start" dominant-baseline="middle">PA11</text>
<line x1="30" y1="362.5" x2="50" y2="362.5" stroke="#ffd60a" stroke-width="1.5" stroke-linecap="round"/>
<text x="55" y="362.5" fill="#ffd60a" font-size="2" font-family="monospace" text-anchor="start" dominant-baseline="middle">PA12</text>
<line x1="30" y1="387.5" x2="50" y2="387.5" stroke="#ffd60a" stroke-width="1.5" stroke-linecap="round"/>
<text x="55" y="387.5" fill="#ffd60a" font-size="2" font-family="monospace" text-anchor="start" dominant-baseline="middle">PA13</text>
<line x1="30" y1="412.5" x2="50" y2="412.5" stroke="#ffd60a" stroke-width="1.5" stroke-linecap="round"/>
<text x="55" y="412.5" fill="#ffd60a" font-size="2" font-family="monospace" text-anchor="start" dominant-baseline="middle">PA14</text>
<line x1="30" y1="437.5" x2="50" y2="437.5" stroke="#ffd60a" stroke-width="1.5" stroke-linecap="round"/>
<text x="55" y="437.5" fill="#ffd60a" font-size="2" font-family="monospace" text-anchor="start" dominant-baseline="middle">PA15</text>
<line x1="270" y1="60" x2="250" y2="60" stroke="#ffd60a" stroke-width="1.5" stroke-linecap="round"/>
<text x="245" y="60" fill="#ffd60a" font-size="2" font-family="monospace" text-anchor="end" dominant-baseline="middle">PC14</text>
<line x1="270" y1="80" x2="250" y2="80" stroke="#ffd60a" stroke-width="1.5" stroke-linecap="round"/>
<text x="245" y="80" fill="#ffd60a" font-size="2" font-family="monospace" text-anchor="end" dominant-baseline="middle">PC15</text>
<line x1="270" y1="100" x2="250" y2="100" stroke="#ffd60a" stroke-width="1.5" stroke-linecap="round"/>
<text x="245" y="100" fill="#ffd60a" font-size="2" font-family="monospace" text-anchor="end" dominant-baseline="middle">PH3</text>
<line x1="270" y1="120" x2="250" y2="120" stroke="#ffd60a" stroke-width="1.5" stroke-linecap="round"/>
<text x="245" y="120" fill="#ffd60a" font-size="2" font-family="monospace" text-anchor="end" dominant-baseline="middle">PB8</text>
<line x1="270" y1="140" x2="250" y2="140" stroke="#ffd60a" stroke-width="1.5" stroke-linecap="round"/>
<text x="245" y="140" fill="#ffd60a" font-size="2" font-family="monospace" text-anchor="end" dominant-baseline="middle">PB9</text>
<line x1="270" y1="160" x2="250" y2="160" stroke="#ffd60a" stroke-width="1.5" stroke-linecap="round"/>
<text x="245" y="160" fill="#ffd60a" font-size="2" font-family="monospace" text-anchor="end" dominant-baseline="middle">NRST</text>
<line x1="270" y1="180" x2="250" y2="180" stroke="#ffd60a" stroke-width="1.5" stroke-linecap="round"/>
<text x="245" y="180" fill="#ffd60a" font-size="2" font-family="monospace" text-anchor="end" dominant-baseline="middle">PB2</text>
<line x1="270" y1="200" x2="250" y2="200" stroke="#ffd60a" stroke-width="1.5" stroke-linecap="round"/>
<text x="245" y="200" fill="#ffd60a" font-size="2" font-family="monospace" text-anchor="end" dominant-baseline="middle">RF1</text>
<line x1="270" y1="220" x2="250" y2="220" stroke="#ffd60a" stroke-width="1.5" stroke-linecap="round"/>
<text x="245" y="220" fill="#ffd60a" font-size="2" font-family="monospace" text-anchor="end" dominant-baseline="middle">OSC_OUT</text>
<line x1="270" y1="240" x2="250" y2="240" stroke="#ffd60a" stroke-width="1.5" stroke-linecap="round"/>
<text x="245" y="240" fill="#ffd60a" font-size="2" font-family="monospace" text-anchor="end" dominant-baseline="middle">OSC_IN</text>
<line x1="270" y1="260" x2="250" y2="260" stroke="#ffd60a" stroke-width="1.5" stroke-linecap="round"/>
<text x="245" y="260" fill="#ffd60a" font-size="2" font-family="monospace" text-anchor="end" dominant-baseline="middle">AT0</text>
<line x1="270" y1="280" x2="250" y2="280" stroke="#ffd60a" stroke-width="1.5" stroke-linecap="round"/>
<text x="245" y="280" fill="#ffd60a" font-size="2" font-family="monospace" text-anchor="end" dominant-baseline="middle">AT1</text>
<line x1="270" y1="300" x2="250" y2="300" stroke="#ffd60a" stroke-width="1.5" stroke-linecap="round"/>
<text x="245" y="300" fill="#ffd60a" font-size="2" font-family="monospace" text-anchor="end" dominant-baseline="middle">PB0</text>
<line x1="270" y1="320" x2="250" y2="320" stroke="#ffd60a" stroke-width="1.5" stroke-linecap="round"/>
<text x="245" y="320" fill="#ffd60a" font-size="2" font-family="monospace" text-anchor="end" dominant-baseline="middle">PB1</text>
<line x1="270" y1="340" x2="250" y2="340" stroke="#ffd60a" stroke-width="1.5" stroke-linecap="round"/>
<text x="245" y="340" fill="#ffd60a" font-size="2" font-family="monospace" text-anchor="end" dominant-baseline="middle">PE4</text>
<line x1="270" y1="360" x2="250" y2="360" stroke="#ffd60a" stroke-width="1.5" stroke-linecap="round"/>
<text x="245" y="360" fill="#ffd60a" font-size="2" font-family="monospace" text-anchor="end" dominant-baseline="middle">PB3</text>
<line x1="270" y1="380" x2="250" y2="380" stroke="#ffd60a" stroke-width="1.5" stroke-linecap="round"/>
<text x="245" y="380" fill="#ffd60a" font-size="2" font-family="monospace" text-anchor="end" dominant-baseline="middle">PB4</text>
<line x1="270" y1="400" x2="250" y2="400" stroke="#ffd60a" stroke-width="1.5" stroke-linecap="round"/>
<text x="245" y="400" fill="#ffd60a" font-size="2" font-family="monospace" text-anchor="end" dominant-baseline="middle">PB5</text>
<line x1="270" y1="420" x2="250" y2="420" stroke="#ffd60a" stroke-width="1.5" stroke-linecap="round"/>
<text x="245" y="420" fill="#ffd60a" font-size="2" font-family="monospace" text-anchor="end" dominant-baseline="middle">PB6</text>
<line x1="270" y1="440" x2="250" y2="440" stroke="#ffd60a" stroke-width="1.5" stroke-linecap="round"/>
<text x="245" y="440" fill="#ffd60a" font-size="2" font-family="monospace" text-anchor="end" dominant-baseline="middle">PB7</text>
<line x1="83.33333333333333" y1="30" x2="83.33333333333333" y2="50" stroke="#ffd60a" stroke-width="1.5" stroke-linecap="round"/>
<text x="83.33333333333333" y="25" fill="#ffd60a" font-size="2" font-family="monospace" text-anchor="middle" dominant-baseline="middle">VSSRF</text>
<line x1="150" y1="30" x2="150" y2="50" stroke="#ffd60a" stroke-width="1.5" stroke-linecap="round"/>
<text x="150" y="25" fill="#ffd60a" font-size="2" font-family="monospace" text-anchor="middle" dominant-baseline="middle">VSS</text>
<line x1="216.66666666666669" y1="30" x2="216.66666666666669" y2="50" stroke="#ffd60a" stroke-width="1.5" stroke-linecap="round"/>
<text x="216.66666666666669" y="25" fill="#ffd60a" font-size="2" font-family="monospace" text-anchor="middle" dominant-baseline="middle">VSS</text>
<line x1="60" y1="470" x2="60" y2="450" stroke="#ffd60a" stroke-width="1.5" stroke-linecap="round"/>
<text x="60" y="484" fill="#ffd60a" font-size="2" font-family="monospace" text-anchor="middle" dominant-baseline="middle">VBAT</text>
<line x1="80" y1="470" x2="80" y2="450" stroke="#ffd60a" stroke-width="1.5" stroke-linecap="round"/>
<text x="80" y="484" fill="#ffd60a" font-size="2" font-family="monospace" text-anchor="middle" dominant-baseline="middle">VDDA</text>
<line x1="100" y1="470" x2="100" y2="450" stroke="#ffd60a" stroke-width="1.5" stroke-linecap="round"/>
<text x="100" y="484" fill="#ffd60a" font-size="2" font-family="monospace" text-anchor="middle" dominant-baseline="middle">VDD</text>
<line x1="120" y1="470" x2="120" y2="450" stroke="#ffd60a" stroke-width="1.5" stroke-linecap="round"/>
<text x="120" y="484" fill="#ffd60a" font-size="2" font-family="monospace" text-anchor="middle" dominant-baseline="middle">VDDRF</text>
<line x1="140" y1="470" x2="140" y2="450" stroke="#ffd60a" stroke-width="1.5" stroke-linecap="round"/>
<text x="140" y="484" fill="#ffd60a" font-size="2" font-family="monospace" text-anchor="middle" dominant-baseline="middle">VDD</text>
<line x1="160" y1="470" x2="160" y2="450" stroke="#ffd60a" stroke-width="1.5" stroke-linecap="round"/>
<text x="160" y="484" fill="#ffd60a" font-size="2" font-family="monospace" text-anchor="middle" dominant-baseline="middle">VDD</text>
<line x1="180" y1="470" x2="180" y2="450" stroke="#ffd60a" stroke-width="1.5" stroke-linecap="round"/>
<text x="180" y="484" fill="#ffd60a" font-size="2" font-family="monospace" text-anchor="middle" dominant-baseline="middle">VDD</text>
<line x1="200" y1="470" x2="200" y2="450" stroke="#ffd60a" stroke-width="1.5" stroke-linecap="round"/>
<text x="200" y="484" fill="#ffd60a" font-size="2" font-family="monospace" text-anchor="middle" dominant-baseline="middle">VDD</text>
<line x1="220" y1="470" x2="220" y2="450" stroke="#ffd60a" stroke-width="1.5" stroke-linecap="round"/>
<text x="220" y="484" fill="#ffd60a" font-size="2" font-family="monospace" text-anchor="middle" dominant-baseline="middle">VDD</text>
<line x1="240" y1="470" x2="240" y2="450" stroke="#ffd60a" stroke-width="1.5" stroke-linecap="round"/>
<text x="240" y="484" fill="#ffd60a" font-size="2" font-family="monospace" text-anchor="middle" dominant-baseline="middle">VDD</text>
</svg>