<svg xmlns="http://www.w3.org/2000/svg" viewBox="0 0 19.08 15.620000000000001">
<line x1="6.999999999999999" y1="9.08" x2="12.079999999999998" y2="9.08" stroke="#ffffff" stroke-width="0.3" stroke-linecap="round" fill="none"/>
<polyline points="7.126999999999999,10.604 7.126999999999999,11.239 7.761999999999999,11.239" stroke="#ffffff" stroke-width="0.3" stroke-linejoin="round" stroke-linecap="round" fill="none"/>
<line x1="7.126999999999999" y1="11.239" x2="8.396999999999998" y2="9.969" stroke="#ffffff" stroke-width="0.3" stroke-linecap="round" fill="none"/>
<polyline points="8.396999999999998,10.604 8.396999999999998,11.239 9.032,11.239" stroke="#ffffff" stroke-width="0.3" stroke-linejoin="round" stroke-linecap="round" fill="none"/>
<line x1="8.396999999999998" y1="11.239" x2="9.667" y2="9.969" stroke="#ffffff" stroke-width="0.3" stroke-linecap="round" fill="none"/>
<line x1="8.905" y1="7.8100000000000005" x2="8.905" y2="10.35" stroke="#ffffff" stroke-width="0.3" stroke-linecap="round" fill="none"/>
<polyline points="8.905,9.08 10.809999999999999,7.8100000000000005 10.809999999999999,10.35 8.905,9.08" stroke="#ffffff" stroke-width="0.3" stroke-linejoin="round" stroke-linecap="round" fill="#ffffff"/>
<circle cx="7.507999999999999" cy="6.54" r="0.508" stroke="#ffffff" stroke-width="0.3" fill="none"/>
<line x1="8.015999999999998" y1="6.286" x2="11.572" y2="4.7620000000000005" stroke="#ffffff" stroke-width="0.3" stroke-linecap="round" fill="none"/>
<circle cx="11.572" cy="6.54" r="0.508" stroke="#ffffff" stroke-width="0.3" fill="none"/>
<rect x="6.364999999999999" y="11.620000000000001" width="6.35" height="7.62" stroke="#ffffff" stroke-width="0.3" fill="rgba(255,255,255,0.06)"/>
<line x1="4.459999999999999" y1="6.54" x2="6.999999999999999" y2="6.54" stroke="#ffd60a" stroke-width="0.2725714285714285" stroke-linecap="round"/>
<text x="3.999999999999999" y="6.54" fill="#ffd60a" font-size="1" font-family="monospace" text-anchor="start" dominant-baseline="middle">1</text>
<line x1="14.62" y1="6.54" x2="12.079999999999998" y2="6.539999999999999" stroke="#ffd60a" stroke-width="0.2725714285714285" stroke-linecap="round"/>
<text x="15.079999999999998" y="6.54" fill="#ffd60a" font-size="1" font-family="monospace" text-anchor="end" dominant-baseline="middle">2</text>
<line x1="4.459999999999999" y1="9.08" x2="6.999999999999999" y2="9.08" stroke="#ffd60a" stroke-width="0.2725714285714285" stroke-linecap="round"/>
<text x="3.999999999999999" y="9.08" fill="#ffd60a" font-size="1" font-family="monospace" text-anchor="start" dominant-baseline="middle">K</text>
<line x1="14.62" y1="9.08" x2="12.079999999999998" y2="9.08" stroke="#ffd60a" stroke-width="0.2725714285714285" stroke-linecap="round"/>
<text x="15.079999999999998" y="9.08" fill="#ffd60a" font-size="1" font-family="monospace" text-anchor="end" dominant-baseline="middle">A</text>
</svg>