<svg xmlns="http://www.w3.org/2000/svg" viewBox="0 0 220 360">
<rect x="50" y="50" width="120" height="260" stroke="#ffffff" stroke-width="1.5" fill="rgba(255,255,255,0.04)"/>
<text x="110" y="180" fill="#888" font-size="3" font-family="monospace" text-anchor="middle" dominant-baseline="middle">U</text>
<line x1="30" y1="76" x2="50" y2="76" stroke="#ffd60a" stroke-width="1.5" stroke-linecap="round"/>
<text x="55" y="76" fill="#ffd60a" font-size="2" font-family="monospace" text-anchor="start" dominant-baseline="middle">RFI_LF</text>
<line x1="30" y1="128" x2="50" y2="128" stroke="#ffd60a" stroke-width="1.5" stroke-linecap="round"/>
<text x="55" y="128" fill="#ffd60a" font-size="2" font-family="monospace" text-anchor="start" dominant-baseline="middle">RXTX/RF_MOD</text>
<line x1="30" y1="180" x2="50" y2="180" stroke="#ffd60a" stroke-width="1.5" stroke-linecap="round"/>
<text x="55" y="180" fill="#ffd60a" font-size="2" font-family="monospace" text-anchor="start" dominant-baseline="middle">VR_PA</text>
<line x1="30" y1="232" x2="50" y2="232" stroke="#ffd60a" stroke-width="1.5" stroke-linecap="round"/>
<text x="55" y="232" fill="#ffd60a" font-size="2" font-family="monospace" text-anchor="start" dominant-baseline="middle">PA_BOOST</text>
<line x1="30" y1="284" x2="50" y2="284" stroke="#ffd60a" stroke-width="1.5" stroke-linecap="round"/>
<text x="55" y="284" fill="#ffd60a" font-size="2" font-family="monospace" text-anchor="start" dominant-baseline="middle">RFO_LF</text>
<line x1="190" y1="60" x2="170" y2="60" stroke="#ffd60a" stroke-width="1.5" stroke-linecap="round"/>
<text x="165" y="60" fill="#ffd60a" font-size="2" font-family="monospace" text-anchor="end" dominant-baseline="middle">XTA</text>
<line x1="190" y1="80" x2="170" y2="80" stroke="#ffd60a" stroke-width="1.5" stroke-linecap="round"/>
<text x="165" y="80" fill="#ffd60a" font-size="2" font-family="monospace" text-anchor="end" dominant-baseline="middle">XTB</text>
<line x1="190" y1="100" x2="170" y2="100" stroke="#ffd60a" stroke-width="1.5" stroke-linecap="round"/>
<text x="165" y="100" fill="#ffd60a" font-size="2" font-family="monospace" text-anchor="end" dominant-baseline="middle">~{RESET}</text>
<line x1="190" y1="120" x2="170" y2="120" stroke="#ffd60a" stroke-width="1.5" stroke-linecap="round"/>
<text x="165" y="120" fill="#ffd60a" font-size="2" font-family="monospace" text-anchor="end" dominant-baseline="middle">DIO0</text>
<line x1="190" y1="140" x2="170" y2="140" stroke="#ffd60a" stroke-width="1.5" stroke-linecap="round"/>
<text x="165" y="140" fill="#ffd60a" font-size="2" font-family="monospace" text-anchor="end" dominant-baseline="middle">DIO1</text>
<line x1="190" y1="160" x2="170" y2="160" stroke="#ffd60a" stroke-width="1.5" stroke-linecap="round"/>
<text x="165" y="160" fill="#ffd60a" font-size="2" font-family="monospace" text-anchor="end" dominant-baseline="middle">DIO2</text>
<line x1="190" y1="180" x2="170" y2="180" stroke="#ffd60a" stroke-width="1.5" stroke-linecap="round"/>
<text x="165" y="180" fill="#ffd60a" font-size="2" font-family="monospace" text-anchor="end" dominant-baseline="middle">DIO3</text>
<line x1="190" y1="200" x2="170" y2="200" stroke="#ffd60a" stroke-width="1.5" stroke-linecap="round"/>
<text x="165" y="200" fill="#ffd60a" font-size="2" font-family="monospace" text-anchor="end" dominant-baseline="middle">DIO4</text>
<line x1="190" y1="220" x2="170" y2="220" stroke="#ffd60a" stroke-width="1.5" stroke-linecap="round"/>
<text x="165" y="220" fill="#ffd60a" font-size="2" font-family="monospace" text-anchor="end" dominant-baseline="middle">DIO5</text>
<line x1="190" y1="240" x2="170" y2="240" stroke="#ffd60a" stroke-width="1.5" stroke-linecap="round"/>
<text x="165" y="240" fill="#ffd60a" font-size="2" font-family="monospace" text-anchor="end" dominant-baseline="middle">SCK</text>
<line x1="190" y1="260" x2="170" y2="260" stroke="#ffd60a" stroke-width="1.5" stroke-linecap="round"/>
<text x="165" y="260" fill="#ffd60a" font-size="2" font-family="monospace" text-anchor="end" dominant-baseline="middle">MISO</text>
<line x1="190" y1="280" x2="170" y2="280" stroke="#ffd60a" stroke-width="1.5" stroke-linecap="round"/>
<text x="165" y="280" fill="#ffd60a" font-size="2" font-family="monospace" text-anchor="end" dominant-baseline="middle">MOSI</text>
<line x1="190" y1="300" x2="170" y2="300" stroke="#ffd60a" stroke-width="1.5" stroke-linecap="round"/>
<text x="165" y="300" fill="#ffd60a" font-size="2" font-family="monospace" text-anchor="end" dominant-baseline="middle">NSS</text>
<line x1="60" y1="30" x2="60" y2="50" stroke="#ffd60a" stroke-width="1.5" stroke-linecap="round"/>
<text x="60" y="25" fill="#ffd60a" font-size="2" font-family="monospace" text-anchor="middle" dominant-baseline="middle">GND</text>
<line x1="80" y1="30" x2="80" y2="50" stroke="#ffd60a" stroke-width="1.5" stroke-linecap="round"/>
<text x="80" y="25" fill="#ffd60a" font-size="2" font-family="monospace" text-anchor="middle" dominant-baseline="middle">GND</text>
<line x1="100" y1="30" x2="100" y2="50" stroke="#ffd60a" stroke-width="1.5" stroke-linecap="round"/>
<text x="100" y="25" fill="#ffd60a" font-size="2" font-family="monospace" text-anchor="middle" dominant-baseline="middle">GND</text>
<line x1="120" y1="30" x2="120" y2="50" stroke="#ffd60a" stroke-width="1.5" stroke-linecap="round"/>
<text x="120" y="25" fill="#ffd60a" font-size="2" font-family="monospace" text-anchor="middle" dominant-baseline="middle">GND</text>
<line x1="140" y1="30" x2="140" y2="50" stroke="#ffd60a" stroke-width="1.5" stroke-linecap="round"/>
<text x="140" y="25" fill="#ffd60a" font-size="2" font-family="monospace" text-anchor="middle" dominant-baseline="middle">GND</text>
<line x1="160" y1="30" x2="160" y2="50" stroke="#ffd60a" stroke-width="1.5" stroke-linecap="round"/>
<text x="160" y="25" fill="#ffd60a" font-size="2" font-family="monospace" text-anchor="middle" dominant-baseline="middle">GND</text>
<line x1="62" y1="330" x2="62" y2="310" stroke="#ffd60a" stroke-width="1.5" stroke-linecap="round"/>
<text x="62" y="344" fill="#ffd60a" font-size="2" font-family="monospace" text-anchor="middle" dominant-baseline="middle">VR_ANA</text>
<line x1="86" y1="330" x2="86" y2="310" stroke="#ffd60a" stroke-width="1.5" stroke-linecap="round"/>
<text x="86" y="344" fill="#ffd60a" font-size="2" font-family="monospace" text-anchor="middle" dominant-baseline="middle">VBAT_ANA</text>
<line x1="110" y1="330" x2="110" y2="310" stroke="#ffd60a" stroke-width="1.5" stroke-linecap="round"/>
<text x="110" y="344" fill="#ffd60a" font-size="2" font-family="monospace" text-anchor="middle" dominant-baseline="middle">VR_DIG</text>
<line x1="134" y1="330" x2="134" y2="310" stroke="#ffd60a" stroke-width="1.5" stroke-linecap="round"/>
<text x="134" y="344" fill="#ffd60a" font-size="2" font-family="monospace" text-anchor="middle" dominant-baseline="middle">VBAT_DIG</text>
<line x1="158" y1="330" x2="158" y2="310" stroke="#ffd60a" stroke-width="1.5" stroke-linecap="round"/>
<text x="158" y="344" fill="#ffd60a" font-size="2" font-family="monospace" text-anchor="middle" dominant-baseline="middle">VBAT_RF</text>
</svg>