<svg xmlns="http://www.w3.org/2000/svg" viewBox="0 0 18.16 16.89">
<polyline points="4,12.89 14.16,12.89 9.08,4 4,12.89" stroke="#ffffff" stroke-width="0.508" stroke-linejoin="round" stroke-linecap="round" fill="rgba(255,255,255,0.06)"/>
<path d="M 7.8100000000000005 9.588000000000001 A 1.557899507843739 1.557899507843739 0 0 1 7.8100000000000005 11.493" stroke="#ffffff" stroke-width="0.508" fill="none"/>
<line x1="6.667" y1="12.128" x2="11.747" y2="12.128" stroke="#ffffff" stroke-width="0.508" stroke-linecap="round" fill="none"/>
<path d="M 9.08 9.588000000000001 A 1.5578995078437397 1.5578995078437397 0 0 1 9.08 11.493" stroke="#ffffff" stroke-width="0.508" fill="none"/>
<path d="M 7.8100000000000005 9.588000000000001 A 1.5578995078437405 1.5578995078437405 0 0 1 7.8100000000000005 7.683000000000001" stroke="#ffffff" stroke-width="0.508" fill="none"/>
<path d="M 10.35 9.588000000000001 A 1.5578995078437403 1.5578995078437403 0 0 1 10.35 11.493" stroke="#ffffff" stroke-width="0.508" fill="none"/>
<path d="M 9.08 9.588000000000001 A 1.5578995078437405 1.5578995078437405 0 0 1 9.08 7.683000000000001" stroke="#ffffff" stroke-width="0.508" fill="none"/>
<path d="M 10.35 9.588000000000001 A 1.55789950784374 1.55789950784374 0 0 1 10.35 7.683000000000001" stroke="#ffffff" stroke-width="0.508" fill="none"/>
</svg>