<svg xmlns="http://www.w3.org/2000/svg" viewBox="0 0 18.16 16.89">
<polyline points="4,12.89 14.16,12.89 9.08,4 4,12.89" stroke="#ffffff" stroke-width="0.508" stroke-linejoin="round" stroke-linecap="round" fill="rgba(255,255,255,0.06)"/>
<polyline points="8.064,12.382000000000001 10.096,12.382000000000001 9.08,9.08 8.064,12.382000000000001" stroke="#ffffff" stroke-width="0.3" stroke-linejoin="round" stroke-linecap="round" fill="#ffffff"/>
<path d="M 7.8100000000000005 9.842 A 1.4808318569398384 1.4808318569398384 0 0 1 7.8100000000000005 8.318000000000001" stroke="#ffffff" stroke-width="0.3" fill="none"/>
<path d="M 9.842 8.572000000000001 A 0.9158596879063723 0.9158596879063723 0 0 1 9.842 9.588000000000001" stroke="#ffffff" stroke-width="0.3" fill="none"/>
<path d="M 10.858 8.064 A 2.0479022238695346 2.0479022238695346 0 0 1 10.858 10.096" stroke="#ffffff" stroke-width="0.3" fill="none"/>
<path d="M 7.302 10.096 A 2.0479022238695332 2.0479022238695332 0 0 1 7.302 8.064" stroke="#ffffff" stroke-width="0.3" fill="none"/>
<path d="M 8.318 9.588000000000001 A 0.9158596879063726 0.9158596879063726 0 0 1 8.318 8.572000000000001" stroke="#ffffff" stroke-width="0.3" fill="none"/>
<circle cx="9.08" cy="9.08" r="0.508" stroke="#ffffff" stroke-width="0.3" fill="#ffffff"/>
<path d="M 10.35 8.318000000000001 A 1.4808318569398384 1.4808318569398384 0 0 1 10.35 9.842" stroke="#ffffff" stroke-width="0.3" fill="none"/>
</svg>