<svg xmlns="http://www.w3.org/2000/svg" viewBox="0 0 18.795 17.0424">
<line x1="6.7432" y1="8.648200000000001" x2="13.7282" y2="11.1882" stroke="#ffffff" stroke-width="0.508" stroke-linecap="round" fill="none"/>
<polyline points="9.8928,13.017 14.795,13.017 14.795,12.991600000000002 14.7442,12.9408 14.6934,12.839200000000002 14.6172,12.7122 14.414,12.3566 14.286999999999999,12.153400000000001 14.16,11.924800000000001 13.5504,10.908800000000001 13.398,10.6294 12.9408,9.8674 12.8138,9.6388 12.6868,9.4356 12.5598,9.2578 12.4836,9.08 12.407399999999999,8.953000000000001 12.331199999999999,8.8514 12.3058,8.7752 12.254999999999999,8.724400000000001 12.2296,8.7498 12.178799999999999,8.7752 12.001,8.953000000000001 11.8994,9.105400000000001 11.873999999999999,9.2324 11.8232,9.3086 11.7724,9.461 11.6962,9.588000000000001 11.391399999999999,9.892800000000001 11.2644,9.9944 11.112,10.121400000000001 10.9596,10.223 10.8072,10.350000000000001 10.6294,10.477 10.477,10.604000000000001 10.3246,10.7056 10.222999999999999,10.7818 10.1214,10.832600000000001 10.0198,10.908800000000001 9.7658,11.112 9.6642,11.239 9.5626,11.3914 9.461,11.5692 9.334,11.772400000000001 9.1816,12.153400000000001 9.0292,12.458200000000001 8.8768,12.610600000000002 8.8006,12.6614 8.7752,12.686800000000002 8.572,12.686800000000002 8.4958,12.6614 8.3942,12.559800000000001 8.343399999999999,12.4074 8.2926,12.229600000000001 8.267199999999999,12.001000000000001 8.267199999999999,11.3406 8.318,11.1374 8.3688,10.9596 8.4704,10.8072 8.572,10.680200000000001 9.0292,10.223 9.1054,10.121400000000001 9.206999999999999,9.8674 9.2324,9.816600000000001 9.2578,9.715 9.283199999999999,9.6388 9.283199999999999,9.6134 9.206999999999999,9.5372 9.1562,9.461 9.054599999999999,9.4102 8.978399999999999,9.334 8.9022,9.2832 8.8514,9.2324 8.8006,9.2324 8.7498,9.2578 8.6736,9.3086 8.572,9.3594 8.445,9.4356 8.343399999999999,9.4864 8.2418,9.5626 8.0894,9.664200000000001 7.81,9.9436 7.632199999999999,10.1468 7.683,10.273800000000001 7.708399999999999,10.3246 7.708399999999999,10.4008 7.7338,10.477 7.7338,10.756400000000001 7.708399999999999,10.8834 7.683,10.9596 7.683,10.985000000000001 7.6575999999999995,11.0358 7.708399999999999,11.1374 7.7592,11.2136 7.7592,11.239 7.8862,11.493 7.9624,11.747 7.9878,12.0264 7.9878,12.229600000000001 7.9624,12.305800000000001 7.936999999999999,12.3566 7.9116,12.4328 7.8354,12.559800000000001 7.7338,12.636 7.632199999999999,12.686800000000002 7.5306,12.686800000000002 7.4544,12.6614 7.403599999999999,12.610600000000002 7.3528,12.509 7.2766,12.382000000000001 7.2004,12.2042 7.0988,11.9756 6.997199999999999,11.7216 6.8956,11.4168 6.8956,11.3914 6.844799999999999,11.239 6.768599999999999,11.0866 6.667,10.832600000000001 6.6415999999999995,10.8072 6.5653999999999995,10.578600000000002 6.5146,10.350000000000001 6.5146,10.1468 6.5653999999999995,9.9182 6.6415999999999995,9.6896 6.692399999999999,9.588000000000001 6.794,9.4356 6.8956,9.2578 7.048,9.08 7.2004,8.876800000000001 7.302,8.7752 7.4544,8.5212 7.5306,8.4196 7.555999999999999,8.394200000000001 7.683,8.165600000000001 7.81,7.987800000000001 7.9624,7.835400000000001 8.0894,7.7338000000000005 8.2418,7.683000000000001 8.2926,7.6576 8.419599999999999,7.632200000000001 8.5974,7.5814 8.826,7.556000000000001 9.08,7.530600000000001 9.3848,7.5052 9.435599999999999,7.5052 9.6896,7.479800000000001 9.918199999999999,7.454400000000001 10.096,7.454400000000001 10.2484,7.429 10.375399999999999,7.403600000000001 10.477,7.3782000000000005 10.5786,7.327400000000001 10.6548,7.3020000000000005 10.731,7.251200000000001 10.9342,7.098800000000001 11.1374,6.895600000000001 11.1374,6.8448 11.112,6.7940000000000005 11.0612,6.7178 11.0104,6.616200000000001 10.9088,6.463800000000001 10.8326,6.2860000000000005 10.5786,5.8796 10.4516,5.651000000000001 10.070599999999999,5.016 9.918199999999999,4.7874 9.8166,4.584200000000001 9.715,4.431800000000001 9.6388,4.3048 9.5626,4.203200000000001 9.5118,4.127000000000001 9.461,4.025400000000001 9.435599999999999,4 9.359399999999999,4 9.359399999999999,4.025400000000001 9.283199999999999,4.1016 9.2578,4.1524 9.206999999999999,4.2286 9.1562,4.3302000000000005 9.0038,4.584200000000001 8.9022,4.736600000000001 8.8006,4.9144000000000005 8.6736,5.1176 8.3688,5.6256 8.190999999999999,5.930400000000001 7.9878,6.2606 7.5306,7.022600000000001 7.2766,7.479800000000001 6.9718,7.962400000000001 6.667,8.495800000000001 6.4892,8.7752 5.981199999999999,9.6388 5.752599999999999,10.045200000000001 5.523999999999999,10.426200000000001 5.2954,10.7818 5.0922,11.1374 4.888999999999999,11.467600000000001 4.736599999999999,11.772400000000001 4.5588,12.0264 4.4318,12.2804 4.304799999999999,12.483600000000001 4.1777999999999995,12.6614 4.0508,12.915400000000002 4,12.991600000000002 4,13.017 8.699,13.017 9.3848,13.0424 9.8928,13.017" stroke="#ffffff" stroke-width="0.3" stroke-linejoin="round" stroke-linecap="round" fill="rgba(255,255,255,0.06)"/>
<polyline points="4.0762,12.9662 14.7442,12.9662 9.4102,4.0762 4.0762,12.9662" stroke="#ffffff" stroke-width="0.508" stroke-linejoin="round" stroke-linecap="round" fill="none"/>
</svg>