<svg xmlns="http://www.w3.org/2000/svg" viewBox="0 0 16.89 19.08">
<rect x="4" y="12.079999999999998" width="8.89" height="5.08" stroke="#ffffff" stroke-width="0.3" fill="rgba(255,255,255,0.06)"/>
<polyline points="4.635,8.27 5.2700000000000005,8.905 6.54,8.905 7.175000000000001,9.54" stroke="#ffffff" stroke-width="0.3" stroke-linejoin="round" stroke-linecap="round" fill="none"/>
<line x1="5.905" y1="6.999999999999999" x2="5.905" y2="8.905" stroke="#ffffff" stroke-width="0.3" stroke-linecap="round" fill="none"/>
<polyline points="5.905,8.905 5.905,10.809999999999999 10.985,10.809999999999999 10.985,8.905" stroke="#ffffff" stroke-width="0.3" stroke-linejoin="round" stroke-linecap="round" fill="none"/>
<polyline points="5.905,8.905 6.54,10.174999999999999 5.2700000000000005,10.174999999999999 5.905,8.905" stroke="#ffffff" stroke-width="0.3" stroke-linejoin="round" stroke-linecap="round" fill="none"/>
<polyline points="5.905,8.905 5.2700000000000005,7.634999999999999 6.54,7.634999999999999 5.905,8.905 5.905,8.27" stroke="#ffffff" stroke-width="0.3" stroke-linejoin="round" stroke-linecap="round" fill="none"/>
<line x1="8.445" y1="10.809999999999999" x2="8.445" y2="12.079999999999998" stroke="#ffffff" stroke-width="0.3" stroke-linecap="round" fill="none"/>
<polyline points="9.715,8.27 10.35,8.905 10.985,8.905 11.620000000000001,8.905 12.255,9.54" stroke="#ffffff" stroke-width="0.3" stroke-linejoin="round" stroke-linecap="round" fill="none"/>
<line x1="10.985" y1="6.999999999999999" x2="10.985" y2="8.905" stroke="#ffffff" stroke-width="0.3" stroke-linecap="round" fill="none"/>
<polyline points="10.985,8.905 10.35,10.174999999999999 11.620000000000001,10.174999999999999 10.985,8.905" stroke="#ffffff" stroke-width="0.3" stroke-linejoin="round" stroke-linecap="round" fill="none"/>
<polyline points="10.985,8.905 11.620000000000001,7.634999999999999 10.35,7.634999999999999 10.985,8.905" stroke="#ffffff" stroke-width="0.3" stroke-linejoin="round" stroke-linecap="round" fill="none"/>
<line x1="8.445" y1="14.62" x2="8.445" y2="12.079999999999998" stroke="#ffd60a" stroke-width="0.2725714285714285" stroke-linecap="round"/>
<text x="8.445" y="15.079999999999998" fill="#ffd60a" font-size="1" font-family="monospace" text-anchor="middle" dominant-baseline="middle">A</text>
<line x1="5.905" y1="4.459999999999999" x2="5.904999999999999" y2="6.999999999999999" stroke="#ffd60a" stroke-width="0.2725714285714285" stroke-linecap="round"/>
<text x="5.905" y="3.999999999999999" fill="#ffd60a" font-size="1" font-family="monospace" text-anchor="middle" dominant-baseline="middle">K</text>
<line x1="10.985" y1="4.459999999999999" x2="10.985" y2="6.999999999999999" stroke="#ffd60a" stroke-width="0.2725714285714285" stroke-linecap="round"/>
<text x="10.985" y="3.999999999999999" fill="#ffd60a" font-size="1" font-family="monospace" text-anchor="middle" dominant-baseline="middle">K</text>
</svg>