<svg xmlns="http://www.w3.org/2000/svg" viewBox="0 0 18.16 13.08">
<circle cx="6.032" cy="5.016000000000001" r="0.254" stroke="#ffffff" stroke-width="0.3" fill="#ffffff"/>
<line x1="6.286" y1="6.032000000000001" x2="6.7940000000000005" y2="6.032000000000001" stroke="#ffffff" stroke-width="0.3" stroke-linecap="round" fill="none"/>
<line x1="6.286" y1="7.048000000000001" x2="6.7940000000000005" y2="7.048000000000001" stroke="#ffffff" stroke-width="0.3" stroke-linecap="round" fill="none"/>
<line x1="6.54" y1="4.508000000000001" x2="6.54" y2="4.000000000000001" stroke="#ffffff" stroke-width="0.3" stroke-linecap="round" fill="none"/>
<line x1="6.54" y1="8.572000000000001" x2="6.54" y2="9.080000000000002" stroke="#ffffff" stroke-width="0.3" stroke-linecap="round" fill="none"/>
<path d="M 7.556 4.508000000000001 A 0.5080047844998024 0.5080047844998024 0 0 1 6.54 4.508000000000001" stroke="#ffffff" stroke-width="0.3" fill="none"/>
<path d="M 6.54 8.572000000000001 A 0.5080047844998024 0.5080047844998024 0 0 1 7.556 8.572000000000001" stroke="#ffffff" stroke-width="0.3" fill="none"/>
<line x1="7.302" y1="6.032000000000001" x2="7.8100000000000005" y2="6.032000000000001" stroke="#ffffff" stroke-width="0.3" stroke-linecap="round" fill="none"/>
<line x1="7.302" y1="7.048000000000001" x2="7.8100000000000005" y2="7.048000000000001" stroke="#ffffff" stroke-width="0.3" stroke-linecap="round" fill="none"/>
<path d="M 8.572 4.508000000000001 A 0.5080047844998028 0.5080047844998028 0 0 1 7.556 4.508000000000001" stroke="#ffffff" stroke-width="0.3" fill="none"/>
<path d="M 7.556 8.572000000000001 A 0.5080047844998019 0.5080047844998019 0 0 1 8.572 8.572000000000001" stroke="#ffffff" stroke-width="0.3" fill="none"/>
<line x1="8.318" y1="6.032000000000001" x2="8.826" y2="6.032000000000001" stroke="#ffffff" stroke-width="0.3" stroke-linecap="round" fill="none"/>
<line x1="8.318" y1="7.048000000000001" x2="8.826" y2="7.048000000000001" stroke="#ffffff" stroke-width="0.3" stroke-linecap="round" fill="none"/>
<path d="M 9.588000000000001 4.508000000000001 A 0.5080047844998024 0.5080047844998024 0 0 1 8.572 4.508000000000001" stroke="#ffffff" stroke-width="0.3" fill="none"/>
<path d="M 8.572 8.572000000000001 A 0.5080047844998024 0.5080047844998024 0 0 1 9.588000000000001 8.572000000000001" stroke="#ffffff" stroke-width="0.3" fill="none"/>
<line x1="9.334" y1="6.032000000000001" x2="9.842" y2="6.032000000000001" stroke="#ffffff" stroke-width="0.3" stroke-linecap="round" fill="none"/>
<line x1="9.334" y1="7.048000000000001" x2="9.842" y2="7.048000000000001" stroke="#ffffff" stroke-width="0.3" stroke-linecap="round" fill="none"/>
<path d="M 10.604 4.508000000000001 A 0.5080047844998019 0.5080047844998019 0 0 1 9.588000000000001 4.508000000000001" stroke="#ffffff" stroke-width="0.3" fill="none"/>
<path d="M 9.588000000000001 8.572000000000001 A 0.5080047844998028 0.5080047844998028 0 0 1 10.604 8.572000000000001" stroke="#ffffff" stroke-width="0.3" fill="none"/>
<line x1="10.35" y1="6.032000000000001" x2="10.858" y2="6.032000000000001" stroke="#ffffff" stroke-width="0.3" stroke-linecap="round" fill="none"/>
<line x1="10.35" y1="7.048000000000001" x2="10.858" y2="7.048000000000001" stroke="#ffffff" stroke-width="0.3" stroke-linecap="round" fill="none"/>
<path d="M 11.620000000000001 4.508000000000001 A 0.5080047844998024 0.5080047844998024 0 0 1 10.604 4.508000000000001" stroke="#ffffff" stroke-width="0.3" fill="none"/>
<path d="M 10.604 8.572000000000001 A 0.5080047844998024 0.5080047844998024 0 0 1 11.620000000000001 8.572000000000001" stroke="#ffffff" stroke-width="0.3" fill="none"/>
<line x1="11.366" y1="6.032000000000001" x2="11.874" y2="6.032000000000001" stroke="#ffffff" stroke-width="0.3" stroke-linecap="round" fill="none"/>
<line x1="11.366" y1="7.048000000000001" x2="11.874" y2="7.048000000000001" stroke="#ffffff" stroke-width="0.3" stroke-linecap="round" fill="none"/>
<line x1="11.620000000000001" y1="4.000000000000001" x2="11.620000000000001" y2="4.508000000000001" stroke="#ffffff" stroke-width="0.3" stroke-linecap="round" fill="none"/>
<line x1="11.620000000000001" y1="8.572000000000001" x2="11.620000000000001" y2="9.080000000000002" stroke="#ffffff" stroke-width="0.3" stroke-linecap="round" fill="none"/>
<circle cx="12.128" cy="5.016000000000001" r="0.254" stroke="#ffffff" stroke-width="0.3" fill="#ffffff"/>
<line x1="14.16" y1="4.000000000000001" x2="11.620000000000001" y2="4" stroke="#ffd60a" stroke-width="0.25942857142857145" stroke-linecap="round"/>
<line x1="14.16" y1="9.080000000000002" x2="11.620000000000001" y2="9.08" stroke="#ffd60a" stroke-width="0.25942857142857145" stroke-linecap="round"/>
<line x1="4" y1="9.080000000000002" x2="6.54" y2="9.080000000000002" stroke="#ffd60a" stroke-width="0.25942857142857145" stroke-linecap="round"/>
<line x1="4" y1="4.000000000000001" x2="6.54" y2="4.000000000000001" stroke="#ffd60a" stroke-width="0.25942857142857145" stroke-linecap="round"/>
</svg>