<svg xmlns="http://www.w3.org/2000/svg" viewBox="0 0 180 320">
<rect x="50" y="50" width="80" height="220" stroke="#ffffff" stroke-width="1.5" fill="rgba(255,255,255,0.04)"/>
<text x="90" y="160" fill="#888" font-size="3" font-family="monospace" text-anchor="middle" dominant-baseline="middle">U</text>
<line x1="30" y1="72" x2="50" y2="72" stroke="#ffd60a" stroke-width="1.5" stroke-linecap="round"/>
<text x="55" y="72" fill="#ffd60a" font-size="2" font-family="monospace" text-anchor="start" dominant-baseline="middle">VOUT</text>
<line x1="30" y1="116" x2="50" y2="116" stroke="#ffd60a" stroke-width="1.5" stroke-linecap="round"/>
<text x="55" y="116" fill="#ffd60a" font-size="2" font-family="monospace" text-anchor="start" dominant-baseline="middle">BOUT</text>
<line x1="30" y1="160" x2="50" y2="160" stroke="#ffd60a" stroke-width="1.5" stroke-linecap="round"/>
<text x="55" y="160" fill="#ffd60a" font-size="2" font-family="monospace" text-anchor="start" dominant-baseline="middle">FBOUT</text>
<line x1="30" y1="204" x2="50" y2="204" stroke="#ffd60a" stroke-width="1.5" stroke-linecap="round"/>
<text x="55" y="204" fill="#ffd60a" font-size="2" font-family="monospace" text-anchor="start" dominant-baseline="middle">ROUT</text>
<line x1="30" y1="248" x2="50" y2="248" stroke="#ffd60a" stroke-width="1.5" stroke-linecap="round"/>
<text x="55" y="248" fill="#ffd60a" font-size="2" font-family="monospace" text-anchor="start" dominant-baseline="middle">SYOUT</text>
<line x1="150" y1="60" x2="130" y2="60" stroke="#ffd60a" stroke-width="1.5" stroke-linecap="round"/>
<text x="125" y="60" fill="#ffd60a" font-size="2" font-family="monospace" text-anchor="end" dominant-baseline="middle">ES2</text>
<line x1="150" y1="80" x2="130" y2="80" stroke="#ffd60a" stroke-width="1.5" stroke-linecap="round"/>
<text x="125" y="80" fill="#ffd60a" font-size="2" font-family="monospace" text-anchor="end" dominant-baseline="middle">EV2</text>
<line x1="150" y1="100" x2="130" y2="100" stroke="#ffd60a" stroke-width="1.5" stroke-linecap="round"/>
<text x="125" y="100" fill="#ffd60a" font-size="2" font-family="monospace" text-anchor="end" dominant-baseline="middle">SEL1/2</text>
<line x1="150" y1="120" x2="130" y2="120" stroke="#ffd60a" stroke-width="1.5" stroke-linecap="round"/>
<text x="125" y="120" fill="#ffd60a" font-size="2" font-family="monospace" text-anchor="end" dominant-baseline="middle">EB2</text>
<line x1="150" y1="140" x2="130" y2="140" stroke="#ffd60a" stroke-width="1.5" stroke-linecap="round"/>
<text x="125" y="140" fill="#ffd60a" font-size="2" font-family="monospace" text-anchor="end" dominant-baseline="middle">EFB2</text>
<line x1="150" y1="160" x2="130" y2="160" stroke="#ffd60a" stroke-width="1.5" stroke-linecap="round"/>
<text x="125" y="160" fill="#ffd60a" font-size="2" font-family="monospace" text-anchor="end" dominant-baseline="middle">EB1</text>
<line x1="150" y1="180" x2="130" y2="180" stroke="#ffd60a" stroke-width="1.5" stroke-linecap="round"/>
<text x="125" y="180" fill="#ffd60a" font-size="2" font-family="monospace" text-anchor="end" dominant-baseline="middle">EFB1</text>
<line x1="150" y1="200" x2="130" y2="200" stroke="#ffd60a" stroke-width="1.5" stroke-linecap="round"/>
<text x="125" y="200" fill="#ffd60a" font-size="2" font-family="monospace" text-anchor="end" dominant-baseline="middle">ER1</text>
<line x1="150" y1="220" x2="130" y2="220" stroke="#ffd60a" stroke-width="1.5" stroke-linecap="round"/>
<text x="125" y="220" fill="#ffd60a" font-size="2" font-family="monospace" text-anchor="end" dominant-baseline="middle">ER2</text>
<line x1="150" y1="240" x2="130" y2="240" stroke="#ffd60a" stroke-width="1.5" stroke-linecap="round"/>
<text x="125" y="240" fill="#ffd60a" font-size="2" font-family="monospace" text-anchor="end" dominant-baseline="middle">ES1</text>
<line x1="150" y1="260" x2="130" y2="260" stroke="#ffd60a" stroke-width="1.5" stroke-linecap="round"/>
<text x="125" y="260" fill="#ffd60a" font-size="2" font-family="monospace" text-anchor="end" dominant-baseline="middle">EV1</text>
<line x1="90" y1="30" x2="90" y2="50" stroke="#ffd60a" stroke-width="1.5" stroke-linecap="round"/>
<text x="90" y="25" fill="#ffd60a" font-size="2" font-family="monospace" text-anchor="middle" dominant-baseline="middle">GND</text>
<line x1="90" y1="290" x2="90" y2="270" stroke="#ffd60a" stroke-width="1.5" stroke-linecap="round"/>
<text x="90" y="304" fill="#ffd60a" font-size="2" font-family="monospace" text-anchor="middle" dominant-baseline="middle">VSP</text>
</svg>