<svg xmlns="http://www.w3.org/2000/svg" viewBox="0 0 17.525 18.953">
<line x1="7.8100000000000005" y1="9.413" x2="8.191" y2="9.413" stroke="#ffffff" stroke-width="0.3" stroke-linecap="round" fill="none"/>
<circle cx="8.318" cy="9.413" r="0.127" stroke="#ffffff" stroke-width="0.3" fill="none"/>
<polyline points="8.826,7.381 8.826,9.413 8.826,9.413" stroke="#ffffff" stroke-width="0.3048" stroke-linejoin="round" stroke-linecap="round" fill="none"/>
<polyline points="8.826,8.143 9.842,7.127000000000001 11.620000000000001,7.127000000000001" stroke="#ffffff" stroke-width="0.3" stroke-linejoin="round" stroke-linecap="round" fill="none"/>
<polyline points="8.826,8.397 8.318,8.397 8.318,11.445" stroke="#ffffff" stroke-width="0.3" stroke-linejoin="round" stroke-linecap="round" fill="none"/>
<polyline points="8.826,8.651 9.842,9.667 10.35,9.667" stroke="#ffffff" stroke-width="0.3" stroke-linejoin="round" stroke-linecap="round" fill="none"/>
<polyline points="9.08,8.905000000000001 9.334,9.413 9.588000000000001,9.159 9.08,8.905000000000001" stroke="#ffffff" stroke-width="0.3" stroke-linejoin="round" stroke-linecap="round" fill="none"/>
<polyline points="9.842,9.667 9.842,11.445 10.223,11.445 10.35,11.191 10.477,11.699 10.604,11.191 10.731,11.699 10.858,11.191 10.985,11.699 11.112,11.445 11.620000000000001,11.445" stroke="#ffffff" stroke-width="0.3" stroke-linejoin="round" stroke-linecap="round" fill="none"/>
<circle cx="9.842" cy="9.667" r="0.127" stroke="#ffffff" stroke-width="0.3" fill="none"/>
<polyline points="9.842,11.445 9.461,11.445 9.334,11.699 9.207,11.191 9.08,11.699 8.953,11.191 8.826,11.699 8.699,11.191 8.572,11.445 8.318,11.445" stroke="#ffffff" stroke-width="0.3" stroke-linejoin="round" stroke-linecap="round" fill="none"/>
<circle cx="9.842" cy="11.445" r="0.127" stroke="#ffffff" stroke-width="0.3" fill="none"/>
<polyline points="10.35,8.651 10.35,10.683 10.35,10.683" stroke="#ffffff" stroke-width="0.381" stroke-linejoin="round" stroke-linecap="round" fill="none"/>
<polyline points="10.35,9.413 11.366,8.397 11.620000000000001,8.397 11.620000000000001,7.127000000000001" stroke="#ffffff" stroke-width="0.3" stroke-linejoin="round" stroke-linecap="round" fill="none"/>
<circle cx="10.35" cy="9.413" r="3.175" stroke="#ffffff" stroke-width="0.3556" fill="none"/>
<polyline points="10.35,9.921 11.366,10.937000000000001 11.620000000000001,10.937000000000001 11.620000000000001,11.445" stroke="#ffffff" stroke-width="0.3" stroke-linejoin="round" stroke-linecap="round" fill="none"/>
<polyline points="10.604,10.175 10.858,10.683 11.112,10.429 10.604,10.175" stroke="#ffffff" stroke-width="0.3" stroke-linejoin="round" stroke-linecap="round" fill="none"/>
<circle cx="11.620000000000001" cy="7.127000000000001" r="0.127" stroke="#ffffff" stroke-width="0.3" fill="none"/>
<circle cx="11.620000000000001" cy="8.397" r="0.127" stroke="#ffffff" stroke-width="0.3" fill="none"/>
<line x1="11.620000000000001" y1="10.937000000000001" x2="12.254999999999999" y2="10.937000000000001" stroke="#ffffff" stroke-width="0.3" stroke-linecap="round" fill="none"/>
<circle cx="11.620000000000001" cy="10.937000000000001" r="0.127" stroke="#ffffff" stroke-width="0.3" fill="none"/>
<line x1="11.620000000000001" y1="11.445" x2="11.620000000000001" y2="11.953" stroke="#ffffff" stroke-width="0.3" stroke-linecap="round" fill="none"/>
<circle cx="11.620000000000001" cy="11.445" r="0.127" stroke="#ffffff" stroke-width="0.3" fill="none"/>
<line x1="11.874" y1="10.048" x2="12.636" y2="10.048" stroke="#ffffff" stroke-width="0.3" stroke-linecap="round" fill="none"/>
<line x1="12.254999999999999" y1="8.397" x2="11.620000000000001" y2="8.397" stroke="#ffffff" stroke-width="0.3" stroke-linecap="round" fill="none"/>
<line x1="12.254999999999999" y1="9.286" x2="12.254999999999999" y2="8.397" stroke="#ffffff" stroke-width="0.3" stroke-linecap="round" fill="none"/>
<polyline points="12.254999999999999,10.048 11.874,9.286 12.636,9.286 12.254999999999999,10.048" stroke="#ffffff" stroke-width="0.3" stroke-linejoin="round" stroke-linecap="round" fill="#ffffff"/>
<line x1="12.254999999999999" y1="10.937000000000001" x2="12.254999999999999" y2="10.048" stroke="#ffffff" stroke-width="0.3" stroke-linecap="round" fill="none"/>
<line x1="4" y1="9.413" x2="7.8100000000000005" y2="9.413" stroke="#ffd60a" stroke-width="0.27075714285714286" stroke-linecap="round"/>
<text x="10.81" y="9.413" fill="#ffd60a" font-size="1" font-family="monospace" text-anchor="start" dominant-baseline="middle">B</text>
<line x1="11.620000000000001" y1="4.333" x2="11.62" y2="7" stroke="#ffd60a" stroke-width="0.27075714285714286" stroke-linecap="round"/>
<text x="11.620000000000001" y="4" fill="#ffd60a" font-size="1" font-family="monospace" text-anchor="middle" dominant-baseline="middle">C</text>
<line x1="11.620000000000001" y1="14.493" x2="11.620000000000001" y2="11.953" stroke="#ffd60a" stroke-width="0.27075714285714286" stroke-linecap="round"/>
<text x="11.620000000000001" y="14.953" fill="#ffd60a" font-size="1" font-family="monospace" text-anchor="middle" dominant-baseline="middle">E</text>
</svg>