<svg xmlns="http://www.w3.org/2000/svg" viewBox="0 0 34.32 18.16">
<rect x="7" y="14.16" width="20.32" height="10.16" stroke="#ffffff" stroke-width="0.3" fill="rgba(255,255,255,0.06)"/>
<line x1="9.286000000000001" y1="9.715" x2="11.826" y2="9.715" stroke="#ffffff" stroke-width="0.3" stroke-linecap="round" fill="none"/>
<path d="M 10.556000000000001 8.445 A 0.7157396238651044 0.7157396238651044 0 0 1 9.286000000000001 8.445" stroke="#ffffff" stroke-width="0.3" fill="none"/>
<path d="M 10.556000000000001 8.445 A 0.7277778613648582 0.7277778613648582 0 0 1 11.826 8.445" stroke="#ffffff" stroke-width="0.3" fill="none"/>
<line x1="17.16" y1="4" x2="17.16" y2="5.27" stroke="#ffffff" stroke-width="0.3" stroke-linecap="round" fill="none"/>
<line x1="17.16" y1="6.54" x2="17.16" y2="7.8100000000000005" stroke="#ffffff" stroke-width="0.3" stroke-linecap="round" fill="none"/>
<line x1="17.16" y1="9.08" x2="17.16" y2="10.35" stroke="#ffffff" stroke-width="0.3" stroke-linecap="round" fill="none"/>
<line x1="17.16" y1="11.620000000000001" x2="17.16" y2="12.89" stroke="#ffffff" stroke-width="0.3" stroke-linecap="round" fill="none"/>
<line x1="29.86" y1="6.54" x2="27.32" y2="6.539999999999999" stroke="#ffd60a" stroke-width="0.49028571428571427" stroke-linecap="round"/>
<text x="30.32" y="6.54" fill="#ffd60a" font-size="1" font-family="monospace" text-anchor="end" dominant-baseline="middle">Vout1</text>
<line x1="29.86" y1="9.08" x2="27.32" y2="9.08" stroke="#ffd60a" stroke-width="0.49028571428571427" stroke-linecap="round"/>
<text x="30.32" y="9.08" fill="#ffd60a" font-size="1" font-family="monospace" text-anchor="end" dominant-baseline="middle">Common</text>
<line x1="29.86" y1="11.620000000000001" x2="27.32" y2="11.62" stroke="#ffd60a" stroke-width="0.49028571428571427" stroke-linecap="round"/>
<text x="30.32" y="11.620000000000001" fill="#ffd60a" font-size="1" font-family="monospace" text-anchor="end" dominant-baseline="middle">Vout2</text>
<line x1="4.460000000000001" y1="6.54" x2="7" y2="6.54" stroke="#ffd60a" stroke-width="0.49028571428571427" stroke-linecap="round"/>
<text x="4" y="6.54" fill="#ffd60a" font-size="1" font-family="monospace" text-anchor="start" dominant-baseline="middle">AC(L)</text>
<line x1="4.460000000000001" y1="11.620000000000001" x2="7" y2="11.620000000000001" stroke="#ffd60a" stroke-width="0.49028571428571427" stroke-linecap="round"/>
<text x="4" y="11.620000000000001" fill="#ffd60a" font-size="1" font-family="monospace" text-anchor="start" dominant-baseline="middle">AC(N)</text>
</svg>