<svg xmlns="http://www.w3.org/2000/svg" viewBox="0 0 33.4 33.4">
<rect x="11.62" y="24.32" width="10.16" height="15.24" stroke="#ffffff" stroke-width="0.3" fill="rgba(255,255,255,0.06)"/>
<polyline points="11.62,14.16 21.78,14.16 21.78,14.16" stroke="#ffffff" stroke-width="0.3" stroke-linejoin="round" stroke-linecap="round" fill="none"/>
<polyline points="11.62,19.24 21.78,19.24 21.78,19.24" stroke="#ffffff" stroke-width="0.3" stroke-linejoin="round" stroke-linecap="round" fill="none"/>
<polyline points="13.398,14.921999999999999 13.398,14.16 13.398,14.16" stroke="#ffffff" stroke-width="0.3" stroke-linejoin="round" stroke-linecap="round" fill="none"/>
<polyline points="13.398,14.921999999999999 12.889999999999999,15.684 13.905999999999999,15.684 13.398,14.921999999999999 13.398,14.921999999999999" stroke="#ffffff" stroke-width="0.3" stroke-linejoin="round" stroke-linecap="round" fill="none"/>
<polyline points="13.398,16.445999999999998 13.398,14.921999999999999 13.398,15.684" stroke="#ffffff" stroke-width="0.3" stroke-linejoin="round" stroke-linecap="round" fill="none"/>
<polyline points="13.398,16.445999999999998 15.43,16.445999999999998 15.43,16.445999999999998" stroke="#ffffff" stroke-width="0.3" stroke-linejoin="round" stroke-linecap="round" fill="none"/>
<polyline points="13.398,20.002 13.398,19.24 13.398,19.24" stroke="#ffffff" stroke-width="0.3" stroke-linejoin="round" stroke-linecap="round" fill="none"/>
<polyline points="13.398,20.002 12.889999999999999,20.764 13.905999999999999,20.764 13.398,20.002 13.398,20.002" stroke="#ffffff" stroke-width="0.3" stroke-linejoin="round" stroke-linecap="round" fill="none"/>
<polyline points="13.398,21.526 15.43,21.526 15.43,21.526" stroke="#ffffff" stroke-width="0.3" stroke-linejoin="round" stroke-linecap="round" fill="none"/>
<polyline points="13.398,21.526 13.398,20.002 13.398,20.764 13.398,20.764" stroke="#ffffff" stroke-width="0.3" stroke-linejoin="round" stroke-linecap="round" fill="none"/>
<polyline points="13.905999999999999,14.668 13.905999999999999,14.921999999999999 12.889999999999999,14.921999999999999 12.889999999999999,15.175999999999998 12.889999999999999,15.175999999999998" stroke="#ffffff" stroke-width="0.3" stroke-linejoin="round" stroke-linecap="round" fill="none"/>
<polyline points="13.905999999999999,19.747999999999998 13.905999999999999,20.002 12.889999999999999,20.002 12.889999999999999,20.256 12.889999999999999,20.256" stroke="#ffffff" stroke-width="0.3" stroke-linejoin="round" stroke-linecap="round" fill="none"/>
<polyline points="14.921999999999999,12.636 15.43,12.636 15.937999999999999,12.636" stroke="#ffffff" stroke-width="0.3" stroke-linejoin="round" stroke-linecap="round" fill="none"/>
<polyline points="14.921999999999999,14.921999999999999 15.43,14.921999999999999 15.937999999999999,14.921999999999999" stroke="#ffffff" stroke-width="0.3" stroke-linejoin="round" stroke-linecap="round" fill="none"/>
<polyline points="14.921999999999999,17.716 15.43,17.716 15.937999999999999,17.716" stroke="#ffffff" stroke-width="0.3" stroke-linejoin="round" stroke-linecap="round" fill="none"/>
<polyline points="14.921999999999999,20.002 15.43,20.002 15.937999999999999,20.002" stroke="#ffffff" stroke-width="0.3" stroke-linejoin="round" stroke-linecap="round" fill="none"/>
<polyline points="15.43,12.636 14.921999999999999,13.398 15.937999999999999,13.398 15.43,12.636 15.43,12.636" stroke="#ffffff" stroke-width="0.3" stroke-linejoin="round" stroke-linecap="round" fill="none"/>
<polyline points="15.43,12.636 15.43,11.873999999999999 20.002,11.873999999999999 20.002,12.636 20.002,12.636" stroke="#ffffff" stroke-width="0.3" stroke-linejoin="round" stroke-linecap="round" fill="none"/>
<polyline points="15.43,14.921999999999999 14.921999999999999,15.684 15.937999999999999,15.684 15.43,14.921999999999999 15.43,14.921999999999999" stroke="#ffffff" stroke-width="0.3" stroke-linejoin="round" stroke-linecap="round" fill="none"/>
<polyline points="15.43,14.921999999999999 15.43,12.636 15.43,13.398 15.43,13.398 15.43,13.398" stroke="#ffffff" stroke-width="0.3" stroke-linejoin="round" stroke-linecap="round" fill="none"/>
<polyline points="15.43,16.445999999999998 15.43,14.921999999999999 15.43,15.684" stroke="#ffffff" stroke-width="0.3" stroke-linejoin="round" stroke-linecap="round" fill="none"/>
<polyline points="15.43,16.445999999999998 20.002,16.445999999999998 20.002,16.445999999999998" stroke="#ffffff" stroke-width="0.3" stroke-linejoin="round" stroke-linecap="round" fill="none"/>
<polyline points="15.43,17.208 20.002,17.208 20.002,17.208" stroke="#ffffff" stroke-width="0.3" stroke-linejoin="round" stroke-linecap="round" fill="none"/>
<polyline points="15.43,17.716 15.43,17.208 15.43,17.208" stroke="#ffffff" stroke-width="0.3" stroke-linejoin="round" stroke-linecap="round" fill="none"/>
<polyline points="15.43,17.716 14.921999999999999,18.477999999999998 15.937999999999999,18.477999999999998 15.43,17.716 15.43,17.716" stroke="#ffffff" stroke-width="0.3" stroke-linejoin="round" stroke-linecap="round" fill="none"/>
<polyline points="15.43,20.002 14.921999999999999,20.764 15.937999999999999,20.764 15.43,20.002 15.43,20.002" stroke="#ffffff" stroke-width="0.3" stroke-linejoin="round" stroke-linecap="round" fill="none"/>
<polyline points="15.43,20.002 15.43,17.716 15.43,18.477999999999998 15.43,18.477999999999998 15.43,18.477999999999998" stroke="#ffffff" stroke-width="0.3" stroke-linejoin="round" stroke-linecap="round" fill="none"/>
<polyline points="15.43,21.526 15.43,20.002 15.43,20.764" stroke="#ffffff" stroke-width="0.3" stroke-linejoin="round" stroke-linecap="round" fill="none"/>
<polyline points="15.43,21.526 20.002,21.526 20.002,21.526" stroke="#ffffff" stroke-width="0.3" stroke-linejoin="round" stroke-linecap="round" fill="none"/>
<line x1="16.7" y1="11.873999999999999" x2="16.7" y2="9.079999999999998" stroke="#ffffff" stroke-width="0.3" stroke-linecap="round" fill="none"/>
<polyline points="16.7,24.32 16.7,21.526 16.7,21.526" stroke="#ffffff" stroke-width="0.3" stroke-linejoin="round" stroke-linecap="round" fill="none"/>
<polyline points="19.494,12.636 20.002,12.636 20.509999999999998,12.636" stroke="#ffffff" stroke-width="0.3" stroke-linejoin="round" stroke-linecap="round" fill="none"/>
<polyline points="19.494,14.921999999999999 20.002,14.921999999999999 20.509999999999998,14.921999999999999" stroke="#ffffff" stroke-width="0.3" stroke-linejoin="round" stroke-linecap="round" fill="none"/>
<polyline points="19.494,17.716 20.002,17.716 20.509999999999998,17.716" stroke="#ffffff" stroke-width="0.3" stroke-linejoin="round" stroke-linecap="round" fill="none"/>
<polyline points="19.494,20.002 20.002,20.002 20.509999999999998,20.002" stroke="#ffffff" stroke-width="0.3" stroke-linejoin="round" stroke-linecap="round" fill="none"/>
<polyline points="20.002,12.636 19.494,13.398 20.509999999999998,13.398 20.002,12.636 20.002,12.636" stroke="#ffffff" stroke-width="0.3" stroke-linejoin="round" stroke-linecap="round" fill="none"/>
<polyline points="20.002,14.921999999999999 19.494,15.684 20.509999999999998,15.684 20.002,14.921999999999999 20.002,14.921999999999999" stroke="#ffffff" stroke-width="0.3" stroke-linejoin="round" stroke-linecap="round" fill="none"/>
<polyline points="20.002,14.921999999999999 20.002,12.636 20.002,13.398 20.002,13.398 20.002,13.398" stroke="#ffffff" stroke-width="0.3" stroke-linejoin="round" stroke-linecap="round" fill="none"/>
<polyline points="20.002,16.445999999999998 20.002,14.921999999999999 20.002,15.684 20.002,15.684" stroke="#ffffff" stroke-width="0.3" stroke-linejoin="round" stroke-linecap="round" fill="none"/>
<polyline points="20.002,17.716 20.002,17.208 20.002,17.208" stroke="#ffffff" stroke-width="0.3" stroke-linejoin="round" stroke-linecap="round" fill="none"/>
<polyline points="20.002,17.716 19.494,18.477999999999998 20.509999999999998,18.477999999999998 20.002,17.716 20.002,17.716" stroke="#ffffff" stroke-width="0.3" stroke-linejoin="round" stroke-linecap="round" fill="none"/>
<polyline points="20.002,20.002 19.494,20.764 20.509999999999998,20.764 20.002,20.002 20.002,20.002" stroke="#ffffff" stroke-width="0.3" stroke-linejoin="round" stroke-linecap="round" fill="none"/>
<polyline points="20.002,20.002 20.002,17.716 20.002,18.477999999999998 20.002,18.477999999999998 20.002,18.477999999999998" stroke="#ffffff" stroke-width="0.3" stroke-linejoin="round" stroke-linecap="round" fill="none"/>
<polyline points="20.002,21.526 20.002,20.002 20.002,20.764 20.002,20.764" stroke="#ffffff" stroke-width="0.3" stroke-linejoin="round" stroke-linecap="round" fill="none"/>
<line x1="29.4" y1="14.16" x2="21.779999999999998" y2="14.159999999999998" stroke="#ffd60a" stroke-width="0.47714285714285715" stroke-linecap="round"/>
<text x="18.779999999999998" y="14.159999999999998" fill="#ffd60a" font-size="1" font-family="monospace" text-anchor="end" dominant-baseline="middle">CH1Out</text>
<line x1="16.7" y1="29.4" x2="16.7" y2="24.32" stroke="#ffd60a" stroke-width="0.47714285714285715" stroke-linecap="round"/>
<text x="16.7" y="21.32" fill="#ffd60a" font-size="1" font-family="monospace" text-anchor="middle" dominant-baseline="middle">GND</text>
<line x1="4" y1="14.16" x2="11.620000000000001" y2="14.16" stroke="#ffd60a" stroke-width="0.47714285714285715" stroke-linecap="round"/>
<text x="14.620000000000001" y="14.16" fill="#ffd60a" font-size="1" font-family="monospace" text-anchor="start" dominant-baseline="middle">CH1In</text>
<line x1="4" y1="19.24" x2="11.620000000000001" y2="19.24" stroke="#ffd60a" stroke-width="0.47714285714285715" stroke-linecap="round"/>
<text x="14.620000000000001" y="19.24" fill="#ffd60a" font-size="1" font-family="monospace" text-anchor="start" dominant-baseline="middle">CH2Int</text>
<line x1="16.7" y1="4" x2="16.7" y2="9.08" stroke="#ffd60a" stroke-width="0.47714285714285715" stroke-linecap="round"/>
<text x="16.7" y="12.08" fill="#ffd60a" font-size="1" font-family="monospace" text-anchor="middle" dominant-baseline="middle">VCC</text>
<line x1="29.4" y1="19.24" x2="21.779999999999998" y2="19.24" stroke="#ffd60a" stroke-width="0.47714285714285715" stroke-linecap="round"/>
<text x="18.779999999999998" y="19.24" fill="#ffd60a" font-size="1" font-family="monospace" text-anchor="end" dominant-baseline="middle">CH2Out</text>
</svg>