<svg xmlns="http://www.w3.org/2000/svg" viewBox="0 0 28.32 23.240000000000002">
<rect x="9.08" y="14.16" width="10.16" height="10.16" stroke="#ffffff" stroke-width="0.3" fill="rgba(255,255,255,0.06)"/>
<line x1="9.08" y1="9.08" x2="10.985" y2="9.08" stroke="#ffffff" stroke-width="0.3" stroke-linecap="round" fill="none"/>
<line x1="10.35" y1="6.54" x2="11.620000000000001" y2="6.54" stroke="#ffffff" stroke-width="0.3" stroke-linecap="round" fill="none"/>
<line x1="10.35" y1="10.35" x2="11.620000000000001" y2="10.35" stroke="#ffffff" stroke-width="0.3" stroke-linecap="round" fill="none"/>
<rect x="10.985" y="12.89" width="6.35" height="7.62" stroke="#ffffff" stroke-width="0.3" fill="none"/>
<circle cx="10.985" cy="9.08" r="0.2794" stroke="#ffffff" stroke-width="0.3" fill="#ffffff"/>
<polyline points="11.620000000000001,7.8100000000000005 10.35,7.8100000000000005 10.985,6.54 11.620000000000001,7.8100000000000005" stroke="#ffffff" stroke-width="0.3" stroke-linejoin="round" stroke-linecap="round" fill="none"/>
<polyline points="11.620000000000001,11.620000000000001 10.35,11.620000000000001 10.985,10.35 11.620000000000001,11.620000000000001" stroke="#ffffff" stroke-width="0.3" stroke-linejoin="round" stroke-linecap="round" fill="none"/>
<circle cx="14.16" cy="5.27" r="0.2794" stroke="#ffffff" stroke-width="0.3" fill="#ffffff"/>
<line x1="14.16" y1="5.27" x2="14.16" y2="14.16" stroke="#ffffff" stroke-width="0.3" stroke-linecap="round" fill="none"/>
<circle cx="14.16" cy="12.89" r="0.2794" stroke="#ffffff" stroke-width="0.3" fill="#ffffff"/>
<polyline points="14.795,9.588000000000001 13.525,9.588000000000001 14.16,8.318 14.795,9.588000000000001" stroke="#ffffff" stroke-width="0.3" stroke-linejoin="round" stroke-linecap="round" fill="none"/>
<polyline points="14.922,8.318 13.398,8.318 13.398,8.572" stroke="#ffffff" stroke-width="0.3" stroke-linejoin="round" stroke-linecap="round" fill="none"/>
<line x1="16.7" y1="6.54" x2="17.97" y2="6.54" stroke="#ffffff" stroke-width="0.3" stroke-linecap="round" fill="none"/>
<line x1="16.7" y1="10.35" x2="17.97" y2="10.35" stroke="#ffffff" stroke-width="0.3" stroke-linecap="round" fill="none"/>
<circle cx="17.335" cy="9.08" r="0.2794" stroke="#ffffff" stroke-width="0.3" fill="#ffffff"/>
<polyline points="17.97,7.8100000000000005 16.7,7.8100000000000005 17.335,6.54 17.97,7.8100000000000005" stroke="#ffffff" stroke-width="0.3" stroke-linejoin="round" stroke-linecap="round" fill="none"/>
<polyline points="17.97,11.620000000000001 16.7,11.620000000000001 17.335,10.35 17.97,11.620000000000001" stroke="#ffffff" stroke-width="0.3" stroke-linejoin="round" stroke-linecap="round" fill="none"/>
<line x1="19.240000000000002" y1="9.08" x2="17.335" y2="9.08" stroke="#ffffff" stroke-width="0.3" stroke-linecap="round" fill="none"/>
<line x1="4" y1="9.08" x2="9.08" y2="9.08" stroke="#ffd60a" stroke-width="0.4045714285714286" stroke-linecap="round"/>
<text x="12.08" y="9.08" fill="#ffd60a" font-size="1" font-family="monospace" text-anchor="start" dominant-baseline="middle">D+</text>
<line x1="24.32" y1="9.08" x2="19.240000000000002" y2="9.08" stroke="#ffd60a" stroke-width="0.4045714285714286" stroke-linecap="round"/>
<text x="16.240000000000002" y="9.079999999999998" fill="#ffd60a" font-size="1" font-family="monospace" text-anchor="end" dominant-baseline="middle">D-</text>
<line x1="14.16" y1="19.240000000000002" x2="14.16" y2="14.16" stroke="#ffd60a" stroke-width="0.4045714285714286" stroke-linecap="round"/>
<text x="14.16" y="11.16" fill="#ffd60a" font-size="1" font-family="monospace" text-anchor="middle" dominant-baseline="middle">GND</text>
</svg>