<svg xmlns="http://www.w3.org/2000/svg" viewBox="0 0 34.32 34.32">
<polyline points="22.240000000000002,18.43 22.240000000000002,15.89 20.97,17.16 22.240000000000002,18.43 22.240000000000002,18.43" stroke="#ffffff" stroke-width="0.3" stroke-linejoin="round" stroke-linecap="round" fill="#ffffff"/>
<polyline points="24.78,9.54 20.97,9.54 20.97,12.08 19.7,13.35 20.97,14.620000000000001 19.7,15.89 20.97,17.16 19.7,18.43 20.97,19.7 19.7,20.97 20.97,22.240000000000002 20.97,24.78 18.43,24.78" stroke="#ffffff" stroke-width="0.3" stroke-linejoin="round" stroke-linecap="round" fill="none"/>
<line x1="24.78" y1="17.16" x2="22.240000000000002" y2="17.16" stroke="#ffffff" stroke-width="0.3" stroke-linecap="round" fill="none"/>
<rect x="7" y="27.32" width="20.32" height="20.32" stroke="#ffffff" stroke-width="0.3" fill="rgba(255,255,255,0.06)"/>
<line x1="17.16" y1="4.460000000000001" x2="17.16" y2="7" stroke="#ffd60a" stroke-width="0.49028571428571427" stroke-linecap="round"/>
<text x="17.16" y="4" fill="#ffd60a" font-size="1" font-family="monospace" text-anchor="middle" dominant-baseline="middle">VDD</text>
<line x1="17.16" y1="29.86" x2="17.16" y2="27.32" stroke="#ffd60a" stroke-width="0.49028571428571427" stroke-linecap="round"/>
<text x="17.16" y="30.32" fill="#ffd60a" font-size="1" font-family="monospace" text-anchor="middle" dominant-baseline="middle">GND</text>
<line x1="4.460000000000001" y1="19.7" x2="7" y2="19.7" stroke="#ffd60a" stroke-width="0.49028571428571427" stroke-linecap="round"/>
<text x="4" y="19.7" fill="#ffd60a" font-size="1" font-family="monospace" text-anchor="start" dominant-baseline="middle">SCL</text>
<line x1="4.460000000000001" y1="14.620000000000001" x2="7" y2="14.620000000000001" stroke="#ffd60a" stroke-width="0.49028571428571427" stroke-linecap="round"/>
<text x="4" y="14.620000000000001" fill="#ffd60a" font-size="1" font-family="monospace" text-anchor="start" dominant-baseline="middle">SDA</text>
<line x1="29.86" y1="17.16" x2="27.32" y2="17.16" stroke="#ffd60a" stroke-width="0.49028571428571427" stroke-linecap="round"/>
<text x="30.32" y="17.16" fill="#ffd60a" font-size="1" font-family="monospace" text-anchor="end" dominant-baseline="middle">W</text>
<line x1="29.86" y1="9.54" x2="27.32" y2="9.54" stroke="#ffd60a" stroke-width="0.49028571428571427" stroke-linecap="round"/>
<text x="30.32" y="9.54" fill="#ffd60a" font-size="1" font-family="monospace" text-anchor="end" dominant-baseline="middle">H</text>
</svg>