<svg xmlns="http://www.w3.org/2000/svg" viewBox="0 0 240 280">
<rect x="50" y="50" width="140" height="180" stroke="#ffffff" stroke-width="1.5" fill="rgba(255,255,255,0.04)"/>
<text x="120" y="140" fill="#888" font-size="3" font-family="monospace" text-anchor="middle" dominant-baseline="middle">U</text>
<line x1="30" y1="68" x2="50" y2="68" stroke="#ffd60a" stroke-width="1.5" stroke-linecap="round"/>
<text x="55" y="68" fill="#ffd60a" font-size="2" font-family="monospace" text-anchor="start" dominant-baseline="middle">FB</text>
<line x1="30" y1="104" x2="50" y2="104" stroke="#ffd60a" stroke-width="1.5" stroke-linecap="round"/>
<text x="55" y="104" fill="#ffd60a" font-size="2" font-family="monospace" text-anchor="start" dominant-baseline="middle">BST</text>
<line x1="30" y1="140" x2="50" y2="140" stroke="#ffd60a" stroke-width="1.5" stroke-linecap="round"/>
<text x="55" y="140" fill="#ffd60a" font-size="2" font-family="monospace" text-anchor="start" dominant-baseline="middle">SW</text>
<line x1="30" y1="176" x2="50" y2="176" stroke="#ffd60a" stroke-width="1.5" stroke-linecap="round"/>
<text x="55" y="176" fill="#ffd60a" font-size="2" font-family="monospace" text-anchor="start" dominant-baseline="middle">SW</text>
<line x1="30" y1="212" x2="50" y2="212" stroke="#ffd60a" stroke-width="1.5" stroke-linecap="round"/>
<text x="55" y="212" fill="#ffd60a" font-size="2" font-family="monospace" text-anchor="start" dominant-baseline="middle">SW</text>
<line x1="210" y1="60" x2="190" y2="60" stroke="#ffd60a" stroke-width="1.5" stroke-linecap="round"/>
<text x="185" y="60" fill="#ffd60a" font-size="2" font-family="monospace" text-anchor="end" dominant-baseline="middle">VIN</text>
<line x1="210" y1="80" x2="190" y2="80" stroke="#ffd60a" stroke-width="1.5" stroke-linecap="round"/>
<text x="185" y="80" fill="#ffd60a" font-size="2" font-family="monospace" text-anchor="end" dominant-baseline="middle">PGOOD</text>
<line x1="210" y1="100" x2="190" y2="100" stroke="#ffd60a" stroke-width="1.5" stroke-linecap="round"/>
<text x="185" y="100" fill="#ffd60a" font-size="2" font-family="monospace" text-anchor="end" dominant-baseline="middle">EN</text>
<line x1="210" y1="120" x2="190" y2="120" stroke="#ffd60a" stroke-width="1.5" stroke-linecap="round"/>
<text x="185" y="120" fill="#ffd60a" font-size="2" font-family="monospace" text-anchor="end" dominant-baseline="middle">MODE</text>
<line x1="210" y1="140" x2="190" y2="140" stroke="#ffd60a" stroke-width="1.5" stroke-linecap="round"/>
<text x="185" y="140" fill="#ffd60a" font-size="2" font-family="monospace" text-anchor="end" dominant-baseline="middle">VIN</text>
<line x1="210" y1="160" x2="190" y2="160" stroke="#ffd60a" stroke-width="1.5" stroke-linecap="round"/>
<text x="185" y="160" fill="#ffd60a" font-size="2" font-family="monospace" text-anchor="end" dominant-baseline="middle">VIN</text>
<line x1="210" y1="180" x2="190" y2="180" stroke="#ffd60a" stroke-width="1.5" stroke-linecap="round"/>
<text x="185" y="180" fill="#ffd60a" font-size="2" font-family="monospace" text-anchor="end" dominant-baseline="middle">VIN</text>
<line x1="210" y1="200" x2="190" y2="200" stroke="#ffd60a" stroke-width="1.5" stroke-linecap="round"/>
<text x="185" y="200" fill="#ffd60a" font-size="2" font-family="monospace" text-anchor="end" dominant-baseline="middle">SS</text>
<line x1="210" y1="220" x2="190" y2="220" stroke="#ffd60a" stroke-width="1.5" stroke-linecap="round"/>
<text x="185" y="220" fill="#ffd60a" font-size="2" font-family="monospace" text-anchor="end" dominant-baseline="middle">VCC</text>
<line x1="60" y1="30" x2="60" y2="50" stroke="#ffd60a" stroke-width="1.5" stroke-linecap="round"/>
<text x="60" y="25" fill="#ffd60a" font-size="2" font-family="monospace" text-anchor="middle" dominant-baseline="middle">GND</text>
<line x1="80" y1="30" x2="80" y2="50" stroke="#ffd60a" stroke-width="1.5" stroke-linecap="round"/>
<text x="80" y="25" fill="#ffd60a" font-size="2" font-family="monospace" text-anchor="middle" dominant-baseline="middle">GND</text>
<line x1="100" y1="30" x2="100" y2="50" stroke="#ffd60a" stroke-width="1.5" stroke-linecap="round"/>
<text x="100" y="25" fill="#ffd60a" font-size="2" font-family="monospace" text-anchor="middle" dominant-baseline="middle">NC</text>
<line x1="120" y1="30" x2="120" y2="50" stroke="#ffd60a" stroke-width="1.5" stroke-linecap="round"/>
<text x="120" y="25" fill="#ffd60a" font-size="2" font-family="monospace" text-anchor="middle" dominant-baseline="middle">AGND</text>
<line x1="140" y1="30" x2="140" y2="50" stroke="#ffd60a" stroke-width="1.5" stroke-linecap="round"/>
<text x="140" y="25" fill="#ffd60a" font-size="2" font-family="monospace" text-anchor="middle" dominant-baseline="middle">NC</text>
<line x1="160" y1="30" x2="160" y2="50" stroke="#ffd60a" stroke-width="1.5" stroke-linecap="round"/>
<text x="160" y="25" fill="#ffd60a" font-size="2" font-family="monospace" text-anchor="middle" dominant-baseline="middle">GND</text>
<line x1="180" y1="30" x2="180" y2="50" stroke="#ffd60a" stroke-width="1.5" stroke-linecap="round"/>
<text x="180" y="25" fill="#ffd60a" font-size="2" font-family="monospace" text-anchor="middle" dominant-baseline="middle">GND</text>
</svg>