<svg xmlns="http://www.w3.org/2000/svg" viewBox="0 0 18.62 18.16">
<polyline points="6.999999999999999,4 8.015999999999998,4 8.015999999999998,6.032" stroke="#ffffff" stroke-width="0.3" stroke-linejoin="round" stroke-linecap="round" fill="none"/>
<path d="M 8.015999999999998 6.032 A 0.7620071767497043 0.7620071767497043 0 0 1 8.015999999999998 7.556" stroke="#ffffff" stroke-width="0.3" fill="none"/>
<path d="M 8.015999999999998 7.556 A 0.7620071767497035 0.7620071767497035 0 0 1 8.015999999999998 9.08" stroke="#ffffff" stroke-width="0.3" fill="none"/>
<path d="M 8.015999999999998 9.08 A 0.7620071767497033 0.7620071767497033 0 0 1 8.015999999999998 10.604" stroke="#ffffff" stroke-width="0.3" fill="none"/>
<path d="M 8.015999999999998 10.604 A 0.7620071767497025 0.7620071767497025 0 0 1 8.015999999999998 12.128" stroke="#ffffff" stroke-width="0.3" fill="none"/>
<polyline points="8.015999999999998,12.128 8.015999999999998,14.16 6.999999999999999,14.16" stroke="#ffffff" stroke-width="0.3" stroke-linejoin="round" stroke-linecap="round" fill="none"/>
<rect x="9.286" y="12.128" width="0.508" height="6.096" stroke="#ffffff" stroke-width="0.3" fill="#ffffff"/>
<polyline points="11.064,6.032 11.064,4 12.079999999999998,4" stroke="#ffffff" stroke-width="0.3" stroke-linejoin="round" stroke-linecap="round" fill="none"/>
<path d="M 11.064 7.556 A 0.7620071767497025 0.7620071767497025 0 0 1 11.064 6.032" stroke="#ffffff" stroke-width="0.3" fill="none"/>
<path d="M 11.064 9.08 A 0.7620071767497033 0.7620071767497033 0 0 1 11.064 7.556" stroke="#ffffff" stroke-width="0.3" fill="none"/>
<path d="M 11.064 10.604 A 0.7620071767497035 0.7620071767497035 0 0 1 11.064 9.08" stroke="#ffffff" stroke-width="0.3" fill="none"/>
<path d="M 11.064 12.128 A 0.7620071767497043 0.7620071767497043 0 0 1 11.064 10.604" stroke="#ffffff" stroke-width="0.3" fill="none"/>
<polyline points="12.079999999999998,14.16 11.064,14.16 11.064,12.128" stroke="#ffffff" stroke-width="0.3" stroke-linejoin="round" stroke-linecap="round" fill="none"/>
<line x1="4.459999999999999" y1="4" x2="6.999999999999999" y2="4" stroke="#ffd60a" stroke-width="0.266" stroke-linecap="round"/>
<text x="3.999999999999999" y="4" fill="#ffd60a" font-size="1" font-family="monospace" text-anchor="start" dominant-baseline="middle">1</text>
<line x1="4.459999999999999" y1="14.16" x2="6.999999999999999" y2="14.16" stroke="#ffd60a" stroke-width="0.266" stroke-linecap="round"/>
<text x="3.999999999999999" y="14.16" fill="#ffd60a" font-size="1" font-family="monospace" text-anchor="start" dominant-baseline="middle">2</text>
<line x1="14.62" y1="4" x2="12.079999999999998" y2="4" stroke="#ffd60a" stroke-width="0.266" stroke-linecap="round"/>
<line x1="14.62" y1="14.16" x2="12.079999999999998" y2="14.16" stroke="#ffd60a" stroke-width="0.266" stroke-linecap="round"/>
</svg>