<svg xmlns="http://www.w3.org/2000/svg" viewBox="0 0 23.240000000000002 18.16">
<path d="M 10.350000000000001 5.270000000000001 A 1.2888472055677866 1.2888472055677866 0 0 1 9.080000000000002 6.5146000000000015" stroke="#ffffff" stroke-width="0.3" fill="none"/>
<path d="M 10.350000000000001 7.810000000000002 A 1.2888472055677853 1.2888472055677853 0 0 1 9.080000000000002 9.054600000000002" stroke="#ffffff" stroke-width="0.3" fill="none"/>
<path d="M 10.350000000000001 10.350000000000001 A 1.2888472055677866 1.2888472055677866 0 0 1 9.080000000000002 11.594600000000002" stroke="#ffffff" stroke-width="0.3" fill="none"/>
<path d="M 10.350000000000001 12.890000000000002 A 1.2888472055677842 1.2888472055677842 0 0 1 9.080000000000002 14.134600000000002" stroke="#ffffff" stroke-width="0.3" fill="none"/>
<path d="M 9.080000000000002 4.000000000000002 A 1.2700874554822745 1.2700874554822745 0 0 1 10.350000000000001 5.270000000000001" stroke="#ffffff" stroke-width="0.3" fill="none"/>
<path d="M 9.080000000000002 6.540000000000002 A 1.2700874554822732 1.2700874554822732 0 0 1 10.350000000000001 7.810000000000002" stroke="#ffffff" stroke-width="0.3" fill="none"/>
<path d="M 9.080000000000002 9.080000000000002 A 1.2700874554822736 1.2700874554822736 0 0 1 10.350000000000001 10.350000000000001" stroke="#ffffff" stroke-width="0.3" fill="none"/>
<path d="M 9.080000000000002 11.620000000000001 A 1.2700874554822728 1.2700874554822728 0 0 1 10.350000000000001 12.890000000000002" stroke="#ffffff" stroke-width="0.3" fill="none"/>
<line x1="10.985000000000001" y1="4.000000000000002" x2="10.985000000000001" y2="14.160000000000002" stroke="#ffffff" stroke-width="0.3" stroke-linecap="round" fill="none"/>
<line x1="12.255" y1="14.160000000000002" x2="12.255" y2="4.000000000000002" stroke="#ffffff" stroke-width="0.3" stroke-linecap="round" fill="none"/>
<path d="M 12.915400000000002 5.270000000000001 A 1.2280187319599036 1.2280187319599036 0 0 1 14.16 4.000000000000002" stroke="#ffffff" stroke-width="0.3" fill="none"/>
<path d="M 12.915400000000002 7.810000000000002 A 1.2280187319599005 1.2280187319599005 0 0 1 14.16 6.540000000000002" stroke="#ffffff" stroke-width="0.3" fill="none"/>
<path d="M 12.915400000000002 10.350000000000001 A 1.2280187319599005 1.2280187319599005 0 0 1 14.16 9.080000000000002" stroke="#ffffff" stroke-width="0.3" fill="none"/>
<path d="M 14.16 6.5146000000000015 A 1.2444808629568613 1.2444808629568613 0 0 1 12.915400000000002 5.270000000000001" stroke="#ffffff" stroke-width="0.3" fill="none"/>
<path d="M 14.16 9.054600000000002 A 1.2444808629568629 1.2444808629568629 0 0 1 12.915400000000002 7.810000000000002" stroke="#ffffff" stroke-width="0.3" fill="none"/>
<path d="M 14.16 11.594600000000002 A 1.2444808629568642 1.2444808629568642 0 0 1 12.915400000000002 10.350000000000001" stroke="#ffffff" stroke-width="0.3" fill="none"/>
<path d="M 12.940800000000001 12.890000000000002 A 1.2283301630408887 1.2283301630408887 0 0 1 14.185400000000001 11.620000000000001" stroke="#ffffff" stroke-width="0.3" fill="none"/>
<path d="M 14.185400000000001 14.134600000000002 A 1.2439692528368727 1.2439692528368727 0 0 1 12.940800000000001 12.890000000000002" stroke="#ffffff" stroke-width="0.3" fill="none"/>
<line x1="4.000000000000001" y1="4.000000000000002" x2="9.080000000000002" y2="4.000000000000002" stroke="#ffd60a" stroke-width="0.332" stroke-linecap="round"/>
<text x="12.080000000000002" y="4.000000000000002" fill="#ffd60a" font-size="1" font-family="monospace" text-anchor="start" dominant-baseline="middle">AA</text>
<line x1="4.000000000000001" y1="14.160000000000002" x2="9.080000000000002" y2="14.160000000000002" stroke="#ffd60a" stroke-width="0.332" stroke-linecap="round"/>
<text x="12.080000000000002" y="14.160000000000002" fill="#ffd60a" font-size="1" font-family="monospace" text-anchor="start" dominant-baseline="middle">AB</text>
<line x1="19.240000000000002" y1="14.160000000000002" x2="14.16" y2="14.16" stroke="#ffd60a" stroke-width="0.332" stroke-linecap="round"/>
<text x="11.16" y="14.16" fill="#ffd60a" font-size="1" font-family="monospace" text-anchor="end" dominant-baseline="middle">SA</text>
<line x1="19.240000000000002" y1="4.000000000000002" x2="14.16" y2="4.000000000000001" stroke="#ffd60a" stroke-width="0.332" stroke-linecap="round"/>
<text x="11.16" y="4.000000000000001" fill="#ffd60a" font-size="1" font-family="monospace" text-anchor="end" dominant-baseline="middle">SB</text>
</svg>