<svg xmlns="http://www.w3.org/2000/svg" viewBox="0 0 23.240000000000002 24.16">
<line x1="6.540000000000001" y1="14.620000000000001" x2="8.318000000000001" y2="14.620000000000001" stroke="#ffffff" stroke-width="0.3" stroke-linecap="round" fill="none"/>
<line x1="8.572000000000001" y1="14.620000000000001" x2="8.826" y2="14.620000000000001" stroke="#ffffff" stroke-width="0.3" stroke-linecap="round" fill="none"/>
<line x1="9.080000000000002" y1="14.620000000000001" x2="9.334000000000001" y2="14.620000000000001" stroke="#ffffff" stroke-width="0.3" stroke-linecap="round" fill="none"/>
<line x1="9.588000000000001" y1="14.620000000000001" x2="9.842" y2="14.620000000000001" stroke="#ffffff" stroke-width="0.3" stroke-linecap="round" fill="none"/>
<line x1="10.096" y1="14.620000000000001" x2="10.350000000000001" y2="14.620000000000001" stroke="#ffffff" stroke-width="0.3" stroke-linecap="round" fill="none"/>
<line x1="10.604000000000001" y1="14.620000000000001" x2="10.858" y2="14.620000000000001" stroke="#ffffff" stroke-width="0.3" stroke-linecap="round" fill="none"/>
<line x1="11.112000000000002" y1="14.620000000000001" x2="11.366000000000001" y2="14.620000000000001" stroke="#ffffff" stroke-width="0.3" stroke-linecap="round" fill="none"/>
<line x1="11.620000000000001" y1="13.604" x2="11.620000000000001" y2="13.35" stroke="#ffffff" stroke-width="0.3" stroke-linecap="round" fill="none"/>
<line x1="11.620000000000001" y1="14.112" x2="11.620000000000001" y2="13.858" stroke="#ffffff" stroke-width="0.3" stroke-linecap="round" fill="none"/>
<line x1="6.540000000000001" y1="12.08" x2="8.826" y2="12.08" stroke="#ffffff" stroke-width="0.3" stroke-linecap="round" fill="none"/>
<rect x="7.8100000000000005" y="17.16" width="7.62" height="10.16" stroke="#ffffff" stroke-width="0.3" fill="rgba(255,255,255,0.06)"/>
<line x1="9.334000000000001" y1="11.445" x2="13.525" y2="10.175" stroke="#ffffff" stroke-width="0.3" stroke-linecap="round" fill="none"/>
<circle cx="9.461000000000002" cy="12.08" r="0.508" stroke="#ffffff" stroke-width="0.3" fill="none"/>
<line x1="11.620000000000001" y1="11.826" x2="11.620000000000001" y2="10.81" stroke="#ffffff" stroke-width="0.3" stroke-linecap="round" fill="none"/>
<line x1="11.620000000000001" y1="12.08" x2="11.620000000000001" y2="11.572" stroke="#ffffff" stroke-width="0.3" stroke-linecap="round" fill="none"/>
<line x1="11.620000000000001" y1="12.588000000000001" x2="11.620000000000001" y2="12.334" stroke="#ffffff" stroke-width="0.3" stroke-linecap="round" fill="none"/>
<line x1="11.620000000000001" y1="13.096" x2="11.620000000000001" y2="12.842" stroke="#ffffff" stroke-width="0.3" stroke-linecap="round" fill="none"/>
<line x1="11.620000000000001" y1="13.604" x2="11.620000000000001" y2="13.35" stroke="#ffffff" stroke-width="0.3" stroke-linecap="round" fill="none"/>
<line x1="11.620000000000001" y1="14.112" x2="11.620000000000001" y2="13.858" stroke="#ffffff" stroke-width="0.3" stroke-linecap="round" fill="none"/>
<line x1="11.620000000000001" y1="14.620000000000001" x2="11.620000000000001" y2="14.366" stroke="#ffffff" stroke-width="0.3" stroke-linecap="round" fill="none"/>
<circle cx="13.779" cy="12.08" r="0.508" stroke="#ffffff" stroke-width="0.3" fill="none"/>
<line x1="16.700000000000003" y1="12.08" x2="14.414000000000001" y2="12.08" stroke="#ffffff" stroke-width="0.3" stroke-linecap="round" fill="none"/>
<line x1="4.000000000000001" y1="12.08" x2="6.540000000000001" y2="12.08" stroke="#ffd60a" stroke-width="0.34514285714285714" stroke-linecap="round"/>
<line x1="19.240000000000002" y1="12.08" x2="16.700000000000003" y2="12.08" stroke="#ffd60a" stroke-width="0.34514285714285714" stroke-linecap="round"/>
<line x1="14.16" y1="19.7" x2="14.16" y2="17.16" stroke="#ffd60a" stroke-width="0.34514285714285714" stroke-linecap="round"/>
<text x="14.16" y="20.16" fill="#ffd60a" font-size="1" font-family="monospace" text-anchor="middle" dominant-baseline="middle">GND</text>
<line x1="4.000000000000001" y1="14.620000000000001" x2="6.540000000000001" y2="14.620000000000001" stroke="#ffd60a" stroke-width="0.34514285714285714" stroke-linecap="round"/>
<line x1="14.16" y1="4.46" x2="14.16" y2="7" stroke="#ffd60a" stroke-width="0.34514285714285714" stroke-linecap="round"/>
<text x="14.16" y="4" fill="#ffd60a" font-size="1" font-family="monospace" text-anchor="middle" dominant-baseline="middle">V+</text>
</svg>