<svg xmlns="http://www.w3.org/2000/svg" viewBox="0 0 26.700000000000003 24.16">
<line x1="5.73" y1="13.096" x2="4.841" y2="13.985" stroke="#ffffff" stroke-width="0.3" stroke-linecap="round" fill="none"/>
<line x1="5.73" y1="13.096" x2="5.222" y2="13.096" stroke="#ffffff" stroke-width="0.3" stroke-linecap="round" fill="none"/>
<line x1="5.73" y1="13.096" x2="5.73" y2="13.604" stroke="#ffffff" stroke-width="0.3" stroke-linecap="round" fill="none"/>
<line x1="5.857" y1="12.08" x2="4.968" y2="12.969" stroke="#ffffff" stroke-width="0.3" stroke-linecap="round" fill="none"/>
<line x1="5.857" y1="12.08" x2="5.349" y2="12.08" stroke="#ffffff" stroke-width="0.3" stroke-linecap="round" fill="none"/>
<line x1="5.857" y1="12.08" x2="5.857" y2="12.588000000000001" stroke="#ffffff" stroke-width="0.3" stroke-linecap="round" fill="none"/>
<line x1="7.2540000000000004" y1="15.636" x2="6.365" y2="16.525" stroke="#ffffff" stroke-width="0.3" stroke-linecap="round" fill="none"/>
<line x1="7.2540000000000004" y1="15.636" x2="6.746" y2="15.636" stroke="#ffffff" stroke-width="0.3" stroke-linecap="round" fill="none"/>
<line x1="7.2540000000000004" y1="15.636" x2="7.2540000000000004" y2="16.144" stroke="#ffffff" stroke-width="0.3" stroke-linecap="round" fill="none"/>
<line x1="7.381" y1="14.620000000000001" x2="6.492" y2="15.509" stroke="#ffffff" stroke-width="0.3" stroke-linecap="round" fill="none"/>
<line x1="7.381" y1="14.620000000000001" x2="6.873" y2="14.620000000000001" stroke="#ffffff" stroke-width="0.3" stroke-linecap="round" fill="none"/>
<line x1="7.381" y1="14.620000000000001" x2="7.381" y2="15.128" stroke="#ffffff" stroke-width="0.3" stroke-linecap="round" fill="none"/>
<line x1="7.7620000000000005" y1="11.572" x2="6.238" y2="11.572" stroke="#ffffff" stroke-width="0.3" stroke-linecap="round" fill="none"/>
<polyline points="7.7620000000000005,13.35 6.238,13.35 7,11.699 7.7620000000000005,13.35" stroke="#ffffff" stroke-width="0.3" stroke-linejoin="round" stroke-linecap="round" fill="#ffffff"/>
<line x1="9.159" y1="14.112" x2="7.635" y2="14.112" stroke="#ffffff" stroke-width="0.3" stroke-linecap="round" fill="none"/>
<polyline points="9.159,15.89 7.635,15.89 8.397,14.239 9.159,15.89" stroke="#ffffff" stroke-width="0.3" stroke-linejoin="round" stroke-linecap="round" fill="#ffffff"/>
<polyline points="8.27,12.08 9.667,10.683 13.731,10.683 13.731,12.08" stroke="#ffffff" stroke-width="0.3" stroke-linejoin="round" stroke-linecap="round" fill="none"/>
<polyline points="8.27,12.08 9.667,13.477 13.731,13.477 13.731,12.08" stroke="#ffffff" stroke-width="0.3" stroke-linejoin="round" stroke-linecap="round" fill="none"/>
<rect x="4.46" y="17.16" width="15.24" height="10.16" stroke="#ffffff" stroke-width="0.3" fill="rgba(255,255,255,0.06)"/>
<polyline points="7,13.604 7,11.064 9.286,11.064" stroke="#ffffff" stroke-width="0.3" stroke-linejoin="round" stroke-linecap="round" fill="none"/>
<line x1="7.2540000000000004" y1="13.731" x2="6.746" y2="13.731" stroke="#ffffff" stroke-width="0.3" stroke-linecap="round" fill="none"/>
<polyline points="8.397,16.144 8.397,13.096 9.286,13.096" stroke="#ffffff" stroke-width="0.3" stroke-linejoin="round" stroke-linecap="round" fill="none"/>
<line x1="8.651" y1="16.271" x2="8.143" y2="16.271" stroke="#ffffff" stroke-width="0.3" stroke-linecap="round" fill="none"/>
<line x1="22.240000000000002" y1="12.08" x2="19.7" y2="12.08" stroke="#ffd60a" stroke-width="0.38142857142857145" stroke-linecap="round"/>
<text x="22.700000000000003" y="12.08" fill="#ffd60a" font-size="1" font-family="monospace" text-anchor="end" dominant-baseline="middle">SCL</text>
<line x1="22.240000000000002" y1="14.620000000000001" x2="19.7" y2="14.62" stroke="#ffd60a" stroke-width="0.38142857142857145" stroke-linecap="round"/>
<text x="22.700000000000003" y="14.620000000000001" fill="#ffd60a" font-size="1" font-family="monospace" text-anchor="end" dominant-baseline="middle">INT</text>
<line x1="14.620000000000001" y1="19.7" x2="14.620000000000001" y2="17.16" stroke="#ffd60a" stroke-width="0.38142857142857145" stroke-linecap="round"/>
<text x="14.620000000000001" y="20.16" fill="#ffd60a" font-size="1" font-family="monospace" text-anchor="middle" dominant-baseline="middle">GND</text>
<line x1="4.46" y1="9.54" x2="7" y2="9.54" stroke="#ffd60a" stroke-width="0.38142857142857145" stroke-linecap="round"/>
<text x="4" y="9.54" fill="#ffd60a" font-size="1" font-family="monospace" text-anchor="start" dominant-baseline="middle">NC</text>
<line x1="14.620000000000001" y1="4.46" x2="14.62" y2="7" stroke="#ffd60a" stroke-width="0.38142857142857145" stroke-linecap="round"/>
<text x="14.620000000000001" y="4" fill="#ffd60a" font-size="1" font-family="monospace" text-anchor="middle" dominant-baseline="middle">VDD</text>
<line x1="22.240000000000002" y1="9.54" x2="19.7" y2="9.54" stroke="#ffd60a" stroke-width="0.38142857142857145" stroke-linecap="round"/>
<text x="22.700000000000003" y="9.54" fill="#ffd60a" font-size="1" font-family="monospace" text-anchor="end" dominant-baseline="middle">SDA</text>
</svg>