<svg xmlns="http://www.w3.org/2000/svg" viewBox="0 0 28.78 26.700000000000003">
<polyline points="6.540000000000001,10.048 6.540000000000001,12.588000000000001 8.953000000000001,12.588000000000001" stroke="#ffffff" stroke-width="0.3" stroke-linejoin="round" stroke-linecap="round" fill="none"/>
<polyline points="6.540000000000001,16.144 6.540000000000001,13.35 8.953000000000001,13.35" stroke="#ffffff" stroke-width="0.3" stroke-linejoin="round" stroke-linecap="round" fill="none"/>
<polyline points="8.572000000000001,12.969 9.969000000000001,11.572 14.033000000000001,11.572 14.033000000000001,12.969" stroke="#ffffff" stroke-width="0.3" stroke-linejoin="round" stroke-linecap="round" fill="none"/>
<polyline points="8.572000000000001,12.969 9.969000000000001,14.366 14.033000000000001,14.366 14.033000000000001,12.969" stroke="#ffffff" stroke-width="0.3" stroke-linejoin="round" stroke-linecap="round" fill="none"/>
<line x1="14.033000000000001" y1="12.969" x2="14.414000000000001" y2="12.969" stroke="#ffffff" stroke-width="0.3" stroke-linecap="round" fill="none"/>
<rect x="14.541" y="16.652" width="2.413" height="6.8580000000000005" stroke="#ffffff" stroke-width="0.3" fill="none"/>
<line x1="5.397000000000001" y1="10.683" x2="4.508000000000001" y2="9.794" stroke="#ffffff" stroke-width="0.3" stroke-linecap="round" fill="none"/>
<line x1="5.397000000000001" y1="10.683" x2="4.889000000000001" y2="10.683" stroke="#ffffff" stroke-width="0.3" stroke-linecap="round" fill="none"/>
<line x1="5.397000000000001" y1="10.683" x2="5.397000000000001" y2="10.175" stroke="#ffffff" stroke-width="0.3" stroke-linecap="round" fill="none"/>
<line x1="5.397000000000001" y1="15.382" x2="4.508000000000001" y2="16.271" stroke="#ffffff" stroke-width="0.3" stroke-linecap="round" fill="none"/>
<line x1="5.397000000000001" y1="15.382" x2="4.889000000000001" y2="15.382" stroke="#ffffff" stroke-width="0.3" stroke-linecap="round" fill="none"/>
<line x1="5.397000000000001" y1="15.382" x2="5.397000000000001" y2="15.89" stroke="#ffffff" stroke-width="0.3" stroke-linecap="round" fill="none"/>
<line x1="5.524000000000001" y1="11.699" x2="4.635000000000001" y2="10.81" stroke="#ffffff" stroke-width="0.3" stroke-linecap="round" fill="none"/>
<line x1="5.524000000000001" y1="11.699" x2="5.016000000000001" y2="11.699" stroke="#ffffff" stroke-width="0.3" stroke-linecap="round" fill="none"/>
<line x1="5.524000000000001" y1="11.699" x2="5.524000000000001" y2="11.191" stroke="#ffffff" stroke-width="0.3" stroke-linecap="round" fill="none"/>
<line x1="5.524000000000001" y1="14.366" x2="4.635000000000001" y2="15.254999999999999" stroke="#ffffff" stroke-width="0.3" stroke-linecap="round" fill="none"/>
<line x1="5.524000000000001" y1="14.366" x2="5.016000000000001" y2="14.366" stroke="#ffffff" stroke-width="0.3" stroke-linecap="round" fill="none"/>
<line x1="5.524000000000001" y1="14.366" x2="5.524000000000001" y2="14.874" stroke="#ffffff" stroke-width="0.3" stroke-linecap="round" fill="none"/>
<polyline points="5.778000000000001,10.429 7.429000000000001,10.429 6.540000000000001,12.08 5.778000000000001,10.429" stroke="#ffffff" stroke-width="0.3" stroke-linejoin="round" stroke-linecap="round" fill="#ffffff"/>
<line x1="5.778000000000001" y1="12.08" x2="7.429000000000001" y2="12.08" stroke="#ffffff" stroke-width="0.3" stroke-linecap="round" fill="none"/>
<line x1="5.778000000000001" y1="13.985" x2="7.429000000000001" y2="13.985" stroke="#ffffff" stroke-width="0.3" stroke-linecap="round" fill="none"/>
<polyline points="5.778000000000001,15.636 7.429000000000001,15.636 6.540000000000001,13.985 5.778000000000001,15.636" stroke="#ffffff" stroke-width="0.3" stroke-linejoin="round" stroke-linecap="round" fill="#ffffff"/>
<rect x="4.000000000000001" y="19.7" width="17.78" height="12.7" stroke="#ffffff" stroke-width="0.3" fill="rgba(255,255,255,0.06)"/>
<line x1="11.620000000000001" y1="4.46" x2="11.620000000000001" y2="7" stroke="#ffd60a" stroke-width="0.41114285714285714" stroke-linecap="round"/>
<text x="11.620000000000001" y="4" fill="#ffd60a" font-size="1" font-family="monospace" text-anchor="middle" dominant-baseline="middle">VDD</text>
<line x1="11.620000000000001" y1="22.240000000000002" x2="11.620000000000001" y2="19.7" stroke="#ffd60a" stroke-width="0.41114285714285714" stroke-linecap="round"/>
<text x="11.620000000000001" y="22.700000000000003" fill="#ffd60a" font-size="1" font-family="monospace" text-anchor="middle" dominant-baseline="middle">GND</text>
<line x1="24.32" y1="14.620000000000001" x2="21.78" y2="14.62" stroke="#ffd60a" stroke-width="0.41114285714285714" stroke-linecap="round"/>
<text x="24.78" y="14.620000000000001" fill="#ffd60a" font-size="1" font-family="monospace" text-anchor="end" dominant-baseline="middle">CLK</text>
<line x1="24.32" y1="12.08" x2="21.78" y2="12.08" stroke="#ffd60a" stroke-width="0.41114285714285714" stroke-linecap="round"/>
<text x="24.78" y="12.08" fill="#ffd60a" font-size="1" font-family="monospace" text-anchor="end" dominant-baseline="middle">DAT</text>
</svg>