<svg xmlns="http://www.w3.org/2000/svg" viewBox="0 0 29.7099 20.7">
<path d="M 4.802899999999999 12.128 A 1.9708585502553306 1.9708585502553306 0 0 1 4.802899999999999 8.953" stroke="#ffffff" stroke-width="0.3" fill="none"/>
<line x1="16.9949" y1="5.27" x2="15.2169" y2="5.27" stroke="#ffffff" stroke-width="0.3" stroke-linecap="round" fill="none"/>
<line x1="16.9949" y1="15.43" x2="15.2169" y2="15.43" stroke="#ffffff" stroke-width="0.3" stroke-linecap="round" fill="none"/>
<line x1="6.3269" y1="9.969" x2="5.437900000000001" y2="9.08" stroke="#ffffff" stroke-width="0.3" stroke-linecap="round" fill="none"/>
<line x1="6.3269" y1="9.969" x2="5.818899999999999" y2="9.969" stroke="#ffffff" stroke-width="0.3" stroke-linecap="round" fill="none"/>
<line x1="6.3269" y1="9.969" x2="6.3269" y2="9.461" stroke="#ffffff" stroke-width="0.3" stroke-linecap="round" fill="none"/>
<line x1="6.453900000000001" y1="10.985" x2="5.5649" y2="10.096" stroke="#ffffff" stroke-width="0.3" stroke-linecap="round" fill="none"/>
<line x1="6.453900000000001" y1="10.985" x2="5.9459" y2="10.985" stroke="#ffffff" stroke-width="0.3" stroke-linecap="round" fill="none"/>
<line x1="6.453900000000001" y1="10.985" x2="6.453900000000001" y2="10.477" stroke="#ffffff" stroke-width="0.3" stroke-linecap="round" fill="none"/>
<polyline points="6.7079,9.715 8.3589,9.715 7.4699,11.366 6.7079,9.715" stroke="#ffffff" stroke-width="0.3" stroke-linejoin="round" stroke-linecap="round" fill="#ffffff"/>
<line x1="6.7079" y1="11.366" x2="8.3589" y2="11.366" stroke="#ffffff" stroke-width="0.3" stroke-linecap="round" fill="none"/>
<rect x="8.9939" y="16.319" width="6.223" height="11.938" stroke="#ffffff" stroke-width="0.3" fill="none"/>
<polyline points="8.9939,8.953 7.4699,8.953 7.4699,12.128 8.9939,12.128" stroke="#ffffff" stroke-width="0.3" stroke-linejoin="round" stroke-linecap="round" fill="none"/>
<line x1="16.3599" y1="12.254999999999999" x2="16.3599" y2="14.16" stroke="#ffffff" stroke-width="0.3" stroke-linecap="round" fill="none"/>
<polyline points="16.3599,12.89 16.9949,12.254999999999999 16.9949,10.35 17.6299,10.35" stroke="#ffffff" stroke-width="0.3" stroke-linejoin="round" stroke-linecap="round" fill="none"/>
<line x1="16.3599" y1="13.270999999999999" x2="15.2169" y2="13.270999999999999" stroke="#ffffff" stroke-width="0.3" stroke-linecap="round" fill="none"/>
<polyline points="16.3599,13.524999999999999 16.9949,14.16 16.9949,15.43 17.6299,15.43" stroke="#ffffff" stroke-width="0.3" stroke-linejoin="round" stroke-linecap="round" fill="none"/>
<line x1="16.4869" y1="13.905999999999999" x2="16.6139" y2="13.905999999999999" stroke="#ffffff" stroke-width="0.3" stroke-linecap="round" fill="none"/>
<line x1="16.7409" y1="13.905999999999999" x2="16.6139" y2="13.905999999999999" stroke="#ffffff" stroke-width="0.3" stroke-linecap="round" fill="none"/>
<line x1="16.7409" y1="13.905999999999999" x2="16.7409" y2="13.652" stroke="#ffffff" stroke-width="0.3" stroke-linecap="round" fill="none"/>
<polyline points="16.9949,5.904999999999999 16.9949,5.27 17.6299,5.27" stroke="#ffffff" stroke-width="0.3" stroke-linejoin="round" stroke-linecap="round" fill="none"/>
<line x1="16.9949" y1="10.35" x2="16.9949" y2="9.08" stroke="#ffffff" stroke-width="0.3" stroke-linecap="round" fill="none"/>
<rect x="16.3599" y="9.08" width="1.27" height="3.1750000000000003" stroke="#ffffff" stroke-width="0.3" fill="none"/>
<rect x="4.9299" y="16.7" width="17.78" height="12.7" stroke="#ffffff" stroke-width="0.3" fill="rgba(255,255,255,0.06)"/>
<line x1="25.2499" y1="10.35" x2="22.7099" y2="10.35" stroke="#ffd60a" stroke-width="0.4244271428571429" stroke-linecap="round"/>
<text x="25.7099" y="10.35" fill="#ffd60a" font-size="1" font-family="monospace" text-anchor="end" dominant-baseline="middle">OUT</text>
<line x1="25.2499" y1="15.43" x2="22.7099" y2="15.43" stroke="#ffd60a" stroke-width="0.4244271428571429" stroke-linecap="round"/>
<text x="25.7099" y="15.43" fill="#ffd60a" font-size="1" font-family="monospace" text-anchor="end" dominant-baseline="middle">GND</text>
<line x1="25.2499" y1="5.27" x2="22.7099" y2="5.27" stroke="#ffd60a" stroke-width="0.4244271428571429" stroke-linecap="round"/>
<text x="25.7099" y="5.27" fill="#ffd60a" font-size="1" font-family="monospace" text-anchor="end" dominant-baseline="middle">Vs</text>
</svg>