<svg xmlns="http://www.w3.org/2000/svg" viewBox="0 0 180 240">
<rect x="50" y="50" width="80" height="140" stroke="#ffffff" stroke-width="1.5" fill="rgba(255,255,255,0.04)"/>
<text x="90" y="120" fill="#888" font-size="3" font-family="monospace" text-anchor="middle" dominant-baseline="middle">U</text>
<line x1="30" y1="67.5" x2="50" y2="67.5" stroke="#ffd60a" stroke-width="1.5" stroke-linecap="round"/>
<text x="55" y="67.5" fill="#ffd60a" font-size="2" font-family="monospace" text-anchor="start" dominant-baseline="middle">LO</text>
<line x1="30" y1="102.5" x2="50" y2="102.5" stroke="#ffd60a" stroke-width="1.5" stroke-linecap="round"/>
<text x="55" y="102.5" fill="#ffd60a" font-size="2" font-family="monospace" text-anchor="start" dominant-baseline="middle">HB</text>
<line x1="30" y1="137.5" x2="50" y2="137.5" stroke="#ffd60a" stroke-width="1.5" stroke-linecap="round"/>
<text x="55" y="137.5" fill="#ffd60a" font-size="2" font-family="monospace" text-anchor="start" dominant-baseline="middle">HO</text>
<line x1="30" y1="172.5" x2="50" y2="172.5" stroke="#ffd60a" stroke-width="1.5" stroke-linecap="round"/>
<text x="55" y="172.5" fill="#ffd60a" font-size="2" font-family="monospace" text-anchor="start" dominant-baseline="middle">HS</text>
<line x1="150" y1="60" x2="130" y2="60" stroke="#ffd60a" stroke-width="1.5" stroke-linecap="round"/>
<text x="125" y="60" fill="#ffd60a" font-size="2" font-family="monospace" text-anchor="end" dominant-baseline="middle">HV</text>
<line x1="150" y1="80" x2="130" y2="80" stroke="#ffd60a" stroke-width="1.5" stroke-linecap="round"/>
<text x="125" y="80" fill="#ffd60a" font-size="2" font-family="monospace" text-anchor="end" dominant-baseline="middle">BLK</text>
<line x1="150" y1="100" x2="130" y2="100" stroke="#ffd60a" stroke-width="1.5" stroke-linecap="round"/>
<text x="125" y="100" fill="#ffd60a" font-size="2" font-family="monospace" text-anchor="end" dominant-baseline="middle">FB</text>
<line x1="150" y1="120" x2="130" y2="120" stroke="#ffd60a" stroke-width="1.5" stroke-linecap="round"/>
<text x="125" y="120" fill="#ffd60a" font-size="2" font-family="monospace" text-anchor="end" dominant-baseline="middle">ISNS</text>
<line x1="150" y1="140" x2="130" y2="140" stroke="#ffd60a" stroke-width="1.5" stroke-linecap="round"/>
<text x="125" y="140" fill="#ffd60a" font-size="2" font-family="monospace" text-anchor="end" dominant-baseline="middle">VCR</text>
<line x1="150" y1="160" x2="130" y2="160" stroke="#ffd60a" stroke-width="1.5" stroke-linecap="round"/>
<text x="125" y="160" fill="#ffd60a" font-size="2" font-family="monospace" text-anchor="end" dominant-baseline="middle">BW</text>
<line x1="150" y1="180" x2="130" y2="180" stroke="#ffd60a" stroke-width="1.5" stroke-linecap="round"/>
<text x="125" y="180" fill="#ffd60a" font-size="2" font-family="monospace" text-anchor="end" dominant-baseline="middle">LL/SS</text>
<line x1="90" y1="30" x2="90" y2="50" stroke="#ffd60a" stroke-width="1.5" stroke-linecap="round"/>
<text x="90" y="25" fill="#ffd60a" font-size="2" font-family="monospace" text-anchor="middle" dominant-baseline="middle">GND</text>
<line x1="70" y1="210" x2="70" y2="190" stroke="#ffd60a" stroke-width="1.5" stroke-linecap="round"/>
<text x="70" y="224" fill="#ffd60a" font-size="2" font-family="monospace" text-anchor="middle" dominant-baseline="middle">VCC</text>
<line x1="110" y1="210" x2="110" y2="190" stroke="#ffd60a" stroke-width="1.5" stroke-linecap="round"/>
<text x="110" y="224" fill="#ffd60a" font-size="2" font-family="monospace" text-anchor="middle" dominant-baseline="middle">RVCC</text>
</svg>