<svg xmlns="http://www.w3.org/2000/svg" viewBox="0 0 21.16 26.700000000000003">
<circle cx="8.524000000000001" cy="9.54" r="0.0001" stroke="#ffffff" stroke-width="0.508" fill="none"/>
<circle cx="10.302" cy="7.508" r="0.0001" stroke="#ffffff" stroke-width="0.508" fill="none"/>
<circle cx="10.302" cy="12.08" r="0.0001" stroke="#ffffff" stroke-width="0.508" fill="none"/>
<circle cx="10.302" cy="19.192" r="0.0001" stroke="#ffffff" stroke-width="0.508" fill="none"/>
<circle cx="11.572" cy="7.508" r="0.0001" stroke="#ffffff" stroke-width="0.508" fill="none"/>
<circle cx="11.572" cy="19.192" r="0.0001" stroke="#ffffff" stroke-width="0.508" fill="none"/>
<circle cx="12.08" cy="14.620000000000001" r="0.0001" stroke="#ffffff" stroke-width="0.508" fill="none"/>
<circle cx="12.588000000000001" cy="7.508" r="0.0001" stroke="#ffffff" stroke-width="0.508" fill="none"/>
<circle cx="12.588000000000001" cy="19.192" r="0.0001" stroke="#ffffff" stroke-width="0.508" fill="none"/>
<circle cx="13.858" cy="7.508" r="0.0001" stroke="#ffffff" stroke-width="0.508" fill="none"/>
<circle cx="13.858" cy="17.16" r="0.0001" stroke="#ffffff" stroke-width="0.508" fill="none"/>
<circle cx="13.858" cy="19.192" r="0.0001" stroke="#ffffff" stroke-width="0.508" fill="none"/>
<line x1="7" y1="9.54" x2="8.524000000000001" y2="9.54" stroke="#ffffff" stroke-width="0.3" stroke-linecap="round" fill="none"/>
<line x1="7" y1="12.08" x2="10.302" y2="12.08" stroke="#ffffff" stroke-width="0.3" stroke-linecap="round" fill="none"/>
<line x1="7" y1="14.620000000000001" x2="12.08" y2="14.620000000000001" stroke="#ffffff" stroke-width="0.3" stroke-linecap="round" fill="none"/>
<line x1="7" y1="17.16" x2="13.858" y2="17.16" stroke="#ffffff" stroke-width="0.3" stroke-linecap="round" fill="none"/>
<polyline points="8.016,9.032 9.032,9.032 8.524000000000001,8.016 8.016,9.032" stroke="#ffffff" stroke-width="0.3" stroke-linejoin="round" stroke-linecap="round" fill="none"/>
<line x1="8.016" y1="17.668" x2="9.032" y2="17.668" stroke="#ffffff" stroke-width="0.3" stroke-linecap="round" fill="none"/>
<line x1="9.032" y1="8.016" x2="8.016" y2="8.016" stroke="#ffffff" stroke-width="0.3" stroke-linecap="round" fill="none"/>
<polyline points="9.032,18.684 8.016,18.684 8.524000000000001,17.668 9.032,18.684" stroke="#ffffff" stroke-width="0.3" stroke-linejoin="round" stroke-linecap="round" fill="none"/>
<line x1="9.794" y1="8.016" x2="10.81" y2="8.016" stroke="#ffffff" stroke-width="0.3" stroke-linecap="round" fill="none"/>
<line x1="9.794" y1="17.668" x2="10.81" y2="17.668" stroke="#ffffff" stroke-width="0.3" stroke-linecap="round" fill="none"/>
<polyline points="10.81,9.032 9.794,9.032 10.302,8.016 10.81,9.032" stroke="#ffffff" stroke-width="0.3" stroke-linejoin="round" stroke-linecap="round" fill="none"/>
<polyline points="10.81,18.684 9.794,18.684 10.302,17.668 10.81,18.684" stroke="#ffffff" stroke-width="0.3" stroke-linejoin="round" stroke-linecap="round" fill="none"/>
<polyline points="11.572,9.032 12.588000000000001,9.032 12.08,8.016 11.572,9.032" stroke="#ffffff" stroke-width="0.3" stroke-linejoin="round" stroke-linecap="round" fill="none"/>
<line x1="11.572" y1="17.668" x2="12.588000000000001" y2="17.668" stroke="#ffffff" stroke-width="0.3" stroke-linecap="round" fill="none"/>
<polyline points="11.572,18.684 12.588000000000001,18.684 12.08,17.668 11.572,18.684" stroke="#ffffff" stroke-width="0.3" stroke-linejoin="round" stroke-linecap="round" fill="none"/>
<line x1="12.08" y1="7" x2="12.588000000000001" y2="7.508" stroke="#ffffff" stroke-width="0.3" stroke-linecap="round" fill="none"/>
<line x1="12.588000000000001" y1="8.016" x2="11.572" y2="8.016" stroke="#ffffff" stroke-width="0.3" stroke-linecap="round" fill="none"/>
<line x1="12.588000000000001" y1="19.192" x2="11.572" y2="19.192" stroke="#ffffff" stroke-width="0.3" stroke-linecap="round" fill="none"/>
<line x1="13.35" y1="8.016" x2="14.366" y2="8.016" stroke="#ffffff" stroke-width="0.3" stroke-linecap="round" fill="none"/>
<polyline points="13.35,18.684 14.366,18.684 13.858,17.668 13.35,18.684" stroke="#ffffff" stroke-width="0.3" stroke-linejoin="round" stroke-linecap="round" fill="none"/>
<polyline points="13.858,7.508 15.382,7.508 15.382,19.192 13.858,19.192" stroke="#ffffff" stroke-width="0.3" stroke-linejoin="round" stroke-linecap="round" fill="none"/>
<polyline points="14.366,9.032 13.35,9.032 13.858,8.016 14.366,9.032" stroke="#ffffff" stroke-width="0.3" stroke-linejoin="round" stroke-linecap="round" fill="none"/>
<line x1="14.366" y1="17.668" x2="13.35" y2="17.668" stroke="#ffffff" stroke-width="0.3" stroke-linecap="round" fill="none"/>
<polyline points="14.874,12.842 14.874,12.461 15.89,12.461" stroke="#ffffff" stroke-width="0.3" stroke-linejoin="round" stroke-linecap="round" fill="none"/>
<polyline points="15.89,13.604 14.874,13.604 15.382,12.588000000000001 15.89,13.604" stroke="#ffffff" stroke-width="0.3" stroke-linejoin="round" stroke-linecap="round" fill="none"/>
<rect x="7" y="19.954" width="10.16" height="13.207999999999998" stroke="#ffffff" stroke-width="0.3" fill="rgba(255,255,255,0.06)"/>
<polyline points="10.302,7.508 8.524000000000001,7.508 8.524000000000001,19.192 10.302,19.192" stroke="#ffffff" stroke-width="0.3" stroke-linejoin="round" stroke-linecap="round" fill="none"/>
<polyline points="11.572,7.508 13.858,7.508 13.858,19.192 12.588000000000001,19.192" stroke="#ffffff" stroke-width="0.3" stroke-linejoin="round" stroke-linecap="round" fill="none"/>
<polyline points="12.08,19.7 11.572,19.192 10.302,19.192 10.302,7.508 11.572,7.508" stroke="#ffffff" stroke-width="0.3" stroke-linejoin="round" stroke-linecap="round" fill="none"/>
<polyline points="12.588000000000001,19.192 12.08,18.684 12.08,8.016 11.572,7.508" stroke="#ffffff" stroke-width="0.3" stroke-linejoin="round" stroke-linecap="round" fill="none"/>
<line x1="4.46" y1="9.54" x2="7" y2="9.54" stroke="#ffd60a" stroke-width="0.38142857142857145" stroke-linecap="round"/>
<text x="4" y="9.54" fill="#ffd60a" font-size="1" font-family="monospace" text-anchor="start" dominant-baseline="middle">I/O1</text>
<line x1="12.08" y1="22.240000000000002" x2="12.08" y2="19.7" stroke="#ffd60a" stroke-width="0.38142857142857145" stroke-linecap="round"/>
<text x="12.08" y="22.700000000000003" fill="#ffd60a" font-size="1" font-family="monospace" text-anchor="middle" dominant-baseline="middle">GND</text>
<line x1="4.46" y1="12.08" x2="7" y2="12.08" stroke="#ffd60a" stroke-width="0.38142857142857145" stroke-linecap="round"/>
<text x="4" y="12.08" fill="#ffd60a" font-size="1" font-family="monospace" text-anchor="start" dominant-baseline="middle">I/O2</text>
<line x1="4.46" y1="14.620000000000001" x2="7" y2="14.620000000000001" stroke="#ffd60a" stroke-width="0.38142857142857145" stroke-linecap="round"/>
<text x="4" y="14.620000000000001" fill="#ffd60a" font-size="1" font-family="monospace" text-anchor="start" dominant-baseline="middle">I/O3</text>
<line x1="12.08" y1="4.46" x2="12.08" y2="7" stroke="#ffd60a" stroke-width="0.38142857142857145" stroke-linecap="round"/>
<text x="12.08" y="4" fill="#ffd60a" font-size="1" font-family="monospace" text-anchor="middle" dominant-baseline="middle">VBUS</text>
<line x1="4.46" y1="17.16" x2="7" y2="17.16" stroke="#ffd60a" stroke-width="0.38142857142857145" stroke-linecap="round"/>
<text x="4" y="17.16" fill="#ffd60a" font-size="1" font-family="monospace" text-anchor="start" dominant-baseline="middle">I/O4</text>
</svg>