<svg xmlns="http://www.w3.org/2000/svg" viewBox="0 0 19.08 21.62">
<circle cx="8.015999999999998" cy="9.54" r="0.0001" stroke="#ffffff" stroke-width="0.508" fill="none"/>
<circle cx="9.032" cy="7.507999999999999" r="0.0001" stroke="#ffffff" stroke-width="0.508" fill="none"/>
<circle cx="9.032" cy="14.111999999999998" r="0.0001" stroke="#ffffff" stroke-width="0.508" fill="none"/>
<circle cx="10.047999999999998" cy="7.507999999999999" r="0.0001" stroke="#ffffff" stroke-width="0.508" fill="none"/>
<circle cx="10.047999999999998" cy="14.111999999999998" r="0.0001" stroke="#ffffff" stroke-width="0.508" fill="none"/>
<circle cx="11.064" cy="12.079999999999998" r="0.0001" stroke="#ffffff" stroke-width="0.508" fill="none"/>
<line x1="6.999999999999999" y1="9.54" x2="12.079999999999998" y2="9.54" stroke="#ffffff" stroke-width="0.3" stroke-linecap="round" fill="none"/>
<line x1="6.999999999999999" y1="12.079999999999998" x2="12.079999999999998" y2="12.079999999999998" stroke="#ffffff" stroke-width="0.3" stroke-linecap="round" fill="none"/>
<polyline points="7.507999999999999,9.032 8.524,9.032 8.015999999999998,8.015999999999998 7.507999999999999,9.032" stroke="#ffffff" stroke-width="0.3" stroke-linejoin="round" stroke-linecap="round" fill="none"/>
<line x1="7.507999999999999" y1="12.588" x2="8.524" y2="12.588" stroke="#ffffff" stroke-width="0.3" stroke-linecap="round" fill="none"/>
<line x1="8.524" y1="8.015999999999998" x2="7.507999999999999" y2="8.015999999999998" stroke="#ffffff" stroke-width="0.3" stroke-linecap="round" fill="none"/>
<polyline points="8.524,13.604 7.507999999999999,13.604 8.015999999999998,12.588 8.524,13.604" stroke="#ffffff" stroke-width="0.3" stroke-linejoin="round" stroke-linecap="round" fill="none"/>
<polyline points="9.032,10.683 9.032,10.302 10.047999999999998,10.302" stroke="#ffffff" stroke-width="0.3" stroke-linejoin="round" stroke-linecap="round" fill="none"/>
<polyline points="9.54,6.999999999999999 9.032,7.507999999999999 10.047999999999998,7.507999999999999 9.54,8.015999999999998 9.54,13.604 9.032,14.111999999999998 10.047999999999998,14.111999999999998 9.54,14.62" stroke="#ffffff" stroke-width="0.3" stroke-linejoin="round" stroke-linecap="round" fill="none"/>
<polyline points="10.047999999999998,11.318 9.032,11.318 9.54,10.302 10.047999999999998,11.318" stroke="#ffffff" stroke-width="0.3" stroke-linejoin="round" stroke-linecap="round" fill="none"/>
<line x1="10.556" y1="8.015999999999998" x2="11.572" y2="8.015999999999998" stroke="#ffffff" stroke-width="0.3" stroke-linecap="round" fill="none"/>
<line x1="10.556" y1="12.588" x2="11.572" y2="12.588" stroke="#ffffff" stroke-width="0.3" stroke-linecap="round" fill="none"/>
<polyline points="11.572,9.032 10.556,9.032 11.064,8.015999999999998 11.572,9.032" stroke="#ffffff" stroke-width="0.3" stroke-linejoin="round" stroke-linecap="round" fill="none"/>
<polyline points="11.572,13.604 10.556,13.604 11.064,12.588 11.572,13.604" stroke="#ffffff" stroke-width="0.3" stroke-linejoin="round" stroke-linecap="round" fill="none"/>
<rect x="6.999999999999999" y="14.873999999999999" width="5.08" height="8.128" stroke="#ffffff" stroke-width="0.3" fill="rgba(255,255,255,0.06)"/>
<polyline points="9.032,7.507999999999999 8.015999999999998,7.507999999999999 8.015999999999998,14.111999999999998 9.032,14.111999999999998" stroke="#ffffff" stroke-width="0.3" stroke-linejoin="round" stroke-linecap="round" fill="none"/>
<polyline points="10.047999999999998,14.111999999999998 11.064,14.111999999999998 11.064,7.507999999999999 10.047999999999998,7.507999999999999" stroke="#ffffff" stroke-width="0.3" stroke-linejoin="round" stroke-linecap="round" fill="none"/>
<line x1="4.459999999999999" y1="9.54" x2="6.999999999999999" y2="9.54" stroke="#ffd60a" stroke-width="0.3088571428571429" stroke-linecap="round"/>
<text x="3.999999999999999" y="9.54" fill="#ffd60a" font-size="1" font-family="monospace" text-anchor="start" dominant-baseline="middle">I/O1</text>
<line x1="9.54" y1="17.16" x2="9.54" y2="14.62" stroke="#ffd60a" stroke-width="0.3088571428571429" stroke-linecap="round"/>
<text x="9.54" y="17.619999999999997" fill="#ffd60a" font-size="1" font-family="monospace" text-anchor="middle" dominant-baseline="middle">GND</text>
<line x1="4.459999999999999" y1="12.079999999999998" x2="6.999999999999999" y2="12.079999999999998" stroke="#ffd60a" stroke-width="0.3088571428571429" stroke-linecap="round"/>
<text x="3.999999999999999" y="12.079999999999998" fill="#ffd60a" font-size="1" font-family="monospace" text-anchor="start" dominant-baseline="middle">I/O2</text>
<line x1="14.62" y1="12.079999999999998" x2="12.079999999999998" y2="12.079999999999998" stroke="#ffd60a" stroke-width="0.3088571428571429" stroke-linecap="round"/>
<text x="15.079999999999998" y="12.079999999999998" fill="#ffd60a" font-size="1" font-family="monospace" text-anchor="end" dominant-baseline="middle">I/O2</text>
<line x1="9.54" y1="4.459999999999999" x2="9.54" y2="6.999999999999999" stroke="#ffd60a" stroke-width="0.3088571428571429" stroke-linecap="round"/>
<text x="9.54" y="3.999999999999999" fill="#ffd60a" font-size="1" font-family="monospace" text-anchor="middle" dominant-baseline="middle">VBUS</text>
<line x1="14.62" y1="9.54" x2="12.079999999999998" y2="9.54" stroke="#ffd60a" stroke-width="0.3088571428571429" stroke-linecap="round"/>
<text x="15.079999999999998" y="9.54" fill="#ffd60a" font-size="1" font-family="monospace" text-anchor="end" dominant-baseline="middle">I/O1</text>
</svg>