<svg xmlns="http://www.w3.org/2000/svg" viewBox="0 0 180 480">
<rect x="50" y="50" width="80" height="380" stroke="#ffffff" stroke-width="1.5" fill="rgba(255,255,255,0.04)"/>
<text x="90" y="240" fill="#888" font-size="3" font-family="monospace" text-anchor="middle" dominant-baseline="middle">U</text>
<line x1="30" y1="60" x2="50" y2="60" stroke="#ffd60a" stroke-width="1.5" stroke-linecap="round"/>
<text x="55" y="60" fill="#ffd60a" font-size="2" font-family="monospace" text-anchor="start" dominant-baseline="middle">A</text>
<line x1="30" y1="80" x2="50" y2="80" stroke="#ffd60a" stroke-width="1.5" stroke-linecap="round"/>
<text x="55" y="80" fill="#ffd60a" font-size="2" font-family="monospace" text-anchor="start" dominant-baseline="middle">B</text>
<line x1="30" y1="100" x2="50" y2="100" stroke="#ffd60a" stroke-width="1.5" stroke-linecap="round"/>
<text x="55" y="100" fill="#ffd60a" font-size="2" font-family="monospace" text-anchor="start" dominant-baseline="middle">IOB7</text>
<line x1="30" y1="120" x2="50" y2="120" stroke="#ffd60a" stroke-width="1.5" stroke-linecap="round"/>
<text x="55" y="120" fill="#ffd60a" font-size="2" font-family="monospace" text-anchor="start" dominant-baseline="middle">IOB6</text>
<line x1="30" y1="140" x2="50" y2="140" stroke="#ffd60a" stroke-width="1.5" stroke-linecap="round"/>
<text x="55" y="140" fill="#ffd60a" font-size="2" font-family="monospace" text-anchor="start" dominant-baseline="middle">IOB5</text>
<line x1="30" y1="160" x2="50" y2="160" stroke="#ffd60a" stroke-width="1.5" stroke-linecap="round"/>
<text x="55" y="160" fill="#ffd60a" font-size="2" font-family="monospace" text-anchor="start" dominant-baseline="middle">IOB4</text>
<line x1="30" y1="180" x2="50" y2="180" stroke="#ffd60a" stroke-width="1.5" stroke-linecap="round"/>
<text x="55" y="180" fill="#ffd60a" font-size="2" font-family="monospace" text-anchor="start" dominant-baseline="middle">IOB3</text>
<line x1="30" y1="200" x2="50" y2="200" stroke="#ffd60a" stroke-width="1.5" stroke-linecap="round"/>
<text x="55" y="200" fill="#ffd60a" font-size="2" font-family="monospace" text-anchor="start" dominant-baseline="middle">IOB2</text>
<line x1="30" y1="220" x2="50" y2="220" stroke="#ffd60a" stroke-width="1.5" stroke-linecap="round"/>
<text x="55" y="220" fill="#ffd60a" font-size="2" font-family="monospace" text-anchor="start" dominant-baseline="middle">IOB1</text>
<line x1="30" y1="240" x2="50" y2="240" stroke="#ffd60a" stroke-width="1.5" stroke-linecap="round"/>
<text x="55" y="240" fill="#ffd60a" font-size="2" font-family="monospace" text-anchor="start" dominant-baseline="middle">IOB0</text>
<line x1="30" y1="260" x2="50" y2="260" stroke="#ffd60a" stroke-width="1.5" stroke-linecap="round"/>
<text x="55" y="260" fill="#ffd60a" font-size="2" font-family="monospace" text-anchor="start" dominant-baseline="middle">IOA7</text>
<line x1="30" y1="280" x2="50" y2="280" stroke="#ffd60a" stroke-width="1.5" stroke-linecap="round"/>
<text x="55" y="280" fill="#ffd60a" font-size="2" font-family="monospace" text-anchor="start" dominant-baseline="middle">IOA6</text>
<line x1="30" y1="300" x2="50" y2="300" stroke="#ffd60a" stroke-width="1.5" stroke-linecap="round"/>
<text x="55" y="300" fill="#ffd60a" font-size="2" font-family="monospace" text-anchor="start" dominant-baseline="middle">IOA5</text>
<line x1="30" y1="320" x2="50" y2="320" stroke="#ffd60a" stroke-width="1.5" stroke-linecap="round"/>
<text x="55" y="320" fill="#ffd60a" font-size="2" font-family="monospace" text-anchor="start" dominant-baseline="middle">IOA4</text>
<line x1="30" y1="340" x2="50" y2="340" stroke="#ffd60a" stroke-width="1.5" stroke-linecap="round"/>
<text x="55" y="340" fill="#ffd60a" font-size="2" font-family="monospace" text-anchor="start" dominant-baseline="middle">IOA3</text>
<line x1="30" y1="360" x2="50" y2="360" stroke="#ffd60a" stroke-width="1.5" stroke-linecap="round"/>
<text x="55" y="360" fill="#ffd60a" font-size="2" font-family="monospace" text-anchor="start" dominant-baseline="middle">IOA2</text>
<line x1="30" y1="380" x2="50" y2="380" stroke="#ffd60a" stroke-width="1.5" stroke-linecap="round"/>
<text x="55" y="380" fill="#ffd60a" font-size="2" font-family="monospace" text-anchor="start" dominant-baseline="middle">IOA1</text>
<line x1="30" y1="400" x2="50" y2="400" stroke="#ffd60a" stroke-width="1.5" stroke-linecap="round"/>
<text x="55" y="400" fill="#ffd60a" font-size="2" font-family="monospace" text-anchor="start" dominant-baseline="middle">IOA0</text>
<line x1="30" y1="420" x2="50" y2="420" stroke="#ffd60a" stroke-width="1.5" stroke-linecap="round"/>
<text x="55" y="420" fill="#ffd60a" font-size="2" font-family="monospace" text-anchor="start" dominant-baseline="middle">C</text>
<line x1="150" y1="60" x2="130" y2="60" stroke="#ffd60a" stroke-width="1.5" stroke-linecap="round"/>
<text x="125" y="60" fill="#ffd60a" font-size="2" font-family="monospace" text-anchor="end" dominant-baseline="middle">NC</text>
<line x1="150" y1="80" x2="130" y2="80" stroke="#ffd60a" stroke-width="1.5" stroke-linecap="round"/>
<text x="125" y="80" fill="#ffd60a" font-size="2" font-family="monospace" text-anchor="end" dominant-baseline="middle">NC</text>
<line x1="150" y1="100" x2="130" y2="100" stroke="#ffd60a" stroke-width="1.5" stroke-linecap="round"/>
<text x="125" y="100" fill="#ffd60a" font-size="2" font-family="monospace" text-anchor="end" dominant-baseline="middle">CLOCK</text>
<line x1="150" y1="120" x2="130" y2="120" stroke="#ffd60a" stroke-width="1.5" stroke-linecap="round"/>
<text x="125" y="120" fill="#ffd60a" font-size="2" font-family="monospace" text-anchor="end" dominant-baseline="middle">~{RESET}</text>
<line x1="150" y1="140" x2="130" y2="140" stroke="#ffd60a" stroke-width="1.5" stroke-linecap="round"/>
<text x="125" y="140" fill="#ffd60a" font-size="2" font-family="monospace" text-anchor="end" dominant-baseline="middle">~{A9}</text>
<line x1="150" y1="160" x2="130" y2="160" stroke="#ffd60a" stroke-width="1.5" stroke-linecap="round"/>
<text x="125" y="160" fill="#ffd60a" font-size="2" font-family="monospace" text-anchor="end" dominant-baseline="middle">A8</text>
<line x1="150" y1="180" x2="130" y2="180" stroke="#ffd60a" stroke-width="1.5" stroke-linecap="round"/>
<text x="125" y="180" fill="#ffd60a" font-size="2" font-family="monospace" text-anchor="end" dominant-baseline="middle">~{SEL}</text>
<line x1="150" y1="200" x2="130" y2="200" stroke="#ffd60a" stroke-width="1.5" stroke-linecap="round"/>
<text x="125" y="200" fill="#ffd60a" font-size="2" font-family="monospace" text-anchor="end" dominant-baseline="middle">BDIR</text>
<line x1="150" y1="220" x2="130" y2="220" stroke="#ffd60a" stroke-width="1.5" stroke-linecap="round"/>
<text x="125" y="220" fill="#ffd60a" font-size="2" font-family="monospace" text-anchor="end" dominant-baseline="middle">BC2</text>
<line x1="150" y1="240" x2="130" y2="240" stroke="#ffd60a" stroke-width="1.5" stroke-linecap="round"/>
<text x="125" y="240" fill="#ffd60a" font-size="2" font-family="monospace" text-anchor="end" dominant-baseline="middle">BC1</text>
<line x1="150" y1="260" x2="130" y2="260" stroke="#ffd60a" stroke-width="1.5" stroke-linecap="round"/>
<text x="125" y="260" fill="#ffd60a" font-size="2" font-family="monospace" text-anchor="end" dominant-baseline="middle">DA7</text>
<line x1="150" y1="280" x2="130" y2="280" stroke="#ffd60a" stroke-width="1.5" stroke-linecap="round"/>
<text x="125" y="280" fill="#ffd60a" font-size="2" font-family="monospace" text-anchor="end" dominant-baseline="middle">DA6</text>
<line x1="150" y1="300" x2="130" y2="300" stroke="#ffd60a" stroke-width="1.5" stroke-linecap="round"/>
<text x="125" y="300" fill="#ffd60a" font-size="2" font-family="monospace" text-anchor="end" dominant-baseline="middle">DA5</text>
<line x1="150" y1="320" x2="130" y2="320" stroke="#ffd60a" stroke-width="1.5" stroke-linecap="round"/>
<text x="125" y="320" fill="#ffd60a" font-size="2" font-family="monospace" text-anchor="end" dominant-baseline="middle">DA4</text>
<line x1="150" y1="340" x2="130" y2="340" stroke="#ffd60a" stroke-width="1.5" stroke-linecap="round"/>
<text x="125" y="340" fill="#ffd60a" font-size="2" font-family="monospace" text-anchor="end" dominant-baseline="middle">DA3</text>
<line x1="150" y1="360" x2="130" y2="360" stroke="#ffd60a" stroke-width="1.5" stroke-linecap="round"/>
<text x="125" y="360" fill="#ffd60a" font-size="2" font-family="monospace" text-anchor="end" dominant-baseline="middle">DA2</text>
<line x1="150" y1="380" x2="130" y2="380" stroke="#ffd60a" stroke-width="1.5" stroke-linecap="round"/>
<text x="125" y="380" fill="#ffd60a" font-size="2" font-family="monospace" text-anchor="end" dominant-baseline="middle">DA1</text>
<line x1="150" y1="400" x2="130" y2="400" stroke="#ffd60a" stroke-width="1.5" stroke-linecap="round"/>
<text x="125" y="400" fill="#ffd60a" font-size="2" font-family="monospace" text-anchor="end" dominant-baseline="middle">DA0</text>
<line x1="150" y1="420" x2="130" y2="420" stroke="#ffd60a" stroke-width="1.5" stroke-linecap="round"/>
<text x="125" y="420" fill="#ffd60a" font-size="2" font-family="monospace" text-anchor="end" dominant-baseline="middle">TEST1</text>
<line x1="90" y1="30" x2="90" y2="50" stroke="#ffd60a" stroke-width="1.5" stroke-linecap="round"/>
<text x="90" y="25" fill="#ffd60a" font-size="2" font-family="monospace" text-anchor="middle" dominant-baseline="middle">VSS</text>
<line x1="90" y1="450" x2="90" y2="430" stroke="#ffd60a" stroke-width="1.5" stroke-linecap="round"/>
<text x="90" y="464" fill="#ffd60a" font-size="2" font-family="monospace" text-anchor="middle" dominant-baseline="middle">VCC</text>
</svg>